solid Default
  facet normal 0.000000e+00 -1.000000e+00 0.000000e+00
    outer loop
      vertex -2.500000e+01 1.300000e+01 4.336809e-16
      vertex 2.500000e+01 1.300000e+01 4.336809e-16
      vertex -2.500000e+01 1.300000e+01 1.000000e+00
    endloop
  endfacet
  facet normal 0.000000e+00 -1.000000e+00 0.000000e+00
    outer loop
      vertex -2.500000e+01 1.300000e+01 1.000000e+00
      vertex 2.500000e+01 1.300000e+01 4.336809e-16
      vertex 2.500000e+01 1.300000e+01 1.000000e+00
    endloop
  endfacet
  facet normal -1.000000e+00 0.000000e+00 0.000000e+00
    outer loop
      vertex 2.500000e+01 1.300000e+01 4.336809e-16
      vertex 2.500000e+01 -1.200000e+01 4.336809e-16
      vertex 2.500000e+01 1.300000e+01 1.000000e+00
    endloop
  endfacet
  facet normal -1.000000e+00 0.000000e+00 0.000000e+00
    outer loop
      vertex 2.500000e+01 1.300000e+01 1.000000e+00
      vertex 2.500000e+01 -1.200000e+01 4.336809e-16
      vertex 2.500000e+01 -1.200000e+01 1.000000e+00
    endloop
  endfacet
  facet normal 0.000000e+00 1.000000e+00 0.000000e+00
    outer loop
      vertex 2.500000e+01 -1.200000e+01 4.336809e-16
      vertex -2.500000e+01 -1.200000e+01 4.336809e-16
      vertex 2.500000e+01 -1.200000e+01 1.000000e+00
    endloop
  endfacet
  facet normal 0.000000e+00 1.000000e+00 0.000000e+00
    outer loop
      vertex 2.500000e+01 -1.200000e+01 1.000000e+00
      vertex -2.500000e+01 -1.200000e+01 4.336809e-16
      vertex -2.500000e+01 -1.200000e+01 1.000000e+00
    endloop
  endfacet
  facet normal 1.000000e+00 0.000000e+00 0.000000e+00
    outer loop
      vertex -2.500000e+01 -1.200000e+01 4.336809e-16
      vertex -2.500000e+01 1.300000e+01 4.336809e-16
      vertex -2.500000e+01 -1.200000e+01 1.000000e+00
    endloop
  endfacet
  facet normal 1.000000e+00 0.000000e+00 0.000000e+00
    outer loop
      vertex -2.500000e+01 -1.200000e+01 1.000000e+00
      vertex -2.500000e+01 1.300000e+01 4.336809e-16
      vertex -2.500000e+01 1.300000e+01 1.000000e+00
    endloop
  endfacet
  facet normal -1.000000e+00 0.000000e+00 0.000000e+00
    outer loop
      vertex -3.400000e+01 -1.500000e+01 4.336809e-16
      vertex -3.400000e+01 -1.800000e+01 4.336809e-16
      vertex -3.400000e+01 -1.500000e+01 1.000000e+00
    endloop
  endfacet
  facet normal -1.000000e+00 0.000000e+00 0.000000e+00
    outer loop
      vertex -3.400000e+01 -1.500000e+01 1.000000e+00
      vertex -3.400000e+01 -1.800000e+01 4.336809e-16
      vertex -3.400000e+01 -1.800000e+01 1.000000e+00
    endloop
  endfacet
  facet normal -9.981685e-01 6.049507e-02 0.000000e+00
    outer loop
      vertex -3.200000e+01 1.800000e+01 0.000000e+00
      vertex -3.400000e+01 -1.500000e+01 0.000000e+00
      vertex -3.200000e+01 1.800000e+01 1.000000e+00
    endloop
  endfacet
  facet normal -9.981685e-01 6.049507e-02 0.000000e+00
    outer loop
      vertex -3.200000e+01 1.800000e+01 1.000000e+00
      vertex -3.400000e+01 -1.500000e+01 0.000000e+00
      vertex -3.400000e+01 -1.500000e+01 1.000000e+00
    endloop
  endfacet
  facet normal 0.000000e+00 1.000000e+00 0.000000e+00
    outer loop
      vertex 3.200000e+01 1.800000e+01 4.336809e-16
      vertex -3.200000e+01 1.800000e+01 4.336809e-16
      vertex 3.200000e+01 1.800000e+01 1.000000e+00
    endloop
  endfacet
  facet normal 0.000000e+00 1.000000e+00 0.000000e+00
    outer loop
      vertex 3.200000e+01 1.800000e+01 1.000000e+00
      vertex -3.200000e+01 1.800000e+01 4.336809e-16
      vertex -3.200000e+01 1.800000e+01 1.000000e+00
    endloop
  endfacet
  facet normal 9.981685e-01 6.049519e-02 0.000000e+00
    outer loop
      vertex 3.400000e+01 -1.500000e+01 0.000000e+00
      vertex 3.200000e+01 1.800000e+01 0.000000e+00
      vertex 3.400000e+01 -1.500000e+01 1.000000e+00
    endloop
  endfacet
  facet normal 9.981685e-01 6.049519e-02 0.000000e+00
    outer loop
      vertex 3.400000e+01 -1.500000e+01 1.000000e+00
      vertex 3.200000e+01 1.800000e+01 0.000000e+00
      vertex 3.200000e+01 1.800000e+01 1.000000e+00
    endloop
  endfacet
  facet normal 1.000000e+00 0.000000e+00 0.000000e+00
    outer loop
      vertex 3.400000e+01 -1.800000e+01 4.336809e-16
      vertex 3.400000e+01 -1.500000e+01 4.336809e-16
      vertex 3.400000e+01 -1.800000e+01 1.000000e+00
    endloop
  endfacet
  facet normal 1.000000e+00 0.000000e+00 0.000000e+00
    outer loop
      vertex 3.400000e+01 -1.800000e+01 1.000000e+00
      vertex 3.400000e+01 -1.500000e+01 4.336809e-16
      vertex 3.400000e+01 -1.500000e+01 1.000000e+00
    endloop
  endfacet
  facet normal 0.000000e+00 -1.000000e+00 0.000000e+00
    outer loop
      vertex -3.400000e+01 -1.800000e+01 4.336809e-16
      vertex 3.400000e+01 -1.800000e+01 4.336809e-16
      vertex -3.400000e+01 -1.800000e+01 1.000000e+00
    endloop
  endfacet
  facet normal 0.000000e+00 -1.000000e+00 0.000000e+00
    outer loop
      vertex -3.400000e+01 -1.800000e+01 1.000000e+00
      vertex 3.400000e+01 -1.800000e+01 4.336809e-16
      vertex 3.400000e+01 -1.800000e+01 1.000000e+00
    endloop
  endfacet
  facet normal 0.000000e+00 0.000000e+00 -1.000000e+00
    outer loop
      vertex 3.400000e+01 -1.800000e+01 4.336809e-16
      vertex -3.400000e+01 -1.800000e+01 4.336809e-16
      vertex -2.500000e+01 -1.200000e+01 4.336809e-16
    endloop
  endfacet
  facet normal 0.000000e+00 0.000000e+00 -1.000000e+00
    outer loop
      vertex -2.500000e+01 -1.200000e+01 4.336809e-16
      vertex -3.400000e+01 -1.800000e+01 4.336809e-16
      vertex -3.400000e+01 -1.500000e+01 4.336809e-16
    endloop
  endfacet
  facet normal 0.000000e+00 0.000000e+00 -1.000000e+00
    outer loop
      vertex -2.500000e+01 -1.200000e+01 4.336809e-16
      vertex -3.400000e+01 -1.500000e+01 4.336809e-16
      vertex -2.500000e+01 1.300000e+01 4.336809e-16
    endloop
  endfacet
  facet normal 0.000000e+00 0.000000e+00 -1.000000e+00
    outer loop
      vertex -2.500000e+01 1.300000e+01 4.336809e-16
      vertex -3.400000e+01 -1.500000e+01 4.336809e-16
      vertex -3.200000e+01 1.800000e+01 4.336809e-16
    endloop
  endfacet
  facet normal 0.000000e+00 0.000000e+00 -1.000000e+00
    outer loop
      vertex -2.500000e+01 1.300000e+01 4.336809e-16
      vertex -3.200000e+01 1.800000e+01 4.336809e-16
      vertex 3.200000e+01 1.800000e+01 4.336809e-16
    endloop
  endfacet
  facet normal 0.000000e+00 0.000000e+00 -1.000000e+00
    outer loop
      vertex -2.500000e+01 1.300000e+01 4.336809e-16
      vertex 3.200000e+01 1.800000e+01 4.336809e-16
      vertex 2.500000e+01 1.300000e+01 4.336809e-16
    endloop
  endfacet
  facet normal 0.000000e+00 0.000000e+00 -1.000000e+00
    outer loop
      vertex 2.500000e+01 1.300000e+01 4.336809e-16
      vertex 3.200000e+01 1.800000e+01 4.336809e-16
      vertex 3.400000e+01 -1.500000e+01 4.336809e-16
    endloop
  endfacet
  facet normal 0.000000e+00 0.000000e+00 -1.000000e+00
    outer loop
      vertex 2.500000e+01 1.300000e+01 4.336809e-16
      vertex 3.400000e+01 -1.500000e+01 4.336809e-16
      vertex 2.500000e+01 -1.200000e+01 4.336809e-16
    endloop
  endfacet
  facet normal -0.000000e+00 -0.000000e+00 -1.000000e+00
    outer loop
      vertex 2.500000e+01 -1.200000e+01 4.336809e-16
      vertex 3.400000e+01 -1.500000e+01 4.336809e-16
      vertex 3.400000e+01 -1.800000e+01 4.336809e-16
    endloop
  endfacet
  facet normal 0.000000e+00 0.000000e+00 -1.000000e+00
    outer loop
      vertex 2.500000e+01 -1.200000e+01 4.336809e-16
      vertex 3.400000e+01 -1.800000e+01 4.336809e-16
      vertex -2.500000e+01 -1.200000e+01 4.336809e-16
    endloop
  endfacet
  facet normal 0.000000e+00 0.000000e+00 1.000000e+00
    outer loop
      vertex -3.400000e+01 -1.800000e+01 1.000000e+00
      vertex 3.400000e+01 -1.800000e+01 1.000000e+00
      vertex 2.500000e+01 -1.200000e+01 1.000000e+00
    endloop
  endfacet
  facet normal 0.000000e+00 0.000000e+00 1.000000e+00
    outer loop
      vertex 2.500000e+01 -1.200000e+01 1.000000e+00
      vertex 3.400000e+01 -1.800000e+01 1.000000e+00
      vertex 3.400000e+01 -1.500000e+01 1.000000e+00
    endloop
  endfacet
  facet normal 0.000000e+00 0.000000e+00 1.000000e+00
    outer loop
      vertex 2.500000e+01 -1.200000e+01 1.000000e+00
      vertex 3.400000e+01 -1.500000e+01 1.000000e+00
      vertex 2.500000e+01 1.300000e+01 1.000000e+00
    endloop
  endfacet
  facet normal 0.000000e+00 0.000000e+00 1.000000e+00
    outer loop
      vertex 2.500000e+01 1.300000e+01 1.000000e+00
      vertex 3.400000e+01 -1.500000e+01 1.000000e+00
      vertex 3.200000e+01 1.800000e+01 1.000000e+00
    endloop
  endfacet
  facet normal 0.000000e+00 0.000000e+00 1.000000e+00
    outer loop
      vertex 2.500000e+01 1.300000e+01 1.000000e+00
      vertex 3.200000e+01 1.800000e+01 1.000000e+00
      vertex -2.500000e+01 1.300000e+01 1.000000e+00
    endloop
  endfacet
  facet normal 0.000000e+00 0.000000e+00 1.000000e+00
    outer loop
      vertex -2.500000e+01 1.300000e+01 1.000000e+00
      vertex 3.200000e+01 1.800000e+01 1.000000e+00
      vertex -3.200000e+01 1.800000e+01 1.000000e+00
    endloop
  endfacet
  facet normal 0.000000e+00 0.000000e+00 1.000000e+00
    outer loop
      vertex -2.500000e+01 1.300000e+01 1.000000e+00
      vertex -3.200000e+01 1.800000e+01 1.000000e+00
      vertex -3.400000e+01 -1.500000e+01 1.000000e+00
    endloop
  endfacet
  facet normal 0.000000e+00 0.000000e+00 1.000000e+00
    outer loop
      vertex -2.500000e+01 1.300000e+01 1.000000e+00
      vertex -3.400000e+01 -1.500000e+01 1.000000e+00
      vertex -2.500000e+01 -1.200000e+01 1.000000e+00
    endloop
  endfacet
  facet normal 0.000000e+00 0.000000e+00 1.000000e+00
    outer loop
      vertex -2.500000e+01 -1.200000e+01 1.000000e+00
      vertex -3.400000e+01 -1.500000e+01 1.000000e+00
      vertex -3.400000e+01 -1.800000e+01 1.000000e+00
    endloop
  endfacet
  facet normal 0.000000e+00 0.000000e+00 1.000000e+00
    outer loop
      vertex -2.500000e+01 -1.200000e+01 1.000000e+00
      vertex -3.400000e+01 -1.800000e+01 1.000000e+00
      vertex 2.500000e+01 -1.200000e+01 1.000000e+00
    endloop
  endfacet
endsolid Default
