solid GIM - ENTRANCE SIGN Stand
facet normal 0.0 0.0 -1.0
outer loop
vertex 70.0 20.0 0.0
vertex 0.0 0.0 0.0
vertex 0.0 20.0 0.0
endloop
endfacet
facet normal 0.0 0.0 -1.0
outer loop
vertex 0.0 0.0 0.0
vertex 70.0 20.0 0.0
vertex 70.0 0.0 0.0
endloop
endfacet
facet normal -0.0 -1.0 -0.0
outer loop
vertex 70.0 0.0 2.0
vertex 0.0 0.0 0.0
vertex 70.0 0.0 0.0
endloop
endfacet
facet normal -0.0 -1.0 -0.0
outer loop
vertex 0.0 0.0 0.0
vertex 70.0 0.0 2.0
vertex 0.0 0.0 2.0
endloop
endfacet
facet normal -1.0 0.0 0.0
outer loop
vertex 0.0 10.0 2.0
vertex 0.0 0.0 0.0
vertex 0.0 0.0 2.0
endloop
endfacet
facet normal -1.0 0.0 0.0
outer loop
vertex 0.0 0.0 0.0
vertex 0.0 10.0 2.0
vertex 0.0 20.0 0.0
endloop
endfacet
facet normal -1.0 0.0 0.0
outer loop
vertex 0.0 20.0 0.0
vertex 0.0 10.0 2.0
vertex 0.0 20.0 2.0
endloop
endfacet
facet normal -0.0 1.0 0.0
outer loop
vertex 0.0 20.0 2.0
vertex 70.0 20.0 0.0
vertex 0.0 20.0 0.0
endloop
endfacet
facet normal -0.0 1.0 0.0
outer loop
vertex 70.0 20.0 0.0
vertex 0.0 20.0 2.0
vertex 70.0 20.0 2.0
endloop
endfacet
facet normal 1.0 -0.0 -0.0
outer loop
vertex 70.0 20.0 0.0
vertex 70.0 0.0 2.0
vertex 70.0 0.0 0.0
endloop
endfacet
facet normal 1.0 -0.0 -0.0
outer loop
vertex 70.0 0.0 2.0
vertex 70.0 20.0 0.0
vertex 70.0 10.0 2.0
endloop
endfacet
facet normal 1.0 -0.0 -0.0
outer loop
vertex 70.0 10.0 2.0
vertex 70.0 20.0 0.0
vertex 70.0 20.0 2.0
endloop
endfacet
facet normal -0.0 -0.0 1.0
outer loop
vertex 1.75 6.96891108675446 8.0
vertex 1.9545186779375 9.58588952783597 8.0
vertex 1.9 10.0 8.0
endloop
endfacet
facet normal -0.0 -0.0 1.0
outer loop
vertex 1.9545186779375 9.58588952783597 8.0
vertex 1.75 6.96891108675446 8.0
vertex 2.59413334214118 6.61925960798825 8.0
endloop
endfacet
facet normal -0.0 -0.0 1.0
outer loop
vertex 1.9545186779375 9.58588952783597 8.0
vertex 2.59413334214118 6.61925960798825 8.0
vertex 2.1143593539449 9.2 8.0
endloop
endfacet
facet normal -0.0 -0.0 1.0
outer loop
vertex 2.1143593539449 9.2 8.0
vertex 2.59413334214118 6.61925960798825 8.0
vertex 2.36862915010153 8.86862915010152 8.0
endloop
endfacet
facet normal -0.0 -0.0 1.0
outer loop
vertex 2.36862915010153 8.86862915010152 8.0
vertex 2.59413334214118 6.61925960798825 8.0
vertex 2.70000000000001 8.6143593539449 8.0
endloop
endfacet
facet normal -0.0 -0.0 1.0
outer loop
vertex 2.70000000000001 8.6143593539449 8.0
vertex 2.59413334214118 6.61925960798825 8.0
vertex 3.50000000000001 6.5 8.0
endloop
endfacet
facet normal -0.0 -0.0 1.0
outer loop
vertex 2.70000000000001 8.6143593539449 8.0
vertex 3.50000000000001 6.5 8.0
vertex 3.08588952783597 8.45451867793749 8.0
endloop
endfacet
facet normal -0.0 -0.0 1.0
outer loop
vertex 3.08588952783597 8.45451867793749 8.0
vertex 3.50000000000001 6.5 8.0
vertex 3.50000000000001 8.4 8.0
endloop
endfacet
facet normal -0.0 -0.0 1.0
outer loop
vertex 3.50000000000001 8.4 8.0
vertex 3.50000000000001 6.5 8.0
vertex 4.40586665785883 6.61925960798826 8.0
endloop
endfacet
facet normal -0.0 -0.0 1.0
outer loop
vertex 3.50000000000001 8.4 8.0
vertex 4.40586665785883 6.61925960798826 8.0
vertex 3.91411047216404 8.45451867793749 8.0
endloop
endfacet
facet normal -0.0 -0.0 1.0
outer loop
vertex 3.91411047216404 8.45451867793749 8.0
vertex 4.40586665785883 6.61925960798826 8.0
vertex 4.30000000000001 8.6143593539449 8.0
endloop
endfacet
facet normal -0.0 -0.0 1.0
outer loop
vertex 4.30000000000001 8.6143593539449 8.0
vertex 4.40586665785883 6.61925960798826 8.0
vertex 4.63137084989848 8.86862915010152 8.0
endloop
endfacet
facet normal -0.0 -0.0 1.0
outer loop
vertex 4.63137084989848 8.86862915010152 8.0
vertex 4.40586665785883 6.61925960798826 8.0
vertex 5.25000000000001 6.96891108675446 8.0
endloop
endfacet
facet normal -0.0 -0.0 1.0
outer loop
vertex 4.63137084989848 8.86862915010152 8.0
vertex 5.25000000000001 6.96891108675446 8.0
vertex 4.88564064605511 9.2 8.0
endloop
endfacet
facet normal -0.0 -0.0 1.0
outer loop
vertex 4.88564064605511 9.2 8.0
vertex 5.25000000000001 6.96891108675446 8.0
vertex 5.04548132206252 9.58588952783597 8.0
endloop
endfacet
facet normal -0.0 -0.0 1.0
outer loop
vertex 5.04548132206252 9.58588952783597 8.0
vertex 5.25000000000001 6.96891108675446 8.0
vertex 5.10000000000001 10.0 8.0
endloop
endfacet
facet normal -0.0 -0.0 1.0
outer loop
vertex 5.10000000000001 10.0 8.0
vertex 5.25000000000001 6.96891108675446 8.0
vertex 5.25000000000001 13.0310889132455 8.0
endloop
endfacet
facet normal -0.0 -0.0 1.0
outer loop
vertex 5.25000000000001 13.0310889132455 8.0
vertex 5.25000000000001 6.96891108675446 8.0
vertex 5.97487373415292 12.4748737341529 8.0
endloop
endfacet
facet normal -0.0 -0.0 1.0
outer loop
vertex 5.97487373415292 12.4748737341529 8.0
vertex 5.25000000000001 6.96891108675446 8.0
vertex 5.97487373415293 7.52512626584708 8.0
endloop
endfacet
facet normal -0.0 -0.0 1.0
outer loop
vertex 5.97487373415292 12.4748737341529 8.0
vertex 5.97487373415293 7.52512626584708 8.0
vertex 6.53108891324554 11.75 8.0
endloop
endfacet
facet normal -0.0 -0.0 1.0
outer loop
vertex 6.53108891324554 11.75 8.0
vertex 5.97487373415293 7.52512626584708 8.0
vertex 6.53108891324554 8.25 8.0
endloop
endfacet
facet normal -0.0 -0.0 1.0
outer loop
vertex 6.53108891324554 11.75 8.0
vertex 6.53108891324554 8.25 8.0
vertex 6.88074039201175 10.9058666578588 8.0
endloop
endfacet
facet normal -0.0 -0.0 1.0
outer loop
vertex 6.88074039201175 10.9058666578588 8.0
vertex 6.53108891324554 8.25 8.0
vertex 6.88074039201175 9.09413334214118 8.0
endloop
endfacet
facet normal -0.0 -0.0 1.0
outer loop
vertex 6.88074039201175 10.9058666578588 8.0
vertex 6.88074039201175 9.09413334214118 8.0
vertex 7.00000000000001 10.0 8.0
endloop
endfacet
facet normal -0.0 -0.0 1.0
outer loop
vertex 0.119259607988262 9.09413334214117 8.0
vertex 0.119259607988261 10.9058666578588 8.0
vertex 0.0 10.0 8.0
endloop
endfacet
facet normal -0.0 -0.0 1.0
outer loop
vertex 0.119259607988261 10.9058666578588 8.0
vertex 0.119259607988262 9.09413334214117 8.0
vertex 0.468911086754465 11.75 8.0
endloop
endfacet
facet normal -0.0 -0.0 1.0
outer loop
vertex 0.468911086754465 11.75 8.0
vertex 0.119259607988262 9.09413334214117 8.0
vertex 0.468911086754466 8.25 8.0
endloop
endfacet
facet normal -0.0 -0.0 1.0
outer loop
vertex 0.468911086754465 11.75 8.0
vertex 0.468911086754466 8.25 8.0
vertex 1.02512626584708 12.4748737341529 8.0
endloop
endfacet
facet normal -0.0 -0.0 1.0
outer loop
vertex 1.02512626584708 12.4748737341529 8.0
vertex 0.468911086754466 8.25 8.0
vertex 1.02512626584709 7.52512626584708 8.0
endloop
endfacet
facet normal -0.0 -0.0 1.0
outer loop
vertex 1.02512626584708 12.4748737341529 8.0
vertex 1.02512626584709 7.52512626584708 8.0
vertex 1.75 13.0310889132455 8.0
endloop
endfacet
facet normal -0.0 -0.0 1.0
outer loop
vertex 1.75 13.0310889132455 8.0
vertex 1.02512626584709 7.52512626584708 8.0
vertex 1.75 6.96891108675446 8.0
endloop
endfacet
facet normal -0.0 -0.0 1.0
outer loop
vertex 1.75 13.0310889132455 8.0
vertex 1.75 6.96891108675446 8.0
vertex 1.9 10.0 8.0
endloop
endfacet
facet normal -0.0 -0.0 1.0
outer loop
vertex 1.75 13.0310889132455 8.0
vertex 1.9 10.0 8.0
vertex 1.95451867793749 10.414110472164 8.0
endloop
endfacet
facet normal -0.0 -0.0 1.0
outer loop
vertex 1.75 13.0310889132455 8.0
vertex 1.95451867793749 10.414110472164 8.0
vertex 2.59413334214118 13.3807403920117 8.0
endloop
endfacet
facet normal -0.0 -0.0 1.0
outer loop
vertex 2.59413334214118 13.3807403920117 8.0
vertex 1.95451867793749 10.414110472164 8.0
vertex 2.1143593539449 10.8 8.0
endloop
endfacet
facet normal -0.0 -0.0 1.0
outer loop
vertex 2.59413334214118 13.3807403920117 8.0
vertex 2.1143593539449 10.8 8.0
vertex 2.36862915010153 11.1313708498985 8.0
endloop
endfacet
facet normal -0.0 -0.0 1.0
outer loop
vertex 2.59413334214118 13.3807403920117 8.0
vertex 2.36862915010153 11.1313708498985 8.0
vertex 2.7 11.3856406460551 8.0
endloop
endfacet
facet normal -0.0 -0.0 1.0
outer loop
vertex 2.59413334214118 13.3807403920117 8.0
vertex 2.7 11.3856406460551 8.0
vertex 3.5 13.5 8.0
endloop
endfacet
facet normal -0.0 -0.0 1.0
outer loop
vertex 3.5 13.5 8.0
vertex 2.7 11.3856406460551 8.0
vertex 3.08588952783597 11.5454813220625 8.0
endloop
endfacet
facet normal -0.0 -0.0 1.0
outer loop
vertex 3.5 13.5 8.0
vertex 3.08588952783597 11.5454813220625 8.0
vertex 3.5 11.6 8.0
endloop
endfacet
facet normal -0.0 -0.0 1.0
outer loop
vertex 3.5 13.5 8.0
vertex 3.5 11.6 8.0
vertex 3.91411047216404 11.5454813220625 8.0
endloop
endfacet
facet normal -0.0 -0.0 1.0
outer loop
vertex 3.5 13.5 8.0
vertex 3.91411047216404 11.5454813220625 8.0
vertex 4.40586665785883 13.3807403920117 8.0
endloop
endfacet
facet normal -0.0 -0.0 1.0
outer loop
vertex 4.40586665785883 13.3807403920117 8.0
vertex 3.91411047216404 11.5454813220625 8.0
vertex 4.30000000000001 11.3856406460551 8.0
endloop
endfacet
facet normal -0.0 -0.0 1.0
outer loop
vertex 4.40586665785883 13.3807403920117 8.0
vertex 4.30000000000001 11.3856406460551 8.0
vertex 4.63137084989848 11.1313708498985 8.0
endloop
endfacet
facet normal -0.0 -0.0 1.0
outer loop
vertex 4.40586665785883 13.3807403920117 8.0
vertex 4.63137084989848 11.1313708498985 8.0
vertex 5.25000000000001 13.0310889132455 8.0
endloop
endfacet
facet normal -0.0 -0.0 1.0
outer loop
vertex 5.25000000000001 13.0310889132455 8.0
vertex 4.63137084989848 11.1313708498985 8.0
vertex 4.88564064605511 10.8 8.0
endloop
endfacet
facet normal -0.0 -0.0 1.0
outer loop
vertex 5.25000000000001 13.0310889132455 8.0
vertex 4.88564064605511 10.8 8.0
vertex 5.04548132206252 10.414110472164 8.0
endloop
endfacet
facet normal -0.0 -0.0 1.0
outer loop
vertex 5.25000000000001 13.0310889132455 8.0
vertex 5.04548132206252 10.414110472164 8.0
vertex 5.10000000000001 10.0 8.0
endloop
endfacet
facet normal -0.99144486137381 -0.130526192220052 0.0
outer loop
vertex 0.0 10.0 8.0
vertex 0.119259607988262 9.09413334214117 2.0
vertex 0.119259607988262 9.09413334214117 8.0
endloop
endfacet
facet normal -0.99144486137381 -0.130526192220052 0.0
outer loop
vertex 0.119259607988262 9.09413334214117 2.0
vertex 0.0 10.0 8.0
vertex 0.0 10.0 2.0
endloop
endfacet
facet normal -0.99144486137381 0.130526192220052 0.0
outer loop
vertex 0.119259607988261 10.9058666578588 8.0
vertex 0.0 10.0 2.0
vertex 0.0 10.0 8.0
endloop
endfacet
facet normal -0.99144486137381 0.130526192220052 0.0
outer loop
vertex 0.0 10.0 2.0
vertex 0.119259607988261 10.9058666578588 8.0
vertex 0.119259607988261 10.9058666578588 2.0
endloop
endfacet
facet normal -0.923879532511287 0.38268343236509 0.0
outer loop
vertex 0.468911086754465 11.75 8.0
vertex 0.119259607988261 10.9058666578588 2.0
vertex 0.119259607988261 10.9058666578588 8.0
endloop
endfacet
facet normal -0.923879532511287 0.38268343236509 0.0
outer loop
vertex 0.119259607988261 10.9058666578588 2.0
vertex 0.468911086754465 11.75 8.0
vertex 0.468911086754465 11.75 2.0
endloop
endfacet
facet normal -0.793353340291235 0.608761429008721 0.0
outer loop
vertex 1.02512626584708 12.4748737341529 8.0
vertex 0.468911086754465 11.75 2.0
vertex 0.468911086754465 11.75 8.0
endloop
endfacet
facet normal -0.793353340291235 0.608761429008721 0.0
outer loop
vertex 0.468911086754465 11.75 2.0
vertex 1.02512626584708 12.4748737341529 8.0
vertex 1.02512626584708 12.4748737341529 2.0
endloop
endfacet
facet normal -0.60876142900872 0.793353340291236 0.0
outer loop
vertex 1.02512626584708 12.4748737341529 8.0
vertex 1.75 13.0310889132455 2.0
vertex 1.02512626584708 12.4748737341529 2.0
endloop
endfacet
facet normal -0.60876142900872 0.793353340291236 0.0
outer loop
vertex 1.75 13.0310889132455 2.0
vertex 1.02512626584708 12.4748737341529 8.0
vertex 1.75 13.0310889132455 8.0
endloop
endfacet
facet normal -0.382683432365092 0.923879532511286 0.0
outer loop
vertex 1.75 13.0310889132455 8.0
vertex 2.59413334214118 13.3807403920117 2.0
vertex 1.75 13.0310889132455 2.0
endloop
endfacet
facet normal -0.382683432365092 0.923879532511286 0.0
outer loop
vertex 2.59413334214118 13.3807403920117 2.0
vertex 1.75 13.0310889132455 8.0
vertex 2.59413334214118 13.3807403920117 8.0
endloop
endfacet
facet normal -0.130526192220048 0.991444861373811 0.0
outer loop
vertex 2.59413334214118 13.3807403920117 8.0
vertex 3.5 13.5 2.0
vertex 2.59413334214118 13.3807403920117 2.0
endloop
endfacet
facet normal -0.130526192220048 0.991444861373811 0.0
outer loop
vertex 3.5 13.5 2.0
vertex 2.59413334214118 13.3807403920117 8.0
vertex 3.5 13.5 8.0
endloop
endfacet
facet normal 0.130526192220049 0.991444861373811 0.0
outer loop
vertex 3.5 13.5 8.0
vertex 4.40586665785883 13.3807403920117 2.0
vertex 3.5 13.5 2.0
endloop
endfacet
facet normal 0.130526192220049 0.991444861373811 0.0
outer loop
vertex 4.40586665785883 13.3807403920117 2.0
vertex 3.5 13.5 8.0
vertex 4.40586665785883 13.3807403920117 8.0
endloop
endfacet
facet normal 0.382683432365092 0.923879532511286 0.0
outer loop
vertex 4.40586665785883 13.3807403920117 8.0
vertex 5.25000000000001 13.0310889132455 2.0
vertex 4.40586665785883 13.3807403920117 2.0
endloop
endfacet
facet normal 0.382683432365092 0.923879532511286 0.0
outer loop
vertex 5.25000000000001 13.0310889132455 2.0
vertex 4.40586665785883 13.3807403920117 8.0
vertex 5.25000000000001 13.0310889132455 8.0
endloop
endfacet
facet normal 0.60876142900872 0.793353340291236 0.0
outer loop
vertex 5.25000000000001 13.0310889132455 8.0
vertex 5.97487373415292 12.4748737341529 2.0
vertex 5.25000000000001 13.0310889132455 2.0
endloop
endfacet
facet normal 0.60876142900872 0.793353340291236 0.0
outer loop
vertex 5.97487373415292 12.4748737341529 2.0
vertex 5.25000000000001 13.0310889132455 8.0
vertex 5.97487373415292 12.4748737341529 8.0
endloop
endfacet
facet normal 0.793353340291235 0.608761429008721 0.0
outer loop
vertex 5.97487373415292 12.4748737341529 2.0
vertex 6.53108891324554 11.75 8.0
vertex 6.53108891324554 11.75 2.0
endloop
endfacet
facet normal 0.793353340291235 0.608761429008721 0.0
outer loop
vertex 6.53108891324554 11.75 8.0
vertex 5.97487373415292 12.4748737341529 2.0
vertex 5.97487373415292 12.4748737341529 8.0
endloop
endfacet
facet normal 0.923879532511286 0.382683432365091 0.0
outer loop
vertex 6.53108891324554 11.75 2.0
vertex 6.88074039201175 10.9058666578588 8.0
vertex 6.88074039201175 10.9058666578588 2.0
endloop
endfacet
facet normal 0.923879532511286 0.382683432365091 0.0
outer loop
vertex 6.88074039201175 10.9058666578588 8.0
vertex 6.53108891324554 11.75 2.0
vertex 6.53108891324554 11.75 8.0
endloop
endfacet
facet normal 0.99144486137381 0.130526192220051 0.0
outer loop
vertex 6.88074039201175 10.9058666578588 2.0
vertex 7.00000000000001 10.0 8.0
vertex 7.00000000000001 10.0 2.0
endloop
endfacet
facet normal 0.99144486137381 0.130526192220051 0.0
outer loop
vertex 7.00000000000001 10.0 8.0
vertex 6.88074039201175 10.9058666578588 2.0
vertex 6.88074039201175 10.9058666578588 8.0
endloop
endfacet
facet normal 0.99144486137381 -0.130526192220052 0.0
outer loop
vertex 7.00000000000001 10.0 2.0
vertex 6.88074039201175 9.09413334214118 8.0
vertex 6.88074039201175 9.09413334214118 2.0
endloop
endfacet
facet normal 0.99144486137381 -0.130526192220052 0.0
outer loop
vertex 6.88074039201175 9.09413334214118 8.0
vertex 7.00000000000001 10.0 2.0
vertex 7.00000000000001 10.0 8.0
endloop
endfacet
facet normal 0.923879532511287 -0.382683432365089 0.0
outer loop
vertex 6.88074039201175 9.09413334214118 2.0
vertex 6.53108891324554 8.25 8.0
vertex 6.53108891324554 8.25 2.0
endloop
endfacet
facet normal 0.923879532511287 -0.382683432365089 0.0
outer loop
vertex 6.53108891324554 8.25 8.0
vertex 6.88074039201175 9.09413334214118 2.0
vertex 6.88074039201175 9.09413334214118 8.0
endloop
endfacet
facet normal 0.793353340291236 -0.60876142900872 0.0
outer loop
vertex 6.53108891324554 8.25 2.0
vertex 5.97487373415293 7.52512626584708 8.0
vertex 5.97487373415293 7.52512626584708 2.0
endloop
endfacet
facet normal 0.793353340291236 -0.60876142900872 0.0
outer loop
vertex 5.97487373415293 7.52512626584708 8.0
vertex 6.53108891324554 8.25 2.0
vertex 6.53108891324554 8.25 8.0
endloop
endfacet
facet normal 0.608761429008721 -0.793353340291235 0.0
outer loop
vertex 5.97487373415293 7.52512626584708 8.0
vertex 5.25000000000001 6.96891108675446 2.0
vertex 5.97487373415293 7.52512626584708 2.0
endloop
endfacet
facet normal 0.608761429008721 -0.793353340291235 0.0
outer loop
vertex 5.25000000000001 6.96891108675446 2.0
vertex 5.97487373415293 7.52512626584708 8.0
vertex 5.25000000000001 6.96891108675446 8.0
endloop
endfacet
facet normal 0.38268343236509 -0.923879532511287 0.0
outer loop
vertex 5.25000000000001 6.96891108675446 8.0
vertex 4.40586665785883 6.61925960798826 2.0
vertex 5.25000000000001 6.96891108675446 2.0
endloop
endfacet
facet normal 0.38268343236509 -0.923879532511287 0.0
outer loop
vertex 4.40586665785883 6.61925960798826 2.0
vertex 5.25000000000001 6.96891108675446 8.0
vertex 4.40586665785883 6.61925960798826 8.0
endloop
endfacet
facet normal 0.130526192220053 -0.99144486137381 0.0
outer loop
vertex 4.40586665785883 6.61925960798826 8.0
vertex 3.50000000000001 6.5 2.0
vertex 4.40586665785883 6.61925960798826 2.0
endloop
endfacet
facet normal 0.130526192220053 -0.99144486137381 0.0
outer loop
vertex 3.50000000000001 6.5 2.0
vertex 4.40586665785883 6.61925960798826 8.0
vertex 3.50000000000001 6.5 8.0
endloop
endfacet
facet normal -0.13052619222005 -0.991444861373811 -0.0
outer loop
vertex 3.50000000000001 6.5 8.0
vertex 2.59413334214118 6.61925960798825 2.0
vertex 3.50000000000001 6.5 2.0
endloop
endfacet
facet normal -0.13052619222005 -0.991444861373811 -0.0
outer loop
vertex 2.59413334214118 6.61925960798825 2.0
vertex 3.50000000000001 6.5 8.0
vertex 2.59413334214118 6.61925960798825 8.0
endloop
endfacet
facet normal -0.38268343236509 -0.923879532511287 -0.0
outer loop
vertex 2.59413334214118 6.61925960798825 8.0
vertex 1.75 6.96891108675446 2.0
vertex 2.59413334214118 6.61925960798825 2.0
endloop
endfacet
facet normal -0.38268343236509 -0.923879532511287 -0.0
outer loop
vertex 1.75 6.96891108675446 2.0
vertex 2.59413334214118 6.61925960798825 8.0
vertex 1.75 6.96891108675446 8.0
endloop
endfacet
facet normal -0.60876142900872 -0.793353340291236 -0.0
outer loop
vertex 1.75 6.96891108675446 8.0
vertex 1.02512626584709 7.52512626584708 2.0
vertex 1.75 6.96891108675446 2.0
endloop
endfacet
facet normal -0.60876142900872 -0.793353340291236 -0.0
outer loop
vertex 1.02512626584709 7.52512626584708 2.0
vertex 1.75 6.96891108675446 8.0
vertex 1.02512626584709 7.52512626584708 8.0
endloop
endfacet
facet normal -0.793353340291236 -0.60876142900872 -0.0
outer loop
vertex 0.468911086754466 8.25 8.0
vertex 1.02512626584709 7.52512626584708 2.0
vertex 1.02512626584709 7.52512626584708 8.0
endloop
endfacet
facet normal -0.793353340291236 -0.60876142900872 -0.0
outer loop
vertex 1.02512626584709 7.52512626584708 2.0
vertex 0.468911086754466 8.25 8.0
vertex 0.468911086754466 8.25 2.0
endloop
endfacet
facet normal -0.923879532511287 -0.382683432365091 -0.0
outer loop
vertex 0.119259607988262 9.09413334214117 8.0
vertex 0.468911086754466 8.25 2.0
vertex 0.468911086754466 8.25 8.0
endloop
endfacet
facet normal -0.923879532511287 -0.382683432365091 -0.0
outer loop
vertex 0.468911086754466 8.25 2.0
vertex 0.119259607988262 9.09413334214117 8.0
vertex 0.119259607988262 9.09413334214117 2.0
endloop
endfacet
facet normal 5.40966732156025e-034 -0.0 1.0
outer loop
vertex 0.0 0.0 2.0
vertex 2.70000000000001 8.6143593539449 2.0
vertex 0.0 10.0 2.0
endloop
endfacet
facet normal 5.40966732156025e-034 -0.0 1.0
outer loop
vertex 2.70000000000001 8.6143593539449 2.0
vertex 0.0 0.0 2.0
vertex 3.08588952783597 8.45451867793749 2.0
endloop
endfacet
facet normal 5.40966732156025e-034 -0.0 1.0
outer loop
vertex 3.08588952783597 8.45451867793749 2.0
vertex 0.0 0.0 2.0
vertex 3.50000000000001 8.4 2.0
endloop
endfacet
facet normal 5.40966732156025e-034 -0.0 1.0
outer loop
vertex 3.50000000000001 8.4 2.0
vertex 0.0 0.0 2.0
vertex 70.0 0.0 2.0
endloop
endfacet
facet normal 5.40966732156025e-034 -0.0 1.0
outer loop
vertex 0.0 10.0 2.0
vertex 2.70000000000001 8.6143593539449 2.0
vertex 2.36862915010153 8.86862915010152 2.0
endloop
endfacet
facet normal 5.40966732156025e-034 -0.0 1.0
outer loop
vertex 0.0 10.0 2.0
vertex 2.36862915010153 8.86862915010152 2.0
vertex 2.1143593539449 9.2 2.0
endloop
endfacet
facet normal 5.40966732156025e-034 -0.0 1.0
outer loop
vertex 0.0 10.0 2.0
vertex 2.1143593539449 9.2 2.0
vertex 1.9545186779375 9.58588952783597 2.0
endloop
endfacet
facet normal 5.40966732156025e-034 -0.0 1.0
outer loop
vertex 0.0 10.0 2.0
vertex 1.9545186779375 9.58588952783597 2.0
vertex 0.0 20.0 2.0
endloop
endfacet
facet normal 5.40966732156025e-034 -0.0 1.0
outer loop
vertex 0.0 20.0 2.0
vertex 1.9545186779375 9.58588952783597 2.0
vertex 1.9 10.0 2.0
endloop
endfacet
facet normal 5.40966732156025e-034 -0.0 1.0
outer loop
vertex 3.50000000000001 8.4 2.0
vertex 70.0 0.0 2.0
vertex 3.91411047216404 8.45451867793749 2.0
endloop
endfacet
facet normal 5.40966732156025e-034 -0.0 1.0
outer loop
vertex 3.91411047216404 8.45451867793749 2.0
vertex 70.0 0.0 2.0
vertex 4.30000000000001 8.6143593539449 2.0
endloop
endfacet
facet normal 5.40966732156025e-034 -0.0 1.0
outer loop
vertex 4.30000000000001 8.6143593539449 2.0
vertex 70.0 0.0 2.0
vertex 4.63137084989848 8.86862915010152 2.0
endloop
endfacet
facet normal 5.40966732156025e-034 -0.0 1.0
outer loop
vertex 4.63137084989848 8.86862915010152 2.0
vertex 70.0 0.0 2.0
vertex 4.88564064605511 9.2 2.0
endloop
endfacet
facet normal 5.40966732156025e-034 -0.0 1.0
outer loop
vertex 4.88564064605511 9.2 2.0
vertex 70.0 0.0 2.0
vertex 5.04548132206252 9.58588952783597 2.0
endloop
endfacet
facet normal 5.40966732156025e-034 -0.0 1.0
outer loop
vertex 5.04548132206252 9.58588952783597 2.0
vertex 70.0 0.0 2.0
vertex 5.10000000000001 10.0 2.0
endloop
endfacet
facet normal 5.40966732156025e-034 -0.0 1.0
outer loop
vertex 5.10000000000001 10.0 2.0
vertex 70.0 0.0 2.0
vertex 65.1143593539449 9.2 2.0
endloop
endfacet
facet normal 5.40966732156025e-034 -0.0 1.0
outer loop
vertex 5.10000000000001 10.0 2.0
vertex 65.1143593539449 9.2 2.0
vertex 64.9545186779375 9.58588952783597 2.0
endloop
endfacet
facet normal 5.40966732156025e-034 -0.0 1.0
outer loop
vertex 5.10000000000001 10.0 2.0
vertex 64.9545186779375 9.58588952783597 2.0
vertex 64.9 10.0 2.0
endloop
endfacet
facet normal 5.40966732156025e-034 -0.0 1.0
outer loop
vertex 65.1143593539449 9.2 2.0
vertex 70.0 0.0 2.0
vertex 65.3686291501015 8.86862915010152 2.0
endloop
endfacet
facet normal 5.40966732156025e-034 -0.0 1.0
outer loop
vertex 65.3686291501015 8.86862915010152 2.0
vertex 70.0 0.0 2.0
vertex 65.7 8.6143593539449 2.0
endloop
endfacet
facet normal 5.40966732156025e-034 -0.0 1.0
outer loop
vertex 65.7 8.6143593539449 2.0
vertex 70.0 0.0 2.0
vertex 66.085889527836 8.45451867793749 2.0
endloop
endfacet
facet normal 5.40966732156025e-034 -0.0 1.0
outer loop
vertex 66.085889527836 8.45451867793749 2.0
vertex 70.0 0.0 2.0
vertex 66.5 8.4 2.0
endloop
endfacet
facet normal 5.40966732156025e-034 -0.0 1.0
outer loop
vertex 66.5 8.4 2.0
vertex 70.0 0.0 2.0
vertex 66.914110472164 8.45451867793749 2.0
endloop
endfacet
facet normal 5.40966732156025e-034 -0.0 1.0
outer loop
vertex 66.914110472164 8.45451867793749 2.0
vertex 70.0 0.0 2.0
vertex 67.3 8.61435935394489 2.0
endloop
endfacet
facet normal 5.40966732156025e-034 -0.0 1.0
outer loop
vertex 67.3 8.61435935394489 2.0
vertex 70.0 0.0 2.0
vertex 67.6313708498985 8.86862915010152 2.0
endloop
endfacet
facet normal 5.40966732156025e-034 -0.0 1.0
outer loop
vertex 67.6313708498985 8.86862915010152 2.0
vertex 70.0 0.0 2.0
vertex 67.8856406460551 9.19999999999999 2.0
endloop
endfacet
facet normal 5.40966732156025e-034 -0.0 1.0
outer loop
vertex 67.8856406460551 9.19999999999999 2.0
vertex 70.0 0.0 2.0
vertex 68.0454813220625 9.58588952783596 2.0
endloop
endfacet
facet normal 5.40966732156025e-034 -0.0 1.0
outer loop
vertex 68.0454813220625 9.58588952783596 2.0
vertex 70.0 0.0 2.0
vertex 68.1 10.0 2.0
endloop
endfacet
facet normal 5.40966732156025e-034 -0.0 1.0
outer loop
vertex 0.0 20.0 2.0
vertex 3.5 11.6 2.0
vertex 70.0 20.0 2.0
endloop
endfacet
facet normal 5.40966732156025e-034 -0.0 1.0
outer loop
vertex 3.5 11.6 2.0
vertex 0.0 20.0 2.0
vertex 3.08588952783597 11.5454813220625 2.0
endloop
endfacet
facet normal 5.40966732156025e-034 -0.0 1.0
outer loop
vertex 3.08588952783597 11.5454813220625 2.0
vertex 0.0 20.0 2.0
vertex 2.7 11.3856406460551 2.0
endloop
endfacet
facet normal 5.40966732156025e-034 -0.0 1.0
outer loop
vertex 2.7 11.3856406460551 2.0
vertex 0.0 20.0 2.0
vertex 2.36862915010153 11.1313708498985 2.0
endloop
endfacet
facet normal 5.40966732156025e-034 -0.0 1.0
outer loop
vertex 2.36862915010153 11.1313708498985 2.0
vertex 0.0 20.0 2.0
vertex 2.1143593539449 10.8 2.0
endloop
endfacet
facet normal 5.40966732156025e-034 -0.0 1.0
outer loop
vertex 2.1143593539449 10.8 2.0
vertex 0.0 20.0 2.0
vertex 1.95451867793749 10.414110472164 2.0
endloop
endfacet
facet normal 5.40966732156025e-034 -0.0 1.0
outer loop
vertex 1.95451867793749 10.414110472164 2.0
vertex 0.0 20.0 2.0
vertex 1.9 10.0 2.0
endloop
endfacet
facet normal 5.40966732156025e-034 -0.0 1.0
outer loop
vertex 70.0 20.0 2.0
vertex 3.5 11.6 2.0
vertex 3.91411047216404 11.5454813220625 2.0
endloop
endfacet
facet normal 5.40966732156025e-034 -0.0 1.0
outer loop
vertex 70.0 20.0 2.0
vertex 3.91411047216404 11.5454813220625 2.0
vertex 4.30000000000001 11.3856406460551 2.0
endloop
endfacet
facet normal 5.40966732156025e-034 -0.0 1.0
outer loop
vertex 70.0 20.0 2.0
vertex 4.30000000000001 11.3856406460551 2.0
vertex 4.63137084989848 11.1313708498985 2.0
endloop
endfacet
facet normal 5.40966732156025e-034 -0.0 1.0
outer loop
vertex 70.0 20.0 2.0
vertex 4.63137084989848 11.1313708498985 2.0
vertex 4.88564064605511 10.8 2.0
endloop
endfacet
facet normal 5.40966732156025e-034 -0.0 1.0
outer loop
vertex 70.0 20.0 2.0
vertex 4.88564064605511 10.8 2.0
vertex 5.04548132206252 10.414110472164 2.0
endloop
endfacet
facet normal 5.40966732156025e-034 -0.0 1.0
outer loop
vertex 70.0 20.0 2.0
vertex 5.04548132206252 10.414110472164 2.0
vertex 5.10000000000001 10.0 2.0
endloop
endfacet
facet normal 5.40966732156025e-034 -0.0 1.0
outer loop
vertex 70.0 20.0 2.0
vertex 5.10000000000001 10.0 2.0
vertex 65.1143593539449 10.8 2.0
endloop
endfacet
facet normal 5.40966732156025e-034 -0.0 1.0
outer loop
vertex 65.1143593539449 10.8 2.0
vertex 5.10000000000001 10.0 2.0
vertex 64.9545186779375 10.414110472164 2.0
endloop
endfacet
facet normal 5.40966732156025e-034 -0.0 1.0
outer loop
vertex 64.9545186779375 10.414110472164 2.0
vertex 5.10000000000001 10.0 2.0
vertex 64.9 10.0 2.0
endloop
endfacet
facet normal 5.40966732156025e-034 -0.0 1.0
outer loop
vertex 70.0 20.0 2.0
vertex 65.1143593539449 10.8 2.0
vertex 65.3686291501015 11.1313708498985 2.0
endloop
endfacet
facet normal 5.40966732156025e-034 -0.0 1.0
outer loop
vertex 70.0 20.0 2.0
vertex 65.3686291501015 11.1313708498985 2.0
vertex 65.7 11.3856406460551 2.0
endloop
endfacet
facet normal 5.40966732156025e-034 -0.0 1.0
outer loop
vertex 70.0 20.0 2.0
vertex 65.7 11.3856406460551 2.0
vertex 66.085889527836 11.5454813220625 2.0
endloop
endfacet
facet normal 5.40966732156025e-034 -0.0 1.0
outer loop
vertex 70.0 20.0 2.0
vertex 66.085889527836 11.5454813220625 2.0
vertex 66.5 11.6 2.0
endloop
endfacet
facet normal 5.40966732156025e-034 -0.0 1.0
outer loop
vertex 70.0 20.0 2.0
vertex 66.5 11.6 2.0
vertex 66.914110472164 11.5454813220625 2.0
endloop
endfacet
facet normal 5.40966732156025e-034 -0.0 1.0
outer loop
vertex 70.0 20.0 2.0
vertex 66.914110472164 11.5454813220625 2.0
vertex 67.3 11.3856406460551 2.0
endloop
endfacet
facet normal 5.40966732156025e-034 -0.0 1.0
outer loop
vertex 70.0 20.0 2.0
vertex 67.3 11.3856406460551 2.0
vertex 67.6313708498985 11.1313708498985 2.0
endloop
endfacet
facet normal 5.40966732156025e-034 -0.0 1.0
outer loop
vertex 70.0 20.0 2.0
vertex 67.6313708498985 11.1313708498985 2.0
vertex 67.8856406460551 10.8 2.0
endloop
endfacet
facet normal 5.40966732156025e-034 -0.0 1.0
outer loop
vertex 70.0 20.0 2.0
vertex 67.8856406460551 10.8 2.0
vertex 68.0454813220625 10.414110472164 2.0
endloop
endfacet
facet normal 5.40966732156025e-034 -0.0 1.0
outer loop
vertex 70.0 20.0 2.0
vertex 68.0454813220625 10.414110472164 2.0
vertex 68.1 10.0 2.0
endloop
endfacet
facet normal 5.40966732156025e-034 -0.0 1.0
outer loop
vertex 70.0 20.0 2.0
vertex 68.1 10.0 2.0
vertex 70.0 0.0 2.0
endloop
endfacet
facet normal 5.40966732156025e-034 -0.0 1.0
outer loop
vertex 70.0 20.0 2.0
vertex 70.0 0.0 2.0
vertex 70.0 10.0 2.0
endloop
endfacet
facet normal -0.0 -0.0 1.0
outer loop
vertex 64.75 6.96891108675446 8.0
vertex 64.9545186779375 9.58588952783597 8.0
vertex 64.9 10.0 8.0
endloop
endfacet
facet normal -0.0 -0.0 1.0
outer loop
vertex 64.9545186779375 9.58588952783597 8.0
vertex 64.75 6.96891108675446 8.0
vertex 65.5941333421412 6.61925960798826 8.0
endloop
endfacet
facet normal -0.0 -0.0 1.0
outer loop
vertex 64.9545186779375 9.58588952783597 8.0
vertex 65.5941333421412 6.61925960798826 8.0
vertex 65.1143593539449 9.2 8.0
endloop
endfacet
facet normal -0.0 -0.0 1.0
outer loop
vertex 65.1143593539449 9.2 8.0
vertex 65.5941333421412 6.61925960798826 8.0
vertex 65.3686291501015 8.86862915010152 8.0
endloop
endfacet
facet normal -0.0 -0.0 1.0
outer loop
vertex 65.3686291501015 8.86862915010152 8.0
vertex 65.5941333421412 6.61925960798826 8.0
vertex 65.7 8.6143593539449 8.0
endloop
endfacet
facet normal -0.0 -0.0 1.0
outer loop
vertex 65.7 8.6143593539449 8.0
vertex 65.5941333421412 6.61925960798826 8.0
vertex 66.5 6.5 8.0
endloop
endfacet
facet normal -0.0 -0.0 1.0
outer loop
vertex 65.7 8.6143593539449 8.0
vertex 66.5 6.5 8.0
vertex 66.085889527836 8.45451867793749 8.0
endloop
endfacet
facet normal -0.0 -0.0 1.0
outer loop
vertex 66.085889527836 8.45451867793749 8.0
vertex 66.5 6.5 8.0
vertex 66.5 8.4 8.0
endloop
endfacet
facet normal -0.0 -0.0 1.0
outer loop
vertex 66.5 8.4 8.0
vertex 66.5 6.5 8.0
vertex 67.4058666578588 6.61925960798826 8.0
endloop
endfacet
facet normal -0.0 -0.0 1.0
outer loop
vertex 66.5 8.4 8.0
vertex 67.4058666578588 6.61925960798826 8.0
vertex 66.914110472164 8.45451867793749 8.0
endloop
endfacet
facet normal -0.0 -0.0 1.0
outer loop
vertex 66.914110472164 8.45451867793749 8.0
vertex 67.4058666578588 6.61925960798826 8.0
vertex 67.3 8.61435935394489 8.0
endloop
endfacet
facet normal -0.0 -0.0 1.0
outer loop
vertex 67.3 8.61435935394489 8.0
vertex 67.4058666578588 6.61925960798826 8.0
vertex 67.6313708498985 8.86862915010152 8.0
endloop
endfacet
facet normal -0.0 -0.0 1.0
outer loop
vertex 67.6313708498985 8.86862915010152 8.0
vertex 67.4058666578588 6.61925960798826 8.0
vertex 68.25 6.96891108675446 8.0
endloop
endfacet
facet normal -0.0 -0.0 1.0
outer loop
vertex 67.6313708498985 8.86862915010152 8.0
vertex 68.25 6.96891108675446 8.0
vertex 67.8856406460551 9.19999999999999 8.0
endloop
endfacet
facet normal -0.0 -0.0 1.0
outer loop
vertex 67.8856406460551 9.19999999999999 8.0
vertex 68.25 6.96891108675446 8.0
vertex 68.0454813220625 9.58588952783596 8.0
endloop
endfacet
facet normal -0.0 -0.0 1.0
outer loop
vertex 68.0454813220625 9.58588952783596 8.0
vertex 68.25 6.96891108675446 8.0
vertex 68.1 10.0 8.0
endloop
endfacet
facet normal -0.0 -0.0 1.0
outer loop
vertex 68.1 10.0 8.0
vertex 68.25 6.96891108675446 8.0
vertex 68.25 13.0310889132455 8.0
endloop
endfacet
facet normal -0.0 -0.0 1.0
outer loop
vertex 68.25 13.0310889132455 8.0
vertex 68.25 6.96891108675446 8.0
vertex 68.9748737341529 12.4748737341529 8.0
endloop
endfacet
facet normal -0.0 -0.0 1.0
outer loop
vertex 68.9748737341529 12.4748737341529 8.0
vertex 68.25 6.96891108675446 8.0
vertex 68.9748737341529 7.52512626584708 8.0
endloop
endfacet
facet normal -0.0 -0.0 1.0
outer loop
vertex 68.9748737341529 12.4748737341529 8.0
vertex 68.9748737341529 7.52512626584708 8.0
vertex 69.5310889132455 8.25 8.0
endloop
endfacet
facet normal -0.0 -0.0 1.0
outer loop
vertex 68.9748737341529 12.4748737341529 8.0
vertex 69.5310889132455 8.25 8.0
vertex 69.5310889132455 11.75 8.0
endloop
endfacet
facet normal -0.0 -0.0 1.0
outer loop
vertex 69.5310889132455 11.75 8.0
vertex 69.5310889132455 8.25 8.0
vertex 69.8807403920117 9.09413334214118 8.0
endloop
endfacet
facet normal -0.0 -0.0 1.0
outer loop
vertex 69.5310889132455 11.75 8.0
vertex 69.8807403920117 9.09413334214118 8.0
vertex 69.8807403920117 10.9058666578588 8.0
endloop
endfacet
facet normal -0.0 -0.0 1.0
outer loop
vertex 69.8807403920117 10.9058666578588 8.0
vertex 69.8807403920117 9.09413334214118 8.0
vertex 70.0 10.0 8.0
endloop
endfacet
facet normal -0.0 -0.0 1.0
outer loop
vertex 63.1192596079882 9.09413334214118 8.0
vertex 63.1192596079882 10.9058666578588 8.0
vertex 63.0 10.0 8.0
endloop
endfacet
facet normal -0.0 -0.0 1.0
outer loop
vertex 63.1192596079882 10.9058666578588 8.0
vertex 63.1192596079882 9.09413334214118 8.0
vertex 63.4689110867545 8.25 8.0
endloop
endfacet
facet normal -0.0 -0.0 1.0
outer loop
vertex 63.1192596079882 10.9058666578588 8.0
vertex 63.4689110867545 8.25 8.0
vertex 63.4689110867545 11.75 8.0
endloop
endfacet
facet normal -0.0 -0.0 1.0
outer loop
vertex 63.4689110867545 11.75 8.0
vertex 63.4689110867545 8.25 8.0
vertex 64.0251262658471 7.52512626584708 8.0
endloop
endfacet
facet normal -0.0 -0.0 1.0
outer loop
vertex 63.4689110867545 11.75 8.0
vertex 64.0251262658471 7.52512626584708 8.0
vertex 64.0251262658471 12.4748737341529 8.0
endloop
endfacet
facet normal -0.0 -0.0 1.0
outer loop
vertex 64.0251262658471 12.4748737341529 8.0
vertex 64.0251262658471 7.52512626584708 8.0
vertex 64.75 6.96891108675446 8.0
endloop
endfacet
facet normal -0.0 -0.0 1.0
outer loop
vertex 64.0251262658471 12.4748737341529 8.0
vertex 64.75 6.96891108675446 8.0
vertex 64.75 13.0310889132455 8.0
endloop
endfacet
facet normal -0.0 -0.0 1.0
outer loop
vertex 64.75 13.0310889132455 8.0
vertex 64.75 6.96891108675446 8.0
vertex 64.9 10.0 8.0
endloop
endfacet
facet normal -0.0 -0.0 1.0
outer loop
vertex 64.75 13.0310889132455 8.0
vertex 64.9 10.0 8.0
vertex 64.9545186779375 10.414110472164 8.0
endloop
endfacet
facet normal -0.0 -0.0 1.0
outer loop
vertex 64.75 13.0310889132455 8.0
vertex 64.9545186779375 10.414110472164 8.0
vertex 65.5941333421412 13.3807403920117 8.0
endloop
endfacet
facet normal -0.0 -0.0 1.0
outer loop
vertex 65.5941333421412 13.3807403920117 8.0
vertex 64.9545186779375 10.414110472164 8.0
vertex 65.1143593539449 10.8 8.0
endloop
endfacet
facet normal -0.0 -0.0 1.0
outer loop
vertex 65.5941333421412 13.3807403920117 8.0
vertex 65.1143593539449 10.8 8.0
vertex 65.3686291501015 11.1313708498985 8.0
endloop
endfacet
facet normal -0.0 -0.0 1.0
outer loop
vertex 65.5941333421412 13.3807403920117 8.0
vertex 65.3686291501015 11.1313708498985 8.0
vertex 65.7 11.3856406460551 8.0
endloop
endfacet
facet normal -0.0 -0.0 1.0
outer loop
vertex 65.5941333421412 13.3807403920117 8.0
vertex 65.7 11.3856406460551 8.0
vertex 66.5 13.5 8.0
endloop
endfacet
facet normal -0.0 -0.0 1.0
outer loop
vertex 66.5 13.5 8.0
vertex 65.7 11.3856406460551 8.0
vertex 66.085889527836 11.5454813220625 8.0
endloop
endfacet
facet normal -0.0 -0.0 1.0
outer loop
vertex 66.5 13.5 8.0
vertex 66.085889527836 11.5454813220625 8.0
vertex 66.5 11.6 8.0
endloop
endfacet
facet normal -0.0 -0.0 1.0
outer loop
vertex 66.5 13.5 8.0
vertex 66.5 11.6 8.0
vertex 66.914110472164 11.5454813220625 8.0
endloop
endfacet
facet normal -0.0 -0.0 1.0
outer loop
vertex 66.5 13.5 8.0
vertex 66.914110472164 11.5454813220625 8.0
vertex 67.4058666578588 13.3807403920117 8.0
endloop
endfacet
facet normal -0.0 -0.0 1.0
outer loop
vertex 67.4058666578588 13.3807403920117 8.0
vertex 66.914110472164 11.5454813220625 8.0
vertex 67.3 11.3856406460551 8.0
endloop
endfacet
facet normal -0.0 -0.0 1.0
outer loop
vertex 67.4058666578588 13.3807403920117 8.0
vertex 67.3 11.3856406460551 8.0
vertex 67.6313708498985 11.1313708498985 8.0
endloop
endfacet
facet normal -0.0 -0.0 1.0
outer loop
vertex 67.4058666578588 13.3807403920117 8.0
vertex 67.6313708498985 11.1313708498985 8.0
vertex 68.25 13.0310889132455 8.0
endloop
endfacet
facet normal -0.0 -0.0 1.0
outer loop
vertex 68.25 13.0310889132455 8.0
vertex 67.6313708498985 11.1313708498985 8.0
vertex 67.8856406460551 10.8 8.0
endloop
endfacet
facet normal -0.0 -0.0 1.0
outer loop
vertex 68.25 13.0310889132455 8.0
vertex 67.8856406460551 10.8 8.0
vertex 68.0454813220625 10.414110472164 8.0
endloop
endfacet
facet normal -0.0 -0.0 1.0
outer loop
vertex 68.25 13.0310889132455 8.0
vertex 68.0454813220625 10.414110472164 8.0
vertex 68.1 10.0 8.0
endloop
endfacet
facet normal 0.991444861373811 -0.130526192220049 -2.19004963764528e-031
outer loop
vertex 70.0 10.0 2.0
vertex 69.8807403920117 9.09413334214118 8.0
vertex 69.8807403920117 9.09413334214118 2.0
endloop
endfacet
facet normal 0.991444861373811 -0.130526192220049 -2.19004963764528e-031
outer loop
vertex 69.8807403920117 9.09413334214118 8.0
vertex 70.0 10.0 2.0
vertex 70.0 10.0 8.0
endloop
endfacet
facet normal 0.923879532511286 -0.382683432365092 0.0
outer loop
vertex 69.8807403920117 9.09413334214118 2.0
vertex 69.5310889132455 8.25 8.0
vertex 69.5310889132455 8.25 2.0
endloop
endfacet
facet normal 0.923879532511286 -0.382683432365092 0.0
outer loop
vertex 69.5310889132455 8.25 8.0
vertex 69.8807403920117 9.09413334214118 2.0
vertex 69.8807403920117 9.09413334214118 8.0
endloop
endfacet
facet normal 0.793353340291236 -0.608761429008719 0.0
outer loop
vertex 69.5310889132455 8.25 2.0
vertex 68.9748737341529 7.52512626584708 8.0
vertex 68.9748737341529 7.52512626584708 2.0
endloop
endfacet
facet normal 0.793353340291236 -0.608761429008719 0.0
outer loop
vertex 68.9748737341529 7.52512626584708 8.0
vertex 69.5310889132455 8.25 2.0
vertex 69.5310889132455 8.25 8.0
endloop
endfacet
facet normal 0.608761429008722 -0.793353340291234 0.0
outer loop
vertex 68.9748737341529 7.52512626584708 8.0
vertex 68.25 6.96891108675446 2.0
vertex 68.9748737341529 7.52512626584708 2.0
endloop
endfacet
facet normal 0.608761429008722 -0.793353340291234 0.0
outer loop
vertex 68.25 6.96891108675446 2.0
vertex 68.9748737341529 7.52512626584708 8.0
vertex 68.25 6.96891108675446 8.0
endloop
endfacet
facet normal 0.382683432365089 -0.923879532511287 0.0
outer loop
vertex 68.25 6.96891108675446 8.0
vertex 67.4058666578588 6.61925960798826 2.0
vertex 68.25 6.96891108675446 2.0
endloop
endfacet
facet normal 0.382683432365089 -0.923879532511287 0.0
outer loop
vertex 67.4058666578588 6.61925960798826 2.0
vertex 68.25 6.96891108675446 8.0
vertex 67.4058666578588 6.61925960798826 8.0
endloop
endfacet
facet normal 0.130526192220052 -0.99144486137381 0.0
outer loop
vertex 67.4058666578588 6.61925960798826 8.0
vertex 66.5 6.5 2.0
vertex 67.4058666578588 6.61925960798826 2.0
endloop
endfacet
facet normal 0.130526192220052 -0.99144486137381 0.0
outer loop
vertex 66.5 6.5 2.0
vertex 67.4058666578588 6.61925960798826 8.0
vertex 66.5 6.5 8.0
endloop
endfacet
facet normal -0.130526192220052 -0.99144486137381 -0.0
outer loop
vertex 66.5 6.5 8.0
vertex 65.5941333421412 6.61925960798826 2.0
vertex 66.5 6.5 2.0
endloop
endfacet
facet normal -0.130526192220052 -0.99144486137381 -0.0
outer loop
vertex 65.5941333421412 6.61925960798826 2.0
vertex 66.5 6.5 8.0
vertex 65.5941333421412 6.61925960798826 8.0
endloop
endfacet
facet normal -0.382683432365092 -0.923879532511286 -0.0
outer loop
vertex 65.5941333421412 6.61925960798826 8.0
vertex 64.75 6.96891108675446 2.0
vertex 65.5941333421412 6.61925960798826 2.0
endloop
endfacet
facet normal -0.382683432365092 -0.923879532511286 -0.0
outer loop
vertex 64.75 6.96891108675446 2.0
vertex 65.5941333421412 6.61925960798826 8.0
vertex 64.75 6.96891108675446 8.0
endloop
endfacet
facet normal -0.608761429008717 -0.793353340291238 -0.0
outer loop
vertex 64.75 6.96891108675446 8.0
vertex 64.0251262658471 7.52512626584708 2.0
vertex 64.75 6.96891108675446 2.0
endloop
endfacet
facet normal -0.608761429008717 -0.793353340291238 -0.0
outer loop
vertex 64.0251262658471 7.52512626584708 2.0
vertex 64.75 6.96891108675446 8.0
vertex 64.0251262658471 7.52512626584708 8.0
endloop
endfacet
facet normal -0.793353340291236 -0.60876142900872 -0.0
outer loop
vertex 63.4689110867545 8.25 8.0
vertex 64.0251262658471 7.52512626584708 2.0
vertex 64.0251262658471 7.52512626584708 8.0
endloop
endfacet
facet normal -0.793353340291236 -0.60876142900872 -0.0
outer loop
vertex 64.0251262658471 7.52512626584708 2.0
vertex 63.4689110867545 8.25 8.0
vertex 63.4689110867545 8.25 2.0
endloop
endfacet
facet normal -0.923879532511286 -0.382683432365092 -0.0
outer loop
vertex 63.1192596079882 9.09413334214118 8.0
vertex 63.4689110867545 8.25 2.0
vertex 63.4689110867545 8.25 8.0
endloop
endfacet
facet normal -0.923879532511286 -0.382683432365092 -0.0
outer loop
vertex 63.4689110867545 8.25 2.0
vertex 63.1192596079882 9.09413334214118 8.0
vertex 63.1192596079882 9.09413334214118 2.0
endloop
endfacet
facet normal -0.991444861373811 -0.130526192220048 -0.0
outer loop
vertex 63.0 10.0 8.0
vertex 63.1192596079882 9.09413334214118 2.0
vertex 63.1192596079882 9.09413334214118 8.0
endloop
endfacet
facet normal -0.991444861373811 -0.130526192220048 -0.0
outer loop
vertex 63.1192596079882 9.09413334214118 2.0
vertex 63.0 10.0 8.0
vertex 63.0 10.0 2.0
endloop
endfacet
facet normal -0.991444861373811 0.130526192220049 0.0
outer loop
vertex 63.1192596079882 10.9058666578588 8.0
vertex 63.0 10.0 2.0
vertex 63.0 10.0 8.0
endloop
endfacet
facet normal -0.991444861373811 0.130526192220049 0.0
outer loop
vertex 63.0 10.0 2.0
vertex 63.1192596079882 10.9058666578588 8.0
vertex 63.1192596079882 10.9058666578588 2.0
endloop
endfacet
facet normal -0.923879532511286 0.382683432365092 0.0
outer loop
vertex 63.4689110867545 11.75 8.0
vertex 63.1192596079882 10.9058666578588 2.0
vertex 63.1192596079882 10.9058666578588 8.0
endloop
endfacet
facet normal -0.923879532511286 0.382683432365092 0.0
outer loop
vertex 63.1192596079882 10.9058666578588 2.0
vertex 63.4689110867545 11.75 8.0
vertex 63.4689110867545 11.75 2.0
endloop
endfacet
facet normal -0.793353340291236 0.608761429008719 0.0
outer loop
vertex 64.0251262658471 12.4748737341529 8.0
vertex 63.4689110867545 11.75 2.0
vertex 63.4689110867545 11.75 8.0
endloop
endfacet
facet normal -0.793353340291236 0.608761429008719 0.0
outer loop
vertex 63.4689110867545 11.75 2.0
vertex 64.0251262658471 12.4748737341529 8.0
vertex 64.0251262658471 12.4748737341529 2.0
endloop
endfacet
facet normal -0.608761429008722 0.793353340291234 0.0
outer loop
vertex 64.0251262658471 12.4748737341529 8.0
vertex 64.75 13.0310889132455 2.0
vertex 64.0251262658471 12.4748737341529 2.0
endloop
endfacet
facet normal -0.608761429008722 0.793353340291234 0.0
outer loop
vertex 64.75 13.0310889132455 2.0
vertex 64.0251262658471 12.4748737341529 8.0
vertex 64.75 13.0310889132455 8.0
endloop
endfacet
facet normal -0.382683432365087 0.923879532511288 0.0
outer loop
vertex 64.75 13.0310889132455 8.0
vertex 65.5941333421412 13.3807403920117 2.0
vertex 64.75 13.0310889132455 2.0
endloop
endfacet
facet normal -0.382683432365087 0.923879532511288 0.0
outer loop
vertex 65.5941333421412 13.3807403920117 2.0
vertex 64.75 13.0310889132455 8.0
vertex 65.5941333421412 13.3807403920117 8.0
endloop
endfacet
facet normal -0.130526192220052 0.99144486137381 0.0
outer loop
vertex 65.5941333421412 13.3807403920117 8.0
vertex 66.5 13.5 2.0
vertex 65.5941333421412 13.3807403920117 2.0
endloop
endfacet
facet normal -0.130526192220052 0.99144486137381 0.0
outer loop
vertex 66.5 13.5 2.0
vertex 65.5941333421412 13.3807403920117 8.0
vertex 66.5 13.5 8.0
endloop
endfacet
facet normal 0.130526192220048 0.991444861373811 0.0
outer loop
vertex 66.5 13.5 8.0
vertex 67.4058666578588 13.3807403920117 2.0
vertex 66.5 13.5 2.0
endloop
endfacet
facet normal 0.130526192220048 0.991444861373811 0.0
outer loop
vertex 67.4058666578588 13.3807403920117 2.0
vertex 66.5 13.5 8.0
vertex 67.4058666578588 13.3807403920117 8.0
endloop
endfacet
facet normal 0.382683432365092 0.923879532511286 0.0
outer loop
vertex 67.4058666578588 13.3807403920117 8.0
vertex 68.25 13.0310889132455 2.0
vertex 67.4058666578588 13.3807403920117 2.0
endloop
endfacet
facet normal 0.382683432365092 0.923879532511286 0.0
outer loop
vertex 68.25 13.0310889132455 2.0
vertex 67.4058666578588 13.3807403920117 8.0
vertex 68.25 13.0310889132455 8.0
endloop
endfacet
facet normal 0.608761429008717 0.793353340291238 0.0
outer loop
vertex 68.25 13.0310889132455 8.0
vertex 68.9748737341529 12.4748737341529 2.0
vertex 68.25 13.0310889132455 2.0
endloop
endfacet
facet normal 0.608761429008717 0.793353340291238 0.0
outer loop
vertex 68.9748737341529 12.4748737341529 2.0
vertex 68.25 13.0310889132455 8.0
vertex 68.9748737341529 12.4748737341529 8.0
endloop
endfacet
facet normal 0.793353340291236 0.608761429008719 0.0
outer loop
vertex 68.9748737341529 12.4748737341529 2.0
vertex 69.5310889132455 11.75 8.0
vertex 69.5310889132455 11.75 2.0
endloop
endfacet
facet normal 0.793353340291236 0.608761429008719 0.0
outer loop
vertex 69.5310889132455 11.75 8.0
vertex 68.9748737341529 12.4748737341529 2.0
vertex 68.9748737341529 12.4748737341529 8.0
endloop
endfacet
facet normal 0.923879532511286 0.382683432365093 0.0
outer loop
vertex 69.5310889132455 11.75 2.0
vertex 69.8807403920117 10.9058666578588 8.0
vertex 69.8807403920117 10.9058666578588 2.0
endloop
endfacet
facet normal 0.923879532511286 0.382683432365093 0.0
outer loop
vertex 69.8807403920117 10.9058666578588 8.0
vertex 69.5310889132455 11.75 2.0
vertex 69.5310889132455 11.75 8.0
endloop
endfacet
facet normal 0.991444861373811 0.130526192220048 2.19004963764528e-031
outer loop
vertex 69.8807403920117 10.9058666578588 2.0
vertex 70.0 10.0 8.0
vertex 70.0 10.0 2.0
endloop
endfacet
facet normal 0.991444861373811 0.130526192220048 2.19004963764528e-031
outer loop
vertex 70.0 10.0 8.0
vertex 69.8807403920117 10.9058666578588 2.0
vertex 69.8807403920117 10.9058666578588 8.0
endloop
endfacet
facet normal -0.793353340291234 -0.608761429008722 -0.0
outer loop
vertex 4.63137084989848 11.1313708498985 8.0
vertex 4.88564064605511 10.8 2.0
vertex 4.88564064605511 10.8 8.0
endloop
endfacet
facet normal -0.793353340291234 -0.608761429008722 -0.0
outer loop
vertex 4.88564064605511 10.8 2.0
vertex 4.63137084989848 11.1313708498985 8.0
vertex 4.63137084989848 11.1313708498985 2.0
endloop
endfacet
facet normal -0.608761429008721 -0.793353340291235 -0.0
outer loop
vertex 4.63137084989848 11.1313708498985 8.0
vertex 4.30000000000001 11.3856406460551 2.0
vertex 4.63137084989848 11.1313708498985 2.0
endloop
endfacet
facet normal -0.608761429008721 -0.793353340291235 -0.0
outer loop
vertex 4.30000000000001 11.3856406460551 2.0
vertex 4.63137084989848 11.1313708498985 8.0
vertex 4.30000000000001 11.3856406460551 8.0
endloop
endfacet
facet normal -0.382683432365088 -0.923879532511287 -0.0
outer loop
vertex 4.30000000000001 11.3856406460551 8.0
vertex 3.91411047216404 11.5454813220625 2.0
vertex 4.30000000000001 11.3856406460551 2.0
endloop
endfacet
facet normal -0.382683432365088 -0.923879532511287 -0.0
outer loop
vertex 3.91411047216404 11.5454813220625 2.0
vertex 4.30000000000001 11.3856406460551 8.0
vertex 3.91411047216404 11.5454813220625 8.0
endloop
endfacet
facet normal -0.130526192220052 -0.99144486137381 -0.0
outer loop
vertex 3.91411047216404 11.5454813220625 8.0
vertex 3.5 11.6 2.0
vertex 3.91411047216404 11.5454813220625 2.0
endloop
endfacet
facet normal -0.130526192220052 -0.99144486137381 -0.0
outer loop
vertex 3.5 11.6 2.0
vertex 3.91411047216404 11.5454813220625 8.0
vertex 3.5 11.6 8.0
endloop
endfacet
facet normal 0.130526192220052 -0.99144486137381 -0.0
outer loop
vertex 3.5 11.6 8.0
vertex 3.08588952783597 11.5454813220625 2.0
vertex 3.5 11.6 2.0
endloop
endfacet
facet normal 0.130526192220052 -0.99144486137381 -0.0
outer loop
vertex 3.08588952783597 11.5454813220625 2.0
vertex 3.5 11.6 8.0
vertex 3.08588952783597 11.5454813220625 8.0
endloop
endfacet
facet normal 0.382683432365092 -0.923879532511286 -0.0
outer loop
vertex 3.08588952783597 11.5454813220625 8.0
vertex 2.7 11.3856406460551 2.0
vertex 3.08588952783597 11.5454813220625 2.0
endloop
endfacet
facet normal 0.382683432365092 -0.923879532511286 -0.0
outer loop
vertex 2.7 11.3856406460551 2.0
vertex 3.08588952783597 11.5454813220625 8.0
vertex 2.7 11.3856406460551 8.0
endloop
endfacet
facet normal 0.608761429008722 -0.793353340291234 -0.0
outer loop
vertex 2.7 11.3856406460551 8.0
vertex 2.36862915010153 11.1313708498985 2.0
vertex 2.7 11.3856406460551 2.0
endloop
endfacet
facet normal 0.608761429008722 -0.793353340291234 -0.0
outer loop
vertex 2.36862915010153 11.1313708498985 2.0
vertex 2.7 11.3856406460551 8.0
vertex 2.36862915010153 11.1313708498985 8.0
endloop
endfacet
facet normal 0.793353340291235 -0.608761429008721 -0.0
outer loop
vertex 2.36862915010153 11.1313708498985 2.0
vertex 2.1143593539449 10.8 8.0
vertex 2.1143593539449 10.8 2.0
endloop
endfacet
facet normal 0.793353340291235 -0.608761429008721 -0.0
outer loop
vertex 2.1143593539449 10.8 8.0
vertex 2.36862915010153 11.1313708498985 2.0
vertex 2.36862915010153 11.1313708498985 8.0
endloop
endfacet
facet normal 0.923879532511287 -0.382683432365089 -0.0
outer loop
vertex 2.1143593539449 10.8 2.0
vertex 1.95451867793749 10.414110472164 8.0
vertex 1.95451867793749 10.414110472164 2.0
endloop
endfacet
facet normal 0.923879532511287 -0.382683432365089 -0.0
outer loop
vertex 1.95451867793749 10.414110472164 8.0
vertex 2.1143593539449 10.8 2.0
vertex 2.1143593539449 10.8 8.0
endloop
endfacet
facet normal 0.991444861373811 -0.130526192220051 -0.0
outer loop
vertex 1.95451867793749 10.414110472164 2.0
vertex 1.9 10.0 8.0
vertex 1.9 10.0 2.0
endloop
endfacet
facet normal 0.991444861373811 -0.130526192220051 -0.0
outer loop
vertex 1.9 10.0 8.0
vertex 1.95451867793749 10.414110472164 2.0
vertex 1.95451867793749 10.414110472164 8.0
endloop
endfacet
facet normal 0.99144486137381 0.130526192220053 0.0
outer loop
vertex 1.9 10.0 2.0
vertex 1.9545186779375 9.58588952783597 8.0
vertex 1.9545186779375 9.58588952783597 2.0
endloop
endfacet
facet normal 0.99144486137381 0.130526192220053 0.0
outer loop
vertex 1.9545186779375 9.58588952783597 8.0
vertex 1.9 10.0 2.0
vertex 1.9 10.0 8.0
endloop
endfacet
facet normal 0.923879532511287 0.38268343236509 0.0
outer loop
vertex 1.9545186779375 9.58588952783597 2.0
vertex 2.1143593539449 9.2 8.0
vertex 2.1143593539449 9.2 2.0
endloop
endfacet
facet normal 0.923879532511287 0.38268343236509 0.0
outer loop
vertex 2.1143593539449 9.2 8.0
vertex 1.9545186779375 9.58588952783597 2.0
vertex 1.9545186779375 9.58588952783597 8.0
endloop
endfacet
facet normal 0.793353340291234 0.608761429008722 0.0
outer loop
vertex 2.1143593539449 9.2 2.0
vertex 2.36862915010153 8.86862915010152 8.0
vertex 2.36862915010153 8.86862915010152 2.0
endloop
endfacet
facet normal 0.793353340291234 0.608761429008722 0.0
outer loop
vertex 2.36862915010153 8.86862915010152 8.0
vertex 2.1143593539449 9.2 2.0
vertex 2.1143593539449 9.2 8.0
endloop
endfacet
facet normal 0.608761429008721 0.793353340291235 0.0
outer loop
vertex 2.36862915010153 8.86862915010152 8.0
vertex 2.70000000000001 8.6143593539449 2.0
vertex 2.36862915010153 8.86862915010152 2.0
endloop
endfacet
facet normal 0.608761429008721 0.793353340291235 0.0
outer loop
vertex 2.70000000000001 8.6143593539449 2.0
vertex 2.36862915010153 8.86862915010152 8.0
vertex 2.70000000000001 8.6143593539449 8.0
endloop
endfacet
facet normal 0.382683432365089 0.923879532511287 0.0
outer loop
vertex 2.70000000000001 8.6143593539449 8.0
vertex 3.08588952783597 8.45451867793749 2.0
vertex 2.70000000000001 8.6143593539449 2.0
endloop
endfacet
facet normal 0.382683432365089 0.923879532511287 0.0
outer loop
vertex 3.08588952783597 8.45451867793749 2.0
vertex 2.70000000000001 8.6143593539449 8.0
vertex 3.08588952783597 8.45451867793749 8.0
endloop
endfacet
facet normal 0.130526192220052 0.99144486137381 0.0
outer loop
vertex 3.08588952783597 8.45451867793749 8.0
vertex 3.50000000000001 8.4 2.0
vertex 3.08588952783597 8.45451867793749 2.0
endloop
endfacet
facet normal 0.130526192220052 0.99144486137381 0.0
outer loop
vertex 3.50000000000001 8.4 2.0
vertex 3.08588952783597 8.45451867793749 8.0
vertex 3.50000000000001 8.4 8.0
endloop
endfacet
facet normal -0.130526192220053 0.99144486137381 -0.0
outer loop
vertex 3.50000000000001 8.4 8.0
vertex 3.91411047216404 8.45451867793749 2.0
vertex 3.50000000000001 8.4 2.0
endloop
endfacet
facet normal -0.130526192220053 0.99144486137381 -0.0
outer loop
vertex 3.91411047216404 8.45451867793749 2.0
vertex 3.50000000000001 8.4 8.0
vertex 3.91411047216404 8.45451867793749 8.0
endloop
endfacet
facet normal -0.382683432365092 0.923879532511286 -0.0
outer loop
vertex 3.91411047216404 8.45451867793749 8.0
vertex 4.30000000000001 8.6143593539449 2.0
vertex 3.91411047216404 8.45451867793749 2.0
endloop
endfacet
facet normal -0.382683432365092 0.923879532511286 -0.0
outer loop
vertex 4.30000000000001 8.6143593539449 2.0
vertex 3.91411047216404 8.45451867793749 8.0
vertex 4.30000000000001 8.6143593539449 8.0
endloop
endfacet
facet normal -0.60876142900872 0.793353340291236 -0.0
outer loop
vertex 4.30000000000001 8.6143593539449 8.0
vertex 4.63137084989848 8.86862915010152 2.0
vertex 4.30000000000001 8.6143593539449 2.0
endloop
endfacet
facet normal -0.60876142900872 0.793353340291236 -0.0
outer loop
vertex 4.63137084989848 8.86862915010152 2.0
vertex 4.30000000000001 8.6143593539449 8.0
vertex 4.63137084989848 8.86862915010152 8.0
endloop
endfacet
facet normal -0.793353340291236 0.60876142900872 -0.0
outer loop
vertex 4.88564064605511 9.2 8.0
vertex 4.63137084989848 8.86862915010152 2.0
vertex 4.63137084989848 8.86862915010152 8.0
endloop
endfacet
facet normal -0.793353340291236 0.60876142900872 -0.0
outer loop
vertex 4.63137084989848 8.86862915010152 2.0
vertex 4.88564064605511 9.2 8.0
vertex 4.88564064605511 9.2 2.0
endloop
endfacet
facet normal -0.923879532511287 0.382683432365088 -0.0
outer loop
vertex 5.04548132206252 9.58588952783597 8.0
vertex 4.88564064605511 9.2 2.0
vertex 4.88564064605511 9.2 8.0
endloop
endfacet
facet normal -0.923879532511287 0.382683432365088 -0.0
outer loop
vertex 4.88564064605511 9.2 2.0
vertex 5.04548132206252 9.58588952783597 8.0
vertex 5.04548132206252 9.58588952783597 2.0
endloop
endfacet
facet normal -0.99144486137381 0.130526192220052 -0.0
outer loop
vertex 5.10000000000001 10.0 8.0
vertex 5.04548132206252 9.58588952783597 2.0
vertex 5.04548132206252 9.58588952783597 8.0
endloop
endfacet
facet normal -0.99144486137381 0.130526192220052 -0.0
outer loop
vertex 5.04548132206252 9.58588952783597 2.0
vertex 5.10000000000001 10.0 8.0
vertex 5.10000000000001 10.0 2.0
endloop
endfacet
facet normal -0.99144486137381 -0.130526192220053 -0.0
outer loop
vertex 5.04548132206252 10.414110472164 8.0
vertex 5.10000000000001 10.0 2.0
vertex 5.10000000000001 10.0 8.0
endloop
endfacet
facet normal -0.99144486137381 -0.130526192220053 -0.0
outer loop
vertex 5.10000000000001 10.0 2.0
vertex 5.04548132206252 10.414110472164 8.0
vertex 5.04548132206252 10.414110472164 2.0
endloop
endfacet
facet normal -0.923879532511287 -0.38268343236509 -0.0
outer loop
vertex 4.88564064605511 10.8 8.0
vertex 5.04548132206252 10.414110472164 2.0
vertex 5.04548132206252 10.414110472164 8.0
endloop
endfacet
facet normal -0.923879532511287 -0.38268343236509 -0.0
outer loop
vertex 5.04548132206252 10.414110472164 2.0
vertex 4.88564064605511 10.8 8.0
vertex 4.88564064605511 10.8 2.0
endloop
endfacet
facet normal -0.793353340291236 -0.60876142900872 -0.0
outer loop
vertex 67.6313708498985 11.1313708498985 8.0
vertex 67.8856406460551 10.8 2.0
vertex 67.8856406460551 10.8 8.0
endloop
endfacet
facet normal -0.793353340291236 -0.60876142900872 -0.0
outer loop
vertex 67.8856406460551 10.8 2.0
vertex 67.6313708498985 11.1313708498985 8.0
vertex 67.6313708498985 11.1313708498985 2.0
endloop
endfacet
facet normal -0.608761429008716 -0.793353340291239 -0.0
outer loop
vertex 67.6313708498985 11.1313708498985 8.0
vertex 67.3 11.3856406460551 2.0
vertex 67.6313708498985 11.1313708498985 2.0
endloop
endfacet
facet normal -0.608761429008716 -0.793353340291239 -0.0
outer loop
vertex 67.3 11.3856406460551 2.0
vertex 67.6313708498985 11.1313708498985 8.0
vertex 67.3 11.3856406460551 8.0
endloop
endfacet
facet normal -0.382683432365092 -0.923879532511286 -0.0
outer loop
vertex 67.3 11.3856406460551 8.0
vertex 66.914110472164 11.5454813220625 2.0
vertex 67.3 11.3856406460551 2.0
endloop
endfacet
facet normal -0.382683432365092 -0.923879532511286 -0.0
outer loop
vertex 66.914110472164 11.5454813220625 2.0
vertex 67.3 11.3856406460551 8.0
vertex 66.914110472164 11.5454813220625 8.0
endloop
endfacet
facet normal -0.130526192220056 -0.99144486137381 -0.0
outer loop
vertex 66.914110472164 11.5454813220625 8.0
vertex 66.5 11.6 2.0
vertex 66.914110472164 11.5454813220625 2.0
endloop
endfacet
facet normal -0.130526192220056 -0.99144486137381 -0.0
outer loop
vertex 66.5 11.6 2.0
vertex 66.914110472164 11.5454813220625 8.0
vertex 66.5 11.6 8.0
endloop
endfacet
facet normal 0.130526192220053 -0.99144486137381 -0.0
outer loop
vertex 66.5 11.6 8.0
vertex 66.085889527836 11.5454813220625 2.0
vertex 66.5 11.6 2.0
endloop
endfacet
facet normal 0.130526192220053 -0.99144486137381 -0.0
outer loop
vertex 66.085889527836 11.5454813220625 2.0
vertex 66.5 11.6 8.0
vertex 66.085889527836 11.5454813220625 8.0
endloop
endfacet
facet normal 0.38268343236509 -0.923879532511287 -0.0
outer loop
vertex 66.085889527836 11.5454813220625 8.0
vertex 65.7 11.3856406460551 2.0
vertex 66.085889527836 11.5454813220625 2.0
endloop
endfacet
facet normal 0.38268343236509 -0.923879532511287 -0.0
outer loop
vertex 65.7 11.3856406460551 2.0
vertex 66.085889527836 11.5454813220625 8.0
vertex 65.7 11.3856406460551 8.0
endloop
endfacet
facet normal 0.608761429008711 -0.793353340291242 -0.0
outer loop
vertex 65.7 11.3856406460551 8.0
vertex 65.3686291501015 11.1313708498985 2.0
vertex 65.7 11.3856406460551 2.0
endloop
endfacet
facet normal 0.608761429008711 -0.793353340291242 -0.0
outer loop
vertex 65.3686291501015 11.1313708498985 2.0
vertex 65.7 11.3856406460551 8.0
vertex 65.3686291501015 11.1313708498985 8.0
endloop
endfacet
facet normal 0.793353340291236 -0.60876142900872 -0.0
outer loop
vertex 65.3686291501015 11.1313708498985 2.0
vertex 65.1143593539449 10.8 8.0
vertex 65.1143593539449 10.8 2.0
endloop
endfacet
facet normal 0.793353340291236 -0.60876142900872 -0.0
outer loop
vertex 65.1143593539449 10.8 8.0
vertex 65.3686291501015 11.1313708498985 2.0
vertex 65.3686291501015 11.1313708498985 8.0
endloop
endfacet
facet normal 0.923879532511288 -0.382683432365087 -0.0
outer loop
vertex 65.1143593539449 10.8 2.0
vertex 64.9545186779375 10.414110472164 8.0
vertex 64.9545186779375 10.414110472164 2.0
endloop
endfacet
facet normal 0.923879532511288 -0.382683432365087 -0.0
outer loop
vertex 64.9545186779375 10.414110472164 8.0
vertex 65.1143593539449 10.8 2.0
vertex 65.1143593539449 10.8 8.0
endloop
endfacet
facet normal 0.991444861373809 -0.130526192220062 -0.0
outer loop
vertex 64.9545186779375 10.414110472164 2.0
vertex 64.9 10.0 8.0
vertex 64.9 10.0 2.0
endloop
endfacet
facet normal 0.991444861373809 -0.130526192220062 -0.0
outer loop
vertex 64.9 10.0 8.0
vertex 64.9545186779375 10.414110472164 2.0
vertex 64.9545186779375 10.414110472164 8.0
endloop
endfacet
facet normal 0.991444861373809 0.130526192220062 0.0
outer loop
vertex 64.9 10.0 2.0
vertex 64.9545186779375 9.58588952783597 8.0
vertex 64.9545186779375 9.58588952783597 2.0
endloop
endfacet
facet normal 0.991444861373809 0.130526192220062 0.0
outer loop
vertex 64.9545186779375 9.58588952783597 8.0
vertex 64.9 10.0 2.0
vertex 64.9 10.0 8.0
endloop
endfacet
facet normal 0.923879532511289 0.382683432365086 0.0
outer loop
vertex 64.9545186779375 9.58588952783597 2.0
vertex 65.1143593539449 9.2 8.0
vertex 65.1143593539449 9.2 2.0
endloop
endfacet
facet normal 0.923879532511289 0.382683432365086 0.0
outer loop
vertex 65.1143593539449 9.2 8.0
vertex 64.9545186779375 9.58588952783597 2.0
vertex 64.9545186779375 9.58588952783597 8.0
endloop
endfacet
facet normal 0.793353340291236 0.60876142900872 0.0
outer loop
vertex 65.1143593539449 9.2 2.0
vertex 65.3686291501015 8.86862915010152 8.0
vertex 65.3686291501015 8.86862915010152 2.0
endloop
endfacet
facet normal 0.793353340291236 0.60876142900872 0.0
outer loop
vertex 65.3686291501015 8.86862915010152 8.0
vertex 65.1143593539449 9.2 2.0
vertex 65.1143593539449 9.2 8.0
endloop
endfacet
facet normal 0.608761429008729 0.793353340291229 0.0
outer loop
vertex 65.3686291501015 8.86862915010152 8.0
vertex 65.7 8.6143593539449 2.0
vertex 65.3686291501015 8.86862915010152 2.0
endloop
endfacet
facet normal 0.608761429008729 0.793353340291229 0.0
outer loop
vertex 65.7 8.6143593539449 2.0
vertex 65.3686291501015 8.86862915010152 8.0
vertex 65.7 8.6143593539449 8.0
endloop
endfacet
facet normal 0.382683432365083 0.92387953251129 0.0
outer loop
vertex 65.7 8.6143593539449 8.0
vertex 66.085889527836 8.45451867793749 2.0
vertex 65.7 8.6143593539449 2.0
endloop
endfacet
facet normal 0.382683432365083 0.92387953251129 0.0
outer loop
vertex 66.085889527836 8.45451867793749 2.0
vertex 65.7 8.6143593539449 8.0
vertex 66.085889527836 8.45451867793749 8.0
endloop
endfacet
facet normal 0.130526192220056 0.99144486137381 0.0
outer loop
vertex 66.085889527836 8.45451867793749 8.0
vertex 66.5 8.4 2.0
vertex 66.085889527836 8.45451867793749 2.0
endloop
endfacet
facet normal 0.130526192220056 0.99144486137381 0.0
outer loop
vertex 66.5 8.4 2.0
vertex 66.085889527836 8.45451867793749 8.0
vertex 66.5 8.4 8.0
endloop
endfacet
facet normal -0.130526192220053 0.99144486137381 -0.0
outer loop
vertex 66.5 8.4 8.0
vertex 66.914110472164 8.45451867793749 2.0
vertex 66.5 8.4 2.0
endloop
endfacet
facet normal -0.130526192220053 0.99144486137381 -0.0
outer loop
vertex 66.914110472164 8.45451867793749 2.0
vertex 66.5 8.4 8.0
vertex 66.914110472164 8.45451867793749 8.0
endloop
endfacet
facet normal -0.382683432365087 0.923879532511288 -0.0
outer loop
vertex 66.914110472164 8.45451867793749 8.0
vertex 67.3 8.61435935394489 2.0
vertex 66.914110472164 8.45451867793749 2.0
endloop
endfacet
facet normal -0.382683432365087 0.923879532511288 -0.0
outer loop
vertex 67.3 8.61435935394489 2.0
vertex 66.914110472164 8.45451867793749 8.0
vertex 67.3 8.61435935394489 8.0
endloop
endfacet
facet normal -0.608761429008714 0.793353340291241 -0.0
outer loop
vertex 67.3 8.61435935394489 8.0
vertex 67.6313708498985 8.86862915010152 2.0
vertex 67.3 8.61435935394489 2.0
endloop
endfacet
facet normal -0.608761429008714 0.793353340291241 -0.0
outer loop
vertex 67.6313708498985 8.86862915010152 2.0
vertex 67.3 8.61435935394489 8.0
vertex 67.6313708498985 8.86862915010152 8.0
endloop
endfacet
facet normal -0.793353340291234 0.608761429008722 -0.0
outer loop
vertex 67.8856406460551 9.19999999999999 8.0
vertex 67.6313708498985 8.86862915010152 2.0
vertex 67.6313708498985 8.86862915010152 8.0
endloop
endfacet
facet normal -0.793353340291234 0.608761429008722 -0.0
outer loop
vertex 67.6313708498985 8.86862915010152 2.0
vertex 67.8856406460551 9.19999999999999 8.0
vertex 67.8856406460551 9.19999999999999 2.0
endloop
endfacet
facet normal -0.923879532511289 0.382683432365086 -0.0
outer loop
vertex 68.0454813220625 9.58588952783596 8.0
vertex 67.8856406460551 9.19999999999999 2.0
vertex 67.8856406460551 9.19999999999999 8.0
endloop
endfacet
facet normal -0.923879532511289 0.382683432365086 -0.0
outer loop
vertex 67.8856406460551 9.19999999999999 2.0
vertex 68.0454813220625 9.58588952783596 8.0
vertex 68.0454813220625 9.58588952783596 2.0
endloop
endfacet
facet normal -0.991444861373809 0.130526192220062 -0.0
outer loop
vertex 68.1 10.0 8.0
vertex 68.0454813220625 9.58588952783596 2.0
vertex 68.0454813220625 9.58588952783596 8.0
endloop
endfacet
facet normal -0.991444861373809 0.130526192220062 -0.0
outer loop
vertex 68.0454813220625 9.58588952783596 2.0
vertex 68.1 10.0 8.0
vertex 68.1 10.0 2.0
endloop
endfacet
facet normal -0.991444861373809 -0.130526192220062 -0.0
outer loop
vertex 68.0454813220625 10.414110472164 8.0
vertex 68.1 10.0 2.0
vertex 68.1 10.0 8.0
endloop
endfacet
facet normal -0.991444861373809 -0.130526192220062 -0.0
outer loop
vertex 68.1 10.0 2.0
vertex 68.0454813220625 10.414110472164 8.0
vertex 68.0454813220625 10.414110472164 2.0
endloop
endfacet
facet normal -0.923879532511289 -0.382683432365086 -0.0
outer loop
vertex 67.8856406460551 10.8 8.0
vertex 68.0454813220625 10.414110472164 2.0
vertex 68.0454813220625 10.414110472164 8.0
endloop
endfacet
facet normal -0.923879532511289 -0.382683432365086 -0.0
outer loop
vertex 68.0454813220625 10.414110472164 2.0
vertex 67.8856406460551 10.8 8.0
vertex 67.8856406460551 10.8 2.0
endloop
endfacet
endsolid GIM - ENTRANCE SIGN Stand
