solid house7just wall balc
facet normal 8.92468468266689e-005 -0.999999859353813 -0.000522807186142978
outer loop
vertex 24.9604835977152 -3.81521030006848 4.78933211815905
vertex -25.0395164022841 -3.83914971636686 2.94001199640261
vertex 24.9604835977159 -3.83914971636686 2.94001199639834
endloop
endfacet
facet normal 8.92468468266689e-005 -0.999999859353813 -0.000522807186142978
outer loop
vertex -25.0395164022841 -3.83914971636686 2.94001199640261
vertex 24.9604835977152 -3.81521030006848 4.78933211815905
vertex -25.0395164022832 -3.8391497163642 12.9420117964424
endloop
endfacet
facet normal 8.92468468266689e-005 -0.999999859353813 -0.000522807186142978
outer loop
vertex -25.0395164022832 -3.8391497163642 12.9420117964424
vertex 24.9604835977152 -3.81521030006848 4.78933211815905
vertex 24.9604835977158 -3.83914971636605 5.98630293305382
endloop
endfacet
facet normal 8.92468468266689e-005 -0.999999859353813 -0.000522807186142978
outer loop
vertex -25.0395164022832 -3.8391497163642 12.9420117964424
vertex 24.9604835977158 -3.83914971636605 5.98630293305382
vertex 24.9604835977168 -3.83914971636499 9.9380125961981
endloop
endfacet
facet normal 8.92468468266689e-005 -0.999999859353813 -0.000522807186142978
outer loop
vertex -25.0395164022832 -3.8391497163642 12.9420117964424
vertex 24.9604835977168 -3.83914971636499 9.9380125961981
vertex 24.9604835977168 -3.8391497163642 12.9380125961981
endloop
endfacet
facet normal 1.69163547654117e-015 0.999800059980015 0.0199960011992073
outer loop
vertex -11.0395164022835 -9.97792208464257 9.81863640906507
vertex -8.03951640228321 -10.0379100882402 12.8180365890049
vertex -8.03951640228347 -9.97792208464257 9.81863640906481
endloop
endfacet
facet normal 1.69163547654117e-015 0.999800059980015 0.0199960011992073
outer loop
vertex -8.03951640228321 -10.0379100882402 12.8180365890049
vertex -11.0395164022835 -9.97792208464257 9.81863640906507
vertex -11.0395164022832 -10.0379100882402 12.8180365890052
endloop
endfacet
facet normal 0.0 -2.66365976894381e-013 -1.0
outer loop
vertex 30.0 35.0 -9.31716925833825e-012
vertex 27.0 -35.0 9.32844912426845e-012
vertex 27.0 35.0 -9.31716925833825e-012
endloop
endfacet
facet normal 0.0 -2.66365976894381e-013 -1.0
outer loop
vertex 27.0 -35.0 9.32844912426845e-012
vertex 30.0 35.0 -9.31716925833825e-012
vertex 30.0 -35.0 9.32844912426845e-012
endloop
endfacet
facet normal -1.85490622178803e-027 -2.66365976894381e-013 -1.0
outer loop
vertex -27.0 35.0 -9.31716925833825e-012
vertex -30.0 -35.0 9.32844912426845e-012
vertex -30.0 35.0000000000001 -9.31716925833825e-012
endloop
endfacet
facet normal -1.85490622178803e-027 -2.66365976894381e-013 -1.0
outer loop
vertex -30.0 -35.0 9.32844912426845e-012
vertex -27.0 35.0 -9.31716925833825e-012
vertex -27.0 -35.0 9.32844912426845e-012
endloop
endfacet
facet normal -8.45825508759322e-014 0.0199960011993776 -0.999800059980012
outer loop
vertex 9.96048359771652 -3.97912172476238 9.93861241625955
vertex 12.9604835977165 -9.97792208464257 9.81863640906303
vertex 9.96048359771652 -9.97792208464257 9.81863640906328
endloop
endfacet
facet normal -8.45825508759322e-014 0.0199960011993776 -0.999800059980012
outer loop
vertex 12.9604835977165 -9.97792208464257 9.81863640906303
vertex 9.96048359771652 -3.97912172476238 9.93861241625955
vertex 12.9604835977165 -3.97912172476238 9.93861241625929
endloop
endfacet
facet normal -1.0 0.0 0.0
outer loop
vertex -0.00286511547201709 20.0000000000008 2.99999999999467
vertex -0.00286511547201709 35.0 -9.31716925833825e-012
vertex -0.00286511547201709 20.0 -5.32409671905043e-012
endloop
endfacet
facet normal -1.0 0.0 0.0
outer loop
vertex -0.00286511547201709 35.0 -9.31716925833825e-012
vertex -0.00286511547201709 20.0000000000008 2.99999999999467
vertex -0.00286511547201709 35.0000000000008 2.99999999999068
endloop
endfacet
facet normal 1.0 0.0 0.0
outer loop
vertex 30.0 35.0 -9.31716925833825e-012
vertex 30.0 -34.9999999999992 3.00000000000932
vertex 30.0 -35.0 9.32844912426845e-012
endloop
endfacet
facet normal 1.0 0.0 0.0
outer loop
vertex 30.0 -34.9999999999992 3.00000000000932
vertex 30.0 35.0 -9.31716925833825e-012
vertex 30.0 35.0000000000008 2.99999999999068
endloop
endfacet
facet normal -2.89943579177352e-018 2.6637040870227e-013 1.0
outer loop
vertex -30.0 -34.9999999999992 3.00000000000932
vertex -19.9513124106426 -30.0055898459546 3.00000000000799
vertex -30.0 35.0000000000008 2.99999999999068
endloop
endfacet
facet normal -2.89943579177352e-018 2.6637040870227e-013 1.0
outer loop
vertex -19.9513124106426 -30.0055898459546 3.00000000000799
vertex -30.0 -34.9999999999992 3.00000000000932
vertex 30.0 -34.9999999999992 3.00000000000932
endloop
endfacet
facet normal -2.89943579177352e-018 2.6637040870227e-013 1.0
outer loop
vertex -19.9513124106426 -30.0055898459546 3.00000000000799
vertex 30.0 -34.9999999999992 3.00000000000932
vertex 20.0486875893574 -30.0055898459546 3.00000000000799
endloop
endfacet
facet normal -2.89943579177352e-018 2.6637040870227e-013 1.0
outer loop
vertex 20.0486875893574 -30.0055898459546 3.00000000000799
vertex 30.0 -34.9999999999992 3.00000000000932
vertex 20.0486875893574 -10.0055898459546 3.00000000000267
endloop
endfacet
facet normal -2.89943579177352e-018 2.6637040870227e-013 1.0
outer loop
vertex 20.0486875893574 -10.0055898459546 3.00000000000267
vertex -10.002865115472 20.0000000000008 2.99999999999467
vertex -19.9513124106426 -10.0055898459546 3.00000000000267
endloop
endfacet
facet normal -2.89943579177352e-018 2.6637040870227e-013 1.0
outer loop
vertex -10.002865115472 20.0000000000008 2.99999999999467
vertex 20.0486875893574 -10.0055898459546 3.00000000000267
vertex -0.00286511547201709 20.0000000000008 2.99999999999467
endloop
endfacet
facet normal -2.89943579177352e-018 2.6637040870227e-013 1.0
outer loop
vertex -0.00286511547201709 20.0000000000008 2.99999999999467
vertex 20.0486875893574 -10.0055898459546 3.00000000000267
vertex -0.00286511547201709 35.0000000000008 2.99999999999068
endloop
endfacet
facet normal -2.89943579177352e-018 2.6637040870227e-013 1.0
outer loop
vertex -0.00286511547201709 35.0000000000008 2.99999999999068
vertex 20.0486875893574 -10.0055898459546 3.00000000000267
vertex 30.0 35.0000000000008 2.99999999999068
endloop
endfacet
facet normal -2.89943579177352e-018 2.6637040870227e-013 1.0
outer loop
vertex 30.0 35.0000000000008 2.99999999999068
vertex 20.0486875893574 -10.0055898459546 3.00000000000267
vertex 30.0 -34.9999999999992 3.00000000000932
endloop
endfacet
facet normal -2.89943579177352e-018 2.6637040870227e-013 1.0
outer loop
vertex -30.0 35.0000000000008 2.99999999999068
vertex -19.9513124106426 -10.0055898459546 3.00000000000267
vertex -10.002865115472 35.0000000000008 2.99999999999068
endloop
endfacet
facet normal -2.89943579177352e-018 2.6637040870227e-013 1.0
outer loop
vertex -19.9513124106426 -10.0055898459546 3.00000000000267
vertex -30.0 35.0000000000008 2.99999999999068
vertex -19.9513124106426 -30.0055898459546 3.00000000000799
endloop
endfacet
facet normal -2.89943579177352e-018 2.6637040870227e-013 1.0
outer loop
vertex -10.002865115472 35.0000000000008 2.99999999999068
vertex -19.9513124106426 -10.0055898459546 3.00000000000267
vertex -10.002865115472 20.0000000000008 2.99999999999467
endloop
endfacet
facet normal 0.0 -1.0 2.70716782324599e-013
outer loop
vertex 30.0 -34.9999999999992 3.00000000000932
vertex 27.0 -35.0 9.32844912426845e-012
vertex 30.0 -35.0 9.32844912426845e-012
endloop
endfacet
facet normal 0.0 -1.0 2.70716782324599e-013
outer loop
vertex 27.0 -35.0 9.32844912426845e-012
vertex 30.0 -34.9999999999992 3.00000000000932
vertex -27.0 -35.0 9.32844912426845e-012
endloop
endfacet
facet normal 0.0 -1.0 2.70716782324599e-013
outer loop
vertex -27.0 -35.0 9.32844912426845e-012
vertex 30.0 -34.9999999999992 3.00000000000932
vertex -30.0 -35.0 9.32844912426845e-012
endloop
endfacet
facet normal 0.0 -1.0 2.70716782324599e-013
outer loop
vertex -30.0 -35.0 9.32844912426845e-012
vertex 30.0 -34.9999999999992 3.00000000000932
vertex -30.0 -34.9999999999992 3.00000000000932
endloop
endfacet
facet normal -3.00795632874892e-016 -0.0199960011993091 0.999800059980013
outer loop
vertex 21.9604835977163 -9.93490012169643 7.66753826174047
vertex 24.9604835977155 -3.87519830366644 7.78873229809931
vertex 21.9604835977157 -3.87519830366669 7.78873229809931
endloop
endfacet
facet normal -3.00795632874892e-016 -0.0199960011993091 0.999800059980013
outer loop
vertex 24.9604835977155 -3.87519830366644 7.78873229809931
vertex 21.9604835977163 -9.93490012169643 7.66753826174047
vertex 24.9604835977162 -9.9349001216962 7.66753826174048
endloop
endfacet
facet normal -1.0 -4.18510204857383e-018 8.59390199228062e-014
outer loop
vertex -25.0395164022832 -3.8391497163642 12.9420117964424
vertex -25.0395164022835 -9.97792208464257 9.81863640906627
vertex -25.0395164022832 -10.0379100882402 12.8180365890064
endloop
endfacet
facet normal -1.0 -4.18510204857383e-018 8.59390199228062e-014
outer loop
vertex -25.0395164022835 -9.97792208464257 9.81863640906627
vertex -25.0395164022832 -3.8391497163642 12.9420117964424
vertex -25.0395164022835 -3.97912172476238 9.93861241626253
endloop
endfacet
facet normal -1.0 -4.18510204857383e-018 8.59390199228062e-014
outer loop
vertex -25.0395164022835 -3.97912172476238 9.93861241626253
vertex -25.0395164022832 -3.8391497163642 12.9420117964424
vertex -25.0395164022837 -3.93609976181633 7.78751426893691
endloop
endfacet
facet normal -1.0 -4.18510204857383e-018 8.59390199228062e-014
outer loop
vertex -25.0395164022837 -3.93609976181633 7.78751426893691
vertex -25.0395164022832 -3.8391497163642 12.9420117964424
vertex -25.0395164022839 -3.87611175821832 4.78811408899666
endloop
endfacet
facet normal -1.0 -4.18510204857383e-018 8.59390199228062e-014
outer loop
vertex -25.0395164022839 -3.87611175821832 4.78811408899666
vertex -25.0395164022832 -3.8391497163642 12.9420117964424
vertex -25.0395164022841 -3.83914971636686 2.94001199640261
endloop
endfacet
facet normal -1.0 -4.18510204857383e-018 8.59390199228062e-014
outer loop
vertex -25.0395164022837 -3.93609976181633 7.78751426893691
vertex -25.0395164022839 -9.87491211809846 4.66813808180048
vertex -25.0395164022837 -9.93490012169654 7.66753826174074
endloop
endfacet
facet normal -1.0 -4.18510204857383e-018 8.59390199228062e-014
outer loop
vertex -25.0395164022839 -9.87491211809846 4.66813808180048
vertex -25.0395164022837 -3.93609976181633 7.78751426893691
vertex -25.0395164022839 -3.87611175821832 4.78811408899666
endloop
endfacet
facet normal 1.69180059948037e-015 0.999800059980015 0.0199960011992074
outer loop
vertex -22.0395164022835 -9.97792208464257 9.81863640906601
vertex -20.0395164022833 -10.0379100882402 12.818036589006
vertex -20.0395164022835 -9.97792208464257 9.81863640906584
endloop
endfacet
facet normal 1.69180059948037e-015 0.999800059980015 0.0199960011992074
outer loop
vertex -20.0395164022833 -10.0379100882402 12.818036589006
vertex -22.0395164022835 -9.97792208464257 9.81863640906601
vertex -22.0395164022832 -10.0379100882402 12.8180365890061
endloop
endfacet
facet normal -1.72776825084319e-015 -0.999800059980012 -0.0199960011993567
outer loop
vertex -22.0395164022837 -9.93490012169654 7.66753826174048
vertex -25.0395164022839 -9.87491211809846 4.66813808180048
vertex -22.0395164022839 -9.87491211809846 4.66813808180022
endloop
endfacet
facet normal -1.72776825084319e-015 -0.999800059980012 -0.0199960011993567
outer loop
vertex -25.0395164022839 -9.87491211809846 4.66813808180048
vertex -22.0395164022837 -9.93490012169654 7.66753826174048
vertex -25.0395164022837 -9.93490012169654 7.66753826174074
endloop
endfacet
facet normal 1.0 -1.87960177246574e-016 -8.46196717872358e-014
outer loop
vertex 0.960483597716512 -9.97792208464257 9.81863640906404
vertex 0.960483597716777 -4.03910972835996 12.9380125962002
vertex 0.960483597716766 -10.0379100882402 12.8180365890042
endloop
endfacet
facet normal 1.0 -1.87960177246574e-016 -8.46196717872358e-014
outer loop
vertex 0.960483597716777 -4.03910972835996 12.9380125962002
vertex 0.960483597716512 -9.97792208464257 9.81863640906404
vertex 0.960483597716524 -3.97912172476238 9.93861241626032
endloop
endfacet
facet normal -1.0 1.50368141801777e-016 8.6499273559498e-014
outer loop
vertex -20.0395164022833 -4.03910972835996 12.938012596202
vertex -20.0395164022835 -9.97792208464257 9.81863640906584
vertex -20.0395164022833 -10.0379100882402 12.818036589006
endloop
endfacet
facet normal -1.0 1.50368141801777e-016 8.6499273559498e-014
outer loop
vertex -20.0395164022835 -9.97792208464257 9.81863640906584
vertex -20.0395164022833 -4.03910972835996 12.938012596202
vertex -20.0395164022835 -3.97912172476238 9.9386124162621
endloop
endfacet
facet normal -8.45838718590777e-014 0.0199960011993776 -0.999800059980012
outer loop
vertex -8.03951640228346 -3.97912172476238 9.93861241626108
vertex -5.03951640228348 -9.97792208464257 9.81863640906456
vertex -8.03951640228347 -9.97792208464257 9.81863640906481
endloop
endfacet
facet normal -8.45838718590777e-014 0.0199960011993776 -0.999800059980012
outer loop
vertex -5.03951640228348 -9.97792208464257 9.81863640906456
vertex -8.03951640228346 -3.97912172476238 9.93861241626108
vertex -5.03951640228347 -3.97912172476238 9.93861241626082
endloop
endfacet
facet normal -9.70022476007453e-014 0.999800059980013 0.019996001199304
outer loop
vertex 21.9604835977157 -3.87519830366669 7.78873229809931
vertex 24.9604835977152 -3.81521030006848 4.78933211815905
vertex 21.9604835977154 -3.81521030006881 4.78933211815904
endloop
endfacet
facet normal -9.70022476007453e-014 0.999800059980013 0.019996001199304
outer loop
vertex 24.9604835977152 -3.81521030006848 4.78933211815905
vertex 21.9604835977157 -3.87519830366669 7.78873229809931
vertex 24.9604835977158 -3.83914971636605 5.98630293305382
endloop
endfacet
facet normal -9.70022476007453e-014 0.999800059980013 0.019996001199304
outer loop
vertex 24.9604835977158 -3.83914971636605 5.98630293305382
vertex 21.9604835977157 -3.87519830366669 7.78873229809931
vertex 24.9604835977155 -3.87519830366644 7.78873229809931
endloop
endfacet
facet normal 1.0 0.0 0.0
outer loop
vertex -10.002865115472 35.0 -9.31716925833825e-012
vertex -10.002865115472 20.0000000000008 2.99999999999467
vertex -10.002865115472 20.0 -5.32409671905043e-012
endloop
endfacet
facet normal 1.0 0.0 0.0
outer loop
vertex -10.002865115472 20.0000000000008 2.99999999999467
vertex -10.002865115472 35.0 -9.31716925833825e-012
vertex -10.002865115472 35.0000000000008 2.99999999999068
endloop
endfacet
facet normal -1.0 0.0 0.0
outer loop
vertex 20.0486875893574 -30.0055898459546 3.00000000000799
vertex 20.0486875893574 -10.0055898459554 2.71844768917617e-012
vertex 20.0486875893574 -30.0055898459554 7.92974574892469e-012
endloop
endfacet
facet normal -1.0 0.0 0.0
outer loop
vertex 20.0486875893574 -10.0055898459554 2.71844768917617e-012
vertex 20.0486875893574 -30.0055898459546 3.00000000000799
vertex 20.0486875893574 -10.0055898459546 3.00000000000267
endloop
endfacet
facet normal 1.18966650166023e-005 -0.0199569597734442 0.999800839975177
outer loop
vertex -17.0395164022832 -10.0379100882402 12.8180365890057
vertex -20.0395164022833 -4.03910972835996 12.938012596202
vertex -20.0395164022833 -10.0379100882402 12.818036589006
endloop
endfacet
facet normal 1.18966650166023e-005 -0.0199569597734442 0.999800839975177
outer loop
vertex -11.0395164022832 -10.0379100882402 12.8180365890052
vertex -14.0395164022832 -4.03910972835996 12.9380125962015
vertex -14.0395164022832 -10.0379100882402 12.8180365890054
endloop
endfacet
facet normal 1.18966650166023e-005 -0.0199569597734442 0.999800839975177
outer loop
vertex -5.03951640228322 -10.0379100882402 12.8180365890047
vertex -8.0395164022832 -4.03910972835996 12.938012596201
vertex -8.03951640228321 -10.0379100882402 12.8180365890049
endloop
endfacet
facet normal 1.18966650166023e-005 -0.0199569597734442 0.999800839975177
outer loop
vertex 0.960483597716766 -10.0379100882402 12.8180365890042
vertex -2.03951640228321 -4.03910972835996 12.9380125962005
vertex -2.03951640228322 -10.0379100882402 12.8180365890044
endloop
endfacet
facet normal 1.18966650166023e-005 -0.0199569597734442 0.999800839975177
outer loop
vertex 6.96048359771678 -10.0379100882402 12.8180365890037
vertex 3.96048359771678 -4.03910972835996 12.9380125961999
vertex 3.96048359771677 -10.0379100882402 12.8180365890039
endloop
endfacet
facet normal 1.18966650166023e-005 -0.0199569597734442 0.999800839975177
outer loop
vertex 12.9604835977168 -10.0379100882402 12.8180365890031
vertex 9.96048359771678 -4.03910972835996 12.9380125961994
vertex 9.96048359771677 -10.0379100882402 12.8180365890034
endloop
endfacet
facet normal 1.18966650166023e-005 -0.0199569597734442 0.999800839975177
outer loop
vertex 18.9604835977168 -10.0379100882402 12.8180365890026
vertex 15.9604835977168 -4.03910972835996 12.9380125961989
vertex 15.9604835977168 -10.0379100882402 12.8180365890029
endloop
endfacet
facet normal 1.18966650166023e-005 -0.0199569597734442 0.999800839975177
outer loop
vertex 24.9604835977168 -10.0379100882402 12.8180365890021
vertex 21.9604835977168 -4.03910972835996 12.9380125961984
vertex 21.9604835977168 -10.0379100882402 12.8180365890024
endloop
endfacet
facet normal 1.18966650166023e-005 -0.0199569597734442 0.999800839975177
outer loop
vertex -22.0395164022832 -10.0379100882402 12.8180365890061
vertex -25.0395164022832 -3.8391497163642 12.9420117964424
vertex -25.0395164022832 -10.0379100882402 12.8180365890064
endloop
endfacet
facet normal 1.18966650166023e-005 -0.0199569597734442 0.999800839975177
outer loop
vertex -25.0395164022832 -3.8391497163642 12.9420117964424
vertex -22.0395164022832 -10.0379100882402 12.8180365890061
vertex -22.0395164022832 -4.03910972835996 12.9380125962022
endloop
endfacet
facet normal 1.18966650166023e-005 -0.0199569597734442 0.999800839975177
outer loop
vertex -25.0395164022832 -3.8391497163642 12.9420117964424
vertex -22.0395164022832 -4.03910972835996 12.9380125962022
vertex 24.9604835977168 -3.8391497163642 12.9380125961981
endloop
endfacet
facet normal 1.18966650166023e-005 -0.0199569597734442 0.999800839975177
outer loop
vertex 24.9604835977168 -3.8391497163642 12.9380125961981
vertex -22.0395164022832 -4.03910972835996 12.9380125962022
vertex -20.0395164022833 -4.03910972835996 12.938012596202
endloop
endfacet
facet normal 1.18966650166023e-005 -0.0199569597734442 0.999800839975177
outer loop
vertex 24.9604835977168 -3.8391497163642 12.9380125961981
vertex -20.0395164022833 -4.03910972835996 12.938012596202
vertex -17.0395164022832 -4.03910972835996 12.9380125962017
endloop
endfacet
facet normal 1.18966650166023e-005 -0.0199569597734442 0.999800839975177
outer loop
vertex -17.0395164022832 -4.03910972835996 12.9380125962017
vertex -20.0395164022833 -4.03910972835996 12.938012596202
vertex -17.0395164022832 -10.0379100882402 12.8180365890057
endloop
endfacet
facet normal 1.18966650166023e-005 -0.0199569597734442 0.999800839975177
outer loop
vertex 24.9604835977168 -3.8391497163642 12.9380125961981
vertex -17.0395164022832 -4.03910972835996 12.9380125962017
vertex -14.0395164022832 -4.03910972835996 12.9380125962015
endloop
endfacet
facet normal 1.18966650166023e-005 -0.0199569597734442 0.999800839975177
outer loop
vertex 24.9604835977168 -3.8391497163642 12.9380125961981
vertex -14.0395164022832 -4.03910972835996 12.9380125962015
vertex -11.0395164022832 -4.03910972835996 12.9380125962012
endloop
endfacet
facet normal 1.18966650166023e-005 -0.0199569597734442 0.999800839975177
outer loop
vertex -11.0395164022832 -4.03910972835996 12.9380125962012
vertex -14.0395164022832 -4.03910972835996 12.9380125962015
vertex -11.0395164022832 -10.0379100882402 12.8180365890052
endloop
endfacet
facet normal 1.18966650166023e-005 -0.0199569597734442 0.999800839975177
outer loop
vertex 24.9604835977168 -3.8391497163642 12.9380125961981
vertex -11.0395164022832 -4.03910972835996 12.9380125962012
vertex -8.0395164022832 -4.03910972835996 12.938012596201
endloop
endfacet
facet normal 1.18966650166023e-005 -0.0199569597734442 0.999800839975177
outer loop
vertex 24.9604835977168 -3.8391497163642 12.9380125961981
vertex -8.0395164022832 -4.03910972835996 12.938012596201
vertex -5.03951640228321 -4.03910972835996 12.9380125962007
endloop
endfacet
facet normal 1.18966650166023e-005 -0.0199569597734442 0.999800839975177
outer loop
vertex -5.03951640228321 -4.03910972835996 12.9380125962007
vertex -8.0395164022832 -4.03910972835996 12.938012596201
vertex -5.03951640228322 -10.0379100882402 12.8180365890047
endloop
endfacet
facet normal 1.18966650166023e-005 -0.0199569597734442 0.999800839975177
outer loop
vertex 24.9604835977168 -3.8391497163642 12.9380125961981
vertex -5.03951640228321 -4.03910972835996 12.9380125962007
vertex -2.03951640228321 -4.03910972835996 12.9380125962005
endloop
endfacet
facet normal 1.18966650166023e-005 -0.0199569597734442 0.999800839975177
outer loop
vertex 24.9604835977168 -3.8391497163642 12.9380125961981
vertex -2.03951640228321 -4.03910972835996 12.9380125962005
vertex 0.960483597716777 -4.03910972835996 12.9380125962002
endloop
endfacet
facet normal 1.18966650166023e-005 -0.0199569597734442 0.999800839975177
outer loop
vertex 0.960483597716777 -4.03910972835996 12.9380125962002
vertex -2.03951640228321 -4.03910972835996 12.9380125962005
vertex 0.960483597716766 -10.0379100882402 12.8180365890042
endloop
endfacet
facet normal 1.18966650166023e-005 -0.0199569597734442 0.999800839975177
outer loop
vertex 24.9604835977168 -3.8391497163642 12.9380125961981
vertex 0.960483597716777 -4.03910972835996 12.9380125962002
vertex 3.96048359771678 -4.03910972835996 12.9380125961999
endloop
endfacet
facet normal 1.18966650166023e-005 -0.0199569597734442 0.999800839975177
outer loop
vertex 24.9604835977168 -3.8391497163642 12.9380125961981
vertex 3.96048359771678 -4.03910972835996 12.9380125961999
vertex 6.96048359771679 -4.03910972835996 12.9380125961997
endloop
endfacet
facet normal 1.18966650166023e-005 -0.0199569597734442 0.999800839975177
outer loop
vertex 6.96048359771679 -4.03910972835996 12.9380125961997
vertex 3.96048359771678 -4.03910972835996 12.9380125961999
vertex 6.96048359771678 -10.0379100882402 12.8180365890037
endloop
endfacet
facet normal 1.18966650166023e-005 -0.0199569597734442 0.999800839975177
outer loop
vertex 24.9604835977168 -3.8391497163642 12.9380125961981
vertex 6.96048359771679 -4.03910972835996 12.9380125961997
vertex 9.96048359771678 -4.03910972835996 12.9380125961994
endloop
endfacet
facet normal 1.18966650166023e-005 -0.0199569597734442 0.999800839975177
outer loop
vertex 24.9604835977168 -3.8391497163642 12.9380125961981
vertex 9.96048359771678 -4.03910972835996 12.9380125961994
vertex 12.9604835977168 -4.03910972835996 12.9380125961992
endloop
endfacet
facet normal 1.18966650166023e-005 -0.0199569597734442 0.999800839975177
outer loop
vertex 12.9604835977168 -4.03910972835996 12.9380125961992
vertex 9.96048359771678 -4.03910972835996 12.9380125961994
vertex 12.9604835977168 -10.0379100882402 12.8180365890031
endloop
endfacet
facet normal 1.18966650166023e-005 -0.0199569597734442 0.999800839975177
outer loop
vertex 24.9604835977168 -3.8391497163642 12.9380125961981
vertex 12.9604835977168 -4.03910972835996 12.9380125961992
vertex 15.9604835977168 -4.03910972835996 12.9380125961989
endloop
endfacet
facet normal 1.18966650166023e-005 -0.0199569597734442 0.999800839975177
outer loop
vertex 24.9604835977168 -3.8391497163642 12.9380125961981
vertex 15.9604835977168 -4.03910972835996 12.9380125961989
vertex 18.9604835977168 -4.03910972835996 12.9380125961987
endloop
endfacet
facet normal 1.18966650166023e-005 -0.0199569597734442 0.999800839975177
outer loop
vertex 18.9604835977168 -4.03910972835996 12.9380125961987
vertex 15.9604835977168 -4.03910972835996 12.9380125961989
vertex 18.9604835977168 -10.0379100882402 12.8180365890026
endloop
endfacet
facet normal 1.18966650166023e-005 -0.0199569597734442 0.999800839975177
outer loop
vertex 24.9604835977168 -3.8391497163642 12.9380125961981
vertex 18.9604835977168 -4.03910972835996 12.9380125961987
vertex 21.9604835977168 -4.03910972835996 12.9380125961984
endloop
endfacet
facet normal 1.18966650166023e-005 -0.0199569597734442 0.999800839975177
outer loop
vertex 24.9604835977168 -3.8391497163642 12.9380125961981
vertex 21.9604835977168 -4.03910972835996 12.9380125961984
vertex 24.9604835977168 -10.0379100882402 12.8180365890021
endloop
endfacet
facet normal -1.89081938741135e-015 -0.999800059980012 -0.0199960011993452
outer loop
vertex 24.9604835977168 -12.0375102082005 12.7780445866033
vertex 21.9604835977158 -11.8375501962073 2.78004398680261
vertex 24.9604835977156 -11.8375501962068 2.78004398680238
endloop
endfacet
facet normal -1.89081938741135e-015 -0.999800059980012 -0.0199960011993452
outer loop
vertex 21.9604835977158 -11.8375501962073 2.78004398680261
vertex 24.9604835977168 -12.0375102082005 12.7780445866033
vertex 21.9604835977165 -11.9775222046025 9.77864440666355
endloop
endfacet
facet normal -1.89081938741135e-015 -0.999800059980012 -0.0199960011993452
outer loop
vertex 21.9604835977165 -11.9775222046025 9.77864440666355
vertex 24.9604835977168 -12.0375102082005 12.7780445866033
vertex -22.0395164022835 -11.9775222046025 9.77864440666729
endloop
endfacet
facet normal -1.89081938741135e-015 -0.999800059980012 -0.0199960011993452
outer loop
vertex -22.0395164022835 -11.9775222046025 9.77864440666729
vertex -25.0395164022841 -11.837550196207 2.78004398680763
vertex -22.0395164022841 -11.837550196207 2.78004398680737
endloop
endfacet
facet normal -1.89081938741135e-015 -0.999800059980012 -0.0199960011993452
outer loop
vertex -25.0395164022841 -11.837550196207 2.78004398680763
vertex -22.0395164022835 -11.9775222046025 9.77864440666729
vertex -25.0395164022832 -12.0375102082005 12.7780445866075
endloop
endfacet
facet normal -1.89081938741135e-015 -0.999800059980012 -0.0199960011993452
outer loop
vertex -25.0395164022832 -12.0375102082005 12.7780445866075
vertex -22.0395164022835 -11.9775222046025 9.77864440666729
vertex 24.9604835977168 -12.0375102082005 12.7780445866033
endloop
endfacet
facet normal -1.0 1.50368141801786e-016 8.64992735594978e-014
outer loop
vertex -2.03951640228321 -4.03910972835996 12.9380125962005
vertex -2.03951640228348 -9.97792208464257 9.8186364090643
vertex -2.03951640228322 -10.0379100882402 12.8180365890044
endloop
endfacet
facet normal -1.0 1.50368141801786e-016 8.64992735594978e-014
outer loop
vertex -2.03951640228348 -9.97792208464257 9.8186364090643
vertex -2.03951640228321 -4.03910972835996 12.9380125962005
vertex -2.03951640228347 -3.97912172476238 9.93861241626056
endloop
endfacet
facet normal -1.0 1.8796017724665e-016 8.4619671787236e-014
outer loop
vertex 3.96048359771678 -4.03910972835996 12.9380125961999
vertex 3.96048359771652 -9.97792208464257 9.81863640906379
vertex 3.96048359771677 -10.0379100882402 12.8180365890039
endloop
endfacet
facet normal -1.0 1.8796017724665e-016 8.4619671787236e-014
outer loop
vertex 3.96048359771652 -9.97792208464257 9.81863640906379
vertex 3.96048359771678 -4.03910972835996 12.9380125961999
vertex 3.96048359771653 -3.97912172476238 9.93861241626006
endloop
endfacet
facet normal -8.64639416962298e-014 0.0199960011993767 -0.999800059980012
outer loop
vertex -25.0395164022835 -3.97912172476238 9.93861241626253
vertex -22.0395164022835 -9.97792208464257 9.81863640906601
vertex -25.0395164022835 -9.97792208464257 9.81863640906627
endloop
endfacet
facet normal -8.64639416962298e-014 0.0199960011993767 -0.999800059980012
outer loop
vertex -22.0395164022835 -9.97792208464257 9.81863640906601
vertex -25.0395164022835 -3.97912172476238 9.93861241626253
vertex -22.0395164022835 -3.97912172476238 9.93861241626227
endloop
endfacet
facet normal 1.0 -1.50368141801613e-016 -8.64992735594907e-014
outer loop
vertex -22.0395164022839 -9.87491211809846 4.66813808180022
vertex -22.0395164022836 -3.93609976181633 7.78751426893666
vertex -22.0395164022837 -9.93490012169654 7.66753826174048
endloop
endfacet
facet normal 1.0 -1.50368141801613e-016 -8.64992735594907e-014
outer loop
vertex -22.0395164022836 -3.93609976181633 7.78751426893666
vertex -22.0395164022839 -9.87491211809846 4.66813808180022
vertex -22.0395164022839 -3.87611175821832 4.7881140889964
endloop
endfacet
facet normal 1.0 -1.50368141801787e-016 -8.64992735594978e-014
outer loop
vertex 18.9604835977165 -9.97792208464257 9.81863640906251
vertex 18.9604835977168 -4.03910972835996 12.9380125961987
vertex 18.9604835977168 -10.0379100882402 12.8180365890026
endloop
endfacet
facet normal 1.0 -1.50368141801787e-016 -8.64992735594978e-014
outer loop
vertex 18.9604835977168 -4.03910972835996 12.9380125961987
vertex 18.9604835977165 -9.97792208464257 9.81863640906251
vertex 18.9604835977165 -3.97912172476238 9.93861241625878
endloop
endfacet
facet normal -1.72854529975462e-015 -0.999800059980015 -0.0199960011992074
outer loop
vertex -11.0395164022832 -10.0379100882402 12.8180365890052
vertex -14.0395164022835 -9.97792208464257 9.81863640906533
vertex -11.0395164022835 -9.97792208464257 9.81863640906507
endloop
endfacet
facet normal -1.72854529975462e-015 -0.999800059980015 -0.0199960011992074
outer loop
vertex -14.0395164022835 -9.97792208464257 9.81863640906533
vertex -11.0395164022832 -10.0379100882402 12.8180365890052
vertex -14.0395164022832 -10.0379100882402 12.8180365890054
endloop
endfacet
facet normal 1.0 -6.12779497241573e-014 -1.15636320685171e-013
outer loop
vertex 24.9604835977159 -0.83974953642691 2.99999999999596
vertex 24.9604835977152 -3.81521030006848 4.78933211815905
vertex 24.9604835977159 -3.83914971636686 2.94001199639834
endloop
endfacet
facet normal 1.0 -6.12779497241573e-014 -1.15636320685171e-013
outer loop
vertex 24.9604835977152 -3.81521030006848 4.78933211815905
vertex 24.9604835977159 -0.83974953642691 2.99999999999596
vertex 24.9604835977168 -1.0397095484201 12.9980005997964
endloop
endfacet
facet normal 1.0 -6.12779497241573e-014 -1.15636320685171e-013
outer loop
vertex 24.9604835977152 -3.81521030006848 4.78933211815905
vertex 24.9604835977168 -3.83914971636499 9.9380125961981
vertex 24.9604835977158 -3.83914971636605 5.98630293305382
endloop
endfacet
facet normal 1.0 -6.12779497241573e-014 -1.15636320685171e-013
outer loop
vertex 24.9604835977168 -3.83914971636499 9.9380125961981
vertex 24.9604835977152 -3.81521030006848 4.78933211815905
vertex 24.9604835977168 -3.8391497163642 12.9380125961981
endloop
endfacet
facet normal 1.0 -6.12779497241573e-014 -1.15636320685171e-013
outer loop
vertex 24.9604835977168 -3.8391497163642 12.9380125961981
vertex 24.9604835977152 -3.81521030006848 4.78933211815905
vertex 24.9604835977168 -1.0397095484201 12.9980005997964
endloop
endfacet
facet normal -8.81147821050168e-014 0.999800059980013 0.0199960011992971
outer loop
vertex 21.9604835977165 -9.97792208464257 9.81863640906225
vertex 24.9604835977168 -10.0379100882402 12.8180365890021
vertex 24.9604835977164 -9.97792208464203 9.81863640906188
endloop
endfacet
facet normal -8.81147821050168e-014 0.999800059980013 0.0199960011992971
outer loop
vertex 24.9604835977168 -10.0379100882402 12.8180365890021
vertex 21.9604835977165 -9.97792208464257 9.81863640906225
vertex 21.9604835977168 -10.0379100882402 12.8180365890024
endloop
endfacet
facet normal 1.70508352009703e-015 0.999800059980013 0.0199960011993186
outer loop
vertex -25.0395164022841 -0.83974953642691 3.00000000000022
vertex 24.9604835977168 -1.0397095484201 12.9980005997964
vertex 24.9604835977159 -0.83974953642691 2.99999999999596
endloop
endfacet
facet normal 1.70508352009703e-015 0.999800059980013 0.0199960011993186
outer loop
vertex 24.9604835977168 -1.0397095484201 12.9980005997964
vertex -25.0395164022841 -0.83974953642691 3.00000000000022
vertex -25.0395164022832 -1.0397095484201 12.9980005998006
endloop
endfacet
facet normal 1.72893382420879e-015 0.999800059980015 0.0199960011992074
outer loop
vertex -5.03951640228348 -9.97792208464257 9.81863640906456
vertex -2.03951640228322 -10.0379100882402 12.8180365890044
vertex -2.03951640228348 -9.97792208464257 9.8186364090643
endloop
endfacet
facet normal 1.72893382420879e-015 0.999800059980015 0.0199960011992074
outer loop
vertex -2.03951640228322 -10.0379100882402 12.8180365890044
vertex -5.03951640228348 -9.97792208464257 9.81863640906456
vertex -5.03951640228322 -10.0379100882402 12.8180365890047
endloop
endfacet
facet normal 1.72737972638854e-015 0.999800059980015 0.0199960011992074
outer loop
vertex 12.9604835977165 -9.97792208464257 9.81863640906303
vertex 15.9604835977168 -10.0379100882402 12.8180365890029
vertex 15.9604835977165 -9.97792208464257 9.81863640906277
endloop
endfacet
facet normal 1.72737972638854e-015 0.999800059980015 0.0199960011992074
outer loop
vertex 15.9604835977168 -10.0379100882402 12.8180365890029
vertex 12.9604835977165 -9.97792208464257 9.81863640906303
vertex 12.9604835977168 -10.0379100882402 12.8180365890031
endloop
endfacet
facet normal -3.76247082186422e-016 0.0199960011993091 -0.999800059980013
outer loop
vertex 24.9604835977152 -3.81521030006848 4.78933211815905
vertex 21.960483597716 -9.87491211809858 4.66813808180022
vertex 21.9604835977154 -3.81521030006881 4.78933211815904
endloop
endfacet
facet normal -3.76247082186422e-016 0.0199960011993091 -0.999800059980013
outer loop
vertex 21.960483597716 -9.87491211809858 4.66813808180022
vertex 24.9604835977152 -3.81521030006848 4.78933211815905
vertex 24.9604835977158 -9.87491211809824 4.66813808180022
endloop
endfacet
facet normal 1.69085842763107e-015 0.999800059980015 0.0199960011992073
outer loop
vertex 6.96048359771652 -9.97792208464257 9.81863640906353
vertex 9.96048359771677 -10.0379100882402 12.8180365890034
vertex 9.96048359771652 -9.97792208464257 9.81863640906328
endloop
endfacet
facet normal 1.69085842763107e-015 0.999800059980015 0.0199960011992073
outer loop
vertex 9.96048359771677 -10.0379100882402 12.8180365890034
vertex 6.96048359771652 -9.97792208464257 9.81863640906353
vertex 6.96048359771678 -10.0379100882402 12.8180365890037
endloop
endfacet
facet normal -8.52586786625354e-014 0.0199960011992047 -0.999800059980015
outer loop
vertex -25.0395164022841 -0.83974953642691 3.00000000000022
vertex 24.9604835977159 -3.83914971636686 2.94001199639834
vertex -25.0395164022841 -3.83914971636686 2.94001199640261
endloop
endfacet
facet normal -8.52586786625354e-014 0.0199960011992047 -0.999800059980015
outer loop
vertex 24.9604835977159 -3.83914971636686 2.94001199639834
vertex -25.0395164022841 -0.83974953642691 3.00000000000022
vertex 24.9604835977159 -0.83974953642691 2.99999999999596
endloop
endfacet
facet normal 1.0 -1.50368141801786e-016 -8.64992735594978e-014
outer loop
vertex 6.96048359771652 -9.97792208464257 9.81863640906353
vertex 6.96048359771679 -4.03910972835996 12.9380125961997
vertex 6.96048359771678 -10.0379100882402 12.8180365890037
endloop
endfacet
facet normal 1.0 -1.50368141801786e-016 -8.64992735594978e-014
outer loop
vertex 6.96048359771679 -4.03910972835996 12.9380125961997
vertex 6.96048359771652 -9.97792208464257 9.81863640906353
vertex 6.96048359771653 -3.97912172476238 9.9386124162598
endloop
endfacet
facet normal 1.69202400099535e-015 0.999800059980015 0.0199960011992073
outer loop
vertex 9.96048359771652 -9.97792208464257 9.81863640906328
vertex 12.9604835977168 -10.0379100882402 12.8180365890031
vertex 12.9604835977165 -9.97792208464257 9.81863640906303
endloop
endfacet
facet normal 1.69202400099535e-015 0.999800059980015 0.0199960011992073
outer loop
vertex 12.9604835977168 -10.0379100882402 12.8180365890031
vertex 9.96048359771652 -9.97792208464257 9.81863640906328
vertex 9.96048359771677 -10.0379100882402 12.8180365890034
endloop
endfacet
facet normal -8.64623875984143e-014 0.0199960011993767 -0.999800059980012
outer loop
vertex 3.96048359771653 -3.97912172476238 9.93861241626006
vertex 6.96048359771652 -9.97792208464257 9.81863640906353
vertex 3.96048359771652 -9.97792208464257 9.81863640906379
endloop
endfacet
facet normal -8.64623875984143e-014 0.0199960011993767 -0.999800059980012
outer loop
vertex 6.96048359771652 -9.97792208464257 9.81863640906353
vertex 3.96048359771653 -3.97912172476238 9.93861241626006
vertex 6.96048359771653 -3.97912172476238 9.9386124162598
endloop
endfacet
facet normal 7.99634337535535e-016 1.0 -2.66325319115668e-013
outer loop
vertex -30.0 35.0000000000008 2.99999999999068
vertex -27.0 35.0 -9.31716925833825e-012
vertex -30.0 35.0000000000001 -9.31716925833825e-012
endloop
endfacet
facet normal 7.99634337535535e-016 1.0 -2.66325319115668e-013
outer loop
vertex -27.0 35.0 -9.31716925833825e-012
vertex -30.0 35.0000000000008 2.99999999999068
vertex -10.002865115472 35.0 -9.31716925833825e-012
endloop
endfacet
facet normal 7.99634337535535e-016 1.0 -2.66325319115668e-013
outer loop
vertex -10.002865115472 35.0 -9.31716925833825e-012
vertex -30.0 35.0000000000008 2.99999999999068
vertex -10.002865115472 35.0000000000008 2.99999999999068
endloop
endfacet
facet normal 1.73033251223662e-015 0.999800059980012 0.0199960011993774
outer loop
vertex -25.0395164022837 -9.93490012169654 7.66753826174074
vertex -22.0395164022835 -9.97792208464257 9.81863640906601
vertex -22.0395164022837 -9.93490012169654 7.66753826174048
endloop
endfacet
facet normal 1.73033251223662e-015 0.999800059980012 0.0199960011993774
outer loop
vertex -22.0395164022835 -9.97792208464257 9.81863640906601
vertex -25.0395164022837 -9.93490012169654 7.66753826174074
vertex -25.0395164022835 -9.97792208464257 9.81863640906627
endloop
endfacet
facet normal -8.64678981734406e-014 0.0199960011993767 -0.999800059980012
outer loop
vertex -14.0395164022835 -3.97912172476238 9.93861241626159
vertex -11.0395164022835 -9.97792208464257 9.81863640906507
vertex -14.0395164022835 -9.97792208464257 9.81863640906533
endloop
endfacet
facet normal -8.64678981734406e-014 0.0199960011993767 -0.999800059980012
outer loop
vertex -11.0395164022835 -9.97792208464257 9.81863640906507
vertex -14.0395164022835 -3.97912172476238 9.93861241626159
vertex -12.9534514846747 -3.9791217247622 9.9386124162615
endloop
endfacet
facet normal -8.64678981734406e-014 0.0199960011993767 -0.999800059980012
outer loop
vertex -11.0395164022835 -9.97792208464257 9.81863640906507
vertex -12.9534514846747 -3.9791217247622 9.9386124162615
vertex -11.0395164022835 -3.97912172476238 9.93861241626133
endloop
endfacet
facet normal -8.45838718590777e-014 0.0199960011993776 -0.999800059980012
outer loop
vertex -2.03951640228347 -3.97912172476238 9.93861241626056
vertex 0.960483597716512 -9.97792208464257 9.81863640906404
vertex -2.03951640228348 -9.97792208464257 9.8186364090643
endloop
endfacet
facet normal -8.45838718590777e-014 0.0199960011993776 -0.999800059980012
outer loop
vertex 0.960483597716512 -9.97792208464257 9.81863640906404
vertex -2.03951640228347 -3.97912172476238 9.93861241626056
vertex 0.960483597716524 -3.97912172476238 9.93861241626032
endloop
endfacet
facet normal -1.0 -3.0073628354131e-016 8.55500746645057e-014
outer loop
vertex 9.96048359771678 -4.03910972835996 12.9380125961994
vertex 9.96048359771652 -9.97792208464257 9.81863640906328
vertex 9.96048359771677 -10.0379100882402 12.8180365890034
endloop
endfacet
facet normal -1.0 -3.0073628354131e-016 8.55500746645057e-014
outer loop
vertex 9.96048359771652 -9.97792208464257 9.81863640906328
vertex 9.96048359771678 -4.03910972835996 12.9380125961994
vertex 9.96048359771652 -3.97912172476238 9.93861241625955
endloop
endfacet
facet normal -8.64622321886318e-014 0.0199960011993637 -0.999800059980012
outer loop
vertex -22.0395164022839 -3.87611175821832 4.7881140889964
vertex -25.0395164022839 -9.87491211809846 4.66813808180048
vertex -25.0395164022839 -3.87611175821832 4.78811408899666
endloop
endfacet
facet normal -8.64622321886318e-014 0.0199960011993637 -0.999800059980012
outer loop
vertex -25.0395164022839 -9.87491211809846 4.66813808180048
vertex -22.0395164022839 -3.87611175821832 4.7881140889964
vertex -22.0395164022839 -9.87491211809846 4.66813808180022
endloop
endfacet
facet normal -1.0 3.88458118476235e-016 8.62850046618015e-014
outer loop
vertex -14.0395164022832 -4.03910972835996 12.9380125962015
vertex -14.0395164022835 -9.97792208464257 9.81863640906533
vertex -14.0395164022832 -10.0379100882402 12.8180365890054
endloop
endfacet
facet normal -1.0 3.88458118476235e-016 8.62850046618015e-014
outer loop
vertex -14.0395164022835 -9.97792208464257 9.81863640906533
vertex -14.0395164022832 -4.03910972835996 12.9380125962015
vertex -14.0395164022835 -3.97912172476238 9.93861241626159
endloop
endfacet
facet normal -1.0 3.88458118476235e-016 8.62850046618015e-014
outer loop
vertex -14.0395164022835 -3.97912172476238 9.93861241626159
vertex -14.0395164022832 -4.03910972835996 12.9380125962015
vertex -14.0395164022834 -3.99506637260766 10.7358448085479
endloop
endfacet
facet normal -1.69280104990725e-015 -0.999800059980015 -0.0199960011992073
outer loop
vertex -17.0395164022832 -10.0379100882402 12.8180365890057
vertex -20.0395164022835 -9.97792208464257 9.81863640906584
vertex -17.0395164022835 -9.97792208464257 9.81863640906558
endloop
endfacet
facet normal -1.69280104990725e-015 -0.999800059980015 -0.0199960011992073
outer loop
vertex -20.0395164022835 -9.97792208464257 9.81863640906584
vertex -17.0395164022832 -10.0379100882402 12.8180365890057
vertex -20.0395164022833 -10.0379100882402 12.818036589006
endloop
endfacet
facet normal -1.0 1.50368141801787e-016 8.64992735594978e-014
outer loop
vertex 21.9604835977168 -4.03910972835996 12.9380125961984
vertex 21.9604835977165 -9.97792208464257 9.81863640906225
vertex 21.9604835977168 -10.0379100882402 12.8180365890024
endloop
endfacet
facet normal -1.0 1.50368141801787e-016 8.64992735594978e-014
outer loop
vertex 21.9604835977165 -9.97792208464257 9.81863640906225
vertex 21.9604835977168 -4.03910972835996 12.9380125961984
vertex 21.9604835977165 -3.97912172476238 9.93861241625852
endloop
endfacet
facet normal 1.69217941077952e-015 0.999800059980015 0.0199960011992073
outer loop
vertex -17.0395164022835 -9.97792208464257 9.81863640906558
vertex -14.0395164022832 -10.0379100882402 12.8180365890054
vertex -14.0395164022835 -9.97792208464257 9.81863640906533
endloop
endfacet
facet normal 1.69217941077952e-015 0.999800059980015 0.0199960011992073
outer loop
vertex -14.0395164022832 -10.0379100882402 12.8180365890054
vertex -17.0395164022835 -9.97792208464257 9.81863640906558
vertex -17.0395164022832 -10.0379100882402 12.8180365890057
endloop
endfacet
facet normal -8.45834833346185e-014 0.0199960011993776 -0.999800059980012
outer loop
vertex -20.0395164022835 -3.97912172476238 9.9386124162621
vertex -17.0395164022835 -9.97792208464257 9.81863640906558
vertex -20.0395164022835 -9.97792208464257 9.81863640906584
endloop
endfacet
facet normal -8.45834833346185e-014 0.0199960011993776 -0.999800059980012
outer loop
vertex -17.0395164022835 -9.97792208464257 9.81863640906558
vertex -20.0395164022835 -3.97912172476238 9.9386124162621
vertex -17.0395164022835 -3.97912172476238 9.93861241626185
endloop
endfacet
facet normal -1.6916354765412e-015 -0.999800059980015 -0.0199960011992073
outer loop
vertex -5.03951640228322 -10.0379100882402 12.8180365890047
vertex -8.03951640228347 -9.97792208464257 9.81863640906481
vertex -5.03951640228348 -9.97792208464257 9.81863640906456
endloop
endfacet
facet normal -1.6916354765412e-015 -0.999800059980015 -0.0199960011992073
outer loop
vertex -8.03951640228347 -9.97792208464257 9.81863640906481
vertex -5.03951640228322 -10.0379100882402 12.8180365890047
vertex -8.03951640228321 -10.0379100882402 12.8180365890049
endloop
endfacet
facet normal -1.0 1.50368141801787e-016 8.64992735594978e-014
outer loop
vertex -8.0395164022832 -4.03910972835996 12.938012596201
vertex -8.03951640228347 -9.97792208464257 9.81863640906481
vertex -8.03951640228321 -10.0379100882402 12.8180365890049
endloop
endfacet
facet normal -1.0 1.50368141801787e-016 8.64992735594978e-014
outer loop
vertex -8.03951640228347 -9.97792208464257 9.81863640906481
vertex -8.0395164022832 -4.03910972835996 12.938012596201
vertex -8.03951640228346 -3.97912172476238 9.93861241626108
endloop
endfacet
facet normal 1.73017710246436e-015 0.999800059980015 0.0199960011992073
outer loop
vertex 18.9604835977165 -9.97792208464257 9.81863640906251
vertex 21.9604835977168 -10.0379100882402 12.8180365890024
vertex 21.9604835977165 -9.97792208464257 9.81863640906225
endloop
endfacet
facet normal 1.73017710246436e-015 0.999800059980015 0.0199960011992073
outer loop
vertex 21.9604835977168 -10.0379100882402 12.8180365890024
vertex 18.9604835977165 -9.97792208464257 9.81863640906251
vertex 18.9604835977168 -10.0379100882402 12.8180365890026
endloop
endfacet
facet normal -8.45829394003856e-014 0.0199960011993776 -0.999800059980012
outer loop
vertex 15.9604835977165 -3.97912172476238 9.93861241625903
vertex 18.9604835977165 -9.97792208464257 9.81863640906251
vertex 15.9604835977165 -9.97792208464257 9.81863640906277
endloop
endfacet
facet normal -8.45829394003856e-014 0.0199960011993776 -0.999800059980012
outer loop
vertex 18.9604835977165 -9.97792208464257 9.81863640906251
vertex 15.9604835977165 -3.97912172476238 9.93861241625903
vertex 18.9604835977165 -3.97912172476238 9.93861241625878
endloop
endfacet
facet normal -1.04806589161683e-013 0.0199960011993225 -0.999800059980013
outer loop
vertex 21.9604835977158 -9.83795007624732 2.82003598920133
vertex 24.9604835977156 -11.8375501962068 2.78004398680238
vertex 21.9604835977158 -11.8375501962073 2.78004398680261
endloop
endfacet
facet normal -1.04806589161683e-013 0.0199960011993225 -0.999800059980013
outer loop
vertex 24.9604835977156 -11.8375501962068 2.78004398680238
vertex 21.9604835977158 -9.83795007624732 2.82003598920133
vertex 24.9604835977156 -9.83795007624675 2.82003598920095
endloop
endfacet
facet normal 1.0 -3.06423506765746e-014 -6.23577189386831e-014
outer loop
vertex 24.9604835977164 -9.97792208464203 9.81863640906188
vertex 24.9604835977168 -3.8391497163642 12.9380125961981
vertex 24.9604835977168 -10.0379100882402 12.8180365890021
endloop
endfacet
facet normal 1.0 -3.06423506765746e-014 -6.23577189386831e-014
outer loop
vertex 24.9604835977168 -3.8391497163642 12.9380125961981
vertex 24.9604835977164 -9.97792208464203 9.81863640906188
vertex 24.9604835977168 -3.83914971636499 9.9380125961981
endloop
endfacet
facet normal -1.49127613483105e-013 0.999800059980014 0.0199960011992704
outer loop
vertex 21.9604835977158 -9.83795007624732 2.82003598920133
vertex 24.9604835977158 -9.87491211809824 4.66813808180022
vertex 24.9604835977156 -9.83795007624675 2.82003598920095
endloop
endfacet
facet normal -1.49127613483105e-013 0.999800059980014 0.0199960011992704
outer loop
vertex 24.9604835977158 -9.87491211809824 4.66813808180022
vertex 21.9604835977158 -9.83795007624732 2.82003598920133
vertex 21.960483597716 -9.87491211809858 4.66813808180022
endloop
endfacet
facet normal -1.0 -7.58914510392875e-014 1.05497547866756e-013
outer loop
vertex 21.9604835977157 -3.87519830366669 7.78873229809931
vertex 21.960483597716 -9.87491211809858 4.66813808180022
vertex 21.9604835977163 -9.93490012169643 7.66753826174047
endloop
endfacet
facet normal -1.0 -7.58914510392875e-014 1.05497547866756e-013
outer loop
vertex 21.960483597716 -9.87491211809858 4.66813808180022
vertex 21.9604835977157 -3.87519830366669 7.78873229809931
vertex 21.9604835977154 -3.81521030006881 4.78933211815904
endloop
endfacet
facet normal -1.0 -7.58914510392875e-014 1.05497547866756e-013
outer loop
vertex 21.9604835977165 -9.97792208464257 9.81863640906225
vertex 21.9604835977158 -11.8375501962073 2.78004398680261
vertex 21.9604835977165 -11.9775222046025 9.77864440666355
endloop
endfacet
facet normal -1.0 -7.58914510392875e-014 1.05497547866756e-013
outer loop
vertex 21.9604835977158 -11.8375501962073 2.78004398680261
vertex 21.9604835977165 -9.97792208464257 9.81863640906225
vertex 21.9604835977158 -9.83795007624732 2.82003598920133
endloop
endfacet
facet normal -1.0 -7.58914510392875e-014 1.05497547866756e-013
outer loop
vertex 21.9604835977158 -9.83795007624732 2.82003598920133
vertex 21.9604835977165 -9.97792208464257 9.81863640906225
vertex 21.9604835977163 -9.93490012169643 7.66753826174047
endloop
endfacet
facet normal -1.0 -7.58914510392875e-014 1.05497547866756e-013
outer loop
vertex 21.9604835977158 -9.83795007624732 2.82003598920133
vertex 21.9604835977163 -9.93490012169643 7.66753826174047
vertex 21.960483597716 -9.87491211809858 4.66813808180022
endloop
endfacet
facet normal -1.64479090831233e-013 0.999800059980018 0.0199960011990388
outer loop
vertex -14.0395164022834 -3.99506637260766 10.7358448085479
vertex -12.9534514846747 -3.9791217247622 9.9386124162615
vertex -14.0395164022835 -3.97912172476238 9.93861241626159
endloop
endfacet
facet normal 1.0 -1.50368141801866e-016 -8.6499273559498e-014
outer loop
vertex -5.03951640228348 -9.97792208464257 9.81863640906456
vertex -5.03951640228321 -4.03910972835996 12.9380125962007
vertex -5.03951640228322 -10.0379100882402 12.8180365890047
endloop
endfacet
facet normal 1.0 -1.50368141801866e-016 -8.6499273559498e-014
outer loop
vertex -5.03951640228321 -4.03910972835996 12.9380125962007
vertex -5.03951640228348 -9.97792208464257 9.81863640906456
vertex -5.03951640228347 -3.97912172476238 9.93861241626082
endloop
endfacet
facet normal -9.53712071085799e-031 1.0 -2.70716782324599e-013
outer loop
vertex -0.00286511547201709 35.0000000000008 2.99999999999068
vertex 27.0 35.0 -9.31716925833825e-012
vertex -0.00286511547201709 35.0 -9.31716925833825e-012
endloop
endfacet
facet normal -9.53712071085799e-031 1.0 -2.70716782324599e-013
outer loop
vertex 27.0 35.0 -9.31716925833825e-012
vertex -0.00286511547201709 35.0000000000008 2.99999999999068
vertex 30.0 35.0 -9.31716925833825e-012
endloop
endfacet
facet normal -9.53712071085799e-031 1.0 -2.70716782324599e-013
outer loop
vertex 30.0 35.0 -9.31716925833825e-012
vertex -0.00286511547201709 35.0000000000008 2.99999999999068
vertex 30.0 35.0000000000008 2.99999999999068
endloop
endfacet
facet normal 1.0 3.00736283541232e-016 -8.55500746645058e-014
outer loop
vertex 12.9604835977165 -9.97792208464257 9.81863640906303
vertex 12.9604835977168 -4.03910972835996 12.9380125961992
vertex 12.9604835977168 -10.0379100882402 12.8180365890031
endloop
endfacet
facet normal 1.0 3.00736283541232e-016 -8.55500746645058e-014
outer loop
vertex 12.9604835977168 -4.03910972835996 12.9380125961992
vertex 12.9604835977165 -9.97792208464257 9.81863640906303
vertex 12.9604835977165 -3.97912172476238 9.93861241625929
endloop
endfacet
facet normal -1.0 -3.00736283541311e-016 8.55500746645057e-014
outer loop
vertex 15.9604835977168 -4.03910972835996 12.9380125961989
vertex 15.9604835977165 -9.97792208464257 9.81863640906277
vertex 15.9604835977168 -10.0379100882402 12.8180365890029
endloop
endfacet
facet normal -1.0 -3.00736283541311e-016 8.55500746645057e-014
outer loop
vertex 15.9604835977165 -9.97792208464257 9.81863640906277
vertex 15.9604835977168 -4.03910972835996 12.9380125961989
vertex 15.9604835977165 -3.97912172476238 9.93861241625903
endloop
endfacet
facet normal -1.69245137789605e-015 -0.999800059980015 -0.0199960011992073
outer loop
vertex 18.9604835977168 -10.0379100882402 12.8180365890026
vertex 15.9604835977165 -9.97792208464257 9.81863640906277
vertex 18.9604835977165 -9.97792208464257 9.81863640906251
endloop
endfacet
facet normal -1.69245137789605e-015 -0.999800059980015 -0.0199960011992073
outer loop
vertex 15.9604835977165 -9.97792208464257 9.81863640906277
vertex 18.9604835977168 -10.0379100882402 12.8180365890026
vertex 15.9604835977168 -10.0379100882402 12.8180365890029
endloop
endfacet
facet normal -1.0 2.32731309229498e-015 8.46222612623598e-014
outer loop
vertex -25.0395164022832 -3.8391497163642 12.9420117964424
vertex -25.0395164022841 -0.83974953642691 3.00000000000022
vertex -25.0395164022841 -3.83914971636686 2.94001199640261
endloop
endfacet
facet normal -1.0 2.32731309229498e-015 8.46222612623598e-014
outer loop
vertex -25.0395164022841 -0.83974953642691 3.00000000000022
vertex -25.0395164022832 -3.8391497163642 12.9420117964424
vertex -25.0395164022832 -1.0397095484201 12.9980005998006
endloop
endfacet
facet normal 1.72924464376158e-015 0.999800059980011 0.0199960011993957
outer loop
vertex -25.0395164022841 -9.83795007624696 2.82003598920621
vertex -22.0395164022839 -9.87491211809846 4.66813808180022
vertex -22.0395164022841 -9.83795007624696 2.82003598920595
endloop
endfacet
facet normal 1.72924464376158e-015 0.999800059980011 0.0199960011993957
outer loop
vertex -22.0395164022839 -9.87491211809846 4.66813808180022
vertex -25.0395164022841 -9.83795007624696 2.82003598920621
vertex -25.0395164022839 -9.87491211809846 4.66813808180048
endloop
endfacet
facet normal 0.0 -1.0 2.70716782324603e-013
outer loop
vertex 20.0486875893574 -10.0055898459546 3.00000000000267
vertex -19.9513124106426 -10.0055898459554 2.71844768917617e-012
vertex 20.0486875893574 -10.0055898459554 2.71844768917617e-012
endloop
endfacet
facet normal 0.0 -1.0 2.70716782324603e-013
outer loop
vertex -19.9513124106426 -10.0055898459554 2.71844768917617e-012
vertex 20.0486875893574 -10.0055898459546 3.00000000000267
vertex -19.9513124106426 -10.0055898459546 3.00000000000267
endloop
endfacet
facet normal 3.54867994499585e-018 -2.66370381787852e-013 -1.0
outer loop
vertex 27.0 35.0 -9.31716925833825e-012
vertex -0.00286511547201709 20.0 -5.32409671905043e-012
vertex -0.00286511547201709 35.0 -9.31716925833825e-012
endloop
endfacet
facet normal 3.54867994499585e-018 -2.66370381787852e-013 -1.0
outer loop
vertex -0.00286511547201709 20.0 -5.32409671905043e-012
vertex 27.0 35.0 -9.31716925833825e-012
vertex 20.0486875893574 -10.0055898459554 2.71844768917617e-012
endloop
endfacet
facet normal 3.54867994499585e-018 -2.66370381787852e-013 -1.0
outer loop
vertex 20.0486875893574 -10.0055898459554 2.71844768917617e-012
vertex 27.0 35.0 -9.31716925833825e-012
vertex 20.0486875893574 -30.0055898459554 7.92974574892469e-012
endloop
endfacet
facet normal 3.54867994499585e-018 -2.66370381787852e-013 -1.0
outer loop
vertex -27.0 -35.0 9.32844912426845e-012
vertex -19.9513124106426 -30.0055898459554 7.92974574892469e-012
vertex 27.0 -35.0 9.32844912426845e-012
endloop
endfacet
facet normal 3.54867994499585e-018 -2.66370381787852e-013 -1.0
outer loop
vertex -19.9513124106426 -30.0055898459554 7.92974574892469e-012
vertex -27.0 -35.0 9.32844912426845e-012
vertex -19.9513124106426 -10.0055898459554 2.71844768917617e-012
endloop
endfacet
facet normal 3.54867994499585e-018 -2.66370381787852e-013 -1.0
outer loop
vertex 27.0 -35.0 9.32844912426845e-012
vertex -19.9513124106426 -30.0055898459554 7.92974574892469e-012
vertex 20.0486875893574 -30.0055898459554 7.92974574892469e-012
endloop
endfacet
facet normal 3.54867994499585e-018 -2.66370381787852e-013 -1.0
outer loop
vertex 27.0 -35.0 9.32844912426845e-012
vertex 20.0486875893574 -30.0055898459554 7.92974574892469e-012
vertex 27.0 35.0 -9.31716925833825e-012
endloop
endfacet
facet normal 3.54867994499585e-018 -2.66370381787852e-013 -1.0
outer loop
vertex -10.002865115472 35.0 -9.31716925833825e-012
vertex -27.0 -35.0 9.32844912426845e-012
vertex -27.0 35.0 -9.31716925833825e-012
endloop
endfacet
facet normal 3.54867994499585e-018 -2.66370381787852e-013 -1.0
outer loop
vertex -27.0 -35.0 9.32844912426845e-012
vertex -10.002865115472 35.0 -9.31716925833825e-012
vertex -19.9513124106426 -10.0055898459554 2.71844768917617e-012
endloop
endfacet
facet normal 3.54867994499585e-018 -2.66370381787852e-013 -1.0
outer loop
vertex -19.9513124106426 -10.0055898459554 2.71844768917617e-012
vertex -10.002865115472 35.0 -9.31716925833825e-012
vertex -10.002865115472 20.0 -5.32409671905043e-012
endloop
endfacet
facet normal 3.54867994499585e-018 -2.66370381787852e-013 -1.0
outer loop
vertex -19.9513124106426 -10.0055898459554 2.71844768917617e-012
vertex -10.002865115472 20.0 -5.32409671905043e-012
vertex 20.0486875893574 -10.0055898459554 2.71844768917617e-012
endloop
endfacet
facet normal 3.54867994499585e-018 -2.66370381787852e-013 -1.0
outer loop
vertex 20.0486875893574 -10.0055898459554 2.71844768917617e-012
vertex -10.002865115472 20.0 -5.32409671905043e-012
vertex -0.00286511547201709 20.0 -5.32409671905043e-012
endloop
endfacet
facet normal -8.64612608774947e-014 0.019996001199288 -0.999800059980013
outer loop
vertex -22.0395164022841 -9.83795007624696 2.82003598920595
vertex -25.0395164022841 -11.837550196207 2.78004398680763
vertex -25.0395164022841 -9.83795007624696 2.82003598920621
endloop
endfacet
facet normal -8.64612608774947e-014 0.019996001199288 -0.999800059980013
outer loop
vertex -25.0395164022841 -11.837550196207 2.78004398680763
vertex -22.0395164022841 -9.83795007624696 2.82003598920595
vertex -22.0395164022841 -11.837550196207 2.78004398680737
endloop
endfacet
facet normal -1.0 -4.10803546633214e-015 8.53972872495888e-014
outer loop
vertex -25.0395164022832 -10.0379100882402 12.8180365890064
vertex -25.0395164022841 -11.837550196207 2.78004398680763
vertex -25.0395164022832 -12.0375102082005 12.7780445866075
endloop
endfacet
facet normal -1.0 -4.10803546633214e-015 8.53972872495888e-014
outer loop
vertex -25.0395164022841 -11.837550196207 2.78004398680763
vertex -25.0395164022832 -10.0379100882402 12.8180365890064
vertex -25.0395164022835 -9.97792208464257 9.81863640906627
endloop
endfacet
facet normal -1.0 -4.10803546633214e-015 8.53972872495888e-014
outer loop
vertex -25.0395164022841 -11.837550196207 2.78004398680763
vertex -25.0395164022835 -9.97792208464257 9.81863640906627
vertex -25.0395164022839 -9.87491211809846 4.66813808180048
endloop
endfacet
facet normal -1.0 -4.10803546633214e-015 8.53972872495888e-014
outer loop
vertex -25.0395164022841 -11.837550196207 2.78004398680763
vertex -25.0395164022839 -9.87491211809846 4.66813808180048
vertex -25.0395164022841 -9.83795007624696 2.82003598920621
endloop
endfacet
facet normal -1.0 -4.10803546633214e-015 8.53972872495888e-014
outer loop
vertex -25.0395164022839 -9.87491211809846 4.66813808180048
vertex -25.0395164022835 -9.97792208464257 9.81863640906627
vertex -25.0395164022837 -9.93490012169654 7.66753826174074
endloop
endfacet
facet normal -0.000559826563103705 0.019712912599193 -0.99980552492526
outer loop
vertex 21.9604835977165 -3.97912172476238 9.93861241625852
vertex 24.9604835977164 -9.97792208464203 9.81863640906188
vertex 21.9604835977165 -9.97792208464257 9.81863640906225
endloop
endfacet
facet normal -0.000559826563103705 0.019712912599193 -0.99980552492526
outer loop
vertex 24.9604835977164 -9.97792208464203 9.81863640906188
vertex 21.9604835977165 -3.97912172476238 9.93861241625852
vertex 24.9604835977168 -3.83914971636499 9.9380125961981
endloop
endfacet
facet normal 0.0 1.0 -2.70716782324599e-013
outer loop
vertex -10.002865115472 20.0000000000008 2.99999999999467
vertex -0.00286511547201709 20.0 -5.32409671905043e-012
vertex -10.002865115472 20.0 -5.32409671905043e-012
endloop
endfacet
facet normal 0.0 1.0 -2.70716782324599e-013
outer loop
vertex -0.00286511547201709 20.0 -5.32409671905043e-012
vertex -10.002865115472 20.0000000000008 2.99999999999467
vertex -0.00286511547201709 20.0000000000008 2.99999999999467
endloop
endfacet
facet normal 8.64639416962296e-014 -0.0199960011993616 0.999800059980012
outer loop
vertex -22.0395164022837 -9.93490012169654 7.66753826174048
vertex -25.0395164022837 -3.93609976181633 7.78751426893691
vertex -25.0395164022837 -9.93490012169654 7.66753826174074
endloop
endfacet
facet normal 8.64639416962296e-014 -0.0199960011993616 0.999800059980012
outer loop
vertex -25.0395164022837 -3.93609976181633 7.78751426893691
vertex -22.0395164022837 -9.93490012169654 7.66753826174048
vertex -22.0395164022836 -3.93609976181633 7.78751426893666
endloop
endfacet
facet normal 0.0 1.0 -2.63196871704465e-013
outer loop
vertex -19.9513124106426 -30.0055898459546 3.00000000000799
vertex 20.0486875893574 -30.0055898459554 7.92974574892469e-012
vertex -19.9513124106426 -30.0055898459554 7.92974574892469e-012
endloop
endfacet
facet normal 0.0 1.0 -2.63196871704465e-013
outer loop
vertex 20.0486875893574 -30.0055898459554 7.92974574892469e-012
vertex -19.9513124106426 -30.0055898459546 3.00000000000799
vertex 20.0486875893574 -30.0055898459546 3.00000000000799
endloop
endfacet
facet normal -1.0 0.0 0.0
outer loop
vertex -30.0 -34.9999999999992 3.00000000000932
vertex -30.0 35.0000000000001 -9.31716925833825e-012
vertex -30.0 -35.0 9.32844912426845e-012
endloop
endfacet
facet normal -1.0 0.0 0.0
outer loop
vertex -30.0 35.0000000000001 -9.31716925833825e-012
vertex -30.0 -34.9999999999992 3.00000000000932
vertex -30.0 35.0000000000008 2.99999999999068
endloop
endfacet
facet normal 8.52018335387106e-014 -0.0199960011994223 0.999800059980011
outer loop
vertex 24.9604835977168 -12.0375102082005 12.7780445866033
vertex -25.0395164022832 -10.0379100882402 12.8180365890064
vertex -25.0395164022832 -12.0375102082005 12.7780445866075
endloop
endfacet
facet normal 8.52018335387106e-014 -0.0199960011994223 0.999800059980011
outer loop
vertex -25.0395164022832 -10.0379100882402 12.8180365890064
vertex 24.9604835977168 -12.0375102082005 12.7780445866033
vertex -22.0395164022832 -10.0379100882402 12.8180365890061
endloop
endfacet
facet normal 8.52018335387106e-014 -0.0199960011994223 0.999800059980011
outer loop
vertex -22.0395164022832 -10.0379100882402 12.8180365890061
vertex 24.9604835977168 -12.0375102082005 12.7780445866033
vertex -20.0395164022833 -10.0379100882402 12.818036589006
endloop
endfacet
facet normal 8.52018335387106e-014 -0.0199960011994223 0.999800059980011
outer loop
vertex -20.0395164022833 -10.0379100882402 12.818036589006
vertex 24.9604835977168 -12.0375102082005 12.7780445866033
vertex -17.0395164022832 -10.0379100882402 12.8180365890057
endloop
endfacet
facet normal 8.52018335387106e-014 -0.0199960011994223 0.999800059980011
outer loop
vertex -17.0395164022832 -10.0379100882402 12.8180365890057
vertex 24.9604835977168 -12.0375102082005 12.7780445866033
vertex -14.0395164022832 -10.0379100882402 12.8180365890054
endloop
endfacet
facet normal 8.52018335387106e-014 -0.0199960011994223 0.999800059980011
outer loop
vertex -14.0395164022832 -10.0379100882402 12.8180365890054
vertex 24.9604835977168 -12.0375102082005 12.7780445866033
vertex -11.0395164022832 -10.0379100882402 12.8180365890052
endloop
endfacet
facet normal 8.52018335387106e-014 -0.0199960011994223 0.999800059980011
outer loop
vertex -11.0395164022832 -10.0379100882402 12.8180365890052
vertex 24.9604835977168 -12.0375102082005 12.7780445866033
vertex -8.03951640228321 -10.0379100882402 12.8180365890049
endloop
endfacet
facet normal 8.52018335387106e-014 -0.0199960011994223 0.999800059980011
outer loop
vertex -8.03951640228321 -10.0379100882402 12.8180365890049
vertex 24.9604835977168 -12.0375102082005 12.7780445866033
vertex -5.03951640228322 -10.0379100882402 12.8180365890047
endloop
endfacet
facet normal 8.52018335387106e-014 -0.0199960011994223 0.999800059980011
outer loop
vertex -5.03951640228322 -10.0379100882402 12.8180365890047
vertex 24.9604835977168 -12.0375102082005 12.7780445866033
vertex -2.03951640228322 -10.0379100882402 12.8180365890044
endloop
endfacet
facet normal 8.52018335387106e-014 -0.0199960011994223 0.999800059980011
outer loop
vertex -2.03951640228322 -10.0379100882402 12.8180365890044
vertex 24.9604835977168 -12.0375102082005 12.7780445866033
vertex 0.960483597716766 -10.0379100882402 12.8180365890042
endloop
endfacet
facet normal 8.52018335387106e-014 -0.0199960011994223 0.999800059980011
outer loop
vertex 0.960483597716766 -10.0379100882402 12.8180365890042
vertex 24.9604835977168 -12.0375102082005 12.7780445866033
vertex 3.96048359771677 -10.0379100882402 12.8180365890039
endloop
endfacet
facet normal 8.52018335387106e-014 -0.0199960011994223 0.999800059980011
outer loop
vertex 3.96048359771677 -10.0379100882402 12.8180365890039
vertex 24.9604835977168 -12.0375102082005 12.7780445866033
vertex 6.96048359771678 -10.0379100882402 12.8180365890037
endloop
endfacet
facet normal 8.52018335387106e-014 -0.0199960011994223 0.999800059980011
outer loop
vertex 6.96048359771678 -10.0379100882402 12.8180365890037
vertex 24.9604835977168 -12.0375102082005 12.7780445866033
vertex 9.96048359771677 -10.0379100882402 12.8180365890034
endloop
endfacet
facet normal 8.52018335387106e-014 -0.0199960011994223 0.999800059980011
outer loop
vertex 9.96048359771677 -10.0379100882402 12.8180365890034
vertex 24.9604835977168 -12.0375102082005 12.7780445866033
vertex 12.9604835977168 -10.0379100882402 12.8180365890031
endloop
endfacet
facet normal 8.52018335387106e-014 -0.0199960011994223 0.999800059980011
outer loop
vertex 12.9604835977168 -10.0379100882402 12.8180365890031
vertex 24.9604835977168 -12.0375102082005 12.7780445866033
vertex 15.9604835977168 -10.0379100882402 12.8180365890029
endloop
endfacet
facet normal 8.52018335387106e-014 -0.0199960011994223 0.999800059980011
outer loop
vertex 15.9604835977168 -10.0379100882402 12.8180365890029
vertex 24.9604835977168 -12.0375102082005 12.7780445866033
vertex 18.9604835977168 -10.0379100882402 12.8180365890026
endloop
endfacet
facet normal 8.52018335387106e-014 -0.0199960011994223 0.999800059980011
outer loop
vertex 18.9604835977168 -10.0379100882402 12.8180365890026
vertex 24.9604835977168 -12.0375102082005 12.7780445866033
vertex 21.9604835977168 -10.0379100882402 12.8180365890024
endloop
endfacet
facet normal 8.52018335387106e-014 -0.0199960011994223 0.999800059980011
outer loop
vertex 21.9604835977168 -10.0379100882402 12.8180365890024
vertex 24.9604835977168 -12.0375102082005 12.7780445866033
vertex 24.9604835977168 -10.0379100882402 12.8180365890021
endloop
endfacet
facet normal 1.0 -1.50368141801857e-016 -8.64992735594981e-014
outer loop
vertex -22.0395164022835 -9.97792208464257 9.81863640906601
vertex -22.0395164022832 -4.03910972835996 12.9380125962022
vertex -22.0395164022832 -10.0379100882402 12.8180365890061
endloop
endfacet
facet normal 1.0 -1.50368141801857e-016 -8.64992735594981e-014
outer loop
vertex -22.0395164022832 -4.03910972835996 12.9380125962022
vertex -22.0395164022835 -9.97792208464257 9.81863640906601
vertex -22.0395164022835 -3.97912172476238 9.93861241626227
endloop
endfacet
facet normal 1.69264564012312e-015 0.999800059980015 0.0199960011992073
outer loop
vertex 0.960483597716512 -9.97792208464257 9.81863640906404
vertex 3.96048359771677 -10.0379100882402 12.8180365890039
vertex 3.96048359771652 -9.97792208464257 9.81863640906379
endloop
endfacet
facet normal 1.69264564012312e-015 0.999800059980015 0.0199960011992073
outer loop
vertex 3.96048359771677 -10.0379100882402 12.8180365890039
vertex 0.960483597716512 -9.97792208464257 9.81863640906404
vertex 0.960483597716766 -10.0379100882402 12.8180365890042
endloop
endfacet
facet normal -1.69245137789607e-015 -0.999800059980015 -0.0199960011992073
outer loop
vertex 0.960483597716766 -10.0379100882402 12.8180365890042
vertex -2.03951640228348 -9.97792208464257 9.8186364090643
vertex 0.960483597716512 -9.97792208464257 9.81863640906404
endloop
endfacet
facet normal -1.69245137789607e-015 -0.999800059980015 -0.0199960011992073
outer loop
vertex -2.03951640228348 -9.97792208464257 9.8186364090643
vertex 0.960483597716766 -10.0379100882402 12.8180365890042
vertex -2.03951640228322 -10.0379100882402 12.8180365890044
endloop
endfacet
facet normal -8.52235243286671e-014 0.019996001199356 -0.999800059980012
outer loop
vertex -20.0395164022835 -9.97792208464257 9.81863640906584
vertex -22.0395164022835 -11.9775222046025 9.77864440666729
vertex -22.0395164022835 -9.97792208464257 9.81863640906601
endloop
endfacet
facet normal -8.52235243286671e-014 0.019996001199356 -0.999800059980012
outer loop
vertex -22.0395164022835 -11.9775222046025 9.77864440666729
vertex -20.0395164022835 -9.97792208464257 9.81863640906584
vertex 21.9604835977165 -11.9775222046025 9.77864440666355
endloop
endfacet
facet normal -8.52235243286671e-014 0.019996001199356 -0.999800059980012
outer loop
vertex 21.9604835977165 -11.9775222046025 9.77864440666355
vertex -20.0395164022835 -9.97792208464257 9.81863640906584
vertex -17.0395164022835 -9.97792208464257 9.81863640906558
endloop
endfacet
facet normal -8.52235243286671e-014 0.019996001199356 -0.999800059980012
outer loop
vertex 21.9604835977165 -11.9775222046025 9.77864440666355
vertex -17.0395164022835 -9.97792208464257 9.81863640906558
vertex -14.0395164022835 -9.97792208464257 9.81863640906533
endloop
endfacet
facet normal -8.52235243286671e-014 0.019996001199356 -0.999800059980012
outer loop
vertex 21.9604835977165 -11.9775222046025 9.77864440666355
vertex -14.0395164022835 -9.97792208464257 9.81863640906533
vertex -11.0395164022835 -9.97792208464257 9.81863640906507
endloop
endfacet
facet normal -8.52235243286671e-014 0.019996001199356 -0.999800059980012
outer loop
vertex 21.9604835977165 -11.9775222046025 9.77864440666355
vertex -11.0395164022835 -9.97792208464257 9.81863640906507
vertex -8.03951640228347 -9.97792208464257 9.81863640906481
endloop
endfacet
facet normal -8.52235243286671e-014 0.019996001199356 -0.999800059980012
outer loop
vertex 21.9604835977165 -11.9775222046025 9.77864440666355
vertex -8.03951640228347 -9.97792208464257 9.81863640906481
vertex -5.03951640228348 -9.97792208464257 9.81863640906456
endloop
endfacet
facet normal -8.52235243286671e-014 0.019996001199356 -0.999800059980012
outer loop
vertex 21.9604835977165 -11.9775222046025 9.77864440666355
vertex -5.03951640228348 -9.97792208464257 9.81863640906456
vertex -2.03951640228348 -9.97792208464257 9.8186364090643
endloop
endfacet
facet normal -8.52235243286671e-014 0.019996001199356 -0.999800059980012
outer loop
vertex 21.9604835977165 -11.9775222046025 9.77864440666355
vertex -2.03951640228348 -9.97792208464257 9.8186364090643
vertex 0.960483597716512 -9.97792208464257 9.81863640906404
endloop
endfacet
facet normal -8.52235243286671e-014 0.019996001199356 -0.999800059980012
outer loop
vertex 21.9604835977165 -11.9775222046025 9.77864440666355
vertex 0.960483597716512 -9.97792208464257 9.81863640906404
vertex 3.96048359771652 -9.97792208464257 9.81863640906379
endloop
endfacet
facet normal -8.52235243286671e-014 0.019996001199356 -0.999800059980012
outer loop
vertex 21.9604835977165 -11.9775222046025 9.77864440666355
vertex 3.96048359771652 -9.97792208464257 9.81863640906379
vertex 6.96048359771652 -9.97792208464257 9.81863640906353
endloop
endfacet
facet normal -8.52235243286671e-014 0.019996001199356 -0.999800059980012
outer loop
vertex 21.9604835977165 -11.9775222046025 9.77864440666355
vertex 6.96048359771652 -9.97792208464257 9.81863640906353
vertex 9.96048359771652 -9.97792208464257 9.81863640906328
endloop
endfacet
facet normal -8.52235243286671e-014 0.019996001199356 -0.999800059980012
outer loop
vertex 21.9604835977165 -11.9775222046025 9.77864440666355
vertex 9.96048359771652 -9.97792208464257 9.81863640906328
vertex 12.9604835977165 -9.97792208464257 9.81863640906303
endloop
endfacet
facet normal -8.52235243286671e-014 0.019996001199356 -0.999800059980012
outer loop
vertex 21.9604835977165 -11.9775222046025 9.77864440666355
vertex 12.9604835977165 -9.97792208464257 9.81863640906303
vertex 15.9604835977165 -9.97792208464257 9.81863640906277
endloop
endfacet
facet normal -8.52235243286671e-014 0.019996001199356 -0.999800059980012
outer loop
vertex 21.9604835977165 -11.9775222046025 9.77864440666355
vertex 15.9604835977165 -9.97792208464257 9.81863640906277
vertex 18.9604835977165 -9.97792208464257 9.81863640906251
endloop
endfacet
facet normal -8.52235243286671e-014 0.019996001199356 -0.999800059980012
outer loop
vertex 21.9604835977165 -11.9775222046025 9.77864440666355
vertex 18.9604835977165 -9.97792208464257 9.81863640906251
vertex 21.9604835977165 -9.97792208464257 9.81863640906225
endloop
endfacet
facet normal 1.0 7.04154206090853e-014 -1.10970667309299e-013
outer loop
vertex 24.9604835977156 -11.8375501962068 2.78004398680238
vertex 24.9604835977168 -10.0379100882402 12.8180365890021
vertex 24.9604835977168 -12.0375102082005 12.7780445866033
endloop
endfacet
facet normal 1.0 7.04154206090853e-014 -1.10970667309299e-013
outer loop
vertex 24.9604835977168 -10.0379100882402 12.8180365890021
vertex 24.9604835977156 -11.8375501962068 2.78004398680238
vertex 24.9604835977156 -9.83795007624675 2.82003598920095
endloop
endfacet
facet normal 1.0 7.04154206090853e-014 -1.10970667309299e-013
outer loop
vertex 24.9604835977168 -10.0379100882402 12.8180365890021
vertex 24.9604835977156 -9.83795007624675 2.82003598920095
vertex 24.9604835977158 -9.87491211809824 4.66813808180022
endloop
endfacet
facet normal 1.0 7.04154206090853e-014 -1.10970667309299e-013
outer loop
vertex 24.9604835977168 -10.0379100882402 12.8180365890021
vertex 24.9604835977158 -9.87491211809824 4.66813808180022
vertex 24.9604835977164 -9.97792208464203 9.81863640906188
endloop
endfacet
facet normal 1.0 7.04154206090853e-014 -1.10970667309299e-013
outer loop
vertex 24.9604835977164 -9.97792208464203 9.81863640906188
vertex 24.9604835977158 -9.87491211809824 4.66813808180022
vertex 24.9604835977162 -9.9349001216962 7.66753826174048
endloop
endfacet
facet normal 1.0 7.04154206090853e-014 -1.10970667309299e-013
outer loop
vertex 24.9604835977158 -9.87491211809824 4.66813808180022
vertex 24.9604835977155 -3.87519830366644 7.78873229809931
vertex 24.9604835977162 -9.9349001216962 7.66753826174048
endloop
endfacet
facet normal 1.0 7.04154206090853e-014 -1.10970667309299e-013
outer loop
vertex 24.9604835977155 -3.87519830366644 7.78873229809931
vertex 24.9604835977158 -9.87491211809824 4.66813808180022
vertex 24.9604835977158 -3.83914971636605 5.98630293305382
endloop
endfacet
facet normal 1.0 7.04154206090853e-014 -1.10970667309299e-013
outer loop
vertex 24.9604835977158 -3.83914971636605 5.98630293305382
vertex 24.9604835977158 -9.87491211809824 4.66813808180022
vertex 24.9604835977152 -3.81521030006848 4.78933211815905
endloop
endfacet
facet normal 1.0 0.0 0.0
outer loop
vertex -19.9513124106426 -10.0055898459554 2.71844768917617e-012
vertex -19.9513124106426 -30.0055898459546 3.00000000000799
vertex -19.9513124106426 -30.0055898459554 7.92974574892469e-012
endloop
endfacet
facet normal 1.0 0.0 0.0
outer loop
vertex -19.9513124106426 -30.0055898459546 3.00000000000799
vertex -19.9513124106426 -10.0055898459554 2.71844768917617e-012
vertex -19.9513124106426 -10.0055898459546 3.00000000000267
endloop
endfacet
facet normal 1.0 1.32299038470314e-015 -8.36892352389461e-014
outer loop
vertex -22.0395164022841 -11.837550196207 2.78004398680737
vertex -22.0395164022835 -9.97792208464257 9.81863640906601
vertex -22.0395164022835 -11.9775222046025 9.77864440666729
endloop
endfacet
facet normal 1.0 1.32299038470314e-015 -8.36892352389461e-014
outer loop
vertex -22.0395164022835 -9.97792208464257 9.81863640906601
vertex -22.0395164022841 -11.837550196207 2.78004398680737
vertex -22.0395164022839 -9.87491211809846 4.66813808180022
endloop
endfacet
facet normal 1.0 1.32299038470314e-015 -8.36892352389461e-014
outer loop
vertex -22.0395164022839 -9.87491211809846 4.66813808180022
vertex -22.0395164022841 -11.837550196207 2.78004398680737
vertex -22.0395164022841 -9.83795007624696 2.82003598920595
endloop
endfacet
facet normal 1.0 1.32299038470314e-015 -8.36892352389461e-014
outer loop
vertex -22.0395164022835 -9.97792208464257 9.81863640906601
vertex -22.0395164022839 -9.87491211809846 4.66813808180022
vertex -22.0395164022837 -9.93490012169654 7.66753826174048
endloop
endfacet
facet normal 3.99834252969759e-005 -0.0207098430673855 0.999785527401477
outer loop
vertex 24.9604835977168 -3.8391497163642 12.9380125961981
vertex -25.0395164022832 -1.0397095484201 12.9980005998006
vertex -25.0395164022832 -3.8391497163642 12.9420117964424
endloop
endfacet
facet normal 3.99834252969759e-005 -0.0207098430673855 0.999785527401477
outer loop
vertex -25.0395164022832 -1.0397095484201 12.9980005998006
vertex 24.9604835977168 -3.8391497163642 12.9380125961981
vertex 24.9604835977168 -1.0397095484201 12.9980005997964
endloop
endfacet
facet normal -1.26610503864615e-013 0.999800059980011 0.019996001199393
outer loop
vertex 21.9604835977165 -9.97792208464257 9.81863640906225
vertex 24.9604835977162 -9.9349001216962 7.66753826174048
vertex 21.9604835977163 -9.93490012169643 7.66753826174047
endloop
endfacet
facet normal -1.26610503864615e-013 0.999800059980011 0.019996001199393
outer loop
vertex 24.9604835977162 -9.9349001216962 7.66753826174048
vertex 21.9604835977165 -9.97792208464257 9.81863640906225
vertex 24.9604835977164 -9.97792208464203 9.81863640906188
endloop
endfacet
facet normal 1.73009939757484e-015 0.999800059980015 0.0199960011992074
outer loop
vertex -25.0395164022835 -9.97792208464257 9.81863640906627
vertex -22.0395164022832 -10.0379100882402 12.8180365890061
vertex -22.0395164022835 -9.97792208464257 9.81863640906601
endloop
endfacet
facet normal 1.73009939757484e-015 0.999800059980015 0.0199960011992074
outer loop
vertex -22.0395164022832 -10.0379100882402 12.8180365890061
vertex -25.0395164022835 -9.97792208464257 9.81863640906627
vertex -25.0395164022832 -10.0379100882402 12.8180365890064
endloop
endfacet
facet normal 1.73037136469144e-015 0.999800059980015 0.0199960011992074
outer loop
vertex 3.96048359771652 -9.97792208464257 9.81863640906379
vertex 6.96048359771678 -10.0379100882402 12.8180365890037
vertex 6.96048359771652 -9.97792208464257 9.81863640906353
endloop
endfacet
facet normal 1.73037136469144e-015 0.999800059980015 0.0199960011992074
outer loop
vertex 6.96048359771678 -10.0379100882402 12.8180365890037
vertex 3.96048359771652 -9.97792208464257 9.81863640906379
vertex 3.96048359771677 -10.0379100882402 12.8180365890039
endloop
endfacet
facet normal 1.0 -1.50368141801786e-016 -8.64992735594978e-014
outer loop
vertex -11.0395164022835 -9.97792208464257 9.81863640906507
vertex -11.0395164022832 -4.03910972835996 12.9380125962012
vertex -11.0395164022832 -10.0379100882402 12.8180365890052
endloop
endfacet
facet normal 1.0 -1.50368141801786e-016 -8.64992735594978e-014
outer loop
vertex -11.0395164022832 -4.03910972835996 12.9380125962012
vertex -11.0395164022835 -9.97792208464257 9.81863640906507
vertex -11.0395164022835 -3.97912172476238 9.93861241626133
endloop
endfacet
facet normal 1.0 -1.50368141801778e-016 -8.6499273559498e-014
outer loop
vertex -17.0395164022835 -9.97792208464257 9.81863640906558
vertex -17.0395164022832 -4.03910972835996 12.9380125962017
vertex -17.0395164022832 -10.0379100882402 12.8180365890057
endloop
endfacet
facet normal 1.0 -1.50368141801778e-016 -8.6499273559498e-014
outer loop
vertex -17.0395164022832 -4.03910972835996 12.9380125962017
vertex -17.0395164022835 -9.97792208464257 9.81863640906558
vertex -17.0395164022835 -3.97912172476238 9.93861241626185
endloop
endfacet
endsolid house7just wall balc
