solid house7 minus the front
facet normal 0.0 -0.500000000002099 -0.866025403783227
outer loop
vertex 40.0 -12.4336844247296 14.3447231791582
vertex 37.0 -11.3981505187988 13.5501300661662
vertex 40.0 -11.3981505187988 13.5501300661662
endloop
endfacet
facet normal 0.0 -0.707106781188257 -0.707106781184838
outer loop
vertex 37.0 -11.3981505187988 13.5501300661662
vertex 40.0 -12.4336844247296 14.3447231791582
vertex 37.0 -12.4336844247296 14.3447231791582
endloop
endfacet
facet normal 0.0 -0.499999999997908 0.866025403785647
outer loop
vertex 37.0 -12.4336844247506 5.68446914131379
vertex 40.0 -11.3981505188159 6.47906225430074
vertex 37.0 -11.3981505188159 6.47906225430074
endloop
endfacet
facet normal 0.0 -0.707106781184838 0.707106781188257
outer loop
vertex 40.0 -11.3981505188159 6.47906225430074
vertex 37.0 -12.4336844247506 5.68446914131379
vertex 40.0 -12.4336844247506 5.68446914131379
endloop
endfacet
facet normal 1.0 0.0 0.0
outer loop
vertex 40.0 45.0000000001137 46.9999999998911
vertex 40.0 -25.0 6.05093253280842e-011
vertex 40.0 45.0 -1.08915565455447e-010
endloop
endfacet
facet normal 1.0 0.0 0.0
outer loop
vertex 40.0 -25.0 6.05093253280842e-011
vertex 40.0 45.0000000001137 46.9999999998911
vertex 40.0 -24.9999999998863 47.0000000000605
endloop
endfacet
facet normal 0.0 -0.866025403785647 -0.499999999997908
outer loop
vertex 40.0 -10.6035574057755 27.5145961602316
vertex 37.0 -11.3981505187625 28.5501300661662
vertex 37.0 -10.6035574057755 27.5145961602316
endloop
endfacet
facet normal 0.0 -0.707106781188257 -0.707106781184838
outer loop
vertex 37.0 -11.3981505187625 28.5501300661662
vertex 40.0 -10.6035574057755 27.5145961602316
vertex 40.0 -11.3981505187625 28.5501300661662
endloop
endfacet
facet normal 0.0 -1.0 2.42035558262188e-012
outer loop
vertex 40.0 -9.93368442474008 10.0145961602299
vertex 37.0 -10.1040552932916 11.3086913857429
vertex 37.0 -9.93368442474008 10.0145961602299
endloop
endfacet
facet normal 0.0 -0.965925826289695 -0.258819045100183
outer loop
vertex 37.0 -10.1040552932916 11.3086913857429
vertex 40.0 -9.93368442474008 10.0145961602299
vertex 40.0 -10.1040552932916 11.3086913857429
endloop
endfacet
facet normal 0.0 0.258819045100185 -0.965925826289694
outer loop
vertex 40.0 -16.2277796502047 29.8442252916905
vertex 37.0 -14.9336844246917 30.014596160242
vertex 40.0 -14.9336844246917 30.014596160242
endloop
endfacet
facet normal 0.0 -2.42091698254531e-012 -1.0
outer loop
vertex 37.0 -14.9336844246917 30.014596160242
vertex 40.0 -16.2277796502047 29.8442252916905
vertex 37.0 -16.2277796502047 29.8442252916905
endloop
endfacet
facet normal 1.0 0.0 0.0
outer loop
vertex 20.0 7.21347426235752e-012 2.99999999999999
vertex 20.0 -20.0 4.84075474149748e-011
vertex 20.0 -4.51194637207664e-014 4.35762537162951e-016
endloop
endfacet
facet normal 1.0 0.0 0.0
outer loop
vertex 20.0 -20.0 4.84075474149748e-011
vertex 20.0 7.21347426235752e-012 2.99999999999999
vertex 20.0 -19.9999999999928 3.00000000004839
endloop
endfacet
facet normal 0.0 -2.42035558262188e-012 -1.0
outer loop
vertex -17.0 -20.0167373086581 30.0603199693955
vertex -20.0 -5.01673730865811 30.0603199693592
vertex -17.0 -5.01673730865811 30.0603199693592
endloop
endfacet
facet normal 0.0 -2.42035558262188e-012 -1.0
outer loop
vertex -20.0 -5.01673730865811 30.0603199693592
vertex -17.0 -20.0167373086581 30.0603199693955
vertex -20.0 -20.0167373086581 30.0603199693955
endloop
endfacet
facet normal 0.0 0.499999999997906 -0.866025403785648
outer loop
vertex 40.0 -17.4336844247296 14.3447231791703
vertex 37.0 -16.227779650241 14.8442252916905
vertex 40.0 -16.227779650241 14.8442252916905
endloop
endfacet
facet normal 0.0 0.258819045100185 -0.965925826289694
outer loop
vertex 37.0 -16.227779650241 14.8442252916905
vertex 40.0 -17.4336844247296 14.3447231791703
vertex 37.0 -17.4336844247296 14.3447231791703
endloop
endfacet
facet normal 0.0 0.258819045100188 -0.965925826289694
outer loop
vertex 40.0 -16.2277796501684 44.8442252916905
vertex 37.0 -14.9336844246554 45.014596160242
vertex 40.0 -14.9336844246554 45.014596160242
endloop
endfacet
facet normal 0.0 -2.42035558262188e-012 -1.0
outer loop
vertex 37.0 -14.9336844246554 45.014596160242
vertex 40.0 -16.2277796501684 44.8442252916905
vertex 37.0 -16.2277796501684 44.8442252916905
endloop
endfacet
facet normal 0.0 -0.866025403785649 -0.499999999997904
outer loop
vertex 40.0 34.3301270189766 22.4999999999169
vertex 37.0 30.0000000000726 29.9999999999274
vertex 37.0 34.3301270189766 22.4999999999169
endloop
endfacet
facet normal 0.0 -0.866025403785649 -0.499999999997904
outer loop
vertex 37.0 30.0000000000726 29.9999999999274
vertex 40.0 34.3301270189766 22.4999999999169
vertex 40.0 30.0000000000726 29.9999999999274
endloop
endfacet
facet normal 0.0 -0.258819045100189 0.965925826289693
outer loop
vertex 37.0 -13.6395891991665 35.1849670287936
vertex 40.0 -12.4336844246779 35.6844691413138
vertex 37.0 -12.4336844246779 35.6844691413138
endloop
endfacet
facet normal 0.0 -0.499999999997903 0.866025403785649
outer loop
vertex 40.0 -12.4336844246779 35.6844691413138
vertex 37.0 -13.6395891991665 35.1849670287936
vertex 40.0 -13.6395891991665 35.1849670287936
endloop
endfacet
facet normal 0.0 -0.50000000000209 -0.866025403783232
outer loop
vertex 40.0 -12.433684424657 44.3447231791581
vertex 37.0 -11.3981505187262 43.5501300661662
vertex 40.0 -11.3981505187262 43.5501300661662
endloop
endfacet
facet normal 0.0 -0.707106781188257 -0.707106781184838
outer loop
vertex 37.0 -11.3981505187262 43.5501300661662
vertex 40.0 -12.433684424657 44.3447231791581
vertex 37.0 -12.433684424657 44.3447231791581
endloop
endfacet
facet normal 0.0 -0.499999999997903 0.866025403785649
outer loop
vertex -20.0 30.0000000000435 17.9999999999274
vertex -17.0 36.0621778265431 21.4999999999127
vertex -20.0 36.0621778265431 21.4999999999127
endloop
endfacet
facet normal 0.0 -0.499999999997903 0.866025403785649
outer loop
vertex -17.0 36.0621778265431 21.4999999999127
vertex -20.0 30.0000000000435 17.9999999999274
vertex -17.0 30.0000000000435 17.9999999999274
endloop
endfacet
facet normal 0.0 -0.866025403783229 0.500000000002095
outer loop
vertex 40.0 30.0000000000363 14.9999999999274
vertex 37.0 34.3301270189766 22.4999999999169
vertex 37.0 30.0000000000363 14.9999999999274
endloop
endfacet
facet normal 0.0 -0.866025403783229 0.500000000002095
outer loop
vertex 37.0 34.3301270189766 22.4999999999169
vertex 40.0 30.0000000000363 14.9999999999274
vertex 40.0 34.3301270189766 22.4999999999169
endloop
endfacet
facet normal 0.0 -1.0 2.42055700879921e-012
outer loop
vertex -17.0 36.0621778265431 21.4999999999127
vertex -20.0 36.06217782656 28.4999999999127
vertex -20.0 36.0621778265431 21.4999999999127
endloop
endfacet
facet normal 0.0 -1.0 2.42055700879921e-012
outer loop
vertex -20.0 36.06217782656 28.4999999999127
vertex -17.0 36.0621778265431 21.4999999999127
vertex -17.0 36.06217782656 28.4999999999127
endloop
endfacet
facet normal 0.0 -2.42035558262188e-012 -1.0
outer loop
vertex -17.0 -19.9999999998911 45.0000000000484
vertex -20.0 -4.99999999989112 45.0000000000121
vertex -17.0 -4.99999999989112 45.0000000000121
endloop
endfacet
facet normal 0.0 -2.42035558262188e-012 -1.0
outer loop
vertex -20.0 -4.99999999989112 45.0000000000121
vertex -17.0 -19.9999999998911 45.0000000000484
vertex -20.0 -19.9999999998911 45.0000000000484
endloop
endfacet
facet normal 0.0 0.866025403785648 0.499999999997906
outer loop
vertex 40.0 -19.263811443632 22.5145961602525
vertex 37.0 -18.4692183306451 21.4790622543179
vertex 37.0 -19.263811443632 22.5145961602525
endloop
endfacet
facet normal 0.0 0.70710678118826 0.707106781184836
outer loop
vertex 37.0 -18.4692183306451 21.4790622543179
vertex 40.0 -19.263811443632 22.5145961602525
vertex 40.0 -18.4692183306451 21.4790622543179
endloop
endfacet
facet normal -1.0 0.0 0.0
outer loop
vertex 15.0 20.0000000000072 2.99999999995157
vertex 15.0 35.0 -8.47120096292286e-011
vertex 15.0 20.0 -4.84066758899004e-011
endloop
endfacet
facet normal -1.0 0.0 0.0
outer loop
vertex 15.0 35.0 -8.47120096292286e-011
vertex 15.0 20.0000000000072 2.99999999995157
vertex 15.0 35.0000000000072 2.99999999991526
endloop
endfacet
facet normal 0.0 -0.499999999997904 0.866025403785649
outer loop
vertex 37.0 -12.4336844247143 20.6844691413138
vertex 40.0 -11.3981505187796 21.4790622543007
vertex 37.0 -11.3981505187796 21.4790622543007
endloop
endfacet
facet normal 0.0 -0.707106781184838 0.707106781188257
outer loop
vertex 40.0 -11.3981505187796 21.4790622543007
vertex 37.0 -12.4336844247143 20.6844691413138
vertex 40.0 -12.4336844247143 20.6844691413138
endloop
endfacet
facet normal 0.0 1.0 -2.41607824987197e-012
outer loop
vertex 40.0 -19.9336844247401 10.0145961602541
vertex 37.0 -19.7633135561886 8.72050093474112
vertex 37.0 -19.9336844247401 10.0145961602541
endloop
endfacet
facet normal 0.0 0.965925826289695 0.258819045100184
outer loop
vertex 37.0 -19.7633135561886 8.72050093474112
vertex 40.0 -19.9336844247401 10.0145961602541
vertex 40.0 -19.7633135561886 8.72050093474112
endloop
endfacet
facet normal 0.0 2.4123355837158e-012 1.0
outer loop
vertex 37.0 -14.9336844246796 35.014596160242
vertex 40.0 -13.6395891991665 35.1849670287936
vertex 37.0 -13.6395891991665 35.1849670287936
endloop
endfacet
facet normal 0.0 -0.258819045100189 0.965925826289693
outer loop
vertex 40.0 -13.6395891991665 35.1849670287936
vertex 37.0 -14.9336844246796 35.014596160242
vertex 40.0 -14.9336844246796 35.014596160242
endloop
endfacet
facet normal 0.0 -1.0 2.42035558262188e-012
outer loop
vertex 15.0 35.0 -8.47120096292286e-011
vertex -10.0 35.0000000000072 2.99999999991526
vertex -10.0 35.0 -8.47120096292286e-011
endloop
endfacet
facet normal 0.0 -1.0 2.42035558262188e-012
outer loop
vertex -10.0 35.0000000000072 2.99999999991526
vertex 15.0 35.0 -8.47120096292286e-011
vertex 15.0 35.0000000000072 2.99999999991526
endloop
endfacet
facet normal 0.0 1.0 -2.42035558262188e-012
outer loop
vertex -17.0 -20.0167373086581 30.0603199693955
vertex -20.0 -20.0167373086823 20.0603199693955
vertex -20.0 -20.0167373086581 30.0603199693955
endloop
endfacet
facet normal 0.0 1.0 -2.42035558262188e-012
outer loop
vertex -20.0 -20.0167373086823 20.0603199693955
vertex -17.0 -20.0167373086581 30.0603199693955
vertex -17.0 -20.0167373086823 20.0603199693955
endloop
endfacet
facet normal 0.0 -0.707106781184829 0.707106781188266
outer loop
vertex 40.0 -11.3981505187433 36.4790622543007
vertex 37.0 -10.6035574057513 37.5145961602315
vertex 37.0 -11.3981505187433 36.4790622543007
endloop
endfacet
facet normal 0.0 -0.866025403783226 0.500000000002101
outer loop
vertex 37.0 -10.6035574057513 37.5145961602315
vertex 40.0 -11.3981505187433 36.4790622543007
vertex 40.0 -10.6035574057513 37.5145961602315
endloop
endfacet
facet normal 0.0 -0.965925826289694 -0.258819045100186
outer loop
vertex 40.0 -10.104055293219 41.3086913857429
vertex 37.0 -10.6035574057392 42.5145961602315
vertex 37.0 -10.104055293219 41.3086913857429
endloop
endfacet
facet normal 0.0 -0.866025403785653 -0.499999999997897
outer loop
vertex 37.0 -10.6035574057392 42.5145961602315
vertex 40.0 -10.104055293219 41.3086913857429
vertex 40.0 -10.6035574057392 42.5145961602315
endloop
endfacet
facet normal 0.0 0.965925826288442 -0.258819045104857
outer loop
vertex 40.0 -19.7633135561823 11.3086913857663
vertex 37.0 -19.9336844247401 10.0145961602541
vertex 37.0 -19.7633135561823 11.3086913857663
endloop
endfacet
facet normal 0.0 1.0 -2.41607824987197e-012
outer loop
vertex 37.0 -19.9336844247401 10.0145961602541
vertex 40.0 -19.7633135561823 11.3086913857663
vertex 40.0 -19.9336844247401 10.0145961602541
endloop
endfacet
facet normal 0.0 -0.258819045104861 -0.965925826288441
outer loop
vertex 40.0 -13.6395891991795 29.8442252916842
vertex 37.0 -12.4336844246933 29.3447231791582
vertex 40.0 -12.4336844246933 29.3447231791582
endloop
endfacet
facet normal 0.0 -0.500000000002096 -0.866025403783229
outer loop
vertex 37.0 -12.4336844246933 29.3447231791582
vertex 40.0 -13.6395891991795 29.8442252916842
vertex 37.0 -13.6395891991795 29.8442252916842
endloop
endfacet
facet normal 0.0 0.707106781184836 -0.707106781188259
outer loop
vertex 40.0 -18.4692183305917 43.5501300661833
vertex 37.0 -17.433684424657 44.3447231791703
vertex 40.0 -17.433684424657 44.3447231791703
endloop
endfacet
facet normal 0.0 0.499999999997899 -0.866025403785652
outer loop
vertex 37.0 -17.433684424657 44.3447231791703
vertex 40.0 -18.4692183305917 43.5501300661833
vertex 37.0 -18.4692183305917 43.5501300661833
endloop
endfacet
facet normal 0.0 -2.42035558262188e-012 -1.0
outer loop
vertex 40.0 45.0 -1.08915565455447e-010
vertex 15.0 35.0 -8.47120096292286e-011
vertex -20.0 45.0 -1.08915565455447e-010
endloop
endfacet
facet normal 0.0 -2.42035558262188e-012 -1.0
outer loop
vertex 15.0 35.0 -8.47120096292286e-011
vertex 40.0 45.0 -1.08915565455447e-010
vertex 35.0 -4.51194637207664e-014 4.35762537162951e-016
endloop
endfacet
facet normal 0.0 -2.42035558262188e-012 -1.0
outer loop
vertex 35.0 -4.51194637207664e-014 4.35762537162951e-016
vertex 40.0 45.0 -1.08915565455447e-010
vertex 40.0 -25.0 6.05093253280842e-011
endloop
endfacet
facet normal 0.0 -2.42035558262188e-012 -1.0
outer loop
vertex 15.0 35.0 -8.47120096292286e-011
vertex 35.0 -4.51194637207664e-014 4.35762537162951e-016
vertex 15.0 20.0 -4.84066758899004e-011
endloop
endfacet
facet normal 0.0 -2.42035558262188e-012 -1.0
outer loop
vertex 15.0 20.0 -4.84066758899004e-011
vertex 35.0 -4.51194637207664e-014 4.35762537162951e-016
vertex -10.0 20.0 -4.84066758899004e-011
endloop
endfacet
facet normal 0.0 -2.42035558262188e-012 -1.0
outer loop
vertex 35.0 -4.51194637207664e-014 4.35762537162951e-016
vertex 40.0 -25.0 6.05093253280842e-011
vertex 35.0 -20.0 4.84075474149748e-011
endloop
endfacet
facet normal 0.0 -2.42035558262188e-012 -1.0
outer loop
vertex 35.0 -20.0 4.84075474149748e-011
vertex 40.0 -25.0 6.05093253280842e-011
vertex 20.0 -20.0 4.84075474149748e-011
endloop
endfacet
facet normal 0.0 -2.42035558262188e-012 -1.0
outer loop
vertex 20.0 -20.0 4.84075474149748e-011
vertex 40.0 -25.0 6.05093253280842e-011
vertex -8.45989944764369e-015 -20.0 4.84075474149748e-011
endloop
endfacet
facet normal 0.0 -2.42035558262188e-012 -1.0
outer loop
vertex -8.45989944764369e-015 -20.0 4.84075474149748e-011
vertex 40.0 -25.0 6.05093253280842e-011
vertex -15.0 -20.0 4.84075474149748e-011
endloop
endfacet
facet normal 0.0 -2.42035558262188e-012 -1.0
outer loop
vertex -20.0 45.0 -1.08915565455447e-010
vertex -10.0 35.0 -8.47120096292286e-011
vertex -20.0 -25.0 6.05093253280842e-011
endloop
endfacet
facet normal 0.0 -2.42035558262188e-012 -1.0
outer loop
vertex -10.0 35.0 -8.47120096292286e-011
vertex -20.0 45.0 -1.08915565455447e-010
vertex 15.0 35.0 -8.47120096292286e-011
endloop
endfacet
facet normal 0.0 -2.42035558262188e-012 -1.0
outer loop
vertex -20.0 -25.0 6.05093253280842e-011
vertex -10.0 35.0 -8.47120096292286e-011
vertex -15.0 -4.51194637207664e-014 4.35762537162951e-016
endloop
endfacet
facet normal 0.0 -2.42035558262188e-012 -1.0
outer loop
vertex -15.0 -4.51194637207664e-014 4.35762537162951e-016
vertex -10.0 35.0 -8.47120096292286e-011
vertex -10.0 20.0 -4.84066758899004e-011
endloop
endfacet
facet normal 0.0 -2.42035558262188e-012 -1.0
outer loop
vertex -15.0 -4.51194637207664e-014 4.35762537162951e-016
vertex -10.0 20.0 -4.84066758899004e-011
vertex 35.0 -4.51194637207664e-014 4.35762537162951e-016
endloop
endfacet
facet normal 0.0 -2.42035558262188e-012 -1.0
outer loop
vertex -15.0 -4.51194637207664e-014 4.35762537162951e-016
vertex 35.0 -4.51194637207664e-014 4.35762537162951e-016
vertex 20.0 -4.51194637207664e-014 4.35762537162951e-016
endloop
endfacet
facet normal 0.0 -2.42035558262188e-012 -1.0
outer loop
vertex -15.0 -4.51194637207664e-014 4.35762537162951e-016
vertex 20.0 -4.51194637207664e-014 4.35762537162951e-016
vertex -8.45989944764369e-015 -4.51194637207664e-014 4.35762537162951e-016
endloop
endfacet
facet normal 0.0 -2.42035558262188e-012 -1.0
outer loop
vertex -20.0 -25.0 6.05093253280842e-011
vertex -15.0 -4.51194637207664e-014 4.35762537162951e-016
vertex -15.0 -20.0 4.84075474149748e-011
endloop
endfacet
facet normal 0.0 -2.42035558262188e-012 -1.0
outer loop
vertex -20.0 -25.0 6.05093253280842e-011
vertex -15.0 -20.0 4.84075474149748e-011
vertex 40.0 -25.0 6.05093253280842e-011
endloop
endfacet
facet normal 0.0 -2.42035558262188e-012 -1.0
outer loop
vertex 20.0 -20.0 4.84075474149748e-011
vertex -8.45989944764369e-015 -4.51194637207664e-014 4.35762537162951e-016
vertex 20.0 -4.51194637207664e-014 4.35762537162951e-016
endloop
endfacet
facet normal 0.0 -2.42035558262188e-012 -1.0
outer loop
vertex -8.45989944764369e-015 -4.51194637207664e-014 4.35762537162951e-016
vertex 20.0 -20.0 4.84075474149748e-011
vertex -8.45989944764369e-015 -20.0 4.84075474149748e-011
endloop
endfacet
facet normal 1.0 0.0 0.0
outer loop
vertex -17.0 23.9378221735609 21.4999999999421
vertex -17.0 -5.01673730868231 20.0603199693592
vertex -17.0 30.0000000000435 17.9999999999274
endloop
endfacet
facet normal 1.0 0.0 0.0
outer loop
vertex -17.0 -5.01673730868231 20.0603199693592
vertex -17.0 23.9378221735609 21.4999999999421
vertex -17.0 -5.01673730865811 30.0603199693592
endloop
endfacet
facet normal 1.0 0.0 0.0
outer loop
vertex -17.0 -5.01673730865811 30.0603199693592
vertex -17.0 23.9378221735609 21.4999999999421
vertex -17.0 23.9378221735779 28.4999999999421
endloop
endfacet
facet normal 1.0 0.0 0.0
outer loop
vertex -17.0 -5.01673730865811 30.0603199693592
vertex -17.0 23.9378221735779 28.4999999999421
vertex -17.0 30.0000000000774 31.9999999999274
endloop
endfacet
facet normal 1.0 0.0 0.0
outer loop
vertex -17.0 -5.01673730865811 30.0603199693592
vertex -17.0 30.0000000000774 31.9999999999274
vertex -17.0 -20.0167373086581 30.0603199693955
endloop
endfacet
facet normal 1.0 0.0 0.0
outer loop
vertex -17.0 45.0000000000072 2.99999999989108
vertex -17.0 -4.99999999998785 5.03577644782536
vertex -17.0 -24.9999999999928 3.00000000006051
endloop
endfacet
facet normal 1.0 0.0 0.0
outer loop
vertex -17.0 -4.99999999998785 5.03577644782536
vertex -17.0 45.0000000000072 2.99999999989108
vertex -17.0 30.0000000000435 17.9999999999274
endloop
endfacet
facet normal 1.0 0.0 0.0
outer loop
vertex -17.0 30.0000000000435 17.9999999999274
vertex -17.0 45.0000000000072 2.99999999989108
vertex -17.0 36.0621778265431 21.4999999999127
endloop
endfacet
facet normal 1.0 0.0 0.0
outer loop
vertex -17.0 36.0621778265431 21.4999999999127
vertex -17.0 45.0000000000072 2.99999999989108
vertex -17.0 45.0000000001137 46.9999999998911
endloop
endfacet
facet normal 1.0 0.0 0.0
outer loop
vertex -17.0 -4.99999999998785 5.03577644782536
vertex -17.0 30.0000000000435 17.9999999999274
vertex -17.0 -4.99999999996365 15.0357764478254
endloop
endfacet
facet normal 1.0 0.0 0.0
outer loop
vertex -17.0 -4.99999999996365 15.0357764478254
vertex -17.0 30.0000000000435 17.9999999999274
vertex -17.0 -19.9999999999637 15.0357764478617
endloop
endfacet
facet normal 1.0 0.0 0.0
outer loop
vertex -17.0 36.0621778265431 21.4999999999127
vertex -17.0 45.0000000001137 46.9999999998911
vertex -17.0 36.06217782656 28.4999999999127
endloop
endfacet
facet normal 1.0 0.0 0.0
outer loop
vertex -17.0 36.06217782656 28.4999999999127
vertex -17.0 45.0000000001137 46.9999999998911
vertex -17.0 30.0000000000774 31.9999999999274
endloop
endfacet
facet normal 1.0 0.0 0.0
outer loop
vertex -17.0 30.0000000000774 31.9999999999274
vertex -17.0 45.0000000001137 46.9999999998911
vertex -17.0 -4.99999999991533 35.0000000000121
endloop
endfacet
facet normal 1.0 0.0 0.0
outer loop
vertex -17.0 -4.99999999991533 35.0000000000121
vertex -17.0 45.0000000001137 46.9999999998911
vertex -17.0 -4.99999999989112 45.0000000000121
endloop
endfacet
facet normal 1.0 0.0 0.0
outer loop
vertex -17.0 -4.99999999989112 45.0000000000121
vertex -17.0 45.0000000001137 46.9999999998911
vertex -17.0 -19.9999999998911 45.0000000000484
endloop
endfacet
facet normal 1.0 0.0 0.0
outer loop
vertex -17.0 -24.9999999999928 3.00000000006051
vertex -17.0 -19.9999999999879 5.03577644786167
vertex -17.0 -24.9999999998863 47.0000000000605
endloop
endfacet
facet normal 1.0 0.0 0.0
outer loop
vertex -17.0 -19.9999999999879 5.03577644786167
vertex -17.0 -24.9999999999928 3.00000000006051
vertex -17.0 -4.99999999998785 5.03577644782536
endloop
endfacet
facet normal 1.0 0.0 0.0
outer loop
vertex -17.0 -24.9999999998863 47.0000000000605
vertex -17.0 -19.9999999999879 5.03577644786167
vertex -17.0 -19.9999999999637 15.0357764478617
endloop
endfacet
facet normal 1.0 0.0 0.0
outer loop
vertex -17.0 -24.9999999998863 47.0000000000605
vertex -17.0 -19.9999999999637 15.0357764478617
vertex -17.0 -20.0167373086823 20.0603199693955
endloop
endfacet
facet normal 1.0 0.0 0.0
outer loop
vertex -17.0 -20.0167373086823 20.0603199693955
vertex -17.0 -19.9999999999637 15.0357764478617
vertex -17.0 30.0000000000435 17.9999999999274
endloop
endfacet
facet normal 1.0 0.0 0.0
outer loop
vertex -17.0 -20.0167373086823 20.0603199693955
vertex -17.0 30.0000000000435 17.9999999999274
vertex -17.0 -5.01673730868231 20.0603199693592
endloop
endfacet
facet normal 1.0 0.0 0.0
outer loop
vertex -17.0 -24.9999999998863 47.0000000000605
vertex -17.0 -20.0167373086823 20.0603199693955
vertex -17.0 -20.0167373086581 30.0603199693955
endloop
endfacet
facet normal 1.0 0.0 0.0
outer loop
vertex -17.0 -24.9999999998863 47.0000000000605
vertex -17.0 -20.0167373086581 30.0603199693955
vertex -17.0 -19.9999999999153 35.0000000000484
endloop
endfacet
facet normal 1.0 0.0 0.0
outer loop
vertex -17.0 -19.9999999999153 35.0000000000484
vertex -17.0 -20.0167373086581 30.0603199693955
vertex -17.0 30.0000000000774 31.9999999999274
endloop
endfacet
facet normal 1.0 0.0 0.0
outer loop
vertex -17.0 -19.9999999999153 35.0000000000484
vertex -17.0 30.0000000000774 31.9999999999274
vertex -17.0 -4.99999999991533 35.0000000000121
endloop
endfacet
facet normal 1.0 0.0 0.0
outer loop
vertex -17.0 -24.9999999998863 47.0000000000605
vertex -17.0 -19.9999999999153 35.0000000000484
vertex -17.0 -19.9999999998911 45.0000000000484
endloop
endfacet
facet normal 1.0 0.0 0.0
outer loop
vertex -17.0 -24.9999999998863 47.0000000000605
vertex -17.0 -19.9999999998911 45.0000000000484
vertex -17.0 45.0000000001137 46.9999999998911
endloop
endfacet
facet normal 0.0 0.965925826289694 0.258819045100185
outer loop
vertex 40.0 -19.7633135561522 23.7205009347411
vertex 37.0 -19.263811443632 22.5145961602525
vertex 37.0 -19.7633135561522 23.7205009347411
endloop
endfacet
facet normal 0.0 0.866025403785648 0.499999999997906
outer loop
vertex 37.0 -19.263811443632 22.5145961602525
vertex 40.0 -19.7633135561522 23.7205009347411
vertex 40.0 -19.263811443632 22.5145961602525
endloop
endfacet
facet normal 0.0 -0.866025403783227 0.500000000002099
outer loop
vertex 40.0 -10.603557405824 7.51459616023155
vertex 37.0 -10.1040552932979 8.72050093471774
vertex 37.0 -10.603557405824 7.51459616023155
endloop
endfacet
facet normal 0.0 -0.965925826288441 0.258819045104861
outer loop
vertex 37.0 -10.1040552932979 8.72050093471774
vertex 40.0 -10.603557405824 7.51459616023155
vertex 40.0 -10.1040552932979 8.72050093471774
endloop
endfacet
facet normal 0.0 -2.4166396497954e-012 -1.0
outer loop
vertex 40.0 -14.933684424728 15.014596160242
vertex 37.0 -13.6395891992158 14.8442252916842
vertex 40.0 -13.6395891992158 14.8442252916842
endloop
endfacet
facet normal 0.0 -0.258819045104861 -0.965925826288441
outer loop
vertex 37.0 -13.6395891992158 14.8442252916842
vertex 40.0 -14.933684424728 15.014596160242
vertex 37.0 -14.933684424728 15.014596160242
endloop
endfacet
facet normal 0.0 0.86602540378565 0.499999999997902
outer loop
vertex 40.0 -19.2638114436683 7.5145961602525
vertex 37.0 -18.4692183306814 6.47906225431784
vertex 37.0 -19.2638114436683 7.5145961602525
endloop
endfacet
facet normal 0.0 0.707106781188257 0.707106781184839
outer loop
vertex 37.0 -18.4692183306814 6.47906225431784
vertex 40.0 -19.2638114436683 7.5145961602525
vertex 40.0 -18.4692183306814 6.47906225431784
endloop
endfacet
facet normal 0.0 0.499999999997903 -0.866025403785649
outer loop
vertex -17.0 23.9378221735779 28.4999999999421
vertex -20.0 30.0000000000774 31.9999999999274
vertex -17.0 30.0000000000774 31.9999999999274
endloop
endfacet
facet normal 0.0 0.499999999997903 -0.866025403785649
outer loop
vertex -20.0 30.0000000000774 31.9999999999274
vertex -17.0 23.9378221735779 28.4999999999421
vertex -20.0 23.9378221735779 28.4999999999421
endloop
endfacet
facet normal 0.0 -0.866025403785647 -0.499999999997908
outer loop
vertex 40.0 -10.6035574058118 12.5145961602316
vertex 37.0 -11.3981505187988 13.5501300661662
vertex 37.0 -10.6035574058118 12.5145961602316
endloop
endfacet
facet normal 0.0 -0.707106781188257 -0.707106781184838
outer loop
vertex 37.0 -11.3981505187988 13.5501300661662
vertex 40.0 -10.6035574058118 12.5145961602316
vertex 40.0 -11.3981505187988 13.5501300661662
endloop
endfacet
facet normal 0.0 0.707106781184836 -0.70710678118826
outer loop
vertex 40.0 -18.4692183306643 13.5501300661833
vertex 37.0 -17.4336844247296 14.3447231791703
vertex 40.0 -17.4336844247296 14.3447231791703
endloop
endfacet
facet normal 0.0 0.499999999997906 -0.866025403785648
outer loop
vertex 37.0 -17.4336844247296 14.3447231791703
vertex 40.0 -18.4692183306643 13.5501300661833
vertex 37.0 -18.4692183306643 13.5501300661833
endloop
endfacet
facet normal 0.0 0.866025403783227 -0.500000000002099
outer loop
vertex 40.0 -19.2638114436199 27.5145961602525
vertex 37.0 -19.763313556146 26.3086913857663
vertex 37.0 -19.2638114436199 27.5145961602525
endloop
endfacet
facet normal 0.0 0.965925826288442 -0.258819045104857
outer loop
vertex 37.0 -19.763313556146 26.3086913857663
vertex 40.0 -19.2638114436199 27.5145961602525
vertex 40.0 -19.763313556146 26.3086913857663
endloop
endfacet
facet normal 0.0 0.866025403783227 -0.500000000002099
outer loop
vertex 40.0 -19.2638114436562 12.5145961602525
vertex 37.0 -19.7633135561823 11.3086913857663
vertex 37.0 -19.2638114436562 12.5145961602525
endloop
endfacet
facet normal 0.0 0.965925826288442 -0.258819045104857
outer loop
vertex 37.0 -19.7633135561823 11.3086913857663
vertex 40.0 -19.2638114436562 12.5145961602525
vertex 40.0 -19.7633135561823 11.3086913857663
endloop
endfacet
facet normal 0.0 1.0 -2.42035558262188e-012
outer loop
vertex 40.0 45.0000000001137 46.9999999998911
vertex 37.0 45.0000000000072 2.99999999989108
vertex 37.0 45.0000000001137 46.9999999998911
endloop
endfacet
facet normal 0.0 1.0 -2.42035558262188e-012
outer loop
vertex -17.0 45.0000000001137 46.9999999998911
vertex -20.0 45.0 -1.08915565455447e-010
vertex -20.0 45.0000000001137 46.9999999998911
endloop
endfacet
facet normal 0.0 1.0 -2.42035558262188e-012
outer loop
vertex -20.0 45.0 -1.08915565455447e-010
vertex -17.0 45.0000000001137 46.9999999998911
vertex -17.0 45.0000000000072 2.99999999989108
endloop
endfacet
facet normal 0.0 1.0 -2.42035558262188e-012
outer loop
vertex -20.0 45.0 -1.08915565455447e-010
vertex -17.0 45.0000000000072 2.99999999989108
vertex 40.0 45.0 -1.08915565455447e-010
endloop
endfacet
facet normal 0.0 1.0 -2.42035558262188e-012
outer loop
vertex 40.0 45.0 -1.08915565455447e-010
vertex -17.0 45.0000000000072 2.99999999989108
vertex 37.0 45.0000000000072 2.99999999989108
endloop
endfacet
facet normal 0.0 1.0 -2.42035558262188e-012
outer loop
vertex 40.0 45.0 -1.08915565455447e-010
vertex 37.0 45.0000000000072 2.99999999989108
vertex 40.0 45.0000000001137 46.9999999998911
endloop
endfacet
facet normal 0.0 -1.0 2.42035558262188e-012
outer loop
vertex -17.0 -5.01673730868231 20.0603199693592
vertex -20.0 -5.01673730865811 30.0603199693592
vertex -20.0 -5.01673730868231 20.0603199693592
endloop
endfacet
facet normal 0.0 -1.0 2.42035558262188e-012
outer loop
vertex -20.0 -5.01673730865811 30.0603199693592
vertex -17.0 -5.01673730868231 20.0603199693592
vertex -17.0 -5.01673730865811 30.0603199693592
endloop
endfacet
facet normal 0.0 0.499999999997899 -0.866025403785652
outer loop
vertex 40.0 -17.433684424657 44.3447231791703
vertex 37.0 -16.2277796501684 44.8442252916905
vertex 40.0 -16.2277796501684 44.8442252916905
endloop
endfacet
facet normal 0.0 0.258819045100188 -0.965925826289694
outer loop
vertex 37.0 -16.2277796501684 44.8442252916905
vertex 40.0 -17.433684424657 44.3447231791703
vertex 37.0 -17.433684424657 44.3447231791703
endloop
endfacet
facet normal 0.0 0.707106781184836 -0.70710678118826
outer loop
vertex 40.0 -18.469218330628 28.5501300661833
vertex 37.0 -19.2638114436199 27.5145961602525
vertex 37.0 -18.469218330628 28.5501300661833
endloop
endfacet
facet normal 0.0 0.866025403783227 -0.500000000002099
outer loop
vertex 37.0 -19.2638114436199 27.5145961602525
vertex 40.0 -18.469218330628 28.5501300661833
vertex 40.0 -19.2638114436199 27.5145961602525
endloop
endfacet
facet normal 0.0 2.42035558262188e-012 1.0
outer loop
vertex -20.0 -20.0167373086823 20.0603199693955
vertex -17.0 -5.01673730868231 20.0603199693592
vertex -20.0 -5.01673730868231 20.0603199693592
endloop
endfacet
facet normal 0.0 2.42035558262188e-012 1.0
outer loop
vertex -17.0 -5.01673730868231 20.0603199693592
vertex -20.0 -20.0167373086823 20.0603199693955
vertex -17.0 -20.0167373086823 20.0603199693955
endloop
endfacet
facet normal 0.0 -0.258819045100184 0.965925826289695
outer loop
vertex 37.0 -13.6395891992029 20.1849670287936
vertex 40.0 -12.4336844247143 20.6844691413138
vertex 37.0 -12.4336844247143 20.6844691413138
endloop
endfacet
facet normal 0.0 -0.499999999997904 0.866025403785649
outer loop
vertex 40.0 -12.4336844247143 20.6844691413138
vertex 37.0 -13.6395891992029 20.1849670287936
vertex 40.0 -13.6395891992029 20.1849670287936
endloop
endfacet
facet normal 0.0 0.866025403783229 -0.500000000002095
outer loop
vertex 40.0 30.0000000000726 29.9999999999274
vertex 37.0 25.6698729811322 22.4999999999379
vertex 37.0 30.0000000000726 29.9999999999274
endloop
endfacet
facet normal 0.0 0.866025403783229 -0.500000000002095
outer loop
vertex 37.0 25.6698729811322 22.4999999999379
vertex 40.0 30.0000000000726 29.9999999999274
vertex 40.0 25.6698729811322 22.4999999999379
endloop
endfacet
facet normal 0.0 -0.499999999997903 0.866025403785649
outer loop
vertex 37.0 -12.4336844246779 35.6844691413138
vertex 40.0 -11.3981505187433 36.4790622543007
vertex 37.0 -11.3981505187433 36.4790622543007
endloop
endfacet
facet normal 0.0 -0.707106781184829 0.707106781188266
outer loop
vertex 40.0 -11.3981505187433 36.4790622543007
vertex 37.0 -12.4336844246779 35.6844691413138
vertex 40.0 -12.4336844246779 35.6844691413138
endloop
endfacet
facet normal 0.0 0.258819045104864 0.96592582628844
outer loop
vertex 37.0 -16.2277796501918 35.1849670287998
vertex 40.0 -14.9336844246796 35.014596160242
vertex 37.0 -14.9336844246796 35.014596160242
endloop
endfacet
facet normal 0.0 2.4123355837158e-012 1.0
outer loop
vertex 40.0 -14.9336844246796 35.014596160242
vertex 37.0 -16.2277796501918 35.1849670287998
vertex 40.0 -16.2277796501918 35.1849670287998
endloop
endfacet
facet normal 0.0 0.258819045100185 -0.965925826289694
outer loop
vertex 40.0 -16.227779650241 14.8442252916905
vertex 37.0 -14.933684424728 15.014596160242
vertex 40.0 -14.933684424728 15.014596160242
endloop
endfacet
facet normal 0.0 -2.4166396497954e-012 -1.0
outer loop
vertex 37.0 -14.933684424728 15.014596160242
vertex 40.0 -16.227779650241 14.8442252916905
vertex 37.0 -16.227779650241 14.8442252916905
endloop
endfacet
facet normal 0.0 0.499999999997906 -0.866025403785648
outer loop
vertex 40.0 -17.4336844246933 29.3447231791703
vertex 37.0 -16.2277796502047 29.8442252916905
vertex 40.0 -16.2277796502047 29.8442252916905
endloop
endfacet
facet normal 0.0 0.258819045100185 -0.965925826289694
outer loop
vertex 37.0 -16.2277796502047 29.8442252916905
vertex 40.0 -17.4336844246933 29.3447231791703
vertex 37.0 -17.4336844246933 29.3447231791703
endloop
endfacet
facet normal 0.0 2.42035558262188e-012 1.0
outer loop
vertex -20.0 -19.9999999999153 35.0000000000484
vertex -17.0 -4.99999999991533 35.0000000000121
vertex -20.0 -4.99999999991533 35.0000000000121
endloop
endfacet
facet normal 0.0 2.42035558262188e-012 1.0
outer loop
vertex -17.0 -4.99999999991533 35.0000000000121
vertex -20.0 -19.9999999999153 35.0000000000484
vertex -17.0 -19.9999999999153 35.0000000000484
endloop
endfacet
facet normal 0.0 0.707106781184836 -0.70710678118826
outer loop
vertex 40.0 -18.469218330628 28.5501300661833
vertex 37.0 -17.4336844246933 29.3447231791703
vertex 40.0 -17.4336844246933 29.3447231791703
endloop
endfacet
facet normal 0.0 0.499999999997906 -0.866025403785648
outer loop
vertex 37.0 -17.4336844246933 29.3447231791703
vertex 40.0 -18.469218330628 28.5501300661833
vertex 37.0 -18.469218330628 28.5501300661833
endloop
endfacet
facet normal 0.0 -0.866025403783226 0.500000000002101
outer loop
vertex 40.0 -10.6035574057513 37.5145961602315
vertex 37.0 -10.1040552932253 38.7205009347177
vertex 37.0 -10.6035574057513 37.5145961602315
endloop
endfacet
facet normal 0.0 -0.965925826288443 0.258819045104856
outer loop
vertex 37.0 -10.1040552932253 38.7205009347177
vertex 40.0 -10.6035574057513 37.5145961602315
vertex 40.0 -10.1040552932253 38.7205009347177
endloop
endfacet
facet normal 0.0 -0.866025403785653 -0.499999999997897
outer loop
vertex 40.0 -10.6035574057392 42.5145961602315
vertex 37.0 -11.3981505187262 43.5501300661662
vertex 37.0 -10.6035574057392 42.5145961602315
endloop
endfacet
facet normal 0.0 -0.707106781188257 -0.707106781184838
outer loop
vertex 37.0 -11.3981505187262 43.5501300661662
vertex 40.0 -10.6035574057392 42.5145961602315
vertex 40.0 -11.3981505187262 43.5501300661662
endloop
endfacet
facet normal 0.0 0.866025403785649 0.499999999997904
outer loop
vertex 40.0 25.6698729811322 22.4999999999379
vertex 37.0 30.0000000000363 14.9999999999274
vertex 37.0 25.6698729811322 22.4999999999379
endloop
endfacet
facet normal 0.0 0.866025403785649 0.499999999997904
outer loop
vertex 37.0 30.0000000000363 14.9999999999274
vertex 40.0 25.6698729811322 22.4999999999379
vertex 40.0 30.0000000000363 14.9999999999274
endloop
endfacet
facet normal 0.0 -0.965925826288441 0.258819045104861
outer loop
vertex 40.0 -10.1040552932616 23.7205009347177
vertex 37.0 -9.93368442470378 25.0145961602299
vertex 37.0 -10.1040552932616 23.7205009347177
endloop
endfacet
facet normal 0.0 -1.0 2.42035558262188e-012
outer loop
vertex 37.0 -9.93368442470378 25.0145961602299
vertex 40.0 -10.1040552932616 23.7205009347177
vertex 40.0 -9.93368442470378 25.0145961602299
endloop
endfacet
facet normal 0.0 -1.0 2.42035558262188e-012
outer loop
vertex -17.0 -24.9999999998863 47.0000000000605
vertex -20.0 -24.9999999998863 47.0000000000605
vertex -17.0 -24.9999999999928 3.00000000006051
endloop
endfacet
facet normal 0.0 -1.0 2.42035558262188e-012
outer loop
vertex -20.0 -25.0 6.05093253280842e-011
vertex -17.0 -24.9999999999928 3.00000000006051
vertex -20.0 -24.9999999998863 47.0000000000605
endloop
endfacet
facet normal 0.0 -1.0 2.42035558262188e-012
outer loop
vertex -17.0 -24.9999999999928 3.00000000006051
vertex -20.0 -25.0 6.05093253280842e-011
vertex 40.0 -25.0 6.05093253280842e-011
endloop
endfacet
facet normal 0.0 -1.0 2.42035558262188e-012
outer loop
vertex -17.0 -24.9999999999928 3.00000000006051
vertex 40.0 -25.0 6.05093253280842e-011
vertex 37.0 -24.9999999999928 3.00000000006051
endloop
endfacet
facet normal 0.0 -1.0 2.42035558262188e-012
outer loop
vertex 37.0 -24.9999999999928 3.00000000006051
vertex 40.0 -25.0 6.05093253280842e-011
vertex 37.0 -24.9999999998863 47.0000000000605
endloop
endfacet
facet normal 0.0 -1.0 2.42035558262188e-012
outer loop
vertex 37.0 -24.9999999998863 47.0000000000605
vertex 40.0 -25.0 6.05093253280842e-011
vertex 40.0 -24.9999999998863 47.0000000000605
endloop
endfacet
facet normal 0.0 -2.42091698254531e-012 -1.0
outer loop
vertex 40.0 -14.9336844246917 30.014596160242
vertex 37.0 -13.6395891991795 29.8442252916842
vertex 40.0 -13.6395891991795 29.8442252916842
endloop
endfacet
facet normal 0.0 -0.258819045104861 -0.965925826288441
outer loop
vertex 37.0 -13.6395891991795 29.8442252916842
vertex 40.0 -14.9336844246917 30.014596160242
vertex 37.0 -14.9336844246917 30.014596160242
endloop
endfacet
facet normal 0.0 0.707106781188252 0.707106781184843
outer loop
vertex 37.0 -18.4692183306088 36.4790622543178
vertex 40.0 -17.433684424678 35.6844691413259
vertex 37.0 -17.433684424678 35.6844691413259
endloop
endfacet
facet normal 0.0 0.5000000000021 0.866025403783226
outer loop
vertex 40.0 -17.433684424678 35.6844691413259
vertex 37.0 -18.4692183306088 36.4790622543178
vertex 40.0 -18.4692183306088 36.4790622543178
endloop
endfacet
facet normal 0.0 -1.0 2.42035558262188e-012
outer loop
vertex -17.0 -4.99999999991533 35.0000000000121
vertex -20.0 -4.99999999989112 45.0000000000121
vertex -20.0 -4.99999999991533 35.0000000000121
endloop
endfacet
facet normal 0.0 -1.0 2.42035558262188e-012
outer loop
vertex -20.0 -4.99999999989112 45.0000000000121
vertex -17.0 -4.99999999991533 35.0000000000121
vertex -17.0 -4.99999999989112 45.0000000000121
endloop
endfacet
facet normal 0.0 -0.965925826289695 -0.258819045100183
outer loop
vertex 40.0 -10.1040552932553 26.3086913857429
vertex 37.0 -10.6035574057755 27.5145961602316
vertex 37.0 -10.1040552932553 26.3086913857429
endloop
endfacet
facet normal 0.0 -0.866025403785647 -0.499999999997908
outer loop
vertex 37.0 -10.6035574057755 27.5145961602316
vertex 40.0 -10.1040552932553 26.3086913857429
vertex 40.0 -10.6035574057755 27.5145961602316
endloop
endfacet
facet normal 0.0 0.500000000002097 0.866025403783228
outer loop
vertex -20.0 23.9378221735609 21.4999999999421
vertex -17.0 30.0000000000435 17.9999999999274
vertex -20.0 30.0000000000435 17.9999999999274
endloop
endfacet
facet normal 0.0 0.500000000002097 0.866025403783228
outer loop
vertex -17.0 30.0000000000435 17.9999999999274
vertex -20.0 23.9378221735609 21.4999999999421
vertex -17.0 23.9378221735609 21.4999999999421
endloop
endfacet
facet normal 1.0 0.0 0.0
outer loop
vertex -15.0 7.21347426235752e-012 3.0
vertex -15.0 -20.0 4.84075474149748e-011
vertex -15.0 -4.51194637207664e-014 4.35762537162951e-016
endloop
endfacet
facet normal 1.0 0.0 0.0
outer loop
vertex -15.0 -20.0 4.84075474149748e-011
vertex -15.0 7.21347426235752e-012 3.0
vertex -15.0 -19.9999999999928 3.0000000000484
endloop
endfacet
facet normal 0.0 0.500000000002096 0.866025403783228
outer loop
vertex 37.0 -17.4336844247506 5.68446914132589
vertex 40.0 -16.2277796502644 5.18496702879981
vertex 37.0 -16.2277796502644 5.18496702879981
endloop
endfacet
facet normal 0.0 0.258819045104861 0.965925826288441
outer loop
vertex 40.0 -16.2277796502644 5.18496702879981
vertex 37.0 -17.4336844247506 5.68446914132589
vertex 40.0 -17.4336844247506 5.68446914132589
endloop
endfacet
facet normal 0.0 0.707106781188257 0.707106781184839
outer loop
vertex 37.0 -18.4692183306814 6.47906225431784
vertex 40.0 -17.4336844247506 5.68446914132589
vertex 37.0 -17.4336844247506 5.68446914132589
endloop
endfacet
facet normal 0.0 0.500000000002096 0.866025403783228
outer loop
vertex 40.0 -17.4336844247506 5.68446914132589
vertex 37.0 -18.4692183306814 6.47906225431784
vertex 40.0 -18.4692183306814 6.47906225431784
endloop
endfacet
facet normal 0.0 0.70710678118826 0.707106781184836
outer loop
vertex 37.0 -18.4692183306451 21.4790622543179
vertex 40.0 -17.4336844247143 20.6844691413259
vertex 37.0 -17.4336844247143 20.6844691413259
endloop
endfacet
facet normal 0.0 0.500000000002099 0.866025403783227
outer loop
vertex 40.0 -17.4336844247143 20.6844691413259
vertex 37.0 -18.4692183306451 21.4790622543179
vertex 40.0 -18.4692183306451 21.4790622543179
endloop
endfacet
facet normal 0.0 2.42035558262188e-012 1.0
outer loop
vertex -17.0 45.0000000000072 2.99999999989108
vertex -10.0 35.0000000000072 2.99999999991526
vertex 37.0 45.0000000000072 2.99999999989108
endloop
endfacet
facet normal 0.0 2.42035558262188e-012 1.0
outer loop
vertex -10.0 35.0000000000072 2.99999999991526
vertex -17.0 45.0000000000072 2.99999999989108
vertex -15.0 7.21347426235752e-012 3.0
endloop
endfacet
facet normal 0.0 2.42035558262188e-012 1.0
outer loop
vertex -15.0 7.21347426235752e-012 3.0
vertex -17.0 45.0000000000072 2.99999999989108
vertex -17.0 -24.9999999999928 3.00000000006051
endloop
endfacet
facet normal 0.0 2.42035558262188e-012 1.0
outer loop
vertex -10.0 35.0000000000072 2.99999999991526
vertex -15.0 7.21347426235752e-012 3.0
vertex -10.0 20.0000000000072 2.99999999995157
endloop
endfacet
facet normal 0.0 2.42035558262188e-012 1.0
outer loop
vertex -10.0 20.0000000000072 2.99999999995157
vertex -15.0 7.21347426235752e-012 3.0
vertex 15.0 20.0000000000072 2.99999999995157
endloop
endfacet
facet normal 0.0 2.42035558262188e-012 1.0
outer loop
vertex -15.0 7.21347426235752e-012 3.0
vertex -17.0 -24.9999999999928 3.00000000006051
vertex -15.0 -19.9999999999928 3.0000000000484
endloop
endfacet
facet normal 0.0 2.42035558262188e-012 1.0
outer loop
vertex -15.0 -19.9999999999928 3.0000000000484
vertex -17.0 -24.9999999999928 3.00000000006051
vertex -8.45989944764369e-015 -19.9999999999928 3.0000000000484
endloop
endfacet
facet normal 0.0 2.42035558262188e-012 1.0
outer loop
vertex -8.45989944764369e-015 -19.9999999999928 3.0000000000484
vertex -17.0 -24.9999999999928 3.00000000006051
vertex 20.0 -19.9999999999928 3.00000000004839
endloop
endfacet
facet normal 0.0 2.42035558262188e-012 1.0
outer loop
vertex 20.0 -19.9999999999928 3.00000000004839
vertex -17.0 -24.9999999999928 3.00000000006051
vertex 35.0 -19.9999999999928 3.00000000004839
endloop
endfacet
facet normal 0.0 2.42035558262188e-012 1.0
outer loop
vertex 37.0 45.0000000000072 2.99999999989108
vertex 35.0 7.21347426235752e-012 2.99999999999999
vertex 37.0 -24.9999999999928 3.00000000006051
endloop
endfacet
facet normal 0.0 2.42035558262188e-012 1.0
outer loop
vertex 35.0 7.21347426235752e-012 2.99999999999999
vertex 37.0 45.0000000000072 2.99999999989108
vertex 15.0 35.0000000000072 2.99999999991526
endloop
endfacet
facet normal 0.0 2.42035558262188e-012 1.0
outer loop
vertex 15.0 35.0000000000072 2.99999999991526
vertex 37.0 45.0000000000072 2.99999999989108
vertex -10.0 35.0000000000072 2.99999999991526
endloop
endfacet
facet normal 0.0 2.42035558262188e-012 1.0
outer loop
vertex 35.0 7.21347426235752e-012 2.99999999999999
vertex 15.0 35.0000000000072 2.99999999991526
vertex 15.0 20.0000000000072 2.99999999995157
endloop
endfacet
facet normal 0.0 2.42035558262188e-012 1.0
outer loop
vertex 35.0 7.21347426235752e-012 2.99999999999999
vertex 15.0 20.0000000000072 2.99999999995157
vertex -15.0 7.21347426235752e-012 3.0
endloop
endfacet
facet normal 0.0 2.42035558262188e-012 1.0
outer loop
vertex 35.0 7.21347426235752e-012 2.99999999999999
vertex -15.0 7.21347426235752e-012 3.0
vertex -8.45989944764369e-015 7.21347426235752e-012 3.0
endloop
endfacet
facet normal 0.0 2.42035558262188e-012 1.0
outer loop
vertex 35.0 7.21347426235752e-012 2.99999999999999
vertex -8.45989944764369e-015 7.21347426235752e-012 3.0
vertex 20.0 7.21347426235752e-012 2.99999999999999
endloop
endfacet
facet normal 0.0 2.42035558262188e-012 1.0
outer loop
vertex 37.0 -24.9999999999928 3.00000000006051
vertex 35.0 7.21347426235752e-012 2.99999999999999
vertex 35.0 -19.9999999999928 3.00000000004839
endloop
endfacet
facet normal 0.0 2.42035558262188e-012 1.0
outer loop
vertex 37.0 -24.9999999999928 3.00000000006051
vertex 35.0 -19.9999999999928 3.00000000004839
vertex -17.0 -24.9999999999928 3.00000000006051
endloop
endfacet
facet normal 0.0 2.42035558262188e-012 1.0
outer loop
vertex -8.45989944764369e-015 -19.9999999999928 3.0000000000484
vertex 20.0 7.21347426235752e-012 2.99999999999999
vertex -8.45989944764369e-015 7.21347426235752e-012 3.0
endloop
endfacet
facet normal 0.0 2.42035558262188e-012 1.0
outer loop
vertex 20.0 7.21347426235752e-012 2.99999999999999
vertex -8.45989944764369e-015 -19.9999999999928 3.0000000000484
vertex 20.0 -19.9999999999928 3.00000000004839
endloop
endfacet
facet normal -1.0 0.0 0.0
outer loop
vertex -20.0 -25.0 6.05093253280842e-011
vertex -20.0 -19.9999999999879 5.03577644786167
vertex -20.0 45.0 -1.08915565455447e-010
endloop
endfacet
facet normal -1.0 0.0 0.0
outer loop
vertex -20.0 -19.9999999999879 5.03577644786167
vertex -20.0 -25.0 6.05093253280842e-011
vertex -20.0 -24.9999999998863 47.0000000000605
endloop
endfacet
facet normal -1.0 0.0 0.0
outer loop
vertex -20.0 -19.9999999999879 5.03577644786167
vertex -20.0 -24.9999999998863 47.0000000000605
vertex -20.0 -19.9999999999637 15.0357764478617
endloop
endfacet
facet normal -1.0 0.0 0.0
outer loop
vertex -20.0 -19.9999999999637 15.0357764478617
vertex -20.0 -24.9999999998863 47.0000000000605
vertex -20.0 -20.0167373086823 20.0603199693955
endloop
endfacet
facet normal -1.0 0.0 0.0
outer loop
vertex -20.0 -19.9999999999637 15.0357764478617
vertex -20.0 -20.0167373086823 20.0603199693955
vertex -20.0 -4.99999999996365 15.0357764478254
endloop
endfacet
facet normal -1.0 0.0 0.0
outer loop
vertex -20.0 -4.99999999996365 15.0357764478254
vertex -20.0 -20.0167373086823 20.0603199693955
vertex -20.0 30.0000000000435 17.9999999999274
endloop
endfacet
facet normal -1.0 0.0 0.0
outer loop
vertex -20.0 -20.0167373086823 20.0603199693955
vertex -20.0 -24.9999999998863 47.0000000000605
vertex -20.0 -20.0167373086581 30.0603199693955
endloop
endfacet
facet normal -1.0 0.0 0.0
outer loop
vertex -20.0 -20.0167373086581 30.0603199693955
vertex -20.0 -24.9999999998863 47.0000000000605
vertex -20.0 -19.9999999999153 35.0000000000484
endloop
endfacet
facet normal -1.0 0.0 0.0
outer loop
vertex -20.0 -20.0167373086581 30.0603199693955
vertex -20.0 -19.9999999999153 35.0000000000484
vertex -20.0 -5.01673730865811 30.0603199693592
endloop
endfacet
facet normal -1.0 0.0 0.0
outer loop
vertex -20.0 -5.01673730865811 30.0603199693592
vertex -20.0 -19.9999999999153 35.0000000000484
vertex -20.0 30.0000000000774 31.9999999999274
endloop
endfacet
facet normal -1.0 0.0 0.0
outer loop
vertex -20.0 -19.9999999999153 35.0000000000484
vertex -20.0 -24.9999999998863 47.0000000000605
vertex -20.0 -19.9999999998911 45.0000000000484
endloop
endfacet
facet normal -1.0 0.0 0.0
outer loop
vertex -20.0 -19.9999999998911 45.0000000000484
vertex -20.0 -24.9999999998863 47.0000000000605
vertex -20.0 -4.99999999989112 45.0000000000121
endloop
endfacet
facet normal -1.0 0.0 0.0
outer loop
vertex -20.0 45.0 -1.08915565455447e-010
vertex -20.0 36.0621778265431 21.4999999999127
vertex -20.0 45.0000000001137 46.9999999998911
endloop
endfacet
facet normal -1.0 0.0 0.0
outer loop
vertex -20.0 36.0621778265431 21.4999999999127
vertex -20.0 45.0 -1.08915565455447e-010
vertex -20.0 30.0000000000435 17.9999999999274
endloop
endfacet
facet normal -1.0 0.0 0.0
outer loop
vertex -20.0 30.0000000000435 17.9999999999274
vertex -20.0 45.0 -1.08915565455447e-010
vertex -20.0 -4.99999999998785 5.03577644782536
endloop
endfacet
facet normal -1.0 0.0 0.0
outer loop
vertex -20.0 -4.99999999998785 5.03577644782536
vertex -20.0 45.0 -1.08915565455447e-010
vertex -20.0 -19.9999999999879 5.03577644786167
endloop
endfacet
facet normal -1.0 0.0 0.0
outer loop
vertex -20.0 30.0000000000435 17.9999999999274
vertex -20.0 -4.99999999998785 5.03577644782536
vertex -20.0 -4.99999999996365 15.0357764478254
endloop
endfacet
facet normal -1.0 0.0 0.0
outer loop
vertex -20.0 45.0000000001137 46.9999999998911
vertex -20.0 36.0621778265431 21.4999999999127
vertex -20.0 36.06217782656 28.4999999999127
endloop
endfacet
facet normal -1.0 0.0 0.0
outer loop
vertex -20.0 45.0000000001137 46.9999999998911
vertex -20.0 36.06217782656 28.4999999999127
vertex -20.0 30.0000000000774 31.9999999999274
endloop
endfacet
facet normal -1.0 0.0 0.0
outer loop
vertex -20.0 45.0000000001137 46.9999999998911
vertex -20.0 30.0000000000774 31.9999999999274
vertex -20.0 -4.99999999991533 35.0000000000121
endloop
endfacet
facet normal -1.0 0.0 0.0
outer loop
vertex -20.0 -4.99999999991533 35.0000000000121
vertex -20.0 30.0000000000774 31.9999999999274
vertex -20.0 -19.9999999999153 35.0000000000484
endloop
endfacet
facet normal -1.0 0.0 0.0
outer loop
vertex -20.0 45.0000000001137 46.9999999998911
vertex -20.0 -4.99999999991533 35.0000000000121
vertex -20.0 -4.99999999989112 45.0000000000121
endloop
endfacet
facet normal -1.0 0.0 0.0
outer loop
vertex -20.0 45.0000000001137 46.9999999998911
vertex -20.0 -4.99999999989112 45.0000000000121
vertex -20.0 -24.9999999998863 47.0000000000605
endloop
endfacet
facet normal -1.0 0.0 0.0
outer loop
vertex -20.0 30.0000000000435 17.9999999999274
vertex -20.0 -5.01673730868231 20.0603199693592
vertex -20.0 23.9378221735609 21.4999999999421
endloop
endfacet
facet normal -1.0 0.0 0.0
outer loop
vertex -20.0 -5.01673730868231 20.0603199693592
vertex -20.0 30.0000000000435 17.9999999999274
vertex -20.0 -20.0167373086823 20.0603199693955
endloop
endfacet
facet normal -1.0 0.0 0.0
outer loop
vertex -20.0 23.9378221735609 21.4999999999421
vertex -20.0 -5.01673730868231 20.0603199693592
vertex -20.0 -5.01673730865811 30.0603199693592
endloop
endfacet
facet normal -1.0 0.0 0.0
outer loop
vertex -20.0 23.9378221735609 21.4999999999421
vertex -20.0 -5.01673730865811 30.0603199693592
vertex -20.0 23.9378221735779 28.4999999999421
endloop
endfacet
facet normal -1.0 0.0 0.0
outer loop
vertex -20.0 23.9378221735779 28.4999999999421
vertex -20.0 -5.01673730865811 30.0603199693592
vertex -20.0 30.0000000000774 31.9999999999274
endloop
endfacet
facet normal 0.0 1.0 -2.42035558262188e-012
outer loop
vertex -17.0 -19.9999999999637 15.0357764478617
vertex -20.0 -19.9999999999879 5.03577644786167
vertex -20.0 -19.9999999999637 15.0357764478617
endloop
endfacet
facet normal 0.0 1.0 -2.42035558262188e-012
outer loop
vertex -20.0 -19.9999999999879 5.03577644786167
vertex -17.0 -19.9999999999637 15.0357764478617
vertex -17.0 -19.9999999999879 5.03577644786167
endloop
endfacet
facet normal 0.0 -0.965925826289695 -0.258819045100183
outer loop
vertex 40.0 -10.1040552932916 11.3086913857429
vertex 37.0 -10.6035574058118 12.5145961602316
vertex 37.0 -10.1040552932916 11.3086913857429
endloop
endfacet
facet normal 0.0 -0.866025403785647 -0.499999999997908
outer loop
vertex 37.0 -10.6035574058118 12.5145961602316
vertex 40.0 -10.1040552932916 11.3086913857429
vertex 40.0 -10.6035574058118 12.5145961602316
endloop
endfacet
facet normal 0.0 -1.0 2.41380591684858e-012
outer loop
vertex 40.0 -9.93368442466747 40.0145961602299
vertex 37.0 -10.104055293219 41.3086913857429
vertex 37.0 -9.93368442466747 40.0145961602299
endloop
endfacet
facet normal 0.0 -0.965925826289694 -0.258819045100186
outer loop
vertex 37.0 -10.104055293219 41.3086913857429
vertex 40.0 -9.93368442466747 40.0145961602299
vertex 40.0 -10.104055293219 41.3086913857429
endloop
endfacet
facet normal 0.0 -0.707106781184838 0.707106781188257
outer loop
vertex 40.0 -11.3981505188159 6.47906225430074
vertex 37.0 -10.603557405824 7.51459616023155
vertex 37.0 -11.3981505188159 6.47906225430074
endloop
endfacet
facet normal 0.0 -0.866025403783227 0.500000000002099
outer loop
vertex 37.0 -10.603557405824 7.51459616023155
vertex 40.0 -11.3981505188159 6.47906225430074
vertex 40.0 -10.603557405824 7.51459616023155
endloop
endfacet
facet normal 0.0 2.42035558262188e-012 1.0
outer loop
vertex 37.0 -14.9336844247522 5.01459616024203
vertex 40.0 -13.6395891992392 5.18496702879355
vertex 37.0 -13.6395891992392 5.18496702879355
endloop
endfacet
facet normal 0.0 -0.258819045100183 0.965925826289695
outer loop
vertex 40.0 -13.6395891992392 5.18496702879355
vertex 37.0 -14.9336844247522 5.01459616024203
vertex 40.0 -14.9336844247522 5.01459616024203
endloop
endfacet
facet normal 0.0 0.866025403783231 -0.500000000002092
outer loop
vertex 40.0 -19.2638114435836 42.5145961602525
vertex 37.0 -19.7633135561097 41.3086913857663
vertex 37.0 -19.2638114435836 42.5145961602525
endloop
endfacet
facet normal 0.0 0.965925826288441 -0.258819045104862
outer loop
vertex 37.0 -19.7633135561097 41.3086913857663
vertex 40.0 -19.2638114435836 42.5145961602525
vertex 40.0 -19.7633135561097 41.3086913857663
endloop
endfacet
facet normal 0.0 -1.0 2.42035558262188e-012
outer loop
vertex -17.0 -4.99999999998785 5.03577644782536
vertex -20.0 -4.99999999996365 15.0357764478254
vertex -20.0 -4.99999999998785 5.03577644782536
endloop
endfacet
facet normal 0.0 -1.0 2.42035558262188e-012
outer loop
vertex -20.0 -4.99999999996365 15.0357764478254
vertex -17.0 -4.99999999998785 5.03577644782536
vertex -17.0 -4.99999999996365 15.0357764478254
endloop
endfacet
facet normal 0.0 -0.707106781184838 0.707106781188257
outer loop
vertex 40.0 -11.3981505187796 21.4790622543007
vertex 37.0 -10.6035574057876 22.5145961602316
vertex 37.0 -11.3981505187796 21.4790622543007
endloop
endfacet
facet normal 0.0 -0.866025403783227 0.500000000002099
outer loop
vertex 37.0 -10.6035574057876 22.5145961602316
vertex 40.0 -11.3981505187796 21.4790622543007
vertex 40.0 -10.6035574057876 22.5145961602316
endloop
endfacet
facet normal 0.0 -0.965925826288441 0.258819045104861
outer loop
vertex 40.0 -10.1040552932979 8.72050093471774
vertex 37.0 -9.93368442474008 10.0145961602299
vertex 37.0 -10.1040552932979 8.72050093471774
endloop
endfacet
facet normal 0.0 -1.0 2.42035558262188e-012
outer loop
vertex 37.0 -9.93368442474008 10.0145961602299
vertex 40.0 -10.1040552932979 8.72050093471774
vertex 40.0 -9.93368442474008 10.0145961602299
endloop
endfacet
facet normal 0.0 0.707106781184836 -0.70710678118826
outer loop
vertex 40.0 -18.4692183306643 13.5501300661833
vertex 37.0 -19.2638114436562 12.5145961602525
vertex 37.0 -18.4692183306643 13.5501300661833
endloop
endfacet
facet normal 0.0 0.866025403783227 -0.500000000002099
outer loop
vertex 37.0 -19.2638114436562 12.5145961602525
vertex 40.0 -18.4692183306643 13.5501300661833
vertex 40.0 -19.2638114436562 12.5145961602525
endloop
endfacet
facet normal 0.0 0.707106781184836 -0.707106781188259
outer loop
vertex 40.0 -18.4692183305917 43.5501300661833
vertex 37.0 -19.2638114435836 42.5145961602525
vertex 37.0 -18.4692183305917 43.5501300661833
endloop
endfacet
facet normal 0.0 0.866025403783231 -0.500000000002092
outer loop
vertex 37.0 -19.2638114435836 42.5145961602525
vertex 40.0 -18.4692183305917 43.5501300661833
vertex 40.0 -19.2638114435836 42.5145961602525
endloop
endfacet
facet normal -1.0 0.0 0.0
outer loop
vertex -8.45989944764369e-015 -19.9999999999928 3.0000000000484
vertex -8.45989944764369e-015 -4.51194637207664e-014 4.35762537162951e-016
vertex -8.45989944764369e-015 -20.0 4.84075474149748e-011
endloop
endfacet
facet normal -1.0 0.0 0.0
outer loop
vertex -8.45989944764369e-015 -4.51194637207664e-014 4.35762537162951e-016
vertex -8.45989944764369e-015 -19.9999999999928 3.0000000000484
vertex -8.45989944764369e-015 7.21347426235752e-012 3.0
endloop
endfacet
facet normal 0.0 0.5000000000021 0.866025403783226
outer loop
vertex 37.0 -17.433684424678 35.6844691413259
vertex 40.0 -16.2277796501918 35.1849670287998
vertex 37.0 -16.2277796501918 35.1849670287998
endloop
endfacet
facet normal 0.0 0.258819045104864 0.96592582628844
outer loop
vertex 40.0 -16.2277796501918 35.1849670287998
vertex 37.0 -17.433684424678 35.6844691413259
vertex 40.0 -17.433684424678 35.6844691413259
endloop
endfacet
facet normal 0.0 0.965925826288441 -0.258819045104862
outer loop
vertex 40.0 -19.7633135561097 41.3086913857663
vertex 37.0 -19.9336844246675 40.0145961602541
vertex 37.0 -19.7633135561097 41.3086913857663
endloop
endfacet
facet normal 0.0 1.0 -2.42261009342548e-012
outer loop
vertex 37.0 -19.9336844246675 40.0145961602541
vertex 40.0 -19.7633135561097 41.3086913857663
vertex 40.0 -19.9336844246675 40.0145961602541
endloop
endfacet
facet normal 0.0 2.42035558262188e-012 1.0
outer loop
vertex 37.0 -24.9999999998863 47.0000000000605
vertex 40.0 45.0000000001137 46.9999999998911
vertex 37.0 45.0000000001137 46.9999999998911
endloop
endfacet
facet normal 0.0 2.42035558262188e-012 1.0
outer loop
vertex 40.0 45.0000000001137 46.9999999998911
vertex 37.0 -24.9999999998863 47.0000000000605
vertex 40.0 -24.9999999998863 47.0000000000605
endloop
endfacet
facet normal 0.0 0.965925826289695 0.258819045100184
outer loop
vertex 40.0 -19.7633135561886 8.72050093474112
vertex 37.0 -19.2638114436683 7.5145961602525
vertex 37.0 -19.7633135561886 8.72050093474112
endloop
endfacet
facet normal 0.0 0.86602540378565 0.499999999997902
outer loop
vertex 37.0 -19.2638114436683 7.5145961602525
vertex 40.0 -19.7633135561886 8.72050093474112
vertex 40.0 -19.2638114436683 7.5145961602525
endloop
endfacet
facet normal 0.0 -0.866025403783227 0.500000000002099
outer loop
vertex 40.0 -10.6035574057876 22.5145961602316
vertex 37.0 -10.1040552932616 23.7205009347177
vertex 37.0 -10.6035574057876 22.5145961602316
endloop
endfacet
facet normal 0.0 -0.965925826288441 0.258819045104861
outer loop
vertex 37.0 -10.1040552932616 23.7205009347177
vertex 40.0 -10.6035574057876 22.5145961602316
vertex 40.0 -10.1040552932616 23.7205009347177
endloop
endfacet
facet normal 0.0 1.0 -2.42035558262188e-012
outer loop
vertex -8.45989944764369e-015 -19.9999999999928 3.0000000000484
vertex -15.0 -20.0 4.84075474149748e-011
vertex -15.0 -19.9999999999928 3.0000000000484
endloop
endfacet
facet normal 0.0 1.0 -2.42035558262188e-012
outer loop
vertex -15.0 -20.0 4.84075474149748e-011
vertex -8.45989944764369e-015 -19.9999999999928 3.0000000000484
vertex -8.45989944764369e-015 -20.0 4.84075474149748e-011
endloop
endfacet
facet normal -1.0 0.0 0.0
outer loop
vertex 37.0 -14.933684424728 15.014596160242
vertex 37.0 30.0000000000363 14.9999999999274
vertex 37.0 -13.6395891992158 14.8442252916842
endloop
endfacet
facet normal -1.0 0.0 0.0
outer loop
vertex 37.0 30.0000000000363 14.9999999999274
vertex 37.0 -14.933684424728 15.014596160242
vertex 37.0 25.6698729811322 22.4999999999379
endloop
endfacet
facet normal -1.0 0.0 0.0
outer loop
vertex 37.0 25.6698729811322 22.4999999999379
vertex 37.0 -14.933684424728 15.014596160242
vertex 37.0 -14.9336844247159 20.014596160242
endloop
endfacet
facet normal -1.0 0.0 0.0
outer loop
vertex 37.0 25.6698729811322 22.4999999999379
vertex 37.0 -14.9336844247159 20.014596160242
vertex 37.0 -13.6395891992029 20.1849670287936
endloop
endfacet
facet normal -1.0 0.0 0.0
outer loop
vertex 37.0 25.6698729811322 22.4999999999379
vertex 37.0 -13.6395891992029 20.1849670287936
vertex 37.0 -12.4336844247143 20.6844691413138
endloop
endfacet
facet normal -1.0 0.0 0.0
outer loop
vertex 37.0 25.6698729811322 22.4999999999379
vertex 37.0 -12.4336844247143 20.6844691413138
vertex 37.0 -11.3981505187796 21.4790622543007
endloop
endfacet
facet normal -1.0 0.0 0.0
outer loop
vertex 37.0 25.6698729811322 22.4999999999379
vertex 37.0 -11.3981505187796 21.4790622543007
vertex 37.0 -10.6035574057876 22.5145961602316
endloop
endfacet
facet normal -1.0 0.0 0.0
outer loop
vertex 37.0 25.6698729811322 22.4999999999379
vertex 37.0 -10.6035574057876 22.5145961602316
vertex 37.0 30.0000000000726 29.9999999999274
endloop
endfacet
facet normal -1.0 0.0 0.0
outer loop
vertex 37.0 30.0000000000726 29.9999999999274
vertex 37.0 -10.6035574057876 22.5145961602316
vertex 37.0 -10.1040552932616 23.7205009347177
endloop
endfacet
facet normal -1.0 0.0 0.0
outer loop
vertex 37.0 30.0000000000726 29.9999999999274
vertex 37.0 -10.1040552932616 23.7205009347177
vertex 37.0 -9.93368442470378 25.0145961602299
endloop
endfacet
facet normal -1.0 0.0 0.0
outer loop
vertex 37.0 30.0000000000726 29.9999999999274
vertex 37.0 -9.93368442470378 25.0145961602299
vertex 37.0 -10.1040552932553 26.3086913857429
endloop
endfacet
facet normal -1.0 0.0 0.0
outer loop
vertex 37.0 30.0000000000726 29.9999999999274
vertex 37.0 -10.1040552932553 26.3086913857429
vertex 37.0 -10.6035574057755 27.5145961602316
endloop
endfacet
facet normal -1.0 0.0 0.0
outer loop
vertex 37.0 30.0000000000726 29.9999999999274
vertex 37.0 -10.6035574057755 27.5145961602316
vertex 37.0 -11.3981505187625 28.5501300661662
endloop
endfacet
facet normal -1.0 0.0 0.0
outer loop
vertex 37.0 30.0000000000726 29.9999999999274
vertex 37.0 -11.3981505187625 28.5501300661662
vertex 37.0 -12.4336844246933 29.3447231791582
endloop
endfacet
facet normal -1.0 0.0 0.0
outer loop
vertex 37.0 30.0000000000726 29.9999999999274
vertex 37.0 -12.4336844246933 29.3447231791582
vertex 37.0 -13.6395891991795 29.8442252916842
endloop
endfacet
facet normal -1.0 0.0 0.0
outer loop
vertex 37.0 30.0000000000726 29.9999999999274
vertex 37.0 -13.6395891991795 29.8442252916842
vertex 37.0 -14.9336844246917 30.014596160242
endloop
endfacet
facet normal -1.0 0.0 0.0
outer loop
vertex 37.0 -24.9999999999928 3.00000000006051
vertex 37.0 -14.9336844247522 5.01459616024203
vertex 37.0 45.0000000000072 2.99999999989108
endloop
endfacet
facet normal -1.0 0.0 0.0
outer loop
vertex 37.0 -14.9336844247522 5.01459616024203
vertex 37.0 -24.9999999999928 3.00000000006051
vertex 37.0 -16.2277796502644 5.18496702879981
endloop
endfacet
facet normal -1.0 0.0 0.0
outer loop
vertex 37.0 -16.2277796502644 5.18496702879981
vertex 37.0 -24.9999999999928 3.00000000006051
vertex 37.0 -17.4336844247506 5.68446914132589
endloop
endfacet
facet normal -1.0 0.0 0.0
outer loop
vertex 37.0 -17.4336844247506 5.68446914132589
vertex 37.0 -24.9999999999928 3.00000000006051
vertex 37.0 -18.4692183306814 6.47906225431784
endloop
endfacet
facet normal -1.0 0.0 0.0
outer loop
vertex 37.0 -18.4692183306814 6.47906225431784
vertex 37.0 -24.9999999999928 3.00000000006051
vertex 37.0 -19.2638114436683 7.5145961602525
endloop
endfacet
facet normal -1.0 0.0 0.0
outer loop
vertex 37.0 -19.2638114436683 7.5145961602525
vertex 37.0 -24.9999999999928 3.00000000006051
vertex 37.0 -19.7633135561886 8.72050093474112
endloop
endfacet
facet normal -1.0 0.0 0.0
outer loop
vertex 37.0 -19.7633135561886 8.72050093474112
vertex 37.0 -24.9999999999928 3.00000000006051
vertex 37.0 -24.9999999998863 47.0000000000605
endloop
endfacet
facet normal -1.0 0.0 0.0
outer loop
vertex 37.0 -19.7633135561886 8.72050093474112
vertex 37.0 -24.9999999998863 47.0000000000605
vertex 37.0 -19.9336844247401 10.0145961602541
endloop
endfacet
facet normal -1.0 0.0 0.0
outer loop
vertex 37.0 -19.9336844247401 10.0145961602541
vertex 37.0 -24.9999999998863 47.0000000000605
vertex 37.0 -19.7633135561823 11.3086913857663
endloop
endfacet
facet normal -1.0 0.0 0.0
outer loop
vertex 37.0 -19.7633135561823 11.3086913857663
vertex 37.0 -24.9999999998863 47.0000000000605
vertex 37.0 -19.2638114436562 12.5145961602525
endloop
endfacet
facet normal -1.0 0.0 0.0
outer loop
vertex 37.0 -19.2638114436562 12.5145961602525
vertex 37.0 -24.9999999998863 47.0000000000605
vertex 37.0 -18.4692183306643 13.5501300661833
endloop
endfacet
facet normal -1.0 0.0 0.0
outer loop
vertex 37.0 -18.4692183306643 13.5501300661833
vertex 37.0 -24.9999999998863 47.0000000000605
vertex 37.0 -19.7633135561522 23.7205009347411
endloop
endfacet
facet normal -1.0 0.0 0.0
outer loop
vertex 37.0 -18.4692183306643 13.5501300661833
vertex 37.0 -19.7633135561522 23.7205009347411
vertex 37.0 -17.4336844247296 14.3447231791703
endloop
endfacet
facet normal -1.0 0.0 0.0
outer loop
vertex 37.0 -17.4336844247296 14.3447231791703
vertex 37.0 -19.7633135561522 23.7205009347411
vertex 37.0 -16.227779650241 14.8442252916905
endloop
endfacet
facet normal -1.0 0.0 0.0
outer loop
vertex 37.0 -16.227779650241 14.8442252916905
vertex 37.0 -19.7633135561522 23.7205009347411
vertex 37.0 -19.263811443632 22.5145961602525
endloop
endfacet
facet normal -1.0 0.0 0.0
outer loop
vertex 37.0 -16.227779650241 14.8442252916905
vertex 37.0 -19.263811443632 22.5145961602525
vertex 37.0 -14.933684424728 15.014596160242
endloop
endfacet
facet normal -1.0 0.0 0.0
outer loop
vertex 37.0 -14.933684424728 15.014596160242
vertex 37.0 -19.263811443632 22.5145961602525
vertex 37.0 -18.4692183306451 21.4790622543179
endloop
endfacet
facet normal -1.0 0.0 0.0
outer loop
vertex 37.0 -14.933684424728 15.014596160242
vertex 37.0 -18.4692183306451 21.4790622543179
vertex 37.0 -17.4336844247143 20.6844691413259
endloop
endfacet
facet normal -1.0 0.0 0.0
outer loop
vertex 37.0 -14.933684424728 15.014596160242
vertex 37.0 -17.4336844247143 20.6844691413259
vertex 37.0 -16.2277796502281 20.1849670287998
endloop
endfacet
facet normal -1.0 0.0 0.0
outer loop
vertex 37.0 -14.933684424728 15.014596160242
vertex 37.0 -16.2277796502281 20.1849670287998
vertex 37.0 -14.9336844247159 20.014596160242
endloop
endfacet
facet normal -1.0 0.0 0.0
outer loop
vertex 37.0 -19.7633135561522 23.7205009347411
vertex 37.0 -24.9999999998863 47.0000000000605
vertex 37.0 -19.9336844247038 25.0145961602541
endloop
endfacet
facet normal -1.0 0.0 0.0
outer loop
vertex 37.0 -19.9336844247038 25.0145961602541
vertex 37.0 -24.9999999998863 47.0000000000605
vertex 37.0 -19.763313556146 26.3086913857663
endloop
endfacet
facet normal -1.0 0.0 0.0
outer loop
vertex 37.0 -19.763313556146 26.3086913857663
vertex 37.0 -24.9999999998863 47.0000000000605
vertex 37.0 -19.2638114436199 27.5145961602525
endloop
endfacet
facet normal -1.0 0.0 0.0
outer loop
vertex 37.0 -19.2638114436199 27.5145961602525
vertex 37.0 -24.9999999998863 47.0000000000605
vertex 37.0 -18.469218330628 28.5501300661833
endloop
endfacet
facet normal -1.0 0.0 0.0
outer loop
vertex 37.0 -18.469218330628 28.5501300661833
vertex 37.0 -24.9999999998863 47.0000000000605
vertex 37.0 -17.4336844246933 29.3447231791703
endloop
endfacet
facet normal -1.0 0.0 0.0
outer loop
vertex 37.0 -17.4336844246933 29.3447231791703
vertex 37.0 -24.9999999998863 47.0000000000605
vertex 37.0 -16.2277796502047 29.8442252916905
endloop
endfacet
facet normal -1.0 0.0 0.0
outer loop
vertex 37.0 -16.2277796502047 29.8442252916905
vertex 37.0 -24.9999999998863 47.0000000000605
vertex 37.0 -14.9336844246917 30.014596160242
endloop
endfacet
facet normal -1.0 0.0 0.0
outer loop
vertex 37.0 -14.9336844246917 30.014596160242
vertex 37.0 -24.9999999998863 47.0000000000605
vertex 37.0 -19.2638114435957 37.5145961602525
endloop
endfacet
facet normal -1.0 0.0 0.0
outer loop
vertex 37.0 -14.9336844246917 30.014596160242
vertex 37.0 -19.2638114435957 37.5145961602525
vertex 37.0 -18.4692183306088 36.4790622543178
endloop
endfacet
facet normal -1.0 0.0 0.0
outer loop
vertex 37.0 -14.9336844246917 30.014596160242
vertex 37.0 -18.4692183306088 36.4790622543178
vertex 37.0 -17.433684424678 35.6844691413259
endloop
endfacet
facet normal -1.0 0.0 0.0
outer loop
vertex 37.0 -14.9336844246917 30.014596160242
vertex 37.0 -17.433684424678 35.6844691413259
vertex 37.0 -16.2277796501918 35.1849670287998
endloop
endfacet
facet normal -1.0 0.0 0.0
outer loop
vertex 37.0 -14.9336844246917 30.014596160242
vertex 37.0 -16.2277796501918 35.1849670287998
vertex 37.0 -14.9336844246796 35.014596160242
endloop
endfacet
facet normal -1.0 0.0 0.0
outer loop
vertex 37.0 -19.2638114435957 37.5145961602525
vertex 37.0 -24.9999999998863 47.0000000000605
vertex 37.0 -19.763313556116 38.7205009347411
endloop
endfacet
facet normal -1.0 0.0 0.0
outer loop
vertex 37.0 -19.763313556116 38.7205009347411
vertex 37.0 -24.9999999998863 47.0000000000605
vertex 37.0 -19.9336844246675 40.0145961602541
endloop
endfacet
facet normal -1.0 0.0 0.0
outer loop
vertex 37.0 -19.9336844246675 40.0145961602541
vertex 37.0 -24.9999999998863 47.0000000000605
vertex 37.0 -19.7633135561097 41.3086913857663
endloop
endfacet
facet normal -1.0 0.0 0.0
outer loop
vertex 37.0 -19.7633135561097 41.3086913857663
vertex 37.0 -24.9999999998863 47.0000000000605
vertex 37.0 -19.2638114435836 42.5145961602525
endloop
endfacet
facet normal -1.0 0.0 0.0
outer loop
vertex 37.0 -19.2638114435836 42.5145961602525
vertex 37.0 -24.9999999998863 47.0000000000605
vertex 37.0 -18.4692183305917 43.5501300661833
endloop
endfacet
facet normal -1.0 0.0 0.0
outer loop
vertex 37.0 -18.4692183305917 43.5501300661833
vertex 37.0 -24.9999999998863 47.0000000000605
vertex 37.0 -17.433684424657 44.3447231791703
endloop
endfacet
facet normal -1.0 0.0 0.0
outer loop
vertex 37.0 -17.433684424657 44.3447231791703
vertex 37.0 -24.9999999998863 47.0000000000605
vertex 37.0 -16.2277796501684 44.8442252916905
endloop
endfacet
facet normal -1.0 0.0 0.0
outer loop
vertex 37.0 -16.2277796501684 44.8442252916905
vertex 37.0 -24.9999999998863 47.0000000000605
vertex 37.0 -14.9336844246554 45.014596160242
endloop
endfacet
facet normal -1.0 0.0 0.0
outer loop
vertex 37.0 45.0000000000072 2.99999999989108
vertex 37.0 34.3301270189766 22.4999999999169
vertex 37.0 45.0000000001137 46.9999999998911
endloop
endfacet
facet normal -1.0 0.0 0.0
outer loop
vertex 37.0 34.3301270189766 22.4999999999169
vertex 37.0 45.0000000000072 2.99999999989108
vertex 37.0 30.0000000000363 14.9999999999274
endloop
endfacet
facet normal -1.0 0.0 0.0
outer loop
vertex 37.0 30.0000000000363 14.9999999999274
vertex 37.0 45.0000000000072 2.99999999989108
vertex 37.0 -13.6395891992392 5.18496702879355
endloop
endfacet
facet normal -1.0 0.0 0.0
outer loop
vertex 37.0 -13.6395891992392 5.18496702879355
vertex 37.0 45.0000000000072 2.99999999989108
vertex 37.0 -14.9336844247522 5.01459616024203
endloop
endfacet
facet normal -1.0 0.0 0.0
outer loop
vertex 37.0 30.0000000000363 14.9999999999274
vertex 37.0 -13.6395891992392 5.18496702879355
vertex 37.0 -12.4336844247506 5.68446914131379
endloop
endfacet
facet normal -1.0 0.0 0.0
outer loop
vertex 37.0 30.0000000000363 14.9999999999274
vertex 37.0 -12.4336844247506 5.68446914131379
vertex 37.0 -11.3981505188159 6.47906225430074
endloop
endfacet
facet normal -1.0 0.0 0.0
outer loop
vertex 37.0 30.0000000000363 14.9999999999274
vertex 37.0 -11.3981505188159 6.47906225430074
vertex 37.0 -10.603557405824 7.51459616023155
endloop
endfacet
facet normal -1.0 0.0 0.0
outer loop
vertex 37.0 30.0000000000363 14.9999999999274
vertex 37.0 -10.603557405824 7.51459616023155
vertex 37.0 -10.1040552932979 8.72050093471774
endloop
endfacet
facet normal -1.0 0.0 0.0
outer loop
vertex 37.0 30.0000000000363 14.9999999999274
vertex 37.0 -10.1040552932979 8.72050093471774
vertex 37.0 -9.93368442474008 10.0145961602299
endloop
endfacet
facet normal -1.0 0.0 0.0
outer loop
vertex 37.0 30.0000000000363 14.9999999999274
vertex 37.0 -9.93368442474008 10.0145961602299
vertex 37.0 -10.1040552932916 11.3086913857429
endloop
endfacet
facet normal -1.0 0.0 0.0
outer loop
vertex 37.0 30.0000000000363 14.9999999999274
vertex 37.0 -10.1040552932916 11.3086913857429
vertex 37.0 -10.6035574058118 12.5145961602316
endloop
endfacet
facet normal -1.0 0.0 0.0
outer loop
vertex 37.0 30.0000000000363 14.9999999999274
vertex 37.0 -10.6035574058118 12.5145961602316
vertex 37.0 -11.3981505187988 13.5501300661662
endloop
endfacet
facet normal -1.0 0.0 0.0
outer loop
vertex 37.0 30.0000000000363 14.9999999999274
vertex 37.0 -11.3981505187988 13.5501300661662
vertex 37.0 -12.4336844247296 14.3447231791582
endloop
endfacet
facet normal -1.0 0.0 0.0
outer loop
vertex 37.0 30.0000000000363 14.9999999999274
vertex 37.0 -12.4336844247296 14.3447231791582
vertex 37.0 -13.6395891992158 14.8442252916842
endloop
endfacet
facet normal -1.0 0.0 0.0
outer loop
vertex 37.0 45.0000000001137 46.9999999998911
vertex 37.0 34.3301270189766 22.4999999999169
vertex 37.0 30.0000000000726 29.9999999999274
endloop
endfacet
facet normal -1.0 0.0 0.0
outer loop
vertex 37.0 45.0000000001137 46.9999999998911
vertex 37.0 30.0000000000726 29.9999999999274
vertex 37.0 -14.9336844246917 30.014596160242
endloop
endfacet
facet normal -1.0 0.0 0.0
outer loop
vertex 37.0 45.0000000001137 46.9999999998911
vertex 37.0 -14.9336844246917 30.014596160242
vertex 37.0 -13.6395891991665 35.1849670287936
endloop
endfacet
facet normal -1.0 0.0 0.0
outer loop
vertex 37.0 -13.6395891991665 35.1849670287936
vertex 37.0 -14.9336844246917 30.014596160242
vertex 37.0 -14.9336844246796 35.014596160242
endloop
endfacet
facet normal -1.0 0.0 0.0
outer loop
vertex 37.0 45.0000000001137 46.9999999998911
vertex 37.0 -13.6395891991665 35.1849670287936
vertex 37.0 -12.4336844246779 35.6844691413138
endloop
endfacet
facet normal -1.0 0.0 0.0
outer loop
vertex 37.0 45.0000000001137 46.9999999998911
vertex 37.0 -12.4336844246779 35.6844691413138
vertex 37.0 -11.3981505187433 36.4790622543007
endloop
endfacet
facet normal -1.0 0.0 0.0
outer loop
vertex 37.0 45.0000000001137 46.9999999998911
vertex 37.0 -11.3981505187433 36.4790622543007
vertex 37.0 -10.6035574057513 37.5145961602315
endloop
endfacet
facet normal -1.0 0.0 0.0
outer loop
vertex 37.0 45.0000000001137 46.9999999998911
vertex 37.0 -10.6035574057513 37.5145961602315
vertex 37.0 -10.1040552932253 38.7205009347177
endloop
endfacet
facet normal -1.0 0.0 0.0
outer loop
vertex 37.0 45.0000000001137 46.9999999998911
vertex 37.0 -10.1040552932253 38.7205009347177
vertex 37.0 -9.93368442466747 40.0145961602299
endloop
endfacet
facet normal -1.0 0.0 0.0
outer loop
vertex 37.0 45.0000000001137 46.9999999998911
vertex 37.0 -9.93368442466747 40.0145961602299
vertex 37.0 -10.104055293219 41.3086913857429
endloop
endfacet
facet normal -1.0 0.0 0.0
outer loop
vertex 37.0 45.0000000001137 46.9999999998911
vertex 37.0 -10.104055293219 41.3086913857429
vertex 37.0 -10.6035574057392 42.5145961602315
endloop
endfacet
facet normal -1.0 0.0 0.0
outer loop
vertex 37.0 45.0000000001137 46.9999999998911
vertex 37.0 -10.6035574057392 42.5145961602315
vertex 37.0 -11.3981505187262 43.5501300661662
endloop
endfacet
facet normal -1.0 0.0 0.0
outer loop
vertex 37.0 45.0000000001137 46.9999999998911
vertex 37.0 -11.3981505187262 43.5501300661662
vertex 37.0 -12.433684424657 44.3447231791581
endloop
endfacet
facet normal -1.0 0.0 0.0
outer loop
vertex 37.0 45.0000000001137 46.9999999998911
vertex 37.0 -12.433684424657 44.3447231791581
vertex 37.0 -13.6395891991432 44.8442252916842
endloop
endfacet
facet normal -1.0 0.0 0.0
outer loop
vertex 37.0 45.0000000001137 46.9999999998911
vertex 37.0 -13.6395891991432 44.8442252916842
vertex 37.0 -14.9336844246554 45.014596160242
endloop
endfacet
facet normal -1.0 0.0 0.0
outer loop
vertex 37.0 45.0000000001137 46.9999999998911
vertex 37.0 -14.9336844246554 45.014596160242
vertex 37.0 -24.9999999998863 47.0000000000605
endloop
endfacet
facet normal 0.0 -1.0 2.42035558262188e-012
outer loop
vertex 40.0 -9.93368442470378 25.0145961602299
vertex 37.0 -10.1040552932553 26.3086913857429
vertex 37.0 -9.93368442470378 25.0145961602299
endloop
endfacet
facet normal 0.0 -0.965925826289695 -0.258819045100183
outer loop
vertex 37.0 -10.1040552932553 26.3086913857429
vertex 40.0 -9.93368442470378 25.0145961602299
vertex 40.0 -10.1040552932553 26.3086913857429
endloop
endfacet
facet normal 0.0 2.42035558262188e-012 1.0
outer loop
vertex -20.0 -19.9999999999879 5.03577644786167
vertex -17.0 -4.99999999998785 5.03577644782536
vertex -20.0 -4.99999999998785 5.03577644782536
endloop
endfacet
facet normal 0.0 2.42035558262188e-012 1.0
outer loop
vertex -17.0 -4.99999999998785 5.03577644782536
vertex -20.0 -19.9999999999879 5.03577644786167
vertex -17.0 -19.9999999999879 5.03577644786167
endloop
endfacet
facet normal 0.0 0.258819045104861 0.965925826288441
outer loop
vertex 37.0 -16.2277796502644 5.18496702879981
vertex 40.0 -14.9336844247522 5.01459616024203
vertex 37.0 -14.9336844247522 5.01459616024203
endloop
endfacet
facet normal 0.0 2.42035558262188e-012 1.0
outer loop
vertex 40.0 -14.9336844247522 5.01459616024203
vertex 37.0 -16.2277796502644 5.18496702879981
vertex 40.0 -16.2277796502644 5.18496702879981
endloop
endfacet
facet normal 0.0 -1.0 2.42035558262188e-012
outer loop
vertex -8.45989944764369e-015 -4.51194637207664e-014 4.35762537162951e-016
vertex -15.0 7.21347426235752e-012 3.0
vertex -15.0 -4.51194637207664e-014 4.35762537162951e-016
endloop
endfacet
facet normal 0.0 -1.0 2.42035558262188e-012
outer loop
vertex -15.0 7.21347426235752e-012 3.0
vertex -8.45989944764369e-015 -4.51194637207664e-014 4.35762537162951e-016
vertex -8.45989944764369e-015 7.21347426235752e-012 3.0
endloop
endfacet
facet normal 0.0 -1.0 2.42035558262188e-012
outer loop
vertex 35.0 -4.51194637207664e-014 4.35762537162951e-016
vertex 20.0 7.21347426235752e-012 2.99999999999999
vertex 20.0 -4.51194637207664e-014 4.35762537162951e-016
endloop
endfacet
facet normal 0.0 -1.0 2.42035558262188e-012
outer loop
vertex 20.0 7.21347426235752e-012 2.99999999999999
vertex 35.0 -4.51194637207664e-014 4.35762537162951e-016
vertex 35.0 7.21347426235752e-012 2.99999999999999
endloop
endfacet
facet normal 1.0 0.0 0.0
outer loop
vertex -10.0 35.0000000000072 2.99999999991526
vertex -10.0 20.0 -4.84066758899004e-011
vertex -10.0 35.0 -8.47120096292286e-011
endloop
endfacet
facet normal 1.0 0.0 0.0
outer loop
vertex -10.0 20.0 -4.84066758899004e-011
vertex -10.0 35.0000000000072 2.99999999991526
vertex -10.0 20.0000000000072 2.99999999995157
endloop
endfacet
facet normal 0.0 -0.500000000002096 -0.866025403783229
outer loop
vertex 40.0 -12.4336844246933 29.3447231791582
vertex 37.0 -11.3981505187625 28.5501300661662
vertex 40.0 -11.3981505187625 28.5501300661662
endloop
endfacet
facet normal 0.0 -0.707106781188257 -0.707106781184838
outer loop
vertex 37.0 -11.3981505187625 28.5501300661662
vertex 40.0 -12.4336844246933 29.3447231791582
vertex 37.0 -12.4336844246933 29.3447231791582
endloop
endfacet
facet normal 0.0 -2.42035558262188e-012 -1.0
outer loop
vertex -17.0 -19.9999999999637 15.0357764478617
vertex -20.0 -4.99999999996365 15.0357764478254
vertex -17.0 -4.99999999996365 15.0357764478254
endloop
endfacet
facet normal 0.0 -2.42035558262188e-012 -1.0
outer loop
vertex -20.0 -4.99999999996365 15.0357764478254
vertex -17.0 -19.9999999999637 15.0357764478617
vertex -20.0 -19.9999999999637 15.0357764478617
endloop
endfacet
facet normal 0.0 1.0 -2.42035558262188e-012
outer loop
vertex -17.0 -19.9999999998911 45.0000000000484
vertex -20.0 -19.9999999999153 35.0000000000484
vertex -20.0 -19.9999999998911 45.0000000000484
endloop
endfacet
facet normal 0.0 1.0 -2.42035558262188e-012
outer loop
vertex -20.0 -19.9999999999153 35.0000000000484
vertex -17.0 -19.9999999998911 45.0000000000484
vertex -17.0 -19.9999999999153 35.0000000000484
endloop
endfacet
facet normal 0.0 1.0 -2.4166396497954e-012
outer loop
vertex 40.0 -19.9336844247038 25.0145961602541
vertex 37.0 -19.7633135561522 23.7205009347411
vertex 37.0 -19.9336844247038 25.0145961602541
endloop
endfacet
facet normal 0.0 0.965925826289694 0.258819045100185
outer loop
vertex 37.0 -19.7633135561522 23.7205009347411
vertex 40.0 -19.9336844247038 25.0145961602541
vertex 40.0 -19.7633135561522 23.7205009347411
endloop
endfacet
facet normal 0.0 -0.965925826288443 0.258819045104856
outer loop
vertex 40.0 -10.1040552932253 38.7205009347177
vertex 37.0 -9.93368442466747 40.0145961602299
vertex 37.0 -10.1040552932253 38.7205009347177
endloop
endfacet
facet normal 0.0 -1.0 2.41380591684858e-012
outer loop
vertex 37.0 -9.93368442466747 40.0145961602299
vertex 40.0 -10.1040552932253 38.7205009347177
vertex 40.0 -9.93368442466747 40.0145961602299
endloop
endfacet
facet normal 0.0 1.0 -2.42035558262188e-012
outer loop
vertex 15.0 20.0000000000072 2.99999999995157
vertex -10.0 20.0 -4.84066758899004e-011
vertex -10.0 20.0000000000072 2.99999999995157
endloop
endfacet
facet normal 0.0 1.0 -2.42035558262188e-012
outer loop
vertex -10.0 20.0 -4.84066758899004e-011
vertex 15.0 20.0000000000072 2.99999999995157
vertex 15.0 20.0 -4.84066758899004e-011
endloop
endfacet
facet normal 0.0 0.500000000002099 0.866025403783227
outer loop
vertex 37.0 -17.4336844247143 20.6844691413259
vertex 40.0 -16.2277796502281 20.1849670287998
vertex 37.0 -16.2277796502281 20.1849670287998
endloop
endfacet
facet normal 0.0 0.258819045104857 0.965925826288442
outer loop
vertex 40.0 -16.2277796502281 20.1849670287998
vertex 37.0 -17.4336844247143 20.6844691413259
vertex 40.0 -17.4336844247143 20.6844691413259
endloop
endfacet
facet normal 0.0 -0.500000000002097 -0.866025403783228
outer loop
vertex -17.0 30.0000000000774 31.9999999999274
vertex -20.0 36.06217782656 28.4999999999127
vertex -17.0 36.06217782656 28.4999999999127
endloop
endfacet
facet normal 0.0 -0.500000000002097 -0.866025403783228
outer loop
vertex -20.0 36.06217782656 28.4999999999127
vertex -17.0 30.0000000000774 31.9999999999274
vertex -20.0 30.0000000000774 31.9999999999274
endloop
endfacet
facet normal 0.0 1.0 -2.42261009342548e-012
outer loop
vertex 40.0 -19.9336844246675 40.0145961602541
vertex 37.0 -19.763313556116 38.7205009347411
vertex 37.0 -19.9336844246675 40.0145961602541
endloop
endfacet
facet normal 0.0 0.965925826289694 0.258819045100184
outer loop
vertex 37.0 -19.763313556116 38.7205009347411
vertex 40.0 -19.9336844246675 40.0145961602541
vertex 40.0 -19.763313556116 38.7205009347411
endloop
endfacet
facet normal 0.0 -0.258819045104861 -0.965925826288441
outer loop
vertex 40.0 -13.6395891992158 14.8442252916842
vertex 37.0 -12.4336844247296 14.3447231791582
vertex 40.0 -12.4336844247296 14.3447231791582
endloop
endfacet
facet normal 0.0 -0.500000000002099 -0.866025403783227
outer loop
vertex 37.0 -12.4336844247296 14.3447231791582
vertex 40.0 -13.6395891992158 14.8442252916842
vertex 37.0 -13.6395891992158 14.8442252916842
endloop
endfacet
facet normal 0.0 -2.42035558262188e-012 -1.0
outer loop
vertex 40.0 -14.9336844246554 45.014596160242
vertex 37.0 -13.6395891991432 44.8442252916842
vertex 40.0 -13.6395891991432 44.8442252916842
endloop
endfacet
facet normal 0.0 -0.258819045104865 -0.96592582628844
outer loop
vertex 37.0 -13.6395891991432 44.8442252916842
vertex 40.0 -14.9336844246554 45.014596160242
vertex 37.0 -14.9336844246554 45.014596160242
endloop
endfacet
facet normal 0.0 0.866025403785646 0.499999999997909
outer loop
vertex 40.0 -19.2638114435957 37.5145961602525
vertex 37.0 -18.4692183306088 36.4790622543178
vertex 37.0 -19.2638114435957 37.5145961602525
endloop
endfacet
facet normal 0.0 0.707106781188252 0.707106781184843
outer loop
vertex 37.0 -18.4692183306088 36.4790622543178
vertex 40.0 -19.2638114435957 37.5145961602525
vertex 40.0 -18.4692183306088 36.4790622543178
endloop
endfacet
facet normal 0.0 -0.258819045104865 -0.96592582628844
outer loop
vertex 40.0 -13.6395891991432 44.8442252916842
vertex 37.0 -12.433684424657 44.3447231791581
vertex 40.0 -12.433684424657 44.3447231791581
endloop
endfacet
facet normal 0.0 -0.50000000000209 -0.866025403783232
outer loop
vertex 37.0 -12.433684424657 44.3447231791581
vertex 40.0 -13.6395891991432 44.8442252916842
vertex 37.0 -13.6395891991432 44.8442252916842
endloop
endfacet
facet normal 0.0 -0.258819045100183 0.965925826289695
outer loop
vertex 37.0 -13.6395891992392 5.18496702879355
vertex 40.0 -12.4336844247506 5.68446914131379
vertex 37.0 -12.4336844247506 5.68446914131379
endloop
endfacet
facet normal 0.0 -0.499999999997908 0.866025403785647
outer loop
vertex 40.0 -12.4336844247506 5.68446914131379
vertex 37.0 -13.6395891992392 5.18496702879355
vertex 40.0 -13.6395891992392 5.18496702879355
endloop
endfacet
facet normal -1.0 0.0 0.0
outer loop
vertex 35.0 -19.9999999999928 3.00000000004839
vertex 35.0 -4.51194637207664e-014 4.35762537162951e-016
vertex 35.0 -20.0 4.84075474149748e-011
endloop
endfacet
facet normal -1.0 0.0 0.0
outer loop
vertex 35.0 -4.51194637207664e-014 4.35762537162951e-016
vertex 35.0 -19.9999999999928 3.00000000004839
vertex 35.0 7.21347426235752e-012 2.99999999999999
endloop
endfacet
facet normal 0.0 2.41607824987197e-012 1.0
outer loop
vertex 37.0 -14.9336844247159 20.014596160242
vertex 40.0 -13.6395891992029 20.1849670287936
vertex 37.0 -13.6395891992029 20.1849670287936
endloop
endfacet
facet normal 0.0 -0.258819045100184 0.965925826289695
outer loop
vertex 40.0 -13.6395891992029 20.1849670287936
vertex 37.0 -14.9336844247159 20.014596160242
vertex 40.0 -14.9336844247159 20.014596160242
endloop
endfacet
facet normal 0.0 1.0 -2.42035558262188e-012
outer loop
vertex 35.0 -19.9999999999928 3.00000000004839
vertex 20.0 -20.0 4.84075474149748e-011
vertex 20.0 -19.9999999999928 3.00000000004839
endloop
endfacet
facet normal 0.0 1.0 -2.42035558262188e-012
outer loop
vertex 20.0 -20.0 4.84075474149748e-011
vertex 35.0 -19.9999999999928 3.00000000004839
vertex 35.0 -20.0 4.84075474149748e-011
endloop
endfacet
facet normal 0.0 1.0 -2.42075843497653e-012
outer loop
vertex -17.0 23.9378221735779 28.4999999999421
vertex -20.0 23.9378221735609 21.4999999999421
vertex -20.0 23.9378221735779 28.4999999999421
endloop
endfacet
facet normal 0.0 1.0 -2.42075843497653e-012
outer loop
vertex -20.0 23.9378221735609 21.4999999999421
vertex -17.0 23.9378221735779 28.4999999999421
vertex -17.0 23.9378221735609 21.4999999999421
endloop
endfacet
facet normal 0.0 0.258819045104857 0.965925826288442
outer loop
vertex 37.0 -16.2277796502281 20.1849670287998
vertex 40.0 -14.9336844247159 20.014596160242
vertex 37.0 -14.9336844247159 20.014596160242
endloop
endfacet
facet normal 0.0 2.41607824987197e-012 1.0
outer loop
vertex 40.0 -14.9336844247159 20.014596160242
vertex 37.0 -16.2277796502281 20.1849670287998
vertex 40.0 -16.2277796502281 20.1849670287998
endloop
endfacet
facet normal 0.0 0.965925826289694 0.258819045100184
outer loop
vertex 40.0 -19.763313556116 38.7205009347411
vertex 37.0 -19.2638114435957 37.5145961602525
vertex 37.0 -19.763313556116 38.7205009347411
endloop
endfacet
facet normal 0.0 0.866025403785646 0.499999999997909
outer loop
vertex 37.0 -19.2638114435957 37.5145961602525
vertex 40.0 -19.763313556116 38.7205009347411
vertex 40.0 -19.2638114435957 37.5145961602525
endloop
endfacet
facet normal 0.0 0.965925826288442 -0.258819045104857
outer loop
vertex 40.0 -19.763313556146 26.3086913857663
vertex 37.0 -19.9336844247038 25.0145961602541
vertex 37.0 -19.763313556146 26.3086913857663
endloop
endfacet
facet normal 0.0 1.0 -2.4166396497954e-012
outer loop
vertex 37.0 -19.9336844247038 25.0145961602541
vertex 40.0 -19.763313556146 26.3086913857663
vertex 40.0 -19.9336844247038 25.0145961602541
endloop
endfacet
facet normal 9.39988827515967e-016 2.42035558262188e-012 1.0
outer loop
vertex -20.0 -24.9999999998863 47.0000000000605
vertex -17.0 45.0000000001137 46.9999999998911
vertex -20.0 45.0000000001137 46.9999999998911
endloop
endfacet
facet normal 9.39988827515967e-016 2.42035558262188e-012 1.0
outer loop
vertex -17.0 45.0000000001137 46.9999999998911
vertex -20.0 -24.9999999998863 47.0000000000605
vertex -17.0 -24.9999999998863 47.0000000000605
endloop
endfacet
endsolid house7 minus the front
