solid data__000001 created by POPLib
 facet normal -0.00000000000001 0.00000000000000 1.00000000000000
  outer loop
   vertex -12.33403823832967 13.81848781815890 51.49999999999999
   vertex -11.92770178538203 11.79890745186655 51.49999999999999
   vertex -10.38226366628852 22.33450143380596 51.49999999999999
  endloop
 endfacet
 facet normal 0.00000000000000 0.00000000000000 1.00000000000000
  outer loop
   vertex -21.91461291092196 22.34668619322889 51.49999999999999
   vertex -21.91461291092196 20.84667936960578 51.49999999999999
   vertex -21.35203444668783 22.33450143380596 51.49999999999999
  endloop
 endfacet
 facet normal -0.00000000000001 0.00000000000000 1.00000000000000
  outer loop
   vertex -21.91461291092196 20.84667936960578 51.49999999999999
   vertex -20.77445346465675 20.78517975100031 51.50000000000000
   vertex -21.35203444668783 22.33450143380596 51.49999999999999
  endloop
 endfacet
 facet normal -0.00000000000000 0.00000000000000 1.00000000000000
  outer loop
   vertex -21.35203444668783 22.33450143380596 51.49999999999999
   vertex -20.77445346465675 20.78517975100031 51.50000000000000
   vertex -10.38226366628852 22.33450143380596 51.49999999999999
  endloop
 endfacet
 facet normal 0.00000000000000 -0.00000000000001 1.00000000000000
  outer loop
   vertex -20.77445346465675 20.78517975100031 51.50000000000000
   vertex -18.80239054890165 20.36063536770943 51.49999999999999
   vertex -10.38226366628852 22.33450143380596 51.49999999999999
  endloop
 endfacet
 facet normal -0.00000000000000 0.00000000000000 1.00000000000000
  outer loop
   vertex -18.80239054890165 20.36063536770943 51.49999999999999
   vertex -17.02622941280312 19.58852226215923 51.49999999999999
   vertex -10.38226366628852 22.33450143380596 51.49999999999999
  endloop
 endfacet
 facet normal -0.00000000000000 0.00000000000000 1.00000000000000
  outer loop
   vertex -17.02622941280312 19.58852226215923 51.49999999999999
   vertex -15.51661626796979 18.55896193384838 51.49999999999999
   vertex -10.38226366628852 22.33450143380596 51.49999999999999
  endloop
 endfacet
 facet normal -0.00000000000000 0.00000000000000 1.00000000000000
  outer loop
   vertex -15.51661626796979 18.55896193384838 51.49999999999999
   vertex -14.21954749840484 17.27189592011620 51.49999999999999
   vertex -10.38226366628852 22.33450143380596 51.49999999999999
  endloop
 endfacet
 facet normal 0.00000000000000 0.00000000000000 1.00000000000000
  outer loop
   vertex -21.91461291092196 -0.65322282557455 51.49999999999999
   vertex -10.38226366628852 -0.65322282557455 51.49999999999999
   vertex -21.91461291092196 0.84678399804855 51.49999999999999
  endloop
 endfacet
 facet normal 0.00000000000001 0.00000000000004 1.00000000000000
  outer loop
   vertex -21.91461291092196 0.84678399804855 51.49999999999999
   vertex -10.38226366628852 -0.65322282557455 51.49999999999999
   vertex -20.93009086502727 0.89216683614254 51.49999999999999
  endloop
 endfacet
 facet normal 0.00000000000000 0.00000000000001 1.00000000000000
  outer loop
   vertex -20.93009086502727 0.89216683614254 51.49999999999999
   vertex -10.38226366628852 -0.65322282557455 51.49999999999999
   vertex -18.91051049873492 1.29850328909018 51.49999999999998
  endloop
 endfacet
 facet normal -0.00000000000000 -0.00000000000000 1.00000000000000
  outer loop
   vertex -18.91051049873492 1.29850328909018 51.49999999999998
   vertex -10.38226366628852 -0.65322282557455 51.49999999999999
   vertex -17.05468739380993 2.08919329175046 51.49999999999999
  endloop
 endfacet
 facet normal -0.00000000000000 -0.00000000000000 1.00000000000000
  outer loop
   vertex -17.05468739380993 2.08919329175046 51.49999999999999
   vertex -10.38226366628852 -0.65322282557455 51.49999999999999
   vertex -15.45710239677763 3.18401254916535 51.49999999999999
  endloop
 endfacet
 facet normal -0.00000000000000 -0.00000000000000 1.00000000000000
  outer loop
   vertex -15.45710239677763 3.18401254916535 51.49999999999999
   vertex -10.38226366628852 -0.65322282557455 51.49999999999999
   vertex -14.17003638304546 4.48108131873030 51.50000000000000
  endloop
 endfacet
 facet normal -0.00000000000000 0.00000000000000 1.00000000000000
  outer loop
   vertex -14.21954749840484 17.27189592011620 51.49999999999999
   vertex -13.12472824098995 15.67431092308390 51.50000000000000
   vertex -10.38226366628852 22.33450143380596 51.49999999999999
  endloop
 endfacet
 facet normal 0.00000000000000 0.00000000000000 1.00000000000000
  outer loop
   vertex -14.17003638304546 4.48108131873030 51.50000000000000
   vertex -10.38226366628852 -0.65322282557455 51.49999999999999
   vertex -13.14047605473461 5.99069446356362 51.49999999999999
  endloop
 endfacet
 facet normal -0.00000000000000 -0.00000000000000 1.00000000000000
  outer loop
   vertex -13.14047605473461 5.99069446356362 51.49999999999999
   vertex -10.38226366628852 -0.65322282557455 51.49999999999999
   vertex -12.36836294918441 7.76685559966214 51.50000000000000
  endloop
 endfacet
 facet normal 0.00000000000001 -0.00000000000000 1.00000000000000
  outer loop
   vertex -13.12472824098995 15.67431092308390 51.50000000000000
   vertex -12.33403823832967 13.81848781815890 51.49999999999999
   vertex -10.38226366628852 22.33450143380596 51.49999999999999
  endloop
 endfacet
 facet normal 0.00000000000001 0.00000000000000 1.00000000000000
  outer loop
   vertex -12.36836294918441 7.76685559966214 51.50000000000000
   vertex -10.38226366628852 -0.65322282557455 51.49999999999999
   vertex -11.94381856589352 9.73891851541725 51.49999999999999
  endloop
 endfacet
 facet normal 0.00000000000000 -0.00000000000000 1.00000000000000
  outer loop
   vertex -10.38226366628852 -0.65322282557455 51.49999999999999
   vertex -10.38226366628852 22.33450143380596 51.49999999999999
   vertex -11.94381856589352 9.73891851541725 51.49999999999999
  endloop
 endfacet
 facet normal 0.00000000000000 0.00000000000000 1.00000000000000
  outer loop
   vertex -11.94381856589352 9.73891851541725 51.49999999999999
   vertex -10.38226366628852 22.33450143380596 51.49999999999999
   vertex -11.92770178538203 11.79890745186655 51.49999999999999
  endloop
 endfacet
 facet normal 0.00000000000000 -1.00000000000000 0.00000000000000
  outer loop
   vertex -10.38226366628852 -0.65322282557455 -22.50000000000000
   vertex -10.38226366628852 -0.65322282557455 51.49999999999999
   vertex -21.84992035525493 -0.65322282557455 -22.50000000000000
  endloop
 endfacet
 facet normal 0.00000000000000 -1.00000000000000 0.00000000000000
  outer loop
   vertex -21.91461291092196 -0.65322282557455 -22.50000000000000
   vertex -21.88226663902981 -0.65322282557455 -22.50000000000000
   vertex -21.91461291092196 -0.65322282557455 51.49999999999999
  endloop
 endfacet
 facet normal 0.00000000000000 -1.00000000000000 0.00000000000000
  outer loop
   vertex -21.91461291092196 -0.65322282557455 51.49999999999999
   vertex -21.88226663902981 -0.65322282557455 -22.50000000000000
   vertex -10.38226366628852 -0.65322282557455 51.49999999999999
  endloop
 endfacet
 facet normal 0.00000000000000 -1.00000000000000 0.00000000000000
  outer loop
   vertex -21.88226663902981 -0.65322282557455 -22.50000000000000
   vertex -21.84992035525493 -0.65322282557455 -22.50000000000000
   vertex -10.38226366628852 -0.65322282557455 51.49999999999999
  endloop
 endfacet
 facet normal -1.00000000000000 0.00000000000000 0.00000000000000
  outer loop
   vertex -21.91461291092196 20.84667936960578 51.49999999999999
   vertex -21.91461291092196 22.34668619322889 51.49999999999999
   vertex -21.91461291092196 20.84667936960578 -22.50000000000000
  endloop
 endfacet
 facet normal -1.00000000000000 0.00000000000000 0.00000000000000
  outer loop
   vertex -21.91461291092196 22.34668619322889 -22.50000000000001
   vertex -21.91461291092196 20.84667936960578 -22.50000000000000
   vertex -21.91461291092196 22.34668619322889 51.49999999999999
  endloop
 endfacet
 facet normal -0.00000000000000 1.00000000000000 0.00000000000000
  outer loop
   vertex -21.35203444668783 22.33450143380596 51.49999999999999
   vertex -10.38226366628852 22.33450143380596 51.49999999999999
   vertex -21.35203444668783 22.33450143380596 -22.50000000000000
  endloop
 endfacet
 facet normal 0.00000000000000 1.00000000000000 -0.00000000000000
  outer loop
   vertex -10.38226366628852 22.33450143380596 -22.50000000000000
   vertex -21.35203444668783 22.33450143380596 -22.50000000000000
   vertex -10.38226366628852 22.33450143380596 51.49999999999999
  endloop
 endfacet
 facet normal 1.00000000000000 0.00000000000000 -0.00000000000000
  outer loop
   vertex -10.38226366628852 22.33450143380596 -22.50000000000000
   vertex -10.38226366628852 22.33450143380596 51.49999999999999
   vertex -10.38226366628852 -0.64710770056394 -22.50000000000000
  endloop
 endfacet
 facet normal 1.00000000000000 0.00000000000000 0.00000000000000
  outer loop
   vertex -10.38226366628852 22.34061655881657 -22.50000000028297
   vertex -10.38226366628852 22.33450143380596 -22.50000000000000
   vertex -10.38226366628852 22.34061655881657 -24.50000000028297
  endloop
 endfacet
 facet normal 1.00000000000000 0.00000000000000 0.00000000000000
  outer loop
   vertex -10.38226366628852 22.34061655881657 -24.50000000028297
   vertex -10.38226366628852 22.33450143380596 -22.50000000000000
   vertex -10.38226366628852 -0.64710770056394 -24.50000000028297
  endloop
 endfacet
 facet normal 1.00000000000000 0.00000000000000 0.00000000000000
  outer loop
   vertex -10.38226366628852 -0.64710770056394 -24.50000000028297
   vertex -10.38226366628852 22.33450143380596 -22.50000000000000
   vertex -10.38226366628852 -0.64710770056394 -22.50000000000000
  endloop
 endfacet
 facet normal 1.00000000000000 0.00000000000000 0.00000000000000
  outer loop
   vertex -10.38226366628852 -0.65322282557455 -22.50000000000000
   vertex -10.38226366628852 -0.64710770056394 -22.50000000000000
   vertex -10.38226366628852 -0.65322282557455 51.49999999999999
  endloop
 endfacet
 facet normal 1.00000000000000 -0.00000000000000 0.00000000000000
  outer loop
   vertex -10.38226366628852 -0.65322282557455 51.49999999999999
   vertex -10.38226366628852 -0.64710770056394 -22.50000000000000
   vertex -10.38226366628852 22.33450143380596 51.49999999999999
  endloop
 endfacet
 facet normal 0.02165369499933 0.99976553125864 -0.00000000000000
  outer loop
   vertex -21.35203444668783 22.33450143380596 -22.50000000000000
   vertex -21.91461291092196 22.34668619322889 -22.50000000000001
   vertex -21.35203444668783 22.33450143380596 51.49999999999999
  endloop
 endfacet
 facet normal 0.02165369499933 0.99976553125864 0.00000000000000
  outer loop
   vertex -21.91461291092196 22.34668619322889 51.49999999999999
   vertex -21.35203444668783 22.33450143380596 51.49999999999999
   vertex -21.91461291092196 22.34668619322889 -22.50000000000001
  endloop
 endfacet
 facet normal -1.00000000000000 0.00000000000000 0.00000000000000
  outer loop
   vertex -21.91461291092196 0.84678399804855 -22.50000000000000
   vertex -21.91461291092196 -0.65322282557455 -22.50000000000000
   vertex -21.91461291092196 0.84678399804855 51.49999999999999
  endloop
 endfacet
 facet normal -1.00000000000000 0.00000000000000 0.00000000000000
  outer loop
   vertex -21.91461291092196 -0.65322282557455 51.49999999999999
   vertex -21.91461291092196 0.84678399804855 51.49999999999999
   vertex -21.91461291092196 -0.65322282557455 -22.50000000000000
  endloop
 endfacet
 facet normal -0.70983855603675 0.70436441162488 0.00000000000000
  outer loop
   vertex -15.45710239677763 3.18401254916535 -22.50000000000000
   vertex -15.45710239677763 3.18401254916535 51.49999999999999
   vertex -14.17003638304546 4.48108131873030 -22.50000000000000
  endloop
 endfacet
 facet normal -0.70436441162488 -0.70983855603675 -0.00000000000000
  outer loop
   vertex -15.51661626796979 18.55896193384838 51.49999999999999
   vertex -15.51661626796979 18.55896193384838 -22.50000000000000
   vertex -14.21954749840484 17.27189592011620 51.49999999999999
  endloop
 endfacet
 facet normal -0.70436441162488 -0.70983855603675 -0.00000000000000
  outer loop
   vertex -15.51661626796979 18.55896193384838 -22.50000000000000
   vertex -14.21954749840484 17.27189592011620 -22.50000000000000
   vertex -14.21954749840484 17.27189592011620 51.49999999999999
  endloop
 endfacet
 facet normal -0.04604741830457 0.99893925504381 0.00000000000000
  outer loop
   vertex -21.91461291092196 0.84678399804855 51.49999999999999
   vertex -20.93009086502727 0.89216683614254 51.49999999999999
   vertex -21.91461291092196 0.84678399804855 -22.50000000000000
  endloop
 endfacet
 facet normal -0.04604741830457 0.99893925504381 0.00000000000000
  outer loop
   vertex -21.91461291092196 0.84678399804855 -22.50000000000000
   vertex -20.93009086502727 0.89216683614254 51.49999999999999
   vertex -20.93009086502727 0.89216683614254 -22.50000000000001
  endloop
 endfacet
 facet normal -0.19724572801103 0.98035408031048 0.00000000000000
  outer loop
   vertex -20.93009086502727 0.89216683614254 51.49999999999999
   vertex -18.91051049873492 1.29850328909018 51.49999999999998
   vertex -20.93009086502727 0.89216683614254 -22.50000000000001
  endloop
 endfacet
 facet normal -0.19724572801103 0.98035408031048 0.00000000000000
  outer loop
   vertex -20.93009086502727 0.89216683614254 -22.50000000000001
   vertex -18.91051049873492 1.29850328909018 51.49999999999998
   vertex -18.91051049873492 1.29850328909018 -22.50000000000001
  endloop
 endfacet
 facet normal -0.39196563290043 0.91997985990181 0.00000000000000
  outer loop
   vertex -18.91051049873492 1.29850328909018 51.49999999999998
   vertex -17.05468739380993 2.08919329175046 51.49999999999999
   vertex -18.91051049873492 1.29850328909018 -22.50000000000001
  endloop
 endfacet
 facet normal -0.39196563290043 0.91997985990181 0.00000000000000
  outer loop
   vertex -18.91051049873492 1.29850328909018 -22.50000000000001
   vertex -17.05468739380993 2.08919329175046 51.49999999999999
   vertex -17.05468739380993 2.08919329175046 -22.50000000000000
  endloop
 endfacet
 facet normal -0.56529387254074 0.82488959119866 0.00000000000000
  outer loop
   vertex -17.05468739380993 2.08919329175046 51.49999999999999
   vertex -15.45710239677763 3.18401254916535 51.49999999999999
   vertex -17.05468739380993 2.08919329175046 -22.50000000000000
  endloop
 endfacet
 facet normal -0.56529387254074 0.82488959119866 0.00000000000000
  outer loop
   vertex -17.05468739380993 2.08919329175046 -22.50000000000000
   vertex -15.45710239677763 3.18401254916535 51.49999999999999
   vertex -15.45710239677763 3.18401254916535 -22.50000000000000
  endloop
 endfacet
 facet normal -0.82488959119866 -0.56529387254074 0.00000000000000
  outer loop
   vertex -14.21954749840484 17.27189592011620 -22.50000000000000
   vertex -13.12472824098995 15.67431092308390 -22.50000000000000
   vertex -14.21954749840484 17.27189592011620 51.49999999999999
  endloop
 endfacet
 facet normal -0.82488959119866 -0.56529387254074 0.00000000000000
  outer loop
   vertex -14.21954749840484 17.27189592011620 51.49999999999999
   vertex -13.12472824098995 15.67431092308390 -22.50000000000000
   vertex -13.12472824098995 15.67431092308390 51.50000000000000
  endloop
 endfacet
 facet normal -0.91997985990181 -0.39196563290043 0.00000000000000
  outer loop
   vertex -13.12472824098995 15.67431092308390 -22.50000000000000
   vertex -12.33403823832967 13.81848781815890 -22.50000000000000
   vertex -13.12472824098995 15.67431092308390 51.50000000000000
  endloop
 endfacet
 facet normal -0.91997985990181 -0.39196563290043 -0.00000000000000
  outer loop
   vertex -13.12472824098995 15.67431092308390 51.50000000000000
   vertex -12.33403823832967 13.81848781815890 -22.50000000000000
   vertex -12.33403823832967 13.81848781815890 51.49999999999999
  endloop
 endfacet
 facet normal -0.98035408031048 -0.19724572801103 0.00000000000000
  outer loop
   vertex -12.33403823832967 13.81848781815890 -22.50000000000000
   vertex -11.92770178538203 11.79890745186655 -22.50000000000000
   vertex -12.33403823832967 13.81848781815890 51.49999999999999
  endloop
 endfacet
 facet normal -0.98035408031048 -0.19724572801103 0.00000000000000
  outer loop
   vertex -12.33403823832967 13.81848781815890 51.49999999999999
   vertex -11.92770178538203 11.79890745186655 -22.50000000000000
   vertex -11.92770178538203 11.79890745186655 51.49999999999999
  endloop
 endfacet
 facet normal -0.99996939609294 0.00782348244200 0.00000000000000
  outer loop
   vertex -11.92770178538203 11.79890745186655 -22.50000000000000
   vertex -11.94381856589352 9.73891851541725 -22.50000000000000
   vertex -11.92770178538203 11.79890745186655 51.49999999999999
  endloop
 endfacet
 facet normal -0.99996939609294 0.00782348244200 0.00000000000000
  outer loop
   vertex -11.92770178538203 11.79890745186655 51.49999999999999
   vertex -11.94381856589352 9.73891851541725 -22.50000000000000
   vertex -11.94381856589352 9.73891851541725 51.49999999999999
  endloop
 endfacet
 facet normal -0.97760296234014 0.21045771077295 0.00000000000000
  outer loop
   vertex -11.94381856589352 9.73891851541725 -22.50000000000000
   vertex -12.36836294918441 7.76685559966214 -22.50000000000000
   vertex -11.94381856589352 9.73891851541725 51.49999999999999
  endloop
 endfacet
 facet normal -0.97760296234014 0.21045771077295 0.00000000000000
  outer loop
   vertex -11.94381856589352 9.73891851541725 51.49999999999999
   vertex -12.36836294918441 7.76685559966214 -22.50000000000000
   vertex -12.36836294918441 7.76685559966214 51.50000000000000
  endloop
 endfacet
 facet normal -0.91709476252025 0.39866928218502 0.00000000000000
  outer loop
   vertex -12.36836294918441 7.76685559966214 -22.50000000000000
   vertex -13.14047605473461 5.99069446356362 -22.50000000000000
   vertex -12.36836294918441 7.76685559966214 51.50000000000000
  endloop
 endfacet
 facet normal -0.91709476252025 0.39866928218502 0.00000000000000
  outer loop
   vertex -12.36836294918441 7.76685559966214 51.50000000000000
   vertex -13.14047605473461 5.99069446356362 -22.50000000000000
   vertex -13.14047605473461 5.99069446356362 51.49999999999999
  endloop
 endfacet
 facet normal -0.82615636120975 0.56344091689605 0.00000000000000
  outer loop
   vertex -13.14047605473461 5.99069446356362 -22.50000000000000
   vertex -14.17003638304546 4.48108131873030 -22.50000000000000
   vertex -13.14047605473461 5.99069446356362 51.49999999999999
  endloop
 endfacet
 facet normal -0.82615636120975 0.56344091689605 0.00000000000000
  outer loop
   vertex -13.14047605473461 5.99069446356362 51.49999999999999
   vertex -14.17003638304546 4.48108131873030 -22.50000000000000
   vertex -14.17003638304546 4.48108131873030 51.50000000000000
  endloop
 endfacet
 facet normal -0.70983855603675 0.70436441162488 0.00000000000000
  outer loop
   vertex -14.17003638304546 4.48108131873030 51.50000000000000
   vertex -14.17003638304546 4.48108131873030 -22.50000000000000
   vertex -15.45710239677763 3.18401254916535 51.49999999999999
  endloop
 endfacet
 facet normal -0.21045771077294 -0.97760296234014 0.00000000000000
  outer loop
   vertex -20.77445346465675 20.78517975100031 -22.50000000000000
   vertex -18.80239054890165 20.36063536770943 -22.50000000000000
   vertex -20.77445346465675 20.78517975100031 51.50000000000000
  endloop
 endfacet
 facet normal -0.05386119279611 -0.99854843243109 -0.00000000000000
  outer loop
   vertex -21.91461291092196 20.84667936960578 51.49999999999999
   vertex -21.91461291092196 20.84667936960578 -22.50000000000000
   vertex -20.77445346465675 20.78517975100031 51.50000000000000
  endloop
 endfacet
 facet normal -0.05386119279611 -0.99854843243109 0.00000000000000
  outer loop
   vertex -21.91461291092196 20.84667936960578 -22.50000000000000
   vertex -20.77445346465675 20.78517975100031 -22.50000000000000
   vertex -20.77445346465675 20.78517975100031 51.50000000000000
  endloop
 endfacet
 facet normal -0.56344091689605 -0.82615636120975 0.00000000000000
  outer loop
   vertex -15.51661626796979 18.55896193384838 -22.50000000000000
   vertex -15.51661626796979 18.55896193384838 51.49999999999999
   vertex -17.02622941280312 19.58852226215923 -22.50000000000000
  endloop
 endfacet
 facet normal -0.56344091689605 -0.82615636120975 0.00000000000000
  outer loop
   vertex -15.51661626796979 18.55896193384838 51.49999999999999
   vertex -17.02622941280312 19.58852226215923 51.49999999999999
   vertex -17.02622941280312 19.58852226215923 -22.50000000000000
  endloop
 endfacet
 facet normal -0.39866928218502 -0.91709476252025 0.00000000000000
  outer loop
   vertex -17.02622941280312 19.58852226215923 -22.50000000000000
   vertex -17.02622941280312 19.58852226215923 51.49999999999999
   vertex -18.80239054890165 20.36063536770943 -22.50000000000000
  endloop
 endfacet
 facet normal -0.39866928218502 -0.91709476252025 -0.00000000000000
  outer loop
   vertex -17.02622941280312 19.58852226215923 51.49999999999999
   vertex -18.80239054890165 20.36063536770943 51.49999999999999
   vertex -18.80239054890165 20.36063536770943 -22.50000000000000
  endloop
 endfacet
 facet normal -0.21045771077294 -0.97760296234014 -0.00000000000000
  outer loop
   vertex -18.80239054890165 20.36063536770943 51.49999999999999
   vertex -20.77445346465675 20.78517975100031 51.50000000000000
   vertex -18.80239054890165 20.36063536770943 -22.50000000000000
  endloop
 endfacet
 facet normal 0.00000000000001 -0.00000000000008 1.00000000000000
  outer loop
   vertex -20.93009086502727 0.89216683614254 -22.50000000000001
   vertex -18.91051049873492 1.29850328909018 -22.50000000000001
   vertex -21.91461291092196 0.84678399804855 -22.50000000000000
  endloop
 endfacet
 facet normal -0.00000000013845 0.00000000000000 1.00000000000000
  outer loop
   vertex -21.91461291092196 -0.65322282557455 -22.50000000000000
   vertex -21.91461291092196 0.84678399804855 -22.50000000000000
   vertex -23.95850113243647 -0.45817658887592 -22.50000000028297
  endloop
 endfacet
 facet normal 0.00000000000000 0.00000004627322 1.00000000000000
  outer loop
   vertex -10.38226366628852 22.33450143380596 -22.50000000000000
   vertex -10.38226366628852 22.34061655881657 -22.50000000028297
   vertex -21.35203444668783 22.33450143380596 -22.50000000000000
  endloop
 endfacet
 facet normal 0.00000000000000 0.00000004627322 1.00000000000000
  outer loop
   vertex -10.38226366628852 22.34061655881657 -22.50000000028297
   vertex -21.35203444668784 22.34061655881657 -22.50000000028297
   vertex -21.35203444668783 22.33450143380596 -22.50000000000000
  endloop
 endfacet
 facet normal 0.00000000100220 0.00000004627322 1.00000000000000
  outer loop
   vertex -21.35203444668783 22.33450143380596 -22.50000000000000
   vertex -21.35203444668784 22.34061655881657 -22.50000000028297
   vertex -21.91461291092196 22.34668619322889 -22.50000000000001
  endloop
 endfacet
 facet normal 0.00000000100219 0.00000004627256 1.00000000000000
  outer loop
   vertex -21.35203444668784 22.34061655881657 -22.50000000028297
   vertex -21.91462817265605 22.35280127530222 -22.50000000028296
   vertex -21.91461291092196 22.34668619322889 -22.50000000000001
  endloop
 endfacet
 facet normal -0.00000000461578 0.00000004625854 1.00000000000000
  outer loop
   vertex -21.91462817265605 22.35280127530222 -22.50000000028296
   vertex -24.12290088173638 22.13245487666036 -22.50000000028296
   vertex -21.91461291092196 22.34668619322889 -22.50000000000001
  endloop
 endfacet
 facet normal -0.00000000012813 0.00000000000001 1.00000000000000
  outer loop
   vertex -21.91461291092196 22.34668619322889 -22.50000000000001
   vertex -24.12290088173638 22.13245487666036 -22.50000000028296
   vertex -21.91461291092196 20.84667936960578 -22.50000000000000
  endloop
 endfacet
 facet normal -0.00000000004187 -0.00000000015126 1.00000000000000
  outer loop
   vertex -23.95850113243647 -0.45817658887592 -22.50000000028297
   vertex -21.91461291092196 0.84678399804855 -22.50000000000000
   vertex -25.91843552178589 0.08440492053588 -22.50000000028297
  endloop
 endfacet
 facet normal -0.00000000004605 0.00000000014097 1.00000000000000
  outer loop
   vertex -24.12290088173638 22.13245487666036 -22.50000000028296
   vertex -26.73265569415931 21.27991379606064 -22.50000000028296
   vertex -21.91461291092196 20.84667936960578 -22.50000000000000
  endloop
 endfacet
 facet normal -0.00000000005317 -0.00000000009194 1.00000000000000
  outer loop
   vertex -25.91843552178589 0.08440492053588 -22.50000000028297
   vertex -21.91461291092196 0.84678399804855 -22.50000000000000
   vertex -29.20276455292806 1.98378202131340 -22.50000000028297
  endloop
 endfacet
 facet normal -0.00000000005122 0.00000000008348 1.00000000000000
  outer loop
   vertex -26.73265569415931 21.27991379606064 -22.50000000028296
   vertex -28.98121119040487 19.90022135462941 -22.50000000028297
   vertex -21.91461291092196 20.84667936960578 -22.50000000000000
  endloop
 endfacet
 facet normal -0.00000000004642 0.00000000004758 1.00000000000000
  outer loop
   vertex -28.98121119040487 19.90022135462941 -22.50000000028297
   vertex -30.75133142059104 18.17334472869917 -22.50000000028297
   vertex -21.91461291092196 20.84667936960578 -22.50000000000000
  endloop
 endfacet
 facet normal -0.00000000004035 0.00000000002752 1.00000000000000
  outer loop
   vertex -30.75133142059104 18.17334472869917 -22.50000000028297
   vertex -31.93532579814853 16.43728961214085 -22.50000000028297
   vertex -21.91461291092196 20.84667936960578 -22.50000000000000
  endloop
 endfacet
 facet normal -0.00000000003492 0.00000000001518 1.00000000000000
  outer loop
   vertex -31.93532579814853 16.43728961214085 -22.50000000028297
   vertex -32.82325586953125 14.39470430562754 -22.50000000028296
   vertex -21.91461291092196 20.84667936960578 -22.50000000000000
  endloop
 endfacet
 facet normal -0.00000000002972 0.00000000000640 1.00000000000000
  outer loop
   vertex -32.82325586953125 14.39470430562754 -22.50000000028296
   vertex -33.31148191031577 12.12683195250917 -22.50000000028296
   vertex -21.91461291092196 20.84667936960578 -22.50000000000000
  endloop
 endfacet
 facet normal -0.00000000002498 0.00000000000019 1.00000000000000
  outer loop
   vertex -33.31148191031577 12.12683195250917 -22.50000000028296
   vertex -33.33001620790399 9.75784467559247 -22.50000000028297
   vertex -21.91461291092196 20.84667936960578 -22.50000000000000
  endloop
 endfacet
 facet normal -0.00000000002074 -0.00000000000417 1.00000000000000
  outer loop
   vertex -33.33001620790399 9.75784467559247 -22.50000000028297
   vertex -32.86272928701420 7.43532725435627 -22.50000000028296
   vertex -21.91461291092196 20.84667936960578 -22.50000000000000
  endloop
 endfacet
 facet normal -0.00000000001698 -0.00000000000724 1.00000000000000
  outer loop
   vertex -32.86272928701420 7.43532725435627 -22.50000000028296
   vertex -31.95343578395486 5.30113068369254 -22.50000000028296
   vertex -21.91461291092196 20.84667936960578 -22.50000000000000
  endloop
 endfacet
 facet normal -0.00000000001367 -0.00000000000937 1.00000000000000
  outer loop
   vertex -31.95343578395486 5.30113068369254 -22.50000000028296
   vertex -30.69439363792775 3.46390793710539 -22.50000000028296
   vertex -21.91461291092196 20.84667936960578 -22.50000000000000
  endloop
 endfacet
 facet normal -0.00000000001076 -0.00000000001084 1.00000000000000
  outer loop
   vertex -30.69439363792775 3.46390793710539 -22.50000000028296
   vertex -29.20276455292806 1.98378202131340 -22.50000000028297
   vertex -21.91461291092196 20.84667936960578 -22.50000000000000
  endloop
 endfacet
 facet normal -0.00000000003883 0.00000000000000 1.00000000000000
  outer loop
   vertex -29.20276455292806 1.98378202131340 -22.50000000028297
   vertex -21.91461291092196 0.84678399804855 -22.50000000000000
   vertex -21.91461291092196 20.84667936960578 -22.50000000000000
  endloop
 endfacet
 facet normal 0.00000000000000 0.00000000000000 1.00000000000000
  outer loop
   vertex -21.91461291092196 20.84667936960578 -22.50000000000000
   vertex -21.91461291092196 0.84678399804855 -22.50000000000000
   vertex -20.77445346465675 20.78517975100031 -22.50000000000000
  endloop
 endfacet
 facet normal 0.00000000000000 -0.00000000000000 1.00000000000000
  outer loop
   vertex -20.77445346465675 20.78517975100031 -22.50000000000000
   vertex -21.91461291092196 0.84678399804855 -22.50000000000000
   vertex -18.80239054890165 20.36063536770943 -22.50000000000000
  endloop
 endfacet
 facet normal -0.00000000000000 0.00000000000000 1.00000000000000
  outer loop
   vertex -18.80239054890165 20.36063536770943 -22.50000000000000
   vertex -21.91461291092196 0.84678399804855 -22.50000000000000
   vertex -17.02622941280312 19.58852226215923 -22.50000000000000
  endloop
 endfacet
 facet normal 0.00000000000000 0.00000000000000 1.00000000000000
  outer loop
   vertex -17.02622941280312 19.58852226215923 -22.50000000000000
   vertex -21.91461291092196 0.84678399804855 -22.50000000000000
   vertex -15.51661626796979 18.55896193384838 -22.50000000000000
  endloop
 endfacet
 facet normal 0.00000000000000 0.00000000000000 1.00000000000000
  outer loop
   vertex -15.51661626796979 18.55896193384838 -22.50000000000000
   vertex -21.91461291092196 0.84678399804855 -22.50000000000000
   vertex -14.21954749840484 17.27189592011620 -22.50000000000000
  endloop
 endfacet
 facet normal 0.00000000000000 -0.00000000000000 1.00000000000000
  outer loop
   vertex -14.21954749840484 17.27189592011620 -22.50000000000000
   vertex -21.91461291092196 0.84678399804855 -22.50000000000000
   vertex -13.12472824098995 15.67431092308390 -22.50000000000000
  endloop
 endfacet
 facet normal -0.00000000000000 0.00000000000000 1.00000000000000
  outer loop
   vertex -13.12472824098995 15.67431092308390 -22.50000000000000
   vertex -21.91461291092196 0.84678399804855 -22.50000000000000
   vertex -12.33403823832967 13.81848781815890 -22.50000000000000
  endloop
 endfacet
 facet normal 0.00000000000000 0.00000000000000 1.00000000000000
  outer loop
   vertex -12.33403823832967 13.81848781815890 -22.50000000000000
   vertex -21.91461291092196 0.84678399804855 -22.50000000000000
   vertex -11.92770178538203 11.79890745186655 -22.50000000000000
  endloop
 endfacet
 facet normal 0.00000000000000 0.00000000000000 1.00000000000000
  outer loop
   vertex -11.92770178538203 11.79890745186655 -22.50000000000000
   vertex -21.91461291092196 0.84678399804855 -22.50000000000000
   vertex -11.94381856589352 9.73891851541725 -22.50000000000000
  endloop
 endfacet
 facet normal 0.00000000000000 0.00000000000000 1.00000000000000
  outer loop
   vertex -11.94381856589352 9.73891851541725 -22.50000000000000
   vertex -21.91461291092196 0.84678399804855 -22.50000000000000
   vertex -12.36836294918441 7.76685559966214 -22.50000000000000
  endloop
 endfacet
 facet normal 0.00000000000000 -0.00000000000000 1.00000000000000
  outer loop
   vertex -12.36836294918441 7.76685559966214 -22.50000000000000
   vertex -21.91461291092196 0.84678399804855 -22.50000000000000
   vertex -13.14047605473461 5.99069446356362 -22.50000000000000
  endloop
 endfacet
 facet normal -0.00000000000000 0.00000000000001 1.00000000000000
  outer loop
   vertex -13.14047605473461 5.99069446356362 -22.50000000000000
   vertex -21.91461291092196 0.84678399804855 -22.50000000000000
   vertex -14.17003638304546 4.48108131873030 -22.50000000000000
  endloop
 endfacet
 facet normal 0.00000000000000 -0.00000000000000 1.00000000000000
  outer loop
   vertex -14.17003638304546 4.48108131873030 -22.50000000000000
   vertex -21.91461291092196 0.84678399804855 -22.50000000000000
   vertex -15.45710239677763 3.18401254916535 -22.50000000000000
  endloop
 endfacet
 facet normal 0.00000000000000 -0.00000000000001 1.00000000000000
  outer loop
   vertex -15.45710239677763 3.18401254916535 -22.50000000000000
   vertex -21.91461291092196 0.84678399804855 -22.50000000000000
   vertex -17.05468739380993 2.08919329175046 -22.50000000000000
  endloop
 endfacet
 facet normal 0.00000000000000 -0.00000000000002 1.00000000000000
  outer loop
   vertex -17.05468739380993 2.08919329175046 -22.50000000000000
   vertex -21.91461291092196 0.84678399804855 -22.50000000000000
   vertex -18.91051049873492 1.29850328909018 -22.50000000000001
  endloop
 endfacet
 facet normal -0.00000000000000 0.00000000000002 -1.00000000000000
  outer loop
   vertex -21.88226663306666 -0.64715319116222 -24.50000000028297
   vertex -23.95850113243647 -0.45817658887592 -24.50000000028296
   vertex -21.84992035520982 -0.64710770056394 -24.50000000028297
  endloop
 endfacet
 facet normal 0.00000000000000 0.00000000000000 -1.00000000000000
  outer loop
   vertex -10.38226366628852 -0.64710770056394 -24.50000000028297
   vertex -21.84992035520982 -0.64710770056394 -24.50000000028297
   vertex -10.38226366628852 22.34061655881657 -24.50000000028297
  endloop
 endfacet
 facet normal -0.00000000000000 0.00000000000000 -1.00000000000000
  outer loop
   vertex -10.38226366628852 22.34061655881657 -24.50000000028297
   vertex -21.84992035520982 -0.64710770056394 -24.50000000028297
   vertex -21.35203444668784 22.34061655881657 -24.50000000028297
  endloop
 endfacet
 facet normal -0.00000000000000 0.00000000000000 -1.00000000000000
  outer loop
   vertex -21.35203444668784 22.34061655881657 -24.50000000028297
   vertex -21.84992035520982 -0.64710770056394 -24.50000000028297
   vertex -24.12290088173638 22.13245487666036 -24.50000000028296
  endloop
 endfacet
 facet normal -0.00000000000000 0.00000000000000 -1.00000000000000
  outer loop
   vertex -24.12290088173638 22.13245487666036 -24.50000000028296
   vertex -21.84992035520982 -0.64710770056394 -24.50000000028297
   vertex -26.73265569415931 21.27991379606064 -24.50000000028296
  endloop
 endfacet
 facet normal 0.00000000000000 0.00000000000000 -1.00000000000000
  outer loop
   vertex -26.73265569415931 21.27991379606064 -24.50000000028296
   vertex -21.84992035520982 -0.64710770056394 -24.50000000028297
   vertex -28.98121119040487 19.90022135462941 -24.50000000028297
  endloop
 endfacet
 facet normal 0.00000000000000 -0.00000000000000 -1.00000000000000
  outer loop
   vertex -28.98121119040487 19.90022135462941 -24.50000000028297
   vertex -21.84992035520982 -0.64710770056394 -24.50000000028297
   vertex -30.75133142059104 18.17334472869917 -24.50000000028297
  endloop
 endfacet
 facet normal -0.00000000000000 -0.00000000000000 -1.00000000000000
  outer loop
   vertex -30.75133142059104 18.17334472869917 -24.50000000028297
   vertex -21.84992035520982 -0.64710770056394 -24.50000000028297
   vertex -31.93532579814853 16.43728961214085 -24.50000000028296
  endloop
 endfacet
 facet normal -0.00000000000000 0.00000000000000 -1.00000000000000
  outer loop
   vertex -31.93532579814853 16.43728961214085 -24.50000000028296
   vertex -21.84992035520982 -0.64710770056394 -24.50000000028297
   vertex -32.82325586953125 14.39470430562754 -24.50000000028296
  endloop
 endfacet
 facet normal -0.00000000000000 0.00000000000000 -1.00000000000000
  outer loop
   vertex -32.82325586953125 14.39470430562754 -24.50000000028296
   vertex -21.84992035520982 -0.64710770056394 -24.50000000028297
   vertex -33.31148191031577 12.12683195250917 -24.50000000028296
  endloop
 endfacet
 facet normal -0.00000000000000 0.00000000000000 -1.00000000000000
  outer loop
   vertex -33.31148191031577 12.12683195250917 -24.50000000028296
   vertex -21.84992035520982 -0.64710770056394 -24.50000000028297
   vertex -33.33001620790399 9.75784467559247 -24.50000000028296
  endloop
 endfacet
 facet normal -0.00000000000000 -0.00000000000000 -1.00000000000000
  outer loop
   vertex -33.33001620790399 9.75784467559247 -24.50000000028296
   vertex -21.84992035520982 -0.64710770056394 -24.50000000028297
   vertex -32.86272928701420 7.43532725435627 -24.50000000028296
  endloop
 endfacet
 facet normal -0.00000000000000 -0.00000000000000 -1.00000000000000
  outer loop
   vertex -32.86272928701420 7.43532725435627 -24.50000000028296
   vertex -21.84992035520982 -0.64710770056394 -24.50000000028297
   vertex -31.95343578395486 5.30113068369254 -24.50000000028296
  endloop
 endfacet
 facet normal -0.00000000000000 -0.00000000000000 -1.00000000000000
  outer loop
   vertex -31.95343578395486 5.30113068369254 -24.50000000028296
   vertex -21.84992035520982 -0.64710770056394 -24.50000000028297
   vertex -30.69439363792775 3.46390793710539 -24.50000000028296
  endloop
 endfacet
 facet normal 0.00000000000000 0.00000000000000 -1.00000000000000
  outer loop
   vertex -30.69439363792775 3.46390793710539 -24.50000000028296
   vertex -21.84992035520982 -0.64710770056394 -24.50000000028297
   vertex -29.20276455292806 1.98378202131340 -24.50000000028297
  endloop
 endfacet
 facet normal -0.00000000000000 -0.00000000000001 -1.00000000000000
  outer loop
   vertex -29.20276455292806 1.98378202131340 -24.50000000028297
   vertex -21.84992035520982 -0.64710770056394 -24.50000000028297
   vertex -25.91843552178589 0.08440492053588 -24.50000000028296
  endloop
 endfacet
 facet normal -0.00000000000000 0.00000000000000 -1.00000000000000
  outer loop
   vertex -25.91843552178589 0.08440492053588 -24.50000000028296
   vertex -21.84992035520982 -0.64710770056394 -24.50000000028297
   vertex -23.95850113243647 -0.45817658887592 -24.50000000028296
  endloop
 endfacet
 facet normal 0.00000000000000 -1.00000000000000 -0.00000000000000
  outer loop
   vertex -10.38226366628852 -0.64710770056394 -22.50000000000000
   vertex -21.84992035520982 -0.64710770056394 -22.50000000028297
   vertex -10.38226366628852 -0.64710770056394 -24.50000000028297
  endloop
 endfacet
 facet normal 0.00140636129747 -0.99999901107346 0.00000000000000
  outer loop
   vertex -21.88226663306666 -0.64715319116222 -24.50000000028297
   vertex -21.84992035520982 -0.64710770056394 -24.50000000028297
   vertex -21.88226663306666 -0.64715319116222 -22.50000000028297
  endloop
 endfacet
 facet normal 0.00140636129747 -0.99999901107346 0.00000000000000
  outer loop
   vertex -21.88226663306666 -0.64715319116222 -22.50000000028297
   vertex -21.84992035520982 -0.64710770056394 -24.50000000028297
   vertex -21.84992035520982 -0.64710770056394 -22.50000000028297
  endloop
 endfacet
 facet normal 0.00000000000000 -1.00000000000000 0.00000000000000
  outer loop
   vertex -21.84992035520982 -0.64710770056394 -24.50000000028297
   vertex -10.38226366628852 -0.64710770056394 -24.50000000028297
   vertex -21.84992035520982 -0.64710770056394 -22.50000000028297
  endloop
 endfacet
 facet normal -0.00000000000000 1.00000000000000 0.00000000000000
  outer loop
   vertex -21.35203444668784 22.34061655881657 -22.50000000028297
   vertex -10.38226366628852 22.34061655881657 -22.50000000028297
   vertex -21.35203444668784 22.34061655881657 -24.50000000028297
  endloop
 endfacet
 facet normal 0.00000000000000 1.00000000000000 -0.00000000000000
  outer loop
   vertex -10.38226366628852 22.34061655881657 -24.50000000028297
   vertex -21.35203444668784 22.34061655881657 -24.50000000028297
   vertex -10.38226366628852 22.34061655881657 -22.50000000028297
  endloop
 endfacet
 facet normal 0.18442670794593 -0.98284626946244 0.00000000000000
  outer loop
   vertex -21.88226663306666 -0.64715319116222 -22.50000000028297
   vertex -21.91461291092196 -0.65322282557455 -22.50000000000000
   vertex -21.88226663306666 -0.64715319116222 -24.50000000028297
  endloop
 endfacet
 facet normal -0.07491402129881 0.99718999664700 0.00000000000000
  outer loop
   vertex -21.35203444668784 22.34061655881657 -24.50000000028297
   vertex -24.12290088173638 22.13245487666036 -24.50000000028296
   vertex -21.35203444668784 22.34061655881657 -22.50000000028297
  endloop
 endfacet
 facet normal 0.02146105394278 0.99090153760225 -0.13286672247464
  outer loop
   vertex -21.35203444668784 22.34061655881657 -22.50000000028297
   vertex -24.12290088173638 22.13245487666036 -24.50000000028296
   vertex -21.91462817265605 22.35280127530222 -22.50000000028296
  endloop
 endfacet
 facet normal -0.09928917866361 0.99505862088638 -0.00000000000000
  outer loop
   vertex -21.91462817265605 22.35280127530222 -22.50000000028296
   vertex -24.12290088173638 22.13245487666036 -24.50000000028296
   vertex -24.12290088173638 22.13245487666036 -22.50000000028296
  endloop
 endfacet
 facet normal -0.31052561657845 0.95056501168967 0.00000000000000
  outer loop
   vertex -24.12290088173638 22.13245487666036 -24.50000000028296
   vertex -26.73265569415931 21.27991379606064 -24.50000000028296
   vertex -24.12290088173638 22.13245487666036 -22.50000000028296
  endloop
 endfacet
 facet normal -0.31052561657845 0.95056501168967 -0.00000000000000
  outer loop
   vertex -24.12290088173638 22.13245487666036 -22.50000000028296
   vertex -26.73265569415931 21.27991379606064 -24.50000000028296
   vertex -26.73265569415931 21.27991379606064 -22.50000000028296
  endloop
 endfacet
 facet normal -0.52298786280904 0.85234012891242 0.00000000000000
  outer loop
   vertex -26.73265569415931 21.27991379606064 -24.50000000028296
   vertex -28.98121119040487 19.90022135462941 -24.50000000028297
   vertex -26.73265569415931 21.27991379606064 -22.50000000028296
  endloop
 endfacet
 facet normal -0.52298786280904 0.85234012891242 0.00000000000000
  outer loop
   vertex -26.73265569415931 21.27991379606064 -22.50000000028296
   vertex -28.98121119040487 19.90022135462941 -24.50000000028297
   vertex -28.98121119040487 19.90022135462941 -22.50000000028297
  endloop
 endfacet
 facet normal -0.69830936173435 0.71579608500897 0.00000000000000
  outer loop
   vertex -28.98121119040487 19.90022135462941 -24.50000000028297
   vertex -30.75133142059104 18.17334472869917 -24.50000000028297
   vertex -28.98121119040487 19.90022135462941 -22.50000000028297
  endloop
 endfacet
 facet normal -0.69830936173435 0.71579608500897 -0.00000000000000
  outer loop
   vertex -28.98121119040487 19.90022135462941 -22.50000000028297
   vertex -30.75133142059104 18.17334472869917 -24.50000000028297
   vertex -30.75133142059104 18.17334472869917 -22.50000000028297
  endloop
 endfacet
 facet normal -0.82615636120975 0.56344091689605 0.00000000000000
  outer loop
   vertex -30.75133142059104 18.17334472869917 -24.50000000028297
   vertex -31.93532579814853 16.43728961214085 -24.50000000028296
   vertex -30.75133142059104 18.17334472869917 -22.50000000028297
  endloop
 endfacet
 facet normal -0.82615636120975 0.56344091689605 0.00000000000000
  outer loop
   vertex -30.75133142059104 18.17334472869917 -22.50000000028297
   vertex -31.93532579814853 16.43728961214085 -24.50000000028296
   vertex -31.93532579814853 16.43728961214085 -22.50000000028297
  endloop
 endfacet
 facet normal -0.91709476252025 0.39866928218502 0.00000000000000
  outer loop
   vertex -31.93532579814853 16.43728961214085 -24.50000000028296
   vertex -32.82325586953125 14.39470430562754 -24.50000000028296
   vertex -31.93532579814853 16.43728961214085 -22.50000000028297
  endloop
 endfacet
 facet normal -0.91709476252025 0.39866928218502 0.00000000000000
  outer loop
   vertex -31.93532579814853 16.43728961214085 -22.50000000028297
   vertex -32.82325586953125 14.39470430562754 -24.50000000028296
   vertex -32.82325586953125 14.39470430562754 -22.50000000028296
  endloop
 endfacet
 facet normal -0.97760296234014 0.21045771077294 0.00000000000000
  outer loop
   vertex -32.82325586953125 14.39470430562754 -24.50000000028296
   vertex -33.31148191031577 12.12683195250917 -24.50000000028296
   vertex -32.82325586953125 14.39470430562754 -22.50000000028296
  endloop
 endfacet
 facet normal -0.97760296234014 0.21045771077294 0.00000000000000
  outer loop
   vertex -32.82325586953125 14.39470430562754 -22.50000000028296
   vertex -33.31148191031577 12.12683195250917 -24.50000000028296
   vertex -33.31148191031577 12.12683195250917 -22.50000000028296
  endloop
 endfacet
 facet normal -0.99996939609294 0.00782348244201 0.00000000000000
  outer loop
   vertex -33.31148191031577 12.12683195250917 -24.50000000028296
   vertex -33.33001620790399 9.75784467559247 -24.50000000028296
   vertex -33.31148191031577 12.12683195250917 -22.50000000028296
  endloop
 endfacet
 facet normal -0.99996939609294 0.00782348244201 0.00000000000000
  outer loop
   vertex -33.31148191031577 12.12683195250917 -22.50000000028296
   vertex -33.33001620790399 9.75784467559247 -24.50000000028296
   vertex -33.33001620790399 9.75784467559247 -22.50000000028297
  endloop
 endfacet
 facet normal -0.98035408031048 -0.19724572801103 0.00000000000000
  outer loop
   vertex -33.33001620790399 9.75784467559247 -24.50000000028296
   vertex -32.86272928701420 7.43532725435627 -24.50000000028296
   vertex -33.33001620790399 9.75784467559247 -22.50000000028297
  endloop
 endfacet
 facet normal -0.98035408031048 -0.19724572801103 -0.00000000000000
  outer loop
   vertex -33.33001620790399 9.75784467559247 -22.50000000028297
   vertex -32.86272928701420 7.43532725435627 -24.50000000028296
   vertex -32.86272928701420 7.43532725435627 -22.50000000028296
  endloop
 endfacet
 facet normal -0.91997985990181 -0.39196563290044 0.00000000000000
  outer loop
   vertex -32.86272928701420 7.43532725435627 -24.50000000028296
   vertex -31.95343578395486 5.30113068369254 -24.50000000028296
   vertex -32.86272928701420 7.43532725435627 -22.50000000028296
  endloop
 endfacet
 facet normal -0.91997985990181 -0.39196563290044 0.00000000000000
  outer loop
   vertex -32.86272928701420 7.43532725435627 -22.50000000028296
   vertex -31.95343578395486 5.30113068369254 -24.50000000028296
   vertex -31.95343578395486 5.30113068369254 -22.50000000028296
  endloop
 endfacet
 facet normal -0.82488959119866 -0.56529387254074 0.00000000000000
  outer loop
   vertex -31.95343578395486 5.30113068369254 -24.50000000028296
   vertex -30.69439363792775 3.46390793710539 -24.50000000028296
   vertex -31.95343578395486 5.30113068369254 -22.50000000028296
  endloop
 endfacet
 facet normal -0.82488959119866 -0.56529387254074 0.00000000000000
  outer loop
   vertex -31.95343578395486 5.30113068369254 -22.50000000028296
   vertex -30.69439363792775 3.46390793710539 -24.50000000028296
   vertex -30.69439363792775 3.46390793710539 -22.50000000028296
  endloop
 endfacet
 facet normal -0.70436441162488 -0.70983855603675 0.00000000000000
  outer loop
   vertex -30.69439363792775 3.46390793710539 -24.50000000028296
   vertex -29.20276455292806 1.98378202131340 -24.50000000028297
   vertex -30.69439363792775 3.46390793710539 -22.50000000028296
  endloop
 endfacet
 facet normal -0.70436441162488 -0.70983855603675 0.00000000000000
  outer loop
   vertex -30.69439363792775 3.46390793710539 -22.50000000028296
   vertex -29.20276455292806 1.98378202131340 -24.50000000028297
   vertex -29.20276455292806 1.98378202131340 -22.50000000028297
  endloop
 endfacet
 facet normal -0.50062628899475 -0.86566351359367 0.00000000000000
  outer loop
   vertex -29.20276455292806 1.98378202131340 -24.50000000028297
   vertex -25.91843552178589 0.08440492053588 -24.50000000028296
   vertex -29.20276455292806 1.98378202131340 -22.50000000028297
  endloop
 endfacet
 facet normal -0.50062628899475 -0.86566351359367 -0.00000000000000
  outer loop
   vertex -29.20276455292806 1.98378202131340 -22.50000000028297
   vertex -25.91843552178589 0.08440492053588 -24.50000000028296
   vertex -25.91843552178589 0.08440492053588 -22.50000000028297
  endloop
 endfacet
 facet normal -0.26680164702022 -0.96375146233212 0.00000000000000
  outer loop
   vertex -25.91843552178589 0.08440492053588 -24.50000000028296
   vertex -23.95850113243647 -0.45817658887592 -24.50000000028296
   vertex -25.91843552178589 0.08440492053588 -22.50000000028297
  endloop
 endfacet
 facet normal -0.26680164702022 -0.96375146233212 -0.00000000000000
  outer loop
   vertex -25.91843552178589 0.08440492053588 -22.50000000028297
   vertex -23.95850113243647 -0.45817658887592 -24.50000000028296
   vertex -23.95850113243647 -0.45817658887592 -22.50000000028297
  endloop
 endfacet
 facet normal -0.09064421665196 -0.99588333954713 0.00000000000000
  outer loop
   vertex -23.95850113243647 -0.45817658887592 -24.50000000028296
   vertex -21.88226663306666 -0.64715319116222 -24.50000000028297
   vertex -23.95850113243647 -0.45817658887592 -22.50000000028297
  endloop
 endfacet
 facet normal -0.09499645084614 -0.99546717874597 -0.00455745171875
  outer loop
   vertex -23.95850113243647 -0.45817658887592 -22.50000000028297
   vertex -21.88226663306666 -0.64715319116222 -24.50000000028297
   vertex -21.91461291092196 -0.65322282557455 -22.50000000000000
  endloop
 endfacet
endsolid STL file created by POPLib
