solid Default
  facet normal 1.787492e-01 9.792402e-01 9.558905e-02
    outer loop
      vertex 7.148016e+00 1.274572e+01 5.798787e+01
      vertex 9.190953e+00 1.365743e+01 4.482779e+01
      vertex -5.677342e-07 1.530392e+01 4.514761e+01
    endloop
  endfacet
  facet normal 1.894260e-01 9.778201e-01 8.936249e-02
    outer loop
      vertex -5.677342e-07 1.530392e+01 4.514761e+01
      vertex -5.677342e-07 1.413045e+01 5.798787e+01
      vertex 7.148016e+00 1.274572e+01 5.798787e+01
    endloop
  endfacet
  facet normal 5.506291e-01 -7.967286e-01 2.490606e-01
    outer loop
      vertex 1.839055e+01 -6.829558e+00 3.552591e+01
      vertex 1.656784e+01 -5.404456e+00 4.411443e+01
      vertex 9.267875e+00 -1.044955e+01 4.411443e+01
    endloop
  endfacet
  facet normal 5.868433e-01 -7.489749e-01 3.076549e-01
    outer loop
      vertex 9.267875e+00 -1.044955e+01 4.411443e+01
      vertex 1.034683e+01 -1.313204e+01 3.552591e+01
      vertex 1.839055e+01 -6.829558e+00 3.552591e+01
    endloop
  endfacet
  facet normal 8.462149e-01 5.326344e-01 -1.486707e-02
    outer loop
      vertex 1.805707e+01 1.125568e+01 1.704657e-01
      vertex 1.863593e+01 1.068744e+01 1.276031e+01
      vertex 2.336959e+01 3.298379e+00 1.747056e+01
    endloop
  endfacet
  facet normal 9.300393e-01 3.448174e-01 -1.269957e-01
    outer loop
      vertex 2.336959e+01 3.298379e+00 1.747056e+01
      vertex 2.107720e+01 3.298378e+00 6.824544e-01
      vertex 1.805707e+01 1.125568e+01 1.704657e-01
    endloop
  endfacet
  facet normal 3.637647e-01 9.236690e-01 1.204605e-01
    outer loop
      vertex 9.190953e+00 1.365743e+01 4.482779e+01
      vertex 7.148016e+00 1.274572e+01 5.798787e+01
      vertex 1.251628e+01 1.063156e+01 5.798787e+01
    endloop
  endfacet
  facet normal 5.168355e-01 8.535628e-01 6.566271e-02
    outer loop
      vertex 1.251628e+01 1.063156e+01 5.798787e+01
      vertex 1.593813e+01 9.584246e+00 4.466852e+01
      vertex 9.190953e+00 1.365743e+01 4.482779e+01
    endloop
  endfacet
  facet normal 3.804337e-01 -9.245507e-01 -2.182536e-02
    outer loop
      vertex 1.763705e+01 -7.420761e+00 3.660487e-01
      vertex 1.894296e+01 -7.218467e+00 1.455966e+01
      vertex 1.102557e+01 -1.047631e+01 1.455966e+01
    endloop
  endfacet
  facet normal 1.700080e-01 -9.766877e-01 -1.310669e-01
    outer loop
      vertex 1.102557e+01 -1.047631e+01 1.455966e+01
      vertex 1.038443e+01 -8.683195e+00 3.660487e-01
      vertex 1.763705e+01 -7.420761e+00 3.660487e-01
    endloop
  endfacet
  facet normal 5.125901e-01 8.426496e-01 1.649028e-01
    outer loop
      vertex 1.030076e+01 1.476335e+01 3.572681e+01
      vertex 9.190953e+00 1.365743e+01 4.482779e+01
      vertex 1.593813e+01 9.584246e+00 4.466852e+01
    endloop
  endfacet
  facet normal 5.073302e-01 8.449118e-01 1.695292e-01
    outer loop
      vertex 1.593813e+01 9.584246e+00 4.466852e+01
      vertex 1.783944e+01 1.024364e+01 3.569236e+01
      vertex 1.030076e+01 1.476335e+01 3.572681e+01
    endloop
  endfacet
  facet normal 9.417981e-01 2.523539e-01 2.221125e-01
    outer loop
      vertex 1.593813e+01 9.584246e+00 4.466852e+01
      vertex 1.251628e+01 1.063156e+01 5.798787e+01
      vertex 1.448120e+01 3.298378e+00 5.798787e+01
    endloop
  endfacet
  facet normal 8.366382e-01 4.543536e-01 3.059404e-01
    outer loop
      vertex 1.448120e+01 3.298378e+00 5.798787e+01
      vertex 2.013108e+01 2.829619e+00 4.323361e+01
      vertex 1.593813e+01 9.584246e+00 4.466852e+01
    endloop
  endfacet
  facet normal 4.533524e-01 8.908422e-01 -2.952606e-02
    outer loop
      vertex 1.034207e+01 1.448930e+01 1.212897e-01
      vertex 1.063594e+01 1.474366e+01 1.230783e+01
      vertex 1.863593e+01 1.068744e+01 1.276031e+01
    endloop
  endfacet
  facet normal 3.863142e-01 9.220588e-01 2.385510e-02
    outer loop
      vertex 1.863593e+01 1.068744e+01 1.276031e+01
      vertex 1.805707e+01 1.125568e+01 1.704657e-01
      vertex 1.034207e+01 1.448930e+01 1.212897e-01
    endloop
  endfacet
  facet normal 9.034982e-01 -2.420918e-01 3.536700e-01
    outer loop
      vertex 2.013108e+01 2.829619e+00 4.323361e+01
      vertex 1.448120e+01 3.298378e+00 5.798787e+01
      vertex 1.251628e+01 -4.034806e+00 5.798787e+01
    endloop
  endfacet
  facet normal 8.882005e-01 -3.528891e-01 2.942263e-01
    outer loop
      vertex 1.251628e+01 -4.034806e+00 5.798787e+01
      vertex 1.656784e+01 -5.404456e+00 4.411443e+01
      vertex 2.013108e+01 2.829619e+00 4.323361e+01
    endloop
  endfacet
  facet normal 6.815674e-01 -6.815673e-01 2.663304e-01
    outer loop
      vertex 1.656784e+01 -5.404456e+00 4.411443e+01
      vertex 1.251628e+01 -4.034806e+00 5.798787e+01
      vertex 7.148017e+00 -9.403067e+00 5.798787e+01
    endloop
  endfacet
  facet normal 5.623432e-01 -8.136782e-01 1.473022e-01
    outer loop
      vertex 7.148017e+00 -9.403067e+00 5.798787e+01
      vertex 9.267875e+00 -1.044955e+01 4.411443e+01
      vertex 1.656784e+01 -5.404456e+00 4.411443e+01
    endloop
  endfacet
  facet normal 9.051951e-01 -3.691989e-01 2.105088e-01
    outer loop
      vertex 2.207530e+01 3.201667e+00 3.552591e+01
      vertex 2.013108e+01 2.829619e+00 4.323361e+01
      vertex 1.656784e+01 -5.404456e+00 4.411443e+01
    endloop
  endfacet
  facet normal 9.092577e-01 -3.339955e-01 2.483895e-01
    outer loop
      vertex 1.656784e+01 -5.404456e+00 4.411443e+01
      vertex 1.839055e+01 -6.829558e+00 3.552591e+01
      vertex 2.207530e+01 3.201667e+00 3.552591e+01
    endloop
  endfacet
  facet normal 2.633748e-01 -9.581097e-01 1.125145e-01
    outer loop
      vertex 9.267875e+00 -1.044955e+01 4.411443e+01
      vertex 7.148017e+00 -9.403067e+00 5.798787e+01
      vertex -5.677342e-07 -1.136799e+01 5.798787e+01
    endloop
  endfacet
  facet normal 2.886623e-01 -9.485588e-01 1.300396e-01
    outer loop
      vertex -5.677342e-07 -1.136799e+01 5.798787e+01
      vertex -5.677342e-07 -1.322967e+01 4.440804e+01
      vertex 9.267875e+00 -1.044955e+01 4.411443e+01
    endloop
  endfacet
  facet normal 9.263142e-01 -3.548847e-01 -1.264870e-01
    outer loop
      vertex 2.107720e+01 3.298378e+00 6.824544e-01
      vertex 2.336959e+01 3.298379e+00 1.747056e+01
      vertex 1.894296e+01 -7.218467e+00 1.455966e+01
    endloop
  endfacet
  facet normal 9.495859e-01 -3.023042e-01 -8.305981e-02
    outer loop
      vertex 1.894296e+01 -7.218467e+00 1.455966e+01
      vertex 1.763705e+01 -7.420761e+00 3.660487e-01
      vertex 2.107720e+01 3.298378e+00 6.824544e-01
    endloop
  endfacet
  facet normal 1.791627e-01 9.758671e-01 1.248364e-01
    outer loop
      vertex -5.677342e-07 1.649782e+01 3.581469e+01
      vertex -5.677342e-07 1.530392e+01 4.514761e+01
      vertex 9.190953e+00 1.365743e+01 4.482779e+01
    endloop
  endfacet
  facet normal 1.655886e-01 9.763731e-01 1.388377e-01
    outer loop
      vertex 9.190953e+00 1.365743e+01 4.482779e+01
      vertex 1.030076e+01 1.476335e+01 3.572681e+01
      vertex -5.677342e-07 1.649782e+01 3.581469e+01
    endloop
  endfacet
  facet normal 1.701059e-01 9.853941e-01 7.894857e-03
    outer loop
      vertex -5.677342e-07 1.667832e+01 0.000000e+00
      vertex -5.677342e-07 1.658865e+01 1.119197e+01
      vertex 1.063594e+01 1.474366e+01 1.230783e+01
    endloop
  endfacet
  facet normal 2.072926e-01 9.779489e-01 -2.541064e-02
    outer loop
      vertex 1.063594e+01 1.474366e+01 1.230783e+01
      vertex 1.034207e+01 1.448930e+01 1.212897e-01
      vertex -5.677342e-07 1.667832e+01 0.000000e+00
    endloop
  endfacet
  facet normal 8.495256e-01 4.816036e-01 2.153235e-01
    outer loop
      vertex 1.783944e+01 1.024364e+01 3.569236e+01
      vertex 1.593813e+01 9.584246e+00 4.466852e+01
      vertex 2.013108e+01 2.829619e+00 4.323361e+01
    endloop
  endfacet
  facet normal 8.354203e-01 4.969712e-01 2.347182e-01
    outer loop
      vertex 2.013108e+01 2.829619e+00 4.323361e+01
      vertex 2.207530e+01 3.201667e+00 3.552591e+01
      vertex 1.783944e+01 1.024364e+01 3.569236e+01
    endloop
  endfacet
  facet normal 2.176351e-01 -9.670628e-01 -1.320023e-01
    outer loop
      vertex 1.038443e+01 -8.683195e+00 3.660487e-01
      vertex 1.102557e+01 -1.047631e+01 1.455966e+01
      vertex -5.677342e-07 -1.282514e+01 1.358936e+01
    endloop
  endfacet
  facet normal 2.042928e-01 -9.684227e-01 -1.429061e-01
    outer loop
      vertex -5.677342e-07 -1.282514e+01 1.358936e+01
      vertex -5.677342e-07 -1.085827e+01 2.605871e-01
      vertex 1.038443e+01 -8.683195e+00 3.660487e-01
    endloop
  endfacet
  facet normal 2.816302e-01 -9.052528e-01 3.181226e-01
    outer loop
      vertex 1.034683e+01 -1.313204e+01 3.552591e+01
      vertex 9.267875e+00 -1.044955e+01 4.411443e+01
      vertex -5.677342e-07 -1.322967e+01 4.440804e+01
    endloop
  endfacet
  facet normal 2.792814e-01 -9.069426e-01 3.153680e-01
    outer loop
      vertex -5.677342e-07 -1.322967e+01 4.440804e+01
      vertex -5.677342e-07 -1.631822e+01 3.552591e+01
      vertex 1.034683e+01 -1.313204e+01 3.552591e+01
    endloop
  endfacet
  facet normal 5.488576e-01 -8.286359e-01 -1.100815e-01
    outer loop
      vertex 1.894296e+01 -7.218467e+00 1.455966e+01
      vertex 1.952664e+01 -7.899061e+00 2.259301e+01
      vertex 1.134225e+01 -1.332010e+01 2.259301e+01
    endloop
  endfacet
  facet normal 3.600096e-01 -8.749147e-01 -3.239096e-01
    outer loop
      vertex 1.134225e+01 -1.332010e+01 2.259301e+01
      vertex 1.102557e+01 -1.047631e+01 1.455966e+01
      vertex 1.894296e+01 -7.218467e+00 1.455966e+01
    endloop
  endfacet
  facet normal 4.750964e-01 8.782560e-01 -5.431272e-02
    outer loop
      vertex 1.063594e+01 1.474366e+01 1.230783e+01
      vertex 1.077361e+01 1.529007e+01 2.234776e+01
      vertex 1.892241e+01 1.087898e+01 2.229976e+01
    endloop
  endfacet
  facet normal 4.534139e-01 8.907432e-01 -3.150129e-02
    outer loop
      vertex 1.892241e+01 1.087898e+01 2.229976e+01
      vertex 1.863593e+01 1.068744e+01 1.276031e+01
      vertex 1.063594e+01 1.474366e+01 1.230783e+01
    endloop
  endfacet
  facet normal 9.416649e-01 -3.354767e-01 -2.688206e-02
    outer loop
      vertex 2.336959e+01 3.298379e+00 1.747056e+01
      vertex 2.356007e+01 3.423939e+00 2.257588e+01
      vertex 1.952664e+01 -7.899061e+00 2.259301e+01
    endloop
  endfacet
  facet normal 9.266555e-01 -3.628929e-01 -9.807309e-02
    outer loop
      vertex 1.952664e+01 -7.899061e+00 2.259301e+01
      vertex 1.894296e+01 -7.218467e+00 1.455966e+01
      vertex 2.336959e+01 3.298379e+00 1.747056e+01
    endloop
  endfacet
  facet normal 1.681110e-01 9.846115e-01 -4.773874e-02
    outer loop
      vertex -5.677342e-07 1.658865e+01 1.119197e+01
      vertex -5.677342e-07 1.711582e+01 2.206471e+01
      vertex 1.077361e+01 1.529007e+01 2.234776e+01
    endloop
  endfacet
  facet normal 1.763390e-01 9.827408e-01 -5.590259e-02
    outer loop
      vertex 1.077361e+01 1.529007e+01 2.234776e+01
      vertex 1.063594e+01 1.474366e+01 1.230783e+01
      vertex -5.677342e-07 1.658865e+01 1.119197e+01
    endloop
  endfacet
  facet normal 8.491550e-01 5.269098e-01 -3.608006e-02
    outer loop
      vertex 1.863593e+01 1.068744e+01 1.276031e+01
      vertex 1.892241e+01 1.087898e+01 2.229976e+01
      vertex 2.356007e+01 3.423939e+00 2.257588e+01
    endloop
  endfacet
  facet normal 8.538669e-01 5.185760e-01 -4.461093e-02
    outer loop
      vertex 2.356007e+01 3.423939e+00 2.257588e+01
      vertex 2.336959e+01 3.298379e+00 1.747056e+01
      vertex 1.863593e+01 1.068744e+01 1.276031e+01
    endloop
  endfacet
  facet normal 2.369097e-01 -9.128654e-01 -3.324914e-01
    outer loop
      vertex 1.102557e+01 -1.047631e+01 1.455966e+01
      vertex 1.134225e+01 -1.332010e+01 2.259301e+01
      vertex -5.677342e-07 -1.626575e+01 2.259872e+01
    endloop
  endfacet
  facet normal 2.245300e-01 -9.103425e-01 -3.476533e-01
    outer loop
      vertex -5.677342e-07 -1.626575e+01 2.259872e+01
      vertex -5.677342e-07 -1.282514e+01 1.358936e+01
      vertex 1.102557e+01 -1.047631e+01 1.455966e+01
    endloop
  endfacet
  facet normal 5.956396e-01 -8.009303e-01 6.102582e-02
    outer loop
      vertex 1.952664e+01 -7.899061e+00 2.259301e+01
      vertex 1.927219e+01 -7.666679e+00 2.812639e+01
      vertex 1.108363e+01 -1.375639e+01 2.812639e+01
    endloop
  endfacet
  facet normal 5.517740e-01 -8.330389e-01 -3.989397e-02
    outer loop
      vertex 1.108363e+01 -1.375639e+01 2.812639e+01
      vertex 1.134225e+01 -1.332010e+01 2.259301e+01
      vertex 1.952664e+01 -7.899061e+00 2.259301e+01
    endloop
  endfacet
  facet normal 4.887591e-01 8.723404e-01 1.169027e-02
    outer loop
      vertex 1.077361e+01 1.529007e+01 2.234776e+01
      vertex 1.065573e+01 1.527449e+01 2.843903e+01
      vertex 1.865221e+01 1.079548e+01 2.834252e+01
    endloop
  endfacet
  facet normal 4.759328e-01 8.788462e-01 3.342494e-02
    outer loop
      vertex 1.865221e+01 1.079548e+01 2.834252e+01
      vertex 1.892241e+01 1.087898e+01 2.229976e+01
      vertex 1.077361e+01 1.529007e+01 2.234776e+01
    endloop
  endfacet
  facet normal 9.411751e-01 -3.317747e-01 6.414860e-02
    outer loop
      vertex 2.356007e+01 3.423939e+00 2.257588e+01
      vertex 2.319397e+01 3.398989e+00 2.781822e+01
      vertex 1.927219e+01 -7.666679e+00 2.812639e+01
    endloop
  endfacet
  facet normal 9.404971e-01 -3.349333e-01 5.731344e-02
    outer loop
      vertex 1.927219e+01 -7.666679e+00 2.812639e+01
      vertex 1.952664e+01 -7.899061e+00 2.259301e+01
      vertex 2.356007e+01 3.423939e+00 2.257588e+01
    endloop
  endfacet
  facet normal 1.661853e-01 9.860694e-01 7.036354e-03
    outer loop
      vertex -5.677342e-07 1.711582e+01 2.206471e+01
      vertex -5.677342e-07 1.706976e+01 2.851983e+01
      vertex 1.065573e+01 1.527449e+01 2.843903e+01
    endloop
  endfacet
  facet normal 1.669327e-01 9.859515e-01 5.752948e-03
    outer loop
      vertex 1.065573e+01 1.527449e+01 2.843903e+01
      vertex 1.077361e+01 1.529007e+01 2.234776e+01
      vertex -5.677342e-07 1.711582e+01 2.206471e+01
    endloop
  endfacet
  facet normal 8.527220e-01 5.203953e-01 4.531983e-02
    outer loop
      vertex 1.892241e+01 1.087898e+01 2.229976e+01
      vertex 1.865221e+01 1.079548e+01 2.834252e+01
      vertex 2.319397e+01 3.398989e+00 2.781822e+01
    endloop
  endfacet
  facet normal 8.464695e-01 5.288583e-01 6.163079e-02
    outer loop
      vertex 2.319397e+01 3.398989e+00 2.781822e+01
      vertex 2.356007e+01 3.423939e+00 2.257588e+01
      vertex 1.892241e+01 1.087898e+01 2.229976e+01
    endloop
  endfacet
  facet normal 2.889876e-01 -9.553348e-01 -6.181870e-02
    outer loop
      vertex 1.134225e+01 -1.332010e+01 2.259301e+01
      vertex 1.108363e+01 -1.375639e+01 2.812639e+01
      vertex -5.677342e-07 -1.711582e+01 2.822911e+01
    endloop
  endfacet
  facet normal 2.486579e-01 -9.577373e-01 -1.445972e-01
    outer loop
      vertex -5.677342e-07 -1.711582e+01 2.822911e+01
      vertex -5.677342e-07 -1.626575e+01 2.259872e+01
      vertex 1.134225e+01 -1.332010e+01 2.259301e+01
    endloop
  endfacet
  facet normal 2.925370e-01 -9.499888e-01 1.092853e-01
    outer loop
      vertex 1.108363e+01 -1.375639e+01 2.812639e+01
      vertex 1.034683e+01 -1.313204e+01 3.552591e+01
      vertex -5.677342e-07 -1.631822e+01 3.552591e+01
    endloop
  endfacet
  facet normal 2.893766e-01 -9.515476e-01 1.040117e-01
    outer loop
      vertex -5.677342e-07 -1.631822e+01 3.552591e+01
      vertex -5.677342e-07 -1.711582e+01 2.822911e+01
      vertex 1.108363e+01 -1.375639e+01 2.812639e+01
    endloop
  endfacet
  facet normal 6.087683e-01 -7.769573e-01 1.604321e-01
    outer loop
      vertex 1.927219e+01 -7.666679e+00 2.812639e+01
      vertex 1.839055e+01 -6.829558e+00 3.552591e+01
      vertex 1.034683e+01 -1.313204e+01 3.552591e+01
    endloop
  endfacet
  facet normal 5.919874e-01 -7.960193e-01 1.261113e-01
    outer loop
      vertex 1.034683e+01 -1.313204e+01 3.552591e+01
      vertex 1.108363e+01 -1.375639e+01 2.812639e+01
      vertex 1.927219e+01 -7.666679e+00 2.812639e+01
    endloop
  endfacet
  facet normal 1.661905e-01 9.830769e-01 7.707590e-02
    outer loop
      vertex -5.677342e-07 1.706976e+01 2.851983e+01
      vertex -5.677342e-07 1.649782e+01 3.581469e+01
      vertex 1.030076e+01 1.476335e+01 3.572681e+01
    endloop
  endfacet
  facet normal 1.662118e-01 9.830756e-01 7.704510e-02
    outer loop
      vertex 1.030076e+01 1.476335e+01 3.572681e+01
      vertex 1.065573e+01 1.527449e+01 2.843903e+01
      vertex -5.677342e-07 1.706976e+01 2.851983e+01
    endloop
  endfacet
  facet normal 9.311484e-01 -3.420366e-01 1.263873e-01
    outer loop
      vertex 2.319397e+01 3.398989e+00 2.781822e+01
      vertex 2.207530e+01 3.201667e+00 3.552591e+01
      vertex 1.839055e+01 -6.829558e+00 3.552591e+01
    endloop
  endfacet
  facet normal 9.334423e-01 -3.266940e-01 1.481774e-01
    outer loop
      vertex 1.839055e+01 -6.829558e+00 3.552591e+01
      vertex 1.927219e+01 -7.666679e+00 2.812639e+01
      vertex 2.319397e+01 3.398989e+00 2.781822e+01
    endloop
  endfacet
  facet normal 5.126325e-01 8.544009e-01 8.489376e-02
    outer loop
      vertex 1.065573e+01 1.527449e+01 2.843903e+01
      vertex 1.030076e+01 1.476335e+01 3.572681e+01
      vertex 1.783944e+01 1.024364e+01 3.569236e+01
    endloop
  endfacet
  facet normal 4.863165e-01 8.656725e-01 1.187750e-01
    outer loop
      vertex 1.783944e+01 1.024364e+01 3.569236e+01
      vertex 1.865221e+01 1.079548e+01 2.834252e+01
      vertex 1.065573e+01 1.527449e+01 2.843903e+01
    endloop
  endfacet
  facet normal 8.507679e-01 5.086246e-01 1.322693e-01
    outer loop
      vertex 1.865221e+01 1.079548e+01 2.834252e+01
      vertex 1.783944e+01 1.024364e+01 3.569236e+01
      vertex 2.207530e+01 3.201667e+00 3.552591e+01
    endloop
  endfacet
  facet normal 8.484998e-01 5.113578e-01 1.362395e-01
    outer loop
      vertex 2.207530e+01 3.201667e+00 3.552591e+01
      vertex 2.319397e+01 3.398989e+00 2.781822e+01
      vertex 1.865221e+01 1.079548e+01 2.834252e+01
    endloop
  endfacet
  facet normal 1.997432e-01 9.798483e-01 0.000000e+00
    outer loop
      vertex -5.677342e-07 1.032740e+01 2.677788e-01
      vertex -5.677342e-07 1.032740e+01 5.790385e+01
      vertex 4.173337e+00 9.476657e+00 5.790385e+01
    endloop
  endfacet
  facet normal 1.997432e-01 9.798483e-01 0.000000e+00
    outer loop
      vertex 4.173337e+00 9.476657e+00 5.790385e+01
      vertex 4.173337e+00 9.476657e+00 2.677788e-01
      vertex -5.677342e-07 1.032740e+01 2.677788e-01
    endloop
  endfacet
  facet normal 7.071068e-01 7.071068e-01 0.000000e+00
    outer loop
      vertex 4.173337e+00 9.476657e+00 2.677788e-01
      vertex 4.173337e+00 9.476657e+00 5.790385e+01
      vertex 6.497598e+00 7.152396e+00 5.790385e+01
    endloop
  endfacet
  facet normal 7.071068e-01 7.071068e-01 0.000000e+00
    outer loop
      vertex 6.497598e+00 7.152396e+00 5.790385e+01
      vertex 6.497598e+00 7.152396e+00 2.677788e-01
      vertex 4.173337e+00 9.476657e+00 2.677788e-01
    endloop
  endfacet
  facet normal 9.659259e-01 2.588187e-01 0.000000e+00
    outer loop
      vertex 6.497598e+00 7.152396e+00 2.677788e-01
      vertex 6.497598e+00 7.152396e+00 5.790385e+01
      vertex 7.348336e+00 3.977395e+00 5.790385e+01
    endloop
  endfacet
  facet normal 9.659259e-01 2.588187e-01 0.000000e+00
    outer loop
      vertex 7.348336e+00 3.977395e+00 5.790385e+01
      vertex 7.348336e+00 3.977395e+00 2.677788e-01
      vertex 6.497598e+00 7.152396e+00 2.677788e-01
    endloop
  endfacet
  facet normal 9.659259e-01 -2.588187e-01 0.000000e+00
    outer loop
      vertex 7.348336e+00 3.977395e+00 2.677788e-01
      vertex 7.348336e+00 3.977395e+00 5.790385e+01
      vertex 6.497598e+00 8.023936e-01 5.790385e+01
    endloop
  endfacet
  facet normal 9.659259e-01 -2.588187e-01 0.000000e+00
    outer loop
      vertex 6.497598e+00 8.023936e-01 5.790385e+01
      vertex 6.497598e+00 8.023936e-01 2.677788e-01
      vertex 7.348336e+00 3.977395e+00 2.677788e-01
    endloop
  endfacet
  facet normal 7.071068e-01 -7.071068e-01 0.000000e+00
    outer loop
      vertex 6.497598e+00 8.023936e-01 2.677788e-01
      vertex 6.497598e+00 8.023936e-01 5.790385e+01
      vertex 4.173337e+00 -1.521867e+00 5.790385e+01
    endloop
  endfacet
  facet normal 7.071068e-01 -7.071068e-01 0.000000e+00
    outer loop
      vertex 4.173337e+00 -1.521867e+00 5.790385e+01
      vertex 4.173337e+00 -1.521867e+00 2.677788e-01
      vertex 6.497598e+00 8.023936e-01 2.677788e-01
    endloop
  endfacet
  facet normal 1.997433e-01 -9.798483e-01 0.000000e+00
    outer loop
      vertex 4.173337e+00 -1.521867e+00 2.677788e-01
      vertex 4.173337e+00 -1.521867e+00 5.790385e+01
      vertex -5.677342e-07 -2.372608e+00 5.790385e+01
    endloop
  endfacet
  facet normal 1.997433e-01 -9.798483e-01 0.000000e+00
    outer loop
      vertex -5.677342e-07 -2.372608e+00 5.790385e+01
      vertex -5.677342e-07 -2.372608e+00 2.677788e-01
      vertex 4.173337e+00 -1.521867e+00 2.677788e-01
    endloop
  endfacet
  facet normal -2.567592e-03 9.340432e-03 9.999530e-01
    outer loop
      vertex -5.677342e-07 -2.372608e+00 5.790385e+01
      vertex -5.677342e-07 -1.136799e+01 5.798787e+01
      vertex 7.148017e+00 -9.403067e+00 5.798787e+01
    endloop
  endfacet
  facet normal -2.017965e-03 9.899202e-03 9.999490e-01
    outer loop
      vertex 7.148017e+00 -9.403067e+00 5.798787e+01
      vertex 4.173337e+00 -1.521867e+00 5.790385e+01
      vertex -5.677342e-07 -2.372608e+00 5.790385e+01
    endloop
  endfacet
  facet normal -7.739554e-03 7.739552e-03 9.999402e-01
    outer loop
      vertex 4.173337e+00 -1.521867e+00 5.790385e+01
      vertex 7.148017e+00 -9.403067e+00 5.798787e+01
      vertex 1.251628e+01 -4.034806e+00 5.798787e+01
    endloop
  endfacet
  facet normal -7.739553e-03 7.739553e-03 9.999402e-01
    outer loop
      vertex 1.251628e+01 -4.034806e+00 5.798787e+01
      vertex 6.497598e+00 8.023936e-01 5.790385e+01
      vertex 4.173337e+00 -1.521867e+00 5.790385e+01
    endloop
  endfacet
  facet normal -1.148612e-02 3.077700e-03 9.999293e-01
    outer loop
      vertex 6.497598e+00 8.023936e-01 5.790385e+01
      vertex 1.251628e+01 -4.034806e+00 5.798787e+01
      vertex 1.448120e+01 3.298378e+00 5.798787e+01
    endloop
  endfacet
  facet normal -1.148612e-02 3.077692e-03 9.999293e-01
    outer loop
      vertex 1.448120e+01 3.298378e+00 5.798787e+01
      vertex 7.348336e+00 3.977395e+00 5.790385e+01
      vertex 6.497598e+00 8.023936e-01 5.790385e+01
    endloop
  endfacet
  facet normal -1.208733e-02 -3.238789e-03 9.999217e-01
    outer loop
      vertex 7.348336e+00 3.977395e+00 5.790385e+01
      vertex 1.448120e+01 3.298378e+00 5.798787e+01
      vertex 1.251628e+01 1.063156e+01 5.798787e+01
    endloop
  endfacet
  facet normal -1.208734e-02 -3.238786e-03 9.999217e-01
    outer loop
      vertex 1.251628e+01 1.063156e+01 5.798787e+01
      vertex 6.497598e+00 7.152396e+00 5.790385e+01
      vertex 7.348336e+00 3.977395e+00 5.790385e+01
    endloop
  endfacet
  facet normal -1.345498e-02 -1.345498e-02 9.998189e-01
    outer loop
      vertex 7.148016e+00 1.274572e+01 5.798787e+01
      vertex 4.173337e+00 9.476657e+00 5.790385e+01
      vertex 6.497598e+00 7.152396e+00 5.790385e+01
    endloop
  endfacet
  facet normal -5.656429e-03 -1.436277e-02 9.998808e-01
    outer loop
      vertex 6.497598e+00 7.152396e+00 5.790385e+01
      vertex 1.251628e+01 1.063156e+01 5.798787e+01
      vertex 7.148016e+00 1.274572e+01 5.798787e+01
    endloop
  endfacet
  facet normal -4.232010e-03 -2.184571e-02 9.997524e-01
    outer loop
      vertex 4.173337e+00 9.476657e+00 5.790385e+01
      vertex 7.148016e+00 1.274572e+01 5.798787e+01
      vertex -5.677342e-07 1.413045e+01 5.798787e+01
    endloop
  endfacet
  facet normal -4.502741e-03 -2.208837e-02 9.997458e-01
    outer loop
      vertex -5.677342e-07 1.413045e+01 5.798787e+01
      vertex -5.677342e-07 1.032740e+01 5.790385e+01
      vertex 4.173337e+00 9.476657e+00 5.790385e+01
    endloop
  endfacet
  facet normal -3.874431e-03 -2.444696e-02 -9.996936e-01
    outer loop
      vertex 4.173337e+00 9.476657e+00 2.677788e-01
      vertex 1.034207e+01 1.448930e+01 1.212897e-01
      vertex 1.805707e+01 1.125568e+01 1.704657e-01
    endloop
  endfacet
  facet normal -6.212784e-03 -6.212784e-03 -9.999614e-01
    outer loop
      vertex 1.805707e+01 1.125568e+01 1.704657e-01
      vertex 6.497598e+00 7.152396e+00 2.677788e-01
      vertex 4.173337e+00 9.476657e+00 2.677788e-01
    endloop
  endfacet
  facet normal -2.800834e-03 4.212614e-02 9.991083e-01
    outer loop
      vertex 1.034207e+01 1.448930e+01 1.212897e-01
      vertex -5.677342e-07 1.667832e+01 0.000000e+00
      vertex -5.677342e-07 1.032740e+01 2.677788e-01
    endloop
  endfacet
  facet normal 4.102704e-03 2.499136e-02 9.996793e-01
    outer loop
      vertex 1.805707e+01 1.125568e+01 1.704657e-01
      vertex 1.034207e+01 1.448930e+01 1.212897e-01
      vertex -5.677342e-07 1.032740e+01 2.677788e-01
    endloop
  endfacet
  facet normal 4.302833e-03 2.110771e-02 9.997680e-01
    outer loop
      vertex 4.173337e+00 9.476657e+00 2.677788e-01
      vertex 1.805707e+01 1.125568e+01 1.704657e-01
      vertex -5.677342e-07 1.032740e+01 2.677788e-01
    endloop
  endfacet
  facet normal 6.212784e-03 6.212784e-03 9.999614e-01
    outer loop
      vertex 4.173337e+00 9.476657e+00 2.677788e-01
      vertex 6.497598e+00 7.152396e+00 2.677788e-01
      vertex 1.805707e+01 1.125568e+01 1.704657e-01
    endloop
  endfacet
  facet normal 3.059496e-02 8.197880e-03 -9.994982e-01
    outer loop
      vertex 2.107720e+01 3.298378e+00 6.824544e-01
      vertex 7.348336e+00 3.977395e+00 2.677788e-01
      vertex 6.497598e+00 7.152396e+00 2.677788e-01
    endloop
  endfacet
  facet normal 1.268541e-02 -5.940853e-02 -9.981532e-01
    outer loop
      vertex 6.497598e+00 7.152396e+00 2.677788e-01
      vertex 1.805707e+01 1.125568e+01 1.704657e-01
      vertex 2.107720e+01 3.298378e+00 6.824544e-01
    endloop
  endfacet
  facet normal 3.114876e-02 1.950113e-02 -9.993245e-01
    outer loop
      vertex 7.348336e+00 3.977395e+00 2.677788e-01
      vertex 2.107720e+01 3.298378e+00 6.824544e-01
      vertex 1.763705e+01 -7.420761e+00 3.660487e-01
    endloop
  endfacet
  facet normal 7.364783e-03 -1.973385e-03 -9.999709e-01
    outer loop
      vertex 1.763705e+01 -7.420761e+00 3.660487e-01
      vertex 6.497598e+00 8.023936e-01 2.677788e-01
      vertex 7.348336e+00 3.977395e+00 2.677788e-01
    endloop
  endfacet
  facet normal 1.683169e-03 -9.669722e-03 -9.999518e-01
    outer loop
      vertex 6.497598e+00 8.023936e-01 2.677788e-01
      vertex 1.763705e+01 -7.420761e+00 3.660487e-01
      vertex 1.038443e+01 -8.683195e+00 3.660487e-01
    endloop
  endfacet
  facet normal 7.348306e-03 -7.348306e-03 -9.999460e-01
    outer loop
      vertex 1.038443e+01 -8.683195e+00 3.660487e-01
      vertex 4.173337e+00 -1.521867e+00 2.677788e-01
      vertex 6.497598e+00 8.023936e-01 2.677788e-01
    endloop
  endfacet
  facet normal 1.102604e-02 -4.158363e-03 -9.999305e-01
    outer loop
      vertex 4.173337e+00 -1.521867e+00 2.677788e-01
      vertex 1.038443e+01 -8.683195e+00 3.660487e-01
      vertex -5.677342e-07 -1.085827e+01 2.605871e-01
    endloop
  endfacet
  facet normal -1.727669e-04 8.475146e-04 -9.999996e-01
    outer loop
      vertex -5.677342e-07 -1.085827e+01 2.605871e-01
      vertex -5.677342e-07 -2.372608e+00 2.677788e-01
      vertex 4.173337e+00 -1.521867e+00 2.677788e-01
    endloop
  endfacet
  facet normal -1.787492e-01 9.792402e-01 9.558905e-02
    outer loop
      vertex -5.677342e-07 1.530392e+01 4.514761e+01
      vertex -9.190955e+00 1.365743e+01 4.482779e+01
      vertex -7.148018e+00 1.274572e+01 5.798787e+01
    endloop
  endfacet
  facet normal -1.894260e-01 9.778201e-01 8.936249e-02
    outer loop
      vertex -7.148018e+00 1.274572e+01 5.798787e+01
      vertex -5.677342e-07 1.413045e+01 5.798787e+01
      vertex -5.677342e-07 1.530392e+01 4.514761e+01
    endloop
  endfacet
  facet normal -5.868434e-01 -7.489748e-01 3.076549e-01
    outer loop
      vertex -1.839055e+01 -6.829558e+00 3.552591e+01
      vertex -1.034684e+01 -1.313204e+01 3.552591e+01
      vertex -9.267876e+00 -1.044955e+01 4.411443e+01
    endloop
  endfacet
  facet normal -5.506292e-01 -7.967285e-01 2.490606e-01
    outer loop
      vertex -9.267876e+00 -1.044955e+01 4.411443e+01
      vertex -1.656784e+01 -5.404456e+00 4.411443e+01
      vertex -1.839055e+01 -6.829558e+00 3.552591e+01
    endloop
  endfacet
  facet normal -9.300393e-01 3.448174e-01 -1.269957e-01
    outer loop
      vertex -1.805707e+01 1.125568e+01 1.704657e-01
      vertex -2.107720e+01 3.298378e+00 6.824544e-01
      vertex -2.336959e+01 3.298379e+00 1.747056e+01
    endloop
  endfacet
  facet normal -8.462149e-01 5.326344e-01 -1.486707e-02
    outer loop
      vertex -2.336959e+01 3.298379e+00 1.747056e+01
      vertex -1.863593e+01 1.068744e+01 1.276031e+01
      vertex -1.805707e+01 1.125568e+01 1.704657e-01
    endloop
  endfacet
  facet normal -5.168356e-01 8.535628e-01 6.566267e-02
    outer loop
      vertex -9.190955e+00 1.365743e+01 4.482779e+01
      vertex -1.593813e+01 9.584246e+00 4.466852e+01
      vertex -1.251628e+01 1.063156e+01 5.798787e+01
    endloop
  endfacet
  facet normal -3.637647e-01 9.236690e-01 1.204605e-01
    outer loop
      vertex -1.251628e+01 1.063156e+01 5.798787e+01
      vertex -7.148018e+00 1.274572e+01 5.798787e+01
      vertex -9.190955e+00 1.365743e+01 4.482779e+01
    endloop
  endfacet
  facet normal -1.700080e-01 -9.766877e-01 -1.310669e-01
    outer loop
      vertex -1.763705e+01 -7.420761e+00 3.660487e-01
      vertex -1.038443e+01 -8.683195e+00 3.660487e-01
      vertex -1.102557e+01 -1.047631e+01 1.455966e+01
    endloop
  endfacet
  facet normal -3.804337e-01 -9.245506e-01 -2.182537e-02
    outer loop
      vertex -1.102557e+01 -1.047631e+01 1.455966e+01
      vertex -1.894296e+01 -7.218467e+00 1.455966e+01
      vertex -1.763705e+01 -7.420761e+00 3.660487e-01
    endloop
  endfacet
  facet normal -5.073302e-01 8.449118e-01 1.695292e-01
    outer loop
      vertex -1.030076e+01 1.476335e+01 3.572681e+01
      vertex -1.783944e+01 1.024364e+01 3.569236e+01
      vertex -1.593813e+01 9.584246e+00 4.466852e+01
    endloop
  endfacet
  facet normal -5.125902e-01 8.426496e-01 1.649028e-01
    outer loop
      vertex -1.593813e+01 9.584246e+00 4.466852e+01
      vertex -9.190955e+00 1.365743e+01 4.482779e+01
      vertex -1.030076e+01 1.476335e+01 3.572681e+01
    endloop
  endfacet
  facet normal -8.366382e-01 4.543536e-01 3.059404e-01
    outer loop
      vertex -1.593813e+01 9.584246e+00 4.466852e+01
      vertex -2.013108e+01 2.829619e+00 4.323361e+01
      vertex -1.448120e+01 3.298378e+00 5.798787e+01
    endloop
  endfacet
  facet normal -9.417981e-01 2.523537e-01 2.221124e-01
    outer loop
      vertex -1.448120e+01 3.298378e+00 5.798787e+01
      vertex -1.251628e+01 1.063156e+01 5.798787e+01
      vertex -1.593813e+01 9.584246e+00 4.466852e+01
    endloop
  endfacet
  facet normal -3.863143e-01 9.220586e-01 2.385509e-02
    outer loop
      vertex -1.034208e+01 1.448930e+01 1.212897e-01
      vertex -1.805707e+01 1.125568e+01 1.704657e-01
      vertex -1.863593e+01 1.068744e+01 1.276031e+01
    endloop
  endfacet
  facet normal -4.533525e-01 8.908421e-01 -2.952606e-02
    outer loop
      vertex -1.863593e+01 1.068744e+01 1.276031e+01
      vertex -1.063594e+01 1.474366e+01 1.230783e+01
      vertex -1.034208e+01 1.448930e+01 1.212897e-01
    endloop
  endfacet
  facet normal -8.882005e-01 -3.528892e-01 2.942262e-01
    outer loop
      vertex -2.013108e+01 2.829619e+00 4.323361e+01
      vertex -1.656784e+01 -5.404456e+00 4.411443e+01
      vertex -1.251628e+01 -4.034806e+00 5.798787e+01
    endloop
  endfacet
  facet normal -9.034983e-01 -2.420917e-01 3.536701e-01
    outer loop
      vertex -1.251628e+01 -4.034806e+00 5.798787e+01
      vertex -1.448120e+01 3.298378e+00 5.798787e+01
      vertex -2.013108e+01 2.829619e+00 4.323361e+01
    endloop
  endfacet
  facet normal -5.623433e-01 -8.136781e-01 1.473022e-01
    outer loop
      vertex -1.656784e+01 -5.404456e+00 4.411443e+01
      vertex -9.267876e+00 -1.044955e+01 4.411443e+01
      vertex -7.148019e+00 -9.403067e+00 5.798787e+01
    endloop
  endfacet
  facet normal -6.815674e-01 -6.815673e-01 2.663304e-01
    outer loop
      vertex -7.148019e+00 -9.403067e+00 5.798787e+01
      vertex -1.251628e+01 -4.034806e+00 5.798787e+01
      vertex -1.656784e+01 -5.404456e+00 4.411443e+01
    endloop
  endfacet
  facet normal -9.092577e-01 -3.339955e-01 2.483895e-01
    outer loop
      vertex -2.207530e+01 3.201667e+00 3.552591e+01
      vertex -1.839055e+01 -6.829558e+00 3.552591e+01
      vertex -1.656784e+01 -5.404456e+00 4.411443e+01
    endloop
  endfacet
  facet normal -9.051951e-01 -3.691989e-01 2.105088e-01
    outer loop
      vertex -1.656784e+01 -5.404456e+00 4.411443e+01
      vertex -2.013108e+01 2.829619e+00 4.323361e+01
      vertex -2.207530e+01 3.201667e+00 3.552591e+01
    endloop
  endfacet
  facet normal -2.886623e-01 -9.485588e-01 1.300396e-01
    outer loop
      vertex -9.267876e+00 -1.044955e+01 4.411443e+01
      vertex -5.677342e-07 -1.322967e+01 4.440804e+01
      vertex -5.677342e-07 -1.136799e+01 5.798787e+01
    endloop
  endfacet
  facet normal -2.633748e-01 -9.581097e-01 1.125145e-01
    outer loop
      vertex -5.677342e-07 -1.136799e+01 5.798787e+01
      vertex -7.148019e+00 -9.403067e+00 5.798787e+01
      vertex -9.267876e+00 -1.044955e+01 4.411443e+01
    endloop
  endfacet
  facet normal -9.495859e-01 -3.023042e-01 -8.305981e-02
    outer loop
      vertex -2.107720e+01 3.298378e+00 6.824544e-01
      vertex -1.763705e+01 -7.420761e+00 3.660487e-01
      vertex -1.894296e+01 -7.218467e+00 1.455966e+01
    endloop
  endfacet
  facet normal -9.263142e-01 -3.548847e-01 -1.264870e-01
    outer loop
      vertex -1.894296e+01 -7.218467e+00 1.455966e+01
      vertex -2.336959e+01 3.298379e+00 1.747056e+01
      vertex -2.107720e+01 3.298378e+00 6.824544e-01
    endloop
  endfacet
  facet normal -1.655886e-01 9.763731e-01 1.388377e-01
    outer loop
      vertex -5.677342e-07 1.649782e+01 3.581469e+01
      vertex -1.030076e+01 1.476335e+01 3.572681e+01
      vertex -9.190955e+00 1.365743e+01 4.482779e+01
    endloop
  endfacet
  facet normal -1.791627e-01 9.758671e-01 1.248364e-01
    outer loop
      vertex -9.190955e+00 1.365743e+01 4.482779e+01
      vertex -5.677342e-07 1.530392e+01 4.514761e+01
      vertex -5.677342e-07 1.649782e+01 3.581469e+01
    endloop
  endfacet
  facet normal -2.072925e-01 9.779489e-01 -2.541064e-02
    outer loop
      vertex -5.677342e-07 1.667832e+01 0.000000e+00
      vertex -1.034208e+01 1.448930e+01 1.212897e-01
      vertex -1.063594e+01 1.474366e+01 1.230783e+01
    endloop
  endfacet
  facet normal -1.701059e-01 9.853941e-01 7.894857e-03
    outer loop
      vertex -1.063594e+01 1.474366e+01 1.230783e+01
      vertex -5.677342e-07 1.658865e+01 1.119197e+01
      vertex -5.677342e-07 1.667832e+01 0.000000e+00
    endloop
  endfacet
  facet normal -8.354203e-01 4.969712e-01 2.347182e-01
    outer loop
      vertex -1.783944e+01 1.024364e+01 3.569236e+01
      vertex -2.207530e+01 3.201667e+00 3.552591e+01
      vertex -2.013108e+01 2.829619e+00 4.323361e+01
    endloop
  endfacet
  facet normal -8.495256e-01 4.816036e-01 2.153235e-01
    outer loop
      vertex -2.013108e+01 2.829619e+00 4.323361e+01
      vertex -1.593813e+01 9.584246e+00 4.466852e+01
      vertex -1.783944e+01 1.024364e+01 3.569236e+01
    endloop
  endfacet
  facet normal -2.042928e-01 -9.684227e-01 -1.429061e-01
    outer loop
      vertex -1.038443e+01 -8.683195e+00 3.660487e-01
      vertex -5.677342e-07 -1.085827e+01 2.605871e-01
      vertex -5.677342e-07 -1.282514e+01 1.358936e+01
    endloop
  endfacet
  facet normal -2.176351e-01 -9.670628e-01 -1.320023e-01
    outer loop
      vertex -5.677342e-07 -1.282514e+01 1.358936e+01
      vertex -1.102557e+01 -1.047631e+01 1.455966e+01
      vertex -1.038443e+01 -8.683195e+00 3.660487e-01
    endloop
  endfacet
  facet normal -2.792814e-01 -9.069426e-01 3.153680e-01
    outer loop
      vertex -1.034684e+01 -1.313204e+01 3.552591e+01
      vertex -5.677342e-07 -1.631822e+01 3.552591e+01
      vertex -5.677342e-07 -1.322967e+01 4.440804e+01
    endloop
  endfacet
  facet normal -2.816302e-01 -9.052528e-01 3.181226e-01
    outer loop
      vertex -5.677342e-07 -1.322967e+01 4.440804e+01
      vertex -9.267876e+00 -1.044955e+01 4.411443e+01
      vertex -1.034684e+01 -1.313204e+01 3.552591e+01
    endloop
  endfacet
  facet normal -3.600096e-01 -8.749146e-01 -3.239096e-01
    outer loop
      vertex -1.894296e+01 -7.218467e+00 1.455966e+01
      vertex -1.102557e+01 -1.047631e+01 1.455966e+01
      vertex -1.134225e+01 -1.332010e+01 2.259301e+01
    endloop
  endfacet
  facet normal -5.488577e-01 -8.286358e-01 -1.100815e-01
    outer loop
      vertex -1.134225e+01 -1.332010e+01 2.259301e+01
      vertex -1.952664e+01 -7.899061e+00 2.259301e+01
      vertex -1.894296e+01 -7.218467e+00 1.455966e+01
    endloop
  endfacet
  facet normal -4.534140e-01 8.907432e-01 -3.150129e-02
    outer loop
      vertex -1.063594e+01 1.474366e+01 1.230783e+01
      vertex -1.863593e+01 1.068744e+01 1.276031e+01
      vertex -1.892241e+01 1.087898e+01 2.229976e+01
    endloop
  endfacet
  facet normal -4.750965e-01 8.782560e-01 -5.431271e-02
    outer loop
      vertex -1.892241e+01 1.087898e+01 2.229976e+01
      vertex -1.077361e+01 1.529007e+01 2.234776e+01
      vertex -1.063594e+01 1.474366e+01 1.230783e+01
    endloop
  endfacet
  facet normal -9.266555e-01 -3.628929e-01 -9.807309e-02
    outer loop
      vertex -2.336959e+01 3.298379e+00 1.747056e+01
      vertex -1.894296e+01 -7.218467e+00 1.455966e+01
      vertex -1.952664e+01 -7.899061e+00 2.259301e+01
    endloop
  endfacet
  facet normal -9.416649e-01 -3.354767e-01 -2.688206e-02
    outer loop
      vertex -1.952664e+01 -7.899061e+00 2.259301e+01
      vertex -2.356007e+01 3.423939e+00 2.257588e+01
      vertex -2.336959e+01 3.298379e+00 1.747056e+01
    endloop
  endfacet
  facet normal -1.763390e-01 9.827408e-01 -5.590259e-02
    outer loop
      vertex -5.677342e-07 1.658865e+01 1.119197e+01
      vertex -1.063594e+01 1.474366e+01 1.230783e+01
      vertex -1.077361e+01 1.529007e+01 2.234776e+01
    endloop
  endfacet
  facet normal -1.681110e-01 9.846115e-01 -4.773874e-02
    outer loop
      vertex -1.077361e+01 1.529007e+01 2.234776e+01
      vertex -5.677342e-07 1.711582e+01 2.206471e+01
      vertex -5.677342e-07 1.658865e+01 1.119197e+01
    endloop
  endfacet
  facet normal -8.538669e-01 5.185760e-01 -4.461093e-02
    outer loop
      vertex -1.863593e+01 1.068744e+01 1.276031e+01
      vertex -2.336959e+01 3.298379e+00 1.747056e+01
      vertex -2.356007e+01 3.423939e+00 2.257588e+01
    endloop
  endfacet
  facet normal -8.491550e-01 5.269098e-01 -3.608006e-02
    outer loop
      vertex -2.356007e+01 3.423939e+00 2.257588e+01
      vertex -1.892241e+01 1.087898e+01 2.229976e+01
      vertex -1.863593e+01 1.068744e+01 1.276031e+01
    endloop
  endfacet
  facet normal -2.245300e-01 -9.103425e-01 -3.476533e-01
    outer loop
      vertex -1.102557e+01 -1.047631e+01 1.455966e+01
      vertex -5.677342e-07 -1.282514e+01 1.358936e+01
      vertex -5.677342e-07 -1.626575e+01 2.259872e+01
    endloop
  endfacet
  facet normal -2.369097e-01 -9.128654e-01 -3.324914e-01
    outer loop
      vertex -5.677342e-07 -1.626575e+01 2.259872e+01
      vertex -1.134225e+01 -1.332010e+01 2.259301e+01
      vertex -1.102557e+01 -1.047631e+01 1.455966e+01
    endloop
  endfacet
  facet normal -5.517741e-01 -8.330389e-01 -3.989396e-02
    outer loop
      vertex -1.952664e+01 -7.899061e+00 2.259301e+01
      vertex -1.134225e+01 -1.332010e+01 2.259301e+01
      vertex -1.108363e+01 -1.375639e+01 2.812639e+01
    endloop
  endfacet
  facet normal -5.956396e-01 -8.009302e-01 6.102582e-02
    outer loop
      vertex -1.108363e+01 -1.375639e+01 2.812639e+01
      vertex -1.927219e+01 -7.666679e+00 2.812639e+01
      vertex -1.952664e+01 -7.899061e+00 2.259301e+01
    endloop
  endfacet
  facet normal -4.759328e-01 8.788462e-01 3.342494e-02
    outer loop
      vertex -1.077361e+01 1.529007e+01 2.234776e+01
      vertex -1.892241e+01 1.087898e+01 2.229976e+01
      vertex -1.865221e+01 1.079548e+01 2.834252e+01
    endloop
  endfacet
  facet normal -4.887591e-01 8.723404e-01 1.169027e-02
    outer loop
      vertex -1.865221e+01 1.079548e+01 2.834252e+01
      vertex -1.065574e+01 1.527449e+01 2.843903e+01
      vertex -1.077361e+01 1.529007e+01 2.234776e+01
    endloop
  endfacet
  facet normal -9.404971e-01 -3.349333e-01 5.731344e-02
    outer loop
      vertex -2.356007e+01 3.423939e+00 2.257588e+01
      vertex -1.952664e+01 -7.899061e+00 2.259301e+01
      vertex -1.927219e+01 -7.666679e+00 2.812639e+01
    endloop
  endfacet
  facet normal -9.411751e-01 -3.317747e-01 6.414860e-02
    outer loop
      vertex -1.927219e+01 -7.666679e+00 2.812639e+01
      vertex -2.319397e+01 3.398989e+00 2.781822e+01
      vertex -2.356007e+01 3.423939e+00 2.257588e+01
    endloop
  endfacet
  facet normal -1.669327e-01 9.859515e-01 5.752948e-03
    outer loop
      vertex -5.677342e-07 1.711582e+01 2.206471e+01
      vertex -1.077361e+01 1.529007e+01 2.234776e+01
      vertex -1.065574e+01 1.527449e+01 2.843903e+01
    endloop
  endfacet
  facet normal -1.661853e-01 9.860694e-01 7.036354e-03
    outer loop
      vertex -1.065574e+01 1.527449e+01 2.843903e+01
      vertex -5.677342e-07 1.706976e+01 2.851983e+01
      vertex -5.677342e-07 1.711582e+01 2.206471e+01
    endloop
  endfacet
  facet normal -8.464695e-01 5.288583e-01 6.163079e-02
    outer loop
      vertex -1.892241e+01 1.087898e+01 2.229976e+01
      vertex -2.356007e+01 3.423939e+00 2.257588e+01
      vertex -2.319397e+01 3.398989e+00 2.781822e+01
    endloop
  endfacet
  facet normal -8.527220e-01 5.203953e-01 4.531983e-02
    outer loop
      vertex -2.319397e+01 3.398989e+00 2.781822e+01
      vertex -1.865221e+01 1.079548e+01 2.834252e+01
      vertex -1.892241e+01 1.087898e+01 2.229976e+01
    endloop
  endfacet
  facet normal -2.486579e-01 -9.577373e-01 -1.445972e-01
    outer loop
      vertex -1.134225e+01 -1.332010e+01 2.259301e+01
      vertex -5.677342e-07 -1.626575e+01 2.259872e+01
      vertex -5.677342e-07 -1.711582e+01 2.822911e+01
    endloop
  endfacet
  facet normal -2.889876e-01 -9.553348e-01 -6.181870e-02
    outer loop
      vertex -5.677342e-07 -1.711582e+01 2.822911e+01
      vertex -1.108363e+01 -1.375639e+01 2.812639e+01
      vertex -1.134225e+01 -1.332010e+01 2.259301e+01
    endloop
  endfacet
  facet normal -2.893766e-01 -9.515476e-01 1.040117e-01
    outer loop
      vertex -1.108363e+01 -1.375639e+01 2.812639e+01
      vertex -5.677342e-07 -1.711582e+01 2.822911e+01
      vertex -5.677342e-07 -1.631822e+01 3.552591e+01
    endloop
  endfacet
  facet normal -2.925370e-01 -9.499888e-01 1.092853e-01
    outer loop
      vertex -5.677342e-07 -1.631822e+01 3.552591e+01
      vertex -1.034684e+01 -1.313204e+01 3.552591e+01
      vertex -1.108363e+01 -1.375639e+01 2.812639e+01
    endloop
  endfacet
  facet normal -5.919875e-01 -7.960193e-01 1.261113e-01
    outer loop
      vertex -1.927219e+01 -7.666679e+00 2.812639e+01
      vertex -1.108363e+01 -1.375639e+01 2.812639e+01
      vertex -1.034684e+01 -1.313204e+01 3.552591e+01
    endloop
  endfacet
  facet normal -6.087685e-01 -7.769573e-01 1.604321e-01
    outer loop
      vertex -1.034684e+01 -1.313204e+01 3.552591e+01
      vertex -1.839055e+01 -6.829558e+00 3.552591e+01
      vertex -1.927219e+01 -7.666679e+00 2.812639e+01
    endloop
  endfacet
  facet normal -1.662118e-01 9.830756e-01 7.704510e-02
    outer loop
      vertex -5.677342e-07 1.706976e+01 2.851983e+01
      vertex -1.065574e+01 1.527449e+01 2.843903e+01
      vertex -1.030076e+01 1.476335e+01 3.572681e+01
    endloop
  endfacet
  facet normal -1.661905e-01 9.830769e-01 7.707590e-02
    outer loop
      vertex -1.030076e+01 1.476335e+01 3.572681e+01
      vertex -5.677342e-07 1.649782e+01 3.581469e+01
      vertex -5.677342e-07 1.706976e+01 2.851983e+01
    endloop
  endfacet
  facet normal -9.334423e-01 -3.266940e-01 1.481774e-01
    outer loop
      vertex -2.319397e+01 3.398989e+00 2.781822e+01
      vertex -1.927219e+01 -7.666679e+00 2.812639e+01
      vertex -1.839055e+01 -6.829558e+00 3.552591e+01
    endloop
  endfacet
  facet normal -9.311484e-01 -3.420366e-01 1.263873e-01
    outer loop
      vertex -1.839055e+01 -6.829558e+00 3.552591e+01
      vertex -2.207530e+01 3.201667e+00 3.552591e+01
      vertex -2.319397e+01 3.398989e+00 2.781822e+01
    endloop
  endfacet
  facet normal -4.863166e-01 8.656724e-01 1.187749e-01
    outer loop
      vertex -1.065574e+01 1.527449e+01 2.843903e+01
      vertex -1.865221e+01 1.079548e+01 2.834252e+01
      vertex -1.783944e+01 1.024364e+01 3.569236e+01
    endloop
  endfacet
  facet normal -5.126326e-01 8.544009e-01 8.489376e-02
    outer loop
      vertex -1.783944e+01 1.024364e+01 3.569236e+01
      vertex -1.030076e+01 1.476335e+01 3.572681e+01
      vertex -1.065574e+01 1.527449e+01 2.843903e+01
    endloop
  endfacet
  facet normal -8.484998e-01 5.113578e-01 1.362395e-01
    outer loop
      vertex -1.865221e+01 1.079548e+01 2.834252e+01
      vertex -2.319397e+01 3.398989e+00 2.781822e+01
      vertex -2.207530e+01 3.201667e+00 3.552591e+01
    endloop
  endfacet
  facet normal -8.507679e-01 5.086246e-01 1.322693e-01
    outer loop
      vertex -2.207530e+01 3.201667e+00 3.552591e+01
      vertex -1.783944e+01 1.024364e+01 3.569236e+01
      vertex -1.865221e+01 1.079548e+01 2.834252e+01
    endloop
  endfacet
  facet normal -1.997433e-01 9.798483e-01 0.000000e+00
    outer loop
      vertex -5.677342e-07 1.032740e+01 2.677788e-01
      vertex -4.173338e+00 9.476657e+00 2.677788e-01
      vertex -4.173338e+00 9.476657e+00 5.790385e+01
    endloop
  endfacet
  facet normal -1.997433e-01 9.798483e-01 0.000000e+00
    outer loop
      vertex -4.173338e+00 9.476657e+00 5.790385e+01
      vertex -5.677342e-07 1.032740e+01 5.790385e+01
      vertex -5.677342e-07 1.032740e+01 2.677788e-01
    endloop
  endfacet
  facet normal -7.071067e-01 7.071069e-01 0.000000e+00
    outer loop
      vertex -4.173338e+00 9.476657e+00 2.677788e-01
      vertex -6.497600e+00 7.152396e+00 2.677788e-01
      vertex -6.497600e+00 7.152396e+00 5.790385e+01
    endloop
  endfacet
  facet normal -7.071067e-01 7.071069e-01 0.000000e+00
    outer loop
      vertex -6.497600e+00 7.152396e+00 5.790385e+01
      vertex -4.173338e+00 9.476657e+00 5.790385e+01
      vertex -4.173338e+00 9.476657e+00 2.677788e-01
    endloop
  endfacet
  facet normal -9.659259e-01 2.588187e-01 0.000000e+00
    outer loop
      vertex -6.497600e+00 7.152396e+00 2.677788e-01
      vertex -7.348337e+00 3.977395e+00 2.677788e-01
      vertex -7.348337e+00 3.977395e+00 5.790385e+01
    endloop
  endfacet
  facet normal -9.659259e-01 2.588187e-01 0.000000e+00
    outer loop
      vertex -7.348337e+00 3.977395e+00 5.790385e+01
      vertex -6.497600e+00 7.152396e+00 5.790385e+01
      vertex -6.497600e+00 7.152396e+00 2.677788e-01
    endloop
  endfacet
  facet normal -9.659259e-01 -2.588187e-01 0.000000e+00
    outer loop
      vertex -7.348337e+00 3.977395e+00 2.677788e-01
      vertex -6.497600e+00 8.023936e-01 2.677788e-01
      vertex -6.497600e+00 8.023936e-01 5.790385e+01
    endloop
  endfacet
  facet normal -9.659259e-01 -2.588187e-01 0.000000e+00
    outer loop
      vertex -6.497600e+00 8.023936e-01 5.790385e+01
      vertex -7.348337e+00 3.977395e+00 5.790385e+01
      vertex -7.348337e+00 3.977395e+00 2.677788e-01
    endloop
  endfacet
  facet normal -7.071067e-01 -7.071069e-01 0.000000e+00
    outer loop
      vertex -6.497600e+00 8.023936e-01 2.677788e-01
      vertex -4.173338e+00 -1.521867e+00 2.677788e-01
      vertex -4.173338e+00 -1.521867e+00 5.790385e+01
    endloop
  endfacet
  facet normal -7.071067e-01 -7.071069e-01 0.000000e+00
    outer loop
      vertex -4.173338e+00 -1.521867e+00 5.790385e+01
      vertex -6.497600e+00 8.023936e-01 5.790385e+01
      vertex -6.497600e+00 8.023936e-01 2.677788e-01
    endloop
  endfacet
  facet normal -1.997433e-01 -9.798483e-01 0.000000e+00
    outer loop
      vertex -4.173338e+00 -1.521867e+00 2.677788e-01
      vertex -5.677342e-07 -2.372608e+00 2.677788e-01
      vertex -5.677342e-07 -2.372608e+00 5.790385e+01
    endloop
  endfacet
  facet normal -1.997433e-01 -9.798483e-01 0.000000e+00
    outer loop
      vertex -5.677342e-07 -2.372608e+00 5.790385e+01
      vertex -4.173338e+00 -1.521867e+00 5.790385e+01
      vertex -4.173338e+00 -1.521867e+00 2.677788e-01
    endloop
  endfacet
  facet normal 2.017965e-03 9.899200e-03 9.999490e-01
    outer loop
      vertex -5.677342e-07 -2.372608e+00 5.790385e+01
      vertex -4.173338e+00 -1.521867e+00 5.790385e+01
      vertex -7.148019e+00 -9.403067e+00 5.798787e+01
    endloop
  endfacet
  facet normal 2.567592e-03 9.340432e-03 9.999530e-01
    outer loop
      vertex -7.148019e+00 -9.403067e+00 5.798787e+01
      vertex -5.677342e-07 -1.136799e+01 5.798787e+01
      vertex -5.677342e-07 -2.372608e+00 5.790385e+01
    endloop
  endfacet
  facet normal 7.739552e-03 7.739554e-03 9.999402e-01
    outer loop
      vertex -4.173338e+00 -1.521867e+00 5.790385e+01
      vertex -6.497600e+00 8.023936e-01 5.790385e+01
      vertex -1.251628e+01 -4.034806e+00 5.798787e+01
    endloop
  endfacet
  facet normal 7.739553e-03 7.739551e-03 9.999402e-01
    outer loop
      vertex -1.251628e+01 -4.034806e+00 5.798787e+01
      vertex -7.148019e+00 -9.403067e+00 5.798787e+01
      vertex -4.173338e+00 -1.521867e+00 5.790385e+01
    endloop
  endfacet
  facet normal 1.148612e-02 3.077692e-03 9.999293e-01
    outer loop
      vertex -6.497600e+00 8.023936e-01 5.790385e+01
      vertex -7.348337e+00 3.977395e+00 5.790385e+01
      vertex -1.448120e+01 3.298378e+00 5.798787e+01
    endloop
  endfacet
  facet normal 1.148613e-02 3.077698e-03 9.999293e-01
    outer loop
      vertex -1.448120e+01 3.298378e+00 5.798787e+01
      vertex -1.251628e+01 -4.034806e+00 5.798787e+01
      vertex -6.497600e+00 8.023936e-01 5.790385e+01
    endloop
  endfacet
  facet normal 1.208734e-02 -3.238786e-03 9.999217e-01
    outer loop
      vertex -7.348337e+00 3.977395e+00 5.790385e+01
      vertex -6.497600e+00 7.152396e+00 5.790385e+01
      vertex -1.251628e+01 1.063156e+01 5.798787e+01
    endloop
  endfacet
  facet normal 1.208733e-02 -3.238787e-03 9.999217e-01
    outer loop
      vertex -1.251628e+01 1.063156e+01 5.798787e+01
      vertex -1.448120e+01 3.298378e+00 5.798787e+01
      vertex -7.348337e+00 3.977395e+00 5.790385e+01
    endloop
  endfacet
  facet normal 1.345498e-02 -1.345498e-02 9.998189e-01
    outer loop
      vertex -6.497600e+00 7.152396e+00 5.790385e+01
      vertex -4.173338e+00 9.476657e+00 5.790385e+01
      vertex -7.148018e+00 1.274572e+01 5.798787e+01
    endloop
  endfacet
  facet normal 5.656429e-03 -1.436277e-02 9.998808e-01
    outer loop
      vertex -7.148018e+00 1.274572e+01 5.798787e+01
      vertex -1.251628e+01 1.063156e+01 5.798787e+01
      vertex -6.497600e+00 7.152396e+00 5.790385e+01
    endloop
  endfacet
  facet normal 4.502741e-03 -2.208837e-02 9.997458e-01
    outer loop
      vertex -4.173338e+00 9.476657e+00 5.790385e+01
      vertex -5.677342e-07 1.032740e+01 5.790385e+01
      vertex -5.677342e-07 1.413045e+01 5.798787e+01
    endloop
  endfacet
  facet normal 4.232009e-03 -2.184571e-02 9.997524e-01
    outer loop
      vertex -5.677342e-07 1.413045e+01 5.798787e+01
      vertex -7.148018e+00 1.274572e+01 5.798787e+01
      vertex -4.173338e+00 9.476657e+00 5.790385e+01
    endloop
  endfacet
  facet normal 6.212784e-03 -6.212786e-03 -9.999614e-01
    outer loop
      vertex -4.173338e+00 9.476657e+00 2.677788e-01
      vertex -6.497600e+00 7.152396e+00 2.677788e-01
      vertex -1.805707e+01 1.125568e+01 1.704657e-01
    endloop
  endfacet
  facet normal 3.874432e-03 -2.444695e-02 -9.996936e-01
    outer loop
      vertex -1.805707e+01 1.125568e+01 1.704657e-01
      vertex -1.034208e+01 1.448930e+01 1.212897e-01
      vertex -4.173338e+00 9.476657e+00 2.677788e-01
    endloop
  endfacet
  facet normal 2.800833e-03 4.212614e-02 9.991083e-01
    outer loop
      vertex -5.677342e-07 1.032740e+01 2.677788e-01
      vertex -5.677342e-07 1.667832e+01 0.000000e+00
      vertex -1.034208e+01 1.448930e+01 1.212897e-01
    endloop
  endfacet
  facet normal -4.102704e-03 2.499136e-02 9.996793e-01
    outer loop
      vertex -5.677342e-07 1.032740e+01 2.677788e-01
      vertex -1.034208e+01 1.448930e+01 1.212897e-01
      vertex -1.805707e+01 1.125568e+01 1.704657e-01
    endloop
  endfacet
  facet normal -6.212784e-03 6.212786e-03 9.999614e-01
    outer loop
      vertex -4.173338e+00 9.476657e+00 2.677788e-01
      vertex -1.805707e+01 1.125568e+01 1.704657e-01
      vertex -6.497600e+00 7.152396e+00 2.677788e-01
    endloop
  endfacet
  facet normal -4.302834e-03 2.110771e-02 9.997680e-01
    outer loop
      vertex -4.173338e+00 9.476657e+00 2.677788e-01
      vertex -5.677342e-07 1.032740e+01 2.677788e-01
      vertex -1.805707e+01 1.125568e+01 1.704657e-01
    endloop
  endfacet
  facet normal -1.268541e-02 -5.940852e-02 -9.981532e-01
    outer loop
      vertex -2.107720e+01 3.298378e+00 6.824544e-01
      vertex -1.805707e+01 1.125568e+01 1.704657e-01
      vertex -6.497600e+00 7.152396e+00 2.677788e-01
    endloop
  endfacet
  facet normal -3.059496e-02 8.197881e-03 -9.994982e-01
    outer loop
      vertex -6.497600e+00 7.152396e+00 2.677788e-01
      vertex -7.348337e+00 3.977395e+00 2.677788e-01
      vertex -2.107720e+01 3.298378e+00 6.824544e-01
    endloop
  endfacet
  facet normal -7.364784e-03 -1.973385e-03 -9.999709e-01
    outer loop
      vertex -7.348337e+00 3.977395e+00 2.677788e-01
      vertex -6.497600e+00 8.023936e-01 2.677788e-01
      vertex -1.763705e+01 -7.420761e+00 3.660487e-01
    endloop
  endfacet
  facet normal -3.114876e-02 1.950113e-02 -9.993245e-01
    outer loop
      vertex -1.763705e+01 -7.420761e+00 3.660487e-01
      vertex -2.107720e+01 3.298378e+00 6.824544e-01
      vertex -7.348337e+00 3.977395e+00 2.677788e-01
    endloop
  endfacet
  facet normal -7.348305e-03 -7.348307e-03 -9.999460e-01
    outer loop
      vertex -6.497600e+00 8.023936e-01 2.677788e-01
      vertex -4.173338e+00 -1.521867e+00 2.677788e-01
      vertex -1.038443e+01 -8.683195e+00 3.660487e-01
    endloop
  endfacet
  facet normal -1.683169e-03 -9.669722e-03 -9.999518e-01
    outer loop
      vertex -1.038443e+01 -8.683195e+00 3.660487e-01
      vertex -1.763705e+01 -7.420761e+00 3.660487e-01
      vertex -6.497600e+00 8.023936e-01 2.677788e-01
    endloop
  endfacet
  facet normal 1.727670e-04 8.475146e-04 -9.999996e-01
    outer loop
      vertex -4.173338e+00 -1.521867e+00 2.677788e-01
      vertex -5.677342e-07 -2.372608e+00 2.677788e-01
      vertex -5.677342e-07 -1.085827e+01 2.605871e-01
    endloop
  endfacet
  facet normal -1.102604e-02 -4.158362e-03 -9.999305e-01
    outer loop
      vertex -5.677342e-07 -1.085827e+01 2.605871e-01
      vertex -1.038443e+01 -8.683195e+00 3.660487e-01
      vertex -4.173338e+00 -1.521867e+00 2.677788e-01
    endloop
  endfacet
endsolid Default
