solid OpenSCAD_Model
  facet normal 0 0.920575 0.390567
    outer loop
      vertex 9.89949 9.89949 0
      vertex -5.65685 5.65685 10
      vertex 5.65685 5.65685 10
    endloop
  endfacet
  facet normal 0 0.920575 0.390567
    outer loop
      vertex -5.65685 5.65685 10
      vertex 9.89949 9.89949 0
      vertex -9.89949 9.89949 0
    endloop
  endfacet
  facet normal -0.920575 0 0.390567
    outer loop
      vertex -9.89949 9.89949 0
      vertex -5.65685 -5.65685 10
      vertex -5.65685 5.65685 10
    endloop
  endfacet
  facet normal -0.920575 0 0.390567
    outer loop
      vertex -5.65685 -5.65685 10
      vertex -9.89949 9.89949 0
      vertex -9.89949 -9.89949 0
    endloop
  endfacet
  facet normal 0 0 1
    outer loop
      vertex 5.65685 5.65685 10
      vertex 4.7 4.7 10
      vertex 5.65685 -5.65685 10
    endloop
  endfacet
  facet normal 0 0 1
    outer loop
      vertex 5.65685 5.65685 10
      vertex -4.7 4.7 10
      vertex 4.7 4.7 10
    endloop
  endfacet
  facet normal 0 0 1
    outer loop
      vertex -4.7 4.7 10
      vertex -5.65685 5.65685 10
      vertex -4.7 -4.7 10
    endloop
  endfacet
  facet normal -0 0 1
    outer loop
      vertex -5.65685 5.65685 10
      vertex -4.7 4.7 10
      vertex 5.65685 5.65685 10
    endloop
  endfacet
  facet normal -0 0 1
    outer loop
      vertex 4.7 -4.7 10
      vertex 5.65685 -5.65685 10
      vertex 4.7 4.7 10
    endloop
  endfacet
  facet normal -0 0 1
    outer loop
      vertex -4.7 -4.7 10
      vertex 5.65685 -5.65685 10
      vertex 4.7 -4.7 10
    endloop
  endfacet
  facet normal 0 0 1
    outer loop
      vertex -4.7 -4.7 10
      vertex -5.65685 -5.65685 10
      vertex 5.65685 -5.65685 10
    endloop
  endfacet
  facet normal 0 0 1
    outer loop
      vertex -5.65685 -5.65685 10
      vertex -4.7 -4.7 10
      vertex -5.65685 5.65685 10
    endloop
  endfacet
  facet normal 0 0 -1
    outer loop
      vertex -9.89949 -9.89949 0
      vertex 9.89949 9.89949 0
      vertex 9.89949 -9.89949 0
    endloop
  endfacet
  facet normal -0 0 -1
    outer loop
      vertex 9.89949 9.89949 0
      vertex -9.89949 -9.89949 0
      vertex -9.89949 9.89949 0
    endloop
  endfacet
  facet normal 0 -0.920575 0.390567
    outer loop
      vertex -9.89949 -9.89949 0
      vertex 5.65685 -5.65685 10
      vertex -5.65685 -5.65685 10
    endloop
  endfacet
  facet normal 0 -0.920575 0.390567
    outer loop
      vertex 5.65685 -5.65685 10
      vertex -9.89949 -9.89949 0
      vertex 9.89949 -9.89949 0
    endloop
  endfacet
  facet normal 0.920575 -0 0.390567
    outer loop
      vertex 5.65685 -5.65685 10
      vertex 9.89949 9.89949 0
      vertex 5.65685 5.65685 10
    endloop
  endfacet
  facet normal 0.920575 0 0.390567
    outer loop
      vertex 9.89949 9.89949 0
      vertex 5.65685 -5.65685 10
      vertex 9.89949 -9.89949 0
    endloop
  endfacet
  facet normal 1 -0 0
    outer loop
      vertex -4.7 -4.7 10
      vertex -4.7 4.7 8
      vertex -4.7 4.7 10
    endloop
  endfacet
  facet normal 1 0 0
    outer loop
      vertex -4.7 4.7 8
      vertex -4.7 -4.7 10
      vertex -4.7 -4.7 8
    endloop
  endfacet
  facet normal -1 0 0
    outer loop
      vertex 4.7 -4.7 8
      vertex 4.7 4.7 10
      vertex 4.7 4.7 8
    endloop
  endfacet
  facet normal -1 -0 0
    outer loop
      vertex 4.7 4.7 10
      vertex 4.7 -4.7 8
      vertex 4.7 -4.7 10
    endloop
  endfacet
  facet normal 0 -1 0
    outer loop
      vertex -4.7 4.7 8
      vertex 4.7 4.7 10
      vertex -4.7 4.7 10
    endloop
  endfacet
  facet normal 0 -1 -0
    outer loop
      vertex 4.7 4.7 10
      vertex -4.7 4.7 8
      vertex 4.7 4.7 8
    endloop
  endfacet
  facet normal -0 0 1
    outer loop
      vertex -4.7 4.7 8
      vertex 4.7 -4.7 8
      vertex 4.7 4.7 8
    endloop
  endfacet
  facet normal 0 0 1
    outer loop
      vertex 4.7 -4.7 8
      vertex -4.7 4.7 8
      vertex -4.7 -4.7 8
    endloop
  endfacet
  facet normal 0 1 -0
    outer loop
      vertex 4.7 -4.7 8
      vertex -4.7 -4.7 10
      vertex 4.7 -4.7 10
    endloop
  endfacet
  facet normal 0 1 0
    outer loop
      vertex -4.7 -4.7 10
      vertex 4.7 -4.7 8
      vertex -4.7 -4.7 8
    endloop
  endfacet
  facet normal 0 0.920575 0.390567
    outer loop
      vertex 34.8995 9.89949 0
      vertex 19.3431 5.65685 10
      vertex 30.6569 5.65685 10
    endloop
  endfacet
  facet normal 0 0.920575 0.390567
    outer loop
      vertex 19.3431 5.65685 10
      vertex 34.8995 9.89949 0
      vertex 15.1005 9.89949 0
    endloop
  endfacet
  facet normal -0.920575 0 0.390567
    outer loop
      vertex 15.1005 9.89949 0
      vertex 19.3431 -5.65685 10
      vertex 19.3431 5.65685 10
    endloop
  endfacet
  facet normal -0.920575 0 0.390567
    outer loop
      vertex 19.3431 -5.65685 10
      vertex 15.1005 9.89949 0
      vertex 15.1005 -9.89949 0
    endloop
  endfacet
  facet normal 0 0 1
    outer loop
      vertex 30.6569 5.65685 10
      vertex 29.7 4.7 10
      vertex 30.6569 -5.65685 10
    endloop
  endfacet
  facet normal 0 0 1
    outer loop
      vertex 30.6569 5.65685 10
      vertex 20.3 4.7 10
      vertex 29.7 4.7 10
    endloop
  endfacet
  facet normal 0 0 1
    outer loop
      vertex 20.3 4.7 10
      vertex 19.3431 5.65685 10
      vertex 20.3 -4.7 10
    endloop
  endfacet
  facet normal -0 0 1
    outer loop
      vertex 19.3431 5.65685 10
      vertex 20.3 4.7 10
      vertex 30.6569 5.65685 10
    endloop
  endfacet
  facet normal -0 0 1
    outer loop
      vertex 29.7 -4.7 10
      vertex 30.6569 -5.65685 10
      vertex 29.7 4.7 10
    endloop
  endfacet
  facet normal -0 0 1
    outer loop
      vertex 20.3 -4.7 10
      vertex 30.6569 -5.65685 10
      vertex 29.7 -4.7 10
    endloop
  endfacet
  facet normal 0 0 1
    outer loop
      vertex 20.3 -4.7 10
      vertex 19.3431 -5.65685 10
      vertex 30.6569 -5.65685 10
    endloop
  endfacet
  facet normal 0 0 1
    outer loop
      vertex 19.3431 -5.65685 10
      vertex 20.3 -4.7 10
      vertex 19.3431 5.65685 10
    endloop
  endfacet
  facet normal 0 0 -1
    outer loop
      vertex 15.1005 -9.89949 0
      vertex 34.8995 9.89949 0
      vertex 34.8995 -9.89949 0
    endloop
  endfacet
  facet normal -0 0 -1
    outer loop
      vertex 34.8995 9.89949 0
      vertex 15.1005 -9.89949 0
      vertex 15.1005 9.89949 0
    endloop
  endfacet
  facet normal 0 -0.920575 0.390567
    outer loop
      vertex 15.1005 -9.89949 0
      vertex 30.6569 -5.65685 10
      vertex 19.3431 -5.65685 10
    endloop
  endfacet
  facet normal 0 -0.920575 0.390567
    outer loop
      vertex 30.6569 -5.65685 10
      vertex 15.1005 -9.89949 0
      vertex 34.8995 -9.89949 0
    endloop
  endfacet
  facet normal 0.920575 -0 0.390567
    outer loop
      vertex 30.6569 -5.65685 10
      vertex 34.8995 9.89949 0
      vertex 30.6569 5.65685 10
    endloop
  endfacet
  facet normal 0.920575 0 0.390567
    outer loop
      vertex 34.8995 9.89949 0
      vertex 30.6569 -5.65685 10
      vertex 34.8995 -9.89949 0
    endloop
  endfacet
  facet normal 1 -0 0
    outer loop
      vertex 20.3 -4.7 10
      vertex 20.3 4.7 8
      vertex 20.3 4.7 10
    endloop
  endfacet
  facet normal 1 0 0
    outer loop
      vertex 20.3 4.7 8
      vertex 20.3 -4.7 10
      vertex 20.3 -4.7 8
    endloop
  endfacet
  facet normal -1 0 0
    outer loop
      vertex 29.7 -4.7 8
      vertex 29.7 4.7 10
      vertex 29.7 4.7 8
    endloop
  endfacet
  facet normal -1 -0 0
    outer loop
      vertex 29.7 4.7 10
      vertex 29.7 -4.7 8
      vertex 29.7 -4.7 10
    endloop
  endfacet
  facet normal 0 -1 0
    outer loop
      vertex 20.3 4.7 8
      vertex 29.7 4.7 10
      vertex 20.3 4.7 10
    endloop
  endfacet
  facet normal 0 -1 -0
    outer loop
      vertex 29.7 4.7 10
      vertex 20.3 4.7 8
      vertex 29.7 4.7 8
    endloop
  endfacet
  facet normal -0 0 1
    outer loop
      vertex 20.3 4.7 8
      vertex 29.7 -4.7 8
      vertex 29.7 4.7 8
    endloop
  endfacet
  facet normal 0 0 1
    outer loop
      vertex 29.7 -4.7 8
      vertex 20.3 4.7 8
      vertex 20.3 -4.7 8
    endloop
  endfacet
  facet normal 0 1 -0
    outer loop
      vertex 29.7 -4.7 8
      vertex 20.3 -4.7 10
      vertex 29.7 -4.7 10
    endloop
  endfacet
  facet normal 0 1 0
    outer loop
      vertex 20.3 -4.7 10
      vertex 29.7 -4.7 8
      vertex 20.3 -4.7 8
    endloop
  endfacet
  facet normal 0 0.920575 0.390567
    outer loop
      vertex 34.8995 34.8995 0
      vertex 19.3431 30.6569 10
      vertex 30.6569 30.6569 10
    endloop
  endfacet
  facet normal 0 0.920575 0.390567
    outer loop
      vertex 19.3431 30.6569 10
      vertex 34.8995 34.8995 0
      vertex 15.1005 34.8995 0
    endloop
  endfacet
  facet normal -0.920575 0 0.390567
    outer loop
      vertex 15.1005 34.8995 0
      vertex 19.3431 19.3431 10
      vertex 19.3431 30.6569 10
    endloop
  endfacet
  facet normal -0.920575 0 0.390567
    outer loop
      vertex 19.3431 19.3431 10
      vertex 15.1005 34.8995 0
      vertex 15.1005 15.1005 0
    endloop
  endfacet
  facet normal 0 0 1
    outer loop
      vertex 30.6569 30.6569 10
      vertex 29.7 29.7 10
      vertex 30.6569 19.3431 10
    endloop
  endfacet
  facet normal 0 0 1
    outer loop
      vertex 30.6569 30.6569 10
      vertex 20.3 29.7 10
      vertex 29.7 29.7 10
    endloop
  endfacet
  facet normal 0 0 1
    outer loop
      vertex 20.3 29.7 10
      vertex 19.3431 30.6569 10
      vertex 20.3 20.3 10
    endloop
  endfacet
  facet normal -0 0 1
    outer loop
      vertex 19.3431 30.6569 10
      vertex 20.3 29.7 10
      vertex 30.6569 30.6569 10
    endloop
  endfacet
  facet normal -0 0 1
    outer loop
      vertex 29.7 20.3 10
      vertex 30.6569 19.3431 10
      vertex 29.7 29.7 10
    endloop
  endfacet
  facet normal -0 0 1
    outer loop
      vertex 20.3 20.3 10
      vertex 30.6569 19.3431 10
      vertex 29.7 20.3 10
    endloop
  endfacet
  facet normal 0 0 1
    outer loop
      vertex 20.3 20.3 10
      vertex 19.3431 19.3431 10
      vertex 30.6569 19.3431 10
    endloop
  endfacet
  facet normal 0 0 1
    outer loop
      vertex 19.3431 19.3431 10
      vertex 20.3 20.3 10
      vertex 19.3431 30.6569 10
    endloop
  endfacet
  facet normal 0 0 -1
    outer loop
      vertex 15.1005 15.1005 0
      vertex 34.8995 34.8995 0
      vertex 34.8995 15.1005 0
    endloop
  endfacet
  facet normal -0 0 -1
    outer loop
      vertex 34.8995 34.8995 0
      vertex 15.1005 15.1005 0
      vertex 15.1005 34.8995 0
    endloop
  endfacet
  facet normal 0 -0.920575 0.390567
    outer loop
      vertex 15.1005 15.1005 0
      vertex 30.6569 19.3431 10
      vertex 19.3431 19.3431 10
    endloop
  endfacet
  facet normal 0 -0.920575 0.390567
    outer loop
      vertex 30.6569 19.3431 10
      vertex 15.1005 15.1005 0
      vertex 34.8995 15.1005 0
    endloop
  endfacet
  facet normal 0.920575 -0 0.390567
    outer loop
      vertex 30.6569 19.3431 10
      vertex 34.8995 34.8995 0
      vertex 30.6569 30.6569 10
    endloop
  endfacet
  facet normal 0.920575 0 0.390567
    outer loop
      vertex 34.8995 34.8995 0
      vertex 30.6569 19.3431 10
      vertex 34.8995 15.1005 0
    endloop
  endfacet
  facet normal 1 -0 0
    outer loop
      vertex 20.3 20.3 10
      vertex 20.3 29.7 8
      vertex 20.3 29.7 10
    endloop
  endfacet
  facet normal 1 0 0
    outer loop
      vertex 20.3 29.7 8
      vertex 20.3 20.3 10
      vertex 20.3 20.3 8
    endloop
  endfacet
  facet normal -1 0 0
    outer loop
      vertex 29.7 20.3 8
      vertex 29.7 29.7 10
      vertex 29.7 29.7 8
    endloop
  endfacet
  facet normal -1 -0 0
    outer loop
      vertex 29.7 29.7 10
      vertex 29.7 20.3 8
      vertex 29.7 20.3 10
    endloop
  endfacet
  facet normal 0 -1 0
    outer loop
      vertex 20.3 29.7 8
      vertex 29.7 29.7 10
      vertex 20.3 29.7 10
    endloop
  endfacet
  facet normal 0 -1 -0
    outer loop
      vertex 29.7 29.7 10
      vertex 20.3 29.7 8
      vertex 29.7 29.7 8
    endloop
  endfacet
  facet normal -0 0 1
    outer loop
      vertex 20.3 29.7 8
      vertex 29.7 20.3 8
      vertex 29.7 29.7 8
    endloop
  endfacet
  facet normal 0 0 1
    outer loop
      vertex 29.7 20.3 8
      vertex 20.3 29.7 8
      vertex 20.3 20.3 8
    endloop
  endfacet
  facet normal 0 1 -0
    outer loop
      vertex 29.7 20.3 8
      vertex 20.3 20.3 10
      vertex 29.7 20.3 10
    endloop
  endfacet
  facet normal 0 1 0
    outer loop
      vertex 20.3 20.3 10
      vertex 29.7 20.3 8
      vertex 20.3 20.3 8
    endloop
  endfacet
  facet normal 0 0.920575 0.390567
    outer loop
      vertex 9.89949 34.8995 0
      vertex -5.65685 30.6569 10
      vertex 5.65685 30.6569 10
    endloop
  endfacet
  facet normal 0 0.920575 0.390567
    outer loop
      vertex -5.65685 30.6569 10
      vertex 9.89949 34.8995 0
      vertex -9.89949 34.8995 0
    endloop
  endfacet
  facet normal -0.920575 0 0.390567
    outer loop
      vertex -9.89949 34.8995 0
      vertex -5.65685 19.3431 10
      vertex -5.65685 30.6569 10
    endloop
  endfacet
  facet normal -0.920575 0 0.390567
    outer loop
      vertex -5.65685 19.3431 10
      vertex -9.89949 34.8995 0
      vertex -9.89949 15.1005 0
    endloop
  endfacet
  facet normal 0 0 1
    outer loop
      vertex 5.65685 30.6569 10
      vertex 4.7 29.7 10
      vertex 5.65685 19.3431 10
    endloop
  endfacet
  facet normal 0 0 1
    outer loop
      vertex 5.65685 30.6569 10
      vertex -4.7 29.7 10
      vertex 4.7 29.7 10
    endloop
  endfacet
  facet normal 0 0 1
    outer loop
      vertex -4.7 29.7 10
      vertex -5.65685 30.6569 10
      vertex -4.7 20.3 10
    endloop
  endfacet
  facet normal -0 0 1
    outer loop
      vertex -5.65685 30.6569 10
      vertex -4.7 29.7 10
      vertex 5.65685 30.6569 10
    endloop
  endfacet
  facet normal -0 0 1
    outer loop
      vertex 4.7 20.3 10
      vertex 5.65685 19.3431 10
      vertex 4.7 29.7 10
    endloop
  endfacet
  facet normal -0 0 1
    outer loop
      vertex -4.7 20.3 10
      vertex 5.65685 19.3431 10
      vertex 4.7 20.3 10
    endloop
  endfacet
  facet normal 0 0 1
    outer loop
      vertex -4.7 20.3 10
      vertex -5.65685 19.3431 10
      vertex 5.65685 19.3431 10
    endloop
  endfacet
  facet normal 0 0 1
    outer loop
      vertex -5.65685 19.3431 10
      vertex -4.7 20.3 10
      vertex -5.65685 30.6569 10
    endloop
  endfacet
  facet normal 0 0 -1
    outer loop
      vertex -9.89949 15.1005 0
      vertex 9.89949 34.8995 0
      vertex 9.89949 15.1005 0
    endloop
  endfacet
  facet normal -0 0 -1
    outer loop
      vertex 9.89949 34.8995 0
      vertex -9.89949 15.1005 0
      vertex -9.89949 34.8995 0
    endloop
  endfacet
  facet normal 0 -0.920575 0.390567
    outer loop
      vertex -9.89949 15.1005 0
      vertex 5.65685 19.3431 10
      vertex -5.65685 19.3431 10
    endloop
  endfacet
  facet normal 0 -0.920575 0.390567
    outer loop
      vertex 5.65685 19.3431 10
      vertex -9.89949 15.1005 0
      vertex 9.89949 15.1005 0
    endloop
  endfacet
  facet normal 0.920575 -0 0.390567
    outer loop
      vertex 5.65685 19.3431 10
      vertex 9.89949 34.8995 0
      vertex 5.65685 30.6569 10
    endloop
  endfacet
  facet normal 0.920575 0 0.390567
    outer loop
      vertex 9.89949 34.8995 0
      vertex 5.65685 19.3431 10
      vertex 9.89949 15.1005 0
    endloop
  endfacet
  facet normal 1 -0 0
    outer loop
      vertex -4.7 20.3 10
      vertex -4.7 29.7 8
      vertex -4.7 29.7 10
    endloop
  endfacet
  facet normal 1 0 0
    outer loop
      vertex -4.7 29.7 8
      vertex -4.7 20.3 10
      vertex -4.7 20.3 8
    endloop
  endfacet
  facet normal -1 0 0
    outer loop
      vertex 4.7 20.3 8
      vertex 4.7 29.7 10
      vertex 4.7 29.7 8
    endloop
  endfacet
  facet normal -1 -0 0
    outer loop
      vertex 4.7 29.7 10
      vertex 4.7 20.3 8
      vertex 4.7 20.3 10
    endloop
  endfacet
  facet normal 0 -1 0
    outer loop
      vertex -4.7 29.7 8
      vertex 4.7 29.7 10
      vertex -4.7 29.7 10
    endloop
  endfacet
  facet normal 0 -1 -0
    outer loop
      vertex 4.7 29.7 10
      vertex -4.7 29.7 8
      vertex 4.7 29.7 8
    endloop
  endfacet
  facet normal -0 0 1
    outer loop
      vertex -4.7 29.7 8
      vertex 4.7 20.3 8
      vertex 4.7 29.7 8
    endloop
  endfacet
  facet normal 0 0 1
    outer loop
      vertex 4.7 20.3 8
      vertex -4.7 29.7 8
      vertex -4.7 20.3 8
    endloop
  endfacet
  facet normal 0 1 -0
    outer loop
      vertex 4.7 20.3 8
      vertex -4.7 20.3 10
      vertex 4.7 20.3 10
    endloop
  endfacet
  facet normal 0 1 0
    outer loop
      vertex -4.7 20.3 10
      vertex 4.7 20.3 8
      vertex -4.7 20.3 8
    endloop
  endfacet
  facet normal 0 0.920575 0.390567
    outer loop
      vertex 59.8995 9.89949 0
      vertex 44.3431 5.65685 10
      vertex 55.6569 5.65685 10
    endloop
  endfacet
  facet normal 0 0.920575 0.390567
    outer loop
      vertex 44.3431 5.65685 10
      vertex 59.8995 9.89949 0
      vertex 40.1005 9.89949 0
    endloop
  endfacet
  facet normal -0.920575 0 0.390567
    outer loop
      vertex 40.1005 9.89949 0
      vertex 44.3431 -5.65685 10
      vertex 44.3431 5.65685 10
    endloop
  endfacet
  facet normal -0.920575 0 0.390567
    outer loop
      vertex 44.3431 -5.65685 10
      vertex 40.1005 9.89949 0
      vertex 40.1005 -9.89949 0
    endloop
  endfacet
  facet normal 0 0 1
    outer loop
      vertex 55.6569 5.65685 10
      vertex 54.7 4.7 10
      vertex 55.6569 -5.65685 10
    endloop
  endfacet
  facet normal 0 0 1
    outer loop
      vertex 55.6569 5.65685 10
      vertex 45.3 4.7 10
      vertex 54.7 4.7 10
    endloop
  endfacet
  facet normal 0 0 1
    outer loop
      vertex 45.3 4.7 10
      vertex 44.3431 5.65685 10
      vertex 45.3 -4.7 10
    endloop
  endfacet
  facet normal -0 0 1
    outer loop
      vertex 44.3431 5.65685 10
      vertex 45.3 4.7 10
      vertex 55.6569 5.65685 10
    endloop
  endfacet
  facet normal -0 0 1
    outer loop
      vertex 54.7 -4.7 10
      vertex 55.6569 -5.65685 10
      vertex 54.7 4.7 10
    endloop
  endfacet
  facet normal -0 0 1
    outer loop
      vertex 45.3 -4.7 10
      vertex 55.6569 -5.65685 10
      vertex 54.7 -4.7 10
    endloop
  endfacet
  facet normal 0 0 1
    outer loop
      vertex 45.3 -4.7 10
      vertex 44.3431 -5.65685 10
      vertex 55.6569 -5.65685 10
    endloop
  endfacet
  facet normal 0 0 1
    outer loop
      vertex 44.3431 -5.65685 10
      vertex 45.3 -4.7 10
      vertex 44.3431 5.65685 10
    endloop
  endfacet
  facet normal 0 0 -1
    outer loop
      vertex 40.1005 -9.89949 0
      vertex 59.8995 9.89949 0
      vertex 59.8995 -9.89949 0
    endloop
  endfacet
  facet normal -0 0 -1
    outer loop
      vertex 59.8995 9.89949 0
      vertex 40.1005 -9.89949 0
      vertex 40.1005 9.89949 0
    endloop
  endfacet
  facet normal 0 -0.920575 0.390567
    outer loop
      vertex 40.1005 -9.89949 0
      vertex 55.6569 -5.65685 10
      vertex 44.3431 -5.65685 10
    endloop
  endfacet
  facet normal 0 -0.920575 0.390567
    outer loop
      vertex 55.6569 -5.65685 10
      vertex 40.1005 -9.89949 0
      vertex 59.8995 -9.89949 0
    endloop
  endfacet
  facet normal 0.920575 -0 0.390567
    outer loop
      vertex 55.6569 -5.65685 10
      vertex 59.8995 9.89949 0
      vertex 55.6569 5.65685 10
    endloop
  endfacet
  facet normal 0.920575 0 0.390567
    outer loop
      vertex 59.8995 9.89949 0
      vertex 55.6569 -5.65685 10
      vertex 59.8995 -9.89949 0
    endloop
  endfacet
  facet normal 1 -0 0
    outer loop
      vertex 45.3 -4.7 10
      vertex 45.3 4.7 8
      vertex 45.3 4.7 10
    endloop
  endfacet
  facet normal 1 0 0
    outer loop
      vertex 45.3 4.7 8
      vertex 45.3 -4.7 10
      vertex 45.3 -4.7 8
    endloop
  endfacet
  facet normal -1 0 0
    outer loop
      vertex 54.7 -4.7 8
      vertex 54.7 4.7 10
      vertex 54.7 4.7 8
    endloop
  endfacet
  facet normal -1 -0 0
    outer loop
      vertex 54.7 4.7 10
      vertex 54.7 -4.7 8
      vertex 54.7 -4.7 10
    endloop
  endfacet
  facet normal 0 -1 0
    outer loop
      vertex 45.3 4.7 8
      vertex 54.7 4.7 10
      vertex 45.3 4.7 10
    endloop
  endfacet
  facet normal 0 -1 -0
    outer loop
      vertex 54.7 4.7 10
      vertex 45.3 4.7 8
      vertex 54.7 4.7 8
    endloop
  endfacet
  facet normal -0 0 1
    outer loop
      vertex 45.3 4.7 8
      vertex 54.7 -4.7 8
      vertex 54.7 4.7 8
    endloop
  endfacet
  facet normal 0 0 1
    outer loop
      vertex 54.7 -4.7 8
      vertex 45.3 4.7 8
      vertex 45.3 -4.7 8
    endloop
  endfacet
  facet normal 0 1 -0
    outer loop
      vertex 54.7 -4.7 8
      vertex 45.3 -4.7 10
      vertex 54.7 -4.7 10
    endloop
  endfacet
  facet normal 0 1 0
    outer loop
      vertex 45.3 -4.7 10
      vertex 54.7 -4.7 8
      vertex 45.3 -4.7 8
    endloop
  endfacet
  facet normal 0 0.920575 0.390567
    outer loop
      vertex 59.8995 34.8995 0
      vertex 44.3431 30.6569 10
      vertex 55.6569 30.6569 10
    endloop
  endfacet
  facet normal 0 0.920575 0.390567
    outer loop
      vertex 44.3431 30.6569 10
      vertex 59.8995 34.8995 0
      vertex 40.1005 34.8995 0
    endloop
  endfacet
  facet normal -0.920575 0 0.390567
    outer loop
      vertex 40.1005 34.8995 0
      vertex 44.3431 19.3431 10
      vertex 44.3431 30.6569 10
    endloop
  endfacet
  facet normal -0.920575 0 0.390567
    outer loop
      vertex 44.3431 19.3431 10
      vertex 40.1005 34.8995 0
      vertex 40.1005 15.1005 0
    endloop
  endfacet
  facet normal 0 0 1
    outer loop
      vertex 55.6569 30.6569 10
      vertex 54.7 29.7 10
      vertex 55.6569 19.3431 10
    endloop
  endfacet
  facet normal 0 0 1
    outer loop
      vertex 55.6569 30.6569 10
      vertex 45.3 29.7 10
      vertex 54.7 29.7 10
    endloop
  endfacet
  facet normal 0 0 1
    outer loop
      vertex 45.3 29.7 10
      vertex 44.3431 30.6569 10
      vertex 45.3 20.3 10
    endloop
  endfacet
  facet normal -0 0 1
    outer loop
      vertex 44.3431 30.6569 10
      vertex 45.3 29.7 10
      vertex 55.6569 30.6569 10
    endloop
  endfacet
  facet normal -0 0 1
    outer loop
      vertex 54.7 20.3 10
      vertex 55.6569 19.3431 10
      vertex 54.7 29.7 10
    endloop
  endfacet
  facet normal -0 0 1
    outer loop
      vertex 45.3 20.3 10
      vertex 55.6569 19.3431 10
      vertex 54.7 20.3 10
    endloop
  endfacet
  facet normal 0 0 1
    outer loop
      vertex 45.3 20.3 10
      vertex 44.3431 19.3431 10
      vertex 55.6569 19.3431 10
    endloop
  endfacet
  facet normal 0 0 1
    outer loop
      vertex 44.3431 19.3431 10
      vertex 45.3 20.3 10
      vertex 44.3431 30.6569 10
    endloop
  endfacet
  facet normal 0 0 -1
    outer loop
      vertex 40.1005 15.1005 0
      vertex 59.8995 34.8995 0
      vertex 59.8995 15.1005 0
    endloop
  endfacet
  facet normal -0 0 -1
    outer loop
      vertex 59.8995 34.8995 0
      vertex 40.1005 15.1005 0
      vertex 40.1005 34.8995 0
    endloop
  endfacet
  facet normal 0 -0.920575 0.390567
    outer loop
      vertex 40.1005 15.1005 0
      vertex 55.6569 19.3431 10
      vertex 44.3431 19.3431 10
    endloop
  endfacet
  facet normal 0 -0.920575 0.390567
    outer loop
      vertex 55.6569 19.3431 10
      vertex 40.1005 15.1005 0
      vertex 59.8995 15.1005 0
    endloop
  endfacet
  facet normal 0.920575 -0 0.390567
    outer loop
      vertex 55.6569 19.3431 10
      vertex 59.8995 34.8995 0
      vertex 55.6569 30.6569 10
    endloop
  endfacet
  facet normal 0.920575 0 0.390567
    outer loop
      vertex 59.8995 34.8995 0
      vertex 55.6569 19.3431 10
      vertex 59.8995 15.1005 0
    endloop
  endfacet
  facet normal 1 -0 0
    outer loop
      vertex 45.3 20.3 10
      vertex 45.3 29.7 8
      vertex 45.3 29.7 10
    endloop
  endfacet
  facet normal 1 0 0
    outer loop
      vertex 45.3 29.7 8
      vertex 45.3 20.3 10
      vertex 45.3 20.3 8
    endloop
  endfacet
  facet normal -1 0 0
    outer loop
      vertex 54.7 20.3 8
      vertex 54.7 29.7 10
      vertex 54.7 29.7 8
    endloop
  endfacet
  facet normal -1 -0 0
    outer loop
      vertex 54.7 29.7 10
      vertex 54.7 20.3 8
      vertex 54.7 20.3 10
    endloop
  endfacet
  facet normal 0 -1 0
    outer loop
      vertex 45.3 29.7 8
      vertex 54.7 29.7 10
      vertex 45.3 29.7 10
    endloop
  endfacet
  facet normal 0 -1 -0
    outer loop
      vertex 54.7 29.7 10
      vertex 45.3 29.7 8
      vertex 54.7 29.7 8
    endloop
  endfacet
  facet normal -0 0 1
    outer loop
      vertex 45.3 29.7 8
      vertex 54.7 20.3 8
      vertex 54.7 29.7 8
    endloop
  endfacet
  facet normal 0 0 1
    outer loop
      vertex 54.7 20.3 8
      vertex 45.3 29.7 8
      vertex 45.3 20.3 8
    endloop
  endfacet
  facet normal 0 1 -0
    outer loop
      vertex 54.7 20.3 8
      vertex 45.3 20.3 10
      vertex 54.7 20.3 10
    endloop
  endfacet
  facet normal 0 1 0
    outer loop
      vertex 45.3 20.3 10
      vertex 54.7 20.3 8
      vertex 45.3 20.3 8
    endloop
  endfacet
  facet normal 0 0.920575 0.390567
    outer loop
      vertex 59.8995 59.8995 0
      vertex 44.3431 55.6569 10
      vertex 55.6569 55.6569 10
    endloop
  endfacet
  facet normal 0 0.920575 0.390567
    outer loop
      vertex 44.3431 55.6569 10
      vertex 59.8995 59.8995 0
      vertex 40.1005 59.8995 0
    endloop
  endfacet
  facet normal -0.920575 0 0.390567
    outer loop
      vertex 40.1005 59.8995 0
      vertex 44.3431 44.3431 10
      vertex 44.3431 55.6569 10
    endloop
  endfacet
  facet normal -0.920575 0 0.390567
    outer loop
      vertex 44.3431 44.3431 10
      vertex 40.1005 59.8995 0
      vertex 40.1005 40.1005 0
    endloop
  endfacet
  facet normal 0 0 1
    outer loop
      vertex 55.6569 55.6569 10
      vertex 54.7 54.7 10
      vertex 55.6569 44.3431 10
    endloop
  endfacet
  facet normal 0 0 1
    outer loop
      vertex 55.6569 55.6569 10
      vertex 45.3 54.7 10
      vertex 54.7 54.7 10
    endloop
  endfacet
  facet normal 0 0 1
    outer loop
      vertex 45.3 54.7 10
      vertex 44.3431 55.6569 10
      vertex 45.3 45.3 10
    endloop
  endfacet
  facet normal -0 0 1
    outer loop
      vertex 44.3431 55.6569 10
      vertex 45.3 54.7 10
      vertex 55.6569 55.6569 10
    endloop
  endfacet
  facet normal -0 0 1
    outer loop
      vertex 54.7 45.3 10
      vertex 55.6569 44.3431 10
      vertex 54.7 54.7 10
    endloop
  endfacet
  facet normal -0 0 1
    outer loop
      vertex 45.3 45.3 10
      vertex 55.6569 44.3431 10
      vertex 54.7 45.3 10
    endloop
  endfacet
  facet normal 0 0 1
    outer loop
      vertex 45.3 45.3 10
      vertex 44.3431 44.3431 10
      vertex 55.6569 44.3431 10
    endloop
  endfacet
  facet normal 0 0 1
    outer loop
      vertex 44.3431 44.3431 10
      vertex 45.3 45.3 10
      vertex 44.3431 55.6569 10
    endloop
  endfacet
  facet normal 0 0 -1
    outer loop
      vertex 40.1005 40.1005 0
      vertex 59.8995 59.8995 0
      vertex 59.8995 40.1005 0
    endloop
  endfacet
  facet normal -0 0 -1
    outer loop
      vertex 59.8995 59.8995 0
      vertex 40.1005 40.1005 0
      vertex 40.1005 59.8995 0
    endloop
  endfacet
  facet normal 0 -0.920575 0.390567
    outer loop
      vertex 40.1005 40.1005 0
      vertex 55.6569 44.3431 10
      vertex 44.3431 44.3431 10
    endloop
  endfacet
  facet normal 0 -0.920575 0.390567
    outer loop
      vertex 55.6569 44.3431 10
      vertex 40.1005 40.1005 0
      vertex 59.8995 40.1005 0
    endloop
  endfacet
  facet normal 0.920575 -0 0.390567
    outer loop
      vertex 55.6569 44.3431 10
      vertex 59.8995 59.8995 0
      vertex 55.6569 55.6569 10
    endloop
  endfacet
  facet normal 0.920575 0 0.390567
    outer loop
      vertex 59.8995 59.8995 0
      vertex 55.6569 44.3431 10
      vertex 59.8995 40.1005 0
    endloop
  endfacet
  facet normal 1 -0 0
    outer loop
      vertex 45.3 45.3 10
      vertex 45.3 54.7 8
      vertex 45.3 54.7 10
    endloop
  endfacet
  facet normal 1 0 0
    outer loop
      vertex 45.3 54.7 8
      vertex 45.3 45.3 10
      vertex 45.3 45.3 8
    endloop
  endfacet
  facet normal -1 0 0
    outer loop
      vertex 54.7 45.3 8
      vertex 54.7 54.7 10
      vertex 54.7 54.7 8
    endloop
  endfacet
  facet normal -1 -0 0
    outer loop
      vertex 54.7 54.7 10
      vertex 54.7 45.3 8
      vertex 54.7 45.3 10
    endloop
  endfacet
  facet normal 0 -1 0
    outer loop
      vertex 45.3 54.7 8
      vertex 54.7 54.7 10
      vertex 45.3 54.7 10
    endloop
  endfacet
  facet normal 0 -1 -0
    outer loop
      vertex 54.7 54.7 10
      vertex 45.3 54.7 8
      vertex 54.7 54.7 8
    endloop
  endfacet
  facet normal -0 0 1
    outer loop
      vertex 45.3 54.7 8
      vertex 54.7 45.3 8
      vertex 54.7 54.7 8
    endloop
  endfacet
  facet normal 0 0 1
    outer loop
      vertex 54.7 45.3 8
      vertex 45.3 54.7 8
      vertex 45.3 45.3 8
    endloop
  endfacet
  facet normal 0 1 -0
    outer loop
      vertex 54.7 45.3 8
      vertex 45.3 45.3 10
      vertex 54.7 45.3 10
    endloop
  endfacet
  facet normal 0 1 0
    outer loop
      vertex 45.3 45.3 10
      vertex 54.7 45.3 8
      vertex 45.3 45.3 8
    endloop
  endfacet
  facet normal 0 0.920575 0.390567
    outer loop
      vertex 9.89949 59.8995 0
      vertex -5.65685 55.6569 10
      vertex 5.65685 55.6569 10
    endloop
  endfacet
  facet normal 0 0.920575 0.390567
    outer loop
      vertex -5.65685 55.6569 10
      vertex 9.89949 59.8995 0
      vertex -9.89949 59.8995 0
    endloop
  endfacet
  facet normal -0.920575 0 0.390567
    outer loop
      vertex -9.89949 59.8995 0
      vertex -5.65685 44.3431 10
      vertex -5.65685 55.6569 10
    endloop
  endfacet
  facet normal -0.920575 0 0.390567
    outer loop
      vertex -5.65685 44.3431 10
      vertex -9.89949 59.8995 0
      vertex -9.89949 40.1005 0
    endloop
  endfacet
  facet normal 0 0 1
    outer loop
      vertex 5.65685 55.6569 10
      vertex 4.7 54.7 10
      vertex 5.65685 44.3431 10
    endloop
  endfacet
  facet normal 0 0 1
    outer loop
      vertex 5.65685 55.6569 10
      vertex -4.7 54.7 10
      vertex 4.7 54.7 10
    endloop
  endfacet
  facet normal 0 0 1
    outer loop
      vertex -4.7 54.7 10
      vertex -5.65685 55.6569 10
      vertex -4.7 45.3 10
    endloop
  endfacet
  facet normal -0 0 1
    outer loop
      vertex -5.65685 55.6569 10
      vertex -4.7 54.7 10
      vertex 5.65685 55.6569 10
    endloop
  endfacet
  facet normal -0 0 1
    outer loop
      vertex 4.7 45.3 10
      vertex 5.65685 44.3431 10
      vertex 4.7 54.7 10
    endloop
  endfacet
  facet normal -0 0 1
    outer loop
      vertex -4.7 45.3 10
      vertex 5.65685 44.3431 10
      vertex 4.7 45.3 10
    endloop
  endfacet
  facet normal 0 0 1
    outer loop
      vertex -4.7 45.3 10
      vertex -5.65685 44.3431 10
      vertex 5.65685 44.3431 10
    endloop
  endfacet
  facet normal 0 0 1
    outer loop
      vertex -5.65685 44.3431 10
      vertex -4.7 45.3 10
      vertex -5.65685 55.6569 10
    endloop
  endfacet
  facet normal 0 0 -1
    outer loop
      vertex -9.89949 40.1005 0
      vertex 9.89949 59.8995 0
      vertex 9.89949 40.1005 0
    endloop
  endfacet
  facet normal -0 0 -1
    outer loop
      vertex 9.89949 59.8995 0
      vertex -9.89949 40.1005 0
      vertex -9.89949 59.8995 0
    endloop
  endfacet
  facet normal 0 -0.920575 0.390567
    outer loop
      vertex -9.89949 40.1005 0
      vertex 5.65685 44.3431 10
      vertex -5.65685 44.3431 10
    endloop
  endfacet
  facet normal 0 -0.920575 0.390567
    outer loop
      vertex 5.65685 44.3431 10
      vertex -9.89949 40.1005 0
      vertex 9.89949 40.1005 0
    endloop
  endfacet
  facet normal 0.920575 -0 0.390567
    outer loop
      vertex 5.65685 44.3431 10
      vertex 9.89949 59.8995 0
      vertex 5.65685 55.6569 10
    endloop
  endfacet
  facet normal 0.920575 0 0.390567
    outer loop
      vertex 9.89949 59.8995 0
      vertex 5.65685 44.3431 10
      vertex 9.89949 40.1005 0
    endloop
  endfacet
  facet normal 1 -0 0
    outer loop
      vertex -4.7 45.3 10
      vertex -4.7 54.7 8
      vertex -4.7 54.7 10
    endloop
  endfacet
  facet normal 1 0 0
    outer loop
      vertex -4.7 54.7 8
      vertex -4.7 45.3 10
      vertex -4.7 45.3 8
    endloop
  endfacet
  facet normal -1 0 0
    outer loop
      vertex 4.7 45.3 8
      vertex 4.7 54.7 10
      vertex 4.7 54.7 8
    endloop
  endfacet
  facet normal -1 -0 0
    outer loop
      vertex 4.7 54.7 10
      vertex 4.7 45.3 8
      vertex 4.7 45.3 10
    endloop
  endfacet
  facet normal 0 -1 0
    outer loop
      vertex -4.7 54.7 8
      vertex 4.7 54.7 10
      vertex -4.7 54.7 10
    endloop
  endfacet
  facet normal 0 -1 -0
    outer loop
      vertex 4.7 54.7 10
      vertex -4.7 54.7 8
      vertex 4.7 54.7 8
    endloop
  endfacet
  facet normal -0 0 1
    outer loop
      vertex -4.7 54.7 8
      vertex 4.7 45.3 8
      vertex 4.7 54.7 8
    endloop
  endfacet
  facet normal 0 0 1
    outer loop
      vertex 4.7 45.3 8
      vertex -4.7 54.7 8
      vertex -4.7 45.3 8
    endloop
  endfacet
  facet normal 0 1 -0
    outer loop
      vertex 4.7 45.3 8
      vertex -4.7 45.3 10
      vertex 4.7 45.3 10
    endloop
  endfacet
  facet normal 0 1 0
    outer loop
      vertex -4.7 45.3 10
      vertex 4.7 45.3 8
      vertex -4.7 45.3 8
    endloop
  endfacet
endsolid OpenSCAD_Model
