solid OpenSCAD_Model
  facet normal -0.942809 0.272146 0.192477
    outer loop
      vertex -8.75 -25.2584 -7.14682
      vertex -7.75 -22.3717 -6.33004
      vertex -8.75 -15.1533 -21.4345
    endloop
  endfacet
  facet normal -0.942809 0.272146 0.192477
    outer loop
      vertex -8.75 -15.1533 -21.4345
      vertex -7.75 -22.3717 -6.33004
      vertex -7.75 -13.4215 -18.9849
    endloop
  endfacet
  facet normal 0 -0.27226 0.962224
    outer loop
      vertex -8.75 -25.2584 -7.14682
      vertex 8.75 -25.2584 -7.14682
      vertex 7.75 -22.3717 -6.33004
    endloop
  endfacet
  facet normal 0 -0.27226 0.962224
    outer loop
      vertex -7.75 -22.3717 -6.33004
      vertex -8.75 -25.2584 -7.14682
      vertex 7.75 -22.3717 -6.33004
    endloop
  endfacet
  facet normal -0 -0.81644 -0.57743
    outer loop
      vertex -8.75 -15.1533 -21.4345
      vertex 8.75 -15.1533 -21.4345
      vertex 8.75 -25.2584 -7.14682
    endloop
  endfacet
  facet normal -0 -0.81644 -0.57743
    outer loop
      vertex -8.75 -25.2584 -7.14682
      vertex -8.75 -15.1533 -21.4345
      vertex 8.75 -25.2584 -7.14682
    endloop
  endfacet
  facet normal 0 0.816553 -0.577271
    outer loop
      vertex -7.75 -13.4215 -18.9849
      vertex 7.75 -13.4215 -18.9849
      vertex -8.75 -15.1533 -21.4345
    endloop
  endfacet
  facet normal 0 0.816553 -0.577271
    outer loop
      vertex -8.75 -15.1533 -21.4345
      vertex 7.75 -13.4215 -18.9849
      vertex 8.75 -15.1533 -21.4345
    endloop
  endfacet
  facet normal 0 0.81644 0.57743
    outer loop
      vertex -7.75 -22.3717 -6.33004
      vertex 7.75 -22.3717 -6.33004
      vertex -7.75 -13.4215 -18.9849
    endloop
  endfacet
  facet normal 0 0.81644 0.57743
    outer loop
      vertex -7.75 -13.4215 -18.9849
      vertex 7.75 -22.3717 -6.33004
      vertex 7.75 -13.4215 -18.9849
    endloop
  endfacet
  facet normal 0.942809 0.272146 0.192477
    outer loop
      vertex 7.75 -13.4215 -18.9849
      vertex 7.75 -22.3717 -6.33004
      vertex 8.75 -25.2584 -7.14682
    endloop
  endfacet
  facet normal 0.942809 0.272146 0.192477
    outer loop
      vertex 8.75 -15.1533 -21.4345
      vertex 7.75 -13.4215 -18.9849
      vertex 8.75 -25.2584 -7.14682
    endloop
  endfacet
  facet normal 0 0.27226 -0.962224
    outer loop
      vertex 8.75 25.2584 7.14682
      vertex 7.75 22.3717 6.33004
      vertex -8.75 25.2584 7.14682
    endloop
  endfacet
  facet normal 0 0.27226 -0.962224
    outer loop
      vertex -8.75 25.2584 7.14682
      vertex 7.75 22.3717 6.33004
      vertex -7.75 22.3717 6.33004
    endloop
  endfacet
  facet normal 0.942809 -0.272146 -0.192477
    outer loop
      vertex 7.75 22.3717 6.33004
      vertex 8.75 25.2584 7.14682
      vertex 8.75 15.1533 21.4345
    endloop
  endfacet
  facet normal 0.942809 -0.272146 -0.192477
    outer loop
      vertex 7.75 13.4215 18.9849
      vertex 7.75 22.3717 6.33004
      vertex 8.75 15.1533 21.4345
    endloop
  endfacet
  facet normal 0 0.81644 0.57743
    outer loop
      vertex -8.75 15.1533 21.4345
      vertex 8.75 15.1533 21.4345
      vertex -8.75 25.2584 7.14682
    endloop
  endfacet
  facet normal 0 0.81644 0.57743
    outer loop
      vertex -8.75 25.2584 7.14682
      vertex 8.75 15.1533 21.4345
      vertex 8.75 25.2584 7.14682
    endloop
  endfacet
  facet normal -0.942809 -0.272146 -0.192477
    outer loop
      vertex -7.75 22.3717 6.33004
      vertex -7.75 13.4215 18.9849
      vertex -8.75 25.2584 7.14682
    endloop
  endfacet
  facet normal -0.942809 -0.272146 -0.192477
    outer loop
      vertex -8.75 25.2584 7.14682
      vertex -7.75 13.4215 18.9849
      vertex -8.75 15.1533 21.4345
    endloop
  endfacet
  facet normal -0 -0.81644 -0.57743
    outer loop
      vertex -7.75 22.3717 6.33004
      vertex 7.75 22.3717 6.33004
      vertex 7.75 13.4215 18.9849
    endloop
  endfacet
  facet normal -0 -0.81644 -0.57743
    outer loop
      vertex -7.75 13.4215 18.9849
      vertex -7.75 22.3717 6.33004
      vertex 7.75 13.4215 18.9849
    endloop
  endfacet
  facet normal 0 -0.816553 0.577271
    outer loop
      vertex -8.75 15.1533 21.4345
      vertex -7.75 13.4215 18.9849
      vertex 7.75 13.4215 18.9849
    endloop
  endfacet
  facet normal 0 -0.816553 0.577271
    outer loop
      vertex 8.75 15.1533 21.4345
      vertex -8.75 15.1533 21.4345
      vertex 7.75 13.4215 18.9849
    endloop
  endfacet
  facet normal -0.235702 -0.135988 -0.962264
    outer loop
      vertex -26.25 -5.05251 7.14385
      vertex -23.25 -4.47508 6.32741
      vertex -17.5 -20.208 7.14237
    endloop
  endfacet
  facet normal -0.235702 0.952598 -0.192357
    outer loop
      vertex -26.25 -5.05251 7.14385
      vertex -15.5 -0.00186301 18.9835
      vertex -23.25 -4.47508 6.32741
    endloop
  endfacet
  facet normal -0.235701 0.952598 -0.192358
    outer loop
      vertex -26.25 -5.05251 7.14385
      vertex -17.5 -0.00209761 21.433
      vertex -15.5 -0.00186301 18.9835
    endloop
  endfacet
  facet normal -0.707107 -0.408305 0.57731
    outer loop
      vertex -17.5 -20.208 7.14237
      vertex -8.75 -15.1575 21.4316
      vertex -26.25 -5.05251 7.14385
    endloop
  endfacet
  facet normal -0.707107 -0.408305 0.57731
    outer loop
      vertex -26.25 -5.05251 7.14385
      vertex -8.75 -15.1575 21.4316
      vertex -17.5 -0.00209761 21.433
    endloop
  endfacet
  facet normal -0.235701 -0.135988 -0.962264
    outer loop
      vertex -23.25 -4.47508 6.32741
      vertex -15.5 -17.8985 6.3261
      vertex -17.5 -20.208 7.14237
    endloop
  endfacet
  facet normal 0.707108 -0.680394 -0.192517
    outer loop
      vertex -17.5 -20.208 7.14237
      vertex -15.5 -17.8985 6.3261
      vertex -8.75 -15.1575 21.4316
    endloop
  endfacet
  facet normal 0.707107 0.408305 -0.57731
    outer loop
      vertex -23.25 -4.47508 6.32741
      vertex -15.5 -0.00186301 18.9835
      vertex -7.75 -13.4253 18.9822
    endloop
  endfacet
  facet normal 0.707107 0.408305 -0.57731
    outer loop
      vertex -15.5 -17.8985 6.3261
      vertex -23.25 -4.47508 6.32741
      vertex -7.75 -13.4253 18.9822
    endloop
  endfacet
  facet normal 0.707107 0.408192 0.577389
    outer loop
      vertex -17.5 -0.00209761 21.433
      vertex -7.75 -13.4253 18.9822
      vertex -15.5 -0.00186301 18.9835
    endloop
  endfacet
  facet normal 0.707107 0.408192 0.57739
    outer loop
      vertex -17.5 -0.00209761 21.433
      vertex -8.75 -15.1575 21.4316
      vertex -7.75 -13.4253 18.9822
    endloop
  endfacet
  facet normal 0.707107 -0.680395 -0.192517
    outer loop
      vertex -15.5 -17.8985 6.3261
      vertex -7.75 -13.4253 18.9822
      vertex -8.75 -15.1575 21.4316
    endloop
  endfacet
  facet normal -0.707108 -0.408192 -0.577389
    outer loop
      vertex 8.75 15.1575 -21.4316
      vertex 17.5 0.00209761 -21.433
      vertex 15.5 0.00186301 -18.9835
    endloop
  endfacet
  facet normal 0.235701 -0.952598 0.192357
    outer loop
      vertex 15.5 0.00186301 -18.9835
      vertex 17.5 0.00209761 -21.433
      vertex 23.25 4.47508 -6.32741
    endloop
  endfacet
  facet normal 0.235702 -0.952598 0.192357
    outer loop
      vertex 17.5 0.00209761 -21.433
      vertex 26.25 5.05251 -7.14385
      vertex 23.25 4.47508 -6.32741
    endloop
  endfacet
  facet normal 0.707107 0.408305 -0.57731
    outer loop
      vertex 8.75 15.1575 -21.4316
      vertex 17.5 20.208 -7.14237
      vertex 26.25 5.05251 -7.14385
    endloop
  endfacet
  facet normal 0.707107 0.408305 -0.57731
    outer loop
      vertex 17.5 0.00209761 -21.433
      vertex 8.75 15.1575 -21.4316
      vertex 26.25 5.05251 -7.14385
    endloop
  endfacet
  facet normal -0.707107 -0.408192 -0.57739
    outer loop
      vertex 7.75 13.4253 -18.9822
      vertex 8.75 15.1575 -21.4316
      vertex 15.5 0.00186301 -18.9835
    endloop
  endfacet
  facet normal -0.707107 0.680395 0.192517
    outer loop
      vertex 7.75 13.4253 -18.9822
      vertex 17.5 20.208 -7.14237
      vertex 8.75 15.1575 -21.4316
    endloop
  endfacet
  facet normal -0.707107 -0.408305 0.57731
    outer loop
      vertex 15.5 0.00186301 -18.9835
      vertex 23.25 4.47508 -6.32741
      vertex 7.75 13.4253 -18.9822
    endloop
  endfacet
  facet normal -0.707107 -0.408305 0.57731
    outer loop
      vertex 7.75 13.4253 -18.9822
      vertex 23.25 4.47508 -6.32741
      vertex 15.5 17.8985 -6.3261
    endloop
  endfacet
  facet normal 0.235702 0.135989 0.962264
    outer loop
      vertex 15.5 17.8985 -6.3261
      vertex 23.25 4.47508 -6.32741
      vertex 26.25 5.05251 -7.14385
    endloop
  endfacet
  facet normal 0.235701 0.135988 0.962264
    outer loop
      vertex 15.5 17.8985 -6.3261
      vertex 26.25 5.05251 -7.14385
      vertex 17.5 20.208 -7.14237
    endloop
  endfacet
  facet normal -0.707107 0.680394 0.192518
    outer loop
      vertex 7.75 13.4253 -18.9822
      vertex 15.5 17.8985 -6.3261
      vertex 17.5 20.208 -7.14237
    endloop
  endfacet
  facet normal -0.707107 -0.680395 -0.192517
    outer loop
      vertex 7.75 -13.4253 18.9822
      vertex 17.5 -20.208 7.14237
      vertex 8.75 -15.1575 21.4316
    endloop
  endfacet
  facet normal -0.707107 0.408192 0.57739
    outer loop
      vertex 7.75 -13.4253 18.9822
      vertex 8.75 -15.1575 21.4316
      vertex 15.5 -0.00186301 18.9835
    endloop
  endfacet
  facet normal -0.707108 0.408192 0.577389
    outer loop
      vertex 8.75 -15.1575 21.4316
      vertex 17.5 -0.00209761 21.433
      vertex 15.5 -0.00186301 18.9835
    endloop
  endfacet
  facet normal 0.707107 -0.408305 0.57731
    outer loop
      vertex 8.75 -15.1575 21.4316
      vertex 17.5 -20.208 7.14237
      vertex 26.25 -5.05251 7.14385
    endloop
  endfacet
  facet normal 0.707107 -0.408305 0.57731
    outer loop
      vertex 17.5 -0.00209761 21.433
      vertex 8.75 -15.1575 21.4316
      vertex 26.25 -5.05251 7.14385
    endloop
  endfacet
  facet normal -0.707107 -0.680394 -0.192518
    outer loop
      vertex 7.75 -13.4253 18.9822
      vertex 15.5 -17.8985 6.3261
      vertex 17.5 -20.208 7.14237
    endloop
  endfacet
  facet normal -0.707107 0.408305 -0.57731
    outer loop
      vertex 15.5 -0.00186301 18.9835
      vertex 23.25 -4.47508 6.32741
      vertex 7.75 -13.4253 18.9822
    endloop
  endfacet
  facet normal -0.707107 0.408305 -0.57731
    outer loop
      vertex 7.75 -13.4253 18.9822
      vertex 23.25 -4.47508 6.32741
      vertex 15.5 -17.8985 6.3261
    endloop
  endfacet
  facet normal 0.235701 -0.135988 -0.962264
    outer loop
      vertex 15.5 -17.8985 6.3261
      vertex 26.25 -5.05251 7.14385
      vertex 17.5 -20.208 7.14237
    endloop
  endfacet
  facet normal 0.235701 0.952598 -0.192357
    outer loop
      vertex 15.5 -0.00186301 18.9835
      vertex 17.5 -0.00209761 21.433
      vertex 23.25 -4.47508 6.32741
    endloop
  endfacet
  facet normal 0.235702 0.952598 -0.192357
    outer loop
      vertex 17.5 -0.00209761 21.433
      vertex 26.25 -5.05251 7.14385
      vertex 23.25 -4.47508 6.32741
    endloop
  endfacet
  facet normal 0.235702 -0.135989 -0.962264
    outer loop
      vertex 15.5 -17.8985 6.3261
      vertex 23.25 -4.47508 6.32741
      vertex 26.25 -5.05251 7.14385
    endloop
  endfacet
  facet normal 0.707107 -0.408192 -0.57739
    outer loop
      vertex -17.5 0.00209761 -21.433
      vertex -8.75 15.1575 -21.4316
      vertex -7.75 13.4253 -18.9822
    endloop
  endfacet
  facet normal 0.707107 0.680395 0.192517
    outer loop
      vertex -15.5 17.8985 -6.3261
      vertex -7.75 13.4253 -18.9822
      vertex -8.75 15.1575 -21.4316
    endloop
  endfacet
  facet normal 0.707108 0.680394 0.192517
    outer loop
      vertex -17.5 20.208 -7.14237
      vertex -15.5 17.8985 -6.3261
      vertex -8.75 15.1575 -21.4316
    endloop
  endfacet
  facet normal -0.707107 0.408305 -0.57731
    outer loop
      vertex -17.5 20.208 -7.14237
      vertex -8.75 15.1575 -21.4316
      vertex -26.25 5.05251 -7.14385
    endloop
  endfacet
  facet normal -0.707107 0.408305 -0.57731
    outer loop
      vertex -26.25 5.05251 -7.14385
      vertex -8.75 15.1575 -21.4316
      vertex -17.5 0.00209761 -21.433
    endloop
  endfacet
  facet normal 0.707107 -0.408192 -0.577389
    outer loop
      vertex -17.5 0.00209761 -21.433
      vertex -7.75 13.4253 -18.9822
      vertex -15.5 0.00186301 -18.9835
    endloop
  endfacet
  facet normal -0.235701 -0.952598 0.192358
    outer loop
      vertex -26.25 5.05251 -7.14385
      vertex -17.5 0.00209761 -21.433
      vertex -15.5 0.00186301 -18.9835
    endloop
  endfacet
  facet normal 0.707107 -0.408305 0.57731
    outer loop
      vertex -23.25 4.47508 -6.32741
      vertex -15.5 0.00186301 -18.9835
      vertex -7.75 13.4253 -18.9822
    endloop
  endfacet
  facet normal 0.707107 -0.408305 0.57731
    outer loop
      vertex -15.5 17.8985 -6.3261
      vertex -23.25 4.47508 -6.32741
      vertex -7.75 13.4253 -18.9822
    endloop
  endfacet
  facet normal -0.235701 0.135988 0.962264
    outer loop
      vertex -23.25 4.47508 -6.32741
      vertex -15.5 17.8985 -6.3261
      vertex -17.5 20.208 -7.14237
    endloop
  endfacet
  facet normal -0.235702 0.135988 0.962264
    outer loop
      vertex -26.25 5.05251 -7.14385
      vertex -23.25 4.47508 -6.32741
      vertex -17.5 20.208 -7.14237
    endloop
  endfacet
  facet normal -0.235702 -0.952598 0.192357
    outer loop
      vertex -26.25 5.05251 -7.14385
      vertex -15.5 0.00186301 -18.9835
      vertex -23.25 4.47508 -6.32741
    endloop
  endfacet
endsolid OpenSCAD_Model
