solid OpenSCAD_Model
  facet normal -0.75746 0.43732 0.484774
    outer loop
      vertex -36.6 -18.5685 0
      vertex -43.2 -30 0
      vertex -35.8 -19.9541 2.5
    endloop
  endfacet
  facet normal -0.75746 0.43732 0.484774
    outer loop
      vertex -35.8 -19.9541 2.5
      vertex -43.2 -30 0
      vertex -41.6 -30 2.5
    endloop
  endfacet
  facet normal -0.75746 -0.43732 0.484774
    outer loop
      vertex -41.6 -30 2.5
      vertex -43.2 -30 0
      vertex -36.6 -41.4315 0
    endloop
  endfacet
  facet normal -0 0 -1
    outer loop
      vertex -43.2 -30 0
      vertex -36.6 -18.5685 0
      vertex -36.6 -41.4315 0
    endloop
  endfacet
  facet normal 0 -0 -1
    outer loop
      vertex -36.6 -41.4315 0
      vertex -36.6 -18.5685 0
      vertex -23.4 -18.5685 0
    endloop
  endfacet
  facet normal 0 0 -1
    outer loop
      vertex -36.6 -41.4315 0
      vertex -23.4 -18.5685 0
      vertex -16.8 -30 0
    endloop
  endfacet
  facet normal -0 0 -1
    outer loop
      vertex -36.6 -41.4315 0
      vertex -16.8 -30 0
      vertex -23.4 -41.4315 0
    endloop
  endfacet
  facet normal 0 0.874639 0.484774
    outer loop
      vertex -36.6 -18.5685 0
      vertex -35.8 -19.9541 2.5
      vertex -23.4 -18.5685 0
    endloop
  endfacet
  facet normal 0 0.874639 0.484774
    outer loop
      vertex -23.4 -18.5685 0
      vertex -35.8 -19.9541 2.5
      vertex -24.2 -19.9541 2.5
    endloop
  endfacet
  facet normal 0 0 1
    outer loop
      vertex -35.8 -19.9541 2.5
      vertex -41.6 -30 2.5
      vertex -35.8 -40.0459 2.5
    endloop
  endfacet
  facet normal -0 0 1
    outer loop
      vertex -18.4 -30 2.5
      vertex -35.8 -19.9541 2.5
      vertex -24.2 -40.0459 2.5
    endloop
  endfacet
  facet normal -0 0 1
    outer loop
      vertex -24.2 -40.0459 2.5
      vertex -35.8 -19.9541 2.5
      vertex -35.8 -40.0459 2.5
    endloop
  endfacet
  facet normal 0 -0 1
    outer loop
      vertex -24.2 -19.9541 2.5
      vertex -35.8 -19.9541 2.5
      vertex -18.4 -30 2.5
    endloop
  endfacet
  facet normal -0.75746 -0.43732 0.484774
    outer loop
      vertex -35.8 -40.0459 2.5
      vertex -41.6 -30 2.5
      vertex -36.6 -41.4315 0
    endloop
  endfacet
  facet normal 0 -0.874639 0.484774
    outer loop
      vertex -35.8 -40.0459 2.5
      vertex -36.6 -41.4315 0
      vertex -23.4 -41.4315 0
    endloop
  endfacet
  facet normal 0 -0.874639 0.484774
    outer loop
      vertex -24.2 -40.0459 2.5
      vertex -35.8 -40.0459 2.5
      vertex -23.4 -41.4315 0
    endloop
  endfacet
  facet normal 0.75746 -0.43732 0.484774
    outer loop
      vertex -16.8 -30 0
      vertex -24.2 -40.0459 2.5
      vertex -23.4 -41.4315 0
    endloop
  endfacet
  facet normal 0.75746 0.43732 0.484774
    outer loop
      vertex -16.8 -30 0
      vertex -23.4 -18.5685 0
      vertex -18.4 -30 2.5
    endloop
  endfacet
  facet normal 0.75746 -0.43732 0.484774
    outer loop
      vertex -18.4 -30 2.5
      vertex -24.2 -40.0459 2.5
      vertex -16.8 -30 0
    endloop
  endfacet
  facet normal 0.75746 0.43732 0.484774
    outer loop
      vertex -23.4 -18.5685 0
      vertex -24.2 -19.9541 2.5
      vertex -18.4 -30 2.5
    endloop
  endfacet
  facet normal -0.75746 0.43732 0.484774
    outer loop
      vertex -6.6 -18.5685 0
      vertex -13.2 -30 0
      vertex -5.8 -19.9541 2.5
    endloop
  endfacet
  facet normal -0.75746 0.43732 0.484774
    outer loop
      vertex -5.8 -19.9541 2.5
      vertex -13.2 -30 0
      vertex -11.6 -30 2.5
    endloop
  endfacet
  facet normal -0.75746 -0.43732 0.484774
    outer loop
      vertex -11.6 -30 2.5
      vertex -13.2 -30 0
      vertex -6.6 -41.4315 0
    endloop
  endfacet
  facet normal -0 0 -1
    outer loop
      vertex -13.2 -30 0
      vertex -6.6 -18.5685 0
      vertex -6.6 -41.4315 0
    endloop
  endfacet
  facet normal 0 -0 -1
    outer loop
      vertex -6.6 -41.4315 0
      vertex -6.6 -18.5685 0
      vertex 6.6 -18.5685 0
    endloop
  endfacet
  facet normal 0 0 -1
    outer loop
      vertex -6.6 -41.4315 0
      vertex 6.6 -18.5685 0
      vertex 13.2 -30 0
    endloop
  endfacet
  facet normal -0 0 -1
    outer loop
      vertex -6.6 -41.4315 0
      vertex 13.2 -30 0
      vertex 6.6 -41.4315 0
    endloop
  endfacet
  facet normal 0 0.874639 0.484774
    outer loop
      vertex -6.6 -18.5685 0
      vertex -5.8 -19.9541 2.5
      vertex 6.6 -18.5685 0
    endloop
  endfacet
  facet normal 0 0.874639 0.484774
    outer loop
      vertex 6.6 -18.5685 0
      vertex -5.8 -19.9541 2.5
      vertex 5.8 -19.9541 2.5
    endloop
  endfacet
  facet normal 0 0 1
    outer loop
      vertex -5.8 -19.9541 2.5
      vertex -11.6 -30 2.5
      vertex -5.8 -40.0459 2.5
    endloop
  endfacet
  facet normal -0 0 1
    outer loop
      vertex 11.6 -30 2.5
      vertex -5.8 -19.9541 2.5
      vertex 5.8 -40.0459 2.5
    endloop
  endfacet
  facet normal -0 0 1
    outer loop
      vertex 5.8 -40.0459 2.5
      vertex -5.8 -19.9541 2.5
      vertex -5.8 -40.0459 2.5
    endloop
  endfacet
  facet normal 0 -0 1
    outer loop
      vertex 5.8 -19.9541 2.5
      vertex -5.8 -19.9541 2.5
      vertex 11.6 -30 2.5
    endloop
  endfacet
  facet normal -0.75746 -0.43732 0.484774
    outer loop
      vertex -5.8 -40.0459 2.5
      vertex -11.6 -30 2.5
      vertex -6.6 -41.4315 0
    endloop
  endfacet
  facet normal 0 -0.874639 0.484774
    outer loop
      vertex -5.8 -40.0459 2.5
      vertex -6.6 -41.4315 0
      vertex 6.6 -41.4315 0
    endloop
  endfacet
  facet normal 0 -0.874639 0.484774
    outer loop
      vertex 5.8 -40.0459 2.5
      vertex -5.8 -40.0459 2.5
      vertex 6.6 -41.4315 0
    endloop
  endfacet
  facet normal 0.75746 -0.43732 0.484774
    outer loop
      vertex 13.2 -30 0
      vertex 5.8 -40.0459 2.5
      vertex 6.6 -41.4315 0
    endloop
  endfacet
  facet normal 0.75746 0.43732 0.484774
    outer loop
      vertex 13.2 -30 0
      vertex 6.6 -18.5685 0
      vertex 11.6 -30 2.5
    endloop
  endfacet
  facet normal 0.75746 -0.43732 0.484774
    outer loop
      vertex 11.6 -30 2.5
      vertex 5.8 -40.0459 2.5
      vertex 13.2 -30 0
    endloop
  endfacet
  facet normal 0.75746 0.43732 0.484774
    outer loop
      vertex 6.6 -18.5685 0
      vertex 5.8 -19.9541 2.5
      vertex 11.6 -30 2.5
    endloop
  endfacet
  facet normal -0.75746 0.43732 0.484774
    outer loop
      vertex 23.4 -18.5685 0
      vertex 16.8 -30 0
      vertex 24.2 -19.9541 2.5
    endloop
  endfacet
  facet normal -0.75746 0.43732 0.484774
    outer loop
      vertex 24.2 -19.9541 2.5
      vertex 16.8 -30 0
      vertex 18.4 -30 2.5
    endloop
  endfacet
  facet normal -0.75746 -0.43732 0.484774
    outer loop
      vertex 18.4 -30 2.5
      vertex 16.8 -30 0
      vertex 23.4 -41.4315 0
    endloop
  endfacet
  facet normal -0 0 -1
    outer loop
      vertex 16.8 -30 0
      vertex 23.4 -18.5685 0
      vertex 23.4 -41.4315 0
    endloop
  endfacet
  facet normal 0 -0 -1
    outer loop
      vertex 23.4 -41.4315 0
      vertex 23.4 -18.5685 0
      vertex 36.6 -18.5685 0
    endloop
  endfacet
  facet normal 0 0 -1
    outer loop
      vertex 23.4 -41.4315 0
      vertex 36.6 -18.5685 0
      vertex 43.2 -30 0
    endloop
  endfacet
  facet normal -0 0 -1
    outer loop
      vertex 23.4 -41.4315 0
      vertex 43.2 -30 0
      vertex 36.6 -41.4315 0
    endloop
  endfacet
  facet normal 0 0.874639 0.484774
    outer loop
      vertex 23.4 -18.5685 0
      vertex 24.2 -19.9541 2.5
      vertex 36.6 -18.5685 0
    endloop
  endfacet
  facet normal 0 0.874639 0.484774
    outer loop
      vertex 36.6 -18.5685 0
      vertex 24.2 -19.9541 2.5
      vertex 35.8 -19.9541 2.5
    endloop
  endfacet
  facet normal 0 0 1
    outer loop
      vertex 24.2 -19.9541 2.5
      vertex 18.4 -30 2.5
      vertex 24.2 -40.0459 2.5
    endloop
  endfacet
  facet normal -0 0 1
    outer loop
      vertex 41.6 -30 2.5
      vertex 24.2 -19.9541 2.5
      vertex 35.8 -40.0459 2.5
    endloop
  endfacet
  facet normal -0 0 1
    outer loop
      vertex 35.8 -40.0459 2.5
      vertex 24.2 -19.9541 2.5
      vertex 24.2 -40.0459 2.5
    endloop
  endfacet
  facet normal 0 -0 1
    outer loop
      vertex 35.8 -19.9541 2.5
      vertex 24.2 -19.9541 2.5
      vertex 41.6 -30 2.5
    endloop
  endfacet
  facet normal -0.75746 -0.43732 0.484774
    outer loop
      vertex 24.2 -40.0459 2.5
      vertex 18.4 -30 2.5
      vertex 23.4 -41.4315 0
    endloop
  endfacet
  facet normal 0 -0.874639 0.484774
    outer loop
      vertex 24.2 -40.0459 2.5
      vertex 23.4 -41.4315 0
      vertex 36.6 -41.4315 0
    endloop
  endfacet
  facet normal 0 -0.874639 0.484774
    outer loop
      vertex 35.8 -40.0459 2.5
      vertex 24.2 -40.0459 2.5
      vertex 36.6 -41.4315 0
    endloop
  endfacet
  facet normal 0.75746 -0.43732 0.484774
    outer loop
      vertex 43.2 -30 0
      vertex 35.8 -40.0459 2.5
      vertex 36.6 -41.4315 0
    endloop
  endfacet
  facet normal 0.75746 0.43732 0.484774
    outer loop
      vertex 43.2 -30 0
      vertex 36.6 -18.5685 0
      vertex 41.6 -30 2.5
    endloop
  endfacet
  facet normal 0.75746 -0.43732 0.484774
    outer loop
      vertex 41.6 -30 2.5
      vertex 35.8 -40.0459 2.5
      vertex 43.2 -30 0
    endloop
  endfacet
  facet normal 0.75746 0.43732 0.484774
    outer loop
      vertex 36.6 -18.5685 0
      vertex 35.8 -19.9541 2.5
      vertex 41.6 -30 2.5
    endloop
  endfacet
  facet normal -0.75746 0.43732 0.484774
    outer loop
      vertex -36.6 11.4315 0
      vertex -43.2 0 0
      vertex -35.8 10.0459 2.5
    endloop
  endfacet
  facet normal -0.75746 0.43732 0.484774
    outer loop
      vertex -35.8 10.0459 2.5
      vertex -43.2 0 0
      vertex -41.6 0 2.5
    endloop
  endfacet
  facet normal -0.75746 -0.43732 0.484774
    outer loop
      vertex -41.6 0 2.5
      vertex -43.2 0 0
      vertex -36.6 -11.4315 0
    endloop
  endfacet
  facet normal -0 0 -1
    outer loop
      vertex -43.2 0 0
      vertex -36.6 11.4315 0
      vertex -36.6 -11.4315 0
    endloop
  endfacet
  facet normal 0 -0 -1
    outer loop
      vertex -36.6 -11.4315 0
      vertex -36.6 11.4315 0
      vertex -23.4 11.4315 0
    endloop
  endfacet
  facet normal 0 0 -1
    outer loop
      vertex -36.6 -11.4315 0
      vertex -23.4 11.4315 0
      vertex -16.8 0 0
    endloop
  endfacet
  facet normal -0 0 -1
    outer loop
      vertex -36.6 -11.4315 0
      vertex -16.8 0 0
      vertex -23.4 -11.4315 0
    endloop
  endfacet
  facet normal 0 0.874639 0.484774
    outer loop
      vertex -36.6 11.4315 0
      vertex -35.8 10.0459 2.5
      vertex -23.4 11.4315 0
    endloop
  endfacet
  facet normal 0 0.874639 0.484774
    outer loop
      vertex -23.4 11.4315 0
      vertex -35.8 10.0459 2.5
      vertex -24.2 10.0459 2.5
    endloop
  endfacet
  facet normal 0 0 1
    outer loop
      vertex -35.8 10.0459 2.5
      vertex -41.6 0 2.5
      vertex -35.8 -10.0459 2.5
    endloop
  endfacet
  facet normal -0 0 1
    outer loop
      vertex -18.4 0 2.5
      vertex -35.8 10.0459 2.5
      vertex -24.2 -10.0459 2.5
    endloop
  endfacet
  facet normal -0 0 1
    outer loop
      vertex -24.2 -10.0459 2.5
      vertex -35.8 10.0459 2.5
      vertex -35.8 -10.0459 2.5
    endloop
  endfacet
  facet normal 0 -0 1
    outer loop
      vertex -24.2 10.0459 2.5
      vertex -35.8 10.0459 2.5
      vertex -18.4 0 2.5
    endloop
  endfacet
  facet normal -0.75746 -0.43732 0.484774
    outer loop
      vertex -35.8 -10.0459 2.5
      vertex -41.6 0 2.5
      vertex -36.6 -11.4315 0
    endloop
  endfacet
  facet normal 0 -0.874639 0.484774
    outer loop
      vertex -35.8 -10.0459 2.5
      vertex -36.6 -11.4315 0
      vertex -23.4 -11.4315 0
    endloop
  endfacet
  facet normal 0 -0.874639 0.484774
    outer loop
      vertex -24.2 -10.0459 2.5
      vertex -35.8 -10.0459 2.5
      vertex -23.4 -11.4315 0
    endloop
  endfacet
  facet normal 0.75746 -0.43732 0.484774
    outer loop
      vertex -16.8 0 0
      vertex -24.2 -10.0459 2.5
      vertex -23.4 -11.4315 0
    endloop
  endfacet
  facet normal 0.75746 0.43732 0.484774
    outer loop
      vertex -16.8 0 0
      vertex -23.4 11.4315 0
      vertex -18.4 0 2.5
    endloop
  endfacet
  facet normal 0.75746 -0.43732 0.484774
    outer loop
      vertex -18.4 0 2.5
      vertex -24.2 -10.0459 2.5
      vertex -16.8 0 0
    endloop
  endfacet
  facet normal 0.75746 0.43732 0.484774
    outer loop
      vertex -23.4 11.4315 0
      vertex -24.2 10.0459 2.5
      vertex -18.4 0 2.5
    endloop
  endfacet
  facet normal -0.75746 0.43732 0.484774
    outer loop
      vertex -6.6 11.4315 0
      vertex -13.2 0 0
      vertex -5.8 10.0459 2.5
    endloop
  endfacet
  facet normal -0.75746 0.43732 0.484774
    outer loop
      vertex -5.8 10.0459 2.5
      vertex -13.2 0 0
      vertex -11.6 0 2.5
    endloop
  endfacet
  facet normal -0.75746 -0.43732 0.484774
    outer loop
      vertex -11.6 0 2.5
      vertex -13.2 0 0
      vertex -6.6 -11.4315 0
    endloop
  endfacet
  facet normal -0 0 -1
    outer loop
      vertex -13.2 0 0
      vertex -6.6 11.4315 0
      vertex -6.6 -11.4315 0
    endloop
  endfacet
  facet normal 0 -0 -1
    outer loop
      vertex -6.6 -11.4315 0
      vertex -6.6 11.4315 0
      vertex 6.6 11.4315 0
    endloop
  endfacet
  facet normal 0 0 -1
    outer loop
      vertex -6.6 -11.4315 0
      vertex 6.6 11.4315 0
      vertex 13.2 0 0
    endloop
  endfacet
  facet normal -0 0 -1
    outer loop
      vertex -6.6 -11.4315 0
      vertex 13.2 0 0
      vertex 6.6 -11.4315 0
    endloop
  endfacet
  facet normal 0 0.874639 0.484774
    outer loop
      vertex -6.6 11.4315 0
      vertex -5.8 10.0459 2.5
      vertex 6.6 11.4315 0
    endloop
  endfacet
  facet normal 0 0.874639 0.484774
    outer loop
      vertex 6.6 11.4315 0
      vertex -5.8 10.0459 2.5
      vertex 5.8 10.0459 2.5
    endloop
  endfacet
  facet normal 0 0 1
    outer loop
      vertex -5.8 10.0459 2.5
      vertex -11.6 0 2.5
      vertex -5.8 -10.0459 2.5
    endloop
  endfacet
  facet normal -0 0 1
    outer loop
      vertex 11.6 0 2.5
      vertex -5.8 10.0459 2.5
      vertex 5.8 -10.0459 2.5
    endloop
  endfacet
  facet normal -0 0 1
    outer loop
      vertex 5.8 -10.0459 2.5
      vertex -5.8 10.0459 2.5
      vertex -5.8 -10.0459 2.5
    endloop
  endfacet
  facet normal 0 -0 1
    outer loop
      vertex 5.8 10.0459 2.5
      vertex -5.8 10.0459 2.5
      vertex 11.6 0 2.5
    endloop
  endfacet
  facet normal -0.75746 -0.43732 0.484774
    outer loop
      vertex -5.8 -10.0459 2.5
      vertex -11.6 0 2.5
      vertex -6.6 -11.4315 0
    endloop
  endfacet
  facet normal 0 -0.874639 0.484774
    outer loop
      vertex -5.8 -10.0459 2.5
      vertex -6.6 -11.4315 0
      vertex 6.6 -11.4315 0
    endloop
  endfacet
  facet normal 0 -0.874639 0.484774
    outer loop
      vertex 5.8 -10.0459 2.5
      vertex -5.8 -10.0459 2.5
      vertex 6.6 -11.4315 0
    endloop
  endfacet
  facet normal 0.75746 -0.43732 0.484774
    outer loop
      vertex 13.2 0 0
      vertex 5.8 -10.0459 2.5
      vertex 6.6 -11.4315 0
    endloop
  endfacet
  facet normal 0.75746 0.43732 0.484774
    outer loop
      vertex 13.2 0 0
      vertex 6.6 11.4315 0
      vertex 11.6 0 2.5
    endloop
  endfacet
  facet normal 0.75746 -0.43732 0.484774
    outer loop
      vertex 11.6 0 2.5
      vertex 5.8 -10.0459 2.5
      vertex 13.2 0 0
    endloop
  endfacet
  facet normal 0.75746 0.43732 0.484774
    outer loop
      vertex 6.6 11.4315 0
      vertex 5.8 10.0459 2.5
      vertex 11.6 0 2.5
    endloop
  endfacet
  facet normal -0.75746 0.43732 0.484774
    outer loop
      vertex 23.4 11.4315 0
      vertex 16.8 0 0
      vertex 24.2 10.0459 2.5
    endloop
  endfacet
  facet normal -0.75746 0.43732 0.484774
    outer loop
      vertex 24.2 10.0459 2.5
      vertex 16.8 0 0
      vertex 18.4 0 2.5
    endloop
  endfacet
  facet normal -0.75746 -0.43732 0.484774
    outer loop
      vertex 18.4 0 2.5
      vertex 16.8 0 0
      vertex 23.4 -11.4315 0
    endloop
  endfacet
  facet normal -0 0 -1
    outer loop
      vertex 16.8 0 0
      vertex 23.4 11.4315 0
      vertex 23.4 -11.4315 0
    endloop
  endfacet
  facet normal 0 -0 -1
    outer loop
      vertex 23.4 -11.4315 0
      vertex 23.4 11.4315 0
      vertex 36.6 11.4315 0
    endloop
  endfacet
  facet normal 0 0 -1
    outer loop
      vertex 23.4 -11.4315 0
      vertex 36.6 11.4315 0
      vertex 43.2 0 0
    endloop
  endfacet
  facet normal -0 0 -1
    outer loop
      vertex 23.4 -11.4315 0
      vertex 43.2 0 0
      vertex 36.6 -11.4315 0
    endloop
  endfacet
  facet normal 0 0.874639 0.484774
    outer loop
      vertex 23.4 11.4315 0
      vertex 24.2 10.0459 2.5
      vertex 36.6 11.4315 0
    endloop
  endfacet
  facet normal 0 0.874639 0.484774
    outer loop
      vertex 36.6 11.4315 0
      vertex 24.2 10.0459 2.5
      vertex 35.8 10.0459 2.5
    endloop
  endfacet
  facet normal 0 0 1
    outer loop
      vertex 24.2 10.0459 2.5
      vertex 18.4 0 2.5
      vertex 24.2 -10.0459 2.5
    endloop
  endfacet
  facet normal -0 0 1
    outer loop
      vertex 41.6 0 2.5
      vertex 24.2 10.0459 2.5
      vertex 35.8 -10.0459 2.5
    endloop
  endfacet
  facet normal -0 0 1
    outer loop
      vertex 35.8 -10.0459 2.5
      vertex 24.2 10.0459 2.5
      vertex 24.2 -10.0459 2.5
    endloop
  endfacet
  facet normal 0 -0 1
    outer loop
      vertex 35.8 10.0459 2.5
      vertex 24.2 10.0459 2.5
      vertex 41.6 0 2.5
    endloop
  endfacet
  facet normal -0.75746 -0.43732 0.484774
    outer loop
      vertex 24.2 -10.0459 2.5
      vertex 18.4 0 2.5
      vertex 23.4 -11.4315 0
    endloop
  endfacet
  facet normal 0 -0.874639 0.484774
    outer loop
      vertex 24.2 -10.0459 2.5
      vertex 23.4 -11.4315 0
      vertex 36.6 -11.4315 0
    endloop
  endfacet
  facet normal 0 -0.874639 0.484774
    outer loop
      vertex 35.8 -10.0459 2.5
      vertex 24.2 -10.0459 2.5
      vertex 36.6 -11.4315 0
    endloop
  endfacet
  facet normal 0.75746 -0.43732 0.484774
    outer loop
      vertex 43.2 0 0
      vertex 35.8 -10.0459 2.5
      vertex 36.6 -11.4315 0
    endloop
  endfacet
  facet normal 0.75746 0.43732 0.484774
    outer loop
      vertex 43.2 0 0
      vertex 36.6 11.4315 0
      vertex 41.6 0 2.5
    endloop
  endfacet
  facet normal 0.75746 -0.43732 0.484774
    outer loop
      vertex 41.6 0 2.5
      vertex 35.8 -10.0459 2.5
      vertex 43.2 0 0
    endloop
  endfacet
  facet normal 0.75746 0.43732 0.484774
    outer loop
      vertex 36.6 11.4315 0
      vertex 35.8 10.0459 2.5
      vertex 41.6 0 2.5
    endloop
  endfacet
  facet normal -0.75746 0.43732 0.484774
    outer loop
      vertex -36.6 41.4315 0
      vertex -43.2 30 0
      vertex -35.8 40.0459 2.5
    endloop
  endfacet
  facet normal -0.75746 0.43732 0.484774
    outer loop
      vertex -35.8 40.0459 2.5
      vertex -43.2 30 0
      vertex -41.6 30 2.5
    endloop
  endfacet
  facet normal -0.75746 -0.43732 0.484774
    outer loop
      vertex -41.6 30 2.5
      vertex -43.2 30 0
      vertex -36.6 18.5685 0
    endloop
  endfacet
  facet normal -0 0 -1
    outer loop
      vertex -43.2 30 0
      vertex -36.6 41.4315 0
      vertex -36.6 18.5685 0
    endloop
  endfacet
  facet normal 0 -0 -1
    outer loop
      vertex -36.6 18.5685 0
      vertex -36.6 41.4315 0
      vertex -23.4 41.4315 0
    endloop
  endfacet
  facet normal 0 0 -1
    outer loop
      vertex -36.6 18.5685 0
      vertex -23.4 41.4315 0
      vertex -16.8 30 0
    endloop
  endfacet
  facet normal -0 0 -1
    outer loop
      vertex -36.6 18.5685 0
      vertex -16.8 30 0
      vertex -23.4 18.5685 0
    endloop
  endfacet
  facet normal 0 0.874639 0.484774
    outer loop
      vertex -36.6 41.4315 0
      vertex -35.8 40.0459 2.5
      vertex -23.4 41.4315 0
    endloop
  endfacet
  facet normal 0 0.874639 0.484774
    outer loop
      vertex -23.4 41.4315 0
      vertex -35.8 40.0459 2.5
      vertex -24.2 40.0459 2.5
    endloop
  endfacet
  facet normal 0 0 1
    outer loop
      vertex -35.8 40.0459 2.5
      vertex -41.6 30 2.5
      vertex -35.8 19.9541 2.5
    endloop
  endfacet
  facet normal -0 0 1
    outer loop
      vertex -18.4 30 2.5
      vertex -35.8 40.0459 2.5
      vertex -24.2 19.9541 2.5
    endloop
  endfacet
  facet normal -0 0 1
    outer loop
      vertex -24.2 19.9541 2.5
      vertex -35.8 40.0459 2.5
      vertex -35.8 19.9541 2.5
    endloop
  endfacet
  facet normal 0 -0 1
    outer loop
      vertex -24.2 40.0459 2.5
      vertex -35.8 40.0459 2.5
      vertex -18.4 30 2.5
    endloop
  endfacet
  facet normal -0.75746 -0.43732 0.484774
    outer loop
      vertex -35.8 19.9541 2.5
      vertex -41.6 30 2.5
      vertex -36.6 18.5685 0
    endloop
  endfacet
  facet normal 0 -0.874639 0.484774
    outer loop
      vertex -35.8 19.9541 2.5
      vertex -36.6 18.5685 0
      vertex -23.4 18.5685 0
    endloop
  endfacet
  facet normal 0 -0.874639 0.484774
    outer loop
      vertex -24.2 19.9541 2.5
      vertex -35.8 19.9541 2.5
      vertex -23.4 18.5685 0
    endloop
  endfacet
  facet normal 0.75746 -0.43732 0.484774
    outer loop
      vertex -16.8 30 0
      vertex -24.2 19.9541 2.5
      vertex -23.4 18.5685 0
    endloop
  endfacet
  facet normal 0.75746 0.43732 0.484774
    outer loop
      vertex -16.8 30 0
      vertex -23.4 41.4315 0
      vertex -18.4 30 2.5
    endloop
  endfacet
  facet normal 0.75746 -0.43732 0.484774
    outer loop
      vertex -18.4 30 2.5
      vertex -24.2 19.9541 2.5
      vertex -16.8 30 0
    endloop
  endfacet
  facet normal 0.75746 0.43732 0.484774
    outer loop
      vertex -23.4 41.4315 0
      vertex -24.2 40.0459 2.5
      vertex -18.4 30 2.5
    endloop
  endfacet
  facet normal -0.75746 0.43732 0.484774
    outer loop
      vertex -6.6 41.4315 0
      vertex -13.2 30 0
      vertex -5.8 40.0459 2.5
    endloop
  endfacet
  facet normal -0.75746 0.43732 0.484774
    outer loop
      vertex -5.8 40.0459 2.5
      vertex -13.2 30 0
      vertex -11.6 30 2.5
    endloop
  endfacet
  facet normal -0.75746 -0.43732 0.484774
    outer loop
      vertex -11.6 30 2.5
      vertex -13.2 30 0
      vertex -6.6 18.5685 0
    endloop
  endfacet
  facet normal -0 0 -1
    outer loop
      vertex -13.2 30 0
      vertex -6.6 41.4315 0
      vertex -6.6 18.5685 0
    endloop
  endfacet
  facet normal 0 -0 -1
    outer loop
      vertex -6.6 18.5685 0
      vertex -6.6 41.4315 0
      vertex 6.6 41.4315 0
    endloop
  endfacet
  facet normal 0 0 -1
    outer loop
      vertex -6.6 18.5685 0
      vertex 6.6 41.4315 0
      vertex 13.2 30 0
    endloop
  endfacet
  facet normal -0 0 -1
    outer loop
      vertex -6.6 18.5685 0
      vertex 13.2 30 0
      vertex 6.6 18.5685 0
    endloop
  endfacet
  facet normal 0 0.874639 0.484774
    outer loop
      vertex -6.6 41.4315 0
      vertex -5.8 40.0459 2.5
      vertex 6.6 41.4315 0
    endloop
  endfacet
  facet normal 0 0.874639 0.484774
    outer loop
      vertex 6.6 41.4315 0
      vertex -5.8 40.0459 2.5
      vertex 5.8 40.0459 2.5
    endloop
  endfacet
  facet normal 0 0 1
    outer loop
      vertex -5.8 40.0459 2.5
      vertex -11.6 30 2.5
      vertex -5.8 19.9541 2.5
    endloop
  endfacet
  facet normal -0 0 1
    outer loop
      vertex 11.6 30 2.5
      vertex -5.8 40.0459 2.5
      vertex 5.8 19.9541 2.5
    endloop
  endfacet
  facet normal -0 0 1
    outer loop
      vertex 5.8 19.9541 2.5
      vertex -5.8 40.0459 2.5
      vertex -5.8 19.9541 2.5
    endloop
  endfacet
  facet normal 0 -0 1
    outer loop
      vertex 5.8 40.0459 2.5
      vertex -5.8 40.0459 2.5
      vertex 11.6 30 2.5
    endloop
  endfacet
  facet normal -0.75746 -0.43732 0.484774
    outer loop
      vertex -5.8 19.9541 2.5
      vertex -11.6 30 2.5
      vertex -6.6 18.5685 0
    endloop
  endfacet
  facet normal 0 -0.874639 0.484774
    outer loop
      vertex -5.8 19.9541 2.5
      vertex -6.6 18.5685 0
      vertex 6.6 18.5685 0
    endloop
  endfacet
  facet normal 0 -0.874639 0.484774
    outer loop
      vertex 5.8 19.9541 2.5
      vertex -5.8 19.9541 2.5
      vertex 6.6 18.5685 0
    endloop
  endfacet
  facet normal 0.75746 -0.43732 0.484774
    outer loop
      vertex 13.2 30 0
      vertex 5.8 19.9541 2.5
      vertex 6.6 18.5685 0
    endloop
  endfacet
  facet normal 0.75746 0.43732 0.484774
    outer loop
      vertex 13.2 30 0
      vertex 6.6 41.4315 0
      vertex 11.6 30 2.5
    endloop
  endfacet
  facet normal 0.75746 -0.43732 0.484774
    outer loop
      vertex 11.6 30 2.5
      vertex 5.8 19.9541 2.5
      vertex 13.2 30 0
    endloop
  endfacet
  facet normal 0.75746 0.43732 0.484774
    outer loop
      vertex 6.6 41.4315 0
      vertex 5.8 40.0459 2.5
      vertex 11.6 30 2.5
    endloop
  endfacet
  facet normal -0.75746 0.43732 0.484774
    outer loop
      vertex 23.4 41.4315 0
      vertex 16.8 30 0
      vertex 24.2 40.0459 2.5
    endloop
  endfacet
  facet normal -0.75746 0.43732 0.484774
    outer loop
      vertex 24.2 40.0459 2.5
      vertex 16.8 30 0
      vertex 18.4 30 2.5
    endloop
  endfacet
  facet normal -0.75746 -0.43732 0.484774
    outer loop
      vertex 18.4 30 2.5
      vertex 16.8 30 0
      vertex 23.4 18.5685 0
    endloop
  endfacet
  facet normal -0 0 -1
    outer loop
      vertex 16.8 30 0
      vertex 23.4 41.4315 0
      vertex 23.4 18.5685 0
    endloop
  endfacet
  facet normal 0 -0 -1
    outer loop
      vertex 23.4 18.5685 0
      vertex 23.4 41.4315 0
      vertex 36.6 41.4315 0
    endloop
  endfacet
  facet normal 0 0 -1
    outer loop
      vertex 23.4 18.5685 0
      vertex 36.6 41.4315 0
      vertex 43.2 30 0
    endloop
  endfacet
  facet normal -0 0 -1
    outer loop
      vertex 23.4 18.5685 0
      vertex 43.2 30 0
      vertex 36.6 18.5685 0
    endloop
  endfacet
  facet normal 0 0.874639 0.484774
    outer loop
      vertex 23.4 41.4315 0
      vertex 24.2 40.0459 2.5
      vertex 36.6 41.4315 0
    endloop
  endfacet
  facet normal 0 0.874639 0.484774
    outer loop
      vertex 36.6 41.4315 0
      vertex 24.2 40.0459 2.5
      vertex 35.8 40.0459 2.5
    endloop
  endfacet
  facet normal 0 0 1
    outer loop
      vertex 24.2 40.0459 2.5
      vertex 18.4 30 2.5
      vertex 24.2 19.9541 2.5
    endloop
  endfacet
  facet normal -0 0 1
    outer loop
      vertex 41.6 30 2.5
      vertex 24.2 40.0459 2.5
      vertex 35.8 19.9541 2.5
    endloop
  endfacet
  facet normal -0 0 1
    outer loop
      vertex 35.8 19.9541 2.5
      vertex 24.2 40.0459 2.5
      vertex 24.2 19.9541 2.5
    endloop
  endfacet
  facet normal 0 -0 1
    outer loop
      vertex 35.8 40.0459 2.5
      vertex 24.2 40.0459 2.5
      vertex 41.6 30 2.5
    endloop
  endfacet
  facet normal -0.75746 -0.43732 0.484774
    outer loop
      vertex 24.2 19.9541 2.5
      vertex 18.4 30 2.5
      vertex 23.4 18.5685 0
    endloop
  endfacet
  facet normal 0 -0.874639 0.484774
    outer loop
      vertex 24.2 19.9541 2.5
      vertex 23.4 18.5685 0
      vertex 36.6 18.5685 0
    endloop
  endfacet
  facet normal 0 -0.874639 0.484774
    outer loop
      vertex 35.8 19.9541 2.5
      vertex 24.2 19.9541 2.5
      vertex 36.6 18.5685 0
    endloop
  endfacet
  facet normal 0.75746 -0.43732 0.484774
    outer loop
      vertex 43.2 30 0
      vertex 35.8 19.9541 2.5
      vertex 36.6 18.5685 0
    endloop
  endfacet
  facet normal 0.75746 0.43732 0.484774
    outer loop
      vertex 43.2 30 0
      vertex 36.6 41.4315 0
      vertex 41.6 30 2.5
    endloop
  endfacet
  facet normal 0.75746 -0.43732 0.484774
    outer loop
      vertex 41.6 30 2.5
      vertex 35.8 19.9541 2.5
      vertex 43.2 30 0
    endloop
  endfacet
  facet normal 0.75746 0.43732 0.484774
    outer loop
      vertex 36.6 41.4315 0
      vertex 35.8 40.0459 2.5
      vertex 41.6 30 2.5
    endloop
  endfacet
endsolid OpenSCAD_Model
