solid OpenSCAD_Model
  facet normal -0.660328 -0.660328 0.357678
    outer loop
      vertex -28 -20 2.4
      vertex -29.3 -20 0
      vertex -20 -29.3 0
    endloop
  endfacet
  facet normal -0.660328 -0.660328 0.357678
    outer loop
      vertex -20 -28 2.4
      vertex -28 -20 2.4
      vertex -20 -29.3 0
    endloop
  endfacet
  facet normal -0 0 -1
    outer loop
      vertex -29.3 -20 0
      vertex -20 -10.7 0
      vertex -20 -29.3 0
    endloop
  endfacet
  facet normal 0 -0 -1
    outer loop
      vertex -20 -29.3 0
      vertex -20 -10.7 0
      vertex -10.7 -20 0
    endloop
  endfacet
  facet normal -0.660328 0.660328 0.357678
    outer loop
      vertex -29.3 -20 0
      vertex -28 -20 2.4
      vertex -20 -10.7 0
    endloop
  endfacet
  facet normal -0.660328 0.660328 0.357678
    outer loop
      vertex -20 -10.7 0
      vertex -28 -20 2.4
      vertex -20 -12 2.4
    endloop
  endfacet
  facet normal 0 0 1
    outer loop
      vertex -20 -12 2.4
      vertex -28 -20 2.4
      vertex -20 -28 2.4
    endloop
  endfacet
  facet normal -0 0 1
    outer loop
      vertex -12 -20 2.4
      vertex -20 -12 2.4
      vertex -20 -28 2.4
    endloop
  endfacet
  facet normal 0.660328 -0.660328 0.357678
    outer loop
      vertex -20 -28 2.4
      vertex -20 -29.3 0
      vertex -10.7 -20 0
    endloop
  endfacet
  facet normal 0.660328 -0.660328 0.357678
    outer loop
      vertex -12 -20 2.4
      vertex -20 -28 2.4
      vertex -10.7 -20 0
    endloop
  endfacet
  facet normal 0.660328 0.660328 0.357678
    outer loop
      vertex -20 -12 2.4
      vertex -12 -20 2.4
      vertex -20 -10.7 0
    endloop
  endfacet
  facet normal 0.660328 0.660328 0.357678
    outer loop
      vertex -20 -10.7 0
      vertex -12 -20 2.4
      vertex -10.7 -20 0
    endloop
  endfacet
  facet normal -0.660328 -0.660328 0.357678
    outer loop
      vertex -8 -20 2.4
      vertex -9.3 -20 0
      vertex 0 -29.3 0
    endloop
  endfacet
  facet normal -0.660328 -0.660328 0.357678
    outer loop
      vertex 0 -28 2.4
      vertex -8 -20 2.4
      vertex 0 -29.3 0
    endloop
  endfacet
  facet normal -0 0 -1
    outer loop
      vertex -9.3 -20 0
      vertex 0 -10.7 0
      vertex 0 -29.3 0
    endloop
  endfacet
  facet normal 0 -0 -1
    outer loop
      vertex 0 -29.3 0
      vertex 0 -10.7 0
      vertex 9.3 -20 0
    endloop
  endfacet
  facet normal -0.660328 0.660328 0.357678
    outer loop
      vertex -9.3 -20 0
      vertex -8 -20 2.4
      vertex 0 -10.7 0
    endloop
  endfacet
  facet normal -0.660328 0.660328 0.357678
    outer loop
      vertex 0 -10.7 0
      vertex -8 -20 2.4
      vertex 0 -12 2.4
    endloop
  endfacet
  facet normal 0 0 1
    outer loop
      vertex 0 -12 2.4
      vertex -8 -20 2.4
      vertex 0 -28 2.4
    endloop
  endfacet
  facet normal -0 0 1
    outer loop
      vertex 8 -20 2.4
      vertex 0 -12 2.4
      vertex 0 -28 2.4
    endloop
  endfacet
  facet normal 0.660328 -0.660328 0.357678
    outer loop
      vertex 0 -28 2.4
      vertex 0 -29.3 0
      vertex 9.3 -20 0
    endloop
  endfacet
  facet normal 0.660328 -0.660328 0.357678
    outer loop
      vertex 8 -20 2.4
      vertex 0 -28 2.4
      vertex 9.3 -20 0
    endloop
  endfacet
  facet normal 0.660328 0.660328 0.357678
    outer loop
      vertex 0 -12 2.4
      vertex 8 -20 2.4
      vertex 0 -10.7 0
    endloop
  endfacet
  facet normal 0.660328 0.660328 0.357678
    outer loop
      vertex 0 -10.7 0
      vertex 8 -20 2.4
      vertex 9.3 -20 0
    endloop
  endfacet
  facet normal -0.660328 -0.660328 0.357678
    outer loop
      vertex 12 -20 2.4
      vertex 10.7 -20 0
      vertex 20 -29.3 0
    endloop
  endfacet
  facet normal -0.660328 -0.660328 0.357678
    outer loop
      vertex 20 -28 2.4
      vertex 12 -20 2.4
      vertex 20 -29.3 0
    endloop
  endfacet
  facet normal -0 0 -1
    outer loop
      vertex 10.7 -20 0
      vertex 20 -10.7 0
      vertex 20 -29.3 0
    endloop
  endfacet
  facet normal 0 -0 -1
    outer loop
      vertex 20 -29.3 0
      vertex 20 -10.7 0
      vertex 29.3 -20 0
    endloop
  endfacet
  facet normal -0.660328 0.660328 0.357678
    outer loop
      vertex 10.7 -20 0
      vertex 12 -20 2.4
      vertex 20 -10.7 0
    endloop
  endfacet
  facet normal -0.660328 0.660328 0.357678
    outer loop
      vertex 20 -10.7 0
      vertex 12 -20 2.4
      vertex 20 -12 2.4
    endloop
  endfacet
  facet normal 0 0 1
    outer loop
      vertex 20 -12 2.4
      vertex 12 -20 2.4
      vertex 20 -28 2.4
    endloop
  endfacet
  facet normal -0 0 1
    outer loop
      vertex 28 -20 2.4
      vertex 20 -12 2.4
      vertex 20 -28 2.4
    endloop
  endfacet
  facet normal 0.660328 -0.660328 0.357678
    outer loop
      vertex 20 -28 2.4
      vertex 20 -29.3 0
      vertex 29.3 -20 0
    endloop
  endfacet
  facet normal 0.660328 -0.660328 0.357678
    outer loop
      vertex 28 -20 2.4
      vertex 20 -28 2.4
      vertex 29.3 -20 0
    endloop
  endfacet
  facet normal 0.660328 0.660328 0.357678
    outer loop
      vertex 20 -12 2.4
      vertex 28 -20 2.4
      vertex 20 -10.7 0
    endloop
  endfacet
  facet normal 0.660328 0.660328 0.357678
    outer loop
      vertex 20 -10.7 0
      vertex 28 -20 2.4
      vertex 29.3 -20 0
    endloop
  endfacet
  facet normal -0.660328 -0.660328 0.357678
    outer loop
      vertex 32 -20 2.4
      vertex 30.7 -20 0
      vertex 40 -29.3 0
    endloop
  endfacet
  facet normal -0.660328 -0.660328 0.357678
    outer loop
      vertex 40 -28 2.4
      vertex 32 -20 2.4
      vertex 40 -29.3 0
    endloop
  endfacet
  facet normal -0 0 -1
    outer loop
      vertex 30.7 -20 0
      vertex 40 -10.7 0
      vertex 40 -29.3 0
    endloop
  endfacet
  facet normal 0 -0 -1
    outer loop
      vertex 40 -29.3 0
      vertex 40 -10.7 0
      vertex 49.3 -20 0
    endloop
  endfacet
  facet normal -0.660328 0.660328 0.357678
    outer loop
      vertex 30.7 -20 0
      vertex 32 -20 2.4
      vertex 40 -10.7 0
    endloop
  endfacet
  facet normal -0.660328 0.660328 0.357678
    outer loop
      vertex 40 -10.7 0
      vertex 32 -20 2.4
      vertex 40 -12 2.4
    endloop
  endfacet
  facet normal 0 0 1
    outer loop
      vertex 40 -12 2.4
      vertex 32 -20 2.4
      vertex 40 -28 2.4
    endloop
  endfacet
  facet normal -0 0 1
    outer loop
      vertex 48 -20 2.4
      vertex 40 -12 2.4
      vertex 40 -28 2.4
    endloop
  endfacet
  facet normal 0.660328 -0.660328 0.357678
    outer loop
      vertex 40 -28 2.4
      vertex 40 -29.3 0
      vertex 49.3 -20 0
    endloop
  endfacet
  facet normal 0.660328 -0.660328 0.357678
    outer loop
      vertex 48 -20 2.4
      vertex 40 -28 2.4
      vertex 49.3 -20 0
    endloop
  endfacet
  facet normal 0.660328 0.660328 0.357678
    outer loop
      vertex 40 -12 2.4
      vertex 48 -20 2.4
      vertex 40 -10.7 0
    endloop
  endfacet
  facet normal 0.660328 0.660328 0.357678
    outer loop
      vertex 40 -10.7 0
      vertex 48 -20 2.4
      vertex 49.3 -20 0
    endloop
  endfacet
  facet normal -0.660328 -0.660328 0.357678
    outer loop
      vertex -28 0 2.4
      vertex -29.3 0 0
      vertex -20 -9.3 0
    endloop
  endfacet
  facet normal -0.660328 -0.660328 0.357678
    outer loop
      vertex -20 -8 2.4
      vertex -28 0 2.4
      vertex -20 -9.3 0
    endloop
  endfacet
  facet normal -0 0 -1
    outer loop
      vertex -29.3 0 0
      vertex -20 9.3 0
      vertex -20 -9.3 0
    endloop
  endfacet
  facet normal 0 -0 -1
    outer loop
      vertex -20 -9.3 0
      vertex -20 9.3 0
      vertex -10.7 0 0
    endloop
  endfacet
  facet normal -0.660328 0.660328 0.357678
    outer loop
      vertex -29.3 0 0
      vertex -28 0 2.4
      vertex -20 9.3 0
    endloop
  endfacet
  facet normal -0.660328 0.660328 0.357678
    outer loop
      vertex -20 9.3 0
      vertex -28 0 2.4
      vertex -20 8 2.4
    endloop
  endfacet
  facet normal 0 0 1
    outer loop
      vertex -20 8 2.4
      vertex -28 0 2.4
      vertex -20 -8 2.4
    endloop
  endfacet
  facet normal -0 0 1
    outer loop
      vertex -12 0 2.4
      vertex -20 8 2.4
      vertex -20 -8 2.4
    endloop
  endfacet
  facet normal 0.660328 -0.660328 0.357678
    outer loop
      vertex -20 -8 2.4
      vertex -20 -9.3 0
      vertex -10.7 0 0
    endloop
  endfacet
  facet normal 0.660328 -0.660328 0.357678
    outer loop
      vertex -12 0 2.4
      vertex -20 -8 2.4
      vertex -10.7 0 0
    endloop
  endfacet
  facet normal 0.660328 0.660328 0.357678
    outer loop
      vertex -20 8 2.4
      vertex -12 0 2.4
      vertex -20 9.3 0
    endloop
  endfacet
  facet normal 0.660328 0.660328 0.357678
    outer loop
      vertex -20 9.3 0
      vertex -12 0 2.4
      vertex -10.7 0 0
    endloop
  endfacet
  facet normal -0.660328 -0.660328 0.357678
    outer loop
      vertex -8 0 2.4
      vertex -9.3 0 0
      vertex 0 -9.3 0
    endloop
  endfacet
  facet normal -0.660328 -0.660328 0.357678
    outer loop
      vertex 0 -8 2.4
      vertex -8 0 2.4
      vertex 0 -9.3 0
    endloop
  endfacet
  facet normal -0 0 -1
    outer loop
      vertex -9.3 0 0
      vertex 0 9.3 0
      vertex 0 -9.3 0
    endloop
  endfacet
  facet normal 0 -0 -1
    outer loop
      vertex 0 -9.3 0
      vertex 0 9.3 0
      vertex 9.3 0 0
    endloop
  endfacet
  facet normal -0.660328 0.660328 0.357678
    outer loop
      vertex -9.3 0 0
      vertex -8 0 2.4
      vertex 0 9.3 0
    endloop
  endfacet
  facet normal -0.660328 0.660328 0.357678
    outer loop
      vertex 0 9.3 0
      vertex -8 0 2.4
      vertex 0 8 2.4
    endloop
  endfacet
  facet normal 0 0 1
    outer loop
      vertex 0 8 2.4
      vertex -8 0 2.4
      vertex 0 -8 2.4
    endloop
  endfacet
  facet normal -0 0 1
    outer loop
      vertex 8 0 2.4
      vertex 0 8 2.4
      vertex 0 -8 2.4
    endloop
  endfacet
  facet normal 0.660328 -0.660328 0.357678
    outer loop
      vertex 0 -8 2.4
      vertex 0 -9.3 0
      vertex 9.3 0 0
    endloop
  endfacet
  facet normal 0.660328 -0.660328 0.357678
    outer loop
      vertex 8 0 2.4
      vertex 0 -8 2.4
      vertex 9.3 0 0
    endloop
  endfacet
  facet normal 0.660328 0.660328 0.357678
    outer loop
      vertex 0 8 2.4
      vertex 8 0 2.4
      vertex 0 9.3 0
    endloop
  endfacet
  facet normal 0.660328 0.660328 0.357678
    outer loop
      vertex 0 9.3 0
      vertex 8 0 2.4
      vertex 9.3 0 0
    endloop
  endfacet
  facet normal -0.660328 -0.660328 0.357678
    outer loop
      vertex 12 0 2.4
      vertex 10.7 0 0
      vertex 20 -9.3 0
    endloop
  endfacet
  facet normal -0.660328 -0.660328 0.357678
    outer loop
      vertex 20 -8 2.4
      vertex 12 0 2.4
      vertex 20 -9.3 0
    endloop
  endfacet
  facet normal -0 0 -1
    outer loop
      vertex 10.7 0 0
      vertex 20 9.3 0
      vertex 20 -9.3 0
    endloop
  endfacet
  facet normal 0 -0 -1
    outer loop
      vertex 20 -9.3 0
      vertex 20 9.3 0
      vertex 29.3 0 0
    endloop
  endfacet
  facet normal -0.660328 0.660328 0.357678
    outer loop
      vertex 10.7 0 0
      vertex 12 0 2.4
      vertex 20 9.3 0
    endloop
  endfacet
  facet normal -0.660328 0.660328 0.357678
    outer loop
      vertex 20 9.3 0
      vertex 12 0 2.4
      vertex 20 8 2.4
    endloop
  endfacet
  facet normal 0 0 1
    outer loop
      vertex 20 8 2.4
      vertex 12 0 2.4
      vertex 20 -8 2.4
    endloop
  endfacet
  facet normal -0 0 1
    outer loop
      vertex 28 0 2.4
      vertex 20 8 2.4
      vertex 20 -8 2.4
    endloop
  endfacet
  facet normal 0.660328 -0.660328 0.357678
    outer loop
      vertex 20 -8 2.4
      vertex 20 -9.3 0
      vertex 29.3 0 0
    endloop
  endfacet
  facet normal 0.660328 -0.660328 0.357678
    outer loop
      vertex 28 0 2.4
      vertex 20 -8 2.4
      vertex 29.3 0 0
    endloop
  endfacet
  facet normal 0.660328 0.660328 0.357678
    outer loop
      vertex 20 8 2.4
      vertex 28 0 2.4
      vertex 20 9.3 0
    endloop
  endfacet
  facet normal 0.660328 0.660328 0.357678
    outer loop
      vertex 20 9.3 0
      vertex 28 0 2.4
      vertex 29.3 0 0
    endloop
  endfacet
  facet normal -0.660328 -0.660328 0.357678
    outer loop
      vertex 32 0 2.4
      vertex 30.7 0 0
      vertex 40 -9.3 0
    endloop
  endfacet
  facet normal -0.660328 -0.660328 0.357678
    outer loop
      vertex 40 -8 2.4
      vertex 32 0 2.4
      vertex 40 -9.3 0
    endloop
  endfacet
  facet normal -0 0 -1
    outer loop
      vertex 30.7 0 0
      vertex 40 9.3 0
      vertex 40 -9.3 0
    endloop
  endfacet
  facet normal 0 -0 -1
    outer loop
      vertex 40 -9.3 0
      vertex 40 9.3 0
      vertex 49.3 0 0
    endloop
  endfacet
  facet normal -0.660328 0.660328 0.357678
    outer loop
      vertex 30.7 0 0
      vertex 32 0 2.4
      vertex 40 9.3 0
    endloop
  endfacet
  facet normal -0.660328 0.660328 0.357678
    outer loop
      vertex 40 9.3 0
      vertex 32 0 2.4
      vertex 40 8 2.4
    endloop
  endfacet
  facet normal 0 0 1
    outer loop
      vertex 40 8 2.4
      vertex 32 0 2.4
      vertex 40 -8 2.4
    endloop
  endfacet
  facet normal -0 0 1
    outer loop
      vertex 48 0 2.4
      vertex 40 8 2.4
      vertex 40 -8 2.4
    endloop
  endfacet
  facet normal 0.660328 -0.660328 0.357678
    outer loop
      vertex 40 -8 2.4
      vertex 40 -9.3 0
      vertex 49.3 0 0
    endloop
  endfacet
  facet normal 0.660328 -0.660328 0.357678
    outer loop
      vertex 48 0 2.4
      vertex 40 -8 2.4
      vertex 49.3 0 0
    endloop
  endfacet
  facet normal 0.660328 0.660328 0.357678
    outer loop
      vertex 40 8 2.4
      vertex 48 0 2.4
      vertex 40 9.3 0
    endloop
  endfacet
  facet normal 0.660328 0.660328 0.357678
    outer loop
      vertex 40 9.3 0
      vertex 48 0 2.4
      vertex 49.3 0 0
    endloop
  endfacet
  facet normal -0.660328 -0.660328 0.357678
    outer loop
      vertex -28 20 2.4
      vertex -29.3 20 0
      vertex -20 10.7 0
    endloop
  endfacet
  facet normal -0.660328 -0.660328 0.357678
    outer loop
      vertex -20 12 2.4
      vertex -28 20 2.4
      vertex -20 10.7 0
    endloop
  endfacet
  facet normal -0 0 -1
    outer loop
      vertex -29.3 20 0
      vertex -20 29.3 0
      vertex -20 10.7 0
    endloop
  endfacet
  facet normal 0 -0 -1
    outer loop
      vertex -20 10.7 0
      vertex -20 29.3 0
      vertex -10.7 20 0
    endloop
  endfacet
  facet normal -0.660328 0.660328 0.357678
    outer loop
      vertex -29.3 20 0
      vertex -28 20 2.4
      vertex -20 29.3 0
    endloop
  endfacet
  facet normal -0.660328 0.660328 0.357678
    outer loop
      vertex -20 29.3 0
      vertex -28 20 2.4
      vertex -20 28 2.4
    endloop
  endfacet
  facet normal 0 0 1
    outer loop
      vertex -20 28 2.4
      vertex -28 20 2.4
      vertex -20 12 2.4
    endloop
  endfacet
  facet normal -0 0 1
    outer loop
      vertex -12 20 2.4
      vertex -20 28 2.4
      vertex -20 12 2.4
    endloop
  endfacet
  facet normal 0.660328 -0.660328 0.357678
    outer loop
      vertex -20 12 2.4
      vertex -20 10.7 0
      vertex -10.7 20 0
    endloop
  endfacet
  facet normal 0.660328 -0.660328 0.357678
    outer loop
      vertex -12 20 2.4
      vertex -20 12 2.4
      vertex -10.7 20 0
    endloop
  endfacet
  facet normal 0.660328 0.660328 0.357678
    outer loop
      vertex -20 28 2.4
      vertex -12 20 2.4
      vertex -20 29.3 0
    endloop
  endfacet
  facet normal 0.660328 0.660328 0.357678
    outer loop
      vertex -20 29.3 0
      vertex -12 20 2.4
      vertex -10.7 20 0
    endloop
  endfacet
  facet normal -0.660328 -0.660328 0.357678
    outer loop
      vertex -8 20 2.4
      vertex -9.3 20 0
      vertex 0 10.7 0
    endloop
  endfacet
  facet normal -0.660328 -0.660328 0.357678
    outer loop
      vertex 0 12 2.4
      vertex -8 20 2.4
      vertex 0 10.7 0
    endloop
  endfacet
  facet normal -0 0 -1
    outer loop
      vertex -9.3 20 0
      vertex 0 29.3 0
      vertex 0 10.7 0
    endloop
  endfacet
  facet normal 0 -0 -1
    outer loop
      vertex 0 10.7 0
      vertex 0 29.3 0
      vertex 9.3 20 0
    endloop
  endfacet
  facet normal -0.660328 0.660328 0.357678
    outer loop
      vertex -9.3 20 0
      vertex -8 20 2.4
      vertex 0 29.3 0
    endloop
  endfacet
  facet normal -0.660328 0.660328 0.357678
    outer loop
      vertex 0 29.3 0
      vertex -8 20 2.4
      vertex 0 28 2.4
    endloop
  endfacet
  facet normal 0 0 1
    outer loop
      vertex 0 28 2.4
      vertex -8 20 2.4
      vertex 0 12 2.4
    endloop
  endfacet
  facet normal -0 0 1
    outer loop
      vertex 8 20 2.4
      vertex 0 28 2.4
      vertex 0 12 2.4
    endloop
  endfacet
  facet normal 0.660328 -0.660328 0.357678
    outer loop
      vertex 0 12 2.4
      vertex 0 10.7 0
      vertex 9.3 20 0
    endloop
  endfacet
  facet normal 0.660328 -0.660328 0.357678
    outer loop
      vertex 8 20 2.4
      vertex 0 12 2.4
      vertex 9.3 20 0
    endloop
  endfacet
  facet normal 0.660328 0.660328 0.357678
    outer loop
      vertex 0 28 2.4
      vertex 8 20 2.4
      vertex 0 29.3 0
    endloop
  endfacet
  facet normal 0.660328 0.660328 0.357678
    outer loop
      vertex 0 29.3 0
      vertex 8 20 2.4
      vertex 9.3 20 0
    endloop
  endfacet
  facet normal -0.660328 -0.660328 0.357678
    outer loop
      vertex 12 20 2.4
      vertex 10.7 20 0
      vertex 20 10.7 0
    endloop
  endfacet
  facet normal -0.660328 -0.660328 0.357678
    outer loop
      vertex 20 12 2.4
      vertex 12 20 2.4
      vertex 20 10.7 0
    endloop
  endfacet
  facet normal -0 0 -1
    outer loop
      vertex 10.7 20 0
      vertex 20 29.3 0
      vertex 20 10.7 0
    endloop
  endfacet
  facet normal 0 -0 -1
    outer loop
      vertex 20 10.7 0
      vertex 20 29.3 0
      vertex 29.3 20 0
    endloop
  endfacet
  facet normal -0.660328 0.660328 0.357678
    outer loop
      vertex 10.7 20 0
      vertex 12 20 2.4
      vertex 20 29.3 0
    endloop
  endfacet
  facet normal -0.660328 0.660328 0.357678
    outer loop
      vertex 20 29.3 0
      vertex 12 20 2.4
      vertex 20 28 2.4
    endloop
  endfacet
  facet normal 0 0 1
    outer loop
      vertex 20 28 2.4
      vertex 12 20 2.4
      vertex 20 12 2.4
    endloop
  endfacet
  facet normal -0 0 1
    outer loop
      vertex 28 20 2.4
      vertex 20 28 2.4
      vertex 20 12 2.4
    endloop
  endfacet
  facet normal 0.660328 -0.660328 0.357678
    outer loop
      vertex 20 12 2.4
      vertex 20 10.7 0
      vertex 29.3 20 0
    endloop
  endfacet
  facet normal 0.660328 -0.660328 0.357678
    outer loop
      vertex 28 20 2.4
      vertex 20 12 2.4
      vertex 29.3 20 0
    endloop
  endfacet
  facet normal 0.660328 0.660328 0.357678
    outer loop
      vertex 20 28 2.4
      vertex 28 20 2.4
      vertex 20 29.3 0
    endloop
  endfacet
  facet normal 0.660328 0.660328 0.357678
    outer loop
      vertex 20 29.3 0
      vertex 28 20 2.4
      vertex 29.3 20 0
    endloop
  endfacet
  facet normal -0.660328 -0.660328 0.357678
    outer loop
      vertex 32 20 2.4
      vertex 30.7 20 0
      vertex 40 10.7 0
    endloop
  endfacet
  facet normal -0.660328 -0.660328 0.357678
    outer loop
      vertex 40 12 2.4
      vertex 32 20 2.4
      vertex 40 10.7 0
    endloop
  endfacet
  facet normal -0 0 -1
    outer loop
      vertex 30.7 20 0
      vertex 40 29.3 0
      vertex 40 10.7 0
    endloop
  endfacet
  facet normal 0 -0 -1
    outer loop
      vertex 40 10.7 0
      vertex 40 29.3 0
      vertex 49.3 20 0
    endloop
  endfacet
  facet normal -0.660328 0.660328 0.357678
    outer loop
      vertex 30.7 20 0
      vertex 32 20 2.4
      vertex 40 29.3 0
    endloop
  endfacet
  facet normal -0.660328 0.660328 0.357678
    outer loop
      vertex 40 29.3 0
      vertex 32 20 2.4
      vertex 40 28 2.4
    endloop
  endfacet
  facet normal 0 0 1
    outer loop
      vertex 40 28 2.4
      vertex 32 20 2.4
      vertex 40 12 2.4
    endloop
  endfacet
  facet normal -0 0 1
    outer loop
      vertex 48 20 2.4
      vertex 40 28 2.4
      vertex 40 12 2.4
    endloop
  endfacet
  facet normal 0.660328 -0.660328 0.357678
    outer loop
      vertex 40 12 2.4
      vertex 40 10.7 0
      vertex 49.3 20 0
    endloop
  endfacet
  facet normal 0.660328 -0.660328 0.357678
    outer loop
      vertex 48 20 2.4
      vertex 40 12 2.4
      vertex 49.3 20 0
    endloop
  endfacet
  facet normal 0.660328 0.660328 0.357678
    outer loop
      vertex 40 28 2.4
      vertex 48 20 2.4
      vertex 40 29.3 0
    endloop
  endfacet
  facet normal 0.660328 0.660328 0.357678
    outer loop
      vertex 40 29.3 0
      vertex 48 20 2.4
      vertex 49.3 20 0
    endloop
  endfacet
endsolid OpenSCAD_Model
