solid OpenSCAD_Model
  facet normal -0.660328 -0.660328 0.357678
    outer loop
      vertex -49.4 -34 2.4
      vertex -50.7 -34 0
      vertex -42.5 -42.2 0
    endloop
  endfacet
  facet normal -0.660328 -0.660328 0.357678
    outer loop
      vertex -42.5 -40.9 2.4
      vertex -49.4 -34 2.4
      vertex -42.5 -42.2 0
    endloop
  endfacet
  facet normal -0 0 -1
    outer loop
      vertex -50.7 -34 0
      vertex -42.5 -25.8 0
      vertex -42.5 -42.2 0
    endloop
  endfacet
  facet normal 0 -0 -1
    outer loop
      vertex -42.5 -42.2 0
      vertex -42.5 -25.8 0
      vertex -34.3 -34 0
    endloop
  endfacet
  facet normal -0.660328 0.660328 0.357678
    outer loop
      vertex -50.7 -34 0
      vertex -49.4 -34 2.4
      vertex -42.5 -25.8 0
    endloop
  endfacet
  facet normal -0.660328 0.660328 0.357678
    outer loop
      vertex -42.5 -25.8 0
      vertex -49.4 -34 2.4
      vertex -42.5 -27.1 2.4
    endloop
  endfacet
  facet normal 0 0 1
    outer loop
      vertex -42.5 -27.1 2.4
      vertex -49.4 -34 2.4
      vertex -42.5 -40.9 2.4
    endloop
  endfacet
  facet normal -0 0 1
    outer loop
      vertex -35.6 -34 2.4
      vertex -42.5 -27.1 2.4
      vertex -42.5 -40.9 2.4
    endloop
  endfacet
  facet normal 0.660328 -0.660328 0.357678
    outer loop
      vertex -42.5 -40.9 2.4
      vertex -42.5 -42.2 0
      vertex -34.3 -34 0
    endloop
  endfacet
  facet normal 0.660328 -0.660328 0.357678
    outer loop
      vertex -35.6 -34 2.4
      vertex -42.5 -40.9 2.4
      vertex -34.3 -34 0
    endloop
  endfacet
  facet normal 0.660328 0.660328 0.357678
    outer loop
      vertex -42.5 -27.1 2.4
      vertex -35.6 -34 2.4
      vertex -42.5 -25.8 0
    endloop
  endfacet
  facet normal 0.660328 0.660328 0.357678
    outer loop
      vertex -42.5 -25.8 0
      vertex -35.6 -34 2.4
      vertex -34.3 -34 0
    endloop
  endfacet
  facet normal -0.660328 -0.660328 0.357678
    outer loop
      vertex -32.4 -34 2.4
      vertex -33.7 -34 0
      vertex -25.5 -42.2 0
    endloop
  endfacet
  facet normal -0.660328 -0.660328 0.357678
    outer loop
      vertex -25.5 -40.9 2.4
      vertex -32.4 -34 2.4
      vertex -25.5 -42.2 0
    endloop
  endfacet
  facet normal -0 0 -1
    outer loop
      vertex -33.7 -34 0
      vertex -25.5 -25.8 0
      vertex -25.5 -42.2 0
    endloop
  endfacet
  facet normal 0 -0 -1
    outer loop
      vertex -25.5 -42.2 0
      vertex -25.5 -25.8 0
      vertex -17.3 -34 0
    endloop
  endfacet
  facet normal -0.660328 0.660328 0.357678
    outer loop
      vertex -33.7 -34 0
      vertex -32.4 -34 2.4
      vertex -25.5 -25.8 0
    endloop
  endfacet
  facet normal -0.660328 0.660328 0.357678
    outer loop
      vertex -25.5 -25.8 0
      vertex -32.4 -34 2.4
      vertex -25.5 -27.1 2.4
    endloop
  endfacet
  facet normal 0 0 1
    outer loop
      vertex -25.5 -27.1 2.4
      vertex -32.4 -34 2.4
      vertex -25.5 -40.9 2.4
    endloop
  endfacet
  facet normal -0 0 1
    outer loop
      vertex -18.6 -34 2.4
      vertex -25.5 -27.1 2.4
      vertex -25.5 -40.9 2.4
    endloop
  endfacet
  facet normal 0.660328 -0.660328 0.357678
    outer loop
      vertex -25.5 -40.9 2.4
      vertex -25.5 -42.2 0
      vertex -17.3 -34 0
    endloop
  endfacet
  facet normal 0.660328 -0.660328 0.357678
    outer loop
      vertex -18.6 -34 2.4
      vertex -25.5 -40.9 2.4
      vertex -17.3 -34 0
    endloop
  endfacet
  facet normal 0.660328 0.660328 0.357678
    outer loop
      vertex -25.5 -27.1 2.4
      vertex -18.6 -34 2.4
      vertex -25.5 -25.8 0
    endloop
  endfacet
  facet normal 0.660328 0.660328 0.357678
    outer loop
      vertex -25.5 -25.8 0
      vertex -18.6 -34 2.4
      vertex -17.3 -34 0
    endloop
  endfacet
  facet normal -0.660328 -0.660328 0.357678
    outer loop
      vertex -15.4 -34 2.4
      vertex -16.7 -34 0
      vertex -8.5 -42.2 0
    endloop
  endfacet
  facet normal -0.660328 -0.660328 0.357678
    outer loop
      vertex -8.5 -40.9 2.4
      vertex -15.4 -34 2.4
      vertex -8.5 -42.2 0
    endloop
  endfacet
  facet normal -0 0 -1
    outer loop
      vertex -16.7 -34 0
      vertex -8.5 -25.8 0
      vertex -8.5 -42.2 0
    endloop
  endfacet
  facet normal 0 -0 -1
    outer loop
      vertex -8.5 -42.2 0
      vertex -8.5 -25.8 0
      vertex -0.3 -34 0
    endloop
  endfacet
  facet normal -0.660328 0.660328 0.357678
    outer loop
      vertex -16.7 -34 0
      vertex -15.4 -34 2.4
      vertex -8.5 -25.8 0
    endloop
  endfacet
  facet normal -0.660328 0.660328 0.357678
    outer loop
      vertex -8.5 -25.8 0
      vertex -15.4 -34 2.4
      vertex -8.5 -27.1 2.4
    endloop
  endfacet
  facet normal 0 0 1
    outer loop
      vertex -8.5 -27.1 2.4
      vertex -15.4 -34 2.4
      vertex -8.5 -40.9 2.4
    endloop
  endfacet
  facet normal -0 0 1
    outer loop
      vertex -1.6 -34 2.4
      vertex -8.5 -27.1 2.4
      vertex -8.5 -40.9 2.4
    endloop
  endfacet
  facet normal 0.660328 -0.660328 0.357678
    outer loop
      vertex -8.5 -40.9 2.4
      vertex -8.5 -42.2 0
      vertex -0.3 -34 0
    endloop
  endfacet
  facet normal 0.660328 -0.660328 0.357678
    outer loop
      vertex -1.6 -34 2.4
      vertex -8.5 -40.9 2.4
      vertex -0.3 -34 0
    endloop
  endfacet
  facet normal 0.660328 0.660328 0.357678
    outer loop
      vertex -8.5 -27.1 2.4
      vertex -1.6 -34 2.4
      vertex -8.5 -25.8 0
    endloop
  endfacet
  facet normal 0.660328 0.660328 0.357678
    outer loop
      vertex -8.5 -25.8 0
      vertex -1.6 -34 2.4
      vertex -0.3 -34 0
    endloop
  endfacet
  facet normal -0.660328 -0.660328 0.357678
    outer loop
      vertex 1.6 -34 2.4
      vertex 0.3 -34 0
      vertex 8.5 -42.2 0
    endloop
  endfacet
  facet normal -0.660328 -0.660328 0.357678
    outer loop
      vertex 8.5 -40.9 2.4
      vertex 1.6 -34 2.4
      vertex 8.5 -42.2 0
    endloop
  endfacet
  facet normal -0 0 -1
    outer loop
      vertex 0.3 -34 0
      vertex 8.5 -25.8 0
      vertex 8.5 -42.2 0
    endloop
  endfacet
  facet normal 0 -0 -1
    outer loop
      vertex 8.5 -42.2 0
      vertex 8.5 -25.8 0
      vertex 16.7 -34 0
    endloop
  endfacet
  facet normal -0.660328 0.660328 0.357678
    outer loop
      vertex 0.3 -34 0
      vertex 1.6 -34 2.4
      vertex 8.5 -25.8 0
    endloop
  endfacet
  facet normal -0.660328 0.660328 0.357678
    outer loop
      vertex 8.5 -25.8 0
      vertex 1.6 -34 2.4
      vertex 8.5 -27.1 2.4
    endloop
  endfacet
  facet normal 0 0 1
    outer loop
      vertex 8.5 -27.1 2.4
      vertex 1.6 -34 2.4
      vertex 8.5 -40.9 2.4
    endloop
  endfacet
  facet normal -0 0 1
    outer loop
      vertex 15.4 -34 2.4
      vertex 8.5 -27.1 2.4
      vertex 8.5 -40.9 2.4
    endloop
  endfacet
  facet normal 0.660328 -0.660328 0.357678
    outer loop
      vertex 8.5 -40.9 2.4
      vertex 8.5 -42.2 0
      vertex 16.7 -34 0
    endloop
  endfacet
  facet normal 0.660328 -0.660328 0.357678
    outer loop
      vertex 15.4 -34 2.4
      vertex 8.5 -40.9 2.4
      vertex 16.7 -34 0
    endloop
  endfacet
  facet normal 0.660328 0.660328 0.357678
    outer loop
      vertex 8.5 -27.1 2.4
      vertex 15.4 -34 2.4
      vertex 8.5 -25.8 0
    endloop
  endfacet
  facet normal 0.660328 0.660328 0.357678
    outer loop
      vertex 8.5 -25.8 0
      vertex 15.4 -34 2.4
      vertex 16.7 -34 0
    endloop
  endfacet
  facet normal -0.660328 -0.660328 0.357678
    outer loop
      vertex 18.6 -34 2.4
      vertex 17.3 -34 0
      vertex 25.5 -42.2 0
    endloop
  endfacet
  facet normal -0.660328 -0.660328 0.357678
    outer loop
      vertex 25.5 -40.9 2.4
      vertex 18.6 -34 2.4
      vertex 25.5 -42.2 0
    endloop
  endfacet
  facet normal -0 0 -1
    outer loop
      vertex 17.3 -34 0
      vertex 25.5 -25.8 0
      vertex 25.5 -42.2 0
    endloop
  endfacet
  facet normal 0 -0 -1
    outer loop
      vertex 25.5 -42.2 0
      vertex 25.5 -25.8 0
      vertex 33.7 -34 0
    endloop
  endfacet
  facet normal -0.660328 0.660328 0.357678
    outer loop
      vertex 17.3 -34 0
      vertex 18.6 -34 2.4
      vertex 25.5 -25.8 0
    endloop
  endfacet
  facet normal -0.660328 0.660328 0.357678
    outer loop
      vertex 25.5 -25.8 0
      vertex 18.6 -34 2.4
      vertex 25.5 -27.1 2.4
    endloop
  endfacet
  facet normal 0 0 1
    outer loop
      vertex 25.5 -27.1 2.4
      vertex 18.6 -34 2.4
      vertex 25.5 -40.9 2.4
    endloop
  endfacet
  facet normal -0 0 1
    outer loop
      vertex 32.4 -34 2.4
      vertex 25.5 -27.1 2.4
      vertex 25.5 -40.9 2.4
    endloop
  endfacet
  facet normal 0.660328 -0.660328 0.357678
    outer loop
      vertex 25.5 -40.9 2.4
      vertex 25.5 -42.2 0
      vertex 33.7 -34 0
    endloop
  endfacet
  facet normal 0.660328 -0.660328 0.357678
    outer loop
      vertex 32.4 -34 2.4
      vertex 25.5 -40.9 2.4
      vertex 33.7 -34 0
    endloop
  endfacet
  facet normal 0.660328 0.660328 0.357678
    outer loop
      vertex 25.5 -27.1 2.4
      vertex 32.4 -34 2.4
      vertex 25.5 -25.8 0
    endloop
  endfacet
  facet normal 0.660328 0.660328 0.357678
    outer loop
      vertex 25.5 -25.8 0
      vertex 32.4 -34 2.4
      vertex 33.7 -34 0
    endloop
  endfacet
  facet normal -0.660328 -0.660328 0.357678
    outer loop
      vertex 36.6 -34 2.4
      vertex 35.3 -34 0
      vertex 43.5 -42.2 0
    endloop
  endfacet
  facet normal -0.660328 -0.660328 0.357678
    outer loop
      vertex 43.5 -40.9 2.4
      vertex 36.6 -34 2.4
      vertex 43.5 -42.2 0
    endloop
  endfacet
  facet normal -0 0 -1
    outer loop
      vertex 35.3 -34 0
      vertex 43.5 -25.8 0
      vertex 43.5 -42.2 0
    endloop
  endfacet
  facet normal 0 -0 -1
    outer loop
      vertex 43.5 -42.2 0
      vertex 43.5 -25.8 0
      vertex 51.7 -34 0
    endloop
  endfacet
  facet normal -0.660328 0.660328 0.357678
    outer loop
      vertex 35.3 -34 0
      vertex 36.6 -34 2.4
      vertex 43.5 -25.8 0
    endloop
  endfacet
  facet normal -0.660328 0.660328 0.357678
    outer loop
      vertex 43.5 -25.8 0
      vertex 36.6 -34 2.4
      vertex 43.5 -27.1 2.4
    endloop
  endfacet
  facet normal 0 0 1
    outer loop
      vertex 43.5 -27.1 2.4
      vertex 36.6 -34 2.4
      vertex 43.5 -40.9 2.4
    endloop
  endfacet
  facet normal -0 0 1
    outer loop
      vertex 50.4 -34 2.4
      vertex 43.5 -27.1 2.4
      vertex 43.5 -40.9 2.4
    endloop
  endfacet
  facet normal 0.660328 -0.660328 0.357678
    outer loop
      vertex 43.5 -40.9 2.4
      vertex 43.5 -42.2 0
      vertex 51.7 -34 0
    endloop
  endfacet
  facet normal 0.660328 -0.660328 0.357678
    outer loop
      vertex 50.4 -34 2.4
      vertex 43.5 -40.9 2.4
      vertex 51.7 -34 0
    endloop
  endfacet
  facet normal 0.660328 0.660328 0.357678
    outer loop
      vertex 43.5 -27.1 2.4
      vertex 50.4 -34 2.4
      vertex 43.5 -25.8 0
    endloop
  endfacet
  facet normal 0.660328 0.660328 0.357678
    outer loop
      vertex 43.5 -25.8 0
      vertex 50.4 -34 2.4
      vertex 51.7 -34 0
    endloop
  endfacet
  facet normal -0.660328 -0.660328 0.357678
    outer loop
      vertex -49.4 -17 2.4
      vertex -50.7 -17 0
      vertex -42.5 -25.2 0
    endloop
  endfacet
  facet normal -0.660328 -0.660328 0.357678
    outer loop
      vertex -42.5 -23.9 2.4
      vertex -49.4 -17 2.4
      vertex -42.5 -25.2 0
    endloop
  endfacet
  facet normal -0 0 -1
    outer loop
      vertex -50.7 -17 0
      vertex -42.5 -8.8 0
      vertex -42.5 -25.2 0
    endloop
  endfacet
  facet normal 0 -0 -1
    outer loop
      vertex -42.5 -25.2 0
      vertex -42.5 -8.8 0
      vertex -34.3 -17 0
    endloop
  endfacet
  facet normal -0.660328 0.660328 0.357678
    outer loop
      vertex -50.7 -17 0
      vertex -49.4 -17 2.4
      vertex -42.5 -8.8 0
    endloop
  endfacet
  facet normal -0.660328 0.660328 0.357678
    outer loop
      vertex -42.5 -8.8 0
      vertex -49.4 -17 2.4
      vertex -42.5 -10.1 2.4
    endloop
  endfacet
  facet normal 0 0 1
    outer loop
      vertex -42.5 -10.1 2.4
      vertex -49.4 -17 2.4
      vertex -42.5 -23.9 2.4
    endloop
  endfacet
  facet normal -0 0 1
    outer loop
      vertex -35.6 -17 2.4
      vertex -42.5 -10.1 2.4
      vertex -42.5 -23.9 2.4
    endloop
  endfacet
  facet normal 0.660328 -0.660328 0.357678
    outer loop
      vertex -42.5 -23.9 2.4
      vertex -42.5 -25.2 0
      vertex -34.3 -17 0
    endloop
  endfacet
  facet normal 0.660328 -0.660328 0.357678
    outer loop
      vertex -35.6 -17 2.4
      vertex -42.5 -23.9 2.4
      vertex -34.3 -17 0
    endloop
  endfacet
  facet normal 0.660328 0.660328 0.357678
    outer loop
      vertex -42.5 -10.1 2.4
      vertex -35.6 -17 2.4
      vertex -42.5 -8.8 0
    endloop
  endfacet
  facet normal 0.660328 0.660328 0.357678
    outer loop
      vertex -42.5 -8.8 0
      vertex -35.6 -17 2.4
      vertex -34.3 -17 0
    endloop
  endfacet
  facet normal -0.660328 -0.660328 0.357678
    outer loop
      vertex -32.4 -17 2.4
      vertex -33.7 -17 0
      vertex -25.5 -25.2 0
    endloop
  endfacet
  facet normal -0.660328 -0.660328 0.357678
    outer loop
      vertex -25.5 -23.9 2.4
      vertex -32.4 -17 2.4
      vertex -25.5 -25.2 0
    endloop
  endfacet
  facet normal -0 0 -1
    outer loop
      vertex -33.7 -17 0
      vertex -25.5 -8.8 0
      vertex -25.5 -25.2 0
    endloop
  endfacet
  facet normal 0 -0 -1
    outer loop
      vertex -25.5 -25.2 0
      vertex -25.5 -8.8 0
      vertex -17.3 -17 0
    endloop
  endfacet
  facet normal -0.660328 0.660328 0.357678
    outer loop
      vertex -33.7 -17 0
      vertex -32.4 -17 2.4
      vertex -25.5 -8.8 0
    endloop
  endfacet
  facet normal -0.660328 0.660328 0.357678
    outer loop
      vertex -25.5 -8.8 0
      vertex -32.4 -17 2.4
      vertex -25.5 -10.1 2.4
    endloop
  endfacet
  facet normal 0 0 1
    outer loop
      vertex -25.5 -10.1 2.4
      vertex -32.4 -17 2.4
      vertex -25.5 -23.9 2.4
    endloop
  endfacet
  facet normal -0 0 1
    outer loop
      vertex -18.6 -17 2.4
      vertex -25.5 -10.1 2.4
      vertex -25.5 -23.9 2.4
    endloop
  endfacet
  facet normal 0.660328 -0.660328 0.357678
    outer loop
      vertex -25.5 -23.9 2.4
      vertex -25.5 -25.2 0
      vertex -17.3 -17 0
    endloop
  endfacet
  facet normal 0.660328 -0.660328 0.357678
    outer loop
      vertex -18.6 -17 2.4
      vertex -25.5 -23.9 2.4
      vertex -17.3 -17 0
    endloop
  endfacet
  facet normal 0.660328 0.660328 0.357678
    outer loop
      vertex -25.5 -10.1 2.4
      vertex -18.6 -17 2.4
      vertex -25.5 -8.8 0
    endloop
  endfacet
  facet normal 0.660328 0.660328 0.357678
    outer loop
      vertex -25.5 -8.8 0
      vertex -18.6 -17 2.4
      vertex -17.3 -17 0
    endloop
  endfacet
  facet normal -0.660328 -0.660328 0.357678
    outer loop
      vertex -15.4 -17 2.4
      vertex -16.7 -17 0
      vertex -8.5 -25.2 0
    endloop
  endfacet
  facet normal -0.660328 -0.660328 0.357678
    outer loop
      vertex -8.5 -23.9 2.4
      vertex -15.4 -17 2.4
      vertex -8.5 -25.2 0
    endloop
  endfacet
  facet normal -0 0 -1
    outer loop
      vertex -16.7 -17 0
      vertex -8.5 -8.8 0
      vertex -8.5 -25.2 0
    endloop
  endfacet
  facet normal 0 -0 -1
    outer loop
      vertex -8.5 -25.2 0
      vertex -8.5 -8.8 0
      vertex -0.3 -17 0
    endloop
  endfacet
  facet normal -0.660328 0.660328 0.357678
    outer loop
      vertex -16.7 -17 0
      vertex -15.4 -17 2.4
      vertex -8.5 -8.8 0
    endloop
  endfacet
  facet normal -0.660328 0.660328 0.357678
    outer loop
      vertex -8.5 -8.8 0
      vertex -15.4 -17 2.4
      vertex -8.5 -10.1 2.4
    endloop
  endfacet
  facet normal 0 0 1
    outer loop
      vertex -8.5 -10.1 2.4
      vertex -15.4 -17 2.4
      vertex -8.5 -23.9 2.4
    endloop
  endfacet
  facet normal -0 0 1
    outer loop
      vertex -1.6 -17 2.4
      vertex -8.5 -10.1 2.4
      vertex -8.5 -23.9 2.4
    endloop
  endfacet
  facet normal 0.660328 -0.660328 0.357678
    outer loop
      vertex -8.5 -23.9 2.4
      vertex -8.5 -25.2 0
      vertex -0.3 -17 0
    endloop
  endfacet
  facet normal 0.660328 -0.660328 0.357678
    outer loop
      vertex -1.6 -17 2.4
      vertex -8.5 -23.9 2.4
      vertex -0.3 -17 0
    endloop
  endfacet
  facet normal 0.660328 0.660328 0.357678
    outer loop
      vertex -8.5 -10.1 2.4
      vertex -1.6 -17 2.4
      vertex -8.5 -8.8 0
    endloop
  endfacet
  facet normal 0.660328 0.660328 0.357678
    outer loop
      vertex -8.5 -8.8 0
      vertex -1.6 -17 2.4
      vertex -0.3 -17 0
    endloop
  endfacet
  facet normal -0.660328 -0.660328 0.357678
    outer loop
      vertex 1.6 -17 2.4
      vertex 0.3 -17 0
      vertex 8.5 -25.2 0
    endloop
  endfacet
  facet normal -0.660328 -0.660328 0.357678
    outer loop
      vertex 8.5 -23.9 2.4
      vertex 1.6 -17 2.4
      vertex 8.5 -25.2 0
    endloop
  endfacet
  facet normal -0 0 -1
    outer loop
      vertex 0.3 -17 0
      vertex 8.5 -8.8 0
      vertex 8.5 -25.2 0
    endloop
  endfacet
  facet normal 0 -0 -1
    outer loop
      vertex 8.5 -25.2 0
      vertex 8.5 -8.8 0
      vertex 16.7 -17 0
    endloop
  endfacet
  facet normal -0.660328 0.660328 0.357678
    outer loop
      vertex 0.3 -17 0
      vertex 1.6 -17 2.4
      vertex 8.5 -8.8 0
    endloop
  endfacet
  facet normal -0.660328 0.660328 0.357678
    outer loop
      vertex 8.5 -8.8 0
      vertex 1.6 -17 2.4
      vertex 8.5 -10.1 2.4
    endloop
  endfacet
  facet normal 0 0 1
    outer loop
      vertex 8.5 -10.1 2.4
      vertex 1.6 -17 2.4
      vertex 8.5 -23.9 2.4
    endloop
  endfacet
  facet normal -0 0 1
    outer loop
      vertex 15.4 -17 2.4
      vertex 8.5 -10.1 2.4
      vertex 8.5 -23.9 2.4
    endloop
  endfacet
  facet normal 0.660328 -0.660328 0.357678
    outer loop
      vertex 8.5 -23.9 2.4
      vertex 8.5 -25.2 0
      vertex 16.7 -17 0
    endloop
  endfacet
  facet normal 0.660328 -0.660328 0.357678
    outer loop
      vertex 15.4 -17 2.4
      vertex 8.5 -23.9 2.4
      vertex 16.7 -17 0
    endloop
  endfacet
  facet normal 0.660328 0.660328 0.357678
    outer loop
      vertex 8.5 -10.1 2.4
      vertex 15.4 -17 2.4
      vertex 8.5 -8.8 0
    endloop
  endfacet
  facet normal 0.660328 0.660328 0.357678
    outer loop
      vertex 8.5 -8.8 0
      vertex 15.4 -17 2.4
      vertex 16.7 -17 0
    endloop
  endfacet
  facet normal -0.660328 -0.660328 0.357678
    outer loop
      vertex 18.6 -17 2.4
      vertex 17.3 -17 0
      vertex 25.5 -25.2 0
    endloop
  endfacet
  facet normal -0.660328 -0.660328 0.357678
    outer loop
      vertex 25.5 -23.9 2.4
      vertex 18.6 -17 2.4
      vertex 25.5 -25.2 0
    endloop
  endfacet
  facet normal -0 0 -1
    outer loop
      vertex 17.3 -17 0
      vertex 25.5 -8.8 0
      vertex 25.5 -25.2 0
    endloop
  endfacet
  facet normal 0 -0 -1
    outer loop
      vertex 25.5 -25.2 0
      vertex 25.5 -8.8 0
      vertex 33.7 -17 0
    endloop
  endfacet
  facet normal -0.660328 0.660328 0.357678
    outer loop
      vertex 17.3 -17 0
      vertex 18.6 -17 2.4
      vertex 25.5 -8.8 0
    endloop
  endfacet
  facet normal -0.660328 0.660328 0.357678
    outer loop
      vertex 25.5 -8.8 0
      vertex 18.6 -17 2.4
      vertex 25.5 -10.1 2.4
    endloop
  endfacet
  facet normal 0 0 1
    outer loop
      vertex 25.5 -10.1 2.4
      vertex 18.6 -17 2.4
      vertex 25.5 -23.9 2.4
    endloop
  endfacet
  facet normal -0 0 1
    outer loop
      vertex 32.4 -17 2.4
      vertex 25.5 -10.1 2.4
      vertex 25.5 -23.9 2.4
    endloop
  endfacet
  facet normal 0.660328 -0.660328 0.357678
    outer loop
      vertex 25.5 -23.9 2.4
      vertex 25.5 -25.2 0
      vertex 33.7 -17 0
    endloop
  endfacet
  facet normal 0.660328 -0.660328 0.357678
    outer loop
      vertex 32.4 -17 2.4
      vertex 25.5 -23.9 2.4
      vertex 33.7 -17 0
    endloop
  endfacet
  facet normal 0.660328 0.660328 0.357678
    outer loop
      vertex 25.5 -10.1 2.4
      vertex 32.4 -17 2.4
      vertex 25.5 -8.8 0
    endloop
  endfacet
  facet normal 0.660328 0.660328 0.357678
    outer loop
      vertex 25.5 -8.8 0
      vertex 32.4 -17 2.4
      vertex 33.7 -17 0
    endloop
  endfacet
  facet normal -0.660328 -0.660328 0.357678
    outer loop
      vertex 36.6 -17 2.4
      vertex 35.3 -17 0
      vertex 43.5 -25.2 0
    endloop
  endfacet
  facet normal -0.660328 -0.660328 0.357678
    outer loop
      vertex 43.5 -23.9 2.4
      vertex 36.6 -17 2.4
      vertex 43.5 -25.2 0
    endloop
  endfacet
  facet normal -0 0 -1
    outer loop
      vertex 35.3 -17 0
      vertex 43.5 -8.8 0
      vertex 43.5 -25.2 0
    endloop
  endfacet
  facet normal 0 -0 -1
    outer loop
      vertex 43.5 -25.2 0
      vertex 43.5 -8.8 0
      vertex 51.7 -17 0
    endloop
  endfacet
  facet normal -0.660328 0.660328 0.357678
    outer loop
      vertex 35.3 -17 0
      vertex 36.6 -17 2.4
      vertex 43.5 -8.8 0
    endloop
  endfacet
  facet normal -0.660328 0.660328 0.357678
    outer loop
      vertex 43.5 -8.8 0
      vertex 36.6 -17 2.4
      vertex 43.5 -10.1 2.4
    endloop
  endfacet
  facet normal 0 0 1
    outer loop
      vertex 43.5 -10.1 2.4
      vertex 36.6 -17 2.4
      vertex 43.5 -23.9 2.4
    endloop
  endfacet
  facet normal -0 0 1
    outer loop
      vertex 50.4 -17 2.4
      vertex 43.5 -10.1 2.4
      vertex 43.5 -23.9 2.4
    endloop
  endfacet
  facet normal 0.660328 -0.660328 0.357678
    outer loop
      vertex 43.5 -23.9 2.4
      vertex 43.5 -25.2 0
      vertex 51.7 -17 0
    endloop
  endfacet
  facet normal 0.660328 -0.660328 0.357678
    outer loop
      vertex 50.4 -17 2.4
      vertex 43.5 -23.9 2.4
      vertex 51.7 -17 0
    endloop
  endfacet
  facet normal 0.660328 0.660328 0.357678
    outer loop
      vertex 43.5 -10.1 2.4
      vertex 50.4 -17 2.4
      vertex 43.5 -8.8 0
    endloop
  endfacet
  facet normal 0.660328 0.660328 0.357678
    outer loop
      vertex 43.5 -8.8 0
      vertex 50.4 -17 2.4
      vertex 51.7 -17 0
    endloop
  endfacet
  facet normal -0.660328 -0.660328 0.357678
    outer loop
      vertex -49.4 0 2.4
      vertex -50.7 0 0
      vertex -42.5 -8.2 0
    endloop
  endfacet
  facet normal -0.660328 -0.660328 0.357678
    outer loop
      vertex -42.5 -6.9 2.4
      vertex -49.4 0 2.4
      vertex -42.5 -8.2 0
    endloop
  endfacet
  facet normal -0 0 -1
    outer loop
      vertex -50.7 0 0
      vertex -42.5 8.2 0
      vertex -42.5 -8.2 0
    endloop
  endfacet
  facet normal 0 -0 -1
    outer loop
      vertex -42.5 -8.2 0
      vertex -42.5 8.2 0
      vertex -34.3 0 0
    endloop
  endfacet
  facet normal -0.660328 0.660328 0.357678
    outer loop
      vertex -50.7 0 0
      vertex -49.4 0 2.4
      vertex -42.5 8.2 0
    endloop
  endfacet
  facet normal -0.660328 0.660328 0.357678
    outer loop
      vertex -42.5 8.2 0
      vertex -49.4 0 2.4
      vertex -42.5 6.9 2.4
    endloop
  endfacet
  facet normal 0 0 1
    outer loop
      vertex -42.5 6.9 2.4
      vertex -49.4 0 2.4
      vertex -42.5 -6.9 2.4
    endloop
  endfacet
  facet normal -0 0 1
    outer loop
      vertex -35.6 0 2.4
      vertex -42.5 6.9 2.4
      vertex -42.5 -6.9 2.4
    endloop
  endfacet
  facet normal 0.660328 -0.660328 0.357678
    outer loop
      vertex -42.5 -6.9 2.4
      vertex -42.5 -8.2 0
      vertex -34.3 0 0
    endloop
  endfacet
  facet normal 0.660328 -0.660328 0.357678
    outer loop
      vertex -35.6 0 2.4
      vertex -42.5 -6.9 2.4
      vertex -34.3 0 0
    endloop
  endfacet
  facet normal 0.660328 0.660328 0.357678
    outer loop
      vertex -42.5 6.9 2.4
      vertex -35.6 0 2.4
      vertex -42.5 8.2 0
    endloop
  endfacet
  facet normal 0.660328 0.660328 0.357678
    outer loop
      vertex -42.5 8.2 0
      vertex -35.6 0 2.4
      vertex -34.3 0 0
    endloop
  endfacet
  facet normal -0.660328 -0.660328 0.357678
    outer loop
      vertex -32.4 0 2.4
      vertex -33.7 0 0
      vertex -25.5 -8.2 0
    endloop
  endfacet
  facet normal -0.660328 -0.660328 0.357678
    outer loop
      vertex -25.5 -6.9 2.4
      vertex -32.4 0 2.4
      vertex -25.5 -8.2 0
    endloop
  endfacet
  facet normal -0 0 -1
    outer loop
      vertex -33.7 0 0
      vertex -25.5 8.2 0
      vertex -25.5 -8.2 0
    endloop
  endfacet
  facet normal 0 -0 -1
    outer loop
      vertex -25.5 -8.2 0
      vertex -25.5 8.2 0
      vertex -17.3 0 0
    endloop
  endfacet
  facet normal -0.660328 0.660328 0.357678
    outer loop
      vertex -33.7 0 0
      vertex -32.4 0 2.4
      vertex -25.5 8.2 0
    endloop
  endfacet
  facet normal -0.660328 0.660328 0.357678
    outer loop
      vertex -25.5 8.2 0
      vertex -32.4 0 2.4
      vertex -25.5 6.9 2.4
    endloop
  endfacet
  facet normal 0 0 1
    outer loop
      vertex -25.5 6.9 2.4
      vertex -32.4 0 2.4
      vertex -25.5 -6.9 2.4
    endloop
  endfacet
  facet normal -0 0 1
    outer loop
      vertex -18.6 0 2.4
      vertex -25.5 6.9 2.4
      vertex -25.5 -6.9 2.4
    endloop
  endfacet
  facet normal 0.660328 -0.660328 0.357678
    outer loop
      vertex -25.5 -6.9 2.4
      vertex -25.5 -8.2 0
      vertex -17.3 0 0
    endloop
  endfacet
  facet normal 0.660328 -0.660328 0.357678
    outer loop
      vertex -18.6 0 2.4
      vertex -25.5 -6.9 2.4
      vertex -17.3 0 0
    endloop
  endfacet
  facet normal 0.660328 0.660328 0.357678
    outer loop
      vertex -25.5 6.9 2.4
      vertex -18.6 0 2.4
      vertex -25.5 8.2 0
    endloop
  endfacet
  facet normal 0.660328 0.660328 0.357678
    outer loop
      vertex -25.5 8.2 0
      vertex -18.6 0 2.4
      vertex -17.3 0 0
    endloop
  endfacet
  facet normal -0.660328 -0.660328 0.357678
    outer loop
      vertex -15.4 0 2.4
      vertex -16.7 0 0
      vertex -8.5 -8.2 0
    endloop
  endfacet
  facet normal -0.660328 -0.660328 0.357678
    outer loop
      vertex -8.5 -6.9 2.4
      vertex -15.4 0 2.4
      vertex -8.5 -8.2 0
    endloop
  endfacet
  facet normal -0 0 -1
    outer loop
      vertex -16.7 0 0
      vertex -8.5 8.2 0
      vertex -8.5 -8.2 0
    endloop
  endfacet
  facet normal 0 -0 -1
    outer loop
      vertex -8.5 -8.2 0
      vertex -8.5 8.2 0
      vertex -0.3 0 0
    endloop
  endfacet
  facet normal -0.660328 0.660328 0.357678
    outer loop
      vertex -16.7 0 0
      vertex -15.4 0 2.4
      vertex -8.5 8.2 0
    endloop
  endfacet
  facet normal -0.660328 0.660328 0.357678
    outer loop
      vertex -8.5 8.2 0
      vertex -15.4 0 2.4
      vertex -8.5 6.9 2.4
    endloop
  endfacet
  facet normal 0 0 1
    outer loop
      vertex -8.5 6.9 2.4
      vertex -15.4 0 2.4
      vertex -8.5 -6.9 2.4
    endloop
  endfacet
  facet normal -0 0 1
    outer loop
      vertex -1.6 0 2.4
      vertex -8.5 6.9 2.4
      vertex -8.5 -6.9 2.4
    endloop
  endfacet
  facet normal 0.660328 -0.660328 0.357678
    outer loop
      vertex -8.5 -6.9 2.4
      vertex -8.5 -8.2 0
      vertex -0.3 0 0
    endloop
  endfacet
  facet normal 0.660328 -0.660328 0.357678
    outer loop
      vertex -1.6 0 2.4
      vertex -8.5 -6.9 2.4
      vertex -0.3 0 0
    endloop
  endfacet
  facet normal 0.660328 0.660328 0.357678
    outer loop
      vertex -8.5 6.9 2.4
      vertex -1.6 0 2.4
      vertex -8.5 8.2 0
    endloop
  endfacet
  facet normal 0.660328 0.660328 0.357678
    outer loop
      vertex -8.5 8.2 0
      vertex -1.6 0 2.4
      vertex -0.3 0 0
    endloop
  endfacet
  facet normal -0.660328 -0.660328 0.357678
    outer loop
      vertex 1.6 0 2.4
      vertex 0.3 0 0
      vertex 8.5 -8.2 0
    endloop
  endfacet
  facet normal -0.660328 -0.660328 0.357678
    outer loop
      vertex 8.5 -6.9 2.4
      vertex 1.6 0 2.4
      vertex 8.5 -8.2 0
    endloop
  endfacet
  facet normal -0 0 -1
    outer loop
      vertex 0.3 0 0
      vertex 8.5 8.2 0
      vertex 8.5 -8.2 0
    endloop
  endfacet
  facet normal 0 -0 -1
    outer loop
      vertex 8.5 -8.2 0
      vertex 8.5 8.2 0
      vertex 16.7 0 0
    endloop
  endfacet
  facet normal -0.660328 0.660328 0.357678
    outer loop
      vertex 0.3 0 0
      vertex 1.6 0 2.4
      vertex 8.5 8.2 0
    endloop
  endfacet
  facet normal -0.660328 0.660328 0.357678
    outer loop
      vertex 8.5 8.2 0
      vertex 1.6 0 2.4
      vertex 8.5 6.9 2.4
    endloop
  endfacet
  facet normal 0 0 1
    outer loop
      vertex 8.5 6.9 2.4
      vertex 1.6 0 2.4
      vertex 8.5 -6.9 2.4
    endloop
  endfacet
  facet normal -0 0 1
    outer loop
      vertex 15.4 0 2.4
      vertex 8.5 6.9 2.4
      vertex 8.5 -6.9 2.4
    endloop
  endfacet
  facet normal 0.660328 -0.660328 0.357678
    outer loop
      vertex 8.5 -6.9 2.4
      vertex 8.5 -8.2 0
      vertex 16.7 0 0
    endloop
  endfacet
  facet normal 0.660328 -0.660328 0.357678
    outer loop
      vertex 15.4 0 2.4
      vertex 8.5 -6.9 2.4
      vertex 16.7 0 0
    endloop
  endfacet
  facet normal 0.660328 0.660328 0.357678
    outer loop
      vertex 8.5 6.9 2.4
      vertex 15.4 0 2.4
      vertex 8.5 8.2 0
    endloop
  endfacet
  facet normal 0.660328 0.660328 0.357678
    outer loop
      vertex 8.5 8.2 0
      vertex 15.4 0 2.4
      vertex 16.7 0 0
    endloop
  endfacet
  facet normal -0.660328 -0.660328 0.357678
    outer loop
      vertex 18.6 0 2.4
      vertex 17.3 0 0
      vertex 25.5 -8.2 0
    endloop
  endfacet
  facet normal -0.660328 -0.660328 0.357678
    outer loop
      vertex 25.5 -6.9 2.4
      vertex 18.6 0 2.4
      vertex 25.5 -8.2 0
    endloop
  endfacet
  facet normal -0 0 -1
    outer loop
      vertex 17.3 0 0
      vertex 25.5 8.2 0
      vertex 25.5 -8.2 0
    endloop
  endfacet
  facet normal 0 -0 -1
    outer loop
      vertex 25.5 -8.2 0
      vertex 25.5 8.2 0
      vertex 33.7 0 0
    endloop
  endfacet
  facet normal -0.660328 0.660328 0.357678
    outer loop
      vertex 17.3 0 0
      vertex 18.6 0 2.4
      vertex 25.5 8.2 0
    endloop
  endfacet
  facet normal -0.660328 0.660328 0.357678
    outer loop
      vertex 25.5 8.2 0
      vertex 18.6 0 2.4
      vertex 25.5 6.9 2.4
    endloop
  endfacet
  facet normal 0 0 1
    outer loop
      vertex 25.5 6.9 2.4
      vertex 18.6 0 2.4
      vertex 25.5 -6.9 2.4
    endloop
  endfacet
  facet normal -0 0 1
    outer loop
      vertex 32.4 0 2.4
      vertex 25.5 6.9 2.4
      vertex 25.5 -6.9 2.4
    endloop
  endfacet
  facet normal 0.660328 -0.660328 0.357678
    outer loop
      vertex 25.5 -6.9 2.4
      vertex 25.5 -8.2 0
      vertex 33.7 0 0
    endloop
  endfacet
  facet normal 0.660328 -0.660328 0.357678
    outer loop
      vertex 32.4 0 2.4
      vertex 25.5 -6.9 2.4
      vertex 33.7 0 0
    endloop
  endfacet
  facet normal 0.660328 0.660328 0.357678
    outer loop
      vertex 25.5 6.9 2.4
      vertex 32.4 0 2.4
      vertex 25.5 8.2 0
    endloop
  endfacet
  facet normal 0.660328 0.660328 0.357678
    outer loop
      vertex 25.5 8.2 0
      vertex 32.4 0 2.4
      vertex 33.7 0 0
    endloop
  endfacet
  facet normal -0.660328 -0.660328 0.357678
    outer loop
      vertex 36.6 0 2.4
      vertex 35.3 0 0
      vertex 43.5 -8.2 0
    endloop
  endfacet
  facet normal -0.660328 -0.660328 0.357678
    outer loop
      vertex 43.5 -6.9 2.4
      vertex 36.6 0 2.4
      vertex 43.5 -8.2 0
    endloop
  endfacet
  facet normal -0 0 -1
    outer loop
      vertex 35.3 0 0
      vertex 43.5 8.2 0
      vertex 43.5 -8.2 0
    endloop
  endfacet
  facet normal 0 -0 -1
    outer loop
      vertex 43.5 -8.2 0
      vertex 43.5 8.2 0
      vertex 51.7 0 0
    endloop
  endfacet
  facet normal -0.660328 0.660328 0.357678
    outer loop
      vertex 35.3 0 0
      vertex 36.6 0 2.4
      vertex 43.5 8.2 0
    endloop
  endfacet
  facet normal -0.660328 0.660328 0.357678
    outer loop
      vertex 43.5 8.2 0
      vertex 36.6 0 2.4
      vertex 43.5 6.9 2.4
    endloop
  endfacet
  facet normal 0 0 1
    outer loop
      vertex 43.5 6.9 2.4
      vertex 36.6 0 2.4
      vertex 43.5 -6.9 2.4
    endloop
  endfacet
  facet normal -0 0 1
    outer loop
      vertex 50.4 0 2.4
      vertex 43.5 6.9 2.4
      vertex 43.5 -6.9 2.4
    endloop
  endfacet
  facet normal 0.660328 -0.660328 0.357678
    outer loop
      vertex 43.5 -6.9 2.4
      vertex 43.5 -8.2 0
      vertex 51.7 0 0
    endloop
  endfacet
  facet normal 0.660328 -0.660328 0.357678
    outer loop
      vertex 50.4 0 2.4
      vertex 43.5 -6.9 2.4
      vertex 51.7 0 0
    endloop
  endfacet
  facet normal 0.660328 0.660328 0.357678
    outer loop
      vertex 43.5 6.9 2.4
      vertex 50.4 0 2.4
      vertex 43.5 8.2 0
    endloop
  endfacet
  facet normal 0.660328 0.660328 0.357678
    outer loop
      vertex 43.5 8.2 0
      vertex 50.4 0 2.4
      vertex 51.7 0 0
    endloop
  endfacet
  facet normal -0.660328 -0.660328 0.357678
    outer loop
      vertex -49.4 17 2.4
      vertex -50.7 17 0
      vertex -42.5 8.8 0
    endloop
  endfacet
  facet normal -0.660328 -0.660328 0.357678
    outer loop
      vertex -42.5 10.1 2.4
      vertex -49.4 17 2.4
      vertex -42.5 8.8 0
    endloop
  endfacet
  facet normal -0 0 -1
    outer loop
      vertex -50.7 17 0
      vertex -42.5 25.2 0
      vertex -42.5 8.8 0
    endloop
  endfacet
  facet normal 0 -0 -1
    outer loop
      vertex -42.5 8.8 0
      vertex -42.5 25.2 0
      vertex -34.3 17 0
    endloop
  endfacet
  facet normal -0.660328 0.660328 0.357678
    outer loop
      vertex -50.7 17 0
      vertex -49.4 17 2.4
      vertex -42.5 25.2 0
    endloop
  endfacet
  facet normal -0.660328 0.660328 0.357678
    outer loop
      vertex -42.5 25.2 0
      vertex -49.4 17 2.4
      vertex -42.5 23.9 2.4
    endloop
  endfacet
  facet normal 0 0 1
    outer loop
      vertex -42.5 23.9 2.4
      vertex -49.4 17 2.4
      vertex -42.5 10.1 2.4
    endloop
  endfacet
  facet normal -0 0 1
    outer loop
      vertex -35.6 17 2.4
      vertex -42.5 23.9 2.4
      vertex -42.5 10.1 2.4
    endloop
  endfacet
  facet normal 0.660328 -0.660328 0.357678
    outer loop
      vertex -42.5 10.1 2.4
      vertex -42.5 8.8 0
      vertex -34.3 17 0
    endloop
  endfacet
  facet normal 0.660328 -0.660328 0.357678
    outer loop
      vertex -35.6 17 2.4
      vertex -42.5 10.1 2.4
      vertex -34.3 17 0
    endloop
  endfacet
  facet normal 0.660328 0.660328 0.357678
    outer loop
      vertex -42.5 23.9 2.4
      vertex -35.6 17 2.4
      vertex -42.5 25.2 0
    endloop
  endfacet
  facet normal 0.660328 0.660328 0.357678
    outer loop
      vertex -42.5 25.2 0
      vertex -35.6 17 2.4
      vertex -34.3 17 0
    endloop
  endfacet
  facet normal -0.660328 -0.660328 0.357678
    outer loop
      vertex -32.4 17 2.4
      vertex -33.7 17 0
      vertex -25.5 8.8 0
    endloop
  endfacet
  facet normal -0.660328 -0.660328 0.357678
    outer loop
      vertex -25.5 10.1 2.4
      vertex -32.4 17 2.4
      vertex -25.5 8.8 0
    endloop
  endfacet
  facet normal -0 0 -1
    outer loop
      vertex -33.7 17 0
      vertex -25.5 25.2 0
      vertex -25.5 8.8 0
    endloop
  endfacet
  facet normal 0 -0 -1
    outer loop
      vertex -25.5 8.8 0
      vertex -25.5 25.2 0
      vertex -17.3 17 0
    endloop
  endfacet
  facet normal -0.660328 0.660328 0.357678
    outer loop
      vertex -33.7 17 0
      vertex -32.4 17 2.4
      vertex -25.5 25.2 0
    endloop
  endfacet
  facet normal -0.660328 0.660328 0.357678
    outer loop
      vertex -25.5 25.2 0
      vertex -32.4 17 2.4
      vertex -25.5 23.9 2.4
    endloop
  endfacet
  facet normal 0 0 1
    outer loop
      vertex -25.5 23.9 2.4
      vertex -32.4 17 2.4
      vertex -25.5 10.1 2.4
    endloop
  endfacet
  facet normal -0 0 1
    outer loop
      vertex -18.6 17 2.4
      vertex -25.5 23.9 2.4
      vertex -25.5 10.1 2.4
    endloop
  endfacet
  facet normal 0.660328 -0.660328 0.357678
    outer loop
      vertex -25.5 10.1 2.4
      vertex -25.5 8.8 0
      vertex -17.3 17 0
    endloop
  endfacet
  facet normal 0.660328 -0.660328 0.357678
    outer loop
      vertex -18.6 17 2.4
      vertex -25.5 10.1 2.4
      vertex -17.3 17 0
    endloop
  endfacet
  facet normal 0.660328 0.660328 0.357678
    outer loop
      vertex -25.5 23.9 2.4
      vertex -18.6 17 2.4
      vertex -25.5 25.2 0
    endloop
  endfacet
  facet normal 0.660328 0.660328 0.357678
    outer loop
      vertex -25.5 25.2 0
      vertex -18.6 17 2.4
      vertex -17.3 17 0
    endloop
  endfacet
  facet normal -0.660328 -0.660328 0.357678
    outer loop
      vertex -15.4 17 2.4
      vertex -16.7 17 0
      vertex -8.5 8.8 0
    endloop
  endfacet
  facet normal -0.660328 -0.660328 0.357678
    outer loop
      vertex -8.5 10.1 2.4
      vertex -15.4 17 2.4
      vertex -8.5 8.8 0
    endloop
  endfacet
  facet normal -0 0 -1
    outer loop
      vertex -16.7 17 0
      vertex -8.5 25.2 0
      vertex -8.5 8.8 0
    endloop
  endfacet
  facet normal 0 -0 -1
    outer loop
      vertex -8.5 8.8 0
      vertex -8.5 25.2 0
      vertex -0.3 17 0
    endloop
  endfacet
  facet normal -0.660328 0.660328 0.357678
    outer loop
      vertex -16.7 17 0
      vertex -15.4 17 2.4
      vertex -8.5 25.2 0
    endloop
  endfacet
  facet normal -0.660328 0.660328 0.357678
    outer loop
      vertex -8.5 25.2 0
      vertex -15.4 17 2.4
      vertex -8.5 23.9 2.4
    endloop
  endfacet
  facet normal 0 0 1
    outer loop
      vertex -8.5 23.9 2.4
      vertex -15.4 17 2.4
      vertex -8.5 10.1 2.4
    endloop
  endfacet
  facet normal -0 0 1
    outer loop
      vertex -1.6 17 2.4
      vertex -8.5 23.9 2.4
      vertex -8.5 10.1 2.4
    endloop
  endfacet
  facet normal 0.660328 -0.660328 0.357678
    outer loop
      vertex -8.5 10.1 2.4
      vertex -8.5 8.8 0
      vertex -0.3 17 0
    endloop
  endfacet
  facet normal 0.660328 -0.660328 0.357678
    outer loop
      vertex -1.6 17 2.4
      vertex -8.5 10.1 2.4
      vertex -0.3 17 0
    endloop
  endfacet
  facet normal 0.660328 0.660328 0.357678
    outer loop
      vertex -8.5 23.9 2.4
      vertex -1.6 17 2.4
      vertex -8.5 25.2 0
    endloop
  endfacet
  facet normal 0.660328 0.660328 0.357678
    outer loop
      vertex -8.5 25.2 0
      vertex -1.6 17 2.4
      vertex -0.3 17 0
    endloop
  endfacet
  facet normal -0.660328 -0.660328 0.357678
    outer loop
      vertex 1.6 17 2.4
      vertex 0.3 17 0
      vertex 8.5 8.8 0
    endloop
  endfacet
  facet normal -0.660328 -0.660328 0.357678
    outer loop
      vertex 8.5 10.1 2.4
      vertex 1.6 17 2.4
      vertex 8.5 8.8 0
    endloop
  endfacet
  facet normal -0 0 -1
    outer loop
      vertex 0.3 17 0
      vertex 8.5 25.2 0
      vertex 8.5 8.8 0
    endloop
  endfacet
  facet normal 0 -0 -1
    outer loop
      vertex 8.5 8.8 0
      vertex 8.5 25.2 0
      vertex 16.7 17 0
    endloop
  endfacet
  facet normal -0.660328 0.660328 0.357678
    outer loop
      vertex 0.3 17 0
      vertex 1.6 17 2.4
      vertex 8.5 25.2 0
    endloop
  endfacet
  facet normal -0.660328 0.660328 0.357678
    outer loop
      vertex 8.5 25.2 0
      vertex 1.6 17 2.4
      vertex 8.5 23.9 2.4
    endloop
  endfacet
  facet normal 0 0 1
    outer loop
      vertex 8.5 23.9 2.4
      vertex 1.6 17 2.4
      vertex 8.5 10.1 2.4
    endloop
  endfacet
  facet normal -0 0 1
    outer loop
      vertex 15.4 17 2.4
      vertex 8.5 23.9 2.4
      vertex 8.5 10.1 2.4
    endloop
  endfacet
  facet normal 0.660328 -0.660328 0.357678
    outer loop
      vertex 8.5 10.1 2.4
      vertex 8.5 8.8 0
      vertex 16.7 17 0
    endloop
  endfacet
  facet normal 0.660328 -0.660328 0.357678
    outer loop
      vertex 15.4 17 2.4
      vertex 8.5 10.1 2.4
      vertex 16.7 17 0
    endloop
  endfacet
  facet normal 0.660328 0.660328 0.357678
    outer loop
      vertex 8.5 23.9 2.4
      vertex 15.4 17 2.4
      vertex 8.5 25.2 0
    endloop
  endfacet
  facet normal 0.660328 0.660328 0.357678
    outer loop
      vertex 8.5 25.2 0
      vertex 15.4 17 2.4
      vertex 16.7 17 0
    endloop
  endfacet
  facet normal -0.660328 -0.660328 0.357678
    outer loop
      vertex 18.6 17 2.4
      vertex 17.3 17 0
      vertex 25.5 8.8 0
    endloop
  endfacet
  facet normal -0.660328 -0.660328 0.357678
    outer loop
      vertex 25.5 10.1 2.4
      vertex 18.6 17 2.4
      vertex 25.5 8.8 0
    endloop
  endfacet
  facet normal -0 0 -1
    outer loop
      vertex 17.3 17 0
      vertex 25.5 25.2 0
      vertex 25.5 8.8 0
    endloop
  endfacet
  facet normal 0 -0 -1
    outer loop
      vertex 25.5 8.8 0
      vertex 25.5 25.2 0
      vertex 33.7 17 0
    endloop
  endfacet
  facet normal -0.660328 0.660328 0.357678
    outer loop
      vertex 17.3 17 0
      vertex 18.6 17 2.4
      vertex 25.5 25.2 0
    endloop
  endfacet
  facet normal -0.660328 0.660328 0.357678
    outer loop
      vertex 25.5 25.2 0
      vertex 18.6 17 2.4
      vertex 25.5 23.9 2.4
    endloop
  endfacet
  facet normal 0 0 1
    outer loop
      vertex 25.5 23.9 2.4
      vertex 18.6 17 2.4
      vertex 25.5 10.1 2.4
    endloop
  endfacet
  facet normal -0 0 1
    outer loop
      vertex 32.4 17 2.4
      vertex 25.5 23.9 2.4
      vertex 25.5 10.1 2.4
    endloop
  endfacet
  facet normal 0.660328 -0.660328 0.357678
    outer loop
      vertex 25.5 10.1 2.4
      vertex 25.5 8.8 0
      vertex 33.7 17 0
    endloop
  endfacet
  facet normal 0.660328 -0.660328 0.357678
    outer loop
      vertex 32.4 17 2.4
      vertex 25.5 10.1 2.4
      vertex 33.7 17 0
    endloop
  endfacet
  facet normal 0.660328 0.660328 0.357678
    outer loop
      vertex 25.5 23.9 2.4
      vertex 32.4 17 2.4
      vertex 25.5 25.2 0
    endloop
  endfacet
  facet normal 0.660328 0.660328 0.357678
    outer loop
      vertex 25.5 25.2 0
      vertex 32.4 17 2.4
      vertex 33.7 17 0
    endloop
  endfacet
  facet normal -0.660328 -0.660328 0.357678
    outer loop
      vertex 36.6 17 2.4
      vertex 35.3 17 0
      vertex 43.5 8.8 0
    endloop
  endfacet
  facet normal -0.660328 -0.660328 0.357678
    outer loop
      vertex 43.5 10.1 2.4
      vertex 36.6 17 2.4
      vertex 43.5 8.8 0
    endloop
  endfacet
  facet normal -0 0 -1
    outer loop
      vertex 35.3 17 0
      vertex 43.5 25.2 0
      vertex 43.5 8.8 0
    endloop
  endfacet
  facet normal 0 -0 -1
    outer loop
      vertex 43.5 8.8 0
      vertex 43.5 25.2 0
      vertex 51.7 17 0
    endloop
  endfacet
  facet normal -0.660328 0.660328 0.357678
    outer loop
      vertex 35.3 17 0
      vertex 36.6 17 2.4
      vertex 43.5 25.2 0
    endloop
  endfacet
  facet normal -0.660328 0.660328 0.357678
    outer loop
      vertex 43.5 25.2 0
      vertex 36.6 17 2.4
      vertex 43.5 23.9 2.4
    endloop
  endfacet
  facet normal 0 0 1
    outer loop
      vertex 43.5 23.9 2.4
      vertex 36.6 17 2.4
      vertex 43.5 10.1 2.4
    endloop
  endfacet
  facet normal -0 0 1
    outer loop
      vertex 50.4 17 2.4
      vertex 43.5 23.9 2.4
      vertex 43.5 10.1 2.4
    endloop
  endfacet
  facet normal 0.660328 -0.660328 0.357678
    outer loop
      vertex 43.5 10.1 2.4
      vertex 43.5 8.8 0
      vertex 51.7 17 0
    endloop
  endfacet
  facet normal 0.660328 -0.660328 0.357678
    outer loop
      vertex 50.4 17 2.4
      vertex 43.5 10.1 2.4
      vertex 51.7 17 0
    endloop
  endfacet
  facet normal 0.660328 0.660328 0.357678
    outer loop
      vertex 43.5 23.9 2.4
      vertex 50.4 17 2.4
      vertex 43.5 25.2 0
    endloop
  endfacet
  facet normal 0.660328 0.660328 0.357678
    outer loop
      vertex 43.5 25.2 0
      vertex 50.4 17 2.4
      vertex 51.7 17 0
    endloop
  endfacet
  facet normal -0.660328 -0.660328 0.357678
    outer loop
      vertex -49.4 34 2.4
      vertex -50.7 34 0
      vertex -42.5 25.8 0
    endloop
  endfacet
  facet normal -0.660328 -0.660328 0.357678
    outer loop
      vertex -42.5 27.1 2.4
      vertex -49.4 34 2.4
      vertex -42.5 25.8 0
    endloop
  endfacet
  facet normal -0 0 -1
    outer loop
      vertex -50.7 34 0
      vertex -42.5 42.2 0
      vertex -42.5 25.8 0
    endloop
  endfacet
  facet normal 0 -0 -1
    outer loop
      vertex -42.5 25.8 0
      vertex -42.5 42.2 0
      vertex -34.3 34 0
    endloop
  endfacet
  facet normal -0.660328 0.660328 0.357678
    outer loop
      vertex -50.7 34 0
      vertex -49.4 34 2.4
      vertex -42.5 42.2 0
    endloop
  endfacet
  facet normal -0.660328 0.660328 0.357678
    outer loop
      vertex -42.5 42.2 0
      vertex -49.4 34 2.4
      vertex -42.5 40.9 2.4
    endloop
  endfacet
  facet normal 0 0 1
    outer loop
      vertex -42.5 40.9 2.4
      vertex -49.4 34 2.4
      vertex -42.5 27.1 2.4
    endloop
  endfacet
  facet normal -0 0 1
    outer loop
      vertex -35.6 34 2.4
      vertex -42.5 40.9 2.4
      vertex -42.5 27.1 2.4
    endloop
  endfacet
  facet normal 0.660328 -0.660328 0.357678
    outer loop
      vertex -42.5 27.1 2.4
      vertex -42.5 25.8 0
      vertex -34.3 34 0
    endloop
  endfacet
  facet normal 0.660328 -0.660328 0.357678
    outer loop
      vertex -35.6 34 2.4
      vertex -42.5 27.1 2.4
      vertex -34.3 34 0
    endloop
  endfacet
  facet normal 0.660328 0.660328 0.357678
    outer loop
      vertex -42.5 40.9 2.4
      vertex -35.6 34 2.4
      vertex -42.5 42.2 0
    endloop
  endfacet
  facet normal 0.660328 0.660328 0.357678
    outer loop
      vertex -42.5 42.2 0
      vertex -35.6 34 2.4
      vertex -34.3 34 0
    endloop
  endfacet
  facet normal -0.660328 -0.660328 0.357678
    outer loop
      vertex -32.4 34 2.4
      vertex -33.7 34 0
      vertex -25.5 25.8 0
    endloop
  endfacet
  facet normal -0.660328 -0.660328 0.357678
    outer loop
      vertex -25.5 27.1 2.4
      vertex -32.4 34 2.4
      vertex -25.5 25.8 0
    endloop
  endfacet
  facet normal -0 0 -1
    outer loop
      vertex -33.7 34 0
      vertex -25.5 42.2 0
      vertex -25.5 25.8 0
    endloop
  endfacet
  facet normal 0 -0 -1
    outer loop
      vertex -25.5 25.8 0
      vertex -25.5 42.2 0
      vertex -17.3 34 0
    endloop
  endfacet
  facet normal -0.660328 0.660328 0.357678
    outer loop
      vertex -33.7 34 0
      vertex -32.4 34 2.4
      vertex -25.5 42.2 0
    endloop
  endfacet
  facet normal -0.660328 0.660328 0.357678
    outer loop
      vertex -25.5 42.2 0
      vertex -32.4 34 2.4
      vertex -25.5 40.9 2.4
    endloop
  endfacet
  facet normal 0 0 1
    outer loop
      vertex -25.5 40.9 2.4
      vertex -32.4 34 2.4
      vertex -25.5 27.1 2.4
    endloop
  endfacet
  facet normal -0 0 1
    outer loop
      vertex -18.6 34 2.4
      vertex -25.5 40.9 2.4
      vertex -25.5 27.1 2.4
    endloop
  endfacet
  facet normal 0.660328 -0.660328 0.357678
    outer loop
      vertex -25.5 27.1 2.4
      vertex -25.5 25.8 0
      vertex -17.3 34 0
    endloop
  endfacet
  facet normal 0.660328 -0.660328 0.357678
    outer loop
      vertex -18.6 34 2.4
      vertex -25.5 27.1 2.4
      vertex -17.3 34 0
    endloop
  endfacet
  facet normal 0.660328 0.660328 0.357678
    outer loop
      vertex -25.5 40.9 2.4
      vertex -18.6 34 2.4
      vertex -25.5 42.2 0
    endloop
  endfacet
  facet normal 0.660328 0.660328 0.357678
    outer loop
      vertex -25.5 42.2 0
      vertex -18.6 34 2.4
      vertex -17.3 34 0
    endloop
  endfacet
  facet normal -0.660328 -0.660328 0.357678
    outer loop
      vertex -15.4 34 2.4
      vertex -16.7 34 0
      vertex -8.5 25.8 0
    endloop
  endfacet
  facet normal -0.660328 -0.660328 0.357678
    outer loop
      vertex -8.5 27.1 2.4
      vertex -15.4 34 2.4
      vertex -8.5 25.8 0
    endloop
  endfacet
  facet normal -0 0 -1
    outer loop
      vertex -16.7 34 0
      vertex -8.5 42.2 0
      vertex -8.5 25.8 0
    endloop
  endfacet
  facet normal 0 -0 -1
    outer loop
      vertex -8.5 25.8 0
      vertex -8.5 42.2 0
      vertex -0.3 34 0
    endloop
  endfacet
  facet normal -0.660328 0.660328 0.357678
    outer loop
      vertex -16.7 34 0
      vertex -15.4 34 2.4
      vertex -8.5 42.2 0
    endloop
  endfacet
  facet normal -0.660328 0.660328 0.357678
    outer loop
      vertex -8.5 42.2 0
      vertex -15.4 34 2.4
      vertex -8.5 40.9 2.4
    endloop
  endfacet
  facet normal 0 0 1
    outer loop
      vertex -8.5 40.9 2.4
      vertex -15.4 34 2.4
      vertex -8.5 27.1 2.4
    endloop
  endfacet
  facet normal -0 0 1
    outer loop
      vertex -1.6 34 2.4
      vertex -8.5 40.9 2.4
      vertex -8.5 27.1 2.4
    endloop
  endfacet
  facet normal 0.660328 -0.660328 0.357678
    outer loop
      vertex -8.5 27.1 2.4
      vertex -8.5 25.8 0
      vertex -0.3 34 0
    endloop
  endfacet
  facet normal 0.660328 -0.660328 0.357678
    outer loop
      vertex -1.6 34 2.4
      vertex -8.5 27.1 2.4
      vertex -0.3 34 0
    endloop
  endfacet
  facet normal 0.660328 0.660328 0.357678
    outer loop
      vertex -8.5 40.9 2.4
      vertex -1.6 34 2.4
      vertex -8.5 42.2 0
    endloop
  endfacet
  facet normal 0.660328 0.660328 0.357678
    outer loop
      vertex -8.5 42.2 0
      vertex -1.6 34 2.4
      vertex -0.3 34 0
    endloop
  endfacet
  facet normal -0.660328 -0.660328 0.357678
    outer loop
      vertex 1.6 34 2.4
      vertex 0.3 34 0
      vertex 8.5 25.8 0
    endloop
  endfacet
  facet normal -0.660328 -0.660328 0.357678
    outer loop
      vertex 8.5 27.1 2.4
      vertex 1.6 34 2.4
      vertex 8.5 25.8 0
    endloop
  endfacet
  facet normal -0 0 -1
    outer loop
      vertex 0.3 34 0
      vertex 8.5 42.2 0
      vertex 8.5 25.8 0
    endloop
  endfacet
  facet normal 0 -0 -1
    outer loop
      vertex 8.5 25.8 0
      vertex 8.5 42.2 0
      vertex 16.7 34 0
    endloop
  endfacet
  facet normal -0.660328 0.660328 0.357678
    outer loop
      vertex 0.3 34 0
      vertex 1.6 34 2.4
      vertex 8.5 42.2 0
    endloop
  endfacet
  facet normal -0.660328 0.660328 0.357678
    outer loop
      vertex 8.5 42.2 0
      vertex 1.6 34 2.4
      vertex 8.5 40.9 2.4
    endloop
  endfacet
  facet normal 0 0 1
    outer loop
      vertex 8.5 40.9 2.4
      vertex 1.6 34 2.4
      vertex 8.5 27.1 2.4
    endloop
  endfacet
  facet normal -0 0 1
    outer loop
      vertex 15.4 34 2.4
      vertex 8.5 40.9 2.4
      vertex 8.5 27.1 2.4
    endloop
  endfacet
  facet normal 0.660328 -0.660328 0.357678
    outer loop
      vertex 8.5 27.1 2.4
      vertex 8.5 25.8 0
      vertex 16.7 34 0
    endloop
  endfacet
  facet normal 0.660328 -0.660328 0.357678
    outer loop
      vertex 15.4 34 2.4
      vertex 8.5 27.1 2.4
      vertex 16.7 34 0
    endloop
  endfacet
  facet normal 0.660328 0.660328 0.357678
    outer loop
      vertex 8.5 40.9 2.4
      vertex 15.4 34 2.4
      vertex 8.5 42.2 0
    endloop
  endfacet
  facet normal 0.660328 0.660328 0.357678
    outer loop
      vertex 8.5 42.2 0
      vertex 15.4 34 2.4
      vertex 16.7 34 0
    endloop
  endfacet
  facet normal -0.660328 -0.660328 0.357678
    outer loop
      vertex 18.6 34 2.4
      vertex 17.3 34 0
      vertex 25.5 25.8 0
    endloop
  endfacet
  facet normal -0.660328 -0.660328 0.357678
    outer loop
      vertex 25.5 27.1 2.4
      vertex 18.6 34 2.4
      vertex 25.5 25.8 0
    endloop
  endfacet
  facet normal -0 0 -1
    outer loop
      vertex 17.3 34 0
      vertex 25.5 42.2 0
      vertex 25.5 25.8 0
    endloop
  endfacet
  facet normal 0 -0 -1
    outer loop
      vertex 25.5 25.8 0
      vertex 25.5 42.2 0
      vertex 33.7 34 0
    endloop
  endfacet
  facet normal -0.660328 0.660328 0.357678
    outer loop
      vertex 17.3 34 0
      vertex 18.6 34 2.4
      vertex 25.5 42.2 0
    endloop
  endfacet
  facet normal -0.660328 0.660328 0.357678
    outer loop
      vertex 25.5 42.2 0
      vertex 18.6 34 2.4
      vertex 25.5 40.9 2.4
    endloop
  endfacet
  facet normal 0 0 1
    outer loop
      vertex 25.5 40.9 2.4
      vertex 18.6 34 2.4
      vertex 25.5 27.1 2.4
    endloop
  endfacet
  facet normal -0 0 1
    outer loop
      vertex 32.4 34 2.4
      vertex 25.5 40.9 2.4
      vertex 25.5 27.1 2.4
    endloop
  endfacet
  facet normal 0.660328 -0.660328 0.357678
    outer loop
      vertex 25.5 27.1 2.4
      vertex 25.5 25.8 0
      vertex 33.7 34 0
    endloop
  endfacet
  facet normal 0.660328 -0.660328 0.357678
    outer loop
      vertex 32.4 34 2.4
      vertex 25.5 27.1 2.4
      vertex 33.7 34 0
    endloop
  endfacet
  facet normal 0.660328 0.660328 0.357678
    outer loop
      vertex 25.5 40.9 2.4
      vertex 32.4 34 2.4
      vertex 25.5 42.2 0
    endloop
  endfacet
  facet normal 0.660328 0.660328 0.357678
    outer loop
      vertex 25.5 42.2 0
      vertex 32.4 34 2.4
      vertex 33.7 34 0
    endloop
  endfacet
  facet normal -0.660328 -0.660328 0.357678
    outer loop
      vertex 36.6 34 2.4
      vertex 35.3 34 0
      vertex 43.5 25.8 0
    endloop
  endfacet
  facet normal -0.660328 -0.660328 0.357678
    outer loop
      vertex 43.5 27.1 2.4
      vertex 36.6 34 2.4
      vertex 43.5 25.8 0
    endloop
  endfacet
  facet normal -0 0 -1
    outer loop
      vertex 35.3 34 0
      vertex 43.5 42.2 0
      vertex 43.5 25.8 0
    endloop
  endfacet
  facet normal 0 -0 -1
    outer loop
      vertex 43.5 25.8 0
      vertex 43.5 42.2 0
      vertex 51.7 34 0
    endloop
  endfacet
  facet normal -0.660328 0.660328 0.357678
    outer loop
      vertex 35.3 34 0
      vertex 36.6 34 2.4
      vertex 43.5 42.2 0
    endloop
  endfacet
  facet normal -0.660328 0.660328 0.357678
    outer loop
      vertex 43.5 42.2 0
      vertex 36.6 34 2.4
      vertex 43.5 40.9 2.4
    endloop
  endfacet
  facet normal 0 0 1
    outer loop
      vertex 43.5 40.9 2.4
      vertex 36.6 34 2.4
      vertex 43.5 27.1 2.4
    endloop
  endfacet
  facet normal -0 0 1
    outer loop
      vertex 50.4 34 2.4
      vertex 43.5 40.9 2.4
      vertex 43.5 27.1 2.4
    endloop
  endfacet
  facet normal 0.660328 -0.660328 0.357678
    outer loop
      vertex 43.5 27.1 2.4
      vertex 43.5 25.8 0
      vertex 51.7 34 0
    endloop
  endfacet
  facet normal 0.660328 -0.660328 0.357678
    outer loop
      vertex 50.4 34 2.4
      vertex 43.5 27.1 2.4
      vertex 51.7 34 0
    endloop
  endfacet
  facet normal 0.660328 0.660328 0.357678
    outer loop
      vertex 43.5 40.9 2.4
      vertex 50.4 34 2.4
      vertex 43.5 42.2 0
    endloop
  endfacet
  facet normal 0.660328 0.660328 0.357678
    outer loop
      vertex 43.5 42.2 0
      vertex 50.4 34 2.4
      vertex 51.7 34 0
    endloop
  endfacet
endsolid OpenSCAD_Model
