solid OpenSCAD_Model
  facet normal 0.485071 -0.840168 0.242536
    outer loop
      vertex -26.5 -30 2.4
      vertex -35.35 -35.8024 0
      vertex -25.3 -30 0
    endloop
  endfacet
  facet normal 0 0 -1
    outer loop
      vertex -25.3 -30 0
      vertex -35.35 -35.8024 0
      vertex -35.35 -24.1976 0
    endloop
  endfacet
  facet normal -0.970143 0 0.242536
    outer loop
      vertex -35.35 -35.8024 0
      vertex -34.75 -34.7631 2.4
      vertex -35.35 -24.1976 0
    endloop
  endfacet
  facet normal -0.970143 0 0.242536
    outer loop
      vertex -35.35 -24.1976 0
      vertex -34.75 -34.7631 2.4
      vertex -34.75 -25.2369 2.4
    endloop
  endfacet
  facet normal 0.485071 -0.840168 0.242535
    outer loop
      vertex -34.75 -34.7631 2.4
      vertex -35.35 -35.8024 0
      vertex -26.5 -30 2.4
    endloop
  endfacet
  facet normal 0 -0 1
    outer loop
      vertex -34.75 -25.2369 2.4
      vertex -34.75 -34.7631 2.4
      vertex -26.5 -30 2.4
    endloop
  endfacet
  facet normal 0.485071 0.840168 0.242535
    outer loop
      vertex -26.5 -30 2.4
      vertex -35.35 -24.1976 0
      vertex -34.75 -25.2369 2.4
    endloop
  endfacet
  facet normal 0.485071 0.840168 0.242536
    outer loop
      vertex -25.3 -30 0
      vertex -35.35 -24.1976 0
      vertex -26.5 -30 2.4
    endloop
  endfacet
  facet normal 0.485071 -0.840168 0.242536
    outer loop
      vertex -10.5 -30 2.4
      vertex -19.35 -35.8024 0
      vertex -9.3 -30 0
    endloop
  endfacet
  facet normal 0 0 -1
    outer loop
      vertex -9.3 -30 0
      vertex -19.35 -35.8024 0
      vertex -19.35 -24.1976 0
    endloop
  endfacet
  facet normal -0.970143 0 0.242536
    outer loop
      vertex -19.35 -35.8024 0
      vertex -18.75 -34.7631 2.4
      vertex -19.35 -24.1976 0
    endloop
  endfacet
  facet normal -0.970143 0 0.242536
    outer loop
      vertex -19.35 -24.1976 0
      vertex -18.75 -34.7631 2.4
      vertex -18.75 -25.2369 2.4
    endloop
  endfacet
  facet normal 0.485071 -0.840168 0.242535
    outer loop
      vertex -18.75 -34.7631 2.4
      vertex -19.35 -35.8024 0
      vertex -10.5 -30 2.4
    endloop
  endfacet
  facet normal 0 -0 1
    outer loop
      vertex -18.75 -25.2369 2.4
      vertex -18.75 -34.7631 2.4
      vertex -10.5 -30 2.4
    endloop
  endfacet
  facet normal 0.485071 0.840168 0.242535
    outer loop
      vertex -10.5 -30 2.4
      vertex -19.35 -24.1976 0
      vertex -18.75 -25.2369 2.4
    endloop
  endfacet
  facet normal 0.485071 0.840168 0.242536
    outer loop
      vertex -9.3 -30 0
      vertex -19.35 -24.1976 0
      vertex -10.5 -30 2.4
    endloop
  endfacet
  facet normal 0.485071 -0.840168 0.242536
    outer loop
      vertex 5.5 -30 2.4
      vertex -3.35 -35.8024 0
      vertex 6.7 -30 0
    endloop
  endfacet
  facet normal 0 0 -1
    outer loop
      vertex 6.7 -30 0
      vertex -3.35 -35.8024 0
      vertex -3.35 -24.1976 0
    endloop
  endfacet
  facet normal -0.970143 0 0.242536
    outer loop
      vertex -3.35 -35.8024 0
      vertex -2.75 -34.7631 2.4
      vertex -3.35 -24.1976 0
    endloop
  endfacet
  facet normal -0.970143 0 0.242536
    outer loop
      vertex -3.35 -24.1976 0
      vertex -2.75 -34.7631 2.4
      vertex -2.75 -25.2369 2.4
    endloop
  endfacet
  facet normal 0.485071 -0.840168 0.242535
    outer loop
      vertex -2.75 -34.7631 2.4
      vertex -3.35 -35.8024 0
      vertex 5.5 -30 2.4
    endloop
  endfacet
  facet normal 0 -0 1
    outer loop
      vertex -2.75 -25.2369 2.4
      vertex -2.75 -34.7631 2.4
      vertex 5.5 -30 2.4
    endloop
  endfacet
  facet normal 0.485071 0.840168 0.242535
    outer loop
      vertex 5.5 -30 2.4
      vertex -3.35 -24.1976 0
      vertex -2.75 -25.2369 2.4
    endloop
  endfacet
  facet normal 0.485071 0.840168 0.242536
    outer loop
      vertex 6.7 -30 0
      vertex -3.35 -24.1976 0
      vertex 5.5 -30 2.4
    endloop
  endfacet
  facet normal 0.485071 -0.840168 0.242536
    outer loop
      vertex 21.5 -30 2.4
      vertex 12.65 -35.8024 0
      vertex 22.7 -30 0
    endloop
  endfacet
  facet normal 0 0 -1
    outer loop
      vertex 22.7 -30 0
      vertex 12.65 -35.8024 0
      vertex 12.65 -24.1976 0
    endloop
  endfacet
  facet normal -0.970143 0 0.242536
    outer loop
      vertex 12.65 -35.8024 0
      vertex 13.25 -34.7631 2.4
      vertex 12.65 -24.1976 0
    endloop
  endfacet
  facet normal -0.970143 0 0.242536
    outer loop
      vertex 12.65 -24.1976 0
      vertex 13.25 -34.7631 2.4
      vertex 13.25 -25.2369 2.4
    endloop
  endfacet
  facet normal 0.485071 -0.840168 0.242535
    outer loop
      vertex 13.25 -34.7631 2.4
      vertex 12.65 -35.8024 0
      vertex 21.5 -30 2.4
    endloop
  endfacet
  facet normal 0 -0 1
    outer loop
      vertex 13.25 -25.2369 2.4
      vertex 13.25 -34.7631 2.4
      vertex 21.5 -30 2.4
    endloop
  endfacet
  facet normal 0.485071 0.840168 0.242535
    outer loop
      vertex 21.5 -30 2.4
      vertex 12.65 -24.1976 0
      vertex 13.25 -25.2369 2.4
    endloop
  endfacet
  facet normal 0.485071 0.840168 0.242536
    outer loop
      vertex 22.7 -30 0
      vertex 12.65 -24.1976 0
      vertex 21.5 -30 2.4
    endloop
  endfacet
  facet normal 0.485071 -0.840168 0.242536
    outer loop
      vertex 37.5 -30 2.4
      vertex 28.65 -35.8024 0
      vertex 38.7 -30 0
    endloop
  endfacet
  facet normal 0 0 -1
    outer loop
      vertex 38.7 -30 0
      vertex 28.65 -35.8024 0
      vertex 28.65 -24.1976 0
    endloop
  endfacet
  facet normal -0.970143 0 0.242536
    outer loop
      vertex 28.65 -35.8024 0
      vertex 29.25 -34.7631 2.4
      vertex 28.65 -24.1976 0
    endloop
  endfacet
  facet normal -0.970143 0 0.242536
    outer loop
      vertex 28.65 -24.1976 0
      vertex 29.25 -34.7631 2.4
      vertex 29.25 -25.2369 2.4
    endloop
  endfacet
  facet normal 0.485071 -0.840168 0.242535
    outer loop
      vertex 29.25 -34.7631 2.4
      vertex 28.65 -35.8024 0
      vertex 37.5 -30 2.4
    endloop
  endfacet
  facet normal 0 -0 1
    outer loop
      vertex 29.25 -25.2369 2.4
      vertex 29.25 -34.7631 2.4
      vertex 37.5 -30 2.4
    endloop
  endfacet
  facet normal 0.485071 0.840168 0.242535
    outer loop
      vertex 37.5 -30 2.4
      vertex 28.65 -24.1976 0
      vertex 29.25 -25.2369 2.4
    endloop
  endfacet
  facet normal 0.485071 0.840168 0.242536
    outer loop
      vertex 38.7 -30 0
      vertex 28.65 -24.1976 0
      vertex 37.5 -30 2.4
    endloop
  endfacet
  facet normal 0.485071 -0.840168 0.242536
    outer loop
      vertex -26.5 -15 2.4
      vertex -35.35 -20.8024 0
      vertex -25.3 -15 0
    endloop
  endfacet
  facet normal 0 0 -1
    outer loop
      vertex -25.3 -15 0
      vertex -35.35 -20.8024 0
      vertex -35.35 -9.19763 0
    endloop
  endfacet
  facet normal -0.970143 0 0.242536
    outer loop
      vertex -35.35 -20.8024 0
      vertex -34.75 -19.7631 2.4
      vertex -35.35 -9.19763 0
    endloop
  endfacet
  facet normal -0.970143 0 0.242536
    outer loop
      vertex -35.35 -9.19763 0
      vertex -34.75 -19.7631 2.4
      vertex -34.75 -10.2369 2.4
    endloop
  endfacet
  facet normal 0.485071 -0.840168 0.242535
    outer loop
      vertex -34.75 -19.7631 2.4
      vertex -35.35 -20.8024 0
      vertex -26.5 -15 2.4
    endloop
  endfacet
  facet normal 0 -0 1
    outer loop
      vertex -34.75 -10.2369 2.4
      vertex -34.75 -19.7631 2.4
      vertex -26.5 -15 2.4
    endloop
  endfacet
  facet normal 0.485071 0.840168 0.242535
    outer loop
      vertex -26.5 -15 2.4
      vertex -35.35 -9.19763 0
      vertex -34.75 -10.2369 2.4
    endloop
  endfacet
  facet normal 0.485071 0.840168 0.242536
    outer loop
      vertex -25.3 -15 0
      vertex -35.35 -9.19763 0
      vertex -26.5 -15 2.4
    endloop
  endfacet
  facet normal 0.485071 -0.840168 0.242536
    outer loop
      vertex -10.5 -15 2.4
      vertex -19.35 -20.8024 0
      vertex -9.3 -15 0
    endloop
  endfacet
  facet normal 0 0 -1
    outer loop
      vertex -9.3 -15 0
      vertex -19.35 -20.8024 0
      vertex -19.35 -9.19763 0
    endloop
  endfacet
  facet normal -0.970143 0 0.242536
    outer loop
      vertex -19.35 -20.8024 0
      vertex -18.75 -19.7631 2.4
      vertex -19.35 -9.19763 0
    endloop
  endfacet
  facet normal -0.970143 0 0.242536
    outer loop
      vertex -19.35 -9.19763 0
      vertex -18.75 -19.7631 2.4
      vertex -18.75 -10.2369 2.4
    endloop
  endfacet
  facet normal 0.485071 -0.840168 0.242535
    outer loop
      vertex -18.75 -19.7631 2.4
      vertex -19.35 -20.8024 0
      vertex -10.5 -15 2.4
    endloop
  endfacet
  facet normal 0 -0 1
    outer loop
      vertex -18.75 -10.2369 2.4
      vertex -18.75 -19.7631 2.4
      vertex -10.5 -15 2.4
    endloop
  endfacet
  facet normal 0.485071 0.840168 0.242535
    outer loop
      vertex -10.5 -15 2.4
      vertex -19.35 -9.19763 0
      vertex -18.75 -10.2369 2.4
    endloop
  endfacet
  facet normal 0.485071 0.840168 0.242536
    outer loop
      vertex -9.3 -15 0
      vertex -19.35 -9.19763 0
      vertex -10.5 -15 2.4
    endloop
  endfacet
  facet normal 0.485071 -0.840168 0.242536
    outer loop
      vertex 5.5 -15 2.4
      vertex -3.35 -20.8024 0
      vertex 6.7 -15 0
    endloop
  endfacet
  facet normal 0 0 -1
    outer loop
      vertex 6.7 -15 0
      vertex -3.35 -20.8024 0
      vertex -3.35 -9.19763 0
    endloop
  endfacet
  facet normal -0.970143 0 0.242536
    outer loop
      vertex -3.35 -20.8024 0
      vertex -2.75 -19.7631 2.4
      vertex -3.35 -9.19763 0
    endloop
  endfacet
  facet normal -0.970143 0 0.242536
    outer loop
      vertex -3.35 -9.19763 0
      vertex -2.75 -19.7631 2.4
      vertex -2.75 -10.2369 2.4
    endloop
  endfacet
  facet normal 0.485071 -0.840168 0.242535
    outer loop
      vertex -2.75 -19.7631 2.4
      vertex -3.35 -20.8024 0
      vertex 5.5 -15 2.4
    endloop
  endfacet
  facet normal 0 -0 1
    outer loop
      vertex -2.75 -10.2369 2.4
      vertex -2.75 -19.7631 2.4
      vertex 5.5 -15 2.4
    endloop
  endfacet
  facet normal 0.485071 0.840168 0.242535
    outer loop
      vertex 5.5 -15 2.4
      vertex -3.35 -9.19763 0
      vertex -2.75 -10.2369 2.4
    endloop
  endfacet
  facet normal 0.485071 0.840168 0.242536
    outer loop
      vertex 6.7 -15 0
      vertex -3.35 -9.19763 0
      vertex 5.5 -15 2.4
    endloop
  endfacet
  facet normal 0.485071 -0.840168 0.242536
    outer loop
      vertex 21.5 -15 2.4
      vertex 12.65 -20.8024 0
      vertex 22.7 -15 0
    endloop
  endfacet
  facet normal 0 0 -1
    outer loop
      vertex 22.7 -15 0
      vertex 12.65 -20.8024 0
      vertex 12.65 -9.19763 0
    endloop
  endfacet
  facet normal -0.970143 0 0.242536
    outer loop
      vertex 12.65 -20.8024 0
      vertex 13.25 -19.7631 2.4
      vertex 12.65 -9.19763 0
    endloop
  endfacet
  facet normal -0.970143 0 0.242536
    outer loop
      vertex 12.65 -9.19763 0
      vertex 13.25 -19.7631 2.4
      vertex 13.25 -10.2369 2.4
    endloop
  endfacet
  facet normal 0.485071 -0.840168 0.242535
    outer loop
      vertex 13.25 -19.7631 2.4
      vertex 12.65 -20.8024 0
      vertex 21.5 -15 2.4
    endloop
  endfacet
  facet normal 0 -0 1
    outer loop
      vertex 13.25 -10.2369 2.4
      vertex 13.25 -19.7631 2.4
      vertex 21.5 -15 2.4
    endloop
  endfacet
  facet normal 0.485071 0.840168 0.242535
    outer loop
      vertex 21.5 -15 2.4
      vertex 12.65 -9.19763 0
      vertex 13.25 -10.2369 2.4
    endloop
  endfacet
  facet normal 0.485071 0.840168 0.242536
    outer loop
      vertex 22.7 -15 0
      vertex 12.65 -9.19763 0
      vertex 21.5 -15 2.4
    endloop
  endfacet
  facet normal 0.485071 -0.840168 0.242536
    outer loop
      vertex 37.5 -15 2.4
      vertex 28.65 -20.8024 0
      vertex 38.7 -15 0
    endloop
  endfacet
  facet normal 0 0 -1
    outer loop
      vertex 38.7 -15 0
      vertex 28.65 -20.8024 0
      vertex 28.65 -9.19763 0
    endloop
  endfacet
  facet normal -0.970143 0 0.242536
    outer loop
      vertex 28.65 -20.8024 0
      vertex 29.25 -19.7631 2.4
      vertex 28.65 -9.19763 0
    endloop
  endfacet
  facet normal -0.970143 0 0.242536
    outer loop
      vertex 28.65 -9.19763 0
      vertex 29.25 -19.7631 2.4
      vertex 29.25 -10.2369 2.4
    endloop
  endfacet
  facet normal 0.485071 -0.840168 0.242535
    outer loop
      vertex 29.25 -19.7631 2.4
      vertex 28.65 -20.8024 0
      vertex 37.5 -15 2.4
    endloop
  endfacet
  facet normal 0 -0 1
    outer loop
      vertex 29.25 -10.2369 2.4
      vertex 29.25 -19.7631 2.4
      vertex 37.5 -15 2.4
    endloop
  endfacet
  facet normal 0.485071 0.840168 0.242535
    outer loop
      vertex 37.5 -15 2.4
      vertex 28.65 -9.19763 0
      vertex 29.25 -10.2369 2.4
    endloop
  endfacet
  facet normal 0.485071 0.840168 0.242536
    outer loop
      vertex 38.7 -15 0
      vertex 28.65 -9.19763 0
      vertex 37.5 -15 2.4
    endloop
  endfacet
  facet normal 0.485071 -0.840168 0.242536
    outer loop
      vertex -26.5 0 2.4
      vertex -35.35 -5.80237 0
      vertex -25.3 0 0
    endloop
  endfacet
  facet normal 0 0 -1
    outer loop
      vertex -25.3 0 0
      vertex -35.35 -5.80237 0
      vertex -35.35 5.80237 0
    endloop
  endfacet
  facet normal -0.970143 0 0.242536
    outer loop
      vertex -35.35 -5.80237 0
      vertex -34.75 -4.76314 2.4
      vertex -35.35 5.80237 0
    endloop
  endfacet
  facet normal -0.970143 0 0.242536
    outer loop
      vertex -35.35 5.80237 0
      vertex -34.75 -4.76314 2.4
      vertex -34.75 4.76314 2.4
    endloop
  endfacet
  facet normal 0.485071 -0.840168 0.242535
    outer loop
      vertex -34.75 -4.76314 2.4
      vertex -35.35 -5.80237 0
      vertex -26.5 0 2.4
    endloop
  endfacet
  facet normal 0 -0 1
    outer loop
      vertex -34.75 4.76314 2.4
      vertex -34.75 -4.76314 2.4
      vertex -26.5 0 2.4
    endloop
  endfacet
  facet normal 0.485071 0.840168 0.242535
    outer loop
      vertex -26.5 0 2.4
      vertex -35.35 5.80237 0
      vertex -34.75 4.76314 2.4
    endloop
  endfacet
  facet normal 0.485071 0.840168 0.242536
    outer loop
      vertex -25.3 0 0
      vertex -35.35 5.80237 0
      vertex -26.5 0 2.4
    endloop
  endfacet
  facet normal 0.485071 -0.840168 0.242536
    outer loop
      vertex -10.5 0 2.4
      vertex -19.35 -5.80237 0
      vertex -9.3 0 0
    endloop
  endfacet
  facet normal 0 0 -1
    outer loop
      vertex -9.3 0 0
      vertex -19.35 -5.80237 0
      vertex -19.35 5.80237 0
    endloop
  endfacet
  facet normal -0.970143 0 0.242536
    outer loop
      vertex -19.35 -5.80237 0
      vertex -18.75 -4.76314 2.4
      vertex -19.35 5.80237 0
    endloop
  endfacet
  facet normal -0.970143 0 0.242536
    outer loop
      vertex -19.35 5.80237 0
      vertex -18.75 -4.76314 2.4
      vertex -18.75 4.76314 2.4
    endloop
  endfacet
  facet normal 0.485071 -0.840168 0.242535
    outer loop
      vertex -18.75 -4.76314 2.4
      vertex -19.35 -5.80237 0
      vertex -10.5 0 2.4
    endloop
  endfacet
  facet normal 0 -0 1
    outer loop
      vertex -18.75 4.76314 2.4
      vertex -18.75 -4.76314 2.4
      vertex -10.5 0 2.4
    endloop
  endfacet
  facet normal 0.485071 0.840168 0.242535
    outer loop
      vertex -10.5 0 2.4
      vertex -19.35 5.80237 0
      vertex -18.75 4.76314 2.4
    endloop
  endfacet
  facet normal 0.485071 0.840168 0.242536
    outer loop
      vertex -9.3 0 0
      vertex -19.35 5.80237 0
      vertex -10.5 0 2.4
    endloop
  endfacet
  facet normal 0.485071 -0.840168 0.242536
    outer loop
      vertex 5.5 0 2.4
      vertex -3.35 -5.80237 0
      vertex 6.7 0 0
    endloop
  endfacet
  facet normal 0 0 -1
    outer loop
      vertex 6.7 0 0
      vertex -3.35 -5.80237 0
      vertex -3.35 5.80237 0
    endloop
  endfacet
  facet normal -0.970143 0 0.242536
    outer loop
      vertex -3.35 -5.80237 0
      vertex -2.75 -4.76314 2.4
      vertex -3.35 5.80237 0
    endloop
  endfacet
  facet normal -0.970143 0 0.242536
    outer loop
      vertex -3.35 5.80237 0
      vertex -2.75 -4.76314 2.4
      vertex -2.75 4.76314 2.4
    endloop
  endfacet
  facet normal 0.485071 -0.840168 0.242535
    outer loop
      vertex -2.75 -4.76314 2.4
      vertex -3.35 -5.80237 0
      vertex 5.5 0 2.4
    endloop
  endfacet
  facet normal 0 -0 1
    outer loop
      vertex -2.75 4.76314 2.4
      vertex -2.75 -4.76314 2.4
      vertex 5.5 0 2.4
    endloop
  endfacet
  facet normal 0.485071 0.840168 0.242535
    outer loop
      vertex 5.5 0 2.4
      vertex -3.35 5.80237 0
      vertex -2.75 4.76314 2.4
    endloop
  endfacet
  facet normal 0.485071 0.840168 0.242536
    outer loop
      vertex 6.7 0 0
      vertex -3.35 5.80237 0
      vertex 5.5 0 2.4
    endloop
  endfacet
  facet normal 0.485071 -0.840168 0.242536
    outer loop
      vertex 21.5 0 2.4
      vertex 12.65 -5.80237 0
      vertex 22.7 0 0
    endloop
  endfacet
  facet normal 0 0 -1
    outer loop
      vertex 22.7 0 0
      vertex 12.65 -5.80237 0
      vertex 12.65 5.80237 0
    endloop
  endfacet
  facet normal -0.970143 0 0.242536
    outer loop
      vertex 12.65 -5.80237 0
      vertex 13.25 -4.76314 2.4
      vertex 12.65 5.80237 0
    endloop
  endfacet
  facet normal -0.970143 0 0.242536
    outer loop
      vertex 12.65 5.80237 0
      vertex 13.25 -4.76314 2.4
      vertex 13.25 4.76314 2.4
    endloop
  endfacet
  facet normal 0.485071 -0.840168 0.242535
    outer loop
      vertex 13.25 -4.76314 2.4
      vertex 12.65 -5.80237 0
      vertex 21.5 0 2.4
    endloop
  endfacet
  facet normal 0 -0 1
    outer loop
      vertex 13.25 4.76314 2.4
      vertex 13.25 -4.76314 2.4
      vertex 21.5 0 2.4
    endloop
  endfacet
  facet normal 0.485071 0.840168 0.242535
    outer loop
      vertex 21.5 0 2.4
      vertex 12.65 5.80237 0
      vertex 13.25 4.76314 2.4
    endloop
  endfacet
  facet normal 0.485071 0.840168 0.242536
    outer loop
      vertex 22.7 0 0
      vertex 12.65 5.80237 0
      vertex 21.5 0 2.4
    endloop
  endfacet
  facet normal 0.485071 -0.840168 0.242536
    outer loop
      vertex 37.5 0 2.4
      vertex 28.65 -5.80237 0
      vertex 38.7 0 0
    endloop
  endfacet
  facet normal 0 0 -1
    outer loop
      vertex 38.7 0 0
      vertex 28.65 -5.80237 0
      vertex 28.65 5.80237 0
    endloop
  endfacet
  facet normal -0.970143 0 0.242536
    outer loop
      vertex 28.65 -5.80237 0
      vertex 29.25 -4.76314 2.4
      vertex 28.65 5.80237 0
    endloop
  endfacet
  facet normal -0.970143 0 0.242536
    outer loop
      vertex 28.65 5.80237 0
      vertex 29.25 -4.76314 2.4
      vertex 29.25 4.76314 2.4
    endloop
  endfacet
  facet normal 0.485071 -0.840168 0.242535
    outer loop
      vertex 29.25 -4.76314 2.4
      vertex 28.65 -5.80237 0
      vertex 37.5 0 2.4
    endloop
  endfacet
  facet normal 0 -0 1
    outer loop
      vertex 29.25 4.76314 2.4
      vertex 29.25 -4.76314 2.4
      vertex 37.5 0 2.4
    endloop
  endfacet
  facet normal 0.485071 0.840168 0.242535
    outer loop
      vertex 37.5 0 2.4
      vertex 28.65 5.80237 0
      vertex 29.25 4.76314 2.4
    endloop
  endfacet
  facet normal 0.485071 0.840168 0.242536
    outer loop
      vertex 38.7 0 0
      vertex 28.65 5.80237 0
      vertex 37.5 0 2.4
    endloop
  endfacet
  facet normal 0.485071 -0.840168 0.242536
    outer loop
      vertex -26.5 15 2.4
      vertex -35.35 9.19763 0
      vertex -25.3 15 0
    endloop
  endfacet
  facet normal 0 0 -1
    outer loop
      vertex -25.3 15 0
      vertex -35.35 9.19763 0
      vertex -35.35 20.8024 0
    endloop
  endfacet
  facet normal -0.970143 0 0.242536
    outer loop
      vertex -35.35 9.19763 0
      vertex -34.75 10.2369 2.4
      vertex -35.35 20.8024 0
    endloop
  endfacet
  facet normal -0.970143 0 0.242536
    outer loop
      vertex -35.35 20.8024 0
      vertex -34.75 10.2369 2.4
      vertex -34.75 19.7631 2.4
    endloop
  endfacet
  facet normal 0.485071 -0.840168 0.242535
    outer loop
      vertex -34.75 10.2369 2.4
      vertex -35.35 9.19763 0
      vertex -26.5 15 2.4
    endloop
  endfacet
  facet normal 0 -0 1
    outer loop
      vertex -34.75 19.7631 2.4
      vertex -34.75 10.2369 2.4
      vertex -26.5 15 2.4
    endloop
  endfacet
  facet normal 0.485071 0.840168 0.242535
    outer loop
      vertex -26.5 15 2.4
      vertex -35.35 20.8024 0
      vertex -34.75 19.7631 2.4
    endloop
  endfacet
  facet normal 0.485071 0.840168 0.242536
    outer loop
      vertex -25.3 15 0
      vertex -35.35 20.8024 0
      vertex -26.5 15 2.4
    endloop
  endfacet
  facet normal 0.485071 -0.840168 0.242536
    outer loop
      vertex -10.5 15 2.4
      vertex -19.35 9.19763 0
      vertex -9.3 15 0
    endloop
  endfacet
  facet normal 0 0 -1
    outer loop
      vertex -9.3 15 0
      vertex -19.35 9.19763 0
      vertex -19.35 20.8024 0
    endloop
  endfacet
  facet normal -0.970143 0 0.242536
    outer loop
      vertex -19.35 9.19763 0
      vertex -18.75 10.2369 2.4
      vertex -19.35 20.8024 0
    endloop
  endfacet
  facet normal -0.970143 0 0.242536
    outer loop
      vertex -19.35 20.8024 0
      vertex -18.75 10.2369 2.4
      vertex -18.75 19.7631 2.4
    endloop
  endfacet
  facet normal 0.485071 -0.840168 0.242535
    outer loop
      vertex -18.75 10.2369 2.4
      vertex -19.35 9.19763 0
      vertex -10.5 15 2.4
    endloop
  endfacet
  facet normal 0 -0 1
    outer loop
      vertex -18.75 19.7631 2.4
      vertex -18.75 10.2369 2.4
      vertex -10.5 15 2.4
    endloop
  endfacet
  facet normal 0.485071 0.840168 0.242535
    outer loop
      vertex -10.5 15 2.4
      vertex -19.35 20.8024 0
      vertex -18.75 19.7631 2.4
    endloop
  endfacet
  facet normal 0.485071 0.840168 0.242536
    outer loop
      vertex -9.3 15 0
      vertex -19.35 20.8024 0
      vertex -10.5 15 2.4
    endloop
  endfacet
  facet normal 0.485071 -0.840168 0.242536
    outer loop
      vertex 5.5 15 2.4
      vertex -3.35 9.19763 0
      vertex 6.7 15 0
    endloop
  endfacet
  facet normal 0 0 -1
    outer loop
      vertex 6.7 15 0
      vertex -3.35 9.19763 0
      vertex -3.35 20.8024 0
    endloop
  endfacet
  facet normal -0.970143 0 0.242536
    outer loop
      vertex -3.35 9.19763 0
      vertex -2.75 10.2369 2.4
      vertex -3.35 20.8024 0
    endloop
  endfacet
  facet normal -0.970143 0 0.242536
    outer loop
      vertex -3.35 20.8024 0
      vertex -2.75 10.2369 2.4
      vertex -2.75 19.7631 2.4
    endloop
  endfacet
  facet normal 0.485071 -0.840168 0.242535
    outer loop
      vertex -2.75 10.2369 2.4
      vertex -3.35 9.19763 0
      vertex 5.5 15 2.4
    endloop
  endfacet
  facet normal 0 -0 1
    outer loop
      vertex -2.75 19.7631 2.4
      vertex -2.75 10.2369 2.4
      vertex 5.5 15 2.4
    endloop
  endfacet
  facet normal 0.485071 0.840168 0.242535
    outer loop
      vertex 5.5 15 2.4
      vertex -3.35 20.8024 0
      vertex -2.75 19.7631 2.4
    endloop
  endfacet
  facet normal 0.485071 0.840168 0.242536
    outer loop
      vertex 6.7 15 0
      vertex -3.35 20.8024 0
      vertex 5.5 15 2.4
    endloop
  endfacet
  facet normal 0.485071 -0.840168 0.242536
    outer loop
      vertex 21.5 15 2.4
      vertex 12.65 9.19763 0
      vertex 22.7 15 0
    endloop
  endfacet
  facet normal 0 0 -1
    outer loop
      vertex 22.7 15 0
      vertex 12.65 9.19763 0
      vertex 12.65 20.8024 0
    endloop
  endfacet
  facet normal -0.970143 0 0.242536
    outer loop
      vertex 12.65 9.19763 0
      vertex 13.25 10.2369 2.4
      vertex 12.65 20.8024 0
    endloop
  endfacet
  facet normal -0.970143 0 0.242536
    outer loop
      vertex 12.65 20.8024 0
      vertex 13.25 10.2369 2.4
      vertex 13.25 19.7631 2.4
    endloop
  endfacet
  facet normal 0.485071 -0.840168 0.242535
    outer loop
      vertex 13.25 10.2369 2.4
      vertex 12.65 9.19763 0
      vertex 21.5 15 2.4
    endloop
  endfacet
  facet normal 0 -0 1
    outer loop
      vertex 13.25 19.7631 2.4
      vertex 13.25 10.2369 2.4
      vertex 21.5 15 2.4
    endloop
  endfacet
  facet normal 0.485071 0.840168 0.242535
    outer loop
      vertex 21.5 15 2.4
      vertex 12.65 20.8024 0
      vertex 13.25 19.7631 2.4
    endloop
  endfacet
  facet normal 0.485071 0.840168 0.242536
    outer loop
      vertex 22.7 15 0
      vertex 12.65 20.8024 0
      vertex 21.5 15 2.4
    endloop
  endfacet
  facet normal 0.485071 -0.840168 0.242536
    outer loop
      vertex 37.5 15 2.4
      vertex 28.65 9.19763 0
      vertex 38.7 15 0
    endloop
  endfacet
  facet normal 0 0 -1
    outer loop
      vertex 38.7 15 0
      vertex 28.65 9.19763 0
      vertex 28.65 20.8024 0
    endloop
  endfacet
  facet normal -0.970143 0 0.242536
    outer loop
      vertex 28.65 9.19763 0
      vertex 29.25 10.2369 2.4
      vertex 28.65 20.8024 0
    endloop
  endfacet
  facet normal -0.970143 0 0.242536
    outer loop
      vertex 28.65 20.8024 0
      vertex 29.25 10.2369 2.4
      vertex 29.25 19.7631 2.4
    endloop
  endfacet
  facet normal 0.485071 -0.840168 0.242535
    outer loop
      vertex 29.25 10.2369 2.4
      vertex 28.65 9.19763 0
      vertex 37.5 15 2.4
    endloop
  endfacet
  facet normal 0 -0 1
    outer loop
      vertex 29.25 19.7631 2.4
      vertex 29.25 10.2369 2.4
      vertex 37.5 15 2.4
    endloop
  endfacet
  facet normal 0.485071 0.840168 0.242535
    outer loop
      vertex 37.5 15 2.4
      vertex 28.65 20.8024 0
      vertex 29.25 19.7631 2.4
    endloop
  endfacet
  facet normal 0.485071 0.840168 0.242536
    outer loop
      vertex 38.7 15 0
      vertex 28.65 20.8024 0
      vertex 37.5 15 2.4
    endloop
  endfacet
endsolid OpenSCAD_Model
