<?xml version="1.0" encoding="UTF-8" standalone="no"?>
<!-- Created with Inkscape (http://www.inkscape.org/) -->

<svg
   width="561.12433mm"
   height="136.7195mm"
   viewBox="0 0 561.12434 136.7195"
   version="1.1"
   id="svg1"
   xml:space="preserve"
   inkscape:version="1.4.2 (f4327f4, 2025-05-13)"
   sodipodi:docname="MeshPrepLogoWithText.svg"
   xmlns:inkscape="http://www.inkscape.org/namespaces/inkscape"
   xmlns:sodipodi="http://sodipodi.sourceforge.net/DTD/sodipodi-0.dtd"
   xmlns="http://www.w3.org/2000/svg"
   xmlns:svg="http://www.w3.org/2000/svg"><sodipodi:namedview
     id="namedview1"
     pagecolor="#ffffff"
     bordercolor="#000000"
     borderopacity="0.25"
     inkscape:showpageshadow="2"
     inkscape:pageopacity="0.0"
     inkscape:pagecheckerboard="0"
     inkscape:deskcolor="#d1d1d1"
     inkscape:document-units="mm"
     inkscape:zoom="0.5"
     inkscape:cx="1253"
     inkscape:cy="159"
     inkscape:window-width="2560"
     inkscape:window-height="1369"
     inkscape:window-x="1912"
     inkscape:window-y="-8"
     inkscape:window-maximized="1"
     inkscape:current-layer="layer1" /><defs
     id="defs1" /><g
     inkscape:label="Layer 1"
     inkscape:groupmode="layer"
     id="layer1"
     transform="translate(-12.790282,-93.280888)"><path
       style="fill:#f95916;fill-opacity:0.996078"
       d="m 27.946966,217.38151 c -3.40437,-0.358 -4.78056,-1.38365 -6.73443,-5.01902 -3.94012,-7.33097 -4.91237,-9.07078 -5.91426,-10.58333 -0.62654,-0.94589 -1.44704,-2.00844 -1.82333,-2.36123 l -0.68417,-0.64143 v -41.93008 c 0,-46.52333 -0.0782,-44.35929 1.73235,-47.936 1.39528,-2.75632 4.71604,-5.69172 8.05723,-7.12223 1.4072,-0.60248 1.78971,-0.63044 11.59401,-0.84726 5.57634,-0.12332 10.23196,-0.2818 10.34584,-0.35217 0.11387,-0.0704 0.27716,-0.875942 0.36287,-1.790132 0.22973,-2.45045 0.70674,-3.61348 1.86492,-4.54696 l 1.0166,-0.81938 23.08402,-0.0757 23.08402,-0.0757 0.69322,1.00175 c 0.90327,1.30529 1.43823,2.86037 1.66083,4.82791 0.0989,0.8739 0.31776,1.703432 0.48642,1.843402 0.18096,0.15019 4.532334,0.28758 10.615804,0.33518 l 10.30915,0.0807 1.5875,0.74289 c 3.07747,1.44014 4.0132,2.21641 5.59785,4.64395 0.82077,1.25734 1.67981,2.7028 1.90898,3.21212 0.37109,0.82477 0.43717,5.62813 0.60425,43.92083 0.10317,23.64713 0.28492,43.29244 0.40388,43.65625 0.11896,0.3638 0.79921,1.73302 1.51166,3.0427 3.08645,5.67378 4.86288,9.05152 5.16008,9.81149 0.17544,0.44861 0.28301,1.57793 0.23906,2.5096 l -0.0799,1.69394 -1.19063,0.62978 c -0.65484,0.34638 -1.86341,1.03277 -2.68571,1.5253 l -1.49509,0.89552 -49.701784,-0.0359 c -27.33598,-0.0198 -50.56103,-0.12628 -51.61122,-0.23672 z m 51.9666,-11.89302 c 3.75554,-1.88894 7.24497,-3.6622 7.75429,-3.9406 0.50933,-0.27839 3.97503,-2.01264 7.70158,-3.85387 8.821534,-4.35861 10.097824,-4.72038 16.772374,-4.75424 l 4.7625,-0.0242 0.0678,-29.10417 c 0.0373,-16.00729 -0.0281,-33.21949 -0.14541,-38.24933 -0.19595,-8.40363 -0.25568,-9.21888 -0.73666,-10.05417 -1.03112,-1.7907 -1.60358,-1.9026 -10.92134,-2.13483 -4.5795,-0.11413 -8.426094,-0.14588 -8.547994,-0.0705 -0.1219,0.0753 -0.22448,0.8741 -0.22795,1.77501 -0.009,2.21099 -0.34428,3.51113 -1.23311,4.77484 -1.09255,1.55334 -2.67261,2.23333 -6.04518,2.60158 -2.55889,0.27941 -2.9103,0.3845 -3.73894,1.11812 -0.50303,0.44535 -1.2455,1.34701 -1.64992,2.00369 -0.40443,0.65668 -1.6205,2.14647 -2.70237,3.31064 -1.08188,1.16416 -2.28061,2.59291 -2.66386,3.175 -0.98871,1.50169 -3.67088,4.22283 -4.67331,4.74121 -0.46645,0.24121 -1.50877,0.5607 -2.31626,0.70997 -1.46724,0.27123 -1.46906,0.27073 -2.83769,-0.77504 -3.37006,-2.57507 -7.08677,-6.75 -8.81168,-9.89805 -0.56347,-1.02836 -1.44121,-2.33695 -1.95054,-2.90798 -0.84636,-0.9489 -1.08538,-1.05853 -2.77812,-1.27416 -1.01865,-0.12976 -2.49311,-0.23983 -3.2766,-0.24459 -2.18487,-0.0133 -3.45447,-0.508 -4.83735,-1.88498 -1.44028,-1.43412 -1.80436,-2.48241 -1.80645,-5.20128 l -10e-4,-1.91823 h -8.78102 c -8.65242,0 -8.79365,0.009 -9.64319,0.59077 -0.4742,0.32492 -1.13641,1.06906 -1.47158,1.65365 l -0.60942,1.06287 v 38.1 38.1 l 7.05157,0.0339 7.05156,0.0339 1.67969,1.01035 c 0.92383,0.55569 1.91781,1.21655 2.20885,1.46858 0.29104,0.25203 2.96995,1.72724 5.95313,3.27826 2.98317,1.55101 6.03376,3.16687 6.77908,3.59078 0.74532,0.42392 1.55163,0.77077 1.79181,0.77077 0.24018,0 1.41631,0.4963 2.61363,1.10289 1.19731,0.60659 3.90334,1.91269 6.01339,2.90245 3.52541,1.65366 3.98003,1.80021 5.60718,1.80753 1.7488,0.008 1.85518,-0.0345 8.59895,-3.42646 z m -26.81136,-89.89734 c 0.0902,-0.54571 0.1653,-4.05805 0.16691,-7.80521 l 0.003,-6.81302 h 18.66989 18.66989 l -0.0829,-0.8599 -0.0829,-0.859892 -19.77761,-0.0678 -19.7776,-0.0678 v 8.120562 c 0,7.97343 0.0104,8.13167 0.57528,8.73294 0.86983,0.92588 1.44229,0.79299 1.63615,-0.37982 z"
       id="path9" /><path
       style="fill:#ee370e;fill-opacity:0.996078;stroke-width:0.997406"
       d="m 26.011823,229.73962 c -0.21715,-0.14333 -0.860899,-0.39015 -1.430552,-0.54849 -1.078161,-0.29968 -3.649074,-1.93036 -4.396573,-2.78865 -1.507876,-1.73138 -4.97124,-7.39468 -5.642391,-9.22644 -0.26659,-0.72761 -0.726539,-1.73964 -1.022108,-2.24896 -0.501433,-0.86407 -0.542793,-1.43512 -0.618025,-8.53282 l -0.08063,-7.60677 H 13.4944 c 0.370071,0 0.673068,0.0893 0.673327,0.19844 2.59e-4,0.10914 0.710721,1.15094 1.578804,2.31511 0.868084,1.16416 1.578546,2.21734 1.578805,2.3404 2.58e-4,0.12306 0.216173,0.53978 0.47981,0.92604 0.263636,0.38627 0.680164,1.24725 0.925616,1.91329 0.245454,0.66604 1.034991,2.09479 1.754527,3.175 0.719536,1.08021 1.309796,2.06401 1.311689,2.18622 0.0019,0.12221 0.832484,1.14513 1.845758,2.27316 3.058215,3.40456 -3.074068,3.06089 54.616778,3.06089 41.983926,0 49.716376,-0.0573 51.017386,-0.3778 1.87381,-0.46167 3.68644,-2.06071 4.8204,-4.25241 l 0.75291,-1.45521 0.0705,6.4335 0.0705,6.4335 -1.51819,1.70481 c -0.835,0.93764 -2.19325,2.12541 -3.01832,2.63949 -2.87598,1.79192 0.16962,1.69716 -54.564139,1.69776 -32.043457,3.5e-4 -49.623114,-0.0913 -49.87878,-0.26006 z"
       id="path2" /><path
       style="fill:#000000;fill-opacity:0"
       d="m 22.843529,148.48802 c 0.0687,-39.42143 0.0881,-40.83847 0.57997,-42.3514 0.56406,-1.73491 1.95889,-3.27317 3.91827,-4.32118 1.10989,-0.59365 1.15878,-0.59581 13.48729,-0.59581 h 12.37337 v 3.12511 c 0,2.78233 0.0593,3.18881 0.54108,3.70589 l 0.54108,0.58078 19.23652,-0.0679 19.236531,-0.0679 0.0176,-3.30729 c 0.01,-1.81901 0.0394,-3.45612 0.0661,-3.63802 0.0381,-0.25919 2.72981,-0.33073 12.44334,-0.33073 13.71473,0 13.00869,-0.0818 15.31629,1.77372 0.74518,0.59918 1.43193,1.53321 2.05052,2.78886 l 0.93009,1.88795 v 39.83992 39.83991 l -1.38907,0.9218 -1.38906,0.92181 -4.82865,0.0825 -4.82864,0.0825 v -2.24669 -2.2467 l 4.12292,-0.0848 c 3.72028,-0.0765 4.15955,-0.13493 4.49792,-0.59836 0.31939,-0.43745 0.37499,-6.03738 0.37499,-37.77023 0,-35.77023 -0.0196,-37.29315 -0.49043,-38.17168 -0.56931,-1.06222 -1.8974,-2.36478 -3.06168,-3.00285 -0.71519,-0.39194 -1.84203,-0.44583 -9.32379,-0.44583 -4.68065,0 -8.57365,0.0632 -8.65113,0.14037 -0.0775,0.0772 -0.16182,1.3572 -0.18744,2.84444 l -0.0466,2.70408 -1.64972,1.54323 c -0.90734,0.84878 -1.8154,1.56162 -2.0179,1.5841 -0.20251,0.0225 -1.58642,0.13161 -3.07536,0.24253 l -2.70717,0.20167 -0.86471,1.04503 c -0.47559,0.57476 -1.38627,1.88445 -2.02374,2.91042 -0.63748,1.02596 -1.60622,2.35407 -2.15276,2.95135 -0.54655,0.59728 -1.08231,1.37118 -1.19058,1.71979 -0.10827,0.34861 -0.65758,1.13719 -1.22068,1.7524 -0.5631,0.61521 -1.02382,1.21375 -1.02382,1.33009 0,0.11635 -0.36702,0.61337 -0.8156,1.10451 -0.44859,0.49113 -0.92004,1.16765 -1.04768,1.50336 -0.44993,1.1834 -2.027901,1.92766 -4.329041,2.04182 -2.30869,0.11453 -3.8364,-0.13126 -4.25164,-0.68406 -0.14941,-0.19892 -0.48002,-0.43985 -0.73468,-0.5354 -0.25467,-0.0956 -0.46303,-0.32669 -0.46303,-0.51363 0,-0.18694 -0.34864,-0.66896 -0.77477,-1.07115 -0.86676,-0.81809 -3.98773,-5.30886 -3.98773,-5.73796 0,-0.15177 -0.0989,-0.27594 -0.21987,-0.27594 -0.12093,0 -0.38629,-0.32742 -0.58969,-0.72761 -0.20339,-0.40018 -0.63522,-1.00672 -0.95961,-1.34786 -0.32439,-0.34114 -0.74294,-0.96622 -0.93011,-1.38906 -0.18717,-0.42284 -0.43031,-0.76881 -0.5403,-0.76881 -0.11,0 -0.2,-0.17859 -0.2,-0.39687 0,-0.21828 -0.11906,-0.39688 -0.26458,-0.39688 -0.14552,0 -0.26459,-0.12388 -0.26459,-0.27529 0,-0.15142 -0.26748,-0.65743 -0.59441,-1.12448 -0.32693,-0.46705 -0.62008,-0.89428 -0.65143,-0.9494 -0.0314,-0.0551 -1.61056,-0.20152 -3.50935,-0.32534 -3.73975,-0.24387 -4.46667,-0.47957 -5.90022,-1.91312 -1.21996,-1.21996 -1.69703,-2.99589 -1.77054,-6.59101 -0.009,-0.43184 -0.62369,-0.46302 -9.12838,-0.46302 h -9.11892 l -0.91728,0.80537 c -0.5045,0.44296 -1.16348,1.31399 -1.46441,1.93562 -0.54532,1.12648 -0.54714,1.25624 -0.54714,39.00802 v 37.87778 l 4.43177,0.0726 4.43177,0.0725 0.0766,2.32682 0.0766,2.32683 -6.36191,-0.0376 -6.3619,-0.0376 z m 52.62861,-23.52203 c 0.48684,-0.3923 6.249721,-8.15296 6.974801,-9.39271 0.2766,-0.47295 0.59631,-0.8599 0.71045,-0.8599 0.11415,0 0.20754,-0.11906 0.20754,-0.26458 0,-0.17157 -3.40611,-0.26459 -9.689171,-0.26459 h -9.68916 l 0.91601,1.12448 c 0.5038,0.61847 1.6585,2.31511 2.56599,3.77032 0.90749,1.4552 1.79223,2.76489 1.96608,2.91041 0.17385,0.14552 0.76425,0.88177 1.312,1.63611 0.54774,0.75434 1.19991,1.42513 1.44926,1.49066 0.96356,0.25322 2.88487,0.16513 3.2762,-0.1502 z"
       id="path3" /><path
       style="fill:#329f77;fill-opacity:0.996078"
       d="m 69.117979,185.70827 c 0,-12.22375 -0.0893,-22.22464 -0.19844,-22.22419 -0.22472,9.3e-4 -2.737037,1.27471 -5.490097,2.78358 -5.27841,2.89292 -5.23374,2.8847 -6.65472,1.22535 -1.50545,-1.75798 -1.58094,-1.67593 4.20732,-4.57294 2.87404,-1.43845 5.22433,-2.70386 5.22287,-2.81202 -0.002,-0.18356 -11.03911,-5.66444 -11.73394,-5.82717 -0.1744,-0.0408 -0.46971,-0.31865 -0.65625,-0.61734 -0.44534,-0.71311 0.0895,-1.56461 1.56954,-2.49894 l 1.06957,-0.67519 2.0326,1.18086 c 1.11792,0.64947 3.93759,2.13387 6.26592,3.29865 l 4.233337,2.1178 0.0721,-4.73922 0.0721,-4.73923 h 2.36917 2.36918 l 0.0722,4.5975 0.0722,4.59751 6.03956,-3.00876 6.03955,-3.00876 1.16637,0.80248 c 1.33626,0.91938 1.87359,1.71475 1.47847,2.1885 -0.14396,0.1726 -2.94486,1.62351 -6.22423,3.22424 -3.27937,1.60072 -5.96782,3.00345 -5.97434,3.11715 -0.007,0.11371 0.19652,0.28003 0.45118,0.36961 0.71845,0.25271 7.02865,3.22705 7.47448,3.52313 0.21828,0.14497 0.84513,0.45638 1.39299,0.69204 l 0.99612,0.42846 -1.05508,1.09418 c -0.58029,0.6018 -1.21409,1.31423 -1.40844,1.58318 -0.33545,0.46421 -0.49347,0.41988 -3.11604,-0.8741 -1.51947,-0.74971 -2.94127,-1.45937 -3.15955,-1.57702 -0.71895,-0.38751 -3.97609,-1.87434 -4.10605,-1.87434 -0.07,0 -0.12728,10.00125 -0.12728,22.225 v 22.225 h -2.38125 -2.38125 z"
       id="path6" /><path
       style="fill:#098bb2;fill-opacity:0.988235"
       d="m 64.285562,210.23788 c -0.87681,-0.45449 -2.85681,-1.40355 -4.39999,-2.10902 -1.54319,-0.70547 -3.08799,-1.44561 -3.43289,-1.64474 -0.3449,-0.19914 -1.401,-0.726 -2.34688,-1.17081 -0.94589,-0.44482 -2.43417,-1.15851 -3.3073,-1.58599 -2.50509,-1.22649 -4.63173,-2.15101 -6.35,-2.76054 -0.87312,-0.30973 -2.44171,-1.06645 -3.48574,-1.68159 -1.04404,-0.61515 -1.97446,-1.11845 -2.06762,-1.11845 -0.0931,0 -0.75699,-0.25279 -1.47519,-0.56175 l -1.30582,-0.56175 4.7e-4,-19.21585 4.8e-4,-19.21586 1.124,-0.69828 c 1.25265,-0.7782 19.41123,-9.77087 25.23872,-12.49898 l 3.7418,-1.7517 h 5.65013 5.65012 l 10.45183,5.19585 c 5.7485,2.85772 11.13643,5.61308 11.97318,6.12302 l 1.521348,0.92718 v 2.0645 2.0645 l -1.521348,-0.67074 c -0.83675,-0.36891 -4.02167,-1.89517 -7.07761,-3.39168 -3.05593,-1.49652 -6.09203,-2.9741 -6.74687,-3.28352 -0.65485,-0.30941 -3.05714,-1.5086 -5.33844,-2.66486 -2.2813,-1.15626 -5.16679,-2.46194 -6.41221,-2.90152 -1.24542,-0.43958 -2.6166,-0.98136 -3.04707,-1.20397 -0.44345,-0.22932 -0.84796,-0.29909 -0.93331,-0.16099 -0.29606,0.47904 -10.00554,5.5102 -11.52105,5.96987 -0.36381,0.11034 -1.31631,0.57764 -2.11667,1.03844 -1.35973,0.78283 -2.90708,1.54984 -9.70983,4.81307 -1.48411,0.71192 -2.76282,1.4498 -2.84158,1.63975 -0.0896,0.21602 0.22051,0.49732 0.82804,0.75116 0.53418,0.2232 3.21775,1.52631 5.96348,2.8958 2.74574,1.36948 5.09744,2.48998 5.22601,2.48998 0.20707,0 2.99962,1.36057 8.86825,4.32073 1.01865,0.51381 2.711,1.3153 3.76078,1.78109 1.04978,0.46579 2.10414,1.06286 2.34303,1.32683 0.40769,0.45049 0.36572,0.56134 -0.68367,1.80585 -0.6149,0.72924 -1.25255,1.37215 -1.41699,1.42868 -0.16444,0.0565 -2.88184,-1.18846 -6.03867,-2.76666 -3.15683,-1.57819 -5.86551,-2.86944 -6.01927,-2.86944 -0.18858,0 -0.27958,2.05712 -0.27958,6.32008 v 6.32008 l 5.35781,2.68541 c 4.84239,2.42707 9.19438,4.6981 9.40843,4.90967 0.0851,0.0841 -0.61179,1.42007 -1.27947,2.45278 -0.59763,0.92436 -0.14676,1.07875 -7.72655,-2.64583 -2.88741,-1.41883 -5.36468,-2.57969 -5.50503,-2.57969 -0.15745,0 -0.25519,2.68587 -0.25519,7.01222 v 7.01222 l 6.01927,2.9758 c 3.3106,1.63669 6.04822,2.9849 6.08359,2.99602 0.13713,0.0431 -1.07282,2.38577 -1.45859,2.82405 -0.55729,0.63316 -1.241,0.53855 -3.11034,-0.43042 z m -11.60051,-14.25395 c -0.15423,-3.51014 -0.1965,-8.36956 -0.0834,-9.59115 0.0405,-0.43721 -0.87061,-0.99003 -5.24269,-3.18116 -2.91042,-1.4586 -5.59883,-2.858 -5.97424,-3.10978 -0.37542,-0.25179 -0.76238,-0.378 -0.8599,-0.28047 -0.22487,0.22486 -0.23375,11.24521 -0.0104,12.87487 0.15649,1.14173 0.25168,1.26178 1.52135,1.91862 0.74493,0.38537 1.53301,0.85089 1.7513,1.03449 0.21828,0.1836 0.81359,0.47413 1.32291,0.64561 0.50933,0.17149 2.29526,1.01383 3.96875,1.87187 1.67349,0.85805 3.2068,1.56623 3.40736,1.57375 0.30083,0.0113 0.33565,-0.64617 0.19898,-3.75665 z m 0.11769,-21.00313 c 0.0275,-3.36617 -0.0422,-6.26942 -0.15479,-6.45167 -0.11264,-0.18225 -1.88453,-1.15341 -3.93754,-2.15815 -2.05301,-1.00473 -3.91133,-1.937 -4.12961,-2.0717 -0.79553,-0.4909 -2.68805,-1.28935 -3.45577,-1.45797 l -0.78725,-0.17291 0.071,6.30594 0.071,6.30594 5.62036,2.77813 c 3.09119,1.52796 5.76414,2.92695 5.93989,3.10885 0.17575,0.1819 0.40802,0.24143 0.51615,0.13229 0.10813,-0.10914 0.2191,-2.95258 0.24659,-6.31875 z"
       id="path8" /><path
       style="fill:#329f76;fill-opacity:0.996078"
       d="m 85.015014,168.71909 -2.18281,-1.11883 v -2.18661 -2.1866 l 0.8599,0.37111 c 0.83882,0.36201 3.17169,1.49988 5.41412,2.64076 l 1.11465,0.5671 -1.07213,1.05834 c -0.58966,0.58208 -1.18474,1.26669 -1.32239,1.52135 -0.13765,0.25466 -0.33538,0.46059 -0.4394,0.45761 -0.10402,-0.003 -1.17139,-0.50888 -2.37194,-1.12423 z"
       id="path12" /><path
       style="fill:#f34b15;fill-opacity:0.992157;stroke-width:0.951308"
       d="m 90.080575,105.55103 v -4.57819 h 3.269233 3.269232 v 4.57819 4.57818 h -3.269232 -3.269233 z"
       id="path10" /><path
       style="fill:#f34b15;fill-opacity:0.992157;stroke-width:0.691058"
       d="m 53.263931,109.23422 v -8.2626 h 0.955892 0.95589 v 8.2626 8.26259 h -0.95589 -0.955892 z"
       id="path10-4" /><path
       style="fill:#f34b15;fill-opacity:0.992157;stroke-width:0.982167"
       d="m 53.263932,101.81291 v -0.85783 h 18.597999 18.597974 v 0.85783 0.85782 H 71.861931 53.263932 Z"
       id="path10-4-8" /><path
       style="fill:#f95716;fill-opacity:1;stroke-width:0.629133"
       d="m 90.080995,98.410468 v -2.566989 h 2.550111 2.55011 v 2.566989 2.566972 h -2.55011 -2.550111 z"
       id="path10-0" /><path
       style="fill:#ee370e;fill-opacity:0.996078;stroke-width:0.99317"
       d="m 20.813731,156.88269 c 0.07402,-39.1918 0.09409,-40.64922 0.580108,-42.15239 0.558004,-1.72579 1.940062,-3.25514 3.884307,-4.29825 1.100562,-0.59045 1.149758,-0.59264 13.356979,-0.59264 11.442426,0 12.26131,0.0304 12.387735,0.46056 0.07447,0.25332 0.260992,1.39767 0.414539,2.54302 0.153537,1.14535 0.405763,2.23546 0.5605,2.42249 0.154737,0.18702 0.832153,0.67108 1.505353,1.0757 l 1.224013,0.73566 16.267185,0.0824 c 17.195707,0.0871 17.83793,0.0488 18.647462,-1.11046 0.258682,-0.37046 0.374646,-1.28566 0.374646,-2.95666 0,-1.33106 0.07169,-2.60745 0.159259,-2.8364 0.142083,-0.37139 1.482059,-0.4163 12.422443,-0.4163 13.569,0 12.87232,-0.0811 15.16033,1.7643 0.73896,0.59601 1.41997,1.52508 2.03339,2.77406 l 0.92233,1.87794 v 39.62848 l -1e-5,39.62848 -1.37746,0.91691 -1.37746,0.91691 -7.28088,0.0775 -7.28088,0.0775 v -2.38034 -2.38034 h 6.68132 c 6.33708,0 6.69529,-0.0263 6.9529,-0.50906 0.18353,-0.34398 0.27161,-12.50573 0.27161,-37.50398 0,-35.51809 -0.0194,-37.03126 -0.48634,-37.90511 -0.56456,-1.05658 -1.88156,-2.35223 -3.03611,-2.98691 -0.69724,-0.38328 -1.91945,-0.45519 -9.0059,-0.52983 l -8.199188,-0.0863 v 0.7929 c 0,1.24697 -0.710319,4.27599 -1.274805,5.43615 -0.600424,1.23404 -1.180321,1.81093 -2.267724,2.25595 -1.212509,0.49622 -1.419734,0.53284 -3.803947,0.67211 -2.271224,0.13269 -3.673229,0.48849 -3.673229,0.93221 0,0.13568 -0.335702,0.68385 -0.746017,1.21817 -0.410305,0.53432 -2.612362,3.57697 -4.893472,6.76144 -2.281102,3.18447 -4.568292,6.23552 -5.08263,6.78011 -1.80027,1.90617 -5.08382,2.02795 -7.036169,0.26097 -0.713304,-0.64559 -10.974574,-14.81364 -11.18293,-15.44063 -0.04612,-0.1387 -1.522241,-0.3343 -3.280337,-0.43468 -2.708908,-0.15467 -3.415885,-0.29016 -4.634454,-0.88818 -0.79086,-0.38812 -1.666575,-1.02777 -1.946032,-1.42144 -0.546617,-0.77001 -1.865917,-5.02449 -1.865917,-6.01722 v -0.60353 H 36.107851 27.32746 l -0.909621,0.8011 c -0.500287,0.44061 -1.153764,1.30701 -1.452182,1.92535 -0.540768,1.1205 -0.542572,1.24951 -0.542572,38.80737 v 37.68311 h 7.608848 7.608834 v 2.36861 2.36861 h -9.451854 -9.451866 z m 51.676732,-23.04002 c 0.669323,-0.44276 6.354747,-7.8834 7.43151,-9.72579 0.274945,-0.47043 0.592501,-0.85534 0.705698,-0.85534 0.113196,0 0.205807,-0.11842 0.205807,-0.26317 0,-0.17066 -3.377668,-0.26318 -9.60826,-0.26318 h -9.60825 l 0.909461,1.11851 c 0.500208,0.61518 1.704626,2.39164 2.676482,3.94769 0.971866,1.55605 1.846064,2.83178 1.942661,2.83497 0.09659,0.003 0.529848,0.5466 0.962763,1.2076 0.869914,1.32825 2.326131,2.47206 3.143806,2.46938 0.291188,-9.6e-4 0.848436,-0.21276 1.238322,-0.47067 z"
       id="path13" /><path
       style="fill:#fdab0c;fill-opacity:0.996078"
       d="m 73.851815,210.7548 c 0,-1.31716 0.11878,-2.11008 0.3468,-2.31511 0.19075,-0.17151 3.04825,-1.68087 6.35,-3.35414 l 6.0032,-3.04232 v -6.94571 c 0,-3.82013 -0.0826,-6.9457 -0.18347,-6.9457 -0.10091,0 -1.02365,0.40759 -2.05052,0.90575 -4.49351,2.17991 -10.25704,4.91508 -10.35702,4.91508 -0.0599,0 -0.10899,-0.95491 -0.10899,-2.12203 v -2.12204 l 4.43177,-2.18571 c 2.43748,-1.20214 5.29498,-2.57828 6.35,-3.0581 l 1.91823,-0.87239 v -6.70882 -6.70882 l -3.77031,1.79529 c -2.07367,0.98741 -4.84188,2.3185 -6.15156,2.95799 -1.30969,0.63949 -2.47055,1.20297 -2.57969,1.25217 -0.10914,0.0492 -0.19844,-0.90688 -0.19844,-2.12465 v -2.21412 l 2.57969,-1.29147 c 4.04951,-2.02732 8.88105,-4.31482 10.2892,-4.87143 0.70747,-0.27966 3.83293,-1.77144 6.94546,-3.31508 l 5.65914,-2.80662 h 3.799705 3.79972 v 18.34753 c 0,17.14749 -0.0303,18.37329 -0.46302,18.74121 -0.25466,0.21652 -1.1774,0.78575 -2.05052,1.26496 -0.87313,0.47921 -2.12328,1.25463 -2.77813,1.72315 -0.65484,0.46852 -3.274215,1.83003 -5.820825,3.02558 -7.93699,3.72613 -17.01131,8.29269 -18.2917,9.20511 -0.96168,0.6853 -1.48945,0.87371 -2.4474,0.87371 h -1.22132 z m 21.33022,-12.96465 c 4.63581,-2.21011 5.328745,-2.5647 6.781755,-3.47032 l 0.99219,-0.6184 v -6.56717 c 0,-3.61194 -0.0711,-6.63826 -0.158,-6.72516 -0.17004,-0.17004 -1.67456,0.49274 -7.977935,3.51447 l -4.0349,1.93425 v 6.96783 c 0,3.83231 0.0438,6.96784 0.0974,6.96784 0.0536,0 1.98833,-0.9015 4.29948,-2.00334 z m 4.59895,-20.36201 2.778115,-1.31486 0.0112,-6.81302 c 0.006,-3.74717 -0.009,-6.81303 -0.0328,-6.81303 -0.0242,0 -0.62125,0.32743 -1.32674,0.72761 -0.70549,0.40018 -3.310085,1.70513 -5.788005,2.89989 l -4.5053,2.17229 -0.0706,6.73465 -0.0706,6.73465 3.11328,-1.50666 c 1.7123,-0.82867 4.36343,-2.09835 5.8914,-2.82152 z"
       id="path7" /><path
       style="fill:#0b3956;fill-opacity:0.988235"
       d="m 69.856187,217.037 c -0.32402,-0.0626 -1.1075,-0.61765 -1.74106,-1.2334 -3.30379,-3.21091 -1.31414,-8.43515 3.22389,-8.465 3.50141,-0.023 5.84627,2.81338 5.02434,6.07757 -0.67464,2.67924 -3.43411,4.21471 -6.50717,3.62083 z m -33.27754,-15.9148 c -1.34674,-0.44019 -2.23096,-1.15754 -2.75103,-2.23186 -1.58045,-3.26477 0.41197,-7.00183 3.67707,-6.89686 0.65485,0.0211 1.27992,0.0657 1.38907,0.0992 0.10914,0.0335 0.28773,0.0781 0.39687,0.0992 0.71606,0.13796 1.9614,1.20374 2.47802,2.12075 1.0322,1.83215 0.69331,4.47119 -0.74082,5.76906 -1.13485,1.02702 -3.09091,1.48448 -4.44918,1.04052 z m 66.615033,0.0398 c -0.32402,-0.0626 -1.1075,-0.61764 -1.74106,-1.23339 -3.345503,-3.25147 -1.25498,-8.47705 3.38852,-8.4701 3.34728,0.005 5.6609,2.90087 4.85971,6.08267 -0.67464,2.67924 -3.43411,4.21471 -6.50717,3.62082 z M 69.386977,180.29433 c -1.75151,-0.91095 -3.02481,-2.79995 -3.03689,-4.50537 -0.0253,-3.56673 3.77462,-6.1029 7.07668,-4.72321 4.23603,1.76993 4.23603,7.46523 0,9.23516 -1.25416,0.52402 -3.02513,0.52113 -4.03979,-0.007 z M 36.254097,164.6495 c -0.32402,-0.0626 -1.1075,-0.61765 -1.74106,-1.2334 -3.78602,-3.6796 -0.51429,-9.59217 4.62555,-8.35914 3.7305,0.89493 5.04931,5.47649 2.35267,8.17314 -1.32838,1.32838 -3.15144,1.82247 -5.23716,1.4194 z m 66.904213,-0.26922 c -0.34348,-0.0652 -1.12721,-0.62119 -1.74162,-1.2356 -3.291763,-3.29177 -1.19645,-8.47018 3.42445,-8.46326 3.34728,0.005 5.6609,2.90086 4.85971,6.08267 -0.67815,2.69319 -3.41996,4.20864 -6.54254,3.61619 z M 70.101357,148.11374 c -0.17463,-0.17462 -0.3175,-0.22653 -0.3175,-0.11536 0,0.11118 -0.47625,-0.0655 -1.05833,-0.39268 -0.58209,-0.32715 -1.05834,-0.75148 -1.05834,-0.94297 0,-0.19148 -0.10461,-0.34815 -0.23248,-0.34815 -0.45149,0 -0.94804,-1.73883 -0.92892,-3.25292 0.0158,-1.24799 0.16247,-1.7357 0.78882,-2.62227 0.99672,-1.41082 2.48372,-2.17798 4.20216,-2.16793 4.38195,0.0256 6.57451,4.77838 3.77254,8.17765 -1.33072,1.61439 -4.27108,2.5615 -5.16795,1.66463 z"
       id="path5" /><path
       style="fill:#329f76;fill-opacity:0.996078"
       d="m 69.117697,192.92802 v -8.06979 h 2.38125 2.38125 v 8.06979 8.0698 h -2.38125 -2.38125 z"
       id="path11" /><text
       xml:space="preserve"
       style="font-size:106.352px;font-family:Impact;-inkscape-font-specification:Impact;text-align:start;writing-mode:lr-tb;direction:ltr;text-anchor:start;fill:#000000;stroke:#000000;stroke-width:0.553916"
       x="139.40164"
       y="204.5013"
       id="text1"><tspan
         sodipodi:role="line"
         id="tspan1"
         x="139.40164"
         y="204.5013"
         style="font-size:106.352px;fill:#000000;stroke:#000000;stroke-width:0.553916">MeshPrep</tspan></text></g></svg>
