solid Default
  facet normal -1.000000e+00 0.000000e+00 0.000000e+00
    outer loop
      vertex -2.154527e+01 2.754527e+01 1.649999e+01
      vertex -2.154527e+01 -2.754527e+01 0.000000e+00
      vertex -2.154527e+01 -2.754527e+01 1.649999e+01
    endloop
  endfacet
  facet normal -1.000000e+00 0.000000e+00 0.000000e+00
    outer loop
      vertex -2.154527e+01 -2.754527e+01 0.000000e+00
      vertex -2.154527e+01 2.754527e+01 1.649999e+01
      vertex -2.154527e+01 2.754527e+01 0.000000e+00
    endloop
  endfacet
  facet normal 0.000000e+00 1.000000e+00 0.000000e+00
    outer loop
      vertex -2.154527e+01 2.754527e+01 1.649999e+01
      vertex 2.154527e+01 2.754527e+01 0.000000e+00
      vertex -2.154527e+01 2.754527e+01 0.000000e+00
    endloop
  endfacet
  facet normal 0.000000e+00 1.000000e+00 0.000000e+00
    outer loop
      vertex 2.154527e+01 2.754527e+01 0.000000e+00
      vertex -2.154527e+01 2.754527e+01 1.649999e+01
      vertex 2.154527e+01 2.754527e+01 1.649999e+01
    endloop
  endfacet
  facet normal 0.000000e+00 -1.000000e+00 0.000000e+00
    outer loop
      vertex 2.000000e+01 2.600000e+01 1.649999e+01
      vertex -2.000000e+01 2.600000e+01 0.000000e+00
      vertex 2.000000e+01 2.600000e+01 0.000000e+00
    endloop
  endfacet
  facet normal 0.000000e+00 -1.000000e+00 0.000000e+00
    outer loop
      vertex -2.000000e+01 2.600000e+01 0.000000e+00
      vertex 2.000000e+01 2.600000e+01 1.649999e+01
      vertex -2.000000e+01 2.600000e+01 1.649999e+01
    endloop
  endfacet
  facet normal 0.000000e+00 0.000000e+00 1.000000e+00
    outer loop
      vertex -2.154527e+01 -2.754527e+01 1.649999e+01
      vertex -2.000000e+01 -2.600000e+01 1.649999e+01
      vertex -2.154527e+01 2.754527e+01 1.649999e+01
    endloop
  endfacet
  facet normal 0.000000e+00 0.000000e+00 1.000000e+00
    outer loop
      vertex -2.000000e+01 -2.600000e+01 1.649999e+01
      vertex -2.154527e+01 -2.754527e+01 1.649999e+01
      vertex 2.154527e+01 -2.754527e+01 1.649999e+01
    endloop
  endfacet
  facet normal 0.000000e+00 0.000000e+00 1.000000e+00
    outer loop
      vertex -2.000000e+01 -2.600000e+01 1.649999e+01
      vertex 2.154527e+01 -2.754527e+01 1.649999e+01
      vertex 2.000000e+01 -2.600000e+01 1.649999e+01
    endloop
  endfacet
  facet normal 0.000000e+00 0.000000e+00 1.000000e+00
    outer loop
      vertex 2.000000e+01 -2.600000e+01 1.649999e+01
      vertex 2.154527e+01 -2.754527e+01 1.649999e+01
      vertex 2.000000e+01 2.600000e+01 1.649999e+01
    endloop
  endfacet
  facet normal 0.000000e+00 0.000000e+00 1.000000e+00
    outer loop
      vertex -2.154527e+01 2.754527e+01 1.649999e+01
      vertex -2.000000e+01 2.600000e+01 1.649999e+01
      vertex 2.154527e+01 2.754527e+01 1.649999e+01
    endloop
  endfacet
  facet normal 0.000000e+00 0.000000e+00 1.000000e+00
    outer loop
      vertex -2.000000e+01 2.600000e+01 1.649999e+01
      vertex -2.154527e+01 2.754527e+01 1.649999e+01
      vertex -2.000000e+01 -2.600000e+01 1.649999e+01
    endloop
  endfacet
  facet normal 0.000000e+00 0.000000e+00 1.000000e+00
    outer loop
      vertex 2.154527e+01 2.754527e+01 1.649999e+01
      vertex -2.000000e+01 2.600000e+01 1.649999e+01
      vertex 2.000000e+01 2.600000e+01 1.649999e+01
    endloop
  endfacet
  facet normal 0.000000e+00 0.000000e+00 1.000000e+00
    outer loop
      vertex 2.154527e+01 2.754527e+01 1.649999e+01
      vertex 2.000000e+01 2.600000e+01 1.649999e+01
      vertex 2.154527e+01 -2.754527e+01 1.649999e+01
    endloop
  endfacet
  facet normal -1.000000e+00 0.000000e+00 0.000000e+00
    outer loop
      vertex 2.000000e+01 2.600000e+01 1.649999e+01
      vertex 2.000000e+01 -2.600000e+01 0.000000e+00
      vertex 2.000000e+01 -2.600000e+01 1.649999e+01
    endloop
  endfacet
  facet normal -1.000000e+00 0.000000e+00 0.000000e+00
    outer loop
      vertex 2.000000e+01 -2.600000e+01 0.000000e+00
      vertex 2.000000e+01 2.600000e+01 1.649999e+01
      vertex 2.000000e+01 2.600000e+01 0.000000e+00
    endloop
  endfacet
  facet normal 0.000000e+00 1.000000e+00 0.000000e+00
    outer loop
      vertex -2.000000e+01 -2.600000e+01 1.649999e+01
      vertex 2.000000e+01 -2.600000e+01 0.000000e+00
      vertex -2.000000e+01 -2.600000e+01 0.000000e+00
    endloop
  endfacet
  facet normal 0.000000e+00 1.000000e+00 0.000000e+00
    outer loop
      vertex 2.000000e+01 -2.600000e+01 0.000000e+00
      vertex -2.000000e+01 -2.600000e+01 1.649999e+01
      vertex 2.000000e+01 -2.600000e+01 1.649999e+01
    endloop
  endfacet
  facet normal 1.000000e+00 0.000000e+00 0.000000e+00
    outer loop
      vertex -2.000000e+01 2.600000e+01 0.000000e+00
      vertex -2.000000e+01 -2.600000e+01 1.649999e+01
      vertex -2.000000e+01 -2.600000e+01 0.000000e+00
    endloop
  endfacet
  facet normal 1.000000e+00 0.000000e+00 0.000000e+00
    outer loop
      vertex -2.000000e+01 -2.600000e+01 1.649999e+01
      vertex -2.000000e+01 2.600000e+01 0.000000e+00
      vertex -2.000000e+01 2.600000e+01 1.649999e+01
    endloop
  endfacet
  facet normal 1.000000e+00 0.000000e+00 0.000000e+00
    outer loop
      vertex 2.154527e+01 2.754527e+01 0.000000e+00
      vertex 2.154527e+01 -2.754527e+01 1.649999e+01
      vertex 2.154527e+01 -2.754527e+01 0.000000e+00
    endloop
  endfacet
  facet normal 1.000000e+00 0.000000e+00 0.000000e+00
    outer loop
      vertex 2.154527e+01 -2.754527e+01 1.649999e+01
      vertex 2.154527e+01 2.754527e+01 0.000000e+00
      vertex 2.154527e+01 2.754527e+01 1.649999e+01
    endloop
  endfacet
  facet normal -0.000000e+00 -1.000000e+00 -0.000000e+00
    outer loop
      vertex 2.154527e+01 -2.754527e+01 1.649999e+01
      vertex -2.154527e+01 -2.754527e+01 0.000000e+00
      vertex 2.154527e+01 -2.754527e+01 0.000000e+00
    endloop
  endfacet
  facet normal -0.000000e+00 -1.000000e+00 -0.000000e+00
    outer loop
      vertex -2.154527e+01 -2.754527e+01 0.000000e+00
      vertex 2.154527e+01 -2.754527e+01 1.649999e+01
      vertex -2.154527e+01 -2.754527e+01 1.649999e+01
    endloop
  endfacet
  facet normal 0.000000e+00 0.000000e+00 -1.000000e+00
    outer loop
      vertex -2.154527e+01 2.754527e+01 0.000000e+00
      vertex -2.000000e+01 2.600000e+01 0.000000e+00
      vertex -2.154527e+01 -2.754527e+01 0.000000e+00
    endloop
  endfacet
  facet normal 0.000000e+00 0.000000e+00 -1.000000e+00
    outer loop
      vertex -2.000000e+01 2.600000e+01 0.000000e+00
      vertex -2.154527e+01 2.754527e+01 0.000000e+00
      vertex 2.154527e+01 2.754527e+01 0.000000e+00
    endloop
  endfacet
  facet normal 0.000000e+00 0.000000e+00 -1.000000e+00
    outer loop
      vertex -2.000000e+01 2.600000e+01 0.000000e+00
      vertex 2.154527e+01 2.754527e+01 0.000000e+00
      vertex 2.000000e+01 2.600000e+01 0.000000e+00
    endloop
  endfacet
  facet normal 0.000000e+00 0.000000e+00 -1.000000e+00
    outer loop
      vertex 2.000000e+01 2.600000e+01 0.000000e+00
      vertex 2.154527e+01 2.754527e+01 0.000000e+00
      vertex 2.000000e+01 -2.600000e+01 0.000000e+00
    endloop
  endfacet
  facet normal 0.000000e+00 0.000000e+00 -1.000000e+00
    outer loop
      vertex -2.154527e+01 -2.754527e+01 0.000000e+00
      vertex -2.000000e+01 -2.600000e+01 0.000000e+00
      vertex 2.154527e+01 -2.754527e+01 0.000000e+00
    endloop
  endfacet
  facet normal 0.000000e+00 0.000000e+00 -1.000000e+00
    outer loop
      vertex -2.000000e+01 -2.600000e+01 0.000000e+00
      vertex -2.154527e+01 -2.754527e+01 0.000000e+00
      vertex -2.000000e+01 2.600000e+01 0.000000e+00
    endloop
  endfacet
  facet normal 0.000000e+00 0.000000e+00 -1.000000e+00
    outer loop
      vertex 2.154527e+01 -2.754527e+01 0.000000e+00
      vertex -2.000000e+01 -2.600000e+01 0.000000e+00
      vertex 2.000000e+01 -2.600000e+01 0.000000e+00
    endloop
  endfacet
  facet normal 0.000000e+00 0.000000e+00 -1.000000e+00
    outer loop
      vertex 2.154527e+01 -2.754527e+01 0.000000e+00
      vertex 2.000000e+01 -2.600000e+01 0.000000e+00
      vertex 2.154527e+01 2.754527e+01 0.000000e+00
    endloop
  endfacet
  facet normal 8.804085e-01 -8.916668e-18 4.742159e-01
    outer loop
      vertex 2.154527e+01 2.754527e+01 1.799999e+01
      vertex 1.077263e+01 -1.377264e+01 3.799999e+01
      vertex 2.154527e+01 -2.754527e+01 1.799999e+01
    endloop
  endfacet
  facet normal 8.804085e-01 -8.916668e-18 4.742159e-01
    outer loop
      vertex 1.077263e+01 -1.377264e+01 3.799999e+01
      vertex 2.154527e+01 2.754527e+01 1.799999e+01
      vertex 1.077263e+01 1.377263e+01 3.799999e+01
    endloop
  endfacet
  facet normal 0.000000e+00 8.236066e-01 5.671616e-01
    outer loop
      vertex -1.077263e+01 1.377263e+01 3.799999e+01
      vertex 2.154527e+01 2.754527e+01 1.799999e+01
      vertex -2.154527e+01 2.754527e+01 1.799999e+01
    endloop
  endfacet
  facet normal 0.000000e+00 8.236066e-01 5.671616e-01
    outer loop
      vertex 2.154527e+01 2.754527e+01 1.799999e+01
      vertex -1.077263e+01 1.377263e+01 3.799999e+01
      vertex 1.077263e+01 1.377263e+01 3.799999e+01
    endloop
  endfacet
  facet normal 0.000000e+00 0.000000e+00 1.000000e+00
    outer loop
      vertex 1.077263e+01 -1.377264e+01 3.799999e+01
      vertex -1.077263e+01 1.377263e+01 3.799999e+01
      vertex -1.077263e+01 -1.377264e+01 3.799999e+01
    endloop
  endfacet
  facet normal 0.000000e+00 0.000000e+00 1.000000e+00
    outer loop
      vertex -1.077263e+01 1.377263e+01 3.799999e+01
      vertex 1.077263e+01 -1.377264e+01 3.799999e+01
      vertex 1.077263e+01 1.377263e+01 3.799999e+01
    endloop
  endfacet
  facet normal 0.000000e+00 0.000000e+00 -1.000000e+00
    outer loop
      vertex 2.154527e+01 2.754527e+01 1.799999e+01
      vertex -2.154527e+01 -2.754527e+01 1.799999e+01
      vertex -2.154527e+01 2.754527e+01 1.799999e+01
    endloop
  endfacet
  facet normal 0.000000e+00 0.000000e+00 -1.000000e+00
    outer loop
      vertex -2.154527e+01 -2.754527e+01 1.799999e+01
      vertex 2.154527e+01 2.754527e+01 1.799999e+01
      vertex 2.154527e+01 -2.754527e+01 1.799999e+01
    endloop
  endfacet
  facet normal 0.000000e+00 -8.236066e-01 5.671616e-01
    outer loop
      vertex 1.077263e+01 -1.377264e+01 3.799999e+01
      vertex -2.154527e+01 -2.754527e+01 1.799999e+01
      vertex 2.154527e+01 -2.754527e+01 1.799999e+01
    endloop
  endfacet
  facet normal 0.000000e+00 -8.236066e-01 5.671616e-01
    outer loop
      vertex -2.154527e+01 -2.754527e+01 1.799999e+01
      vertex 1.077263e+01 -1.377264e+01 3.799999e+01
      vertex -1.077263e+01 -1.377264e+01 3.799999e+01
    endloop
  endfacet
  facet normal -8.804085e-01 -8.916668e-18 4.742159e-01
    outer loop
      vertex -1.077263e+01 -1.377264e+01 3.799999e+01
      vertex -2.154527e+01 2.754527e+01 1.799999e+01
      vertex -2.154527e+01 -2.754527e+01 1.799999e+01
    endloop
  endfacet
  facet normal -8.804085e-01 -8.916668e-18 4.742159e-01
    outer loop
      vertex -2.154527e+01 2.754527e+01 1.799999e+01
      vertex -1.077263e+01 -1.377264e+01 3.799999e+01
      vertex -1.077263e+01 1.377263e+01 3.799999e+01
    endloop
  endfacet
  facet normal 0.000000e+00 1.000000e+00 0.000000e+00
    outer loop
      vertex -2.154527e+01 2.754527e+01 1.799999e+01
      vertex 2.154527e+01 2.754527e+01 1.649999e+01
      vertex -2.154527e+01 2.754527e+01 1.649999e+01
    endloop
  endfacet
  facet normal 0.000000e+00 1.000000e+00 0.000000e+00
    outer loop
      vertex 2.154527e+01 2.754527e+01 1.649999e+01
      vertex -2.154527e+01 2.754527e+01 1.799999e+01
      vertex 2.154527e+01 2.754527e+01 1.799999e+01
    endloop
  endfacet
  facet normal 0.000000e+00 0.000000e+00 1.000000e+00
    outer loop
      vertex 2.154527e+01 -2.754527e+01 1.799999e+01
      vertex -2.154527e+01 2.754527e+01 1.799999e+01
      vertex -2.154527e+01 -2.754527e+01 1.799999e+01
    endloop
  endfacet
  facet normal 0.000000e+00 0.000000e+00 1.000000e+00
    outer loop
      vertex -2.154527e+01 2.754527e+01 1.799999e+01
      vertex 2.154527e+01 -2.754527e+01 1.799999e+01
      vertex 2.154527e+01 2.754527e+01 1.799999e+01
    endloop
  endfacet
  facet normal -0.000000e+00 -1.000000e+00 -0.000000e+00
    outer loop
      vertex 2.154527e+01 -2.754527e+01 1.799999e+01
      vertex -2.154527e+01 -2.754527e+01 1.649999e+01
      vertex 2.154527e+01 -2.754527e+01 1.649999e+01
    endloop
  endfacet
  facet normal -0.000000e+00 -1.000000e+00 -0.000000e+00
    outer loop
      vertex -2.154527e+01 -2.754527e+01 1.649999e+01
      vertex 2.154527e+01 -2.754527e+01 1.799999e+01
      vertex -2.154527e+01 -2.754527e+01 1.799999e+01
    endloop
  endfacet
  facet normal 1.000000e+00 0.000000e+00 0.000000e+00
    outer loop
      vertex 2.154527e+01 2.754527e+01 1.649999e+01
      vertex 2.154527e+01 -2.754527e+01 1.799999e+01
      vertex 2.154527e+01 -2.754527e+01 1.649999e+01
    endloop
  endfacet
  facet normal 1.000000e+00 0.000000e+00 0.000000e+00
    outer loop
      vertex 2.154527e+01 -2.754527e+01 1.799999e+01
      vertex 2.154527e+01 2.754527e+01 1.649999e+01
      vertex 2.154527e+01 2.754527e+01 1.799999e+01
    endloop
  endfacet
  facet normal -1.000000e+00 0.000000e+00 0.000000e+00
    outer loop
      vertex -2.154527e+01 2.754527e+01 1.799999e+01
      vertex -2.154527e+01 -2.754527e+01 1.649999e+01
      vertex -2.154527e+01 -2.754527e+01 1.799999e+01
    endloop
  endfacet
  facet normal -1.000000e+00 0.000000e+00 0.000000e+00
    outer loop
      vertex -2.154527e+01 -2.754527e+01 1.649999e+01
      vertex -2.154527e+01 2.754527e+01 1.799999e+01
      vertex -2.154527e+01 2.754527e+01 1.649999e+01
    endloop
  endfacet
  facet normal 0.000000e+00 0.000000e+00 -1.000000e+00
    outer loop
      vertex 2.154527e+01 2.754527e+01 1.649999e+01
      vertex -2.154527e+01 -2.754527e+01 1.649999e+01
      vertex -2.154527e+01 2.754527e+01 1.649999e+01
    endloop
  endfacet
  facet normal 0.000000e+00 0.000000e+00 -1.000000e+00
    outer loop
      vertex -2.154527e+01 -2.754527e+01 1.649999e+01
      vertex 2.154527e+01 2.754527e+01 1.649999e+01
      vertex 2.154527e+01 -2.754527e+01 1.649999e+01
    endloop
  endfacet
endsolid Default
