solid Default
  facet normal -0.000000e+00 0.000000e+00 -1.000000e+00
    outer loop
      vertex -5.000000e+00 2.160000e+01 0.000000e+00
      vertex 5.000000e+00 3.060000e+01 0.000000e+00
      vertex 5.000000e+00 2.160000e+01 0.000000e+00
    endloop
  endfacet
  facet normal -0.000000e+00 0.000000e+00 -1.000000e+00
    outer loop
      vertex 5.000000e+00 3.060000e+01 0.000000e+00
      vertex -5.000000e+00 2.160000e+01 0.000000e+00
      vertex -5.000000e+00 3.060000e+01 0.000000e+00
    endloop
  endfacet
  facet normal 1.224647e-16 1.000000e+00 0.000000e+00
    outer loop
      vertex -4.799999e+00 3.030000e+01 7.800000e+00
      vertex 4.760000e+00 3.030000e+01 2.400000e+00
      vertex -4.799999e+00 3.030000e+01 2.400000e+00
    endloop
  endfacet
  facet normal 1.224647e-16 1.000000e+00 0.000000e+00
    outer loop
      vertex 4.760000e+00 3.030000e+01 2.400000e+00
      vertex -4.799999e+00 3.030000e+01 7.800000e+00
      vertex 4.799999e+00 3.030000e+01 2.400000e+00
    endloop
  endfacet
  facet normal 1.224647e-16 1.000000e+00 0.000000e+00
    outer loop
      vertex 4.799999e+00 3.030000e+01 2.400000e+00
      vertex -4.799999e+00 3.030000e+01 7.800000e+00
      vertex 4.799999e+00 3.030000e+01 7.800000e+00
    endloop
  endfacet
  facet normal -1.000000e+00 1.224647e-16 0.000000e+00
    outer loop
      vertex -4.799999e+00 2.190000e+01 2.400000e+00
      vertex -4.799999e+00 3.030000e+01 7.800000e+00
      vertex -4.799999e+00 3.030000e+01 2.400000e+00
    endloop
  endfacet
  facet normal -1.000000e+00 1.224647e-16 0.000000e+00
    outer loop
      vertex -4.799999e+00 3.030000e+01 7.800000e+00
      vertex -4.799999e+00 2.190000e+01 2.400000e+00
      vertex -4.799999e+00 2.190000e+01 7.800000e+00
    endloop
  endfacet
  facet normal 1.000000e+00 -1.224647e-16 0.000000e+00
    outer loop
      vertex 4.799999e+00 2.190000e+01 7.800000e+00
      vertex 4.799999e+00 3.030000e+01 2.400000e+00
      vertex 4.799999e+00 3.030000e+01 7.800000e+00
    endloop
  endfacet
  facet normal 1.000000e+00 -1.224647e-16 0.000000e+00
    outer loop
      vertex 4.799999e+00 3.030000e+01 2.400000e+00
      vertex 4.799999e+00 2.190000e+01 7.800000e+00
      vertex 4.799999e+00 2.190000e+01 2.400000e+00
    endloop
  endfacet
  facet normal 1.000000e+00 -1.224647e-16 0.000000e+00
    outer loop
      vertex 4.799999e+00 2.190000e+01 2.400000e+00
      vertex 4.799999e+00 2.190000e+01 7.800000e+00
      vertex 4.799999e+00 2.190000e+01 4.800000e+00
    endloop
  endfacet
  facet normal -1.224647e-16 -1.000000e+00 0.000000e+00
    outer loop
      vertex 4.799999e+00 2.190000e+01 4.800000e+00
      vertex -4.759998e+00 2.190000e+01 2.400000e+00
      vertex 4.799999e+00 2.190000e+01 2.400000e+00
    endloop
  endfacet
  facet normal -1.224647e-16 -1.000000e+00 0.000000e+00
    outer loop
      vertex -4.759998e+00 2.190000e+01 2.400000e+00
      vertex 4.799999e+00 2.190000e+01 4.800000e+00
      vertex -4.799999e+00 2.190000e+01 2.400000e+00
    endloop
  endfacet
  facet normal -1.224647e-16 -1.000000e+00 0.000000e+00
    outer loop
      vertex -4.799999e+00 2.190000e+01 2.400000e+00
      vertex 4.799999e+00 2.190000e+01 4.800000e+00
      vertex -4.799999e+00 2.190000e+01 7.800000e+00
    endloop
  endfacet
  facet normal -1.224647e-16 -1.000000e+00 0.000000e+00
    outer loop
      vertex -4.799999e+00 2.190000e+01 7.800000e+00
      vertex 4.799999e+00 2.190000e+01 4.800000e+00
      vertex 4.799999e+00 2.190000e+01 7.800000e+00
    endloop
  endfacet
  facet normal 0.000000e+00 0.000000e+00 1.000000e+00
    outer loop
      vertex 5.000000e+00 3.060000e+01 2.400000e+00
      vertex 4.799999e+00 3.030000e+01 2.400000e+00
      vertex 5.000000e+00 2.160000e+01 2.400000e+00
    endloop
  endfacet
  facet normal 0.000000e+00 0.000000e+00 1.000000e+00
    outer loop
      vertex 4.799999e+00 3.030000e+01 2.400000e+00
      vertex 5.000000e+00 3.060000e+01 2.400000e+00
      vertex -5.000000e+00 3.060000e+01 2.400000e+00
    endloop
  endfacet
  facet normal 0.000000e+00 0.000000e+00 1.000000e+00
    outer loop
      vertex 4.799999e+00 3.030000e+01 2.400000e+00
      vertex -5.000000e+00 3.060000e+01 2.400000e+00
      vertex 4.760000e+00 3.030000e+01 2.400000e+00
    endloop
  endfacet
  facet normal 0.000000e+00 0.000000e+00 1.000000e+00
    outer loop
      vertex 4.760000e+00 3.030000e+01 2.400000e+00
      vertex -5.000000e+00 3.060000e+01 2.400000e+00
      vertex -4.799999e+00 3.030000e+01 2.400000e+00
    endloop
  endfacet
  facet normal 0.000000e+00 0.000000e+00 1.000000e+00
    outer loop
      vertex -4.799999e+00 3.030000e+01 2.400000e+00
      vertex -5.000000e+00 3.060000e+01 2.400000e+00
      vertex -4.799999e+00 2.190000e+01 2.400000e+00
    endloop
  endfacet
  facet normal 0.000000e+00 0.000000e+00 1.000000e+00
    outer loop
      vertex 5.000000e+00 2.160000e+01 2.400000e+00
      vertex 4.799999e+00 2.190000e+01 2.400000e+00
      vertex -5.000000e+00 2.160000e+01 2.400000e+00
    endloop
  endfacet
  facet normal 0.000000e+00 0.000000e+00 1.000000e+00
    outer loop
      vertex 4.799999e+00 2.190000e+01 2.400000e+00
      vertex 5.000000e+00 2.160000e+01 2.400000e+00
      vertex 4.799999e+00 3.030000e+01 2.400000e+00
    endloop
  endfacet
  facet normal 0.000000e+00 0.000000e+00 1.000000e+00
    outer loop
      vertex -5.000000e+00 2.160000e+01 2.400000e+00
      vertex 4.799999e+00 2.190000e+01 2.400000e+00
      vertex -4.759998e+00 2.190000e+01 2.400000e+00
    endloop
  endfacet
  facet normal 0.000000e+00 0.000000e+00 1.000000e+00
    outer loop
      vertex -5.000000e+00 2.160000e+01 2.400000e+00
      vertex -4.759998e+00 2.190000e+01 2.400000e+00
      vertex -4.799999e+00 2.190000e+01 2.400000e+00
    endloop
  endfacet
  facet normal 0.000000e+00 0.000000e+00 1.000000e+00
    outer loop
      vertex -5.000000e+00 2.160000e+01 2.400000e+00
      vertex -4.799999e+00 2.190000e+01 2.400000e+00
      vertex -5.000000e+00 3.060000e+01 2.400000e+00
    endloop
  endfacet
  facet normal -1.224647e-16 -1.000000e+00 0.000000e+00
    outer loop
      vertex 5.000000e+00 2.160000e+01 2.400000e+00
      vertex -5.000000e+00 2.160000e+01 0.000000e+00
      vertex 5.000000e+00 2.160000e+01 0.000000e+00
    endloop
  endfacet
  facet normal -1.224647e-16 -1.000000e+00 0.000000e+00
    outer loop
      vertex -5.000000e+00 2.160000e+01 0.000000e+00
      vertex 5.000000e+00 2.160000e+01 2.400000e+00
      vertex -5.000000e+00 2.160000e+01 2.400000e+00
    endloop
  endfacet
  facet normal 1.000000e+00 -1.224647e-16 0.000000e+00
    outer loop
      vertex 5.000000e+00 2.160000e+01 2.400000e+00
      vertex 5.000000e+00 3.060000e+01 0.000000e+00
      vertex 5.000000e+00 3.060000e+01 2.400000e+00
    endloop
  endfacet
  facet normal 1.000000e+00 -1.224647e-16 0.000000e+00
    outer loop
      vertex 5.000000e+00 3.060000e+01 0.000000e+00
      vertex 5.000000e+00 2.160000e+01 2.400000e+00
      vertex 5.000000e+00 2.160000e+01 0.000000e+00
    endloop
  endfacet
  facet normal -1.000000e+00 1.224647e-16 0.000000e+00
    outer loop
      vertex -5.000000e+00 2.160000e+01 0.000000e+00
      vertex -5.000000e+00 3.060000e+01 2.400000e+00
      vertex -5.000000e+00 3.060000e+01 0.000000e+00
    endloop
  endfacet
  facet normal -1.000000e+00 1.224647e-16 0.000000e+00
    outer loop
      vertex -5.000000e+00 3.060000e+01 2.400000e+00
      vertex -5.000000e+00 2.160000e+01 0.000000e+00
      vertex -5.000000e+00 2.160000e+01 2.400000e+00
    endloop
  endfacet
  facet normal 1.224647e-16 1.000000e+00 0.000000e+00
    outer loop
      vertex -5.000000e+00 3.060000e+01 2.400000e+00
      vertex 5.000000e+00 3.060000e+01 0.000000e+00
      vertex -5.000000e+00 3.060000e+01 0.000000e+00
    endloop
  endfacet
  facet normal 1.224647e-16 1.000000e+00 0.000000e+00
    outer loop
      vertex 5.000000e+00 3.060000e+01 0.000000e+00
      vertex -5.000000e+00 3.060000e+01 2.400000e+00
      vertex 5.000000e+00 3.060000e+01 2.400000e+00
    endloop
  endfacet
  facet normal 1.000000e+00 -1.224647e-16 0.000000e+00
    outer loop
      vertex 2.664017e+00 2.403598e+01 2.580000e+01
      vertex 2.664017e+00 2.816402e+01 1.980000e+01
      vertex 2.664017e+00 2.816402e+01 2.580000e+01
    endloop
  endfacet
  facet normal 1.000000e+00 -1.224647e-16 0.000000e+00
    outer loop
      vertex 2.664017e+00 2.816402e+01 1.980000e+01
      vertex 2.664017e+00 2.403598e+01 2.580000e+01
      vertex 2.664017e+00 2.403598e+01 1.980000e+01
    endloop
  endfacet
  facet normal 0.000000e+00 0.000000e+00 1.000000e+00
    outer loop
      vertex -2.664017e+00 2.816402e+01 2.580000e+01
      vertex 2.664017e+00 2.403598e+01 2.580000e+01
      vertex 2.664017e+00 2.816402e+01 2.580000e+01
    endloop
  endfacet
  facet normal 0.000000e+00 0.000000e+00 1.000000e+00
    outer loop
      vertex 2.664017e+00 2.403598e+01 2.580000e+01
      vertex -2.664017e+00 2.816402e+01 2.580000e+01
      vertex -2.664017e+00 2.403598e+01 2.580000e+01
    endloop
  endfacet
  facet normal -1.000000e+00 1.224647e-16 0.000000e+00
    outer loop
      vertex -2.664017e+00 2.403598e+01 1.980000e+01
      vertex -2.664017e+00 2.816402e+01 2.580000e+01
      vertex -2.664017e+00 2.816402e+01 1.980000e+01
    endloop
  endfacet
  facet normal -1.000000e+00 1.224647e-16 0.000000e+00
    outer loop
      vertex -2.664017e+00 2.816402e+01 2.580000e+01
      vertex -2.664017e+00 2.403598e+01 1.980000e+01
      vertex -2.664017e+00 2.403598e+01 2.580000e+01
    endloop
  endfacet
  facet normal -1.224647e-16 -1.000000e+00 0.000000e+00
    outer loop
      vertex 2.664017e+00 2.403598e+01 2.580000e+01
      vertex -2.664017e+00 2.403598e+01 1.980000e+01
      vertex 2.664017e+00 2.403598e+01 1.980000e+01
    endloop
  endfacet
  facet normal -1.224647e-16 -1.000000e+00 0.000000e+00
    outer loop
      vertex -2.664017e+00 2.403598e+01 1.980000e+01
      vertex 2.664017e+00 2.403598e+01 2.580000e+01
      vertex -2.664017e+00 2.403598e+01 2.580000e+01
    endloop
  endfacet
  facet normal 1.224647e-16 1.000000e+00 0.000000e+00
    outer loop
      vertex -2.664017e+00 2.816402e+01 2.580000e+01
      vertex 2.664017e+00 2.816402e+01 1.980000e+01
      vertex -2.664017e+00 2.816402e+01 1.980000e+01
    endloop
  endfacet
  facet normal 1.224647e-16 1.000000e+00 0.000000e+00
    outer loop
      vertex 2.664017e+00 2.816402e+01 1.980000e+01
      vertex -2.664017e+00 2.816402e+01 2.580000e+01
      vertex 2.664017e+00 2.816402e+01 2.580000e+01
    endloop
  endfacet
  facet normal -1.224647e-16 -1.000000e+00 0.000000e+00
    outer loop
      vertex 5.700001e+00 2.100000e+01 1.980000e+01
      vertex -5.700001e+00 2.100000e+01 7.800000e+00
      vertex 5.700001e+00 2.100000e+01 7.800000e+00
    endloop
  endfacet
  facet normal -1.224647e-16 -1.000000e+00 0.000000e+00
    outer loop
      vertex -5.700001e+00 2.100000e+01 7.800000e+00
      vertex 5.700001e+00 2.100000e+01 1.980000e+01
      vertex -5.700001e+00 2.100000e+01 1.980000e+01
    endloop
  endfacet
  facet normal -1.000000e+00 1.224647e-16 0.000000e+00
    outer loop
      vertex -5.700001e+00 2.100000e+01 7.800000e+00
      vertex -5.700001e+00 3.120000e+01 1.980000e+01
      vertex -5.700001e+00 3.120000e+01 7.800000e+00
    endloop
  endfacet
  facet normal -1.000000e+00 1.224647e-16 0.000000e+00
    outer loop
      vertex -5.700001e+00 3.120000e+01 1.980000e+01
      vertex -5.700001e+00 2.100000e+01 7.800000e+00
      vertex -5.700001e+00 2.100000e+01 1.980000e+01
    endloop
  endfacet
  facet normal 1.000000e+00 -1.224647e-16 0.000000e+00
    outer loop
      vertex 5.700001e+00 2.100000e+01 1.980000e+01
      vertex 5.700001e+00 3.120000e+01 7.800000e+00
      vertex 5.700001e+00 3.120000e+01 1.980000e+01
    endloop
  endfacet
  facet normal 1.000000e+00 -1.224647e-16 0.000000e+00
    outer loop
      vertex 5.700001e+00 3.120000e+01 7.800000e+00
      vertex 5.700001e+00 2.100000e+01 1.980000e+01
      vertex 5.700001e+00 2.100000e+01 7.800000e+00
    endloop
  endfacet
  facet normal 1.224647e-16 1.000000e+00 0.000000e+00
    outer loop
      vertex -5.700001e+00 3.120000e+01 1.980000e+01
      vertex 5.700001e+00 3.120000e+01 7.800000e+00
      vertex -5.700001e+00 3.120000e+01 7.800000e+00
    endloop
  endfacet
  facet normal 1.224647e-16 1.000000e+00 0.000000e+00
    outer loop
      vertex 5.700001e+00 3.120000e+01 7.800000e+00
      vertex -5.700001e+00 3.120000e+01 1.980000e+01
      vertex 5.700001e+00 3.120000e+01 1.980000e+01
    endloop
  endfacet
  facet normal 0.000000e+00 0.000000e+00 1.000000e+00
    outer loop
      vertex 5.700001e+00 3.120000e+01 1.980000e+01
      vertex 2.664017e+00 2.816402e+01 1.980000e+01
      vertex 5.700001e+00 2.100000e+01 1.980000e+01
    endloop
  endfacet
  facet normal 0.000000e+00 0.000000e+00 1.000000e+00
    outer loop
      vertex 2.664017e+00 2.816402e+01 1.980000e+01
      vertex 5.700001e+00 3.120000e+01 1.980000e+01
      vertex -5.700001e+00 3.120000e+01 1.980000e+01
    endloop
  endfacet
  facet normal 0.000000e+00 0.000000e+00 1.000000e+00
    outer loop
      vertex 2.664017e+00 2.816402e+01 1.980000e+01
      vertex -5.700001e+00 3.120000e+01 1.980000e+01
      vertex -2.664017e+00 2.816402e+01 1.980000e+01
    endloop
  endfacet
  facet normal 0.000000e+00 0.000000e+00 1.000000e+00
    outer loop
      vertex -2.664017e+00 2.816402e+01 1.980000e+01
      vertex -5.700001e+00 3.120000e+01 1.980000e+01
      vertex -2.664017e+00 2.403598e+01 1.980000e+01
    endloop
  endfacet
  facet normal 0.000000e+00 0.000000e+00 1.000000e+00
    outer loop
      vertex 5.700001e+00 2.100000e+01 1.980000e+01
      vertex 2.664017e+00 2.403598e+01 1.980000e+01
      vertex -5.700001e+00 2.100000e+01 1.980000e+01
    endloop
  endfacet
  facet normal 0.000000e+00 0.000000e+00 1.000000e+00
    outer loop
      vertex 2.664017e+00 2.403598e+01 1.980000e+01
      vertex 5.700001e+00 2.100000e+01 1.980000e+01
      vertex 2.664017e+00 2.816402e+01 1.980000e+01
    endloop
  endfacet
  facet normal 0.000000e+00 0.000000e+00 1.000000e+00
    outer loop
      vertex -5.700001e+00 2.100000e+01 1.980000e+01
      vertex 2.664017e+00 2.403598e+01 1.980000e+01
      vertex -2.664017e+00 2.403598e+01 1.980000e+01
    endloop
  endfacet
  facet normal 0.000000e+00 0.000000e+00 1.000000e+00
    outer loop
      vertex -5.700001e+00 2.100000e+01 1.980000e+01
      vertex -2.664017e+00 2.403598e+01 1.980000e+01
      vertex -5.700001e+00 3.120000e+01 1.980000e+01
    endloop
  endfacet
  facet normal -0.000000e+00 0.000000e+00 -1.000000e+00
    outer loop
      vertex 5.700001e+00 2.100000e+01 7.800000e+00
      vertex 4.799999e+00 2.190000e+01 7.800000e+00
      vertex 5.700001e+00 3.120000e+01 7.800000e+00
    endloop
  endfacet
  facet normal -0.000000e+00 0.000000e+00 -1.000000e+00
    outer loop
      vertex 4.799999e+00 2.190000e+01 7.800000e+00
      vertex 5.700001e+00 2.100000e+01 7.800000e+00
      vertex -5.700001e+00 2.100000e+01 7.800000e+00
    endloop
  endfacet
  facet normal -0.000000e+00 0.000000e+00 -1.000000e+00
    outer loop
      vertex 4.799999e+00 2.190000e+01 7.800000e+00
      vertex -5.700001e+00 2.100000e+01 7.800000e+00
      vertex -4.799999e+00 2.190000e+01 7.800000e+00
    endloop
  endfacet
  facet normal -0.000000e+00 0.000000e+00 -1.000000e+00
    outer loop
      vertex -4.799999e+00 2.190000e+01 7.800000e+00
      vertex -5.700001e+00 2.100000e+01 7.800000e+00
      vertex -4.799999e+00 3.030000e+01 7.800000e+00
    endloop
  endfacet
  facet normal -0.000000e+00 0.000000e+00 -1.000000e+00
    outer loop
      vertex 5.700001e+00 3.120000e+01 7.800000e+00
      vertex 4.799999e+00 3.030000e+01 7.800000e+00
      vertex -5.700001e+00 3.120000e+01 7.800000e+00
    endloop
  endfacet
  facet normal -0.000000e+00 0.000000e+00 -1.000000e+00
    outer loop
      vertex 4.799999e+00 3.030000e+01 7.800000e+00
      vertex 5.700001e+00 3.120000e+01 7.800000e+00
      vertex 4.799999e+00 2.190000e+01 7.800000e+00
    endloop
  endfacet
  facet normal -0.000000e+00 0.000000e+00 -1.000000e+00
    outer loop
      vertex -5.700001e+00 3.120000e+01 7.800000e+00
      vertex 4.799999e+00 3.030000e+01 7.800000e+00
      vertex -4.799999e+00 3.030000e+01 7.800000e+00
    endloop
  endfacet
  facet normal -0.000000e+00 0.000000e+00 -1.000000e+00
    outer loop
      vertex -5.700001e+00 3.120000e+01 7.800000e+00
      vertex -4.799999e+00 3.030000e+01 7.800000e+00
      vertex -5.700001e+00 2.100000e+01 7.800000e+00
    endloop
  endfacet
  facet normal 1.000000e+00 -1.224647e-16 0.000000e+00
    outer loop
      vertex 3.000000e+01 -3.120000e+01 2.040000e+00
      vertex 3.000000e+01 9.600002e+00 0.000000e+00
      vertex 3.000000e+01 9.600002e+00 2.040000e+00
    endloop
  endfacet
  facet normal 1.000000e+00 -1.224647e-16 0.000000e+00
    outer loop
      vertex 3.000000e+01 9.600002e+00 0.000000e+00
      vertex 3.000000e+01 -3.120000e+01 2.040000e+00
      vertex 3.000000e+01 -3.120000e+01 0.000000e+00
    endloop
  endfacet
  facet normal -1.000000e+00 1.224647e-16 0.000000e+00
    outer loop
      vertex -3.000000e+01 -3.120000e+01 0.000000e+00
      vertex -3.000000e+01 9.600002e+00 2.040000e+00
      vertex -3.000000e+01 9.600002e+00 0.000000e+00
    endloop
  endfacet
  facet normal -1.000000e+00 1.224647e-16 0.000000e+00
    outer loop
      vertex -3.000000e+01 9.600002e+00 2.040000e+00
      vertex -3.000000e+01 -3.120000e+01 0.000000e+00
      vertex -3.000000e+01 -3.120000e+01 2.040000e+00
    endloop
  endfacet
  facet normal -0.000000e+00 0.000000e+00 -1.000000e+00
    outer loop
      vertex -3.000000e+01 -3.120000e+01 0.000000e+00
      vertex 3.000000e+01 9.600002e+00 0.000000e+00
      vertex 3.000000e+01 -3.120000e+01 0.000000e+00
    endloop
  endfacet
  facet normal -0.000000e+00 0.000000e+00 -1.000000e+00
    outer loop
      vertex 3.000000e+01 9.600002e+00 0.000000e+00
      vertex -3.000000e+01 -3.120000e+01 0.000000e+00
      vertex -3.000000e+01 9.600002e+00 0.000000e+00
    endloop
  endfacet
  facet normal -1.224647e-16 -1.000000e+00 0.000000e+00
    outer loop
      vertex 3.000000e+01 -3.120000e+01 2.040000e+00
      vertex -3.000000e+01 -3.120000e+01 0.000000e+00
      vertex 3.000000e+01 -3.120000e+01 0.000000e+00
    endloop
  endfacet
  facet normal -1.224647e-16 -1.000000e+00 0.000000e+00
    outer loop
      vertex -3.000000e+01 -3.120000e+01 0.000000e+00
      vertex 3.000000e+01 -3.120000e+01 2.040000e+00
      vertex -3.000000e+01 -3.120000e+01 2.040000e+00
    endloop
  endfacet
  facet normal 0.000000e+00 0.000000e+00 1.000000e+00
    outer loop
      vertex -3.000000e+01 9.600002e+00 2.040000e+00
      vertex 3.000000e+01 -3.120000e+01 2.040000e+00
      vertex 3.000000e+01 9.600002e+00 2.040000e+00
    endloop
  endfacet
  facet normal 0.000000e+00 0.000000e+00 1.000000e+00
    outer loop
      vertex 3.000000e+01 -3.120000e+01 2.040000e+00
      vertex -3.000000e+01 9.600002e+00 2.040000e+00
      vertex -3.000000e+01 -3.120000e+01 2.040000e+00
    endloop
  endfacet
  facet normal 1.224647e-16 1.000000e+00 0.000000e+00
    outer loop
      vertex -3.000000e+01 9.600002e+00 2.040000e+00
      vertex 3.000000e+01 9.600002e+00 0.000000e+00
      vertex -3.000000e+01 9.600002e+00 0.000000e+00
    endloop
  endfacet
  facet normal 1.224647e-16 1.000000e+00 0.000000e+00
    outer loop
      vertex 3.000000e+01 9.600002e+00 0.000000e+00
      vertex -3.000000e+01 9.600002e+00 2.040000e+00
      vertex 3.000000e+01 9.600002e+00 2.040000e+00
    endloop
  endfacet
endsolid Default
