solid OpenSCAD_Model
  facet normal 0 0 -1
    outer loop
      vertex 0 15 0
      vertex 30 15 0
      vertex 0 -15 0
    endloop
  endfacet
  facet normal -0 0 -1
    outer loop
      vertex 0 -15 0
      vertex 30 15 0
      vertex 30 -15 0
    endloop
  endfacet
  facet normal 0 -0.936329 0.351123
    outer loop
      vertex 0 -15 0
      vertex 30 -15 0
      vertex 30 0 40
    endloop
  endfacet
  facet normal 0 -0.936329 0.351123
    outer loop
      vertex 0 0 40
      vertex 0 -15 0
      vertex 30 0 40
    endloop
  endfacet
  facet normal 1 0 0
    outer loop
      vertex 30 -15 0
      vertex 30 15 0
      vertex 30 0 40
    endloop
  endfacet
  facet normal -1 -0 0
    outer loop
      vertex 0 -15 0
      vertex 0 0 40
      vertex 0 15 0
    endloop
  endfacet
  facet normal -0 0.936329 0.351123
    outer loop
      vertex 30 0 40
      vertex 30 15 0
      vertex 0 0 40
    endloop
  endfacet
  facet normal 0 0.936329 0.351123
    outer loop
      vertex 0 0 40
      vertex 30 15 0
      vertex 0 15 0
    endloop
  endfacet
endsolid OpenSCAD_Model
