solid Default
  facet normal 4.714053e-01 8.164962e-01 3.333333e-01
    outer loop
      vertex -2.524631e+00 5.133340e+00 2.514807e+01
      vertex 1.525775e+01 5.133340e+00 3.552714e-15
      vertex -1.141587e+01 2.053330e+01 0.000000e+00
    endloop
  endfacet
  facet normal 7.856745e-01 2.721650e-01 5.555553e-01
    outer loop
      vertex -2.524631e+00 5.133340e+00 2.514807e+01
      vertex 1.229403e+01 -2.053330e+01 1.676544e+01
      vertex 1.525775e+01 5.133340e+00 3.552714e-15
    endloop
  endfacet
  facet normal -6.285392e-01 -5.443308e-01 5.555560e-01
    outer loop
      vertex -2.524631e+00 5.133340e+00 2.514807e+01
      vertex -1.141587e+01 -1.026670e+01 0.000000e+00
      vertex 1.229403e+01 -2.053330e+01 1.676544e+01
    endloop
  endfacet
  facet normal -9.428087e-01 0.000000e+00 3.333344e-01
    outer loop
      vertex -2.524631e+00 5.133340e+00 2.514807e+01
      vertex -1.141587e+01 2.053330e+01 0.000000e+00
      vertex -1.141587e+01 -1.026670e+01 0.000000e+00
    endloop
  endfacet
  facet normal -4.616789e-07 0.000000e+00 -1.000000e+00
    outer loop
      vertex -1.141587e+01 -1.026670e+01 0.000000e+00
      vertex -1.141587e+01 2.053330e+01 0.000000e+00
      vertex 1.525775e+01 5.133340e+00 3.552714e-15
    endloop
  endfacet
  facet normal 3.142686e-01 -5.443309e-01 -7.777783e-01
    outer loop
      vertex -1.141587e+01 -1.026670e+01 0.000000e+00
      vertex 1.525775e+01 5.133340e+00 3.552714e-15
      vertex 1.229403e+01 -2.053330e+01 1.676544e+01
    endloop
  endfacet
endsolid Default
