<svg xmlns="http://www.w3.org/2000/svg" width="800" height="500" viewBox="0 0 800 500">
  <!-- Window Background -->
  <rect width="800" height="500" fill="#0f1720"/>
  
  <!-- Header -->
  <rect x="0" y="0" width="800" height="40" fill="#111822"/>
  <text x="20" y="26" font-family="Segoe UI, Arial, sans-serif" font-size="16" fill="#4fe8c4" font-weight="bold">Filter Script Editor</text>
  <text x="180" y="26" font-family="Segoe UI, Arial, sans-serif" font-size="12" fill="#dff6fb" opacity="0.7">— holes-only-suggested</text>
  
  <!-- Close button -->
  <rect x="760" y="8" width="24" height="24" rx="4" fill="#1b2b33"/>
  <text x="772" y="24" font-family="Segoe UI, Arial, sans-serif" font-size="14" fill="#dff6fb" text-anchor="middle">×</text>
  
  <!-- Left Panel: Filter Library -->
  <rect x="10" y="50" width="220" height="440" rx="8" fill="#111822"/>
  
  <!-- Library Header -->
  <rect x="10" y="50" width="220" height="36" rx="8" fill="#1b2b33"/>
  <rect x="10" y="78" width="220" height="8" fill="#1b2b33"/>
  <text x="20" y="74" font-family="Segoe UI, Arial, sans-serif" font-size="13" fill="#4fe8c4" font-weight="bold">Filter Library</text>
  
  <!-- Search box -->
  <rect x="20" y="96" width="200" height="28" rx="4" fill="#1b2b33"/>
  <text x="30" y="114" font-family="Segoe UI, Arial, sans-serif" font-size="11" fill="#dff6fb" opacity="0.5">Search actions...</text>
  
  <!-- Category: Cleanup (expanded) -->
  <rect x="20" y="134" width="200" height="24" rx="4" fill="#1b2b33"/>
  <text x="36" y="150" font-family="Segoe UI, Arial, sans-serif" font-size="11" fill="#4fe8c4">▼ Loading &amp; Cleanup</text>
  
  <!-- Actions in category -->
  <rect x="30" y="162" width="180" height="22" rx="3" fill="#0f1720"/>
  <text x="40" y="177" font-family="Segoe UI, Arial, sans-serif" font-size="10" fill="#dff6fb">trimesh_basic</text>
  <text x="190" y="177" font-family="Segoe UI, Arial, sans-serif" font-size="9" fill="#dff6fb" opacity="0.5" text-anchor="end">trimesh</text>
  
  <rect x="30" y="188" width="180" height="22" rx="3" fill="#0f1720"/>
  <text x="40" y="203" font-family="Segoe UI, Arial, sans-serif" font-size="10" fill="#dff6fb">merge_vertices</text>
  <text x="190" y="203" font-family="Segoe UI, Arial, sans-serif" font-size="9" fill="#dff6fb" opacity="0.5" text-anchor="end">trimesh</text>
  
  <rect x="30" y="214" width="180" height="22" rx="3" fill="#0f1720"/>
  <text x="40" y="229" font-family="Segoe UI, Arial, sans-serif" font-size="10" fill="#dff6fb">remove_degenerate</text>
  <text x="190" y="229" font-family="Segoe UI, Arial, sans-serif" font-size="9" fill="#dff6fb" opacity="0.5" text-anchor="end">trimesh</text>
  
  <!-- Category: Hole Filling (collapsed) -->
  <rect x="20" y="246" width="200" height="24" rx="4" fill="#1b2b33"/>
  <text x="36" y="262" font-family="Segoe UI, Arial, sans-serif" font-size="11" fill="#dff6fb">▶ Hole Filling</text>
  
  <!-- Category: Normal Correction (collapsed) -->
  <rect x="20" y="276" width="200" height="24" rx="4" fill="#1b2b33"/>
  <text x="36" y="292" font-family="Segoe UI, Arial, sans-serif" font-size="11" fill="#dff6fb">▶ Normal Correction</text>
  
  <!-- Category: Repair (collapsed) -->
  <rect x="20" y="306" width="200" height="24" rx="4" fill="#1b2b33"/>
  <text x="36" y="322" font-family="Segoe UI, Arial, sans-serif" font-size="11" fill="#dff6fb">▶ Repair &amp; Manifold</text>
  
  <!-- Category: Validation (collapsed) -->
  <rect x="20" y="336" width="200" height="24" rx="4" fill="#1b2b33"/>
  <text x="36" y="352" font-family="Segoe UI, Arial, sans-serif" font-size="11" fill="#dff6fb">▶ Validation</text>
  
  <!-- Category: Export (collapsed) -->
  <rect x="20" y="366" width="200" height="24" rx="4" fill="#1b2b33"/>
  <text x="36" y="382" font-family="Segoe UI, Arial, sans-serif" font-size="11" fill="#dff6fb">▶ Export</text>
  
  <!-- Category: Blender (collapsed) -->
  <rect x="20" y="396" width="200" height="24" rx="4" fill="#1b2b33"/>
  <text x="36" y="412" font-family="Segoe UI, Arial, sans-serif" font-size="11" fill="#ffd93d">▶ Blender (Escalation)</text>
  
  <!-- Drag hint -->
  <text x="120" y="455" font-family="Segoe UI, Arial, sans-serif" font-size="10" fill="#dff6fb" opacity="0.4" text-anchor="middle">Drag actions to add →</text>
  
  <!-- Center Panel: Action List -->
  <rect x="240" y="50" width="340" height="440" rx="8" fill="#111822"/>
  
  <!-- Action List Header -->
  <rect x="240" y="50" width="340" height="36" rx="8" fill="#1b2b33"/>
  <rect x="240" y="78" width="340" height="8" fill="#1b2b33"/>
  <text x="250" y="74" font-family="Segoe UI, Arial, sans-serif" font-size="13" fill="#4fe8c4" font-weight="bold">Actions (4)</text>
  
  <!-- Toolbar -->
  <rect x="470" y="56" width="24" height="24" rx="4" fill="#111822"/>
  <text x="482" y="72" font-family="Segoe UI, Arial, sans-serif" font-size="12" fill="#dff6fb" text-anchor="middle">+</text>
  <rect x="498" y="56" width="24" height="24" rx="4" fill="#111822"/>
  <text x="510" y="72" font-family="Segoe UI, Arial, sans-serif" font-size="12" fill="#dff6fb" text-anchor="middle">↑</text>
  <rect x="526" y="56" width="24" height="24" rx="4" fill="#111822"/>
  <text x="538" y="72" font-family="Segoe UI, Arial, sans-serif" font-size="12" fill="#dff6fb" text-anchor="middle">↓</text>
  <rect x="554" y="56" width="24" height="24" rx="4" fill="#111822"/>
  <text x="566" y="72" font-family="Segoe UI, Arial, sans-serif" font-size="12" fill="#ff6b6b" text-anchor="middle">×</text>
  
  <!-- Action 1: trimesh_basic -->
  <rect x="250" y="96" width="320" height="50" rx="6" fill="#1b2b33"/>
  <circle cx="266" cy="121" r="10" fill="#6bff6b"/>
  <text x="266" y="125" font-family="Segoe UI, Arial, sans-serif" font-size="10" fill="#0f1720" text-anchor="middle">1</text>
  <text x="284" y="114" font-family="Segoe UI, Arial, sans-serif" font-size="12" fill="#dff6fb" font-weight="bold">trimesh_basic</text>
  <text x="284" y="130" font-family="Segoe UI, Arial, sans-serif" font-size="10" fill="#dff6fb" opacity="0.6">Load and apply basic cleanup</text>
  <text x="556" y="121" font-family="Segoe UI, Arial, sans-serif" font-size="9" fill="#4fe8c4" text-anchor="end">trimesh</text>
  
  <!-- Action 2: fill_holes (selected) -->
  <rect x="250" y="152" width="320" height="50" rx="6" fill="#4fe8c4" opacity="0.15"/>
  <rect x="250" y="152" width="320" height="50" rx="6" fill="none" stroke="#4fe8c4" stroke-width="2"/>
  <circle cx="266" cy="177" r="10" fill="#4fe8c4"/>
  <text x="266" y="181" font-family="Segoe UI, Arial, sans-serif" font-size="10" fill="#0f1720" text-anchor="middle">2</text>
  <text x="284" y="170" font-family="Segoe UI, Arial, sans-serif" font-size="12" fill="#4fe8c4" font-weight="bold">fill_holes</text>
  <text x="284" y="186" font-family="Segoe UI, Arial, sans-serif" font-size="10" fill="#dff6fb" opacity="0.8">max_hole_size: 1000</text>
  <text x="556" y="177" font-family="Segoe UI, Arial, sans-serif" font-size="9" fill="#4fe8c4" text-anchor="end">trimesh</text>
  
  <!-- Action 3: recalculate_normals -->
  <rect x="250" y="208" width="320" height="50" rx="6" fill="#1b2b33"/>
  <circle cx="266" cy="233" r="10" fill="#1b2b33" stroke="#dff6fb" stroke-width="1"/>
  <text x="266" y="237" font-family="Segoe UI, Arial, sans-serif" font-size="10" fill="#dff6fb" text-anchor="middle">3</text>
  <text x="284" y="226" font-family="Segoe UI, Arial, sans-serif" font-size="12" fill="#dff6fb" font-weight="bold">recalculate_normals</text>
  <text x="284" y="242" font-family="Segoe UI, Arial, sans-serif" font-size="10" fill="#dff6fb" opacity="0.6">Recompute face normals</text>
  <text x="556" y="233" font-family="Segoe UI, Arial, sans-serif" font-size="9" fill="#4fe8c4" text-anchor="end">trimesh</text>
  
  <!-- Action 4: validate -->
  <rect x="250" y="264" width="320" height="50" rx="6" fill="#1b2b33"/>
  <circle cx="266" cy="289" r="10" fill="#1b2b33" stroke="#dff6fb" stroke-width="1"/>
  <text x="266" y="293" font-family="Segoe UI, Arial, sans-serif" font-size="10" fill="#dff6fb" text-anchor="middle">4</text>
  <text x="284" y="282" font-family="Segoe UI, Arial, sans-serif" font-size="12" fill="#dff6fb" font-weight="bold">validate</text>
  <text x="284" y="298" font-family="Segoe UI, Arial, sans-serif" font-size="10" fill="#dff6fb" opacity="0.6">Run all validation checks</text>
  <text x="556" y="289" font-family="Segoe UI, Arial, sans-serif" font-size="9" fill="#4fe8c4" text-anchor="end">internal</text>
  
  <!-- Drop zone hint -->
  <rect x="250" y="324" width="320" height="40" rx="6" fill="none" stroke="#4fe8c4" stroke-width="1" stroke-dasharray="4" opacity="0.3"/>
  <text x="410" y="348" font-family="Segoe UI, Arial, sans-serif" font-size="10" fill="#dff6fb" opacity="0.4" text-anchor="middle">Drop action here or click + to add</text>
  
  <!-- Template buttons -->
  <text x="250" y="385" font-family="Segoe UI, Arial, sans-serif" font-size="10" fill="#dff6fb" opacity="0.6">Quick templates:</text>
  <rect x="250" y="394" width="100" height="24" rx="4" fill="#1b2b33"/>
  <text x="300" y="410" font-family="Segoe UI, Arial, sans-serif" font-size="10" fill="#dff6fb" text-anchor="middle">Basic Cleanup</text>
  <rect x="356" y="394" width="100" height="24" rx="4" fill="#1b2b33"/>
  <text x="406" y="410" font-family="Segoe UI, Arial, sans-serif" font-size="10" fill="#dff6fb" text-anchor="middle">Aggressive Repair</text>
  <rect x="462" y="394" width="100" height="24" rx="4" fill="#1b2b33"/>
  <text x="512" y="410" font-family="Segoe UI, Arial, sans-serif" font-size="10" fill="#dff6fb" text-anchor="middle">Blender Fix</text>
  
  <!-- Bottom buttons -->
  <rect x="250" y="440" width="80" height="32" rx="4" fill="#1b2b33"/>
  <text x="290" y="460" font-family="Segoe UI, Arial, sans-serif" font-size="11" fill="#dff6fb" text-anchor="middle">Undo</text>
  <rect x="336" y="440" width="80" height="32" rx="4" fill="#1b2b33"/>
  <text x="376" y="460" font-family="Segoe UI, Arial, sans-serif" font-size="11" fill="#dff6fb" text-anchor="middle">Redo</text>
  <rect x="480" y="440" width="90" height="32" rx="4" fill="#4fe8c4"/>
  <text x="525" y="460" font-family="Segoe UI, Arial, sans-serif" font-size="11" fill="#0f1720" text-anchor="middle">Apply</text>
  
  <!-- Right Panel: Parameter Editor -->
  <rect x="590" y="50" width="200" height="440" rx="8" fill="#111822"/>
  
  <!-- Parameter Editor Header -->
  <rect x="590" y="50" width="200" height="36" rx="8" fill="#1b2b33"/>
  <rect x="590" y="78" width="200" height="8" fill="#1b2b33"/>
  <text x="600" y="74" font-family="Segoe UI, Arial, sans-serif" font-size="13" fill="#4fe8c4" font-weight="bold">Parameters</text>
  
  <!-- Action info -->
  <text x="600" y="110" font-family="Segoe UI, Arial, sans-serif" font-size="12" fill="#dff6fb" font-weight="bold">fill_holes</text>
  <text x="600" y="128" font-family="Segoe UI, Arial, sans-serif" font-size="10" fill="#dff6fb" opacity="0.6">Tool: trimesh</text>
  
  <!-- Description -->
  <rect x="600" y="140" width="180" height="50" rx="4" fill="#0f1720"/>
  <text x="610" y="158" font-family="Segoe UI, Arial, sans-serif" font-size="10" fill="#dff6fb" opacity="0.8">Fill holes in the mesh up to</text>
  <text x="610" y="172" font-family="Segoe UI, Arial, sans-serif" font-size="10" fill="#dff6fb" opacity="0.8">a maximum size. Useful for</text>
  <text x="610" y="186" font-family="Segoe UI, Arial, sans-serif" font-size="10" fill="#dff6fb" opacity="0.8">closing small gaps.</text>
  
  <!-- Parameter: max_hole_size -->
  <text x="600" y="215" font-family="Segoe UI, Arial, sans-serif" font-size="11" fill="#dff6fb">max_hole_size</text>
  <text x="600" y="230" font-family="Segoe UI, Arial, sans-serif" font-size="9" fill="#dff6fb" opacity="0.5">Maximum edges in hole to fill</text>
  <rect x="600" y="238" width="140" height="28" rx="4" fill="#1b2b33"/>
  <text x="610" y="256" font-family="Segoe UI, Arial, sans-serif" font-size="12" fill="#4fe8c4">1000</text>
  <rect x="746" y="238" width="34" height="28" rx="4" fill="#1b2b33"/>
  <text x="763" y="256" font-family="Segoe UI, Arial, sans-serif" font-size="10" fill="#dff6fb" text-anchor="middle">↺</text>
  
  <!-- Parameter: method -->
  <text x="600" y="290" font-family="Segoe UI, Arial, sans-serif" font-size="11" fill="#dff6fb">method</text>
  <text x="600" y="305" font-family="Segoe UI, Arial, sans-serif" font-size="9" fill="#dff6fb" opacity="0.5">Hole filling algorithm</text>
  <rect x="600" y="313" width="180" height="28" rx="4" fill="#1b2b33"/>
  <text x="610" y="331" font-family="Segoe UI, Arial, sans-serif" font-size="12" fill="#dff6fb">fan</text>
  <text x="770" y="331" font-family="Segoe UI, Arial, sans-serif" font-size="10" fill="#dff6fb" text-anchor="end">▼</text>
  
  <!-- Advanced options -->
  <text x="600" y="365" font-family="Segoe UI, Arial, sans-serif" font-size="11" fill="#dff6fb">timeout (optional)</text>
  <rect x="600" y="375" width="180" height="28" rx="4" fill="#1b2b33"/>
  <text x="610" y="393" font-family="Segoe UI, Arial, sans-serif" font-size="12" fill="#dff6fb" opacity="0.4">30</text>
  <text x="770" y="393" font-family="Segoe UI, Arial, sans-serif" font-size="10" fill="#dff6fb" opacity="0.5" text-anchor="end">sec</text>
  
  <text x="600" y="425" font-family="Segoe UI, Arial, sans-serif" font-size="11" fill="#dff6fb">on_error</text>
  <rect x="600" y="435" width="180" height="28" rx="4" fill="#1b2b33"/>
  <text x="610" y="453" font-family="Segoe UI, Arial, sans-serif" font-size="12" fill="#dff6fb">abort</text>
  <text x="770" y="453" font-family="Segoe UI, Arial, sans-serif" font-size="10" fill="#dff6fb" text-anchor="end">▼</text>
  
  <!-- Dry-run badge -->
  <rect x="600" y="472" width="80" height="20" rx="10" fill="#6bff6b" opacity="0.2"/>
  <text x="640" y="485" font-family="Segoe UI, Arial, sans-serif" font-size="9" fill="#6bff6b" text-anchor="middle">✓ Dry-run OK</text>
</svg>