solid Default
  facet normal -1.224647e-16 0.000000e+00 1.000000e+00
    outer loop
      vertex -1.362500e+01 -1.039336e+01 5.549999e+01
      vertex 1.362500e+01 -2.239336e+01 5.549999e+01
      vertex 1.362500e+01 -1.039336e+01 5.549999e+01
    endloop
  endfacet
  facet normal -1.224647e-16 0.000000e+00 1.000000e+00
    outer loop
      vertex 1.362500e+01 -2.239336e+01 5.549999e+01
      vertex -1.362500e+01 -1.039336e+01 5.549999e+01
      vertex -1.362500e+01 -2.239336e+01 5.549999e+01
    endloop
  endfacet
  facet normal 0.000000e+00 -1.000000e+00 -0.000000e+00
    outer loop
      vertex -1.362500e+01 -2.239336e+01 1.800000e+01
      vertex 1.362500e+01 -2.239336e+01 5.549999e+01
      vertex -1.362500e+01 -2.239336e+01 5.549999e+01
    endloop
  endfacet
  facet normal 0.000000e+00 -1.000000e+00 -0.000000e+00
    outer loop
      vertex 1.362500e+01 -2.239336e+01 5.549999e+01
      vertex -1.362500e+01 -2.239336e+01 1.800000e+01
      vertex 1.362500e+01 -2.239336e+01 1.800000e+01
    endloop
  endfacet
  facet normal 1.224647e-16 0.000000e+00 -1.000000e+00
    outer loop
      vertex -1.362500e+01 -2.239336e+01 1.800000e+01
      vertex 1.362500e+01 -1.039336e+01 1.800000e+01
      vertex 1.362500e+01 -2.239336e+01 1.800000e+01
    endloop
  endfacet
  facet normal 1.224647e-16 0.000000e+00 -1.000000e+00
    outer loop
      vertex 1.362500e+01 -1.039336e+01 1.800000e+01
      vertex -1.362500e+01 -2.239336e+01 1.800000e+01
      vertex -1.362500e+01 -1.039336e+01 1.800000e+01
    endloop
  endfacet
  facet normal 1.224647e-16 0.000000e+00 -1.000000e+00
    outer loop
      vertex -1.862500e+01 -2.551836e+01 5.549999e+01
      vertex 1.862500e+01 -2.239336e+01 5.549999e+01
      vertex 1.862500e+01 -2.551836e+01 5.549999e+01
    endloop
  endfacet
  facet normal 1.224647e-16 0.000000e+00 -1.000000e+00
    outer loop
      vertex 1.862500e+01 -2.239336e+01 5.549999e+01
      vertex -1.862500e+01 -2.551836e+01 5.549999e+01
      vertex 1.362500e+01 -2.239336e+01 5.549999e+01
    endloop
  endfacet
  facet normal 1.224647e-16 0.000000e+00 -1.000000e+00
    outer loop
      vertex 1.362500e+01 -2.239336e+01 5.549999e+01
      vertex -1.862500e+01 -2.551836e+01 5.549999e+01
      vertex -1.362500e+01 -2.239336e+01 5.549999e+01
    endloop
  endfacet
  facet normal 1.224647e-16 0.000000e+00 -1.000000e+00
    outer loop
      vertex -1.362500e+01 -2.239336e+01 5.549999e+01
      vertex -1.862500e+01 -2.551836e+01 5.549999e+01
      vertex -1.862500e+01 -2.239336e+01 5.549999e+01
    endloop
  endfacet
  facet normal 1.224647e-16 0.000000e+00 -1.000000e+00
    outer loop
      vertex 1.362500e+01 -1.039336e+01 5.549999e+01
      vertex 1.862500e+01 -7.268363e+00 5.549999e+01
      vertex 1.862500e+01 -1.039336e+01 5.549999e+01
    endloop
  endfacet
  facet normal 1.224647e-16 0.000000e+00 -1.000000e+00
    outer loop
      vertex 1.862500e+01 -7.268363e+00 5.549999e+01
      vertex 1.362500e+01 -1.039336e+01 5.549999e+01
      vertex -1.862500e+01 -7.268363e+00 5.549999e+01
    endloop
  endfacet
  facet normal 1.224647e-16 0.000000e+00 -1.000000e+00
    outer loop
      vertex -1.862500e+01 -7.268363e+00 5.549999e+01
      vertex 1.362500e+01 -1.039336e+01 5.549999e+01
      vertex -1.362500e+01 -1.039336e+01 5.549999e+01
    endloop
  endfacet
  facet normal 1.224647e-16 0.000000e+00 -1.000000e+00
    outer loop
      vertex -1.862500e+01 -7.268363e+00 5.549999e+01
      vertex -1.362500e+01 -1.039336e+01 5.549999e+01
      vertex -1.862500e+01 -1.039336e+01 5.549999e+01
    endloop
  endfacet
  facet normal 1.224647e-16 0.000000e+00 -1.000000e+00
    outer loop
      vertex -1.862500e+01 -2.239336e+01 5.549999e+01
      vertex -1.362500e+01 -1.039336e+01 5.549999e+01
      vertex -1.362500e+01 -2.239336e+01 5.549999e+01
    endloop
  endfacet
  facet normal 1.224647e-16 0.000000e+00 -1.000000e+00
    outer loop
      vertex -1.362500e+01 -1.039336e+01 5.549999e+01
      vertex -1.862500e+01 -2.239336e+01 5.549999e+01
      vertex -1.862500e+01 -1.039336e+01 5.549999e+01
    endloop
  endfacet
  facet normal 1.224647e-16 0.000000e+00 -1.000000e+00
    outer loop
      vertex 1.362500e+01 -2.239336e+01 5.549999e+01
      vertex 1.862500e+01 -1.039336e+01 5.549999e+01
      vertex 1.862500e+01 -2.239336e+01 5.549999e+01
    endloop
  endfacet
  facet normal 1.224647e-16 0.000000e+00 -1.000000e+00
    outer loop
      vertex 1.862500e+01 -1.039336e+01 5.549999e+01
      vertex 1.362500e+01 -2.239336e+01 5.549999e+01
      vertex 1.362500e+01 -1.039336e+01 5.549999e+01
    endloop
  endfacet
  facet normal 2.401730e-17 9.805807e-01 -1.961161e-01
    outer loop
      vertex 1.862500e+01 -7.268363e+00 5.549999e+01
      vertex -2.237500e+01 -5.393363e+00 6.487499e+01
      vertex 2.237500e+01 -5.393363e+00 6.487499e+01
    endloop
  endfacet
  facet normal 2.401730e-17 9.805807e-01 -1.961161e-01
    outer loop
      vertex -2.237500e+01 -5.393363e+00 6.487499e+01
      vertex 1.862500e+01 -7.268363e+00 5.549999e+01
      vertex -1.862500e+01 -7.268363e+00 5.549999e+01
    endloop
  endfacet
  facet normal -1.224647e-16 0.000000e+00 1.000000e+00
    outer loop
      vertex -2.237500e+01 -5.393363e+00 6.487499e+01
      vertex 2.237500e+01 -2.739336e+01 6.487499e+01
      vertex 2.237500e+01 -5.393363e+00 6.487499e+01
    endloop
  endfacet
  facet normal -1.224647e-16 0.000000e+00 1.000000e+00
    outer loop
      vertex 2.237500e+01 -2.739336e+01 6.487499e+01
      vertex -2.237500e+01 -5.393363e+00 6.487499e+01
      vertex -2.237500e+01 -2.739336e+01 6.487499e+01
    endloop
  endfacet
  facet normal 2.239872e-17 -9.805807e-01 -1.961161e-01
    outer loop
      vertex -1.862500e+01 -2.551836e+01 5.549999e+01
      vertex 2.237500e+01 -2.739336e+01 6.487499e+01
      vertex -2.237500e+01 -2.739336e+01 6.487499e+01
    endloop
  endfacet
  facet normal 2.239872e-17 -9.805807e-01 -1.961161e-01
    outer loop
      vertex 2.237500e+01 -2.739336e+01 6.487499e+01
      vertex -1.862500e+01 -2.551836e+01 5.549999e+01
      vertex 1.862500e+01 -2.551836e+01 5.549999e+01
    endloop
  endfacet
  facet normal -9.284767e-01 6.757672e-19 -3.713907e-01
    outer loop
      vertex -2.237500e+01 -5.393363e+00 6.487499e+01
      vertex -1.862500e+01 -2.551836e+01 5.549999e+01
      vertex -2.237500e+01 -2.739336e+01 6.487499e+01
    endloop
  endfacet
  facet normal -9.284767e-01 6.757672e-19 -3.713907e-01
    outer loop
      vertex -1.862500e+01 -2.551836e+01 5.549999e+01
      vertex -2.237500e+01 -5.393363e+00 6.487499e+01
      vertex -1.862500e+01 -2.239336e+01 5.549999e+01
    endloop
  endfacet
  facet normal -9.284767e-01 6.757672e-19 -3.713907e-01
    outer loop
      vertex -1.862500e+01 -2.239336e+01 5.549999e+01
      vertex -2.237500e+01 -5.393363e+00 6.487499e+01
      vertex -1.862500e+01 -1.039336e+01 5.549999e+01
    endloop
  endfacet
  facet normal -9.284767e-01 6.757672e-19 -3.713907e-01
    outer loop
      vertex -1.862500e+01 -1.039336e+01 5.549999e+01
      vertex -2.237500e+01 -5.393363e+00 6.487499e+01
      vertex -1.862500e+01 -7.268363e+00 5.549999e+01
    endloop
  endfacet
  facet normal 9.284767e-01 6.757671e-18 -3.713907e-01
    outer loop
      vertex 1.862500e+01 -2.551836e+01 5.549999e+01
      vertex 2.237500e+01 -5.393363e+00 6.487499e+01
      vertex 2.237500e+01 -2.739336e+01 6.487499e+01
    endloop
  endfacet
  facet normal 9.284767e-01 6.757671e-18 -3.713907e-01
    outer loop
      vertex 2.237500e+01 -5.393363e+00 6.487499e+01
      vertex 1.862500e+01 -2.551836e+01 5.549999e+01
      vertex 1.862500e+01 -2.239336e+01 5.549999e+01
    endloop
  endfacet
  facet normal 9.284767e-01 6.757671e-18 -3.713907e-01
    outer loop
      vertex 2.237500e+01 -5.393363e+00 6.487499e+01
      vertex 1.862500e+01 -2.239336e+01 5.549999e+01
      vertex 1.862500e+01 -1.039336e+01 5.549999e+01
    endloop
  endfacet
  facet normal 9.284767e-01 6.757671e-18 -3.713907e-01
    outer loop
      vertex 2.237500e+01 -5.393363e+00 6.487499e+01
      vertex 1.862500e+01 -1.039336e+01 5.549999e+01
      vertex 1.862500e+01 -7.268363e+00 5.549999e+01
    endloop
  endfacet
  facet normal -1.000000e+00 0.000000e+00 -1.224647e-16
    outer loop
      vertex -1.362500e+01 -1.039336e+01 5.549999e+01
      vertex -1.362500e+01 -2.239336e+01 1.800000e+01
      vertex -1.362500e+01 -2.239336e+01 5.549999e+01
    endloop
  endfacet
  facet normal -1.000000e+00 0.000000e+00 -1.224647e-16
    outer loop
      vertex -1.362500e+01 -2.239336e+01 1.800000e+01
      vertex -1.362500e+01 -1.039336e+01 5.549999e+01
      vertex -1.362500e+01 -1.039336e+01 1.800000e+01
    endloop
  endfacet
  facet normal 0.000000e+00 1.000000e+00 0.000000e+00
    outer loop
      vertex 1.362500e+01 -1.039336e+01 1.800000e+01
      vertex -1.362500e+01 -1.039336e+01 5.549999e+01
      vertex 1.362500e+01 -1.039336e+01 5.549999e+01
    endloop
  endfacet
  facet normal 0.000000e+00 1.000000e+00 0.000000e+00
    outer loop
      vertex -1.362500e+01 -1.039336e+01 5.549999e+01
      vertex 1.362500e+01 -1.039336e+01 1.800000e+01
      vertex -1.362500e+01 -1.039336e+01 1.800000e+01
    endloop
  endfacet
  facet normal 1.000000e+00 0.000000e+00 1.224647e-16
    outer loop
      vertex 1.362500e+01 -1.039336e+01 1.800000e+01
      vertex 1.362500e+01 -2.239336e+01 5.549999e+01
      vertex 1.362500e+01 -2.239336e+01 1.800000e+01
    endloop
  endfacet
  facet normal 1.000000e+00 0.000000e+00 1.224647e-16
    outer loop
      vertex 1.362500e+01 -2.239336e+01 5.549999e+01
      vertex 1.362500e+01 -1.039336e+01 1.800000e+01
      vertex 1.362500e+01 -1.039336e+01 5.549999e+01
    endloop
  endfacet
  facet normal -1.224647e-16 0.000000e+00 1.000000e+00
    outer loop
      vertex -1.362500e+01 2.248164e+01 5.549999e+01
      vertex 1.362500e+01 1.048164e+01 5.549999e+01
      vertex 1.362500e+01 2.248164e+01 5.549999e+01
    endloop
  endfacet
  facet normal -1.224647e-16 0.000000e+00 1.000000e+00
    outer loop
      vertex 1.362500e+01 1.048164e+01 5.549999e+01
      vertex -1.362500e+01 2.248164e+01 5.549999e+01
      vertex -1.362500e+01 1.048164e+01 5.549999e+01
    endloop
  endfacet
  facet normal 0.000000e+00 -1.000000e+00 -0.000000e+00
    outer loop
      vertex -1.362500e+01 1.048164e+01 1.800000e+01
      vertex 1.362500e+01 1.048164e+01 5.549999e+01
      vertex -1.362500e+01 1.048164e+01 5.549999e+01
    endloop
  endfacet
  facet normal 0.000000e+00 -1.000000e+00 -0.000000e+00
    outer loop
      vertex 1.362500e+01 1.048164e+01 5.549999e+01
      vertex -1.362500e+01 1.048164e+01 1.800000e+01
      vertex 1.362500e+01 1.048164e+01 1.800000e+01
    endloop
  endfacet
  facet normal 1.224647e-16 0.000000e+00 -1.000000e+00
    outer loop
      vertex -1.362500e+01 1.048164e+01 1.800000e+01
      vertex 1.362500e+01 2.248164e+01 1.800000e+01
      vertex 1.362500e+01 1.048164e+01 1.800000e+01
    endloop
  endfacet
  facet normal 1.224647e-16 0.000000e+00 -1.000000e+00
    outer loop
      vertex 1.362500e+01 2.248164e+01 1.800000e+01
      vertex -1.362500e+01 1.048164e+01 1.800000e+01
      vertex -1.362500e+01 2.248164e+01 1.800000e+01
    endloop
  endfacet
  facet normal 1.224647e-16 0.000000e+00 -1.000000e+00
    outer loop
      vertex -1.862500e+01 7.356639e+00 5.549999e+01
      vertex 1.862500e+01 1.048164e+01 5.549999e+01
      vertex 1.862500e+01 7.356639e+00 5.549999e+01
    endloop
  endfacet
  facet normal 1.224647e-16 0.000000e+00 -1.000000e+00
    outer loop
      vertex 1.862500e+01 1.048164e+01 5.549999e+01
      vertex -1.862500e+01 7.356639e+00 5.549999e+01
      vertex 1.362500e+01 1.048164e+01 5.549999e+01
    endloop
  endfacet
  facet normal 1.224647e-16 0.000000e+00 -1.000000e+00
    outer loop
      vertex 1.362500e+01 1.048164e+01 5.549999e+01
      vertex -1.862500e+01 7.356639e+00 5.549999e+01
      vertex -1.362500e+01 1.048164e+01 5.549999e+01
    endloop
  endfacet
  facet normal 1.224647e-16 0.000000e+00 -1.000000e+00
    outer loop
      vertex -1.362500e+01 1.048164e+01 5.549999e+01
      vertex -1.862500e+01 7.356639e+00 5.549999e+01
      vertex -1.862500e+01 1.048164e+01 5.549999e+01
    endloop
  endfacet
  facet normal 1.224647e-16 0.000000e+00 -1.000000e+00
    outer loop
      vertex 1.362500e+01 2.248164e+01 5.549999e+01
      vertex 1.862500e+01 2.560664e+01 5.549999e+01
      vertex 1.862500e+01 2.248164e+01 5.549999e+01
    endloop
  endfacet
  facet normal 1.224647e-16 0.000000e+00 -1.000000e+00
    outer loop
      vertex 1.862500e+01 2.560664e+01 5.549999e+01
      vertex 1.362500e+01 2.248164e+01 5.549999e+01
      vertex -1.862500e+01 2.560664e+01 5.549999e+01
    endloop
  endfacet
  facet normal 1.224647e-16 0.000000e+00 -1.000000e+00
    outer loop
      vertex -1.862500e+01 2.560664e+01 5.549999e+01
      vertex 1.362500e+01 2.248164e+01 5.549999e+01
      vertex -1.362500e+01 2.248164e+01 5.549999e+01
    endloop
  endfacet
  facet normal 1.224647e-16 0.000000e+00 -1.000000e+00
    outer loop
      vertex -1.862500e+01 2.560664e+01 5.549999e+01
      vertex -1.362500e+01 2.248164e+01 5.549999e+01
      vertex -1.862500e+01 2.248164e+01 5.549999e+01
    endloop
  endfacet
  facet normal 1.224647e-16 0.000000e+00 -1.000000e+00
    outer loop
      vertex -1.862500e+01 1.048164e+01 5.549999e+01
      vertex -1.362500e+01 2.248164e+01 5.549999e+01
      vertex -1.362500e+01 1.048164e+01 5.549999e+01
    endloop
  endfacet
  facet normal 1.224647e-16 0.000000e+00 -1.000000e+00
    outer loop
      vertex -1.362500e+01 2.248164e+01 5.549999e+01
      vertex -1.862500e+01 1.048164e+01 5.549999e+01
      vertex -1.862500e+01 2.248164e+01 5.549999e+01
    endloop
  endfacet
  facet normal 1.224647e-16 0.000000e+00 -1.000000e+00
    outer loop
      vertex 1.362500e+01 1.048164e+01 5.549999e+01
      vertex 1.862500e+01 2.248164e+01 5.549999e+01
      vertex 1.862500e+01 1.048164e+01 5.549999e+01
    endloop
  endfacet
  facet normal 1.224647e-16 0.000000e+00 -1.000000e+00
    outer loop
      vertex 1.862500e+01 2.248164e+01 5.549999e+01
      vertex 1.362500e+01 1.048164e+01 5.549999e+01
      vertex 1.362500e+01 2.248164e+01 5.549999e+01
    endloop
  endfacet
  facet normal 2.401730e-17 9.805807e-01 -1.961161e-01
    outer loop
      vertex 1.862500e+01 2.560664e+01 5.549999e+01
      vertex -2.237500e+01 2.748164e+01 6.487499e+01
      vertex 2.237500e+01 2.748164e+01 6.487499e+01
    endloop
  endfacet
  facet normal 2.401730e-17 9.805807e-01 -1.961161e-01
    outer loop
      vertex -2.237500e+01 2.748164e+01 6.487499e+01
      vertex 1.862500e+01 2.560664e+01 5.549999e+01
      vertex -1.862500e+01 2.560664e+01 5.549999e+01
    endloop
  endfacet
  facet normal -1.224647e-16 0.000000e+00 1.000000e+00
    outer loop
      vertex -2.237500e+01 2.748164e+01 6.487499e+01
      vertex 2.237500e+01 5.481637e+00 6.487499e+01
      vertex 2.237500e+01 2.748164e+01 6.487499e+01
    endloop
  endfacet
  facet normal -1.224647e-16 0.000000e+00 1.000000e+00
    outer loop
      vertex 2.237500e+01 5.481637e+00 6.487499e+01
      vertex -2.237500e+01 2.748164e+01 6.487499e+01
      vertex -2.237500e+01 5.481637e+00 6.487499e+01
    endloop
  endfacet
  facet normal 2.239872e-17 -9.805807e-01 -1.961161e-01
    outer loop
      vertex -1.862500e+01 7.356639e+00 5.549999e+01
      vertex 2.237500e+01 5.481637e+00 6.487499e+01
      vertex -2.237500e+01 5.481637e+00 6.487499e+01
    endloop
  endfacet
  facet normal 2.239872e-17 -9.805807e-01 -1.961161e-01
    outer loop
      vertex 2.237500e+01 5.481637e+00 6.487499e+01
      vertex -1.862500e+01 7.356639e+00 5.549999e+01
      vertex 1.862500e+01 7.356639e+00 5.549999e+01
    endloop
  endfacet
  facet normal -9.284767e-01 6.757672e-19 -3.713907e-01
    outer loop
      vertex -2.237500e+01 2.748164e+01 6.487499e+01
      vertex -1.862500e+01 7.356639e+00 5.549999e+01
      vertex -2.237500e+01 5.481637e+00 6.487499e+01
    endloop
  endfacet
  facet normal -9.284767e-01 6.757672e-19 -3.713907e-01
    outer loop
      vertex -1.862500e+01 7.356639e+00 5.549999e+01
      vertex -2.237500e+01 2.748164e+01 6.487499e+01
      vertex -1.862500e+01 1.048164e+01 5.549999e+01
    endloop
  endfacet
  facet normal -9.284767e-01 6.757672e-19 -3.713907e-01
    outer loop
      vertex -1.862500e+01 1.048164e+01 5.549999e+01
      vertex -2.237500e+01 2.748164e+01 6.487499e+01
      vertex -1.862500e+01 2.248164e+01 5.549999e+01
    endloop
  endfacet
  facet normal -9.284767e-01 6.757672e-19 -3.713907e-01
    outer loop
      vertex -1.862500e+01 2.248164e+01 5.549999e+01
      vertex -2.237500e+01 2.748164e+01 6.487499e+01
      vertex -1.862500e+01 2.560664e+01 5.549999e+01
    endloop
  endfacet
  facet normal 9.284767e-01 6.757671e-18 -3.713907e-01
    outer loop
      vertex 1.862500e+01 7.356639e+00 5.549999e+01
      vertex 2.237500e+01 2.748164e+01 6.487499e+01
      vertex 2.237500e+01 5.481637e+00 6.487499e+01
    endloop
  endfacet
  facet normal 9.284767e-01 6.757671e-18 -3.713907e-01
    outer loop
      vertex 2.237500e+01 2.748164e+01 6.487499e+01
      vertex 1.862500e+01 7.356639e+00 5.549999e+01
      vertex 1.862500e+01 1.048164e+01 5.549999e+01
    endloop
  endfacet
  facet normal 9.284767e-01 6.757671e-18 -3.713907e-01
    outer loop
      vertex 2.237500e+01 2.748164e+01 6.487499e+01
      vertex 1.862500e+01 1.048164e+01 5.549999e+01
      vertex 1.862500e+01 2.248164e+01 5.549999e+01
    endloop
  endfacet
  facet normal 9.284767e-01 6.757671e-18 -3.713907e-01
    outer loop
      vertex 2.237500e+01 2.748164e+01 6.487499e+01
      vertex 1.862500e+01 2.248164e+01 5.549999e+01
      vertex 1.862500e+01 2.560664e+01 5.549999e+01
    endloop
  endfacet
  facet normal -1.000000e+00 0.000000e+00 -1.224647e-16
    outer loop
      vertex -1.362500e+01 2.248164e+01 5.549999e+01
      vertex -1.362500e+01 1.048164e+01 1.800000e+01
      vertex -1.362500e+01 1.048164e+01 5.549999e+01
    endloop
  endfacet
  facet normal -1.000000e+00 0.000000e+00 -1.224647e-16
    outer loop
      vertex -1.362500e+01 1.048164e+01 1.800000e+01
      vertex -1.362500e+01 2.248164e+01 5.549999e+01
      vertex -1.362500e+01 2.248164e+01 1.800000e+01
    endloop
  endfacet
  facet normal 0.000000e+00 1.000000e+00 0.000000e+00
    outer loop
      vertex 1.362500e+01 2.248164e+01 1.800000e+01
      vertex -1.362500e+01 2.248164e+01 5.549999e+01
      vertex 1.362500e+01 2.248164e+01 5.549999e+01
    endloop
  endfacet
  facet normal 0.000000e+00 1.000000e+00 0.000000e+00
    outer loop
      vertex -1.362500e+01 2.248164e+01 5.549999e+01
      vertex 1.362500e+01 2.248164e+01 1.800000e+01
      vertex -1.362500e+01 2.248164e+01 1.800000e+01
    endloop
  endfacet
  facet normal 1.000000e+00 0.000000e+00 1.224647e-16
    outer loop
      vertex 1.362500e+01 2.248164e+01 1.800000e+01
      vertex 1.362500e+01 1.048164e+01 5.549999e+01
      vertex 1.362500e+01 1.048164e+01 1.800000e+01
    endloop
  endfacet
  facet normal 1.000000e+00 0.000000e+00 1.224647e-16
    outer loop
      vertex 1.362500e+01 1.048164e+01 5.549999e+01
      vertex 1.362500e+01 2.248164e+01 1.800000e+01
      vertex 1.362500e+01 2.248164e+01 5.549999e+01
    endloop
  endfacet
  facet normal -5.161415e-29 -1.000000e+00 4.214615e-13
    outer loop
      vertex 2.144546e+01 -2.754527e+01 1.800000e+01
      vertex -2.164508e+01 -2.754527e+01 1.650000e+01
      vertex 2.144546e+01 -2.754527e+01 1.650000e+01
    endloop
  endfacet
  facet normal -5.161415e-29 -1.000000e+00 4.214615e-13
    outer loop
      vertex -2.164508e+01 -2.754527e+01 1.650000e+01
      vertex 2.144546e+01 -2.754527e+01 1.800000e+01
      vertex -2.164508e+01 -2.754527e+01 1.800000e+01
    endloop
  endfacet
  facet normal -1.224647e-16 4.214615e-13 1.000000e+00
    outer loop
      vertex -2.164508e+01 2.754527e+01 1.800000e+01
      vertex 2.144546e+01 -2.754527e+01 1.800000e+01
      vertex 2.144546e+01 2.754527e+01 1.800000e+01
    endloop
  endfacet
  facet normal -1.224647e-16 4.214615e-13 1.000000e+00
    outer loop
      vertex 2.144546e+01 -2.754527e+01 1.800000e+01
      vertex -2.164508e+01 2.754527e+01 1.800000e+01
      vertex -2.164508e+01 -2.754527e+01 1.800000e+01
    endloop
  endfacet
  facet normal 5.161415e-29 1.000000e+00 -4.214615e-13
    outer loop
      vertex -2.164508e+01 2.754527e+01 1.800000e+01
      vertex 2.144546e+01 2.754527e+01 1.650000e+01
      vertex -2.164508e+01 2.754527e+01 1.650000e+01
    endloop
  endfacet
  facet normal 5.161415e-29 1.000000e+00 -4.214615e-13
    outer loop
      vertex 2.144546e+01 2.754527e+01 1.650000e+01
      vertex -2.164508e+01 2.754527e+01 1.800000e+01
      vertex 2.144546e+01 2.754527e+01 1.800000e+01
    endloop
  endfacet
  facet normal -1.000000e+00 0.000000e+00 -1.224647e-16
    outer loop
      vertex -2.164508e+01 -2.754527e+01 1.650000e+01
      vertex -2.164508e+01 2.754527e+01 1.800000e+01
      vertex -2.164508e+01 2.754527e+01 1.650000e+01
    endloop
  endfacet
  facet normal -1.000000e+00 0.000000e+00 -1.224647e-16
    outer loop
      vertex -2.164508e+01 2.754527e+01 1.800000e+01
      vertex -2.164508e+01 -2.754527e+01 1.650000e+01
      vertex -2.164508e+01 -2.754527e+01 1.800000e+01
    endloop
  endfacet
  facet normal 1.000000e+00 0.000000e+00 1.224647e-16
    outer loop
      vertex 2.144546e+01 -2.754527e+01 1.800000e+01
      vertex 2.144546e+01 2.754527e+01 1.650000e+01
      vertex 2.144546e+01 2.754527e+01 1.800000e+01
    endloop
  endfacet
  facet normal 1.000000e+00 0.000000e+00 1.224647e-16
    outer loop
      vertex 2.144546e+01 2.754527e+01 1.650000e+01
      vertex 2.144546e+01 -2.754527e+01 1.800000e+01
      vertex 2.144546e+01 -2.754527e+01 1.650000e+01
    endloop
  endfacet
  facet normal 1.224647e-16 -4.214615e-13 -1.000000e+00
    outer loop
      vertex -2.164508e+01 -2.754527e+01 1.650000e+01
      vertex 2.144546e+01 2.754527e+01 1.650000e+01
      vertex 2.144546e+01 -2.754527e+01 1.650000e+01
    endloop
  endfacet
  facet normal 1.224647e-16 -4.214615e-13 -1.000000e+00
    outer loop
      vertex 2.144546e+01 2.754527e+01 1.650000e+01
      vertex -2.164508e+01 -2.754527e+01 1.650000e+01
      vertex -2.164508e+01 2.754527e+01 1.650000e+01
    endloop
  endfacet
  facet normal 1.000000e+00 0.000000e+00 1.224647e-16
    outer loop
      vertex 2.144546e+01 -2.754527e+01 1.650000e+01
      vertex 2.144546e+01 2.754527e+01 0.000000e+00
      vertex 2.144546e+01 2.754527e+01 1.650000e+01
    endloop
  endfacet
  facet normal 1.000000e+00 0.000000e+00 1.224647e-16
    outer loop
      vertex 2.144546e+01 2.754527e+01 0.000000e+00
      vertex 2.144546e+01 -2.754527e+01 1.650000e+01
      vertex 2.144546e+01 -2.754527e+01 0.000000e+00
    endloop
  endfacet
  facet normal -5.161415e-29 -1.000000e+00 4.214615e-13
    outer loop
      vertex 2.144546e+01 -2.754527e+01 1.650000e+01
      vertex -2.164508e+01 -2.754527e+01 0.000000e+00
      vertex 2.144546e+01 -2.754527e+01 0.000000e+00
    endloop
  endfacet
  facet normal -5.161415e-29 -1.000000e+00 4.214615e-13
    outer loop
      vertex -2.164508e+01 -2.754527e+01 0.000000e+00
      vertex 2.144546e+01 -2.754527e+01 1.650000e+01
      vertex -2.164508e+01 -2.754527e+01 1.650000e+01
    endloop
  endfacet
  facet normal 5.161415e-29 1.000000e+00 -4.214615e-13
    outer loop
      vertex -2.009981e+01 -2.600000e+01 1.650000e+01
      vertex 1.990019e+01 -2.600000e+01 0.000000e+00
      vertex -2.009981e+01 -2.600000e+01 0.000000e+00
    endloop
  endfacet
  facet normal 5.161415e-29 1.000000e+00 -4.214615e-13
    outer loop
      vertex 1.990019e+01 -2.600000e+01 0.000000e+00
      vertex -2.009981e+01 -2.600000e+01 1.650000e+01
      vertex 1.990019e+01 -2.600000e+01 1.650000e+01
    endloop
  endfacet
  facet normal -1.224647e-16 4.214615e-13 1.000000e+00
    outer loop
      vertex 2.144546e+01 2.754527e+01 1.650000e+01
      vertex 1.990019e+01 2.600000e+01 1.650000e+01
      vertex 2.144546e+01 -2.754527e+01 1.650000e+01
    endloop
  endfacet
  facet normal -1.224647e-16 4.214615e-13 1.000000e+00
    outer loop
      vertex 1.990019e+01 2.600000e+01 1.650000e+01
      vertex 2.144546e+01 2.754527e+01 1.650000e+01
      vertex -2.164508e+01 2.754527e+01 1.650000e+01
    endloop
  endfacet
  facet normal -1.224647e-16 4.214615e-13 1.000000e+00
    outer loop
      vertex 1.990019e+01 2.600000e+01 1.650000e+01
      vertex -2.164508e+01 2.754527e+01 1.650000e+01
      vertex -2.009981e+01 2.600000e+01 1.650000e+01
    endloop
  endfacet
  facet normal -1.224647e-16 4.214615e-13 1.000000e+00
    outer loop
      vertex -2.009981e+01 2.600000e+01 1.650000e+01
      vertex -2.164508e+01 2.754527e+01 1.650000e+01
      vertex -2.009981e+01 -2.600000e+01 1.650000e+01
    endloop
  endfacet
  facet normal -1.224647e-16 4.214615e-13 1.000000e+00
    outer loop
      vertex 2.144546e+01 -2.754527e+01 1.650000e+01
      vertex 1.990019e+01 -2.600000e+01 1.650000e+01
      vertex -2.164508e+01 -2.754527e+01 1.650000e+01
    endloop
  endfacet
  facet normal -1.224647e-16 4.214615e-13 1.000000e+00
    outer loop
      vertex 1.990019e+01 -2.600000e+01 1.650000e+01
      vertex 2.144546e+01 -2.754527e+01 1.650000e+01
      vertex 1.990019e+01 2.600000e+01 1.650000e+01
    endloop
  endfacet
  facet normal -1.224647e-16 4.214615e-13 1.000000e+00
    outer loop
      vertex -2.164508e+01 -2.754527e+01 1.650000e+01
      vertex 1.990019e+01 -2.600000e+01 1.650000e+01
      vertex -2.009981e+01 -2.600000e+01 1.650000e+01
    endloop
  endfacet
  facet normal -1.224647e-16 4.214615e-13 1.000000e+00
    outer loop
      vertex -2.164508e+01 -2.754527e+01 1.650000e+01
      vertex -2.009981e+01 -2.600000e+01 1.650000e+01
      vertex -2.164508e+01 2.754527e+01 1.650000e+01
    endloop
  endfacet
  facet normal 1.000000e+00 0.000000e+00 1.224647e-16
    outer loop
      vertex -2.009981e+01 -2.600000e+01 1.650000e+01
      vertex -2.009981e+01 2.600000e+01 0.000000e+00
      vertex -2.009981e+01 2.600000e+01 1.650000e+01
    endloop
  endfacet
  facet normal 1.000000e+00 0.000000e+00 1.224647e-16
    outer loop
      vertex -2.009981e+01 2.600000e+01 0.000000e+00
      vertex -2.009981e+01 -2.600000e+01 1.650000e+01
      vertex -2.009981e+01 -2.600000e+01 0.000000e+00
    endloop
  endfacet
  facet normal -5.161415e-29 -1.000000e+00 4.214615e-13
    outer loop
      vertex 1.990019e+01 2.600000e+01 1.650000e+01
      vertex -2.009981e+01 2.600000e+01 0.000000e+00
      vertex 1.990019e+01 2.600000e+01 0.000000e+00
    endloop
  endfacet
  facet normal -5.161415e-29 -1.000000e+00 4.214615e-13
    outer loop
      vertex -2.009981e+01 2.600000e+01 0.000000e+00
      vertex 1.990019e+01 2.600000e+01 1.650000e+01
      vertex -2.009981e+01 2.600000e+01 1.650000e+01
    endloop
  endfacet
  facet normal -1.000000e+00 0.000000e+00 -1.224647e-16
    outer loop
      vertex 1.990019e+01 -2.600000e+01 0.000000e+00
      vertex 1.990019e+01 2.600000e+01 1.650000e+01
      vertex 1.990019e+01 2.600000e+01 0.000000e+00
    endloop
  endfacet
  facet normal -1.000000e+00 0.000000e+00 -1.224647e-16
    outer loop
      vertex 1.990019e+01 2.600000e+01 1.650000e+01
      vertex 1.990019e+01 -2.600000e+01 0.000000e+00
      vertex 1.990019e+01 -2.600000e+01 1.650000e+01
    endloop
  endfacet
  facet normal -1.000000e+00 0.000000e+00 -1.224647e-16
    outer loop
      vertex -2.164508e+01 -2.754527e+01 0.000000e+00
      vertex -2.164508e+01 2.754527e+01 1.650000e+01
      vertex -2.164508e+01 2.754527e+01 0.000000e+00
    endloop
  endfacet
  facet normal -1.000000e+00 0.000000e+00 -1.224647e-16
    outer loop
      vertex -2.164508e+01 2.754527e+01 1.650000e+01
      vertex -2.164508e+01 -2.754527e+01 0.000000e+00
      vertex -2.164508e+01 -2.754527e+01 1.650000e+01
    endloop
  endfacet
  facet normal 5.161415e-29 1.000000e+00 -4.214615e-13
    outer loop
      vertex -2.164508e+01 2.754527e+01 1.650000e+01
      vertex 2.144546e+01 2.754527e+01 0.000000e+00
      vertex -2.164508e+01 2.754527e+01 0.000000e+00
    endloop
  endfacet
  facet normal 5.161415e-29 1.000000e+00 -4.214615e-13
    outer loop
      vertex 2.144546e+01 2.754527e+01 0.000000e+00
      vertex -2.164508e+01 2.754527e+01 1.650000e+01
      vertex 2.144546e+01 2.754527e+01 1.650000e+01
    endloop
  endfacet
  facet normal 1.224647e-16 -4.214615e-13 -1.000000e+00
    outer loop
      vertex 2.144546e+01 -2.754527e+01 0.000000e+00
      vertex 1.990019e+01 -2.600000e+01 0.000000e+00
      vertex 2.144546e+01 2.754527e+01 0.000000e+00
    endloop
  endfacet
  facet normal 1.224647e-16 -4.214615e-13 -1.000000e+00
    outer loop
      vertex 1.990019e+01 -2.600000e+01 0.000000e+00
      vertex 2.144546e+01 -2.754527e+01 0.000000e+00
      vertex -2.164508e+01 -2.754527e+01 0.000000e+00
    endloop
  endfacet
  facet normal 1.224647e-16 -4.214615e-13 -1.000000e+00
    outer loop
      vertex 1.990019e+01 -2.600000e+01 0.000000e+00
      vertex -2.164508e+01 -2.754527e+01 0.000000e+00
      vertex -2.009981e+01 -2.600000e+01 0.000000e+00
    endloop
  endfacet
  facet normal 1.224647e-16 -4.214615e-13 -1.000000e+00
    outer loop
      vertex -2.009981e+01 -2.600000e+01 0.000000e+00
      vertex -2.164508e+01 -2.754527e+01 0.000000e+00
      vertex -2.009981e+01 2.600000e+01 0.000000e+00
    endloop
  endfacet
  facet normal 1.224647e-16 -4.214615e-13 -1.000000e+00
    outer loop
      vertex 2.144546e+01 2.754527e+01 0.000000e+00
      vertex 1.990019e+01 2.600000e+01 0.000000e+00
      vertex -2.164508e+01 2.754527e+01 0.000000e+00
    endloop
  endfacet
  facet normal 1.224647e-16 -4.214615e-13 -1.000000e+00
    outer loop
      vertex 1.990019e+01 2.600000e+01 0.000000e+00
      vertex 2.144546e+01 2.754527e+01 0.000000e+00
      vertex 1.990019e+01 -2.600000e+01 0.000000e+00
    endloop
  endfacet
  facet normal 1.224647e-16 -4.214615e-13 -1.000000e+00
    outer loop
      vertex -2.164508e+01 2.754527e+01 0.000000e+00
      vertex 1.990019e+01 2.600000e+01 0.000000e+00
      vertex -2.009981e+01 2.600000e+01 0.000000e+00
    endloop
  endfacet
  facet normal 1.224647e-16 -4.214615e-13 -1.000000e+00
    outer loop
      vertex -2.164508e+01 2.754527e+01 0.000000e+00
      vertex -2.009981e+01 2.600000e+01 0.000000e+00
      vertex -2.164508e+01 -2.754527e+01 0.000000e+00
    endloop
  endfacet
endsolid Default
