solid Default
  facet normal 1.000000e+00 0.000000e+00 -3.665677e-14
    outer loop
      vertex 2.154527e+01 2.754527e+01 1.500000e+00
      vertex 2.154527e+01 -2.754527e+01 1.800000e+01
      vertex 2.154527e+01 -2.754527e+01 1.500000e+00
    endloop
  endfacet
  facet normal 1.000000e+00 0.000000e+00 -3.665677e-14
    outer loop
      vertex 2.154527e+01 -2.754527e+01 1.800000e+01
      vertex 2.154527e+01 2.754527e+01 1.500000e+00
      vertex 2.154527e+01 2.754527e+01 1.800000e+01
    endloop
  endfacet
  facet normal 0.000000e+00 1.000000e+00 0.000000e+00
    outer loop
      vertex 2.154527e+01 2.754527e+01 1.500000e+00
      vertex -2.154527e+01 2.754527e+01 1.800000e+01
      vertex 2.154527e+01 2.754527e+01 1.800000e+01
    endloop
  endfacet
  facet normal 0.000000e+00 1.000000e+00 0.000000e+00
    outer loop
      vertex -2.154527e+01 2.754527e+01 1.800000e+01
      vertex 2.154527e+01 2.754527e+01 1.500000e+00
      vertex -2.154527e+01 2.754527e+01 1.500000e+00
    endloop
  endfacet
  facet normal 0.000000e+00 -1.000000e+00 0.000000e+00
    outer loop
      vertex -2.000000e+01 2.600000e+01 1.500000e+00
      vertex 2.000000e+01 2.600000e+01 1.800000e+01
      vertex -2.000000e+01 2.600000e+01 1.800000e+01
    endloop
  endfacet
  facet normal 0.000000e+00 -1.000000e+00 0.000000e+00
    outer loop
      vertex 2.000000e+01 2.600000e+01 1.800000e+01
      vertex -2.000000e+01 2.600000e+01 1.500000e+00
      vertex 2.000000e+01 2.600000e+01 1.500000e+00
    endloop
  endfacet
  facet normal -3.665677e-14 0.000000e+00 -1.000000e+00
    outer loop
      vertex 2.154527e+01 -2.754527e+01 1.500000e+00
      vertex 2.000000e+01 -2.600000e+01 1.500000e+00
      vertex 2.154527e+01 2.754527e+01 1.500000e+00
    endloop
  endfacet
  facet normal -3.665677e-14 0.000000e+00 -1.000000e+00
    outer loop
      vertex 2.000000e+01 -2.600000e+01 1.500000e+00
      vertex 2.154527e+01 -2.754527e+01 1.500000e+00
      vertex -2.154527e+01 -2.754527e+01 1.500000e+00
    endloop
  endfacet
  facet normal -3.665677e-14 0.000000e+00 -1.000000e+00
    outer loop
      vertex 2.000000e+01 -2.600000e+01 1.500000e+00
      vertex -2.154527e+01 -2.754527e+01 1.500000e+00
      vertex -2.000000e+01 -2.600000e+01 1.500000e+00
    endloop
  endfacet
  facet normal -3.665677e-14 0.000000e+00 -1.000000e+00
    outer loop
      vertex -2.000000e+01 -2.600000e+01 1.500000e+00
      vertex -2.154527e+01 -2.754527e+01 1.500000e+00
      vertex -2.000000e+01 2.600000e+01 1.500000e+00
    endloop
  endfacet
  facet normal -3.665677e-14 0.000000e+00 -1.000000e+00
    outer loop
      vertex 2.154527e+01 2.754527e+01 1.500000e+00
      vertex 2.000000e+01 2.600000e+01 1.500000e+00
      vertex -2.154527e+01 2.754527e+01 1.500000e+00
    endloop
  endfacet
  facet normal -3.665677e-14 0.000000e+00 -1.000000e+00
    outer loop
      vertex 2.000000e+01 2.600000e+01 1.500000e+00
      vertex 2.154527e+01 2.754527e+01 1.500000e+00
      vertex 2.000000e+01 -2.600000e+01 1.500000e+00
    endloop
  endfacet
  facet normal -3.665677e-14 0.000000e+00 -1.000000e+00
    outer loop
      vertex -2.154527e+01 2.754527e+01 1.500000e+00
      vertex 2.000000e+01 2.600000e+01 1.500000e+00
      vertex -2.000000e+01 2.600000e+01 1.500000e+00
    endloop
  endfacet
  facet normal -3.665677e-14 0.000000e+00 -1.000000e+00
    outer loop
      vertex -2.154527e+01 2.754527e+01 1.500000e+00
      vertex -2.000000e+01 2.600000e+01 1.500000e+00
      vertex -2.154527e+01 -2.754527e+01 1.500000e+00
    endloop
  endfacet
  facet normal 1.000000e+00 0.000000e+00 -3.665677e-14
    outer loop
      vertex -2.000000e+01 2.600000e+01 1.500000e+00
      vertex -2.000000e+01 -2.600000e+01 1.800000e+01
      vertex -2.000000e+01 -2.600000e+01 1.500000e+00
    endloop
  endfacet
  facet normal 1.000000e+00 0.000000e+00 -3.665677e-14
    outer loop
      vertex -2.000000e+01 -2.600000e+01 1.800000e+01
      vertex -2.000000e+01 2.600000e+01 1.500000e+00
      vertex -2.000000e+01 2.600000e+01 1.800000e+01
    endloop
  endfacet
  facet normal 0.000000e+00 1.000000e+00 0.000000e+00
    outer loop
      vertex 2.000000e+01 -2.600000e+01 1.500000e+00
      vertex -2.000000e+01 -2.600000e+01 1.800000e+01
      vertex 2.000000e+01 -2.600000e+01 1.800000e+01
    endloop
  endfacet
  facet normal 0.000000e+00 1.000000e+00 0.000000e+00
    outer loop
      vertex -2.000000e+01 -2.600000e+01 1.800000e+01
      vertex 2.000000e+01 -2.600000e+01 1.500000e+00
      vertex -2.000000e+01 -2.600000e+01 1.500000e+00
    endloop
  endfacet
  facet normal -1.000000e+00 0.000000e+00 3.665677e-14
    outer loop
      vertex 2.000000e+01 2.600000e+01 1.800000e+01
      vertex 2.000000e+01 -2.600000e+01 1.500000e+00
      vertex 2.000000e+01 -2.600000e+01 1.800000e+01
    endloop
  endfacet
  facet normal -1.000000e+00 0.000000e+00 3.665677e-14
    outer loop
      vertex 2.000000e+01 -2.600000e+01 1.500000e+00
      vertex 2.000000e+01 2.600000e+01 1.800000e+01
      vertex 2.000000e+01 2.600000e+01 1.500000e+00
    endloop
  endfacet
  facet normal -1.000000e+00 0.000000e+00 3.665677e-14
    outer loop
      vertex -2.154527e+01 2.754527e+01 1.800000e+01
      vertex -2.154527e+01 -2.754527e+01 1.500000e+00
      vertex -2.154527e+01 -2.754527e+01 1.800000e+01
    endloop
  endfacet
  facet normal -1.000000e+00 0.000000e+00 3.665677e-14
    outer loop
      vertex -2.154527e+01 -2.754527e+01 1.500000e+00
      vertex -2.154527e+01 2.754527e+01 1.800000e+01
      vertex -2.154527e+01 2.754527e+01 1.500000e+00
    endloop
  endfacet
  facet normal 0.000000e+00 -1.000000e+00 0.000000e+00
    outer loop
      vertex -2.154527e+01 -2.754527e+01 1.500000e+00
      vertex 2.154527e+01 -2.754527e+01 1.800000e+01
      vertex -2.154527e+01 -2.754527e+01 1.800000e+01
    endloop
  endfacet
  facet normal 0.000000e+00 -1.000000e+00 0.000000e+00
    outer loop
      vertex 2.154527e+01 -2.754527e+01 1.800000e+01
      vertex -2.154527e+01 -2.754527e+01 1.500000e+00
      vertex 2.154527e+01 -2.754527e+01 1.500000e+00
    endloop
  endfacet
  facet normal 3.665677e-14 0.000000e+00 1.000000e+00
    outer loop
      vertex 2.154527e+01 2.754527e+01 1.800000e+01
      vertex 2.000000e+01 2.600000e+01 1.800000e+01
      vertex 2.154527e+01 -2.754527e+01 1.800000e+01
    endloop
  endfacet
  facet normal 3.665677e-14 0.000000e+00 1.000000e+00
    outer loop
      vertex 2.000000e+01 2.600000e+01 1.800000e+01
      vertex 2.154527e+01 2.754527e+01 1.800000e+01
      vertex -2.154527e+01 2.754527e+01 1.800000e+01
    endloop
  endfacet
  facet normal 3.665677e-14 0.000000e+00 1.000000e+00
    outer loop
      vertex 2.000000e+01 2.600000e+01 1.800000e+01
      vertex -2.154527e+01 2.754527e+01 1.800000e+01
      vertex -2.000000e+01 2.600000e+01 1.800000e+01
    endloop
  endfacet
  facet normal 3.665677e-14 0.000000e+00 1.000000e+00
    outer loop
      vertex -2.000000e+01 2.600000e+01 1.800000e+01
      vertex -2.154527e+01 2.754527e+01 1.800000e+01
      vertex -2.000000e+01 -2.600000e+01 1.800000e+01
    endloop
  endfacet
  facet normal 3.665677e-14 0.000000e+00 1.000000e+00
    outer loop
      vertex 2.154527e+01 -2.754527e+01 1.800000e+01
      vertex 2.000000e+01 -2.600000e+01 1.800000e+01
      vertex -2.154527e+01 -2.754527e+01 1.800000e+01
    endloop
  endfacet
  facet normal 3.665677e-14 0.000000e+00 1.000000e+00
    outer loop
      vertex 2.000000e+01 -2.600000e+01 1.800000e+01
      vertex 2.154527e+01 -2.754527e+01 1.800000e+01
      vertex 2.000000e+01 2.600000e+01 1.800000e+01
    endloop
  endfacet
  facet normal 3.665677e-14 0.000000e+00 1.000000e+00
    outer loop
      vertex -2.154527e+01 -2.754527e+01 1.800000e+01
      vertex 2.000000e+01 -2.600000e+01 1.800000e+01
      vertex -2.000000e+01 -2.600000e+01 1.800000e+01
    endloop
  endfacet
  facet normal 3.665677e-14 0.000000e+00 1.000000e+00
    outer loop
      vertex -2.154527e+01 -2.754527e+01 1.800000e+01
      vertex -2.000000e+01 -2.600000e+01 1.800000e+01
      vertex -2.154527e+01 2.754527e+01 1.800000e+01
    endloop
  endfacet
  facet normal 0.000000e+00 1.000000e+00 0.000000e+00
    outer loop
      vertex 2.154527e+01 2.754527e+01 0.000000e+00
      vertex -2.154527e+01 2.754527e+01 1.500000e+00
      vertex 2.154527e+01 2.754527e+01 1.500000e+00
    endloop
  endfacet
  facet normal 0.000000e+00 1.000000e+00 0.000000e+00
    outer loop
      vertex -2.154527e+01 2.754527e+01 1.500000e+00
      vertex 2.154527e+01 2.754527e+01 0.000000e+00
      vertex -2.154527e+01 2.754527e+01 1.579534e-12
    endloop
  endfacet
  facet normal -3.665677e-14 0.000000e+00 -1.000000e+00
    outer loop
      vertex -2.154527e+01 -2.754527e+01 1.579534e-12
      vertex 2.154527e+01 2.754527e+01 0.000000e+00
      vertex 2.154527e+01 -2.754527e+01 0.000000e+00
    endloop
  endfacet
  facet normal -3.665677e-14 0.000000e+00 -1.000000e+00
    outer loop
      vertex 2.154527e+01 2.754527e+01 0.000000e+00
      vertex -2.154527e+01 -2.754527e+01 1.579534e-12
      vertex -2.154527e+01 2.754527e+01 1.579534e-12
    endloop
  endfacet
  facet normal 0.000000e+00 -1.000000e+00 0.000000e+00
    outer loop
      vertex -2.154527e+01 -2.754527e+01 1.579534e-12
      vertex 2.154527e+01 -2.754527e+01 1.500000e+00
      vertex -2.154527e+01 -2.754527e+01 1.500000e+00
    endloop
  endfacet
  facet normal 0.000000e+00 -1.000000e+00 0.000000e+00
    outer loop
      vertex 2.154527e+01 -2.754527e+01 1.500000e+00
      vertex -2.154527e+01 -2.754527e+01 1.579534e-12
      vertex 2.154527e+01 -2.754527e+01 0.000000e+00
    endloop
  endfacet
  facet normal -1.000000e+00 0.000000e+00 3.665677e-14
    outer loop
      vertex -2.154527e+01 2.754527e+01 1.500000e+00
      vertex -2.154527e+01 -2.754527e+01 1.579534e-12
      vertex -2.154527e+01 -2.754527e+01 1.500000e+00
    endloop
  endfacet
  facet normal -1.000000e+00 0.000000e+00 3.665677e-14
    outer loop
      vertex -2.154527e+01 -2.754527e+01 1.579534e-12
      vertex -2.154527e+01 2.754527e+01 1.500000e+00
      vertex -2.154527e+01 2.754527e+01 1.579534e-12
    endloop
  endfacet
  facet normal 1.000000e+00 0.000000e+00 -3.665677e-14
    outer loop
      vertex 2.154527e+01 2.754527e+01 0.000000e+00
      vertex 2.154527e+01 -2.754527e+01 1.500000e+00
      vertex 2.154527e+01 -2.754527e+01 0.000000e+00
    endloop
  endfacet
  facet normal 1.000000e+00 0.000000e+00 -3.665677e-14
    outer loop
      vertex 2.154527e+01 -2.754527e+01 1.500000e+00
      vertex 2.154527e+01 2.754527e+01 0.000000e+00
      vertex 2.154527e+01 2.754527e+01 1.500000e+00
    endloop
  endfacet
  facet normal 3.665677e-14 0.000000e+00 1.000000e+00
    outer loop
      vertex -2.154527e+01 2.754527e+01 1.500000e+00
      vertex 2.154527e+01 -2.754527e+01 1.500000e+00
      vertex 2.154527e+01 2.754527e+01 1.500000e+00
    endloop
  endfacet
  facet normal 3.665677e-14 0.000000e+00 1.000000e+00
    outer loop
      vertex 2.154527e+01 -2.754527e+01 1.500000e+00
      vertex -2.154527e+01 2.754527e+01 1.500000e+00
      vertex -2.154527e+01 -2.754527e+01 1.500000e+00
    endloop
  endfacet
endsolid Default
