solid Default
  facet normal -1.000000e+00 -1.836970e-16 4.214615e-13
    outer loop
      vertex -2.754527e+01 -2.154527e+01 1.800000e+01
      vertex -2.754527e+01 2.154527e+01 1.650000e+01
      vertex -2.754527e+01 -2.154527e+01 1.650000e+01
    endloop
  endfacet
  facet normal -1.000000e+00 -1.836970e-16 4.214615e-13
    outer loop
      vertex -2.754527e+01 2.154527e+01 1.650000e+01
      vertex -2.754527e+01 -2.154527e+01 1.800000e+01
      vertex -2.754527e+01 2.154527e+01 1.800000e+01
    endloop
  endfacet
  facet normal 4.214615e-13 1.224647e-16 1.000000e+00
    outer loop
      vertex 2.754527e+01 2.154527e+01 1.800000e+01
      vertex -2.754527e+01 -2.154527e+01 1.800000e+01
      vertex 2.754527e+01 -2.154527e+01 1.800000e+01
    endloop
  endfacet
  facet normal 4.214615e-13 1.224647e-16 1.000000e+00
    outer loop
      vertex -2.754527e+01 -2.154527e+01 1.800000e+01
      vertex 2.754527e+01 2.154527e+01 1.800000e+01
      vertex -2.754527e+01 2.154527e+01 1.800000e+01
    endloop
  endfacet
  facet normal 1.000000e+00 1.836970e-16 -4.214615e-13
    outer loop
      vertex 2.754527e+01 2.154527e+01 1.800000e+01
      vertex 2.754527e+01 -2.154527e+01 1.650000e+01
      vertex 2.754527e+01 2.154527e+01 1.650000e+01
    endloop
  endfacet
  facet normal 1.000000e+00 1.836970e-16 -4.214615e-13
    outer loop
      vertex 2.754527e+01 -2.154527e+01 1.650000e+01
      vertex 2.754527e+01 2.154527e+01 1.800000e+01
      vertex 2.754527e+01 -2.154527e+01 1.800000e+01
    endloop
  endfacet
  facet normal -1.836970e-16 1.000000e+00 -1.224647e-16
    outer loop
      vertex -2.754527e+01 2.154527e+01 1.650000e+01
      vertex 2.754527e+01 2.154527e+01 1.800000e+01
      vertex 2.754527e+01 2.154527e+01 1.650000e+01
    endloop
  endfacet
  facet normal -1.836970e-16 1.000000e+00 -1.224647e-16
    outer loop
      vertex 2.754527e+01 2.154527e+01 1.800000e+01
      vertex -2.754527e+01 2.154527e+01 1.650000e+01
      vertex -2.754527e+01 2.154527e+01 1.800000e+01
    endloop
  endfacet
  facet normal 1.836970e-16 -1.000000e+00 1.224647e-16
    outer loop
      vertex -2.754527e+01 -2.154527e+01 1.800000e+01
      vertex 2.754527e+01 -2.154527e+01 1.650000e+01
      vertex 2.754527e+01 -2.154527e+01 1.800000e+01
    endloop
  endfacet
  facet normal 1.836970e-16 -1.000000e+00 1.224647e-16
    outer loop
      vertex 2.754527e+01 -2.154527e+01 1.650000e+01
      vertex -2.754527e+01 -2.154527e+01 1.800000e+01
      vertex -2.754527e+01 -2.154527e+01 1.650000e+01
    endloop
  endfacet
  facet normal -4.214615e-13 -1.224647e-16 -1.000000e+00
    outer loop
      vertex -2.754527e+01 2.154527e+01 1.650000e+01
      vertex 2.754527e+01 -2.154527e+01 1.650000e+01
      vertex -2.754527e+01 -2.154527e+01 1.650000e+01
    endloop
  endfacet
  facet normal -4.214615e-13 -1.224647e-16 -1.000000e+00
    outer loop
      vertex 2.754527e+01 -2.154527e+01 1.650000e+01
      vertex -2.754527e+01 2.154527e+01 1.650000e+01
      vertex 2.754527e+01 2.154527e+01 1.650000e+01
    endloop
  endfacet
  facet normal 1.836970e-16 -1.000000e+00 1.224647e-16
    outer loop
      vertex -2.754527e+01 -2.154527e+01 1.650000e+01
      vertex 2.754527e+01 -2.154527e+01 0.000000e+00
      vertex 2.754527e+01 -2.154527e+01 1.650000e+01
    endloop
  endfacet
  facet normal 1.836970e-16 -1.000000e+00 1.224647e-16
    outer loop
      vertex 2.754527e+01 -2.154527e+01 0.000000e+00
      vertex -2.754527e+01 -2.154527e+01 1.650000e+01
      vertex -2.754527e+01 -2.154527e+01 0.000000e+00
    endloop
  endfacet
  facet normal -1.000000e+00 -1.836970e-16 4.214615e-13
    outer loop
      vertex -2.754527e+01 -2.154527e+01 1.650000e+01
      vertex -2.754527e+01 2.154527e+01 0.000000e+00
      vertex -2.754527e+01 -2.154527e+01 0.000000e+00
    endloop
  endfacet
  facet normal -1.000000e+00 -1.836970e-16 4.214615e-13
    outer loop
      vertex -2.754527e+01 2.154527e+01 0.000000e+00
      vertex -2.754527e+01 -2.154527e+01 1.650000e+01
      vertex -2.754527e+01 2.154527e+01 1.650000e+01
    endloop
  endfacet
  facet normal 1.000000e+00 1.836970e-16 -4.214615e-13
    outer loop
      vertex -2.600000e+01 2.000000e+01 1.650000e+01
      vertex -2.600000e+01 -2.000000e+01 0.000000e+00
      vertex -2.600000e+01 2.000000e+01 0.000000e+00
    endloop
  endfacet
  facet normal 1.000000e+00 1.836970e-16 -4.214615e-13
    outer loop
      vertex -2.600000e+01 -2.000000e+01 0.000000e+00
      vertex -2.600000e+01 2.000000e+01 1.650000e+01
      vertex -2.600000e+01 -2.000000e+01 1.650000e+01
    endloop
  endfacet
  facet normal 4.214615e-13 1.224647e-16 1.000000e+00
    outer loop
      vertex 2.754527e+01 -2.154527e+01 1.650000e+01
      vertex 2.600000e+01 -2.000000e+01 1.650000e+01
      vertex -2.754527e+01 -2.154527e+01 1.650000e+01
    endloop
  endfacet
  facet normal 4.214615e-13 1.224647e-16 1.000000e+00
    outer loop
      vertex 2.600000e+01 -2.000000e+01 1.650000e+01
      vertex 2.754527e+01 -2.154527e+01 1.650000e+01
      vertex 2.754527e+01 2.154527e+01 1.650000e+01
    endloop
  endfacet
  facet normal 4.214615e-13 1.224647e-16 1.000000e+00
    outer loop
      vertex 2.600000e+01 -2.000000e+01 1.650000e+01
      vertex 2.754527e+01 2.154527e+01 1.650000e+01
      vertex 2.600000e+01 2.000000e+01 1.650000e+01
    endloop
  endfacet
  facet normal 4.214615e-13 1.224647e-16 1.000000e+00
    outer loop
      vertex 2.600000e+01 2.000000e+01 1.650000e+01
      vertex 2.754527e+01 2.154527e+01 1.650000e+01
      vertex -2.600000e+01 2.000000e+01 1.650000e+01
    endloop
  endfacet
  facet normal 4.214615e-13 1.224647e-16 1.000000e+00
    outer loop
      vertex -2.754527e+01 -2.154527e+01 1.650000e+01
      vertex -2.600000e+01 -2.000000e+01 1.650000e+01
      vertex -2.754527e+01 2.154527e+01 1.650000e+01
    endloop
  endfacet
  facet normal 4.214615e-13 1.224647e-16 1.000000e+00
    outer loop
      vertex -2.600000e+01 -2.000000e+01 1.650000e+01
      vertex -2.754527e+01 -2.154527e+01 1.650000e+01
      vertex 2.600000e+01 -2.000000e+01 1.650000e+01
    endloop
  endfacet
  facet normal 4.214615e-13 1.224647e-16 1.000000e+00
    outer loop
      vertex -2.754527e+01 2.154527e+01 1.650000e+01
      vertex -2.600000e+01 -2.000000e+01 1.650000e+01
      vertex -2.600000e+01 2.000000e+01 1.650000e+01
    endloop
  endfacet
  facet normal 4.214615e-13 1.224647e-16 1.000000e+00
    outer loop
      vertex -2.754527e+01 2.154527e+01 1.650000e+01
      vertex -2.600000e+01 2.000000e+01 1.650000e+01
      vertex 2.754527e+01 2.154527e+01 1.650000e+01
    endloop
  endfacet
  facet normal 1.836970e-16 -1.000000e+00 1.224647e-16
    outer loop
      vertex -2.600000e+01 2.000000e+01 1.650000e+01
      vertex 2.600000e+01 2.000000e+01 0.000000e+00
      vertex 2.600000e+01 2.000000e+01 1.650000e+01
    endloop
  endfacet
  facet normal 1.836970e-16 -1.000000e+00 1.224647e-16
    outer loop
      vertex 2.600000e+01 2.000000e+01 0.000000e+00
      vertex -2.600000e+01 2.000000e+01 1.650000e+01
      vertex -2.600000e+01 2.000000e+01 0.000000e+00
    endloop
  endfacet
  facet normal -1.000000e+00 -1.836970e-16 4.214615e-13
    outer loop
      vertex 2.600000e+01 -2.000000e+01 1.650000e+01
      vertex 2.600000e+01 2.000000e+01 0.000000e+00
      vertex 2.600000e+01 -2.000000e+01 0.000000e+00
    endloop
  endfacet
  facet normal -1.000000e+00 -1.836970e-16 4.214615e-13
    outer loop
      vertex 2.600000e+01 2.000000e+01 0.000000e+00
      vertex 2.600000e+01 -2.000000e+01 1.650000e+01
      vertex 2.600000e+01 2.000000e+01 1.650000e+01
    endloop
  endfacet
  facet normal -1.836970e-16 1.000000e+00 -1.224647e-16
    outer loop
      vertex -2.600000e+01 -2.000000e+01 0.000000e+00
      vertex 2.600000e+01 -2.000000e+01 1.650000e+01
      vertex 2.600000e+01 -2.000000e+01 0.000000e+00
    endloop
  endfacet
  facet normal -1.836970e-16 1.000000e+00 -1.224647e-16
    outer loop
      vertex 2.600000e+01 -2.000000e+01 1.650000e+01
      vertex -2.600000e+01 -2.000000e+01 0.000000e+00
      vertex -2.600000e+01 -2.000000e+01 1.650000e+01
    endloop
  endfacet
  facet normal -1.836970e-16 1.000000e+00 -1.224647e-16
    outer loop
      vertex -2.754527e+01 2.154527e+01 0.000000e+00
      vertex 2.754527e+01 2.154527e+01 1.650000e+01
      vertex 2.754527e+01 2.154527e+01 0.000000e+00
    endloop
  endfacet
  facet normal -1.836970e-16 1.000000e+00 -1.224647e-16
    outer loop
      vertex 2.754527e+01 2.154527e+01 1.650000e+01
      vertex -2.754527e+01 2.154527e+01 0.000000e+00
      vertex -2.754527e+01 2.154527e+01 1.650000e+01
    endloop
  endfacet
  facet normal 1.000000e+00 1.836970e-16 -4.214615e-13
    outer loop
      vertex 2.754527e+01 2.154527e+01 1.650000e+01
      vertex 2.754527e+01 -2.154527e+01 0.000000e+00
      vertex 2.754527e+01 2.154527e+01 0.000000e+00
    endloop
  endfacet
  facet normal 1.000000e+00 1.836970e-16 -4.214615e-13
    outer loop
      vertex 2.754527e+01 -2.154527e+01 0.000000e+00
      vertex 2.754527e+01 2.154527e+01 1.650000e+01
      vertex 2.754527e+01 -2.154527e+01 1.650000e+01
    endloop
  endfacet
  facet normal -4.214615e-13 -1.224647e-16 -1.000000e+00
    outer loop
      vertex -2.754527e+01 -2.154527e+01 0.000000e+00
      vertex -2.600000e+01 -2.000000e+01 0.000000e+00
      vertex 2.754527e+01 -2.154527e+01 0.000000e+00
    endloop
  endfacet
  facet normal -4.214615e-13 -1.224647e-16 -1.000000e+00
    outer loop
      vertex -2.600000e+01 -2.000000e+01 0.000000e+00
      vertex -2.754527e+01 -2.154527e+01 0.000000e+00
      vertex -2.754527e+01 2.154527e+01 0.000000e+00
    endloop
  endfacet
  facet normal -4.214615e-13 -1.224647e-16 -1.000000e+00
    outer loop
      vertex -2.600000e+01 -2.000000e+01 0.000000e+00
      vertex -2.754527e+01 2.154527e+01 0.000000e+00
      vertex -2.600000e+01 2.000000e+01 0.000000e+00
    endloop
  endfacet
  facet normal -4.214615e-13 -1.224647e-16 -1.000000e+00
    outer loop
      vertex -2.600000e+01 2.000000e+01 0.000000e+00
      vertex -2.754527e+01 2.154527e+01 0.000000e+00
      vertex 2.600000e+01 2.000000e+01 0.000000e+00
    endloop
  endfacet
  facet normal -4.214615e-13 -1.224647e-16 -1.000000e+00
    outer loop
      vertex 2.754527e+01 -2.154527e+01 0.000000e+00
      vertex 2.600000e+01 -2.000000e+01 0.000000e+00
      vertex 2.754527e+01 2.154527e+01 0.000000e+00
    endloop
  endfacet
  facet normal -4.214615e-13 -1.224647e-16 -1.000000e+00
    outer loop
      vertex 2.600000e+01 -2.000000e+01 0.000000e+00
      vertex 2.754527e+01 -2.154527e+01 0.000000e+00
      vertex -2.600000e+01 -2.000000e+01 0.000000e+00
    endloop
  endfacet
  facet normal -4.214615e-13 -1.224647e-16 -1.000000e+00
    outer loop
      vertex 2.754527e+01 2.154527e+01 0.000000e+00
      vertex 2.600000e+01 -2.000000e+01 0.000000e+00
      vertex 2.600000e+01 2.000000e+01 0.000000e+00
    endloop
  endfacet
  facet normal -4.214615e-13 -1.224647e-16 -1.000000e+00
    outer loop
      vertex 2.754527e+01 2.154527e+01 0.000000e+00
      vertex 2.600000e+01 2.000000e+01 0.000000e+00
      vertex -2.754527e+01 2.154527e+01 0.000000e+00
    endloop
  endfacet
  facet normal 9.899024e-01 1.628580e-16 -1.417508e-01
    outer loop
      vertex -2.265942e+00 2.863704e+00 1.800000e+01
      vertex -1.179886e-01 1.921166e+01 3.300000e+01
      vertex -1.179886e-01 7.157540e-01 3.300000e+01
    endloop
  endfacet
  facet normal 9.899024e-01 1.628580e-16 -1.417508e-01
    outer loop
      vertex -1.179886e-01 1.921166e+01 3.300000e+01
      vertex -2.265942e+00 2.863704e+00 1.800000e+01
      vertex -2.265942e+00 1.706370e+01 1.800000e+01
    endloop
  endfacet
  facet normal -1.843941e-16 9.899024e-01 -1.417508e-01
    outer loop
      vertex -1.179886e-01 1.921166e+01 3.300000e+01
      vertex -1.646594e+01 1.706370e+01 1.800000e+01
      vertex -1.861389e+01 1.921166e+01 3.300000e+01
    endloop
  endfacet
  facet normal -1.843941e-16 9.899024e-01 -1.417508e-01
    outer loop
      vertex -1.646594e+01 1.706370e+01 1.800000e+01
      vertex -1.179886e-01 1.921166e+01 3.300000e+01
      vertex -2.265942e+00 1.706370e+01 1.800000e+01
    endloop
  endfacet
  facet normal -1.000000e+00 -1.836970e-16 2.249640e-32
    outer loop
      vertex -4.127632e+00 1.520201e+01 3.000000e+01
      vertex -4.127632e+00 4.725394e+00 3.300000e+01
      vertex -4.127632e+00 1.520201e+01 3.300000e+01
    endloop
  endfacet
  facet normal -1.000000e+00 -1.836970e-16 2.249640e-32
    outer loop
      vertex -4.127632e+00 4.725394e+00 3.300000e+01
      vertex -4.127632e+00 1.520201e+01 3.000000e+01
      vertex -4.127632e+00 4.725394e+00 3.000000e+01
    endloop
  endfacet
  facet normal 0.000000e+00 1.224647e-16 1.000000e+00
    outer loop
      vertex -4.127632e+00 1.520201e+01 3.000000e+01
      vertex -1.460425e+01 4.725394e+00 3.000000e+01
      vertex -4.127632e+00 4.725394e+00 3.000000e+01
    endloop
  endfacet
  facet normal 0.000000e+00 1.224647e-16 1.000000e+00
    outer loop
      vertex -1.460425e+01 4.725394e+00 3.000000e+01
      vertex -4.127632e+00 1.520201e+01 3.000000e+01
      vertex -1.460425e+01 1.520201e+01 3.000000e+01
    endloop
  endfacet
  facet normal 0.000000e+00 1.224647e-16 1.000000e+00
    outer loop
      vertex -1.179886e-01 7.157540e-01 3.300000e+01
      vertex -4.127632e+00 4.725394e+00 3.300000e+01
      vertex -1.861389e+01 7.157540e-01 3.300000e+01
    endloop
  endfacet
  facet normal 0.000000e+00 1.224647e-16 1.000000e+00
    outer loop
      vertex -4.127632e+00 4.725394e+00 3.300000e+01
      vertex -1.179886e-01 7.157540e-01 3.300000e+01
      vertex -1.179886e-01 1.921166e+01 3.300000e+01
    endloop
  endfacet
  facet normal 0.000000e+00 1.224647e-16 1.000000e+00
    outer loop
      vertex -4.127632e+00 4.725394e+00 3.300000e+01
      vertex -1.179886e-01 1.921166e+01 3.300000e+01
      vertex -4.127632e+00 1.520201e+01 3.300000e+01
    endloop
  endfacet
  facet normal 0.000000e+00 1.224647e-16 1.000000e+00
    outer loop
      vertex -4.127632e+00 1.520201e+01 3.300000e+01
      vertex -1.179886e-01 1.921166e+01 3.300000e+01
      vertex -1.460425e+01 1.520201e+01 3.300000e+01
    endloop
  endfacet
  facet normal 0.000000e+00 1.224647e-16 1.000000e+00
    outer loop
      vertex -1.861389e+01 7.157540e-01 3.300000e+01
      vertex -1.460425e+01 4.725394e+00 3.300000e+01
      vertex -1.861389e+01 1.921166e+01 3.300000e+01
    endloop
  endfacet
  facet normal 0.000000e+00 1.224647e-16 1.000000e+00
    outer loop
      vertex -1.460425e+01 4.725394e+00 3.300000e+01
      vertex -1.861389e+01 7.157540e-01 3.300000e+01
      vertex -4.127632e+00 4.725394e+00 3.300000e+01
    endloop
  endfacet
  facet normal 0.000000e+00 1.224647e-16 1.000000e+00
    outer loop
      vertex -1.861389e+01 1.921166e+01 3.300000e+01
      vertex -1.460425e+01 4.725394e+00 3.300000e+01
      vertex -1.460425e+01 1.520201e+01 3.300000e+01
    endloop
  endfacet
  facet normal 0.000000e+00 1.224647e-16 1.000000e+00
    outer loop
      vertex -1.861389e+01 1.921166e+01 3.300000e+01
      vertex -1.460425e+01 1.520201e+01 3.300000e+01
      vertex -1.179886e-01 1.921166e+01 3.300000e+01
    endloop
  endfacet
  facet normal -4.911323e-17 1.000000e+00 -1.224647e-16
    outer loop
      vertex -4.127632e+00 4.725394e+00 3.300000e+01
      vertex -1.460425e+01 4.725394e+00 3.000000e+01
      vertex -1.460425e+01 4.725394e+00 3.300000e+01
    endloop
  endfacet
  facet normal -4.911323e-17 1.000000e+00 -1.224647e-16
    outer loop
      vertex -1.460425e+01 4.725394e+00 3.000000e+01
      vertex -4.127632e+00 4.725394e+00 3.300000e+01
      vertex -4.127632e+00 4.725394e+00 3.000000e+01
    endloop
  endfacet
  facet normal 1.836970e-16 -1.000000e+00 1.224647e-16
    outer loop
      vertex -4.127632e+00 1.520201e+01 3.000000e+01
      vertex -1.460425e+01 1.520201e+01 3.300000e+01
      vertex -1.460425e+01 1.520201e+01 3.000000e+01
    endloop
  endfacet
  facet normal 1.836970e-16 -1.000000e+00 1.224647e-16
    outer loop
      vertex -1.460425e+01 1.520201e+01 3.300000e+01
      vertex -4.127632e+00 1.520201e+01 3.000000e+01
      vertex -4.127632e+00 1.520201e+01 3.300000e+01
    endloop
  endfacet
  facet normal 1.792901e-16 -9.899024e-01 -1.417508e-01
    outer loop
      vertex -1.646594e+01 2.863704e+00 1.800000e+01
      vertex -1.179886e-01 7.157540e-01 3.300000e+01
      vertex -1.861389e+01 7.157540e-01 3.300000e+01
    endloop
  endfacet
  facet normal 1.792901e-16 -9.899024e-01 -1.417508e-01
    outer loop
      vertex -1.179886e-01 7.157540e-01 3.300000e+01
      vertex -1.646594e+01 2.863704e+00 1.800000e+01
      vertex -2.265942e+00 2.863704e+00 1.800000e+01
    endloop
  endfacet
  facet normal -9.899024e-01 -2.014195e-16 -1.417508e-01
    outer loop
      vertex -1.646594e+01 1.706370e+01 1.800000e+01
      vertex -1.861389e+01 7.157540e-01 3.300000e+01
      vertex -1.861389e+01 1.921166e+01 3.300000e+01
    endloop
  endfacet
  facet normal -9.899024e-01 -2.014195e-16 -1.417508e-01
    outer loop
      vertex -1.861389e+01 7.157540e-01 3.300000e+01
      vertex -1.646594e+01 1.706370e+01 1.800000e+01
      vertex -1.646594e+01 2.863704e+00 1.800000e+01
    endloop
  endfacet
  facet normal 1.000000e+00 1.836970e-16 -2.249640e-32
    outer loop
      vertex -1.460425e+01 4.725394e+00 3.000000e+01
      vertex -1.460425e+01 1.520201e+01 3.300000e+01
      vertex -1.460425e+01 4.725394e+00 3.300000e+01
    endloop
  endfacet
  facet normal 1.000000e+00 1.836970e-16 -2.249640e-32
    outer loop
      vertex -1.460425e+01 1.520201e+01 3.300000e+01
      vertex -1.460425e+01 4.725394e+00 3.000000e+01
      vertex -1.460425e+01 1.520201e+01 3.000000e+01
    endloop
  endfacet
  facet normal 0.000000e+00 -1.224647e-16 -1.000000e+00
    outer loop
      vertex -1.646594e+01 1.706370e+01 1.800000e+01
      vertex -2.265942e+00 2.863704e+00 1.800000e+01
      vertex -1.646594e+01 2.863704e+00 1.800000e+01
    endloop
  endfacet
  facet normal 0.000000e+00 -1.224647e-16 -1.000000e+00
    outer loop
      vertex -2.265942e+00 2.863704e+00 1.800000e+01
      vertex -1.646594e+01 1.706370e+01 1.800000e+01
      vertex -2.265942e+00 1.706370e+01 1.800000e+01
    endloop
  endfacet
  facet normal 9.899024e-01 1.628580e-16 -1.417508e-01
    outer loop
      vertex -2.265942e+00 -1.723204e+01 1.800000e+01
      vertex -1.179886e-01 -8.840923e-01 3.300000e+01
      vertex -1.179886e-01 -1.937999e+01 3.300000e+01
    endloop
  endfacet
  facet normal 9.899024e-01 1.628580e-16 -1.417508e-01
    outer loop
      vertex -1.179886e-01 -8.840923e-01 3.300000e+01
      vertex -2.265942e+00 -1.723204e+01 1.800000e+01
      vertex -2.265942e+00 -3.032043e+00 1.800000e+01
    endloop
  endfacet
  facet normal -1.843941e-16 9.899024e-01 -1.417508e-01
    outer loop
      vertex -1.179886e-01 -8.840923e-01 3.300000e+01
      vertex -1.646594e+01 -3.032043e+00 1.800000e+01
      vertex -1.861389e+01 -8.840923e-01 3.300000e+01
    endloop
  endfacet
  facet normal -1.843941e-16 9.899024e-01 -1.417508e-01
    outer loop
      vertex -1.646594e+01 -3.032043e+00 1.800000e+01
      vertex -1.179886e-01 -8.840923e-01 3.300000e+01
      vertex -2.265942e+00 -3.032043e+00 1.800000e+01
    endloop
  endfacet
  facet normal -1.000000e+00 -1.836970e-16 2.249640e-32
    outer loop
      vertex -4.127632e+00 -4.893733e+00 3.000000e+01
      vertex -4.127632e+00 -1.537035e+01 3.300000e+01
      vertex -4.127632e+00 -4.893733e+00 3.300000e+01
    endloop
  endfacet
  facet normal -1.000000e+00 -1.836970e-16 2.249640e-32
    outer loop
      vertex -4.127632e+00 -1.537035e+01 3.300000e+01
      vertex -4.127632e+00 -4.893733e+00 3.000000e+01
      vertex -4.127632e+00 -1.537035e+01 3.000000e+01
    endloop
  endfacet
  facet normal 0.000000e+00 1.224647e-16 1.000000e+00
    outer loop
      vertex -4.127632e+00 -4.893733e+00 3.000000e+01
      vertex -1.460425e+01 -1.537035e+01 3.000000e+01
      vertex -4.127632e+00 -1.537035e+01 3.000000e+01
    endloop
  endfacet
  facet normal 0.000000e+00 1.224647e-16 1.000000e+00
    outer loop
      vertex -1.460425e+01 -1.537035e+01 3.000000e+01
      vertex -4.127632e+00 -4.893733e+00 3.000000e+01
      vertex -1.460425e+01 -4.893733e+00 3.000000e+01
    endloop
  endfacet
  facet normal 0.000000e+00 1.224647e-16 1.000000e+00
    outer loop
      vertex -1.179886e-01 -1.937999e+01 3.300000e+01
      vertex -4.127632e+00 -1.537035e+01 3.300000e+01
      vertex -1.861389e+01 -1.937999e+01 3.300000e+01
    endloop
  endfacet
  facet normal 0.000000e+00 1.224647e-16 1.000000e+00
    outer loop
      vertex -4.127632e+00 -1.537035e+01 3.300000e+01
      vertex -1.179886e-01 -1.937999e+01 3.300000e+01
      vertex -1.179886e-01 -8.840923e-01 3.300000e+01
    endloop
  endfacet
  facet normal 0.000000e+00 1.224647e-16 1.000000e+00
    outer loop
      vertex -4.127632e+00 -1.537035e+01 3.300000e+01
      vertex -1.179886e-01 -8.840923e-01 3.300000e+01
      vertex -4.127632e+00 -4.893733e+00 3.300000e+01
    endloop
  endfacet
  facet normal 0.000000e+00 1.224647e-16 1.000000e+00
    outer loop
      vertex -4.127632e+00 -4.893733e+00 3.300000e+01
      vertex -1.179886e-01 -8.840923e-01 3.300000e+01
      vertex -1.460425e+01 -4.893733e+00 3.300000e+01
    endloop
  endfacet
  facet normal 0.000000e+00 1.224647e-16 1.000000e+00
    outer loop
      vertex -1.861389e+01 -1.937999e+01 3.300000e+01
      vertex -1.460425e+01 -1.537035e+01 3.300000e+01
      vertex -1.861389e+01 -8.840923e-01 3.300000e+01
    endloop
  endfacet
  facet normal 0.000000e+00 1.224647e-16 1.000000e+00
    outer loop
      vertex -1.460425e+01 -1.537035e+01 3.300000e+01
      vertex -1.861389e+01 -1.937999e+01 3.300000e+01
      vertex -4.127632e+00 -1.537035e+01 3.300000e+01
    endloop
  endfacet
  facet normal 0.000000e+00 1.224647e-16 1.000000e+00
    outer loop
      vertex -1.861389e+01 -8.840923e-01 3.300000e+01
      vertex -1.460425e+01 -1.537035e+01 3.300000e+01
      vertex -1.460425e+01 -4.893733e+00 3.300000e+01
    endloop
  endfacet
  facet normal 0.000000e+00 1.224647e-16 1.000000e+00
    outer loop
      vertex -1.861389e+01 -8.840923e-01 3.300000e+01
      vertex -1.460425e+01 -4.893733e+00 3.300000e+01
      vertex -1.179886e-01 -8.840923e-01 3.300000e+01
    endloop
  endfacet
  facet normal -4.911323e-17 1.000000e+00 -1.224647e-16
    outer loop
      vertex -4.127632e+00 -1.537035e+01 3.300000e+01
      vertex -1.460425e+01 -1.537035e+01 3.000000e+01
      vertex -1.460425e+01 -1.537035e+01 3.300000e+01
    endloop
  endfacet
  facet normal -4.911323e-17 1.000000e+00 -1.224647e-16
    outer loop
      vertex -1.460425e+01 -1.537035e+01 3.000000e+01
      vertex -4.127632e+00 -1.537035e+01 3.300000e+01
      vertex -4.127632e+00 -1.537035e+01 3.000000e+01
    endloop
  endfacet
  facet normal 1.836970e-16 -1.000000e+00 1.224647e-16
    outer loop
      vertex -4.127632e+00 -4.893733e+00 3.000000e+01
      vertex -1.460425e+01 -4.893733e+00 3.300000e+01
      vertex -1.460425e+01 -4.893733e+00 3.000000e+01
    endloop
  endfacet
  facet normal 1.836970e-16 -1.000000e+00 1.224647e-16
    outer loop
      vertex -1.460425e+01 -4.893733e+00 3.300000e+01
      vertex -4.127632e+00 -4.893733e+00 3.000000e+01
      vertex -4.127632e+00 -4.893733e+00 3.300000e+01
    endloop
  endfacet
  facet normal 1.792901e-16 -9.899024e-01 -1.417508e-01
    outer loop
      vertex -1.646594e+01 -1.723204e+01 1.800000e+01
      vertex -1.179886e-01 -1.937999e+01 3.300000e+01
      vertex -1.861389e+01 -1.937999e+01 3.300000e+01
    endloop
  endfacet
  facet normal 1.792901e-16 -9.899024e-01 -1.417508e-01
    outer loop
      vertex -1.179886e-01 -1.937999e+01 3.300000e+01
      vertex -1.646594e+01 -1.723204e+01 1.800000e+01
      vertex -2.265942e+00 -1.723204e+01 1.800000e+01
    endloop
  endfacet
  facet normal -9.899024e-01 -2.014195e-16 -1.417508e-01
    outer loop
      vertex -1.646594e+01 -3.032043e+00 1.800000e+01
      vertex -1.861389e+01 -1.937999e+01 3.300000e+01
      vertex -1.861389e+01 -8.840923e-01 3.300000e+01
    endloop
  endfacet
  facet normal -9.899024e-01 -2.014195e-16 -1.417508e-01
    outer loop
      vertex -1.861389e+01 -1.937999e+01 3.300000e+01
      vertex -1.646594e+01 -3.032043e+00 1.800000e+01
      vertex -1.646594e+01 -1.723204e+01 1.800000e+01
    endloop
  endfacet
  facet normal 1.000000e+00 1.836970e-16 -2.249640e-32
    outer loop
      vertex -1.460425e+01 -1.537035e+01 3.000000e+01
      vertex -1.460425e+01 -4.893733e+00 3.300000e+01
      vertex -1.460425e+01 -1.537035e+01 3.300000e+01
    endloop
  endfacet
  facet normal 1.000000e+00 1.836970e-16 -2.249640e-32
    outer loop
      vertex -1.460425e+01 -4.893733e+00 3.300000e+01
      vertex -1.460425e+01 -1.537035e+01 3.000000e+01
      vertex -1.460425e+01 -4.893733e+00 3.000000e+01
    endloop
  endfacet
  facet normal 0.000000e+00 -1.224647e-16 -1.000000e+00
    outer loop
      vertex -1.646594e+01 -3.032043e+00 1.800000e+01
      vertex -2.265942e+00 -1.723204e+01 1.800000e+01
      vertex -1.646594e+01 -1.723204e+01 1.800000e+01
    endloop
  endfacet
  facet normal 0.000000e+00 -1.224647e-16 -1.000000e+00
    outer loop
      vertex -2.265942e+00 -1.723204e+01 1.800000e+01
      vertex -1.646594e+01 -3.032043e+00 1.800000e+01
      vertex -2.265942e+00 -3.032043e+00 1.800000e+01
    endloop
  endfacet
  facet normal 9.899024e-01 1.628580e-16 -1.417508e-01
    outer loop
      vertex 1.743406e+01 -1.723204e+01 1.800000e+01
      vertex 1.958201e+01 -8.840923e-01 3.300000e+01
      vertex 1.958201e+01 -1.937999e+01 3.300000e+01
    endloop
  endfacet
  facet normal 9.899024e-01 1.628580e-16 -1.417508e-01
    outer loop
      vertex 1.958201e+01 -8.840923e-01 3.300000e+01
      vertex 1.743406e+01 -1.723204e+01 1.800000e+01
      vertex 1.743406e+01 -3.032043e+00 1.800000e+01
    endloop
  endfacet
  facet normal -1.843941e-16 9.899024e-01 -1.417508e-01
    outer loop
      vertex 1.958201e+01 -8.840923e-01 3.300000e+01
      vertex 3.234058e+00 -3.032043e+00 1.800000e+01
      vertex 1.086109e+00 -8.840923e-01 3.300000e+01
    endloop
  endfacet
  facet normal -1.843941e-16 9.899024e-01 -1.417508e-01
    outer loop
      vertex 3.234058e+00 -3.032043e+00 1.800000e+01
      vertex 1.958201e+01 -8.840923e-01 3.300000e+01
      vertex 1.743406e+01 -3.032043e+00 1.800000e+01
    endloop
  endfacet
  facet normal -1.000000e+00 -1.836970e-16 2.249640e-32
    outer loop
      vertex 1.557237e+01 -4.893733e+00 3.000000e+01
      vertex 1.557237e+01 -1.537035e+01 3.300000e+01
      vertex 1.557237e+01 -4.893733e+00 3.300000e+01
    endloop
  endfacet
  facet normal -1.000000e+00 -1.836970e-16 2.249640e-32
    outer loop
      vertex 1.557237e+01 -1.537035e+01 3.300000e+01
      vertex 1.557237e+01 -4.893733e+00 3.000000e+01
      vertex 1.557237e+01 -1.537035e+01 3.000000e+01
    endloop
  endfacet
  facet normal 0.000000e+00 1.224647e-16 1.000000e+00
    outer loop
      vertex 1.557237e+01 -4.893733e+00 3.000000e+01
      vertex 5.095749e+00 -1.537035e+01 3.000000e+01
      vertex 1.557237e+01 -1.537035e+01 3.000000e+01
    endloop
  endfacet
  facet normal 0.000000e+00 1.224647e-16 1.000000e+00
    outer loop
      vertex 5.095749e+00 -1.537035e+01 3.000000e+01
      vertex 1.557237e+01 -4.893733e+00 3.000000e+01
      vertex 5.095749e+00 -4.893733e+00 3.000000e+01
    endloop
  endfacet
  facet normal 0.000000e+00 1.224647e-16 1.000000e+00
    outer loop
      vertex 1.958201e+01 -1.937999e+01 3.300000e+01
      vertex 1.557237e+01 -1.537035e+01 3.300000e+01
      vertex 1.086109e+00 -1.937999e+01 3.300000e+01
    endloop
  endfacet
  facet normal 0.000000e+00 1.224647e-16 1.000000e+00
    outer loop
      vertex 1.557237e+01 -1.537035e+01 3.300000e+01
      vertex 1.958201e+01 -1.937999e+01 3.300000e+01
      vertex 1.958201e+01 -8.840923e-01 3.300000e+01
    endloop
  endfacet
  facet normal 0.000000e+00 1.224647e-16 1.000000e+00
    outer loop
      vertex 1.557237e+01 -1.537035e+01 3.300000e+01
      vertex 1.958201e+01 -8.840923e-01 3.300000e+01
      vertex 1.557237e+01 -4.893733e+00 3.300000e+01
    endloop
  endfacet
  facet normal 0.000000e+00 1.224647e-16 1.000000e+00
    outer loop
      vertex 1.557237e+01 -4.893733e+00 3.300000e+01
      vertex 1.958201e+01 -8.840923e-01 3.300000e+01
      vertex 5.095749e+00 -4.893733e+00 3.300000e+01
    endloop
  endfacet
  facet normal 0.000000e+00 1.224647e-16 1.000000e+00
    outer loop
      vertex 1.086109e+00 -1.937999e+01 3.300000e+01
      vertex 5.095749e+00 -1.537035e+01 3.300000e+01
      vertex 1.086109e+00 -8.840923e-01 3.300000e+01
    endloop
  endfacet
  facet normal 0.000000e+00 1.224647e-16 1.000000e+00
    outer loop
      vertex 5.095749e+00 -1.537035e+01 3.300000e+01
      vertex 1.086109e+00 -1.937999e+01 3.300000e+01
      vertex 1.557237e+01 -1.537035e+01 3.300000e+01
    endloop
  endfacet
  facet normal 0.000000e+00 1.224647e-16 1.000000e+00
    outer loop
      vertex 1.086109e+00 -8.840923e-01 3.300000e+01
      vertex 5.095749e+00 -1.537035e+01 3.300000e+01
      vertex 5.095749e+00 -4.893733e+00 3.300000e+01
    endloop
  endfacet
  facet normal 0.000000e+00 1.224647e-16 1.000000e+00
    outer loop
      vertex 1.086109e+00 -8.840923e-01 3.300000e+01
      vertex 5.095749e+00 -4.893733e+00 3.300000e+01
      vertex 1.958201e+01 -8.840923e-01 3.300000e+01
    endloop
  endfacet
  facet normal -4.911323e-17 1.000000e+00 -1.224647e-16
    outer loop
      vertex 1.557237e+01 -1.537035e+01 3.300000e+01
      vertex 5.095749e+00 -1.537035e+01 3.000000e+01
      vertex 5.095749e+00 -1.537035e+01 3.300000e+01
    endloop
  endfacet
  facet normal -4.911323e-17 1.000000e+00 -1.224647e-16
    outer loop
      vertex 5.095749e+00 -1.537035e+01 3.000000e+01
      vertex 1.557237e+01 -1.537035e+01 3.300000e+01
      vertex 1.557237e+01 -1.537035e+01 3.000000e+01
    endloop
  endfacet
  facet normal 1.836970e-16 -1.000000e+00 1.224647e-16
    outer loop
      vertex 1.557237e+01 -4.893733e+00 3.000000e+01
      vertex 5.095749e+00 -4.893733e+00 3.300000e+01
      vertex 5.095749e+00 -4.893733e+00 3.000000e+01
    endloop
  endfacet
  facet normal 1.836970e-16 -1.000000e+00 1.224647e-16
    outer loop
      vertex 5.095749e+00 -4.893733e+00 3.300000e+01
      vertex 1.557237e+01 -4.893733e+00 3.000000e+01
      vertex 1.557237e+01 -4.893733e+00 3.300000e+01
    endloop
  endfacet
  facet normal 1.792901e-16 -9.899024e-01 -1.417508e-01
    outer loop
      vertex 3.234058e+00 -1.723204e+01 1.800000e+01
      vertex 1.958201e+01 -1.937999e+01 3.300000e+01
      vertex 1.086109e+00 -1.937999e+01 3.300000e+01
    endloop
  endfacet
  facet normal 1.792901e-16 -9.899024e-01 -1.417508e-01
    outer loop
      vertex 1.958201e+01 -1.937999e+01 3.300000e+01
      vertex 3.234058e+00 -1.723204e+01 1.800000e+01
      vertex 1.743406e+01 -1.723204e+01 1.800000e+01
    endloop
  endfacet
  facet normal -9.899024e-01 -2.014195e-16 -1.417508e-01
    outer loop
      vertex 3.234058e+00 -3.032043e+00 1.800000e+01
      vertex 1.086109e+00 -1.937999e+01 3.300000e+01
      vertex 1.086109e+00 -8.840923e-01 3.300000e+01
    endloop
  endfacet
  facet normal -9.899024e-01 -2.014195e-16 -1.417508e-01
    outer loop
      vertex 1.086109e+00 -1.937999e+01 3.300000e+01
      vertex 3.234058e+00 -3.032043e+00 1.800000e+01
      vertex 3.234058e+00 -1.723204e+01 1.800000e+01
    endloop
  endfacet
  facet normal 1.000000e+00 1.836970e-16 -2.249640e-32
    outer loop
      vertex 5.095749e+00 -1.537035e+01 3.000000e+01
      vertex 5.095749e+00 -4.893733e+00 3.300000e+01
      vertex 5.095749e+00 -1.537035e+01 3.300000e+01
    endloop
  endfacet
  facet normal 1.000000e+00 1.836970e-16 -2.249640e-32
    outer loop
      vertex 5.095749e+00 -4.893733e+00 3.300000e+01
      vertex 5.095749e+00 -1.537035e+01 3.000000e+01
      vertex 5.095749e+00 -4.893733e+00 3.000000e+01
    endloop
  endfacet
  facet normal 0.000000e+00 -1.224647e-16 -1.000000e+00
    outer loop
      vertex 3.234058e+00 -3.032043e+00 1.800000e+01
      vertex 1.743406e+01 -1.723204e+01 1.800000e+01
      vertex 3.234058e+00 -1.723204e+01 1.800000e+01
    endloop
  endfacet
  facet normal 0.000000e+00 -1.224647e-16 -1.000000e+00
    outer loop
      vertex 1.743406e+01 -1.723204e+01 1.800000e+01
      vertex 3.234058e+00 -3.032043e+00 1.800000e+01
      vertex 1.743406e+01 -3.032043e+00 1.800000e+01
    endloop
  endfacet
  facet normal 1.000000e+00 2.539890e-14 -3.110468e-30
    outer loop
      vertex -2.754527e+01 -2.150000e+00 0.000000e+00
      vertex -2.754527e+01 2.150001e+00 3.300000e+01
      vertex -2.754527e+01 -2.150000e+00 3.300000e+01
    endloop
  endfacet
  facet normal 1.000000e+00 2.539890e-14 -3.110468e-30
    outer loop
      vertex -2.754527e+01 2.150001e+00 3.300000e+01
      vertex -2.754527e+01 -2.150000e+00 0.000000e+00
      vertex -2.754527e+01 2.150001e+00 0.000000e+00
    endloop
  endfacet
  facet normal 0.000000e+00 -1.224647e-16 -1.000000e+00
    outer loop
      vertex -2.754527e+01 -2.150000e+00 0.000000e+00
      vertex -3.654527e+01 2.150001e+00 0.000000e+00
      vertex -2.754527e+01 2.150001e+00 0.000000e+00
    endloop
  endfacet
  facet normal 0.000000e+00 -1.224647e-16 -1.000000e+00
    outer loop
      vertex -3.654527e+01 2.150001e+00 0.000000e+00
      vertex -2.754527e+01 -2.150000e+00 0.000000e+00
      vertex -3.654527e+01 -2.150000e+00 0.000000e+00
    endloop
  endfacet
  facet normal -2.539890e-14 1.000000e+00 -1.224647e-16
    outer loop
      vertex -3.654527e+01 2.150001e+00 0.000000e+00
      vertex -2.754527e+01 2.150001e+00 3.300000e+01
      vertex -2.754527e+01 2.150001e+00 0.000000e+00
    endloop
  endfacet
  facet normal -2.539890e-14 1.000000e+00 -1.224647e-16
    outer loop
      vertex -2.754527e+01 2.150001e+00 3.300000e+01
      vertex -3.654527e+01 2.150001e+00 0.000000e+00
      vertex -5.054527e+01 2.150001e+00 3.300000e+01
    endloop
  endfacet
  facet normal -2.539890e-14 1.000000e+00 -1.224647e-16
    outer loop
      vertex -5.054527e+01 2.150001e+00 3.300000e+01
      vertex -3.654527e+01 2.150001e+00 0.000000e+00
      vertex -5.054527e+01 2.150001e+00 1.650000e+01
    endloop
  endfacet
  facet normal -1.000000e+00 -2.539890e-14 3.110468e-30
    outer loop
      vertex -5.054527e+01 2.150001e+00 1.650000e+01
      vertex -5.054527e+01 -2.150000e+00 3.300000e+01
      vertex -5.054527e+01 2.150001e+00 3.300000e+01
    endloop
  endfacet
  facet normal -1.000000e+00 -2.539890e-14 3.110468e-30
    outer loop
      vertex -5.054527e+01 -2.150000e+00 3.300000e+01
      vertex -5.054527e+01 2.150001e+00 1.650000e+01
      vertex -5.054527e+01 -2.150000e+00 1.650000e+01
    endloop
  endfacet
  facet normal 2.531372e-14 -1.000000e+00 4.747207e-17
    outer loop
      vertex -5.054527e+01 -2.150000e+00 3.300000e+01
      vertex -2.754527e+01 -2.150000e+00 0.000000e+00
      vertex -2.754527e+01 -2.150000e+00 3.300000e+01
    endloop
  endfacet
  facet normal 2.531372e-14 -1.000000e+00 4.747207e-17
    outer loop
      vertex -2.754527e+01 -2.150000e+00 0.000000e+00
      vertex -5.054527e+01 -2.150000e+00 3.300000e+01
      vertex -3.654527e+01 -2.150000e+00 0.000000e+00
    endloop
  endfacet
  facet normal 2.531372e-14 -1.000000e+00 4.747207e-17
    outer loop
      vertex -3.654527e+01 -2.150000e+00 0.000000e+00
      vertex -5.054527e+01 -2.150000e+00 3.300000e+01
      vertex -5.054527e+01 -2.150000e+00 1.650000e+01
    endloop
  endfacet
  facet normal 0.000000e+00 1.224647e-16 1.000000e+00
    outer loop
      vertex -5.054527e+01 -2.150000e+00 3.300000e+01
      vertex -2.754527e+01 2.150001e+00 3.300000e+01
      vertex -5.054527e+01 2.150001e+00 3.300000e+01
    endloop
  endfacet
  facet normal 0.000000e+00 1.224647e-16 1.000000e+00
    outer loop
      vertex -2.754527e+01 2.150001e+00 3.300000e+01
      vertex -5.054527e+01 -2.150000e+00 3.300000e+01
      vertex -2.754527e+01 -2.150000e+00 3.300000e+01
    endloop
  endfacet
  facet normal -7.625092e-01 -1.944613e-14 -6.469775e-01
    outer loop
      vertex -3.654527e+01 2.150001e+00 0.000000e+00
      vertex -5.054527e+01 -2.150000e+00 1.650000e+01
      vertex -5.054527e+01 2.150001e+00 1.650000e+01
    endloop
  endfacet
  facet normal -7.625092e-01 -1.944613e-14 -6.469775e-01
    outer loop
      vertex -5.054527e+01 -2.150000e+00 1.650000e+01
      vertex -3.654527e+01 2.150001e+00 0.000000e+00
      vertex -3.654527e+01 -2.150000e+00 0.000000e+00
    endloop
  endfacet
  facet normal -1.000000e+00 -1.836970e-16 2.249640e-32
    outer loop
      vertex 2.754527e+01 2.150001e+00 0.000000e+00
      vertex 2.754527e+01 -2.150000e+00 3.300000e+01
      vertex 2.754527e+01 2.150001e+00 3.300000e+01
    endloop
  endfacet
  facet normal -1.000000e+00 -1.836970e-16 2.249640e-32
    outer loop
      vertex 2.754527e+01 -2.150000e+00 3.300000e+01
      vertex 2.754527e+01 2.150001e+00 0.000000e+00
      vertex 2.754527e+01 -2.150000e+00 0.000000e+00
    endloop
  endfacet
  facet normal 0.000000e+00 -1.224647e-16 -1.000000e+00
    outer loop
      vertex 2.754527e+01 2.150001e+00 0.000000e+00
      vertex 3.654527e+01 -2.150000e+00 0.000000e+00
      vertex 2.754527e+01 -2.150000e+00 0.000000e+00
    endloop
  endfacet
  facet normal 0.000000e+00 -1.224647e-16 -1.000000e+00
    outer loop
      vertex 3.654527e+01 -2.150000e+00 0.000000e+00
      vertex 2.754527e+01 2.150001e+00 0.000000e+00
      vertex 3.654527e+01 2.150001e+00 0.000000e+00
    endloop
  endfacet
  facet normal 1.836970e-16 -1.000000e+00 1.224647e-16
    outer loop
      vertex 3.654527e+01 -2.150000e+00 0.000000e+00
      vertex 2.754527e+01 -2.150000e+00 3.300000e+01
      vertex 2.754527e+01 -2.150000e+00 0.000000e+00
    endloop
  endfacet
  facet normal 1.836970e-16 -1.000000e+00 1.224647e-16
    outer loop
      vertex 2.754527e+01 -2.150000e+00 3.300000e+01
      vertex 3.654527e+01 -2.150000e+00 0.000000e+00
      vertex 5.054527e+01 -2.150000e+00 3.300000e+01
    endloop
  endfacet
  facet normal 1.836970e-16 -1.000000e+00 1.224647e-16
    outer loop
      vertex 5.054527e+01 -2.150000e+00 3.300000e+01
      vertex 3.654527e+01 -2.150000e+00 0.000000e+00
      vertex 5.054527e+01 -2.150000e+00 1.650000e+01
    endloop
  endfacet
  facet normal 1.000000e+00 1.836970e-16 -2.249640e-32
    outer loop
      vertex 5.054527e+01 -2.150000e+00 1.650000e+01
      vertex 5.054527e+01 2.150001e+00 3.300000e+01
      vertex 5.054527e+01 -2.150000e+00 3.300000e+01
    endloop
  endfacet
  facet normal 1.000000e+00 1.836970e-16 -2.249640e-32
    outer loop
      vertex 5.054527e+01 2.150001e+00 3.300000e+01
      vertex 5.054527e+01 -2.150000e+00 1.650000e+01
      vertex 5.054527e+01 2.150001e+00 1.650000e+01
    endloop
  endfacet
  facet normal -9.851521e-17 1.000000e+00 -1.974573e-16
    outer loop
      vertex 5.054527e+01 2.150001e+00 3.300000e+01
      vertex 2.754527e+01 2.150001e+00 0.000000e+00
      vertex 2.754527e+01 2.150001e+00 3.300000e+01
    endloop
  endfacet
  facet normal -9.851521e-17 1.000000e+00 -1.974573e-16
    outer loop
      vertex 2.754527e+01 2.150001e+00 0.000000e+00
      vertex 5.054527e+01 2.150001e+00 3.300000e+01
      vertex 3.654527e+01 2.150001e+00 0.000000e+00
    endloop
  endfacet
  facet normal -9.851521e-17 1.000000e+00 -1.974573e-16
    outer loop
      vertex 3.654527e+01 2.150001e+00 0.000000e+00
      vertex 5.054527e+01 2.150001e+00 3.300000e+01
      vertex 5.054527e+01 2.150001e+00 1.650000e+01
    endloop
  endfacet
  facet normal 0.000000e+00 1.224647e-16 1.000000e+00
    outer loop
      vertex 5.054527e+01 2.150001e+00 3.300000e+01
      vertex 2.754527e+01 -2.150000e+00 3.300000e+01
      vertex 5.054527e+01 -2.150000e+00 3.300000e+01
    endloop
  endfacet
  facet normal 0.000000e+00 1.224647e-16 1.000000e+00
    outer loop
      vertex 2.754527e+01 -2.150000e+00 3.300000e+01
      vertex 5.054527e+01 2.150001e+00 3.300000e+01
      vertex 2.754527e+01 2.150001e+00 3.300000e+01
    endloop
  endfacet
  facet normal 7.625092e-01 6.083878e-17 -6.469775e-01
    outer loop
      vertex 3.654527e+01 -2.150000e+00 0.000000e+00
      vertex 5.054527e+01 2.150001e+00 1.650000e+01
      vertex 5.054527e+01 -2.150000e+00 1.650000e+01
    endloop
  endfacet
  facet normal 7.625092e-01 6.083878e-17 -6.469775e-01
    outer loop
      vertex 5.054527e+01 2.150001e+00 1.650000e+01
      vertex 3.654527e+01 -2.150000e+00 0.000000e+00
      vertex 3.654527e+01 2.150001e+00 0.000000e+00
    endloop
  endfacet
  facet normal 9.899024e-01 1.628580e-16 -1.417508e-01
    outer loop
      vertex 1.743406e+01 2.863704e+00 1.800000e+01
      vertex 1.958201e+01 1.921166e+01 3.300000e+01
      vertex 1.958201e+01 7.157540e-01 3.300000e+01
    endloop
  endfacet
  facet normal 9.899024e-01 1.628580e-16 -1.417508e-01
    outer loop
      vertex 1.958201e+01 1.921166e+01 3.300000e+01
      vertex 1.743406e+01 2.863704e+00 1.800000e+01
      vertex 1.743406e+01 1.706370e+01 1.800000e+01
    endloop
  endfacet
  facet normal -1.843941e-16 9.899024e-01 -1.417508e-01
    outer loop
      vertex 1.958201e+01 1.921166e+01 3.300000e+01
      vertex 3.234058e+00 1.706370e+01 1.800000e+01
      vertex 1.086109e+00 1.921166e+01 3.300000e+01
    endloop
  endfacet
  facet normal -1.843941e-16 9.899024e-01 -1.417508e-01
    outer loop
      vertex 3.234058e+00 1.706370e+01 1.800000e+01
      vertex 1.958201e+01 1.921166e+01 3.300000e+01
      vertex 1.743406e+01 1.706370e+01 1.800000e+01
    endloop
  endfacet
  facet normal -1.000000e+00 -1.836970e-16 2.249640e-32
    outer loop
      vertex 1.557237e+01 1.520201e+01 3.000000e+01
      vertex 1.557237e+01 4.725394e+00 3.300000e+01
      vertex 1.557237e+01 1.520201e+01 3.300000e+01
    endloop
  endfacet
  facet normal -1.000000e+00 -1.836970e-16 2.249640e-32
    outer loop
      vertex 1.557237e+01 4.725394e+00 3.300000e+01
      vertex 1.557237e+01 1.520201e+01 3.000000e+01
      vertex 1.557237e+01 4.725394e+00 3.000000e+01
    endloop
  endfacet
  facet normal 0.000000e+00 1.224647e-16 1.000000e+00
    outer loop
      vertex 1.557237e+01 1.520201e+01 3.000000e+01
      vertex 5.095749e+00 4.725394e+00 3.000000e+01
      vertex 1.557237e+01 4.725394e+00 3.000000e+01
    endloop
  endfacet
  facet normal 0.000000e+00 1.224647e-16 1.000000e+00
    outer loop
      vertex 5.095749e+00 4.725394e+00 3.000000e+01
      vertex 1.557237e+01 1.520201e+01 3.000000e+01
      vertex 5.095749e+00 1.520201e+01 3.000000e+01
    endloop
  endfacet
  facet normal 0.000000e+00 1.224647e-16 1.000000e+00
    outer loop
      vertex 1.958201e+01 7.157540e-01 3.300000e+01
      vertex 1.557237e+01 4.725394e+00 3.300000e+01
      vertex 1.086109e+00 7.157540e-01 3.300000e+01
    endloop
  endfacet
  facet normal 0.000000e+00 1.224647e-16 1.000000e+00
    outer loop
      vertex 1.557237e+01 4.725394e+00 3.300000e+01
      vertex 1.958201e+01 7.157540e-01 3.300000e+01
      vertex 1.958201e+01 1.921166e+01 3.300000e+01
    endloop
  endfacet
  facet normal 0.000000e+00 1.224647e-16 1.000000e+00
    outer loop
      vertex 1.557237e+01 4.725394e+00 3.300000e+01
      vertex 1.958201e+01 1.921166e+01 3.300000e+01
      vertex 1.557237e+01 1.520201e+01 3.300000e+01
    endloop
  endfacet
  facet normal 0.000000e+00 1.224647e-16 1.000000e+00
    outer loop
      vertex 1.557237e+01 1.520201e+01 3.300000e+01
      vertex 1.958201e+01 1.921166e+01 3.300000e+01
      vertex 5.095749e+00 1.520201e+01 3.300000e+01
    endloop
  endfacet
  facet normal 0.000000e+00 1.224647e-16 1.000000e+00
    outer loop
      vertex 1.086109e+00 7.157540e-01 3.300000e+01
      vertex 5.095749e+00 4.725394e+00 3.300000e+01
      vertex 1.086109e+00 1.921166e+01 3.300000e+01
    endloop
  endfacet
  facet normal 0.000000e+00 1.224647e-16 1.000000e+00
    outer loop
      vertex 5.095749e+00 4.725394e+00 3.300000e+01
      vertex 1.086109e+00 7.157540e-01 3.300000e+01
      vertex 1.557237e+01 4.725394e+00 3.300000e+01
    endloop
  endfacet
  facet normal 0.000000e+00 1.224647e-16 1.000000e+00
    outer loop
      vertex 1.086109e+00 1.921166e+01 3.300000e+01
      vertex 5.095749e+00 4.725394e+00 3.300000e+01
      vertex 5.095749e+00 1.520201e+01 3.300000e+01
    endloop
  endfacet
  facet normal 0.000000e+00 1.224647e-16 1.000000e+00
    outer loop
      vertex 1.086109e+00 1.921166e+01 3.300000e+01
      vertex 5.095749e+00 1.520201e+01 3.300000e+01
      vertex 1.958201e+01 1.921166e+01 3.300000e+01
    endloop
  endfacet
  facet normal -4.911323e-17 1.000000e+00 -1.224647e-16
    outer loop
      vertex 1.557237e+01 4.725394e+00 3.300000e+01
      vertex 5.095749e+00 4.725394e+00 3.000000e+01
      vertex 5.095749e+00 4.725394e+00 3.300000e+01
    endloop
  endfacet
  facet normal -4.911323e-17 1.000000e+00 -1.224647e-16
    outer loop
      vertex 5.095749e+00 4.725394e+00 3.000000e+01
      vertex 1.557237e+01 4.725394e+00 3.300000e+01
      vertex 1.557237e+01 4.725394e+00 3.000000e+01
    endloop
  endfacet
  facet normal 1.836970e-16 -1.000000e+00 1.224647e-16
    outer loop
      vertex 1.557237e+01 1.520201e+01 3.000000e+01
      vertex 5.095749e+00 1.520201e+01 3.300000e+01
      vertex 5.095749e+00 1.520201e+01 3.000000e+01
    endloop
  endfacet
  facet normal 1.836970e-16 -1.000000e+00 1.224647e-16
    outer loop
      vertex 5.095749e+00 1.520201e+01 3.300000e+01
      vertex 1.557237e+01 1.520201e+01 3.000000e+01
      vertex 1.557237e+01 1.520201e+01 3.300000e+01
    endloop
  endfacet
  facet normal 1.792901e-16 -9.899024e-01 -1.417508e-01
    outer loop
      vertex 3.234058e+00 2.863704e+00 1.800000e+01
      vertex 1.958201e+01 7.157540e-01 3.300000e+01
      vertex 1.086109e+00 7.157540e-01 3.300000e+01
    endloop
  endfacet
  facet normal 1.792901e-16 -9.899024e-01 -1.417508e-01
    outer loop
      vertex 1.958201e+01 7.157540e-01 3.300000e+01
      vertex 3.234058e+00 2.863704e+00 1.800000e+01
      vertex 1.743406e+01 2.863704e+00 1.800000e+01
    endloop
  endfacet
  facet normal -9.899024e-01 -2.014195e-16 -1.417508e-01
    outer loop
      vertex 3.234058e+00 1.706370e+01 1.800000e+01
      vertex 1.086109e+00 7.157540e-01 3.300000e+01
      vertex 1.086109e+00 1.921166e+01 3.300000e+01
    endloop
  endfacet
  facet normal -9.899024e-01 -2.014195e-16 -1.417508e-01
    outer loop
      vertex 1.086109e+00 7.157540e-01 3.300000e+01
      vertex 3.234058e+00 1.706370e+01 1.800000e+01
      vertex 3.234058e+00 2.863704e+00 1.800000e+01
    endloop
  endfacet
  facet normal 1.000000e+00 1.836970e-16 -2.249640e-32
    outer loop
      vertex 5.095749e+00 4.725394e+00 3.000000e+01
      vertex 5.095749e+00 1.520201e+01 3.300000e+01
      vertex 5.095749e+00 4.725394e+00 3.300000e+01
    endloop
  endfacet
  facet normal 1.000000e+00 1.836970e-16 -2.249640e-32
    outer loop
      vertex 5.095749e+00 1.520201e+01 3.300000e+01
      vertex 5.095749e+00 4.725394e+00 3.000000e+01
      vertex 5.095749e+00 1.520201e+01 3.000000e+01
    endloop
  endfacet
  facet normal 0.000000e+00 -1.224647e-16 -1.000000e+00
    outer loop
      vertex 3.234058e+00 1.706370e+01 1.800000e+01
      vertex 1.743406e+01 2.863704e+00 1.800000e+01
      vertex 3.234058e+00 2.863704e+00 1.800000e+01
    endloop
  endfacet
  facet normal 0.000000e+00 -1.224647e-16 -1.000000e+00
    outer loop
      vertex 1.743406e+01 2.863704e+00 1.800000e+01
      vertex 3.234058e+00 1.706370e+01 1.800000e+01
      vertex 1.743406e+01 1.706370e+01 1.800000e+01
    endloop
  endfacet
endsolid Default
