solid Default
  facet normal 2.628304e-01 -9.642729e-01 3.313637e-02
    outer loop
      vertex 1.243535e+01 -1.157952e+01 0.000000e+00
      vertex 1.074032e+01 -1.124259e+01 2.324931e+01
      vertex -5.677342e-07 -1.417006e+01 2.324931e+01
    endloop
  endfacet
  facet normal 2.001239e-01 -9.797683e-01 -2.129995e-03
    outer loop
      vertex -5.677342e-07 -1.417006e+01 2.324931e+01
      vertex -5.677342e-07 -1.411952e+01 0.000000e+00
      vertex 1.243535e+01 -1.157952e+01 0.000000e+00
    endloop
  endfacet
  facet normal 9.435420e-01 3.304573e-01 2.294500e-02
    outer loop
      vertex 1.836241e+01 8.529863e+00 3.473428e+01
      vertex 1.798648e+01 8.805783e+00 4.621925e+01
      vertex 2.079764e+01 7.791826e-01 4.621925e+01
    endloop
  endfacet
  facet normal 9.372117e-01 3.469575e-01 3.542254e-02
    outer loop
      vertex 2.079764e+01 7.791826e-01 4.621925e+01
      vertex 2.123172e+01 7.791826e-01 3.473428e+01
      vertex 1.836241e+01 8.529863e+00 3.473428e+01
    endloop
  endfacet
  facet normal 1.406843e-01 -9.900239e-01 7.787525e-03
    outer loop
      vertex 1.836240e+01 -9.929262e+00 3.473428e+01
      vertex 1.747779e+01 -9.964627e+00 4.621925e+01
      vertex 1.030624e+01 -1.098372e+01 4.621925e+01
    endloop
  endfacet
  facet normal 1.187302e-01 -9.928953e-01 -7.875901e-03
    outer loop
      vertex 1.030624e+01 -1.098372e+01 4.621925e+01
      vertex 1.052328e+01 -1.086666e+01 3.473428e+01
      vertex 1.836240e+01 -9.929262e+00 3.473428e+01
    endloop
  endfacet
  facet normal 1.356945e-01 -9.899654e-01 -3.944052e-02
    outer loop
      vertex 2.005535e+01 -9.039519e+00 0.000000e+00
      vertex 1.873833e+01 -1.014630e+01 2.324931e+01
      vertex 1.074032e+01 -1.124259e+01 2.324931e+01
    endloop
  endfacet
  facet normal 3.160138e-01 -9.480415e-01 3.677858e-02
    outer loop
      vertex 1.074032e+01 -1.124259e+01 2.324931e+01
      vertex 1.243535e+01 -1.157952e+01 0.000000e+00
      vertex 2.005535e+01 -9.039519e+00 0.000000e+00
    endloop
  endfacet
  facet normal 3.769259e-01 9.239079e-01 -6.573346e-02
    outer loop
      vertex 1.052328e+01 1.103342e+01 3.473428e+01
      vertex 1.030624e+01 1.193908e+01 4.621925e+01
      vertex 1.798648e+01 8.805783e+00 4.621925e+01
    endloop
  endfacet
  facet normal 3.042026e-01 9.525197e-01 -1.292656e-02
    outer loop
      vertex 1.798648e+01 8.805783e+00 4.621925e+01
      vertex 1.836241e+01 8.529863e+00 3.473428e+01
      vertex 1.052328e+01 1.103342e+01 3.473428e+01
    endloop
  endfacet
  facet normal 3.157220e-01 9.484354e-01 2.810805e-02
    outer loop
      vertex 1.243535e+01 8.740481e+00 0.000000e+00
      vertex 1.074032e+01 8.615715e+00 2.324931e+01
      vertex 1.873833e+01 5.953279e+00 2.324931e+01
    endloop
  endfacet
  facet normal 3.161039e-01 9.483117e-01 2.798969e-02
    outer loop
      vertex 1.873833e+01 5.953279e+00 2.324931e+01
      vertex 2.005535e+01 6.200481e+00 0.000000e+00
      vertex 1.243535e+01 8.740481e+00 0.000000e+00
    endloop
  endfacet
  facet normal 9.548044e-01 -2.950359e-01 3.608746e-02
    outer loop
      vertex 2.123172e+01 7.791826e-01 3.473428e+01
      vertex 2.079764e+01 7.791826e-01 4.621925e+01
      vertex 1.747779e+01 -9.964627e+00 4.621925e+01
    endloop
  endfacet
  facet normal 9.633200e-01 -2.581210e-01 7.340352e-02
    outer loop
      vertex 1.747779e+01 -9.964627e+00 4.621925e+01
      vertex 1.836240e+01 -9.929262e+00 3.473428e+01
      vertex 2.123172e+01 7.791826e-01 3.473428e+01
    endloop
  endfacet
  facet normal 9.653407e-01 -2.586624e-01 3.479897e-02
    outer loop
      vertex 2.259535e+01 1.120481e+00 0.000000e+00
      vertex 2.166580e+01 7.791827e-01 2.324931e+01
      vertex 1.873833e+01 -1.014630e+01 2.324931e+01
    endloop
  endfacet
  facet normal 9.692296e-01 -2.423075e-01 4.336987e-02
    outer loop
      vertex 1.873833e+01 -1.014630e+01 2.324931e+01
      vertex 2.005535e+01 -9.039519e+00 0.000000e+00
      vertex 2.259535e+01 1.120481e+00 0.000000e+00
    endloop
  endfacet
  facet normal 2.110205e-01 9.748310e-01 -7.193618e-02
    outer loop
      vertex -5.677342e-07 1.332255e+01 3.473428e+01
      vertex -5.677342e-07 1.417006e+01 4.621925e+01
      vertex 1.030624e+01 1.193908e+01 4.621925e+01
    endloop
  endfacet
  facet normal 2.119946e-01 9.745522e-01 -7.284395e-02
    outer loop
      vertex 1.030624e+01 1.193908e+01 4.621925e+01
      vertex 1.052328e+01 1.103342e+01 3.473428e+01
      vertex -5.677342e-07 1.332255e+01 3.473428e+01
    endloop
  endfacet
  facet normal 2.000849e-01 9.795776e-01 1.984444e-02
    outer loop
      vertex 1.074032e+01 8.615715e+00 2.324931e+01
      vertex 1.243535e+01 8.740481e+00 0.000000e+00
      vertex -5.677342e-07 1.128048e+01 0.000000e+00
    endloop
  endfacet
  facet normal 2.134908e-01 9.768540e-01 1.333927e-02
    outer loop
      vertex -5.677342e-07 1.128048e+01 0.000000e+00
      vertex -5.677342e-07 1.096300e+01 2.324931e+01
      vertex 1.074032e+01 8.615715e+00 2.324931e+01
    endloop
  endfacet
  facet normal 2.045649e-01 -9.788339e-01 -6.110496e-03
    outer loop
      vertex 1.052328e+01 -1.086666e+01 3.473428e+01
      vertex 1.030624e+01 -1.098372e+01 4.621925e+01
      vertex -5.677342e-07 -1.313760e+01 4.621925e+01
    endloop
  endfacet
  facet normal 2.627289e-01 -9.635628e-01 5.020270e-02
    outer loop
      vertex -5.677342e-07 -1.313760e+01 4.621925e+01
      vertex -5.677342e-07 -1.373598e+01 3.473428e+01
      vertex 1.052328e+01 -1.086666e+01 3.473428e+01
    endloop
  endfacet
  facet normal 8.690562e-01 4.917068e-01 5.445829e-02
    outer loop
      vertex 2.005535e+01 6.200481e+00 0.000000e+00
      vertex 1.873833e+01 5.953279e+00 2.324931e+01
      vertex 2.166580e+01 7.791827e-01 2.324931e+01
    endloop
  endfacet
  facet normal 8.936270e-01 4.468136e-01 4.228806e-02
    outer loop
      vertex 2.166580e+01 7.791827e-01 2.324931e+01
      vertex 2.259535e+01 1.120481e+00 0.000000e+00
      vertex 2.005535e+01 6.200481e+00 0.000000e+00
    endloop
  endfacet
  facet normal 9.367577e-01 3.467895e-01 -4.713818e-02
    outer loop
      vertex 1.873833e+01 5.953279e+00 2.324931e+01
      vertex 1.836241e+01 8.529863e+00 3.473428e+01
      vertex 2.123172e+01 7.791826e-01 3.473428e+01
    endloop
  endfacet
  facet normal 8.698773e-01 4.921713e-01 3.287759e-02
    outer loop
      vertex 2.123172e+01 7.791826e-01 3.473428e+01
      vertex 2.166580e+01 7.791827e-01 2.324931e+01
      vertex 1.873833e+01 5.953279e+00 2.324931e+01
    endloop
  endfacet
  facet normal 9.652827e-01 -2.586469e-01 3.648350e-02
    outer loop
      vertex 2.166580e+01 7.791827e-01 2.324931e+01
      vertex 2.123172e+01 7.791826e-01 3.473428e+01
      vertex 1.836240e+01 -9.929262e+00 3.473428e+01
    endloop
  endfacet
  facet normal 9.652827e-01 -2.586469e-01 3.648353e-02
    outer loop
      vertex 1.836240e+01 -9.929262e+00 3.473428e+01
      vertex 1.873833e+01 -1.014630e+01 2.324931e+01
      vertex 2.166580e+01 7.791827e-01 2.324931e+01
    endloop
  endfacet
  facet normal 2.986159e-01 9.350268e-01 -1.911893e-01
    outer loop
      vertex 1.074032e+01 8.615715e+00 2.324931e+01
      vertex 1.052328e+01 1.103342e+01 3.473428e+01
      vertex 1.836241e+01 8.529863e+00 3.473428e+01
    endloop
  endfacet
  facet normal 3.095622e-01 9.299313e-01 -1.984919e-01
    outer loop
      vertex 1.836241e+01 8.529863e+00 3.473428e+01
      vertex 1.873833e+01 5.953279e+00 2.324931e+01
      vertex 1.074032e+01 8.615715e+00 2.324931e+01
    endloop
  endfacet
  facet normal 2.084014e-01 9.580340e-01 -1.968244e-01
    outer loop
      vertex -5.677342e-07 1.096300e+01 2.324931e+01
      vertex -5.677342e-07 1.332255e+01 3.473428e+01
      vertex 1.052328e+01 1.103342e+01 3.473428e+01
    endloop
  endfacet
  facet normal 2.092981e-01 9.576697e-01 -1.976437e-01
    outer loop
      vertex 1.052328e+01 1.103342e+01 3.473428e+01
      vertex 1.074032e+01 8.615715e+00 2.324931e+01
      vertex -5.677342e-07 1.096300e+01 2.324931e+01
    endloop
  endfacet
  facet normal 1.187034e-01 -9.926715e-01 2.264474e-02
    outer loop
      vertex 1.873833e+01 -1.014630e+01 2.324931e+01
      vertex 1.836240e+01 -9.929262e+00 3.473428e+01
      vertex 1.052328e+01 -1.086666e+01 3.473428e+01
    endloop
  endfacet
  facet normal 1.357171e-01 -9.901301e-01 3.497380e-02
    outer loop
      vertex 1.052328e+01 -1.086666e+01 3.473428e+01
      vertex 1.074032e+01 -1.124259e+01 2.324931e+01
      vertex 1.873833e+01 -1.014630e+01 2.324931e+01
    endloop
  endfacet
  facet normal 2.628851e-01 -9.641355e-01 3.652615e-02
    outer loop
      vertex 1.074032e+01 -1.124259e+01 2.324931e+01
      vertex 1.052328e+01 -1.086666e+01 3.473428e+01
      vertex -5.677342e-07 -1.373598e+01 3.473428e+01
    endloop
  endfacet
  facet normal 2.628001e-01 -9.641619e-01 3.644101e-02
    outer loop
      vertex -5.677342e-07 -1.373598e+01 3.473428e+01
      vertex -5.677342e-07 -1.417006e+01 2.324931e+01
      vertex 1.074032e+01 -1.124259e+01 2.324931e+01
    endloop
  endfacet
  facet normal 9.479211e-01 3.159738e-01 4.007746e-02
    outer loop
      vertex 1.798648e+01 8.805783e+00 4.621925e+01
      vertex 1.751535e+01 8.740481e+00 5.787726e+01
      vertex 2.005535e+01 1.120481e+00 5.787726e+01
    endloop
  endfacet
  facet normal 9.425934e-01 3.301250e-01 5.035188e-02
    outer loop
      vertex 2.005535e+01 1.120481e+00 5.787726e+01
      vertex 2.079764e+01 7.791826e-01 4.621925e+01
      vertex 1.798648e+01 8.805783e+00 4.621925e+01
    endloop
  endfacet
  facet normal 3.153594e-01 -9.460781e-01 7.405874e-02
    outer loop
      vertex 1.747779e+01 -9.964627e+00 4.621925e+01
      vertex 1.751535e+01 -9.039519e+00 5.787726e+01
      vertex 9.895354e+00 -1.157952e+01 5.787726e+01
    endloop
  endfacet
  facet normal 1.405423e-01 -9.890244e-01 -4.559225e-02
    outer loop
      vertex 9.895354e+00 -1.157952e+01 5.787726e+01
      vertex 1.030624e+01 -1.098372e+01 4.621925e+01
      vertex 1.747779e+01 -9.964627e+00 4.621925e+01
    endloop
  endfacet
  facet normal 3.155672e-01 9.467015e-01 6.460469e-02
    outer loop
      vertex 1.030624e+01 1.193908e+01 4.621925e+01
      vertex 9.895354e+00 1.128048e+01 5.787726e+01
      vertex 1.751535e+01 8.740481e+00 5.787726e+01
    endloop
  endfacet
  facet normal 3.776639e-01 9.257169e-01 2.044756e-02
    outer loop
      vertex 1.751535e+01 8.740481e+00 5.787726e+01
      vertex 1.798648e+01 8.805783e+00 4.621925e+01
      vertex 1.030624e+01 1.193908e+01 4.621925e+01
    endloop
  endfacet
  facet normal 9.678498e-01 -2.419625e-01 6.870838e-02
    outer loop
      vertex 2.079764e+01 7.791826e-01 4.621925e+01
      vertex 2.005535e+01 1.120481e+00 5.787726e+01
      vertex 1.751535e+01 -9.039519e+00 5.787726e+01
    endloop
  endfacet
  facet normal 9.552290e-01 -2.951671e-01 2.034459e-02
    outer loop
      vertex 1.751535e+01 -9.039519e+00 5.787726e+01
      vertex 1.747779e+01 -9.964627e+00 4.621925e+01
      vertex 2.079764e+01 7.791826e-01 4.621925e+01
    endloop
  endfacet
  facet normal 2.485211e-01 9.681913e-01 2.903266e-02
    outer loop
      vertex -5.677342e-07 1.417006e+01 4.621925e+01
      vertex -5.677342e-07 1.382048e+01 5.787726e+01
      vertex 9.895354e+00 1.128048e+01 5.787726e+01
    endloop
  endfacet
  facet normal 2.111543e-01 9.754494e-01 6.254876e-02
    outer loop
      vertex 9.895354e+00 1.128048e+01 5.787726e+01
      vertex 1.030624e+01 1.193908e+01 4.621925e+01
      vertex -5.677342e-07 1.417006e+01 4.621925e+01
    endloop
  endfacet
  facet normal 2.484200e-01 -9.677967e-01 -4.070524e-02
    outer loop
      vertex 1.030624e+01 -1.098372e+01 4.621925e+01
      vertex 9.895354e+00 -1.157952e+01 5.787726e+01
      vertex -5.677342e-07 -1.411952e+01 5.787726e+01
    endloop
  endfacet
  facet normal 2.038770e-01 -9.755423e-01 -8.216681e-02
    outer loop
      vertex -5.677342e-07 -1.411952e+01 5.787726e+01
      vertex -5.677342e-07 -1.313760e+01 4.621925e+01
      vertex 1.030624e+01 -1.098372e+01 4.621925e+01
    endloop
  endfacet
  facet normal 0.000000e+00 1.000000e+00 0.000000e+00
    outer loop
      vertex -5.677342e-07 8.740481e+00 0.000000e+00
      vertex -5.677342e-07 8.740481e+00 5.787726e+01
      vertex 4.815354e+00 8.740481e+00 5.787726e+01
    endloop
  endfacet
  facet normal 0.000000e+00 1.000000e+00 0.000000e+00
    outer loop
      vertex 4.815354e+00 8.740481e+00 5.787726e+01
      vertex 4.815354e+00 8.740481e+00 0.000000e+00
      vertex -5.677342e-07 8.740481e+00 0.000000e+00
    endloop
  endfacet
  facet normal 7.071067e-01 7.071068e-01 0.000000e+00
    outer loop
      vertex 4.815354e+00 8.740481e+00 0.000000e+00
      vertex 4.815354e+00 8.740481e+00 5.787726e+01
      vertex 7.355354e+00 6.200481e+00 5.787726e+01
    endloop
  endfacet
  facet normal 7.071067e-01 7.071068e-01 0.000000e+00
    outer loop
      vertex 7.355354e+00 6.200481e+00 5.787726e+01
      vertex 7.355354e+00 6.200481e+00 0.000000e+00
      vertex 4.815354e+00 8.740481e+00 0.000000e+00
    endloop
  endfacet
  facet normal 8.944272e-01 4.472136e-01 0.000000e+00
    outer loop
      vertex 7.355354e+00 6.200481e+00 0.000000e+00
      vertex 7.355354e+00 6.200481e+00 5.787726e+01
      vertex 9.895354e+00 1.120481e+00 5.787726e+01
    endloop
  endfacet
  facet normal 8.944272e-01 4.472136e-01 0.000000e+00
    outer loop
      vertex 9.895354e+00 1.120481e+00 5.787726e+01
      vertex 9.895354e+00 1.120481e+00 0.000000e+00
      vertex 7.355354e+00 6.200481e+00 0.000000e+00
    endloop
  endfacet
  facet normal 8.944272e-01 -4.472136e-01 0.000000e+00
    outer loop
      vertex 9.895354e+00 1.120481e+00 0.000000e+00
      vertex 9.895354e+00 1.120481e+00 5.787726e+01
      vertex 7.355354e+00 -3.959519e+00 5.787726e+01
    endloop
  endfacet
  facet normal 8.944272e-01 -4.472136e-01 0.000000e+00
    outer loop
      vertex 7.355354e+00 -3.959519e+00 5.787726e+01
      vertex 7.355354e+00 -3.959519e+00 0.000000e+00
      vertex 9.895354e+00 1.120481e+00 0.000000e+00
    endloop
  endfacet
  facet normal 7.071067e-01 -7.071068e-01 0.000000e+00
    outer loop
      vertex 7.355354e+00 -3.959519e+00 0.000000e+00
      vertex 7.355354e+00 -3.959519e+00 5.787726e+01
      vertex 4.815354e+00 -6.499519e+00 5.787726e+01
    endloop
  endfacet
  facet normal 7.071067e-01 -7.071068e-01 0.000000e+00
    outer loop
      vertex 4.815354e+00 -6.499519e+00 5.787726e+01
      vertex 4.815354e+00 -6.499519e+00 0.000000e+00
      vertex 7.355354e+00 -3.959519e+00 0.000000e+00
    endloop
  endfacet
  facet normal 4.665522e-01 -8.844937e-01 0.000000e+00
    outer loop
      vertex 4.815354e+00 -6.499519e+00 0.000000e+00
      vertex 4.815354e+00 -6.499519e+00 5.787726e+01
      vertex -5.677342e-07 -9.039519e+00 5.787726e+01
    endloop
  endfacet
  facet normal 4.665522e-01 -8.844937e-01 0.000000e+00
    outer loop
      vertex -5.677342e-07 -9.039519e+00 5.787726e+01
      vertex -5.677342e-07 -9.039519e+00 0.000000e+00
      vertex 4.815354e+00 -6.499519e+00 0.000000e+00
    endloop
  endfacet
  facet normal 0.000000e+00 0.000000e+00 -1.000000e+00
    outer loop
      vertex 9.895354e+00 1.120481e+00 5.787726e+01
      vertex 2.005535e+01 1.120481e+00 5.787726e+01
      vertex 1.751535e+01 -9.039519e+00 5.787726e+01
    endloop
  endfacet
  facet normal 0.000000e+00 0.000000e+00 -1.000000e+00
    outer loop
      vertex 1.751535e+01 -9.039519e+00 5.787726e+01
      vertex 7.355354e+00 -3.959519e+00 5.787726e+01
      vertex 9.895354e+00 1.120481e+00 5.787726e+01
    endloop
  endfacet
  facet normal 0.000000e+00 0.000000e+00 -1.000000e+00
    outer loop
      vertex 4.815354e+00 -6.499519e+00 5.787726e+01
      vertex 9.895354e+00 -1.157952e+01 5.787726e+01
      vertex -5.677342e-07 -1.411952e+01 5.787726e+01
    endloop
  endfacet
  facet normal 0.000000e+00 0.000000e+00 -1.000000e+00
    outer loop
      vertex -5.677342e-07 -1.411952e+01 5.787726e+01
      vertex -5.677342e-07 -9.039519e+00 5.787726e+01
      vertex 4.815354e+00 -6.499519e+00 5.787726e+01
    endloop
  endfacet
  facet normal 0.000000e+00 0.000000e+00 -1.000000e+00
    outer loop
      vertex 7.355354e+00 -3.959519e+00 5.787726e+01
      vertex 1.751535e+01 -9.039519e+00 5.787726e+01
      vertex 9.895354e+00 -1.157952e+01 5.787726e+01
    endloop
  endfacet
  facet normal 0.000000e+00 0.000000e+00 -1.000000e+00
    outer loop
      vertex 9.895354e+00 -1.157952e+01 5.787726e+01
      vertex 4.815354e+00 -6.499519e+00 5.787726e+01
      vertex 7.355354e+00 -3.959519e+00 5.787726e+01
    endloop
  endfacet
  facet normal 0.000000e+00 0.000000e+00 -1.000000e+00
    outer loop
      vertex 4.815354e+00 8.740481e+00 5.787726e+01
      vertex 9.895354e+00 1.128048e+01 5.787726e+01
      vertex 1.751535e+01 8.740481e+00 5.787726e+01
    endloop
  endfacet
  facet normal 0.000000e+00 0.000000e+00 -1.000000e+00
    outer loop
      vertex 1.751535e+01 8.740481e+00 5.787726e+01
      vertex 7.355354e+00 6.200481e+00 5.787726e+01
      vertex 4.815354e+00 8.740481e+00 5.787726e+01
    endloop
  endfacet
  facet normal 0.000000e+00 0.000000e+00 -1.000000e+00
    outer loop
      vertex 7.355354e+00 6.200481e+00 5.787726e+01
      vertex 1.751535e+01 8.740481e+00 5.787726e+01
      vertex 2.005535e+01 1.120481e+00 5.787726e+01
    endloop
  endfacet
  facet normal 0.000000e+00 0.000000e+00 -1.000000e+00
    outer loop
      vertex 2.005535e+01 1.120481e+00 5.787726e+01
      vertex 9.895354e+00 1.120481e+00 5.787726e+01
      vertex 7.355354e+00 6.200481e+00 5.787726e+01
    endloop
  endfacet
  facet normal 0.000000e+00 0.000000e+00 -1.000000e+00
    outer loop
      vertex -5.677342e-07 8.740481e+00 5.787726e+01
      vertex -5.677342e-07 1.382048e+01 5.787726e+01
      vertex 9.895354e+00 1.128048e+01 5.787726e+01
    endloop
  endfacet
  facet normal 0.000000e+00 0.000000e+00 -1.000000e+00
    outer loop
      vertex 9.895354e+00 1.128048e+01 5.787726e+01
      vertex 4.815354e+00 8.740481e+00 5.787726e+01
      vertex -5.677342e-07 8.740481e+00 5.787726e+01
    endloop
  endfacet
  facet normal NaN NaN NaN
    outer loop
      vertex 1.243535e+01 8.740481e+00 0.000000e+00
      vertex 4.815354e+00 8.740481e+00 0.000000e+00
      vertex -5.677342e-07 8.740481e+00 0.000000e+00
    endloop
  endfacet
  facet normal 0.000000e+00 0.000000e+00 -1.000000e+00
    outer loop
      vertex -5.677342e-07 8.740481e+00 0.000000e+00
      vertex -5.677342e-07 1.128048e+01 0.000000e+00
      vertex 1.243535e+01 8.740481e+00 0.000000e+00
    endloop
  endfacet
  facet normal 0.000000e+00 0.000000e+00 -1.000000e+00
    outer loop
      vertex 7.355354e+00 -3.959519e+00 0.000000e+00
      vertex 2.005535e+01 -9.039519e+00 0.000000e+00
      vertex 1.243535e+01 -1.157952e+01 0.000000e+00
    endloop
  endfacet
  facet normal 0.000000e+00 0.000000e+00 -1.000000e+00
    outer loop
      vertex 1.243535e+01 -1.157952e+01 0.000000e+00
      vertex 4.815354e+00 -6.499519e+00 0.000000e+00
      vertex 7.355354e+00 -3.959519e+00 0.000000e+00
    endloop
  endfacet
  facet normal 0.000000e+00 0.000000e+00 -1.000000e+00
    outer loop
      vertex 7.355354e+00 6.200481e+00 0.000000e+00
      vertex 2.005535e+01 6.200481e+00 0.000000e+00
      vertex 2.259535e+01 1.120481e+00 0.000000e+00
    endloop
  endfacet
  facet normal 0.000000e+00 0.000000e+00 -1.000000e+00
    outer loop
      vertex 2.259535e+01 1.120481e+00 0.000000e+00
      vertex 9.895354e+00 1.120481e+00 0.000000e+00
      vertex 7.355354e+00 6.200481e+00 0.000000e+00
    endloop
  endfacet
  facet normal 0.000000e+00 0.000000e+00 -1.000000e+00
    outer loop
      vertex 4.815354e+00 8.740481e+00 0.000000e+00
      vertex 1.243535e+01 8.740481e+00 0.000000e+00
      vertex 2.005535e+01 6.200481e+00 0.000000e+00
    endloop
  endfacet
  facet normal 0.000000e+00 0.000000e+00 -1.000000e+00
    outer loop
      vertex 2.005535e+01 6.200481e+00 0.000000e+00
      vertex 7.355354e+00 6.200481e+00 0.000000e+00
      vertex 4.815354e+00 8.740481e+00 0.000000e+00
    endloop
  endfacet
  facet normal 0.000000e+00 0.000000e+00 -1.000000e+00
    outer loop
      vertex 4.815354e+00 -6.499519e+00 0.000000e+00
      vertex 1.243535e+01 -1.157952e+01 0.000000e+00
      vertex -5.677342e-07 -1.411952e+01 0.000000e+00
    endloop
  endfacet
  facet normal 0.000000e+00 0.000000e+00 -1.000000e+00
    outer loop
      vertex -5.677342e-07 -1.411952e+01 0.000000e+00
      vertex -5.677342e-07 -9.039519e+00 0.000000e+00
      vertex 4.815354e+00 -6.499519e+00 0.000000e+00
    endloop
  endfacet
  facet normal 0.000000e+00 0.000000e+00 -1.000000e+00
    outer loop
      vertex 9.895354e+00 1.120481e+00 0.000000e+00
      vertex 2.259535e+01 1.120481e+00 0.000000e+00
      vertex 2.005535e+01 -9.039519e+00 0.000000e+00
    endloop
  endfacet
  facet normal 0.000000e+00 0.000000e+00 -1.000000e+00
    outer loop
      vertex 2.005535e+01 -9.039519e+00 0.000000e+00
      vertex 7.355354e+00 -3.959519e+00 0.000000e+00
      vertex 9.895354e+00 1.120481e+00 0.000000e+00
    endloop
  endfacet
  facet normal -2.001239e-01 -9.797683e-01 -2.129995e-03
    outer loop
      vertex -1.243536e+01 -1.157952e+01 0.000000e+00
      vertex -5.677342e-07 -1.411952e+01 0.000000e+00
      vertex -5.677342e-07 -1.417006e+01 2.324931e+01
    endloop
  endfacet
  facet normal -2.628304e-01 -9.642729e-01 3.313637e-02
    outer loop
      vertex -5.677342e-07 -1.417006e+01 2.324931e+01
      vertex -1.074032e+01 -1.124259e+01 2.324931e+01
      vertex -1.243536e+01 -1.157952e+01 0.000000e+00
    endloop
  endfacet
  facet normal -9.372117e-01 3.469575e-01 3.542254e-02
    outer loop
      vertex -1.836241e+01 8.529863e+00 3.473428e+01
      vertex -2.123172e+01 7.791826e-01 3.473428e+01
      vertex -2.079764e+01 7.791826e-01 4.621925e+01
    endloop
  endfacet
  facet normal -9.435420e-01 3.304573e-01 2.294500e-02
    outer loop
      vertex -2.079764e+01 7.791826e-01 4.621925e+01
      vertex -1.798648e+01 8.805783e+00 4.621925e+01
      vertex -1.836241e+01 8.529863e+00 3.473428e+01
    endloop
  endfacet
  facet normal -1.187302e-01 -9.928953e-01 -7.875900e-03
    outer loop
      vertex -1.836240e+01 -9.929262e+00 3.473428e+01
      vertex -1.052328e+01 -1.086666e+01 3.473428e+01
      vertex -1.030624e+01 -1.098372e+01 4.621925e+01
    endloop
  endfacet
  facet normal -1.406844e-01 -9.900239e-01 7.787527e-03
    outer loop
      vertex -1.030624e+01 -1.098372e+01 4.621925e+01
      vertex -1.747779e+01 -9.964627e+00 4.621925e+01
      vertex -1.836240e+01 -9.929262e+00 3.473428e+01
    endloop
  endfacet
  facet normal -3.160139e-01 -9.480415e-01 3.677859e-02
    outer loop
      vertex -2.005535e+01 -9.039519e+00 0.000000e+00
      vertex -1.243536e+01 -1.157952e+01 0.000000e+00
      vertex -1.074032e+01 -1.124259e+01 2.324931e+01
    endloop
  endfacet
  facet normal -1.356945e-01 -9.899654e-01 -3.944052e-02
    outer loop
      vertex -1.074032e+01 -1.124259e+01 2.324931e+01
      vertex -1.873833e+01 -1.014630e+01 2.324931e+01
      vertex -2.005535e+01 -9.039519e+00 0.000000e+00
    endloop
  endfacet
  facet normal -3.042026e-01 9.525196e-01 -1.292655e-02
    outer loop
      vertex -1.052328e+01 1.103342e+01 3.473428e+01
      vertex -1.836241e+01 8.529863e+00 3.473428e+01
      vertex -1.798648e+01 8.805783e+00 4.621925e+01
    endloop
  endfacet
  facet normal -3.769260e-01 9.239079e-01 -6.573345e-02
    outer loop
      vertex -1.798648e+01 8.805783e+00 4.621925e+01
      vertex -1.030624e+01 1.193908e+01 4.621925e+01
      vertex -1.052328e+01 1.103342e+01 3.473428e+01
    endloop
  endfacet
  facet normal -3.161039e-01 9.483116e-01 2.798969e-02
    outer loop
      vertex -1.243536e+01 8.740481e+00 0.000000e+00
      vertex -2.005535e+01 6.200481e+00 0.000000e+00
      vertex -1.873833e+01 5.953279e+00 2.324931e+01
    endloop
  endfacet
  facet normal -3.157220e-01 9.484354e-01 2.810806e-02
    outer loop
      vertex -1.873833e+01 5.953279e+00 2.324931e+01
      vertex -1.074032e+01 8.615715e+00 2.324931e+01
      vertex -1.243536e+01 8.740481e+00 0.000000e+00
    endloop
  endfacet
  facet normal -9.633200e-01 -2.581210e-01 7.340352e-02
    outer loop
      vertex -2.123172e+01 7.791826e-01 3.473428e+01
      vertex -1.836240e+01 -9.929262e+00 3.473428e+01
      vertex -1.747779e+01 -9.964627e+00 4.621925e+01
    endloop
  endfacet
  facet normal -9.548044e-01 -2.950359e-01 3.608746e-02
    outer loop
      vertex -1.747779e+01 -9.964627e+00 4.621925e+01
      vertex -2.079764e+01 7.791826e-01 4.621925e+01
      vertex -2.123172e+01 7.791826e-01 3.473428e+01
    endloop
  endfacet
  facet normal -9.692296e-01 -2.423075e-01 4.336987e-02
    outer loop
      vertex -2.259535e+01 1.120481e+00 0.000000e+00
      vertex -2.005535e+01 -9.039519e+00 0.000000e+00
      vertex -1.873833e+01 -1.014630e+01 2.324931e+01
    endloop
  endfacet
  facet normal -9.653407e-01 -2.586624e-01 3.479897e-02
    outer loop
      vertex -1.873833e+01 -1.014630e+01 2.324931e+01
      vertex -2.166580e+01 7.791827e-01 2.324931e+01
      vertex -2.259535e+01 1.120481e+00 0.000000e+00
    endloop
  endfacet
  facet normal -2.119946e-01 9.745522e-01 -7.284395e-02
    outer loop
      vertex -5.677342e-07 1.332255e+01 3.473428e+01
      vertex -1.052328e+01 1.103342e+01 3.473428e+01
      vertex -1.030624e+01 1.193908e+01 4.621925e+01
    endloop
  endfacet
  facet normal -2.110204e-01 9.748310e-01 -7.193618e-02
    outer loop
      vertex -1.030624e+01 1.193908e+01 4.621925e+01
      vertex -5.677342e-07 1.417006e+01 4.621925e+01
      vertex -5.677342e-07 1.332255e+01 3.473428e+01
    endloop
  endfacet
  facet normal -2.000849e-01 9.795776e-01 1.984444e-02
    outer loop
      vertex -5.677342e-07 1.128048e+01 0.000000e+00
      vertex -1.243536e+01 8.740481e+00 0.000000e+00
      vertex -1.074032e+01 8.615715e+00 2.324931e+01
    endloop
  endfacet
  facet normal -2.134908e-01 9.768540e-01 1.333927e-02
    outer loop
      vertex -1.074032e+01 8.615715e+00 2.324931e+01
      vertex -5.677342e-07 1.096300e+01 2.324931e+01
      vertex -5.677342e-07 1.128048e+01 0.000000e+00
    endloop
  endfacet
  facet normal -2.627289e-01 -9.635628e-01 5.020270e-02
    outer loop
      vertex -1.052328e+01 -1.086666e+01 3.473428e+01
      vertex -5.677342e-07 -1.373598e+01 3.473428e+01
      vertex -5.677342e-07 -1.313760e+01 4.621925e+01
    endloop
  endfacet
  facet normal -2.045649e-01 -9.788339e-01 -6.110496e-03
    outer loop
      vertex -5.677342e-07 -1.313760e+01 4.621925e+01
      vertex -1.030624e+01 -1.098372e+01 4.621925e+01
      vertex -1.052328e+01 -1.086666e+01 3.473428e+01
    endloop
  endfacet
  facet normal -8.936270e-01 4.468136e-01 4.228806e-02
    outer loop
      vertex -2.005535e+01 6.200481e+00 0.000000e+00
      vertex -2.259535e+01 1.120481e+00 0.000000e+00
      vertex -2.166580e+01 7.791827e-01 2.324931e+01
    endloop
  endfacet
  facet normal -8.690562e-01 4.917068e-01 5.445829e-02
    outer loop
      vertex -2.166580e+01 7.791827e-01 2.324931e+01
      vertex -1.873833e+01 5.953279e+00 2.324931e+01
      vertex -2.005535e+01 6.200481e+00 0.000000e+00
    endloop
  endfacet
  facet normal -8.698773e-01 4.921713e-01 3.287759e-02
    outer loop
      vertex -1.873833e+01 5.953279e+00 2.324931e+01
      vertex -2.166580e+01 7.791827e-01 2.324931e+01
      vertex -2.123172e+01 7.791826e-01 3.473428e+01
    endloop
  endfacet
  facet normal -9.367577e-01 3.467895e-01 -4.713818e-02
    outer loop
      vertex -2.123172e+01 7.791826e-01 3.473428e+01
      vertex -1.836241e+01 8.529863e+00 3.473428e+01
      vertex -1.873833e+01 5.953279e+00 2.324931e+01
    endloop
  endfacet
  facet normal -9.652827e-01 -2.586469e-01 3.648353e-02
    outer loop
      vertex -2.166580e+01 7.791827e-01 2.324931e+01
      vertex -1.873833e+01 -1.014630e+01 2.324931e+01
      vertex -1.836240e+01 -9.929262e+00 3.473428e+01
    endloop
  endfacet
  facet normal -9.652827e-01 -2.586469e-01 3.648350e-02
    outer loop
      vertex -1.836240e+01 -9.929262e+00 3.473428e+01
      vertex -2.123172e+01 7.791826e-01 3.473428e+01
      vertex -2.166580e+01 7.791827e-01 2.324931e+01
    endloop
  endfacet
  facet normal -3.095623e-01 9.299313e-01 -1.984919e-01
    outer loop
      vertex -1.074032e+01 8.615715e+00 2.324931e+01
      vertex -1.873833e+01 5.953279e+00 2.324931e+01
      vertex -1.836241e+01 8.529863e+00 3.473428e+01
    endloop
  endfacet
  facet normal -2.986160e-01 9.350268e-01 -1.911893e-01
    outer loop
      vertex -1.836241e+01 8.529863e+00 3.473428e+01
      vertex -1.052328e+01 1.103342e+01 3.473428e+01
      vertex -1.074032e+01 8.615715e+00 2.324931e+01
    endloop
  endfacet
  facet normal -2.092980e-01 9.576697e-01 -1.976437e-01
    outer loop
      vertex -5.677342e-07 1.096300e+01 2.324931e+01
      vertex -1.074032e+01 8.615715e+00 2.324931e+01
      vertex -1.052328e+01 1.103342e+01 3.473428e+01
    endloop
  endfacet
  facet normal -2.084014e-01 9.580340e-01 -1.968244e-01
    outer loop
      vertex -1.052328e+01 1.103342e+01 3.473428e+01
      vertex -5.677342e-07 1.332255e+01 3.473428e+01
      vertex -5.677342e-07 1.096300e+01 2.324931e+01
    endloop
  endfacet
  facet normal -1.357171e-01 -9.901301e-01 3.497380e-02
    outer loop
      vertex -1.873833e+01 -1.014630e+01 2.324931e+01
      vertex -1.074032e+01 -1.124259e+01 2.324931e+01
      vertex -1.052328e+01 -1.086666e+01 3.473428e+01
    endloop
  endfacet
  facet normal -1.187035e-01 -9.926715e-01 2.264474e-02
    outer loop
      vertex -1.052328e+01 -1.086666e+01 3.473428e+01
      vertex -1.836240e+01 -9.929262e+00 3.473428e+01
      vertex -1.873833e+01 -1.014630e+01 2.324931e+01
    endloop
  endfacet
  facet normal -2.628001e-01 -9.641619e-01 3.644101e-02
    outer loop
      vertex -1.074032e+01 -1.124259e+01 2.324931e+01
      vertex -5.677342e-07 -1.417006e+01 2.324931e+01
      vertex -5.677342e-07 -1.373598e+01 3.473428e+01
    endloop
  endfacet
  facet normal -2.628850e-01 -9.641355e-01 3.652615e-02
    outer loop
      vertex -5.677342e-07 -1.373598e+01 3.473428e+01
      vertex -1.052328e+01 -1.086666e+01 3.473428e+01
      vertex -1.074032e+01 -1.124259e+01 2.324931e+01
    endloop
  endfacet
  facet normal -9.425934e-01 3.301250e-01 5.035188e-02
    outer loop
      vertex -1.798648e+01 8.805783e+00 4.621925e+01
      vertex -2.079764e+01 7.791826e-01 4.621925e+01
      vertex -2.005535e+01 1.120481e+00 5.787726e+01
    endloop
  endfacet
  facet normal -9.479211e-01 3.159738e-01 4.007746e-02
    outer loop
      vertex -2.005535e+01 1.120481e+00 5.787726e+01
      vertex -1.751535e+01 8.740481e+00 5.787726e+01
      vertex -1.798648e+01 8.805783e+00 4.621925e+01
    endloop
  endfacet
  facet normal -1.405424e-01 -9.890244e-01 -4.559225e-02
    outer loop
      vertex -1.747779e+01 -9.964627e+00 4.621925e+01
      vertex -1.030624e+01 -1.098372e+01 4.621925e+01
      vertex -9.895356e+00 -1.157952e+01 5.787726e+01
    endloop
  endfacet
  facet normal -3.153594e-01 -9.460781e-01 7.405874e-02
    outer loop
      vertex -9.895356e+00 -1.157952e+01 5.787726e+01
      vertex -1.751535e+01 -9.039519e+00 5.787726e+01
      vertex -1.747779e+01 -9.964627e+00 4.621925e+01
    endloop
  endfacet
  facet normal -3.776640e-01 9.257169e-01 2.044757e-02
    outer loop
      vertex -1.030624e+01 1.193908e+01 4.621925e+01
      vertex -1.798648e+01 8.805783e+00 4.621925e+01
      vertex -1.751535e+01 8.740481e+00 5.787726e+01
    endloop
  endfacet
  facet normal -3.155672e-01 9.467013e-01 6.460468e-02
    outer loop
      vertex -1.751535e+01 8.740481e+00 5.787726e+01
      vertex -9.895356e+00 1.128048e+01 5.787726e+01
      vertex -1.030624e+01 1.193908e+01 4.621925e+01
    endloop
  endfacet
  facet normal -9.552290e-01 -2.951671e-01 2.034459e-02
    outer loop
      vertex -2.079764e+01 7.791826e-01 4.621925e+01
      vertex -1.747779e+01 -9.964627e+00 4.621925e+01
      vertex -1.751535e+01 -9.039519e+00 5.787726e+01
    endloop
  endfacet
  facet normal -9.678498e-01 -2.419625e-01 6.870838e-02
    outer loop
      vertex -1.751535e+01 -9.039519e+00 5.787726e+01
      vertex -2.005535e+01 1.120481e+00 5.787726e+01
      vertex -2.079764e+01 7.791826e-01 4.621925e+01
    endloop
  endfacet
  facet normal -2.111543e-01 9.754494e-01 6.254876e-02
    outer loop
      vertex -5.677342e-07 1.417006e+01 4.621925e+01
      vertex -1.030624e+01 1.193908e+01 4.621925e+01
      vertex -9.895356e+00 1.128048e+01 5.787726e+01
    endloop
  endfacet
  facet normal -2.485211e-01 9.681913e-01 2.903266e-02
    outer loop
      vertex -9.895356e+00 1.128048e+01 5.787726e+01
      vertex -5.677342e-07 1.382048e+01 5.787726e+01
      vertex -5.677342e-07 1.417006e+01 4.621925e+01
    endloop
  endfacet
  facet normal -2.038770e-01 -9.755423e-01 -8.216681e-02
    outer loop
      vertex -1.030624e+01 -1.098372e+01 4.621925e+01
      vertex -5.677342e-07 -1.313760e+01 4.621925e+01
      vertex -5.677342e-07 -1.411952e+01 5.787726e+01
    endloop
  endfacet
  facet normal -2.484200e-01 -9.677967e-01 -4.070524e-02
    outer loop
      vertex -5.677342e-07 -1.411952e+01 5.787726e+01
      vertex -9.895356e+00 -1.157952e+01 5.787726e+01
      vertex -1.030624e+01 -1.098372e+01 4.621925e+01
    endloop
  endfacet
  facet normal 0.000000e+00 1.000000e+00 0.000000e+00
    outer loop
      vertex -5.677342e-07 8.740481e+00 0.000000e+00
      vertex -4.815355e+00 8.740481e+00 0.000000e+00
      vertex -4.815355e+00 8.740481e+00 5.787726e+01
    endloop
  endfacet
  facet normal 0.000000e+00 1.000000e+00 0.000000e+00
    outer loop
      vertex -4.815355e+00 8.740481e+00 5.787726e+01
      vertex -5.677342e-07 8.740481e+00 5.787726e+01
      vertex -5.677342e-07 8.740481e+00 0.000000e+00
    endloop
  endfacet
  facet normal -7.071067e-01 7.071068e-01 0.000000e+00
    outer loop
      vertex -4.815355e+00 8.740481e+00 0.000000e+00
      vertex -7.355356e+00 6.200481e+00 0.000000e+00
      vertex -7.355356e+00 6.200481e+00 5.787726e+01
    endloop
  endfacet
  facet normal -7.071067e-01 7.071068e-01 0.000000e+00
    outer loop
      vertex -7.355356e+00 6.200481e+00 5.787726e+01
      vertex -4.815355e+00 8.740481e+00 5.787726e+01
      vertex -4.815355e+00 8.740481e+00 0.000000e+00
    endloop
  endfacet
  facet normal -8.944272e-01 4.472136e-01 0.000000e+00
    outer loop
      vertex -7.355356e+00 6.200481e+00 0.000000e+00
      vertex -9.895356e+00 1.120481e+00 0.000000e+00
      vertex -9.895356e+00 1.120481e+00 5.787726e+01
    endloop
  endfacet
  facet normal -8.944272e-01 4.472136e-01 0.000000e+00
    outer loop
      vertex -9.895356e+00 1.120481e+00 5.787726e+01
      vertex -7.355356e+00 6.200481e+00 5.787726e+01
      vertex -7.355356e+00 6.200481e+00 0.000000e+00
    endloop
  endfacet
  facet normal -8.944272e-01 -4.472136e-01 0.000000e+00
    outer loop
      vertex -9.895356e+00 1.120481e+00 0.000000e+00
      vertex -7.355356e+00 -3.959519e+00 0.000000e+00
      vertex -7.355356e+00 -3.959519e+00 5.787726e+01
    endloop
  endfacet
  facet normal -8.944272e-01 -4.472136e-01 0.000000e+00
    outer loop
      vertex -7.355356e+00 -3.959519e+00 5.787726e+01
      vertex -9.895356e+00 1.120481e+00 5.787726e+01
      vertex -9.895356e+00 1.120481e+00 0.000000e+00
    endloop
  endfacet
  facet normal -7.071067e-01 -7.071068e-01 0.000000e+00
    outer loop
      vertex -7.355356e+00 -3.959519e+00 0.000000e+00
      vertex -4.815355e+00 -6.499519e+00 0.000000e+00
      vertex -4.815355e+00 -6.499519e+00 5.787726e+01
    endloop
  endfacet
  facet normal -7.071067e-01 -7.071068e-01 0.000000e+00
    outer loop
      vertex -4.815355e+00 -6.499519e+00 5.787726e+01
      vertex -7.355356e+00 -3.959519e+00 5.787726e+01
      vertex -7.355356e+00 -3.959519e+00 0.000000e+00
    endloop
  endfacet
  facet normal -4.665521e-01 -8.844937e-01 0.000000e+00
    outer loop
      vertex -4.815355e+00 -6.499519e+00 0.000000e+00
      vertex -5.677342e-07 -9.039519e+00 0.000000e+00
      vertex -5.677342e-07 -9.039519e+00 5.787726e+01
    endloop
  endfacet
  facet normal -4.665521e-01 -8.844937e-01 0.000000e+00
    outer loop
      vertex -5.677342e-07 -9.039519e+00 5.787726e+01
      vertex -4.815355e+00 -6.499519e+00 5.787726e+01
      vertex -4.815355e+00 -6.499519e+00 0.000000e+00
    endloop
  endfacet
  facet normal 0.000000e+00 0.000000e+00 -1.000000e+00
    outer loop
      vertex -9.895356e+00 1.120481e+00 5.787726e+01
      vertex -7.355356e+00 -3.959519e+00 5.787726e+01
      vertex -1.751535e+01 -9.039519e+00 5.787726e+01
    endloop
  endfacet
  facet normal 0.000000e+00 0.000000e+00 -1.000000e+00
    outer loop
      vertex -1.751535e+01 -9.039519e+00 5.787726e+01
      vertex -2.005535e+01 1.120481e+00 5.787726e+01
      vertex -9.895356e+00 1.120481e+00 5.787726e+01
    endloop
  endfacet
  facet normal 0.000000e+00 0.000000e+00 -1.000000e+00
    outer loop
      vertex -4.815355e+00 -6.499519e+00 5.787726e+01
      vertex -5.677342e-07 -9.039519e+00 5.787726e+01
      vertex -5.677342e-07 -1.411952e+01 5.787726e+01
    endloop
  endfacet
  facet normal 0.000000e+00 0.000000e+00 -1.000000e+00
    outer loop
      vertex -5.677342e-07 -1.411952e+01 5.787726e+01
      vertex -9.895356e+00 -1.157952e+01 5.787726e+01
      vertex -4.815355e+00 -6.499519e+00 5.787726e+01
    endloop
  endfacet
  facet normal 0.000000e+00 0.000000e+00 -1.000000e+00
    outer loop
      vertex -7.355356e+00 -3.959519e+00 5.787726e+01
      vertex -4.815355e+00 -6.499519e+00 5.787726e+01
      vertex -9.895356e+00 -1.157952e+01 5.787726e+01
    endloop
  endfacet
  facet normal 0.000000e+00 0.000000e+00 -1.000000e+00
    outer loop
      vertex -9.895356e+00 -1.157952e+01 5.787726e+01
      vertex -1.751535e+01 -9.039519e+00 5.787726e+01
      vertex -7.355356e+00 -3.959519e+00 5.787726e+01
    endloop
  endfacet
  facet normal 0.000000e+00 0.000000e+00 -1.000000e+00
    outer loop
      vertex -4.815355e+00 8.740481e+00 5.787726e+01
      vertex -7.355356e+00 6.200481e+00 5.787726e+01
      vertex -1.751535e+01 8.740481e+00 5.787726e+01
    endloop
  endfacet
  facet normal 0.000000e+00 0.000000e+00 -1.000000e+00
    outer loop
      vertex -1.751535e+01 8.740481e+00 5.787726e+01
      vertex -9.895356e+00 1.128048e+01 5.787726e+01
      vertex -4.815355e+00 8.740481e+00 5.787726e+01
    endloop
  endfacet
  facet normal 0.000000e+00 0.000000e+00 -1.000000e+00
    outer loop
      vertex -7.355356e+00 6.200481e+00 5.787726e+01
      vertex -9.895356e+00 1.120481e+00 5.787726e+01
      vertex -2.005535e+01 1.120481e+00 5.787726e+01
    endloop
  endfacet
  facet normal 0.000000e+00 0.000000e+00 -1.000000e+00
    outer loop
      vertex -2.005535e+01 1.120481e+00 5.787726e+01
      vertex -1.751535e+01 8.740481e+00 5.787726e+01
      vertex -7.355356e+00 6.200481e+00 5.787726e+01
    endloop
  endfacet
  facet normal 0.000000e+00 0.000000e+00 -1.000000e+00
    outer loop
      vertex -5.677342e-07 8.740481e+00 5.787726e+01
      vertex -4.815355e+00 8.740481e+00 5.787726e+01
      vertex -9.895356e+00 1.128048e+01 5.787726e+01
    endloop
  endfacet
  facet normal 0.000000e+00 0.000000e+00 -1.000000e+00
    outer loop
      vertex -9.895356e+00 1.128048e+01 5.787726e+01
      vertex -5.677342e-07 1.382048e+01 5.787726e+01
      vertex -5.677342e-07 8.740481e+00 5.787726e+01
    endloop
  endfacet
  facet normal NaN NaN NaN
    outer loop
      vertex -5.677342e-07 8.740481e+00 0.000000e+00
      vertex -4.815355e+00 8.740481e+00 0.000000e+00
      vertex -1.243536e+01 8.740481e+00 0.000000e+00
    endloop
  endfacet
  facet normal 0.000000e+00 0.000000e+00 -1.000000e+00
    outer loop
      vertex -1.243536e+01 8.740481e+00 0.000000e+00
      vertex -5.677342e-07 1.128048e+01 0.000000e+00
      vertex -5.677342e-07 8.740481e+00 0.000000e+00
    endloop
  endfacet
  facet normal 0.000000e+00 0.000000e+00 -1.000000e+00
    outer loop
      vertex -7.355356e+00 -3.959519e+00 0.000000e+00
      vertex -4.815355e+00 -6.499519e+00 0.000000e+00
      vertex -1.243536e+01 -1.157952e+01 0.000000e+00
    endloop
  endfacet
  facet normal 0.000000e+00 0.000000e+00 -1.000000e+00
    outer loop
      vertex -1.243536e+01 -1.157952e+01 0.000000e+00
      vertex -2.005535e+01 -9.039519e+00 0.000000e+00
      vertex -7.355356e+00 -3.959519e+00 0.000000e+00
    endloop
  endfacet
  facet normal 0.000000e+00 0.000000e+00 -1.000000e+00
    outer loop
      vertex -7.355356e+00 6.200481e+00 0.000000e+00
      vertex -9.895356e+00 1.120481e+00 0.000000e+00
      vertex -2.259535e+01 1.120481e+00 0.000000e+00
    endloop
  endfacet
  facet normal 0.000000e+00 0.000000e+00 -1.000000e+00
    outer loop
      vertex -2.259535e+01 1.120481e+00 0.000000e+00
      vertex -2.005535e+01 6.200481e+00 0.000000e+00
      vertex -7.355356e+00 6.200481e+00 0.000000e+00
    endloop
  endfacet
  facet normal 0.000000e+00 0.000000e+00 -1.000000e+00
    outer loop
      vertex -4.815355e+00 8.740481e+00 0.000000e+00
      vertex -7.355356e+00 6.200481e+00 0.000000e+00
      vertex -2.005535e+01 6.200481e+00 0.000000e+00
    endloop
  endfacet
  facet normal 0.000000e+00 0.000000e+00 -1.000000e+00
    outer loop
      vertex -2.005535e+01 6.200481e+00 0.000000e+00
      vertex -1.243536e+01 8.740481e+00 0.000000e+00
      vertex -4.815355e+00 8.740481e+00 0.000000e+00
    endloop
  endfacet
  facet normal 0.000000e+00 0.000000e+00 -1.000000e+00
    outer loop
      vertex -4.815355e+00 -6.499519e+00 0.000000e+00
      vertex -5.677342e-07 -9.039519e+00 0.000000e+00
      vertex -5.677342e-07 -1.411952e+01 0.000000e+00
    endloop
  endfacet
  facet normal 0.000000e+00 0.000000e+00 -1.000000e+00
    outer loop
      vertex -5.677342e-07 -1.411952e+01 0.000000e+00
      vertex -1.243536e+01 -1.157952e+01 0.000000e+00
      vertex -4.815355e+00 -6.499519e+00 0.000000e+00
    endloop
  endfacet
  facet normal 0.000000e+00 0.000000e+00 -1.000000e+00
    outer loop
      vertex -9.895356e+00 1.120481e+00 0.000000e+00
      vertex -7.355356e+00 -3.959519e+00 0.000000e+00
      vertex -2.005535e+01 -9.039519e+00 0.000000e+00
    endloop
  endfacet
  facet normal 0.000000e+00 0.000000e+00 -1.000000e+00
    outer loop
      vertex -2.005535e+01 -9.039519e+00 0.000000e+00
      vertex -2.259535e+01 1.120481e+00 0.000000e+00
      vertex -9.895356e+00 1.120481e+00 0.000000e+00
    endloop
  endfacet
endsolid Default
