solid Default
  facet normal -7.071068e-01 7.071068e-01 2.352349e-16
    outer loop
      vertex -2.100000e+01 4.718760e+00 3.637308e+01
      vertex -2.100000e+01 4.718760e+00 2.302392e+01
      vertex -2.571880e+01 -4.038190e-15 2.969975e+01
    endloop
  endfacet
  facet normal -7.071068e-01 7.071068e-01 5.887848e-17
    outer loop
      vertex -2.571880e+01 -4.038190e-15 2.969975e+01
      vertex -2.100000e+01 4.718760e+00 2.302392e+01
      vertex -2.571880e+01 -4.037980e-15 2.969725e+01
    endloop
  endfacet
  facet normal -7.071068e-01 -7.071068e-01 9.409377e-17
    outer loop
      vertex -2.100000e+01 -4.718760e+00 2.302392e+01
      vertex -2.100000e+01 -4.718760e+00 3.637308e+01
      vertex -2.571880e+01 -4.038190e-15 2.969975e+01
    endloop
  endfacet
  facet normal -7.071068e-01 -7.071068e-01 -5.887848e-17
    outer loop
      vertex -2.571880e+01 -4.037980e-15 2.969725e+01
      vertex -2.100000e+01 -4.718760e+00 2.302392e+01
      vertex -2.571880e+01 -4.038190e-15 2.969975e+01
    endloop
  endfacet
  facet normal -8.164968e-01 0.000000e+00 -5.773499e-01
    outer loop
      vertex -2.100000e+01 4.718760e+00 2.302392e+01
      vertex -2.100000e+01 -4.718760e+00 2.302392e+01
      vertex -2.571880e+01 -4.037980e-15 2.969725e+01
    endloop
  endfacet
  facet normal -8.164968e-01 1.630060e-16 5.773499e-01
    outer loop
      vertex -2.100000e+01 -4.718760e+00 3.637308e+01
      vertex -2.100000e+01 4.718760e+00 3.637308e+01
      vertex -2.571880e+01 -4.038190e-15 2.969975e+01
    endloop
  endfacet
  facet normal -1.000000e+00 -3.383537e-16 -0.000000e+00
    outer loop
      vertex -2.100000e+01 -2.100000e+01 2.969850e+01
      vertex -2.100000e+01 -2.100000e+01 2.969850e+01
      vertex -2.100000e+01 -4.412930e-15 1.484930e+01
    endloop
  endfacet
  facet normal -1.000000e+00 -2.858550e-16 1.650080e-16
    outer loop
      vertex -2.100000e+01 -4.718760e+00 3.637308e+01
      vertex -2.100000e+01 -2.100000e+01 2.969850e+01
      vertex -2.100000e+01 -2.472900e-15 4.454770e+01
    endloop
  endfacet
  facet normal -1.000000e+00 -5.717100e-16 -3.300150e-16
    outer loop
      vertex -2.100000e+01 4.718760e+00 3.637308e+01
      vertex -2.100000e+01 -2.472900e-15 4.454770e+01
      vertex -2.100000e+01 2.100000e+01 2.969850e+01
    endloop
  endfacet
  facet normal -1.000000e+00 -1.691768e-16 -6.551669e-25
    outer loop
      vertex -2.100000e+01 -4.412930e-15 1.484930e+01
      vertex -2.100000e+01 2.100000e+01 2.969850e+01
      vertex -2.100000e+01 2.100000e+01 2.969850e+01
    endloop
  endfacet
  facet normal -1.000000e+00 0.000000e+00 0.000000e+00
    outer loop
      vertex -2.100000e+01 -4.718760e+00 3.637308e+01
      vertex -2.100000e+01 -2.472900e-15 4.454770e+01
      vertex -2.100000e+01 4.718760e+00 3.637308e+01
    endloop
  endfacet
  facet normal -1.000000e+00 -2.858550e-16 1.650080e-16
    outer loop
      vertex -2.100000e+01 -4.412930e-15 1.484930e+01
      vertex -2.100000e+01 4.718760e+00 2.302392e+01
      vertex -2.100000e+01 2.100000e+01 2.969850e+01
    endloop
  endfacet
  facet normal -1.000000e+00 -3.273140e-16 2.661370e-16
    outer loop
      vertex -2.100000e+01 4.718760e+00 2.302392e+01
      vertex -2.100000e+01 4.718760e+00 3.637308e+01
      vertex -2.100000e+01 2.100000e+01 2.969850e+01
    endloop
  endfacet
  facet normal -1.000000e+00 -3.273140e-16 2.661370e-16
    outer loop
      vertex -2.100000e+01 -4.718760e+00 2.302392e+01
      vertex -2.100000e+01 -2.100000e+01 2.969850e+01
      vertex -2.100000e+01 -4.718760e+00 3.637308e+01
    endloop
  endfacet
  facet normal -1.000000e+00 -5.717100e-16 -3.300150e-16
    outer loop
      vertex -2.100000e+01 -4.412930e-15 1.484930e+01
      vertex -2.100000e+01 -2.100000e+01 2.969850e+01
      vertex -2.100000e+01 -4.718760e+00 2.302392e+01
    endloop
  endfacet
  facet normal -1.000000e+00 0.000000e+00 0.000000e+00
    outer loop
      vertex -2.100000e+01 4.718760e+00 2.302392e+01
      vertex -2.100000e+01 -4.412930e-15 1.484930e+01
      vertex -2.100000e+01 -4.718760e+00 2.302392e+01
    endloop
  endfacet
  facet normal -5.000002e-01 -5.000002e-01 -7.071064e-01
    outer loop
      vertex 3.980070e-15 -1.165730e-15 0.000000e+00
      vertex 1.940030e-15 -2.100000e+01 1.484930e+01
      vertex 2.331470e-15 4.828630e-16 0.000000e+00
    endloop
  endfacet
  facet normal -4.999999e-01 -4.999999e-01 -7.071069e-01
    outer loop
      vertex -8.139740e+00 -1.757900e+01 1.818590e+01
      vertex 1.940030e-15 -2.100000e+01 1.484930e+01
      vertex -2.100000e+01 -2.100000e+01 2.969850e+01
    endloop
  endfacet
  facet normal -4.999999e-01 -4.999999e-01 -7.071069e-01
    outer loop
      vertex -1.757900e+01 -8.139740e+00 1.818590e+01
      vertex -2.100000e+01 -2.100000e+01 2.969850e+01
      vertex -2.100000e+01 -4.412930e-15 1.484930e+01
    endloop
  endfacet
  facet normal -4.999999e-01 -4.999999e-01 -7.071069e-01
    outer loop
      vertex -1.286030e+01 -3.420980e+00 1.151260e+01
      vertex -1.757900e+01 -8.139740e+00 1.818590e+01
      vertex -2.100000e+01 -4.412930e-15 1.484930e+01
    endloop
  endfacet
  facet normal -4.999999e-01 -4.999999e-01 -7.071069e-01
    outer loop
      vertex -3.420980e+00 -1.286030e+01 1.151260e+01
      vertex 1.940030e-15 -2.100000e+01 1.484930e+01
      vertex -8.139740e+00 -1.757900e+01 1.818590e+01
    endloop
  endfacet
  facet normal -4.999999e-01 -4.999999e-01 -7.071069e-01
    outer loop
      vertex -1.286030e+01 -3.420980e+00 1.151260e+01
      vertex 2.331470e-15 4.828630e-16 0.000000e+00
      vertex -3.420980e+00 -1.286030e+01 1.151260e+01
    endloop
  endfacet
  facet normal -4.999999e-01 -4.999999e-01 -7.071069e-01
    outer loop
      vertex 2.331470e-15 4.828630e-16 0.000000e+00
      vertex 1.940030e-15 -2.100000e+01 1.484930e+01
      vertex -3.420980e+00 -1.286030e+01 1.151260e+01
    endloop
  endfacet
  facet normal -4.999999e-01 -4.999999e-01 -7.071069e-01
    outer loop
      vertex 2.331470e-15 4.828630e-16 0.000000e+00
      vertex -1.286030e+01 -3.420980e+00 1.151260e+01
      vertex -2.100000e+01 -4.412930e-15 1.484930e+01
    endloop
  endfacet
  facet normal -4.999999e-01 -4.999999e-01 -7.071069e-01
    outer loop
      vertex -8.139740e+00 -1.757900e+01 1.818590e+01
      vertex -2.100000e+01 -2.100000e+01 2.969850e+01
      vertex -1.757900e+01 -8.139740e+00 1.818590e+01
    endloop
  endfacet
  facet normal -4.999999e-01 4.999999e-01 -7.071069e-01
    outer loop
      vertex -8.139740e+00 1.757900e+01 1.818590e+01
      vertex -3.588630e-15 2.100000e+01 1.484930e+01
      vertex -3.420980e+00 1.286030e+01 1.151260e+01
    endloop
  endfacet
  facet normal -4.999999e-01 4.999999e-01 -7.071069e-01
    outer loop
      vertex -1.757900e+01 8.139740e+00 1.818590e+01
      vertex -2.100000e+01 -4.412930e-15 1.484930e+01
      vertex -2.100000e+01 2.100000e+01 2.969850e+01
    endloop
  endfacet
  facet normal -4.999999e-01 4.999999e-01 -7.071069e-01
    outer loop
      vertex 2.331470e-15 4.828630e-16 0.000000e+00
      vertex -2.100000e+01 -4.412930e-15 1.484930e+01
      vertex -1.286030e+01 3.420980e+00 1.151260e+01
    endloop
  endfacet
  facet normal -4.999999e-01 4.999999e-01 -7.071069e-01
    outer loop
      vertex 2.331470e-15 4.828630e-16 0.000000e+00
      vertex -1.286030e+01 3.420980e+00 1.151260e+01
      vertex -3.420980e+00 1.286030e+01 1.151260e+01
    endloop
  endfacet
  facet normal -4.999999e-01 4.999999e-01 -7.071069e-01
    outer loop
      vertex 2.331470e-15 4.828630e-16 0.000000e+00
      vertex -3.420980e+00 1.286030e+01 1.151260e+01
      vertex -3.588630e-15 2.100000e+01 1.484930e+01
    endloop
  endfacet
  facet normal -4.999999e-01 4.999999e-01 -7.071069e-01
    outer loop
      vertex -3.588630e-15 2.100000e+01 1.484930e+01
      vertex -8.139740e+00 1.757900e+01 1.818590e+01
      vertex -2.100000e+01 2.100000e+01 2.969850e+01
    endloop
  endfacet
  facet normal -4.999999e-01 4.999999e-01 -7.071069e-01
    outer loop
      vertex -8.139740e+00 1.757900e+01 1.818590e+01
      vertex -1.757900e+01 8.139740e+00 1.818590e+01
      vertex -2.100000e+01 2.100000e+01 2.969850e+01
    endloop
  endfacet
  facet normal -4.999999e-01 4.999999e-01 -7.071069e-01
    outer loop
      vertex -1.286030e+01 3.420980e+00 1.151260e+01
      vertex -2.100000e+01 -4.412930e-15 1.484930e+01
      vertex -1.757900e+01 8.139740e+00 1.818590e+01
    endloop
  endfacet
  facet normal -1.091050e-16 1.000000e+00 2.661370e-16
    outer loop
      vertex 4.718760e+00 2.100000e+01 3.637308e+01
      vertex 2.100000e+01 2.100000e+01 2.969850e+01
      vertex 4.718760e+00 2.100000e+01 2.302392e+01
    endloop
  endfacet
  facet normal 0.000000e+00 1.000000e+00 0.000000e+00
    outer loop
      vertex 4.718760e+00 2.100000e+01 2.302392e+01
      vertex 2.100000e+01 2.100000e+01 2.969850e+01
      vertex -3.588630e-15 2.100000e+01 1.484930e+01
    endloop
  endfacet
  facet normal 1.589634e-09 1.000000e+00 2.248086e-09
    outer loop
      vertex -2.100000e+01 2.100000e+01 2.969850e+01
      vertex -3.588630e-15 2.100000e+01 1.484930e+01
      vertex -2.100000e+01 2.100000e+01 2.969850e+01
    endloop
  endfacet
  facet normal 9.216140e-10 1.000000e+00 2.248083e-09
    outer loop
      vertex 4.718760e+00 2.100000e+01 3.637308e+01
      vertex 2.100000e+01 2.100000e+01 2.969850e+01
      vertex 2.100000e+01 2.100000e+01 2.969850e+01
    endloop
  endfacet
  facet normal -2.858550e-16 1.000000e+00 -1.650080e-16
    outer loop
      vertex -2.100000e+01 2.100000e+01 2.969850e+01
      vertex -4.718760e+00 2.100000e+01 2.302392e+01
      vertex -3.588630e-15 2.100000e+01 1.484930e+01
    endloop
  endfacet
  facet normal 0.000000e+00 1.000000e+00 0.000000e+00
    outer loop
      vertex -4.718760e+00 2.100000e+01 2.302392e+01
      vertex 4.718760e+00 2.100000e+01 2.302392e+01
      vertex -3.588630e-15 2.100000e+01 1.484930e+01
    endloop
  endfacet
  facet normal 0.000000e+00 1.000000e+00 0.000000e+00
    outer loop
      vertex -2.181460e-15 2.100000e+01 4.454770e+01
      vertex 2.100000e+01 2.100000e+01 2.969850e+01
      vertex 4.718760e+00 2.100000e+01 3.637308e+01
    endloop
  endfacet
  facet normal 0.000000e+00 1.000000e+00 0.000000e+00
    outer loop
      vertex -2.181460e-15 2.100000e+01 4.454770e+01
      vertex 4.718760e+00 2.100000e+01 3.637308e+01
      vertex -4.718760e+00 2.100000e+01 3.637308e+01
    endloop
  endfacet
  facet normal 0.000000e+00 1.000000e+00 0.000000e+00
    outer loop
      vertex -2.181460e-15 2.100000e+01 4.454770e+01
      vertex -4.718760e+00 2.100000e+01 3.637308e+01
      vertex -2.100000e+01 2.100000e+01 2.969850e+01
    endloop
  endfacet
  facet normal -1.091050e-16 1.000000e+00 2.661370e-16
    outer loop
      vertex -4.718760e+00 2.100000e+01 2.302392e+01
      vertex -2.100000e+01 2.100000e+01 2.969850e+01
      vertex -4.718760e+00 2.100000e+01 3.637308e+01
    endloop
  endfacet
  facet normal -4.999999e-01 4.999999e-01 7.071069e-01
    outer loop
      vertex -3.420980e+00 1.286030e+01 4.788440e+01
      vertex -4.828630e-16 4.828630e-16 5.939700e+01
      vertex -2.181460e-15 2.100000e+01 4.454770e+01
    endloop
  endfacet
  facet normal -4.999999e-01 4.999999e-01 7.071069e-01
    outer loop
      vertex -2.100000e+01 2.100000e+01 2.969850e+01
      vertex -2.100000e+01 -2.472900e-15 4.454770e+01
      vertex -1.757900e+01 8.139740e+00 4.121110e+01
    endloop
  endfacet
  facet normal -4.999999e-01 4.999999e-01 7.071069e-01
    outer loop
      vertex -2.100000e+01 2.100000e+01 2.969850e+01
      vertex -8.139740e+00 1.757900e+01 4.121110e+01
      vertex -2.181460e-15 2.100000e+01 4.454770e+01
    endloop
  endfacet
  facet normal -4.999999e-01 4.999999e-01 7.071069e-01
    outer loop
      vertex -2.100000e+01 2.100000e+01 2.969850e+01
      vertex -1.757900e+01 8.139740e+00 4.121110e+01
      vertex -8.139740e+00 1.757900e+01 4.121110e+01
    endloop
  endfacet
  facet normal -4.999999e-01 4.999999e-01 7.071069e-01
    outer loop
      vertex -8.139740e+00 1.757900e+01 4.121110e+01
      vertex -3.420980e+00 1.286030e+01 4.788440e+01
      vertex -2.181460e-15 2.100000e+01 4.454770e+01
    endloop
  endfacet
  facet normal -4.999999e-01 4.999999e-01 7.071069e-01
    outer loop
      vertex -1.286030e+01 3.420980e+00 4.788440e+01
      vertex -4.828630e-16 4.828630e-16 5.939700e+01
      vertex -3.420980e+00 1.286030e+01 4.788440e+01
    endloop
  endfacet
  facet normal -4.999999e-01 4.999999e-01 7.071069e-01
    outer loop
      vertex -2.100000e+01 -2.472900e-15 4.454770e+01
      vertex -4.828630e-16 4.828630e-16 5.939700e+01
      vertex -1.286030e+01 3.420980e+00 4.788440e+01
    endloop
  endfacet
  facet normal -4.999999e-01 4.999999e-01 7.071069e-01
    outer loop
      vertex -1.286030e+01 3.420980e+00 4.788440e+01
      vertex -1.757900e+01 8.139740e+00 4.121110e+01
      vertex -2.100000e+01 -2.472900e-15 4.454770e+01
    endloop
  endfacet
  facet normal -4.999999e-01 -4.999999e-01 7.071069e-01
    outer loop
      vertex -3.420980e+00 -1.286030e+01 4.788440e+01
      vertex 1.115730e-15 -2.100000e+01 4.454770e+01
      vertex 4.828630e-16 -4.828630e-16 5.939700e+01
    endloop
  endfacet
  facet normal -4.999999e-01 -4.999999e-01 7.071069e-01
    outer loop
      vertex -8.139740e+00 -1.757900e+01 4.121110e+01
      vertex -1.757900e+01 -8.139740e+00 4.121110e+01
      vertex -2.100000e+01 -2.100000e+01 2.969850e+01
    endloop
  endfacet
  facet normal -4.999999e-01 -4.999999e-01 7.071069e-01
    outer loop
      vertex -2.100000e+01 -2.472900e-15 4.454770e+01
      vertex -1.286030e+01 -3.420980e+00 4.788440e+01
      vertex -4.828630e-16 4.828630e-16 5.939700e+01
    endloop
  endfacet
  facet normal -4.999999e-01 -4.999999e-01 7.071069e-01
    outer loop
      vertex -8.139740e+00 -1.757900e+01 4.121110e+01
      vertex 1.115730e-15 -2.100000e+01 4.454770e+01
      vertex -3.420980e+00 -1.286030e+01 4.788440e+01
    endloop
  endfacet
  facet normal -4.999999e-01 -4.999999e-01 7.071069e-01
    outer loop
      vertex -2.100000e+01 -2.100000e+01 2.969850e+01
      vertex 1.115730e-15 -2.100000e+01 4.454770e+01
      vertex -8.139740e+00 -1.757900e+01 4.121110e+01
    endloop
  endfacet
  facet normal -4.999999e-01 -4.999999e-01 7.071069e-01
    outer loop
      vertex -2.100000e+01 -2.472900e-15 4.454770e+01
      vertex -1.757900e+01 -8.139740e+00 4.121110e+01
      vertex -1.286030e+01 -3.420980e+00 4.788440e+01
    endloop
  endfacet
  facet normal -4.999999e-01 -4.999999e-01 7.071069e-01
    outer loop
      vertex -2.100000e+01 -2.472900e-15 4.454770e+01
      vertex -2.100000e+01 -2.100000e+01 2.969850e+01
      vertex -1.757900e+01 -8.139740e+00 4.121110e+01
    endloop
  endfacet
  facet normal -7.071068e-01 0.000000e+00 7.071068e-01
    outer loop
      vertex -1.286030e+01 -3.420980e+00 4.788440e+01
      vertex 4.828630e-16 -4.828630e-16 5.939700e+01
      vertex -4.828630e-16 4.828630e-16 5.939700e+01
    endloop
  endfacet
  facet normal -4.999999e-01 -4.999999e-01 7.071069e-01
    outer loop
      vertex -1.286030e+01 -3.420980e+00 4.788440e+01
      vertex -3.420980e+00 -1.286030e+01 4.788440e+01
      vertex 4.828630e-16 -4.828630e-16 5.939700e+01
    endloop
  endfacet
  facet normal 1.691768e-16 -1.000000e+00 0.000000e+00
    outer loop
      vertex 1.940030e-15 -2.100000e+01 1.484930e+01
      vertex 2.100000e+01 -2.100000e+01 2.969850e+01
      vertex 2.100000e+01 -2.100000e+01 2.969850e+01
    endloop
  endfacet
  facet normal 2.858550e-16 -1.000000e+00 -1.650080e-16
    outer loop
      vertex 4.718760e+00 -2.100000e+01 2.302392e+01
      vertex 1.940030e-15 -2.100000e+01 1.484930e+01
      vertex 2.100000e+01 -2.100000e+01 2.969850e+01
    endloop
  endfacet
  facet normal -0.000000e+00 -1.000000e+00 -0.000000e+00
    outer loop
      vertex -2.100000e+01 -2.100000e+01 2.969850e+01
      vertex 1.940030e-15 -2.100000e+01 1.484930e+01
      vertex -2.100000e+01 -2.100000e+01 2.969850e+01
    endloop
  endfacet
  facet normal 2.858550e-16 -1.000000e+00 -1.650080e-16
    outer loop
      vertex -2.100000e+01 -2.100000e+01 2.969850e+01
      vertex -4.718760e+00 -2.100000e+01 3.637308e+01
      vertex 1.115730e-15 -2.100000e+01 4.454770e+01
    endloop
  endfacet
  facet normal 0.000000e+00 -1.000000e+00 0.000000e+00
    outer loop
      vertex 1.115730e-15 -2.100000e+01 4.454770e+01
      vertex 4.718760e+00 -2.100000e+01 3.637308e+01
      vertex 2.100000e+01 -2.100000e+01 2.969850e+01
    endloop
  endfacet
  facet normal 1.091050e-16 -1.000000e+00 2.661370e-16
    outer loop
      vertex 4.718760e+00 -2.100000e+01 3.637308e+01
      vertex 4.718760e+00 -2.100000e+01 2.302392e+01
      vertex 2.100000e+01 -2.100000e+01 2.969850e+01
    endloop
  endfacet
  facet normal 1.091050e-16 -1.000000e+00 2.661370e-16
    outer loop
      vertex -2.100000e+01 -2.100000e+01 2.969850e+01
      vertex -4.718760e+00 -2.100000e+01 2.302392e+01
      vertex -4.718760e+00 -2.100000e+01 3.637308e+01
    endloop
  endfacet
  facet normal 0.000000e+00 -1.000000e+00 0.000000e+00
    outer loop
      vertex -2.100000e+01 -2.100000e+01 2.969850e+01
      vertex 1.940030e-15 -2.100000e+01 1.484930e+01
      vertex -4.718760e+00 -2.100000e+01 2.302392e+01
    endloop
  endfacet
  facet normal 0.000000e+00 -1.000000e+00 0.000000e+00
    outer loop
      vertex -4.718760e+00 -2.100000e+01 3.637308e+01
      vertex 4.718760e+00 -2.100000e+01 3.637308e+01
      vertex 1.115730e-15 -2.100000e+01 4.454770e+01
    endloop
  endfacet
  facet normal 0.000000e+00 -1.000000e+00 0.000000e+00
    outer loop
      vertex 4.718760e+00 -2.100000e+01 2.302392e+01
      vertex -4.718760e+00 -2.100000e+01 2.302392e+01
      vertex 1.940030e-15 -2.100000e+01 1.484930e+01
    endloop
  endfacet
  facet normal 4.999999e-01 4.999999e-01 -7.071069e-01
    outer loop
      vertex 8.139740e+00 1.757900e+01 1.818590e+01
      vertex 2.100000e+01 2.100000e+01 2.969850e+01
      vertex 1.757900e+01 8.139740e+00 1.818590e+01
    endloop
  endfacet
  facet normal 4.999999e-01 4.999999e-01 -7.071069e-01
    outer loop
      vertex 3.420980e+00 1.286030e+01 1.151260e+01
      vertex 2.331470e-15 4.828630e-16 0.000000e+00
      vertex -3.588630e-15 2.100000e+01 1.484930e+01
    endloop
  endfacet
  facet normal 4.999999e-01 4.999999e-01 -7.071069e-01
    outer loop
      vertex 8.139740e+00 1.757900e+01 1.818590e+01
      vertex 3.420980e+00 1.286030e+01 1.151260e+01
      vertex -3.588630e-15 2.100000e+01 1.484930e+01
    endloop
  endfacet
  facet normal 4.999999e-01 4.999999e-01 -7.071069e-01
    outer loop
      vertex 2.100000e+01 1.115730e-15 1.484930e+01
      vertex 3.980070e-15 -1.165730e-15 0.000000e+00
      vertex 1.286030e+01 3.420980e+00 1.151260e+01
    endloop
  endfacet
  facet normal 4.999999e-01 4.999999e-01 -7.071069e-01
    outer loop
      vertex 2.100000e+01 1.115730e-15 1.484930e+01
      vertex 1.286030e+01 3.420980e+00 1.151260e+01
      vertex 1.757900e+01 8.139740e+00 1.818590e+01
    endloop
  endfacet
  facet normal 4.999999e-01 4.999999e-01 -7.071069e-01
    outer loop
      vertex 2.100000e+01 1.115730e-15 1.484930e+01
      vertex 1.757900e+01 8.139740e+00 1.818590e+01
      vertex 2.100000e+01 2.100000e+01 2.969850e+01
    endloop
  endfacet
  facet normal 4.999999e-01 4.999999e-01 -7.071069e-01
    outer loop
      vertex 2.100000e+01 2.100000e+01 2.969850e+01
      vertex 8.139740e+00 1.757900e+01 1.818590e+01
      vertex -3.588630e-15 2.100000e+01 1.484930e+01
    endloop
  endfacet
  facet normal 5.570846e-01 3.713897e-01 -7.427828e-01
    outer loop
      vertex 1.286030e+01 3.420980e+00 1.151260e+01
      vertex 3.980070e-15 -1.165730e-15 0.000000e+00
      vertex 2.331470e-15 4.828630e-16 0.000000e+00
    endloop
  endfacet
  facet normal 4.999999e-01 4.999999e-01 -7.071069e-01
    outer loop
      vertex 1.286030e+01 3.420980e+00 1.151260e+01
      vertex 2.331470e-15 4.828630e-16 0.000000e+00
      vertex 3.420980e+00 1.286030e+01 1.151260e+01
    endloop
  endfacet
  facet normal 4.999999e-01 -4.999999e-01 -7.071069e-01
    outer loop
      vertex 3.420980e+00 -1.286030e+01 1.151260e+01
      vertex 3.980070e-15 -1.165730e-15 0.000000e+00
      vertex 1.286030e+01 -3.420980e+00 1.151260e+01
    endloop
  endfacet
  facet normal 4.999999e-01 -4.999999e-01 -7.071069e-01
    outer loop
      vertex 8.139740e+00 -1.757900e+01 1.818590e+01
      vertex 2.100000e+01 -2.100000e+01 2.969850e+01
      vertex 1.940030e-15 -2.100000e+01 1.484930e+01
    endloop
  endfacet
  facet normal 4.999999e-01 -4.999999e-01 -7.071069e-01
    outer loop
      vertex 3.420980e+00 -1.286030e+01 1.151260e+01
      vertex 8.139740e+00 -1.757900e+01 1.818590e+01
      vertex 1.940030e-15 -2.100000e+01 1.484930e+01
    endloop
  endfacet
  facet normal 4.999999e-01 -4.999999e-01 -7.071069e-01
    outer loop
      vertex 2.100000e+01 1.115730e-15 1.484930e+01
      vertex 2.100000e+01 -2.100000e+01 2.969850e+01
      vertex 1.757900e+01 -8.139740e+00 1.818590e+01
    endloop
  endfacet
  facet normal 4.999999e-01 -4.999999e-01 -7.071069e-01
    outer loop
      vertex 2.100000e+01 1.115730e-15 1.484930e+01
      vertex 1.757900e+01 -8.139740e+00 1.818590e+01
      vertex 1.286030e+01 -3.420980e+00 1.151260e+01
    endloop
  endfacet
  facet normal 4.999999e-01 -4.999999e-01 -7.071069e-01
    outer loop
      vertex 2.100000e+01 1.115730e-15 1.484930e+01
      vertex 1.286030e+01 -3.420980e+00 1.151260e+01
      vertex 3.980070e-15 -1.165730e-15 0.000000e+00
    endloop
  endfacet
  facet normal 4.999999e-01 -4.999999e-01 -7.071069e-01
    outer loop
      vertex 3.980070e-15 -1.165730e-15 0.000000e+00
      vertex 3.420980e+00 -1.286030e+01 1.151260e+01
      vertex 1.940030e-15 -2.100000e+01 1.484930e+01
    endloop
  endfacet
  facet normal 4.999999e-01 -4.999999e-01 -7.071069e-01
    outer loop
      vertex 1.757900e+01 -8.139740e+00 1.818590e+01
      vertex 2.100000e+01 -2.100000e+01 2.969850e+01
      vertex 8.139740e+00 -1.757900e+01 1.818590e+01
    endloop
  endfacet
  facet normal -7.071068e-01 -7.071068e-01 4.348319e-16
    outer loop
      vertex -1.286030e+01 -1.285850e+01 1.151260e+01
      vertex -1.285850e+01 -1.286030e+01 1.151260e+01
      vertex -8.139740e+00 -1.757900e+01 1.818590e+01
    endloop
  endfacet
  facet normal -7.071068e-01 -7.071068e-01 1.665650e-16
    outer loop
      vertex -1.757900e+01 -8.139740e+00 1.818590e+01
      vertex -1.286030e+01 -1.285850e+01 1.151260e+01
      vertex -8.139740e+00 -1.757900e+01 1.818590e+01
    endloop
  endfacet
  facet normal -8.164968e-01 -3.073669e-16 -5.773499e-01
    outer loop
      vertex -1.286030e+01 -3.420980e+00 1.151260e+01
      vertex -1.286030e+01 -1.285850e+01 1.151260e+01
      vertex -1.757900e+01 -8.139740e+00 1.818590e+01
    endloop
  endfacet
  facet normal -0.000000e+00 -0.000000e+00 -1.000000e+00
    outer loop
      vertex -1.285850e+01 -1.286030e+01 1.151260e+01
      vertex -1.286030e+01 -1.285850e+01 1.151260e+01
      vertex -3.420980e+00 -1.286030e+01 1.151260e+01
    endloop
  endfacet
  facet normal 0.000000e+00 0.000000e+00 -1.000000e+00
    outer loop
      vertex -3.420980e+00 -1.286030e+01 1.151260e+01
      vertex -1.286030e+01 -1.285850e+01 1.151260e+01
      vertex -1.286030e+01 -3.420980e+00 1.151260e+01
    endloop
  endfacet
  facet normal 0.000000e+00 -8.164968e-01 -5.773499e-01
    outer loop
      vertex -3.420980e+00 -1.286030e+01 1.151260e+01
      vertex -8.139740e+00 -1.757900e+01 1.818590e+01
      vertex -1.285850e+01 -1.286030e+01 1.151260e+01
    endloop
  endfacet
  facet normal 0.000000e+00 0.000000e+00 -1.000000e+00
    outer loop
      vertex -3.420980e+00 1.286030e+01 1.151260e+01
      vertex -1.286030e+01 3.420980e+00 1.151260e+01
      vertex -1.285850e+01 1.286030e+01 1.151260e+01
    endloop
  endfacet
  facet normal 0.000000e+00 0.000000e+00 -1.000000e+00
    outer loop
      vertex -1.285850e+01 1.286030e+01 1.151260e+01
      vertex -1.286030e+01 3.420980e+00 1.151260e+01
      vertex -1.286030e+01 1.285850e+01 1.151260e+01
    endloop
  endfacet
  facet normal -8.164968e-01 -3.073669e-16 -5.773499e-01
    outer loop
      vertex -1.286030e+01 1.285850e+01 1.151260e+01
      vertex -1.286030e+01 3.420980e+00 1.151260e+01
      vertex -1.757900e+01 8.139740e+00 1.818590e+01
    endloop
  endfacet
  facet normal -7.071068e-01 7.071068e-01 1.449440e-16
    outer loop
      vertex -1.285850e+01 1.286030e+01 1.151260e+01
      vertex -1.286030e+01 1.285850e+01 1.151260e+01
      vertex -8.139740e+00 1.757900e+01 1.818590e+01
    endloop
  endfacet
  facet normal -7.071068e-01 7.071068e-01 5.552149e-16
    outer loop
      vertex -8.139740e+00 1.757900e+01 1.818590e+01
      vertex -1.286030e+01 1.285850e+01 1.151260e+01
      vertex -1.757900e+01 8.139740e+00 1.818590e+01
    endloop
  endfacet
  facet normal 0.000000e+00 8.164968e-01 -5.773499e-01
    outer loop
      vertex -8.139740e+00 1.757900e+01 1.818590e+01
      vertex -3.420980e+00 1.286030e+01 1.151260e+01
      vertex -1.285850e+01 1.286030e+01 1.151260e+01
    endloop
  endfacet
  facet normal 1.000000e+00 3.383537e-16 0.000000e+00
    outer loop
      vertex 2.100000e+01 8.242990e-16 4.454770e+01
      vertex 2.100000e+01 -2.100000e+01 2.969850e+01
      vertex 2.100000e+01 -2.100000e+01 2.969850e+01
    endloop
  endfacet
  facet normal 1.000000e+00 5.717100e-16 -3.300150e-16
    outer loop
      vertex 2.100000e+01 -4.718760e+00 3.637308e+01
      vertex 2.100000e+01 8.242990e-16 4.454770e+01
      vertex 2.100000e+01 -2.100000e+01 2.969850e+01
    endloop
  endfacet
  facet normal 1.000000e+00 1.691768e-16 3.803236e-25
    outer loop
      vertex 2.100000e+01 2.100000e+01 2.969850e+01
      vertex 2.100000e+01 8.242990e-16 4.454770e+01
      vertex 2.100000e+01 2.100000e+01 2.969850e+01
    endloop
  endfacet
  facet normal 1.000000e+00 2.858550e-16 1.650080e-16
    outer loop
      vertex 2.100000e+01 2.100000e+01 2.969850e+01
      vertex 2.100000e+01 8.242990e-16 4.454770e+01
      vertex 2.100000e+01 4.718760e+00 3.637308e+01
    endloop
  endfacet
  facet normal 1.000000e+00 5.717100e-16 -3.300150e-16
    outer loop
      vertex 2.100000e+01 2.100000e+01 2.969850e+01
      vertex 2.100000e+01 4.718760e+00 2.302392e+01
      vertex 2.100000e+01 1.115730e-15 1.484930e+01
    endloop
  endfacet
  facet normal 1.000000e+00 3.273140e-16 2.661370e-16
    outer loop
      vertex 2.100000e+01 2.100000e+01 2.969850e+01
      vertex 2.100000e+01 4.718760e+00 3.637308e+01
      vertex 2.100000e+01 4.718760e+00 2.302392e+01
    endloop
  endfacet
  facet normal 1.000000e+00 2.858550e-16 1.650080e-16
    outer loop
      vertex 2.100000e+01 1.115730e-15 1.484930e+01
      vertex 2.100000e+01 -4.718760e+00 2.302392e+01
      vertex 2.100000e+01 -2.100000e+01 2.969850e+01
    endloop
  endfacet
  facet normal 1.000000e+00 0.000000e+00 0.000000e+00
    outer loop
      vertex 2.100000e+01 4.718760e+00 2.302392e+01
      vertex 2.100000e+01 -4.718760e+00 2.302392e+01
      vertex 2.100000e+01 1.115730e-15 1.484930e+01
    endloop
  endfacet
  facet normal 1.000000e+00 3.273140e-16 2.661370e-16
    outer loop
      vertex 2.100000e+01 -4.718760e+00 2.302392e+01
      vertex 2.100000e+01 -4.718760e+00 3.637308e+01
      vertex 2.100000e+01 -2.100000e+01 2.969850e+01
    endloop
  endfacet
  facet normal 1.000000e+00 0.000000e+00 0.000000e+00
    outer loop
      vertex 2.100000e+01 -4.718760e+00 3.637308e+01
      vertex 2.100000e+01 4.718760e+00 3.637308e+01
      vertex 2.100000e+01 8.242990e-16 4.454770e+01
    endloop
  endfacet
  facet normal 5.000004e-01 5.000004e-01 7.071062e-01
    outer loop
      vertex -4.828630e-16 4.828630e-16 5.939700e+01
      vertex 4.828630e-16 -4.828630e-16 5.939700e+01
      vertex 2.100000e+01 8.242990e-16 4.454770e+01
    endloop
  endfacet
  facet normal 4.999999e-01 4.999999e-01 7.071069e-01
    outer loop
      vertex 1.286030e+01 3.420980e+00 4.788440e+01
      vertex -4.828630e-16 4.828630e-16 5.939700e+01
      vertex 2.100000e+01 8.242990e-16 4.454770e+01
    endloop
  endfacet
  facet normal 4.999999e-01 4.999999e-01 7.071069e-01
    outer loop
      vertex -2.181460e-15 2.100000e+01 4.454770e+01
      vertex 8.139740e+00 1.757900e+01 4.121110e+01
      vertex 2.100000e+01 2.100000e+01 2.969850e+01
    endloop
  endfacet
  facet normal 4.999999e-01 4.999999e-01 7.071069e-01
    outer loop
      vertex 2.100000e+01 2.100000e+01 2.969850e+01
      vertex 1.757900e+01 8.139740e+00 4.121110e+01
      vertex 2.100000e+01 8.242990e-16 4.454770e+01
    endloop
  endfacet
  facet normal 4.999999e-01 4.999999e-01 7.071069e-01
    outer loop
      vertex 1.757900e+01 8.139740e+00 4.121110e+01
      vertex 1.286030e+01 3.420980e+00 4.788440e+01
      vertex 2.100000e+01 8.242990e-16 4.454770e+01
    endloop
  endfacet
  facet normal 4.999999e-01 4.999999e-01 7.071069e-01
    outer loop
      vertex -2.181460e-15 2.100000e+01 4.454770e+01
      vertex 3.420980e+00 1.286030e+01 4.788440e+01
      vertex 8.139740e+00 1.757900e+01 4.121110e+01
    endloop
  endfacet
  facet normal 4.999999e-01 4.999999e-01 7.071069e-01
    outer loop
      vertex -2.181460e-15 2.100000e+01 4.454770e+01
      vertex -4.828630e-16 4.828630e-16 5.939700e+01
      vertex 3.420980e+00 1.286030e+01 4.788440e+01
    endloop
  endfacet
  facet normal 4.999999e-01 4.999999e-01 7.071069e-01
    outer loop
      vertex 8.139740e+00 1.757900e+01 4.121110e+01
      vertex 1.757900e+01 8.139740e+00 4.121110e+01
      vertex 2.100000e+01 2.100000e+01 2.969850e+01
    endloop
  endfacet
  facet normal 4.999999e-01 4.999999e-01 7.071069e-01
    outer loop
      vertex 1.286030e+01 3.420980e+00 4.788440e+01
      vertex 3.420980e+00 1.286030e+01 4.788440e+01
      vertex -4.828630e-16 4.828630e-16 5.939700e+01
    endloop
  endfacet
  facet normal 0.000000e+00 8.164968e-01 -5.773499e-01
    outer loop
      vertex -5.047570e-15 2.571880e+01 2.969725e+01
      vertex 4.718760e+00 2.100000e+01 2.302392e+01
      vertex -4.718760e+00 2.100000e+01 2.302392e+01
    endloop
  endfacet
  facet normal -7.071068e-01 7.071068e-01 -1.962619e-17
    outer loop
      vertex -5.047640e-15 2.571880e+01 2.969975e+01
      vertex -5.047570e-15 2.571880e+01 2.969725e+01
      vertex -4.718760e+00 2.100000e+01 3.637308e+01
    endloop
  endfacet
  facet normal -7.071068e-01 7.071068e-01 2.352349e-16
    outer loop
      vertex -4.718760e+00 2.100000e+01 3.637308e+01
      vertex -5.047570e-15 2.571880e+01 2.969725e+01
      vertex -4.718760e+00 2.100000e+01 2.302392e+01
    endloop
  endfacet
  facet normal 0.000000e+00 8.164968e-01 5.773499e-01
    outer loop
      vertex 4.718760e+00 2.100000e+01 3.637308e+01
      vertex -5.047640e-15 2.571880e+01 2.969975e+01
      vertex -4.718760e+00 2.100000e+01 3.637308e+01
    endloop
  endfacet
  facet normal 7.071068e-01 7.071068e-01 2.822809e-16
    outer loop
      vertex 4.718760e+00 2.100000e+01 2.302392e+01
      vertex -5.047570e-15 2.571880e+01 2.969725e+01
      vertex 4.718760e+00 2.100000e+01 3.637308e+01
    endloop
  endfacet
  facet normal 7.071068e-01 7.071068e-01 0.000000e+00
    outer loop
      vertex 4.718760e+00 2.100000e+01 3.637308e+01
      vertex -5.047570e-15 2.571880e+01 2.969725e+01
      vertex -5.047640e-15 2.571880e+01 2.969975e+01
    endloop
  endfacet
  facet normal -8.164968e-01 0.000000e+00 5.773499e-01
    outer loop
      vertex -1.286030e+01 3.420980e+00 4.788440e+01
      vertex -1.286030e+01 1.285850e+01 4.788440e+01
      vertex -1.757900e+01 8.139740e+00 4.121110e+01
    endloop
  endfacet
  facet normal -7.071068e-01 7.071068e-01 5.073039e-16
    outer loop
      vertex -1.285850e+01 1.286030e+01 4.788440e+01
      vertex -8.139740e+00 1.757900e+01 4.121110e+01
      vertex -1.286030e+01 1.285850e+01 4.788440e+01
    endloop
  endfacet
  facet normal -7.071068e-01 7.071068e-01 1.665019e-16
    outer loop
      vertex -1.286030e+01 1.285850e+01 4.788440e+01
      vertex -8.139740e+00 1.757900e+01 4.121110e+01
      vertex -1.757900e+01 8.139740e+00 4.121110e+01
    endloop
  endfacet
  facet normal 0.000000e+00 0.000000e+00 1.000000e+00
    outer loop
      vertex -3.420980e+00 1.286030e+01 4.788440e+01
      vertex -1.285850e+01 1.286030e+01 4.788440e+01
      vertex -1.286030e+01 1.285850e+01 4.788440e+01
    endloop
  endfacet
  facet normal 0.000000e+00 0.000000e+00 1.000000e+00
    outer loop
      vertex -1.286030e+01 3.420980e+00 4.788440e+01
      vertex -3.420980e+00 1.286030e+01 4.788440e+01
      vertex -1.286030e+01 1.285850e+01 4.788440e+01
    endloop
  endfacet
  facet normal 0.000000e+00 8.164968e-01 5.773499e-01
    outer loop
      vertex -3.420980e+00 1.286030e+01 4.788440e+01
      vertex -8.139740e+00 1.757900e+01 4.121110e+01
      vertex -1.285850e+01 1.286030e+01 4.788440e+01
    endloop
  endfacet
  facet normal 4.999999e-01 -4.999999e-01 7.071069e-01
    outer loop
      vertex 1.757900e+01 -8.139740e+00 4.121110e+01
      vertex 2.100000e+01 -2.100000e+01 2.969850e+01
      vertex 2.100000e+01 8.242990e-16 4.454770e+01
    endloop
  endfacet
  facet normal 4.999999e-01 -4.999999e-01 7.071069e-01
    outer loop
      vertex 4.828630e-16 -4.828630e-16 5.939700e+01
      vertex 1.115730e-15 -2.100000e+01 4.454770e+01
      vertex 3.420980e+00 -1.286030e+01 4.788440e+01
    endloop
  endfacet
  facet normal 4.999999e-01 -4.999999e-01 7.071069e-01
    outer loop
      vertex 4.828630e-16 -4.828630e-16 5.939700e+01
      vertex 1.286030e+01 -3.420980e+00 4.788440e+01
      vertex 2.100000e+01 8.242990e-16 4.454770e+01
    endloop
  endfacet
  facet normal 4.999999e-01 -4.999999e-01 7.071069e-01
    outer loop
      vertex 4.828630e-16 -4.828630e-16 5.939700e+01
      vertex 3.420980e+00 -1.286030e+01 4.788440e+01
      vertex 1.286030e+01 -3.420980e+00 4.788440e+01
    endloop
  endfacet
  facet normal 4.999999e-01 -4.999999e-01 7.071069e-01
    outer loop
      vertex 1.286030e+01 -3.420980e+00 4.788440e+01
      vertex 1.757900e+01 -8.139740e+00 4.121110e+01
      vertex 2.100000e+01 8.242990e-16 4.454770e+01
    endloop
  endfacet
  facet normal 4.999999e-01 -4.999999e-01 7.071069e-01
    outer loop
      vertex 8.139740e+00 -1.757900e+01 4.121110e+01
      vertex 2.100000e+01 -2.100000e+01 2.969850e+01
      vertex 1.757900e+01 -8.139740e+00 4.121110e+01
    endloop
  endfacet
  facet normal 4.999999e-01 -4.999999e-01 7.071069e-01
    outer loop
      vertex 1.115730e-15 -2.100000e+01 4.454770e+01
      vertex 2.100000e+01 -2.100000e+01 2.969850e+01
      vertex 8.139740e+00 -1.757900e+01 4.121110e+01
    endloop
  endfacet
  facet normal 4.999999e-01 -4.999999e-01 7.071069e-01
    outer loop
      vertex 8.139740e+00 -1.757900e+01 4.121110e+01
      vertex 3.420980e+00 -1.286030e+01 4.788440e+01
      vertex 1.115730e-15 -2.100000e+01 4.454770e+01
    endloop
  endfacet
  facet normal -8.164968e-01 0.000000e+00 5.773499e-01
    outer loop
      vertex -1.286030e+01 -1.285850e+01 4.788440e+01
      vertex -1.286030e+01 -3.420980e+00 4.788440e+01
      vertex -1.757900e+01 -8.139740e+00 4.121110e+01
    endloop
  endfacet
  facet normal 0.000000e+00 0.000000e+00 1.000000e+00
    outer loop
      vertex -1.285850e+01 -1.286030e+01 4.788440e+01
      vertex -3.420980e+00 -1.286030e+01 4.788440e+01
      vertex -1.286030e+01 -3.420980e+00 4.788440e+01
    endloop
  endfacet
  facet normal 0.000000e+00 0.000000e+00 1.000000e+00
    outer loop
      vertex -1.286030e+01 -1.285850e+01 4.788440e+01
      vertex -1.285850e+01 -1.286030e+01 4.788440e+01
      vertex -1.286030e+01 -3.420980e+00 4.788440e+01
    endloop
  endfacet
  facet normal -7.071068e-01 -7.071068e-01 -2.968459e-13
    outer loop
      vertex -8.139740e+00 -1.757900e+01 4.121110e+01
      vertex -1.285850e+01 -1.286030e+01 4.788440e+01
      vertex -1.286030e+01 -1.285850e+01 4.788440e+01
    endloop
  endfacet
  facet normal -7.071068e-01 -7.071068e-01 1.110430e-16
    outer loop
      vertex -1.757900e+01 -8.139740e+00 4.121110e+01
      vertex -8.139740e+00 -1.757900e+01 4.121110e+01
      vertex -1.286030e+01 -1.285850e+01 4.788440e+01
    endloop
  endfacet
  facet normal 0.000000e+00 -8.164968e-01 5.773499e-01
    outer loop
      vertex -8.139740e+00 -1.757900e+01 4.121110e+01
      vertex -3.420980e+00 -1.286030e+01 4.788440e+01
      vertex -1.285850e+01 -1.286030e+01 4.788440e+01
    endloop
  endfacet
  facet normal 0.000000e+00 -8.164968e-01 5.773499e-01
    outer loop
      vertex 1.009520e-15 -2.571880e+01 2.969975e+01
      vertex 4.718760e+00 -2.100000e+01 3.637308e+01
      vertex -4.718760e+00 -2.100000e+01 3.637308e+01
    endloop
  endfacet
  facet normal -7.071068e-01 -7.071068e-01 0.000000e+00
    outer loop
      vertex -4.718760e+00 -2.100000e+01 2.302392e+01
      vertex 1.009520e-15 -2.571880e+01 2.969725e+01
      vertex 1.009520e-15 -2.571880e+01 2.969975e+01
    endloop
  endfacet
  facet normal -7.071068e-01 -7.071068e-01 9.409377e-17
    outer loop
      vertex -4.718760e+00 -2.100000e+01 3.637308e+01
      vertex -4.718760e+00 -2.100000e+01 2.302392e+01
      vertex 1.009520e-15 -2.571880e+01 2.969975e+01
    endloop
  endfacet
  facet normal 0.000000e+00 -8.164968e-01 -5.773499e-01
    outer loop
      vertex 4.718760e+00 -2.100000e+01 2.302392e+01
      vertex 1.009520e-15 -2.571880e+01 2.969725e+01
      vertex -4.718760e+00 -2.100000e+01 2.302392e+01
    endloop
  endfacet
  facet normal 7.071068e-01 -7.071068e-01 1.110850e-16
    outer loop
      vertex 1.009520e-15 -2.571880e+01 2.969725e+01
      vertex 4.718760e+00 -2.100000e+01 2.302392e+01
      vertex 4.718760e+00 -2.100000e+01 3.637308e+01
    endloop
  endfacet
  facet normal 7.071068e-01 -7.071068e-01 0.000000e+00
    outer loop
      vertex 1.009520e-15 -2.571880e+01 2.969975e+01
      vertex 1.009520e-15 -2.571880e+01 2.969725e+01
      vertex 4.718760e+00 -2.100000e+01 3.637308e+01
    endloop
  endfacet
  facet normal 0.000000e+00 0.000000e+00 -1.000000e+00
    outer loop
      vertex 1.286030e+01 1.285850e+01 1.151260e+01
      vertex 1.286030e+01 3.420980e+00 1.151260e+01
      vertex 1.285850e+01 1.286030e+01 1.151260e+01
    endloop
  endfacet
  facet normal 0.000000e+00 0.000000e+00 -1.000000e+00
    outer loop
      vertex 1.285850e+01 1.286030e+01 1.151260e+01
      vertex 1.286030e+01 3.420980e+00 1.151260e+01
      vertex 3.420980e+00 1.286030e+01 1.151260e+01
    endloop
  endfacet
  facet normal 0.000000e+00 8.164968e-01 -5.773499e-01
    outer loop
      vertex 8.139740e+00 1.757900e+01 1.818590e+01
      vertex 1.285850e+01 1.286030e+01 1.151260e+01
      vertex 3.420980e+00 1.286030e+01 1.151260e+01
    endloop
  endfacet
  facet normal 7.071068e-01 7.071068e-01 2.174159e-16
    outer loop
      vertex 1.286030e+01 1.285850e+01 1.151260e+01
      vertex 1.285850e+01 1.286030e+01 1.151260e+01
      vertex 1.757900e+01 8.139740e+00 1.818590e+01
    endloop
  endfacet
  facet normal 7.071068e-01 7.071068e-01 5.552149e-16
    outer loop
      vertex 1.757900e+01 8.139740e+00 1.818590e+01
      vertex 1.285850e+01 1.286030e+01 1.151260e+01
      vertex 8.139740e+00 1.757900e+01 1.818590e+01
    endloop
  endfacet
  facet normal 8.164968e-01 0.000000e+00 -5.773499e-01
    outer loop
      vertex 1.757900e+01 8.139740e+00 1.818590e+01
      vertex 1.286030e+01 3.420980e+00 1.151260e+01
      vertex 1.286030e+01 1.285850e+01 1.151260e+01
    endloop
  endfacet
  facet normal 0.000000e+00 -8.164968e-01 -5.773499e-01
    outer loop
      vertex 1.285850e+01 -1.286030e+01 1.151260e+01
      vertex 8.139740e+00 -1.757900e+01 1.818590e+01
      vertex 3.420980e+00 -1.286030e+01 1.151260e+01
    endloop
  endfacet
  facet normal 7.071068e-01 -7.071068e-01 1.449440e-16
    outer loop
      vertex 1.285850e+01 -1.286030e+01 1.151260e+01
      vertex 1.286030e+01 -1.285850e+01 1.151260e+01
      vertex 1.757900e+01 -8.139740e+00 1.818590e+01
    endloop
  endfacet
  facet normal 7.071068e-01 -7.071068e-01 1.110430e-16
    outer loop
      vertex 8.139740e+00 -1.757900e+01 1.818590e+01
      vertex 1.285850e+01 -1.286030e+01 1.151260e+01
      vertex 1.757900e+01 -8.139740e+00 1.818590e+01
    endloop
  endfacet
  facet normal 0.000000e+00 0.000000e+00 -1.000000e+00
    outer loop
      vertex 1.286030e+01 -1.285850e+01 1.151260e+01
      vertex 1.285850e+01 -1.286030e+01 1.151260e+01
      vertex 1.286030e+01 -3.420980e+00 1.151260e+01
    endloop
  endfacet
  facet normal 0.000000e+00 0.000000e+00 -1.000000e+00
    outer loop
      vertex 1.286030e+01 -3.420980e+00 1.151260e+01
      vertex 1.285850e+01 -1.286030e+01 1.151260e+01
      vertex 3.420980e+00 -1.286030e+01 1.151260e+01
    endloop
  endfacet
  facet normal 8.164968e-01 0.000000e+00 -5.773499e-01
    outer loop
      vertex 1.757900e+01 -8.139740e+00 1.818590e+01
      vertex 1.286030e+01 -1.285850e+01 1.151260e+01
      vertex 1.286030e+01 -3.420980e+00 1.151260e+01
    endloop
  endfacet
  facet normal 8.164968e-01 1.086710e-16 5.773499e-01
    outer loop
      vertex 2.100000e+01 -4.718760e+00 3.637308e+01
      vertex 2.571880e+01 2.018900e-15 2.969975e+01
      vertex 2.100000e+01 4.718760e+00 3.637308e+01
    endloop
  endfacet
  facet normal 7.071068e-01 7.071068e-01 1.005940e-12
    outer loop
      vertex 2.571880e+01 2.019180e-15 2.969725e+01
      vertex 2.100000e+01 4.718760e+00 2.302392e+01
      vertex 2.571880e+01 2.018900e-15 2.969975e+01
    endloop
  endfacet
  facet normal 7.071068e-01 7.071068e-01 2.777119e-16
    outer loop
      vertex 2.571880e+01 2.018900e-15 2.969975e+01
      vertex 2.100000e+01 4.718760e+00 2.302392e+01
      vertex 2.100000e+01 4.718760e+00 3.637308e+01
    endloop
  endfacet
  facet normal 7.071068e-01 -7.071068e-01 1.039060e-12
    outer loop
      vertex 2.100000e+01 -4.718760e+00 2.302392e+01
      vertex 2.571880e+01 2.019180e-15 2.969725e+01
      vertex 2.571880e+01 2.018900e-15 2.969975e+01
    endloop
  endfacet
  facet normal 7.071068e-01 -7.071068e-01 9.409377e-17
    outer loop
      vertex 2.100000e+01 -4.718760e+00 3.637308e+01
      vertex 2.100000e+01 -4.718760e+00 2.302392e+01
      vertex 2.571880e+01 2.018900e-15 2.969975e+01
    endloop
  endfacet
  facet normal 8.164968e-01 -6.409879e-17 -5.773499e-01
    outer loop
      vertex 2.571880e+01 2.019180e-15 2.969725e+01
      vertex 2.100000e+01 -4.718760e+00 2.302392e+01
      vertex 2.100000e+01 4.718760e+00 2.302392e+01
    endloop
  endfacet
  facet normal 7.071068e-01 7.071068e-01 2.174159e-16
    outer loop
      vertex 1.286030e+01 1.285850e+01 4.788440e+01
      vertex 1.757900e+01 8.139740e+00 4.121110e+01
      vertex 1.285850e+01 1.286030e+01 4.788440e+01
    endloop
  endfacet
  facet normal 7.071068e-01 7.071068e-01 5.550079e-17
    outer loop
      vertex 1.285850e+01 1.286030e+01 4.788440e+01
      vertex 1.757900e+01 8.139740e+00 4.121110e+01
      vertex 8.139740e+00 1.757900e+01 4.121110e+01
    endloop
  endfacet
  facet normal 0.000000e+00 8.164968e-01 5.773499e-01
    outer loop
      vertex 1.285850e+01 1.286030e+01 4.788440e+01
      vertex 8.139740e+00 1.757900e+01 4.121110e+01
      vertex 3.420980e+00 1.286030e+01 4.788440e+01
    endloop
  endfacet
  facet normal 0.000000e+00 0.000000e+00 1.000000e+00
    outer loop
      vertex 1.286030e+01 3.420980e+00 4.788440e+01
      vertex 1.286030e+01 1.285850e+01 4.788440e+01
      vertex 1.285850e+01 1.286030e+01 4.788440e+01
    endloop
  endfacet
  facet normal 0.000000e+00 0.000000e+00 1.000000e+00
    outer loop
      vertex 3.420980e+00 1.286030e+01 4.788440e+01
      vertex 1.286030e+01 3.420980e+00 4.788440e+01
      vertex 1.285850e+01 1.286030e+01 4.788440e+01
    endloop
  endfacet
  facet normal 8.164968e-01 3.073669e-16 5.773499e-01
    outer loop
      vertex 1.286030e+01 3.420980e+00 4.788440e+01
      vertex 1.757900e+01 8.139740e+00 4.121110e+01
      vertex 1.286030e+01 1.285850e+01 4.788440e+01
    endloop
  endfacet
  facet normal 0.000000e+00 0.000000e+00 1.000000e+00
    outer loop
      vertex 1.285850e+01 -1.286030e+01 4.788440e+01
      vertex 1.286030e+01 -1.285850e+01 4.788440e+01
      vertex 1.286030e+01 -3.420980e+00 4.788440e+01
    endloop
  endfacet
  facet normal 0.000000e+00 0.000000e+00 1.000000e+00
    outer loop
      vertex 3.420980e+00 -1.286030e+01 4.788440e+01
      vertex 1.285850e+01 -1.286030e+01 4.788440e+01
      vertex 1.286030e+01 -3.420980e+00 4.788440e+01
    endloop
  endfacet
  facet normal 1.922960e-16 -8.164968e-01 5.773499e-01
    outer loop
      vertex 8.139740e+00 -1.757900e+01 4.121110e+01
      vertex 1.285850e+01 -1.286030e+01 4.788440e+01
      vertex 3.420980e+00 -1.286030e+01 4.788440e+01
    endloop
  endfacet
  facet normal 7.071068e-01 -7.071068e-01 -2.968459e-13
    outer loop
      vertex 1.757900e+01 -8.139740e+00 4.121110e+01
      vertex 1.286030e+01 -1.285850e+01 4.788440e+01
      vertex 1.285850e+01 -1.286030e+01 4.788440e+01
    endloop
  endfacet
  facet normal 7.071068e-01 -7.071068e-01 2.776079e-16
    outer loop
      vertex 8.139740e+00 -1.757900e+01 4.121110e+01
      vertex 1.757900e+01 -8.139740e+00 4.121110e+01
      vertex 1.285850e+01 -1.286030e+01 4.788440e+01
    endloop
  endfacet
  facet normal 8.164968e-01 3.073669e-16 5.773499e-01
    outer loop
      vertex 1.286030e+01 -1.285850e+01 4.788440e+01
      vertex 1.757900e+01 -8.139740e+00 4.121110e+01
      vertex 1.286030e+01 -3.420980e+00 4.788440e+01
    endloop
  endfacet
endsolid Default
