solid Default
  facet normal 5.832403e-01 -6.348644e-01 -5.067326e-01
    outer loop
      vertex 4.684233e+00 -2.891742e+01 2.594919e+01
      vertex 4.684233e+00 -2.891742e+01 2.594919e+01
      vertex 3.004138e+00 -1.433687e+01 5.748047e+00
    endloop
  endfacet
  facet normal 5.832399e-01 -6.348646e-01 -5.067329e-01
    outer loop
      vertex 8.028868e+00 -1.574857e+01 1.330008e+01
      vertex 4.684233e+00 -2.891742e+01 2.594919e+01
      vertex 3.004138e+00 -1.433687e+01 5.748047e+00
    endloop
  endfacet
  facet normal 5.832399e-01 -6.348646e-01 -5.067329e-01
    outer loop
      vertex 3.075011e+01 -4.971135e+00 2.594922e+01
      vertex 1.734554e+01 -7.189510e+00 1.330010e+01
      vertex 1.636409e+01 -2.063312e+00 5.748047e+00
    endloop
  endfacet
  facet normal 5.832399e-01 -6.348646e-01 -5.067329e-01
    outer loop
      vertex 1.636409e+01 -2.063312e+00 5.748047e+00
      vertex 1.091330e+01 -9.538060e+00 8.839104e+00
      vertex 3.004138e+00 -1.433687e+01 5.748047e+00
    endloop
  endfacet
  facet normal 5.832399e-01 -6.348646e-01 -5.067329e-01
    outer loop
      vertex 1.091330e+01 -9.538060e+00 8.839104e+00
      vertex 8.028868e+00 -1.574857e+01 1.330008e+01
      vertex 3.004138e+00 -1.433687e+01 5.748047e+00
    endloop
  endfacet
  facet normal 5.832399e-01 -6.348646e-01 -5.067329e-01
    outer loop
      vertex 3.075011e+01 -4.971135e+00 2.594922e+01
      vertex 1.579646e+01 -1.485353e+01 2.111909e+01
      vertex 1.734554e+01 -7.189510e+00 1.330010e+01
    endloop
  endfacet
  facet normal 5.832399e-01 -6.348646e-01 -5.067329e-01
    outer loop
      vertex 3.075011e+01 -4.971135e+00 2.594922e+01
      vertex 4.684233e+00 -2.891742e+01 2.594919e+01
      vertex 1.579646e+01 -1.485353e+01 2.111909e+01
    endloop
  endfacet
  facet normal 5.832399e-01 -6.348646e-01 -5.067329e-01
    outer loop
      vertex 1.734554e+01 -7.189510e+00 1.330010e+01
      vertex 1.091330e+01 -9.538060e+00 8.839104e+00
      vertex 1.636409e+01 -2.063312e+00 5.748047e+00
    endloop
  endfacet
  facet normal 5.832399e-01 -6.348646e-01 -5.067329e-01
    outer loop
      vertex 8.028868e+00 -1.574857e+01 1.330008e+01
      vertex 1.579646e+01 -1.485353e+01 2.111909e+01
      vertex 4.684233e+00 -2.891742e+01 2.594919e+01
    endloop
  endfacet
  facet normal 5.832398e-01 -6.348659e-01 5.067313e-01
    outer loop
      vertex 1.091330e+01 -9.538103e+00 4.305927e+01
      vertex 1.636405e+01 -2.063367e+00 4.615038e+01
      vertex 3.004137e+00 -1.433692e+01 4.615037e+01
    endloop
  endfacet
  facet normal 5.832402e-01 -6.348658e-01 5.067310e-01
    outer loop
      vertex 3.075011e+01 -4.971135e+00 2.594922e+01
      vertex 3.075011e+01 -4.971124e+00 2.594923e+01
      vertex 4.684233e+00 -2.891742e+01 2.594919e+01
    endloop
  endfacet
  facet normal 5.832398e-01 -6.348659e-01 5.067313e-01
    outer loop
      vertex 4.684233e+00 -2.891742e+01 2.594919e+01
      vertex 3.075011e+01 -4.971124e+00 2.594923e+01
      vertex 1.579650e+01 -1.485354e+01 3.077931e+01
    endloop
  endfacet
  facet normal 5.832398e-01 -6.348659e-01 5.067313e-01
    outer loop
      vertex 4.684233e+00 -2.891742e+01 2.594919e+01
      vertex 8.028883e+00 -1.574860e+01 3.859830e+01
      vertex 3.004137e+00 -1.433692e+01 4.615037e+01
    endloop
  endfacet
  facet normal 5.832398e-01 -6.348659e-01 5.067313e-01
    outer loop
      vertex 4.684233e+00 -2.891742e+01 2.594919e+01
      vertex 1.579650e+01 -1.485354e+01 3.077931e+01
      vertex 8.028883e+00 -1.574860e+01 3.859830e+01
    endloop
  endfacet
  facet normal 5.832398e-01 -6.348659e-01 5.067313e-01
    outer loop
      vertex 8.028883e+00 -1.574860e+01 3.859830e+01
      vertex 1.091330e+01 -9.538103e+00 4.305927e+01
      vertex 3.004137e+00 -1.433692e+01 4.615037e+01
    endloop
  endfacet
  facet normal 5.832398e-01 -6.348659e-01 5.067313e-01
    outer loop
      vertex 1.734556e+01 -7.189540e+00 3.859835e+01
      vertex 1.636405e+01 -2.063367e+00 4.615038e+01
      vertex 1.091330e+01 -9.538103e+00 4.305927e+01
    endloop
  endfacet
  facet normal 5.832398e-01 -6.348659e-01 5.067313e-01
    outer loop
      vertex 3.075011e+01 -4.971124e+00 2.594923e+01
      vertex 1.636405e+01 -2.063367e+00 4.615038e+01
      vertex 1.734556e+01 -7.189540e+00 3.859835e+01
    endloop
  endfacet
  facet normal 5.832398e-01 -6.348659e-01 5.067313e-01
    outer loop
      vertex 1.734556e+01 -7.189540e+00 3.859835e+01
      vertex 1.579650e+01 -1.485354e+01 3.077931e+01
      vertex 3.075011e+01 -4.971124e+00 2.594923e+01
    endloop
  endfacet
  facet normal 7.840236e-01 3.585105e-01 -5.067319e-01
    outer loop
      vertex 1.925941e+01 2.279224e+00 1.330011e+01
      vertex 1.636409e+01 -2.063312e+00 5.748047e+00
      vertex 1.424427e+01 6.941619e+00 8.839153e+00
    endloop
  endfacet
  facet normal 7.840236e-01 3.585105e-01 -5.067319e-01
    outer loop
      vertex 2.080847e+01 9.943228e+00 2.111914e+01
      vertex 1.603073e+01 2.721884e+01 2.594925e+01
      vertex 3.075011e+01 -4.971124e+00 2.594923e+01
    endloop
  endfacet
  facet normal 7.840235e-01 3.585105e-01 -5.067322e-01
    outer loop
      vertex 1.636409e+01 -2.063312e+00 5.748047e+00
      vertex 3.075011e+01 -4.971124e+00 2.594923e+01
      vertex 3.075011e+01 -4.971135e+00 2.594922e+01
    endloop
  endfacet
  facet normal 7.840236e-01 3.585105e-01 -5.067319e-01
    outer loop
      vertex 1.925941e+01 2.279224e+00 1.330011e+01
      vertex 2.080847e+01 9.943228e+00 2.111914e+01
      vertex 3.075011e+01 -4.971124e+00 2.594923e+01
    endloop
  endfacet
  facet normal 7.840236e-01 3.585105e-01 -5.067319e-01
    outer loop
      vertex 8.819644e+00 1.443547e+01 5.748007e+00
      vertex 1.603072e+01 2.721884e+01 2.594924e+01
      vertex 1.399825e+01 1.378478e+01 1.330014e+01
    endloop
  endfacet
  facet normal 7.840236e-01 3.585105e-01 -5.067319e-01
    outer loop
      vertex 8.819644e+00 1.443547e+01 5.748007e+00
      vertex 1.399825e+01 1.378478e+01 1.330014e+01
      vertex 1.424427e+01 6.941619e+00 8.839153e+00
    endloop
  endfacet
  facet normal 7.840236e-01 3.585105e-01 -5.067319e-01
    outer loop
      vertex 8.819644e+00 1.443547e+01 5.748007e+00
      vertex 1.424427e+01 6.941619e+00 8.839153e+00
      vertex 1.636409e+01 -2.063312e+00 5.748047e+00
    endloop
  endfacet
  facet normal 7.840236e-01 3.585105e-01 -5.067319e-01
    outer loop
      vertex 1.636409e+01 -2.063312e+00 5.748047e+00
      vertex 1.925941e+01 2.279224e+00 1.330011e+01
      vertex 3.075011e+01 -4.971124e+00 2.594923e+01
    endloop
  endfacet
  facet normal 7.840236e-01 3.585105e-01 -5.067319e-01
    outer loop
      vertex 1.399825e+01 1.378478e+01 1.330014e+01
      vertex 1.603072e+01 2.721884e+01 2.594924e+01
      vertex 1.603073e+01 2.721884e+01 2.594925e+01
    endloop
  endfacet
  facet normal 7.840236e-01 3.585105e-01 -5.067319e-01
    outer loop
      vertex 1.399825e+01 1.378478e+01 1.330014e+01
      vertex 1.603073e+01 2.721884e+01 2.594925e+01
      vertex 2.080847e+01 9.943228e+00 2.111914e+01
    endloop
  endfacet
  facet normal -4.235624e-01 -7.508785e-01 5.067311e-01
    outer loop
      vertex -1.258699e+01 -1.063863e+01 3.859833e+01
      vertex -1.279712e+01 -5.423593e+00 4.615049e+01
      vertex -2.614490e+01 -1.152707e+01 2.594925e+01
    endloop
  endfacet
  facet normal -4.235624e-01 -7.508785e-01 5.067311e-01
    outer loop
      vertex -9.335428e+00 -1.774946e+01 3.077932e+01
      vertex -2.614490e+01 -1.152707e+01 2.594925e+01
      vertex -2.614481e+01 -1.152707e+01 2.594921e+01
    endloop
  endfacet
  facet normal -4.235629e-01 -7.508784e-01 5.067309e-01
    outer loop
      vertex 4.684233e+00 -2.891742e+01 2.594919e+01
      vertex 3.004137e+00 -1.433692e+01 4.615037e+01
      vertex 4.684233e+00 -2.891742e+01 2.594919e+01
    endloop
  endfacet
  facet normal -4.235624e-01 -7.508785e-01 5.067311e-01
    outer loop
      vertex 4.684233e+00 -2.891742e+01 2.594919e+01
      vertex 3.004137e+00 -1.433692e+01 4.615037e+01
      vertex -1.567836e+00 -1.685442e+01 3.859833e+01
    endloop
  endfacet
  facet normal -4.235624e-01 -7.508785e-01 5.067311e-01
    outer loop
      vertex 4.684233e+00 -2.891742e+01 2.594919e+01
      vertex -9.335428e+00 -1.774946e+01 3.077932e+01
      vertex -2.614481e+01 -1.152707e+01 2.594921e+01
    endloop
  endfacet
  facet normal -4.235624e-01 -7.508785e-01 5.067311e-01
    outer loop
      vertex 4.684233e+00 -2.891742e+01 2.594919e+01
      vertex -1.567836e+00 -1.685442e+01 3.859833e+01
      vertex -9.335428e+00 -1.774946e+01 3.077932e+01
    endloop
  endfacet
  facet normal -4.235624e-01 -7.508785e-01 5.067311e-01
    outer loop
      vertex -9.335428e+00 -1.774946e+01 3.077932e+01
      vertex -1.258699e+01 -1.063863e+01 3.859833e+01
      vertex -2.614490e+01 -1.152707e+01 2.594925e+01
    endloop
  endfacet
  facet normal -4.235624e-01 -7.508785e-01 5.067311e-01
    outer loop
      vertex -5.789174e+00 -1.146271e+01 4.305932e+01
      vertex -1.279712e+01 -5.423593e+00 4.615049e+01
      vertex -1.258699e+01 -1.063863e+01 3.859833e+01
    endloop
  endfacet
  facet normal -4.235624e-01 -7.508785e-01 5.067311e-01
    outer loop
      vertex 3.004137e+00 -1.433692e+01 4.615037e+01
      vertex -1.279712e+01 -5.423593e+00 4.615049e+01
      vertex -5.789174e+00 -1.146271e+01 4.305932e+01
    endloop
  endfacet
  facet normal -4.235624e-01 -7.508785e-01 5.067311e-01
    outer loop
      vertex -5.789174e+00 -1.146271e+01 4.305932e+01
      vertex -1.567836e+00 -1.685442e+01 3.859833e+01
      vertex 3.004137e+00 -1.433692e+01 4.615037e+01
    endloop
  endfacet
  facet normal -2.743715e-07 1.235706e-06 -1.000000e+00
    outer loop
      vertex 7.529588e+00 -5.854872e+00 5.748047e+00
      vertex 3.004138e+00 -1.433687e+01 5.748047e+00
      vertex -3.331860e+00 -7.106424e+00 5.747967e+00
    endloop
  endfacet
  facet normal -2.743715e-07 1.235706e-06 -1.000000e+00
    outer loop
      vertex 1.729406e-01 1.023336e+01 5.748078e+00
      vertex -9.202885e+00 1.235865e+01 5.748056e+00
      vertex 8.819644e+00 1.443547e+01 5.748007e+00
    endloop
  endfacet
  facet normal -2.743715e-07 1.235706e-06 -1.000000e+00
    outer loop
      vertex 9.695664e+00 4.861706e+00 5.748059e+00
      vertex 8.819644e+00 1.443547e+01 5.748007e+00
      vertex 1.636409e+01 -2.063312e+00 5.748047e+00
    endloop
  endfacet
  facet normal -2.743715e-07 1.235706e-06 -1.000000e+00
    outer loop
      vertex 7.529588e+00 -5.854872e+00 5.748047e+00
      vertex 9.695664e+00 4.861706e+00 5.748059e+00
      vertex 1.636409e+01 -2.063312e+00 5.748047e+00
    endloop
  endfacet
  facet normal -2.743715e-07 1.235706e-06 -1.000000e+00
    outer loop
      vertex -7.878480e+00 2.836649e+00 5.748073e+00
      vertex -9.202885e+00 1.235865e+01 5.748056e+00
      vertex 1.729406e-01 1.023336e+01 5.748078e+00
    endloop
  endfacet
  facet normal -2.743715e-07 1.235706e-06 -1.000000e+00
    outer loop
      vertex -1.279709e+01 -5.423529e+00 5.748054e+00
      vertex -9.202885e+00 1.235865e+01 5.748056e+00
      vertex -7.878480e+00 2.836649e+00 5.748073e+00
    endloop
  endfacet
  facet normal -2.743715e-07 1.235706e-06 -1.000000e+00
    outer loop
      vertex -1.279709e+01 -5.423529e+00 5.748054e+00
      vertex -7.878480e+00 2.836649e+00 5.748073e+00
      vertex -3.331860e+00 -7.106424e+00 5.747967e+00
    endloop
  endfacet
  facet normal -2.743715e-07 1.235706e-06 -1.000000e+00
    outer loop
      vertex -1.279709e+01 -5.423529e+00 5.748054e+00
      vertex -3.331860e+00 -7.106424e+00 5.747967e+00
      vertex 3.004138e+00 -1.433687e+01 5.748047e+00
    endloop
  endfacet
  facet normal -2.743715e-07 1.235706e-06 -1.000000e+00
    outer loop
      vertex 3.004138e+00 -1.433687e+01 5.748047e+00
      vertex 7.529588e+00 -5.854872e+00 5.748047e+00
      vertex 1.636409e+01 -2.063312e+00 5.748047e+00
    endloop
  endfacet
  facet normal -2.743715e-07 1.235706e-06 -1.000000e+00
    outer loop
      vertex 1.729406e-01 1.023336e+01 5.748078e+00
      vertex 8.819644e+00 1.443547e+01 5.748007e+00
      vertex 9.695664e+00 4.861706e+00 5.748059e+00
    endloop
  endfacet
  facet normal -4.235623e-01 -7.508773e-01 -5.067331e-01
    outer loop
      vertex -1.258702e+01 -1.063860e+01 1.330008e+01
      vertex -2.614481e+01 -1.152707e+01 2.594921e+01
      vertex -1.279709e+01 -5.423529e+00 5.748054e+00
    endloop
  endfacet
  facet normal -4.235623e-01 -7.508773e-01 -5.067331e-01
    outer loop
      vertex 3.004138e+00 -1.433687e+01 5.748047e+00
      vertex -5.789181e+00 -1.146267e+01 8.839149e+00
      vertex -1.279709e+01 -5.423529e+00 5.748054e+00
    endloop
  endfacet
  facet normal -4.235623e-01 -7.508773e-01 -5.067331e-01
    outer loop
      vertex -1.096125e+01 -1.419398e+01 1.720957e+01
      vertex -2.614481e+01 -1.152707e+01 2.594921e+01
      vertex -1.258702e+01 -1.063860e+01 1.330008e+01
    endloop
  endfacet
  facet normal -4.235623e-01 -7.508773e-01 -5.067331e-01
    outer loop
      vertex -9.335465e+00 -1.774946e+01 2.111910e+01
      vertex -2.614481e+01 -1.152707e+01 2.594921e+01
      vertex -1.096125e+01 -1.419398e+01 1.720957e+01
    endloop
  endfacet
  facet normal -4.235623e-01 -7.508773e-01 -5.067331e-01
    outer loop
      vertex 4.684233e+00 -2.891742e+01 2.594919e+01
      vertex -2.614481e+01 -1.152707e+01 2.594921e+01
      vertex -9.335465e+00 -1.774946e+01 2.111910e+01
    endloop
  endfacet
  facet normal -4.235623e-01 -7.508773e-01 -5.067331e-01
    outer loop
      vertex 3.004138e+00 -1.433687e+01 5.748047e+00
      vertex -1.567851e+00 -1.685439e+01 1.330011e+01
      vertex -5.789181e+00 -1.146267e+01 8.839149e+00
    endloop
  endfacet
  facet normal -4.235623e-01 -7.508773e-01 -5.067331e-01
    outer loop
      vertex 3.004138e+00 -1.433687e+01 5.748047e+00
      vertex 4.684233e+00 -2.891742e+01 2.594919e+01
      vertex -1.567851e+00 -1.685439e+01 1.330011e+01
    endloop
  endfacet
  facet normal -4.235623e-01 -7.508773e-01 -5.067331e-01
    outer loop
      vertex -5.789181e+00 -1.146267e+01 8.839149e+00
      vertex -1.258702e+01 -1.063860e+01 1.330008e+01
      vertex -1.279709e+01 -5.423529e+00 5.748054e+00
    endloop
  endfacet
  facet normal -4.235623e-01 -7.508773e-01 -5.067331e-01
    outer loop
      vertex -9.335465e+00 -1.774946e+01 2.111910e+01
      vertex -1.567851e+00 -1.685439e+01 1.330011e+01
      vertex 4.684233e+00 -2.891742e+01 2.594919e+01
    endloop
  endfacet
  facet normal 9.801784e-01 -1.981172e-01 -1.139380e-06
    outer loop
      vertex 1.579647e+01 -1.485352e+01 1.330009e+01
      vertex 1.734554e+01 -7.189510e+00 1.330010e+01
      vertex 1.579646e+01 -1.485353e+01 2.111909e+01
    endloop
  endfacet
  facet normal 5.950291e-01 -1.202687e-01 -7.946545e-01
    outer loop
      vertex 1.091330e+01 -9.538060e+00 8.839104e+00
      vertex 1.734554e+01 -7.189510e+00 1.330010e+01
      vertex 1.579647e+01 -1.485352e+01 1.330009e+01
    endloop
  endfacet
  facet normal 1.144713e-01 -9.934266e-01 -1.258990e-06
    outer loop
      vertex 8.028868e+00 -1.574857e+01 1.330008e+01
      vertex 1.579647e+01 -1.485352e+01 1.330009e+01
      vertex 1.579646e+01 -1.485353e+01 2.111909e+01
    endloop
  endfacet
  facet normal 6.949105e-02 -6.030707e-01 -7.946552e-01
    outer loop
      vertex 1.091330e+01 -9.538060e+00 8.839104e+00
      vertex 1.579647e+01 -1.485352e+01 1.330009e+01
      vertex 8.028868e+00 -1.574857e+01 1.330008e+01
    endloop
  endfacet
  facet normal 7.840244e-01 3.585092e-01 5.067315e-01
    outer loop
      vertex 1.424427e+01 6.941575e+00 4.305933e+01
      vertex 8.819704e+00 1.443532e+01 4.615042e+01
      vertex 1.636405e+01 -2.063367e+00 4.615038e+01
    endloop
  endfacet
  facet normal 7.840244e-01 3.585092e-01 5.067315e-01
    outer loop
      vertex 3.075011e+01 -4.971124e+00 2.594923e+01
      vertex 1.925943e+01 2.279197e+00 3.859836e+01
      vertex 1.636405e+01 -2.063367e+00 4.615038e+01
    endloop
  endfacet
  facet normal 7.840244e-01 3.585092e-01 5.067315e-01
    outer loop
      vertex 1.399830e+01 1.378476e+01 3.859837e+01
      vertex 8.819704e+00 1.443532e+01 4.615042e+01
      vertex 1.424427e+01 6.941575e+00 4.305933e+01
    endloop
  endfacet
  facet normal 7.840244e-01 3.585092e-01 5.067315e-01
    outer loop
      vertex 1.603073e+01 2.721884e+01 2.594925e+01
      vertex 8.819704e+00 1.443532e+01 4.615042e+01
      vertex 1.399830e+01 1.378476e+01 3.859837e+01
    endloop
  endfacet
  facet normal 7.840244e-01 3.585092e-01 5.067315e-01
    outer loop
      vertex 3.075011e+01 -4.971124e+00 2.594923e+01
      vertex 2.080850e+01 9.943219e+00 3.077935e+01
      vertex 1.925943e+01 2.279197e+00 3.859836e+01
    endloop
  endfacet
  facet normal 7.840244e-01 3.585092e-01 5.067315e-01
    outer loop
      vertex 3.075011e+01 -4.971124e+00 2.594923e+01
      vertex 1.603073e+01 2.721884e+01 2.594925e+01
      vertex 2.080850e+01 9.943219e+00 3.077935e+01
    endloop
  endfacet
  facet normal 7.840244e-01 3.585092e-01 5.067315e-01
    outer loop
      vertex 1.925943e+01 2.279197e+00 3.859836e+01
      vertex 1.424427e+01 6.941575e+00 4.305933e+01
      vertex 1.636405e+01 -2.063367e+00 4.615038e+01
    endloop
  endfacet
  facet normal 7.840244e-01 3.585092e-01 5.067315e-01
    outer loop
      vertex 1.399830e+01 1.378476e+01 3.859837e+01
      vertex 2.080850e+01 9.943219e+00 3.077935e+01
      vertex 1.603073e+01 2.721884e+01 2.594925e+01
    endloop
  endfacet
  facet normal 2.743715e-07 -1.235706e-06 1.000000e+00
    outer loop
      vertex -7.878503e+00 2.836605e+00 4.615040e+01
      vertex -9.202875e+00 1.235871e+01 4.615048e+01
      vertex -1.279712e+01 -5.423593e+00 4.615049e+01
    endloop
  endfacet
  facet normal 2.743715e-07 -1.235706e-06 1.000000e+00
    outer loop
      vertex -3.331840e+00 -7.106473e+00 4.615039e+01
      vertex -7.878503e+00 2.836605e+00 4.615040e+01
      vertex -1.279712e+01 -5.423593e+00 4.615049e+01
    endloop
  endfacet
  facet normal 2.743715e-07 -1.235706e-06 1.000000e+00
    outer loop
      vertex 1.636405e+01 -2.063367e+00 4.615038e+01
      vertex 7.529609e+00 -5.854921e+00 4.615047e+01
      vertex 3.004137e+00 -1.433692e+01 4.615037e+01
    endloop
  endfacet
  facet normal 2.743715e-07 -1.235706e-06 1.000000e+00
    outer loop
      vertex 3.004137e+00 -1.433692e+01 4.615037e+01
      vertex -3.331840e+00 -7.106473e+00 4.615039e+01
      vertex -1.279712e+01 -5.423593e+00 4.615049e+01
    endloop
  endfacet
  facet normal 2.743715e-07 -1.235706e-06 1.000000e+00
    outer loop
      vertex 1.729390e-01 1.023331e+01 4.615040e+01
      vertex -9.202875e+00 1.235871e+01 4.615048e+01
      vertex -7.878503e+00 2.836605e+00 4.615040e+01
    endloop
  endfacet
  facet normal 2.743715e-07 -1.235706e-06 1.000000e+00
    outer loop
      vertex 8.819704e+00 1.443532e+01 4.615042e+01
      vertex -9.202875e+00 1.235871e+01 4.615048e+01
      vertex 1.729390e-01 1.023331e+01 4.615040e+01
    endloop
  endfacet
  facet normal 2.743715e-07 -1.235706e-06 1.000000e+00
    outer loop
      vertex 1.636405e+01 -2.063367e+00 4.615038e+01
      vertex 9.695684e+00 4.861657e+00 4.615048e+01
      vertex 7.529609e+00 -5.854921e+00 4.615047e+01
    endloop
  endfacet
  facet normal 2.743715e-07 -1.235706e-06 1.000000e+00
    outer loop
      vertex 1.636405e+01 -2.063367e+00 4.615038e+01
      vertex 8.819704e+00 1.443532e+01 4.615042e+01
      vertex 9.695684e+00 4.861657e+00 4.615048e+01
    endloop
  endfacet
  facet normal 2.743715e-07 -1.235706e-06 1.000000e+00
    outer loop
      vertex 7.529609e+00 -5.854921e+00 4.615047e+01
      vertex -3.331840e+00 -7.106473e+00 4.615039e+01
      vertex 3.004137e+00 -1.433692e+01 4.615037e+01
    endloop
  endfacet
  facet normal 2.743715e-07 -1.235706e-06 1.000000e+00
    outer loop
      vertex 1.729390e-01 1.023331e+01 4.615040e+01
      vertex 9.695684e+00 4.861657e+00 4.615048e+01
      vertex 8.819704e+00 1.443532e+01 4.615042e+01
    endloop
  endfacet
  facet normal 1.144713e-01 -9.934266e-01 -1.258990e-06
    outer loop
      vertex 8.028883e+00 -1.574860e+01 3.859830e+01
      vertex 1.579650e+01 -1.485354e+01 3.077931e+01
      vertex 1.579649e+01 -1.485355e+01 3.859831e+01
    endloop
  endfacet
  facet normal 9.801784e-01 -1.981172e-01 -1.139380e-06
    outer loop
      vertex 1.579649e+01 -1.485355e+01 3.859831e+01
      vertex 1.579650e+01 -1.485354e+01 3.077931e+01
      vertex 1.734556e+01 -7.189540e+00 3.859835e+01
    endloop
  endfacet
  facet normal 5.950297e-01 -1.202707e-01 7.946538e-01
    outer loop
      vertex 1.579649e+01 -1.485355e+01 3.859831e+01
      vertex 1.734556e+01 -7.189540e+00 3.859835e+01
      vertex 1.091330e+01 -9.538103e+00 4.305927e+01
    endloop
  endfacet
  facet normal 6.949138e-02 -6.030727e-01 7.946537e-01
    outer loop
      vertex 8.028883e+00 -1.574860e+01 3.859830e+01
      vertex 1.579649e+01 -1.485355e+01 3.859831e+01
      vertex 1.091330e+01 -9.538103e+00 4.305927e+01
    endloop
  endfacet
  facet normal -9.868619e-02 8.564361e-01 5.067328e-01
    outer loop
      vertex -6.983877e+00 1.708278e+01 3.859837e+01
      vertex -1.913239e+01 2.316703e+01 2.594928e+01
      vertex -9.202875e+00 1.235871e+01 4.615048e+01
    endloop
  endfacet
  facet normal -9.868619e-02 8.564361e-01 5.067328e-01
    outer loop
      vertex -3.996012e-01 1.520202e+01 4.305928e+01
      vertex -9.202875e+00 1.235871e+01 4.615048e+01
      vertex 8.819704e+00 1.443532e+01 4.615042e+01
    endloop
  endfacet
  facet normal -9.868619e-02 8.564361e-01 5.067328e-01
    outer loop
      vertex 1.603072e+01 2.721884e+01 2.594924e+01
      vertex 8.819704e+00 1.443532e+01 4.615042e+01
      vertex 1.603073e+01 2.721884e+01 2.594925e+01
    endloop
  endfacet
  facet normal -9.868619e-02 8.564361e-01 5.067328e-01
    outer loop
      vertex -6.983877e+00 1.708278e+01 3.859837e+01
      vertex -9.202875e+00 1.235871e+01 4.615048e+01
      vertex -3.996012e-01 1.520202e+01 4.305928e+01
    endloop
  endfacet
  facet normal -9.868619e-02 8.564361e-01 5.067328e-01
    outer loop
      vertex 1.603072e+01 2.721884e+01 2.594924e+01
      vertex 5.584387e+00 1.853101e+01 3.859839e+01
      vertex 8.819704e+00 1.443532e+01 4.615042e+01
    endloop
  endfacet
  facet normal -9.868619e-02 8.564361e-01 5.067328e-01
    outer loop
      vertex 5.584387e+00 1.853101e+01 3.859839e+01
      vertex -3.996012e-01 1.520202e+01 4.305928e+01
      vertex 8.819704e+00 1.443532e+01 4.615042e+01
    endloop
  endfacet
  facet normal -9.868619e-02 8.564361e-01 5.067328e-01
    outer loop
      vertex -4.104852e+00 1.972764e+01 3.468886e+01
      vertex -1.913239e+01 2.316703e+01 2.594928e+01
      vertex -6.983877e+00 1.708278e+01 3.859837e+01
    endloop
  endfacet
  facet normal -9.868619e-02 8.564361e-01 5.067328e-01
    outer loop
      vertex -1.225853e+00 2.237259e+01 3.077937e+01
      vertex -1.913239e+01 2.316703e+01 2.594928e+01
      vertex -4.104852e+00 1.972764e+01 3.468886e+01
    endloop
  endfacet
  facet normal -9.868619e-02 8.564361e-01 5.067328e-01
    outer loop
      vertex 1.603072e+01 2.721884e+01 2.594924e+01
      vertex -1.913239e+01 2.316703e+01 2.594928e+01
      vertex -1.225853e+00 2.237259e+01 3.077937e+01
    endloop
  endfacet
  facet normal -9.868619e-02 8.564361e-01 5.067328e-01
    outer loop
      vertex 5.584387e+00 1.853101e+01 3.859839e+01
      vertex 1.603072e+01 2.721884e+01 2.594924e+01
      vertex -1.225853e+00 2.237259e+01 3.077937e+01
    endloop
  endfacet
  facet normal -9.868615e-02 8.564374e-01 -5.067307e-01
    outer loop
      vertex -1.225853e+00 2.237260e+01 2.111914e+01
      vertex -1.913239e+01 2.316703e+01 2.594928e+01
      vertex 1.603072e+01 2.721884e+01 2.594924e+01
    endloop
  endfacet
  facet normal -9.868615e-02 8.564374e-01 -5.067307e-01
    outer loop
      vertex -6.983896e+00 1.708281e+01 1.330011e+01
      vertex -1.913239e+01 2.316703e+01 2.594928e+01
      vertex -1.225853e+00 2.237260e+01 2.111914e+01
    endloop
  endfacet
  facet normal -9.868615e-02 8.564374e-01 -5.067307e-01
    outer loop
      vertex 8.819644e+00 1.443547e+01 5.748007e+00
      vertex 5.584372e+00 1.853104e+01 1.330014e+01
      vertex 1.603072e+01 2.721884e+01 2.594924e+01
    endloop
  endfacet
  facet normal -9.868615e-02 8.564374e-01 -5.067307e-01
    outer loop
      vertex 5.584372e+00 1.853104e+01 1.330014e+01
      vertex -1.225853e+00 2.237260e+01 2.111914e+01
      vertex 1.603072e+01 2.721884e+01 2.594924e+01
    endloop
  endfacet
  facet normal -9.868615e-02 8.564374e-01 -5.067307e-01
    outer loop
      vertex -9.202885e+00 1.235865e+01 5.748056e+00
      vertex -1.913239e+01 2.316703e+01 2.594928e+01
      vertex -6.983896e+00 1.708281e+01 1.330011e+01
    endloop
  endfacet
  facet normal -9.868615e-02 8.564374e-01 -5.067307e-01
    outer loop
      vertex -9.202885e+00 1.235865e+01 5.748056e+00
      vertex -6.983896e+00 1.708281e+01 1.330011e+01
      vertex -3.995966e-01 1.520207e+01 8.839209e+00
    endloop
  endfacet
  facet normal -9.868615e-02 8.564374e-01 -5.067307e-01
    outer loop
      vertex -9.202885e+00 1.235865e+01 5.748056e+00
      vertex -3.995966e-01 1.520207e+01 8.839209e+00
      vertex 8.819644e+00 1.443547e+01 5.748007e+00
    endloop
  endfacet
  facet normal -9.868615e-02 8.564374e-01 -5.067307e-01
    outer loop
      vertex 5.584372e+00 1.853104e+01 1.330014e+01
      vertex 8.819644e+00 1.443547e+01 5.748007e+00
      vertex -3.995966e-01 1.520207e+01 8.839209e+00
    endloop
  endfacet
  facet normal 4.913122e-01 8.709835e-01 7.539621e-07
    outer loop
      vertex 2.080847e+01 9.943228e+00 2.111914e+01
      vertex 2.080847e+01 9.943238e+00 1.330012e+01
      vertex 1.399825e+01 1.378478e+01 1.330014e+01
    endloop
  endfacet
  facet normal 9.801784e-01 -1.981172e-01 -1.139380e-06
    outer loop
      vertex 1.925941e+01 2.279224e+00 1.330011e+01
      vertex 2.080847e+01 9.943238e+00 1.330012e+01
      vertex 2.080847e+01 9.943228e+00 2.111914e+01
    endloop
  endfacet
  facet normal 5.950291e-01 -1.202687e-01 -7.946545e-01
    outer loop
      vertex 1.424427e+01 6.941619e+00 8.839153e+00
      vertex 2.080847e+01 9.943238e+00 1.330012e+01
      vertex 1.925941e+01 2.279224e+00 1.330011e+01
    endloop
  endfacet
  facet normal 2.982566e-01 5.287425e-01 -7.946537e-01
    outer loop
      vertex 1.399825e+01 1.378478e+01 1.330014e+01
      vertex 2.080847e+01 9.943238e+00 1.330012e+01
      vertex 1.424427e+01 6.941619e+00 8.839153e+00
    endloop
  endfacet
  facet normal -8.450153e-01 1.707982e-01 -5.067319e-01
    outer loop
      vertex -2.614481e+01 -1.152707e+01 2.594921e+01
      vertex -2.614490e+01 -1.152707e+01 2.594925e+01
      vertex -1.279709e+01 -5.423529e+00 5.748054e+00
    endloop
  endfacet
  facet normal -8.450159e-01 1.707982e-01 -5.067308e-01
    outer loop
      vertex -1.985584e+01 5.257529e+00 2.111912e+01
      vertex -2.614490e+01 -1.152707e+01 2.594925e+01
      vertex -1.913239e+01 2.316703e+01 2.594928e+01
    endloop
  endfacet
  facet normal -8.450159e-01 1.707982e-01 -5.067308e-01
    outer loop
      vertex -1.409780e+01 1.054731e+01 1.330011e+01
      vertex -1.913239e+01 2.316703e+01 2.594928e+01
      vertex -9.202885e+00 1.235865e+01 5.748056e+00
    endloop
  endfacet
  facet normal -8.450159e-01 1.707982e-01 -5.067308e-01
    outer loop
      vertex -1.278093e+01 3.827538e+00 8.839131e+00
      vertex -1.409780e+01 1.054731e+01 1.330011e+01
      vertex -9.202885e+00 1.235865e+01 5.748056e+00
    endloop
  endfacet
  facet normal -8.450159e-01 1.707982e-01 -5.067308e-01
    outer loop
      vertex -1.278093e+01 3.827538e+00 8.839131e+00
      vertex -1.279709e+01 -5.423529e+00 5.748054e+00
      vertex -1.660428e+01 -1.853304e+00 1.330009e+01
    endloop
  endfacet
  facet normal -8.450159e-01 1.707982e-01 -5.067308e-01
    outer loop
      vertex -1.660428e+01 -1.853304e+00 1.330009e+01
      vertex -2.614490e+01 -1.152707e+01 2.594925e+01
      vertex -1.985584e+01 5.257529e+00 2.111912e+01
    endloop
  endfacet
  facet normal -8.450159e-01 1.707982e-01 -5.067308e-01
    outer loop
      vertex -1.697677e+01 7.902441e+00 1.720960e+01
      vertex -1.985584e+01 5.257529e+00 2.111912e+01
      vertex -1.913239e+01 2.316703e+01 2.594928e+01
    endloop
  endfacet
  facet normal -8.450159e-01 1.707982e-01 -5.067308e-01
    outer loop
      vertex -1.279709e+01 -5.423529e+00 5.748054e+00
      vertex -2.614490e+01 -1.152707e+01 2.594925e+01
      vertex -1.660428e+01 -1.853304e+00 1.330009e+01
    endloop
  endfacet
  facet normal -8.450159e-01 1.707982e-01 -5.067308e-01
    outer loop
      vertex -1.279709e+01 -5.423529e+00 5.748054e+00
      vertex -1.278093e+01 3.827538e+00 8.839131e+00
      vertex -9.202885e+00 1.235865e+01 5.748056e+00
    endloop
  endfacet
  facet normal -8.450159e-01 1.707982e-01 -5.067308e-01
    outer loop
      vertex -1.697677e+01 7.902441e+00 1.720960e+01
      vertex -1.913239e+01 2.316703e+01 2.594928e+01
      vertex -1.409780e+01 1.054731e+01 1.330011e+01
    endloop
  endfacet
  facet normal -8.450150e-01 1.707970e-01 5.067325e-01
    outer loop
      vertex -1.660425e+01 -1.853336e+00 3.859835e+01
      vertex -2.614490e+01 -1.152707e+01 2.594925e+01
      vertex -1.279712e+01 -5.423593e+00 4.615049e+01
    endloop
  endfacet
  facet normal -8.450150e-01 1.707970e-01 5.067325e-01
    outer loop
      vertex -9.202875e+00 1.235871e+01 4.615048e+01
      vertex -1.278086e+01 3.827504e+00 4.305928e+01
      vertex -1.279712e+01 -5.423593e+00 4.615049e+01
    endloop
  endfacet
  facet normal -8.450150e-01 1.707970e-01 5.067325e-01
    outer loop
      vertex -1.823002e+01 1.702099e+00 3.468885e+01
      vertex -2.614490e+01 -1.152707e+01 2.594925e+01
      vertex -1.660425e+01 -1.853336e+00 3.859835e+01
    endloop
  endfacet
  facet normal -8.450150e-01 1.707970e-01 5.067325e-01
    outer loop
      vertex -1.985579e+01 5.257522e+00 3.077936e+01
      vertex -2.614490e+01 -1.152707e+01 2.594925e+01
      vertex -1.823002e+01 1.702099e+00 3.468885e+01
    endloop
  endfacet
  facet normal -8.450150e-01 1.707970e-01 5.067325e-01
    outer loop
      vertex -1.913239e+01 2.316703e+01 2.594928e+01
      vertex -2.614490e+01 -1.152707e+01 2.594925e+01
      vertex -1.985579e+01 5.257522e+00 3.077936e+01
    endloop
  endfacet
  facet normal -8.450150e-01 1.707970e-01 5.067325e-01
    outer loop
      vertex -9.202875e+00 1.235871e+01 4.615048e+01
      vertex -1.409777e+01 1.054728e+01 3.859835e+01
      vertex -1.278086e+01 3.827504e+00 4.305928e+01
    endloop
  endfacet
  facet normal -8.450150e-01 1.707970e-01 5.067325e-01
    outer loop
      vertex -9.202875e+00 1.235871e+01 4.615048e+01
      vertex -1.913239e+01 2.316703e+01 2.594928e+01
      vertex -1.409777e+01 1.054728e+01 3.859835e+01
    endloop
  endfacet
  facet normal -8.450150e-01 1.707970e-01 5.067325e-01
    outer loop
      vertex -1.278086e+01 3.827504e+00 4.305928e+01
      vertex -1.660425e+01 -1.853336e+00 3.859835e+01
      vertex -1.279712e+01 -5.423593e+00 4.615049e+01
    endloop
  endfacet
  facet normal -8.450150e-01 1.707970e-01 5.067325e-01
    outer loop
      vertex -1.985579e+01 5.257522e+00 3.077936e+01
      vertex -1.409777e+01 1.054728e+01 3.859835e+01
      vertex -1.913239e+01 2.316703e+01 2.594928e+01
    endloop
  endfacet
  facet normal 6.949138e-02 -6.030727e-01 7.946537e-01
    outer loop
      vertex -9.335439e+00 -1.774947e+01 3.859832e+01
      vertex -1.567836e+00 -1.685442e+01 3.859833e+01
      vertex -5.789174e+00 -1.146271e+01 4.305932e+01
    endloop
  endfacet
  facet normal 1.144713e-01 -9.934266e-01 -1.258990e-06
    outer loop
      vertex -9.335428e+00 -1.774946e+01 3.077932e+01
      vertex -1.567836e+00 -1.685442e+01 3.859833e+01
      vertex -9.335439e+00 -1.774947e+01 3.859832e+01
    endloop
  endfacet
  facet normal -5.520810e-01 -2.524508e-01 7.946541e-01
    outer loop
      vertex -9.335439e+00 -1.774947e+01 3.859832e+01
      vertex -5.789174e+00 -1.146271e+01 4.305932e+01
      vertex -1.258699e+01 -1.063863e+01 3.859833e+01
    endloop
  endfacet
  facet normal -9.094313e-01 -4.158542e-01 -2.795726e-07
    outer loop
      vertex -1.258699e+01 -1.063863e+01 3.859833e+01
      vertex -9.335428e+00 -1.774946e+01 3.077932e+01
      vertex -9.335439e+00 -1.774947e+01 3.859832e+01
    endloop
  endfacet
  facet normal 5.950291e-01 -1.202687e-01 -7.946545e-01
    outer loop
      vertex 1.237549e+00 9.940881e-01 0.000000e+00
      vertex 9.695664e+00 4.861706e+00 5.748059e+00
      vertex 7.529588e+00 -5.854872e+00 5.748047e+00
    endloop
  endfacet
  facet normal 2.982566e-01 5.287425e-01 -7.946537e-01
    outer loop
      vertex 1.729406e-01 1.023336e+01 5.748078e+00
      vertex 9.695664e+00 4.861706e+00 5.748059e+00
      vertex 1.237549e+00 9.940881e-01 0.000000e+00
    endloop
  endfacet
  facet normal 6.949105e-02 -6.030707e-01 -7.946552e-01
    outer loop
      vertex 1.237549e+00 9.940881e-01 0.000000e+00
      vertex 7.529588e+00 -5.854872e+00 5.748047e+00
      vertex -3.331860e+00 -7.106424e+00 5.747967e+00
    endloop
  endfacet
  facet normal -5.520818e-01 -2.524479e-01 -7.946544e-01
    outer loop
      vertex -7.878480e+00 2.836649e+00 5.748073e+00
      vertex 1.237549e+00 9.940881e-01 0.000000e+00
      vertex -3.331860e+00 -7.106424e+00 5.747967e+00
    endloop
  endfacet
  facet normal -4.106970e-01 4.470507e-01 -7.946532e-01
    outer loop
      vertex 1.729406e-01 1.023336e+01 5.748078e+00
      vertex 1.237549e+00 9.940881e-01 0.000000e+00
      vertex -7.878480e+00 2.836649e+00 5.748073e+00
    endloop
  endfacet
  facet normal 6.949105e-02 -6.030707e-01 -7.946552e-01
    outer loop
      vertex -5.789181e+00 -1.146267e+01 8.839149e+00
      vertex -1.567851e+00 -1.685439e+01 1.330011e+01
      vertex -9.335454e+00 -1.774944e+01 1.330010e+01
    endloop
  endfacet
  facet normal -5.520818e-01 -2.524479e-01 -7.946544e-01
    outer loop
      vertex -1.258702e+01 -1.063860e+01 1.330008e+01
      vertex -5.789181e+00 -1.146267e+01 8.839149e+00
      vertex -9.335454e+00 -1.774944e+01 1.330010e+01
    endloop
  endfacet
  facet normal 1.144713e-01 -9.934266e-01 -1.258990e-06
    outer loop
      vertex -9.335454e+00 -1.774944e+01 1.330010e+01
      vertex -1.567851e+00 -1.685439e+01 1.330011e+01
      vertex -9.335465e+00 -1.774946e+01 2.111910e+01
    endloop
  endfacet
  facet normal -9.094313e-01 -4.158542e-01 -2.795726e-07
    outer loop
      vertex -1.096125e+01 -1.419398e+01 1.720957e+01
      vertex -9.335454e+00 -1.774944e+01 1.330010e+01
      vertex -9.335465e+00 -1.774946e+01 2.111910e+01
    endloop
  endfacet
  facet normal -9.094313e-01 -4.158542e-01 -2.795726e-07
    outer loop
      vertex -1.258702e+01 -1.063860e+01 1.330008e+01
      vertex -9.335454e+00 -1.774944e+01 1.330010e+01
      vertex -1.096125e+01 -1.419398e+01 1.720957e+01
    endloop
  endfacet
  facet normal 5.950297e-01 -1.202707e-01 7.946538e-01
    outer loop
      vertex 1.925943e+01 2.279197e+00 3.859836e+01
      vertex 2.080847e+01 9.943206e+00 3.859830e+01
      vertex 1.424427e+01 6.941575e+00 4.305933e+01
    endloop
  endfacet
  facet normal 9.801784e-01 -1.981172e-01 -1.139380e-06
    outer loop
      vertex 1.925943e+01 2.279197e+00 3.859836e+01
      vertex 2.080850e+01 9.943219e+00 3.077935e+01
      vertex 2.080847e+01 9.943206e+00 3.859830e+01
    endloop
  endfacet
  facet normal 4.913122e-01 8.709835e-01 7.539621e-07
    outer loop
      vertex 2.080847e+01 9.943206e+00 3.859830e+01
      vertex 2.080850e+01 9.943219e+00 3.077935e+01
      vertex 1.399830e+01 1.378476e+01 3.859837e+01
    endloop
  endfacet
  facet normal 2.982571e-01 5.287406e-01 7.946547e-01
    outer loop
      vertex 1.424427e+01 6.941575e+00 4.305933e+01
      vertex 2.080847e+01 9.943206e+00 3.859830e+01
      vertex 1.399830e+01 1.378476e+01 3.859837e+01
    endloop
  endfacet
  facet normal 6.949138e-02 -6.030727e-01 7.946537e-01
    outer loop
      vertex -3.331840e+00 -7.106473e+00 4.615039e+01
      vertex 7.529609e+00 -5.854921e+00 4.615047e+01
      vertex 1.237591e+00 9.940272e-01 5.189845e+01
    endloop
  endfacet
  facet normal 5.950297e-01 -1.202707e-01 7.946538e-01
    outer loop
      vertex 7.529609e+00 -5.854921e+00 4.615047e+01
      vertex 9.695684e+00 4.861657e+00 4.615048e+01
      vertex 1.237591e+00 9.940272e-01 5.189845e+01
    endloop
  endfacet
  facet normal 2.982571e-01 5.287406e-01 7.946547e-01
    outer loop
      vertex 1.237591e+00 9.940272e-01 5.189845e+01
      vertex 9.695684e+00 4.861657e+00 4.615048e+01
      vertex 1.729390e-01 1.023331e+01 4.615040e+01
    endloop
  endfacet
  facet normal -4.106958e-01 4.470488e-01 7.946549e-01
    outer loop
      vertex 1.237591e+00 9.940272e-01 5.189845e+01
      vertex 1.729390e-01 1.023331e+01 4.615040e+01
      vertex -7.878503e+00 2.836605e+00 4.615040e+01
    endloop
  endfacet
  facet normal -5.520810e-01 -2.524508e-01 7.946541e-01
    outer loop
      vertex -3.331840e+00 -7.106473e+00 4.615039e+01
      vertex 1.237591e+00 9.940272e-01 5.189845e+01
      vertex -7.878503e+00 2.836605e+00 4.615040e+01
    endloop
  endfacet
  facet normal 2.982571e-01 5.287406e-01 7.946547e-01
    outer loop
      vertex -3.996012e-01 1.520202e+01 4.305928e+01
      vertex 5.584387e+00 1.853101e+01 3.859839e+01
      vertex -1.225846e+00 2.237258e+01 3.859836e+01
    endloop
  endfacet
  facet normal 4.913122e-01 8.709835e-01 7.539621e-07
    outer loop
      vertex -1.225846e+00 2.237258e+01 3.859836e+01
      vertex 5.584387e+00 1.853101e+01 3.859839e+01
      vertex -1.225853e+00 2.237259e+01 3.077937e+01
    endloop
  endfacet
  facet normal -6.765307e-01 7.364144e-01 1.283127e-06
    outer loop
      vertex -1.225846e+00 2.237258e+01 3.859836e+01
      vertex -1.225853e+00 2.237259e+01 3.077937e+01
      vertex -4.104852e+00 1.972764e+01 3.468886e+01
    endloop
  endfacet
  facet normal -6.765307e-01 7.364144e-01 1.283127e-06
    outer loop
      vertex -6.983877e+00 1.708278e+01 3.859837e+01
      vertex -1.225846e+00 2.237258e+01 3.859836e+01
      vertex -4.104852e+00 1.972764e+01 3.468886e+01
    endloop
  endfacet
  facet normal -4.106958e-01 4.470488e-01 7.946549e-01
    outer loop
      vertex -3.996012e-01 1.520202e+01 4.305928e+01
      vertex -1.225846e+00 2.237258e+01 3.859836e+01
      vertex -6.983877e+00 1.708278e+01 3.859837e+01
    endloop
  endfacet
  facet normal 2.982566e-01 5.287425e-01 -7.946537e-01
    outer loop
      vertex -1.225860e+00 2.237261e+01 1.330014e+01
      vertex 5.584372e+00 1.853104e+01 1.330014e+01
      vertex -3.995966e-01 1.520207e+01 8.839209e+00
    endloop
  endfacet
  facet normal 4.913122e-01 8.709835e-01 7.539621e-07
    outer loop
      vertex -1.225853e+00 2.237260e+01 2.111914e+01
      vertex 5.584372e+00 1.853104e+01 1.330014e+01
      vertex -1.225860e+00 2.237261e+01 1.330014e+01
    endloop
  endfacet
  facet normal -4.106970e-01 4.470507e-01 -7.946532e-01
    outer loop
      vertex -1.225860e+00 2.237261e+01 1.330014e+01
      vertex -3.995966e-01 1.520207e+01 8.839209e+00
      vertex -6.983896e+00 1.708281e+01 1.330011e+01
    endloop
  endfacet
  facet normal -6.765307e-01 7.364144e-01 1.283127e-06
    outer loop
      vertex -1.225853e+00 2.237260e+01 2.111914e+01
      vertex -1.225860e+00 2.237261e+01 1.330014e+01
      vertex -6.983896e+00 1.708281e+01 1.330011e+01
    endloop
  endfacet
  facet normal -6.765307e-01 7.364144e-01 1.283127e-06
    outer loop
      vertex -1.697677e+01 7.902441e+00 1.720960e+01
      vertex -1.409780e+01 1.054731e+01 1.330011e+01
      vertex -1.985581e+01 5.257542e+00 1.330017e+01
    endloop
  endfacet
  facet normal -4.106970e-01 4.470507e-01 -7.946532e-01
    outer loop
      vertex -1.409780e+01 1.054731e+01 1.330011e+01
      vertex -1.278093e+01 3.827538e+00 8.839131e+00
      vertex -1.985581e+01 5.257542e+00 1.330017e+01
    endloop
  endfacet
  facet normal -5.520818e-01 -2.524479e-01 -7.946544e-01
    outer loop
      vertex -1.985581e+01 5.257542e+00 1.330017e+01
      vertex -1.278093e+01 3.827538e+00 8.839131e+00
      vertex -1.660428e+01 -1.853304e+00 1.330009e+01
    endloop
  endfacet
  facet normal -9.094313e-01 -4.158542e-01 -2.795726e-07
    outer loop
      vertex -1.985581e+01 5.257542e+00 1.330017e+01
      vertex -1.660428e+01 -1.853304e+00 1.330009e+01
      vertex -1.985584e+01 5.257529e+00 2.111912e+01
    endloop
  endfacet
  facet normal -6.765307e-01 7.364144e-01 1.283127e-06
    outer loop
      vertex -1.985584e+01 5.257529e+00 2.111912e+01
      vertex -1.697677e+01 7.902441e+00 1.720960e+01
      vertex -1.985581e+01 5.257542e+00 1.330017e+01
    endloop
  endfacet
  facet normal -5.520810e-01 -2.524508e-01 7.946541e-01
    outer loop
      vertex -1.660425e+01 -1.853336e+00 3.859835e+01
      vertex -1.278086e+01 3.827504e+00 4.305928e+01
      vertex -1.985581e+01 5.257511e+00 3.859836e+01
    endloop
  endfacet
  facet normal -4.106958e-01 4.470488e-01 7.946549e-01
    outer loop
      vertex -1.278086e+01 3.827504e+00 4.305928e+01
      vertex -1.409777e+01 1.054728e+01 3.859835e+01
      vertex -1.985581e+01 5.257511e+00 3.859836e+01
    endloop
  endfacet
  facet normal -6.765307e-01 7.364144e-01 1.283127e-06
    outer loop
      vertex -1.985581e+01 5.257511e+00 3.859836e+01
      vertex -1.409777e+01 1.054728e+01 3.859835e+01
      vertex -1.985579e+01 5.257522e+00 3.077936e+01
    endloop
  endfacet
  facet normal -9.094313e-01 -4.158542e-01 -2.795726e-07
    outer loop
      vertex -1.985581e+01 5.257511e+00 3.859836e+01
      vertex -1.985579e+01 5.257522e+00 3.077936e+01
      vertex -1.823002e+01 1.702099e+00 3.468885e+01
    endloop
  endfacet
  facet normal -9.094313e-01 -4.158542e-01 -2.795726e-07
    outer loop
      vertex -1.985581e+01 5.257511e+00 3.859836e+01
      vertex -1.823002e+01 1.702099e+00 3.468885e+01
      vertex -1.660425e+01 -1.853336e+00 3.859835e+01
    endloop
  endfacet
endsolid Default
