solid Default
  facet normal 0.000000e+00 0.000000e+00 -1.000000e+00
    outer loop
      vertex 6.769144e+00 4.782203e+01 3.750000e+00
      vertex 4.769144e+00 -2.917797e+01 3.750000e+00
      vertex 4.769144e+00 4.782203e+01 3.750000e+00
    endloop
  endfacet
  facet normal 0.000000e+00 0.000000e+00 -1.000000e+00
    outer loop
      vertex 4.769144e+00 -2.917797e+01 3.750000e+00
      vertex 6.769144e+00 4.782203e+01 3.750000e+00
      vertex 6.710287e+00 -2.943353e+01 3.750000e+00
    endloop
  endfacet
  facet normal 0.000000e+00 0.000000e+00 -1.000000e+00
    outer loop
      vertex 6.710287e+00 -2.943353e+01 3.750000e+00
      vertex 6.769144e+00 4.782203e+01 3.750000e+00
      vertex 6.769144e+00 -2.945791e+01 3.750000e+00
    endloop
  endfacet
  facet normal 0.000000e+00 0.000000e+00 1.000000e+00
    outer loop
      vertex 6.710287e+00 -2.943353e+01 0.000000e+00
      vertex 4.769144e+00 4.782203e+01 0.000000e+00
      vertex 4.769144e+00 -2.917797e+01 0.000000e+00
    endloop
  endfacet
  facet normal 0.000000e+00 0.000000e+00 1.000000e+00
    outer loop
      vertex 1.326914e+01 -3.667797e+01 0.000000e+00
      vertex 6.769144e+00 -2.945791e+01 0.000000e+00
      vertex 6.769144e+00 -3.667797e+01 0.000000e+00
    endloop
  endfacet
  facet normal 0.000000e+00 0.000000e+00 1.000000e+00
    outer loop
      vertex -2.573086e+01 -3.667797e+01 0.000000e+00
      vertex -2.823086e+01 5.532203e+01 0.000000e+00
      vertex -2.823086e+01 -3.667797e+01 0.000000e+00
    endloop
  endfacet
  facet normal 0.000000e+00 0.000000e+00 1.000000e+00
    outer loop
      vertex -2.823086e+01 5.532203e+01 0.000000e+00
      vertex -2.573086e+01 -3.667797e+01 0.000000e+00
      vertex -2.573086e+01 4.782203e+01 0.000000e+00
    endloop
  endfacet
  facet normal 0.000000e+00 0.000000e+00 1.000000e+00
    outer loop
      vertex -2.823086e+01 5.532203e+01 0.000000e+00
      vertex -2.573086e+01 4.782203e+01 0.000000e+00
      vertex 1.326914e+01 5.532203e+01 0.000000e+00
    endloop
  endfacet
  facet normal 0.000000e+00 0.000000e+00 1.000000e+00
    outer loop
      vertex 1.326914e+01 5.532203e+01 0.000000e+00
      vertex -2.573086e+01 4.782203e+01 0.000000e+00
      vertex 4.769144e+00 4.782203e+01 0.000000e+00
    endloop
  endfacet
  facet normal 0.000000e+00 0.000000e+00 1.000000e+00
    outer loop
      vertex 1.326914e+01 5.532203e+01 0.000000e+00
      vertex 4.769144e+00 4.782203e+01 0.000000e+00
      vertex 6.710287e+00 -2.943353e+01 0.000000e+00
    endloop
  endfacet
  facet normal 0.000000e+00 0.000000e+00 1.000000e+00
    outer loop
      vertex 1.326914e+01 5.532203e+01 0.000000e+00
      vertex 6.710287e+00 -2.943353e+01 0.000000e+00
      vertex 6.769144e+00 -2.945791e+01 0.000000e+00
    endloop
  endfacet
  facet normal 0.000000e+00 0.000000e+00 1.000000e+00
    outer loop
      vertex 1.326914e+01 5.532203e+01 0.000000e+00
      vertex 6.769144e+00 -2.945791e+01 0.000000e+00
      vertex 1.326914e+01 -3.667797e+01 0.000000e+00
    endloop
  endfacet
  facet normal 0.000000e+00 0.000000e+00 -1.000000e+00
    outer loop
      vertex -2.823086e+01 5.532203e+01 7.500000e+00
      vertex -2.573086e+01 4.782203e+01 7.500000e+00
      vertex -2.823086e+01 -3.667797e+01 7.500000e+00
    endloop
  endfacet
  facet normal 0.000000e+00 0.000000e+00 -1.000000e+00
    outer loop
      vertex -2.573086e+01 4.782203e+01 7.500000e+00
      vertex -2.823086e+01 5.532203e+01 7.500000e+00
      vertex 1.326914e+01 5.532203e+01 7.500000e+00
    endloop
  endfacet
  facet normal 0.000000e+00 0.000000e+00 -1.000000e+00
    outer loop
      vertex -2.573086e+01 4.782203e+01 7.500000e+00
      vertex 1.326914e+01 5.532203e+01 7.500000e+00
      vertex 6.769144e+00 4.782203e+01 7.500000e+00
    endloop
  endfacet
  facet normal 0.000000e+00 0.000000e+00 -1.000000e+00
    outer loop
      vertex 6.769144e+00 4.782203e+01 7.500000e+00
      vertex 1.326914e+01 5.532203e+01 7.500000e+00
      vertex 6.769144e+00 -3.667797e+01 7.500000e+00
    endloop
  endfacet
  facet normal 0.000000e+00 0.000000e+00 -1.000000e+00
    outer loop
      vertex 6.769144e+00 -3.667797e+01 7.500000e+00
      vertex 1.326914e+01 5.532203e+01 7.500000e+00
      vertex 1.326914e+01 -3.667797e+01 7.500000e+00
    endloop
  endfacet
  facet normal 0.000000e+00 0.000000e+00 -1.000000e+00
    outer loop
      vertex -2.573086e+01 -3.667797e+01 7.500000e+00
      vertex -2.823086e+01 -3.667797e+01 7.500000e+00
      vertex -2.573086e+01 4.782203e+01 7.500000e+00
    endloop
  endfacet
  facet normal 0.000000e+00 -1.000000e+00 0.000000e+00
    outer loop
      vertex 1.326914e+01 5.532203e+01 7.500000e+00
      vertex -2.823086e+01 5.532203e+01 0.000000e+00
      vertex 1.326914e+01 5.532203e+01 0.000000e+00
    endloop
  endfacet
  facet normal 0.000000e+00 -1.000000e+00 0.000000e+00
    outer loop
      vertex -2.823086e+01 5.532203e+01 0.000000e+00
      vertex 1.326914e+01 5.532203e+01 7.500000e+00
      vertex -2.823086e+01 5.532203e+01 7.500000e+00
    endloop
  endfacet
  facet normal -1.000000e+00 0.000000e+00 0.000000e+00
    outer loop
      vertex 1.326914e+01 5.532203e+01 7.500000e+00
      vertex 1.326914e+01 -3.667797e+01 0.000000e+00
      vertex 1.326914e+01 -3.667797e+01 7.500000e+00
    endloop
  endfacet
  facet normal -1.000000e+00 0.000000e+00 0.000000e+00
    outer loop
      vertex 1.326914e+01 -3.667797e+01 0.000000e+00
      vertex 1.326914e+01 5.532203e+01 7.500000e+00
      vertex 1.326914e+01 5.532203e+01 0.000000e+00
    endloop
  endfacet
  facet normal -1.000000e+00 0.000000e+00 0.000000e+00
    outer loop
      vertex -2.573086e+01 4.782203e+01 7.500000e+00
      vertex -2.573086e+01 -3.667797e+01 0.000000e+00
      vertex -2.573086e+01 -3.667797e+01 7.500000e+00
    endloop
  endfacet
  facet normal -1.000000e+00 0.000000e+00 0.000000e+00
    outer loop
      vertex -2.573086e+01 -3.667797e+01 0.000000e+00
      vertex -2.573086e+01 4.782203e+01 7.500000e+00
      vertex -2.573086e+01 4.782203e+01 0.000000e+00
    endloop
  endfacet
  facet normal 0.000000e+00 1.000000e+00 0.000000e+00
    outer loop
      vertex -2.573086e+01 4.782203e+01 7.500000e+00
      vertex 4.769144e+00 4.782203e+01 0.000000e+00
      vertex -2.573086e+01 4.782203e+01 0.000000e+00
    endloop
  endfacet
  facet normal 0.000000e+00 1.000000e+00 0.000000e+00
    outer loop
      vertex 4.769144e+00 4.782203e+01 0.000000e+00
      vertex -2.573086e+01 4.782203e+01 7.500000e+00
      vertex 4.769144e+00 4.782203e+01 3.750000e+00
    endloop
  endfacet
  facet normal 0.000000e+00 1.000000e+00 0.000000e+00
    outer loop
      vertex 4.769144e+00 4.782203e+01 3.750000e+00
      vertex -2.573086e+01 4.782203e+01 7.500000e+00
      vertex 6.769144e+00 4.782203e+01 3.750000e+00
    endloop
  endfacet
  facet normal 0.000000e+00 1.000000e+00 0.000000e+00
    outer loop
      vertex 6.769144e+00 4.782203e+01 3.750000e+00
      vertex -2.573086e+01 4.782203e+01 7.500000e+00
      vertex 6.769144e+00 4.782203e+01 7.500000e+00
    endloop
  endfacet
  facet normal 1.000000e+00 0.000000e+00 0.000000e+00
    outer loop
      vertex -2.823086e+01 5.532203e+01 0.000000e+00
      vertex -2.823086e+01 -3.667797e+01 7.500000e+00
      vertex -2.823086e+01 -3.667797e+01 0.000000e+00
    endloop
  endfacet
  facet normal 1.000000e+00 0.000000e+00 0.000000e+00
    outer loop
      vertex -2.823086e+01 -3.667797e+01 7.500000e+00
      vertex -2.823086e+01 5.532203e+01 0.000000e+00
      vertex -2.823086e+01 5.532203e+01 7.500000e+00
    endloop
  endfacet
  facet normal 1.000000e+00 0.000000e+00 0.000000e+00
    outer loop
      vertex 4.769144e+00 4.782203e+01 0.000000e+00
      vertex 4.769144e+00 -2.917797e+01 3.750000e+00
      vertex 4.769144e+00 -2.917797e+01 0.000000e+00
    endloop
  endfacet
  facet normal 1.000000e+00 0.000000e+00 0.000000e+00
    outer loop
      vertex 4.769144e+00 -2.917797e+01 3.750000e+00
      vertex 4.769144e+00 4.782203e+01 0.000000e+00
      vertex 4.769144e+00 4.782203e+01 3.750000e+00
    endloop
  endfacet
  facet normal 1.000000e+00 0.000000e+00 0.000000e+00
    outer loop
      vertex 6.769144e+00 -2.945791e+01 0.000000e+00
      vertex 6.769144e+00 -3.667797e+01 7.500000e+00
      vertex 6.769144e+00 -3.667797e+01 0.000000e+00
    endloop
  endfacet
  facet normal 1.000000e+00 0.000000e+00 0.000000e+00
    outer loop
      vertex 6.769144e+00 -3.667797e+01 7.500000e+00
      vertex 6.769144e+00 -2.945791e+01 0.000000e+00
      vertex 6.769144e+00 -2.945791e+01 3.750000e+00
    endloop
  endfacet
  facet normal 1.000000e+00 0.000000e+00 0.000000e+00
    outer loop
      vertex 6.769144e+00 -3.667797e+01 7.500000e+00
      vertex 6.769144e+00 -2.945791e+01 3.750000e+00
      vertex 6.769144e+00 4.782203e+01 7.500000e+00
    endloop
  endfacet
  facet normal 1.000000e+00 0.000000e+00 0.000000e+00
    outer loop
      vertex 6.769144e+00 4.782203e+01 7.500000e+00
      vertex 6.769144e+00 -2.945791e+01 3.750000e+00
      vertex 6.769144e+00 4.782203e+01 3.750000e+00
    endloop
  endfacet
  facet normal 0.000000e+00 1.000000e+00 0.000000e+00
    outer loop
      vertex 6.769144e+00 -3.667797e+01 7.500000e+00
      vertex 1.326914e+01 -3.667797e+01 0.000000e+00
      vertex 6.769144e+00 -3.667797e+01 0.000000e+00
    endloop
  endfacet
  facet normal 0.000000e+00 1.000000e+00 0.000000e+00
    outer loop
      vertex 1.326914e+01 -3.667797e+01 0.000000e+00
      vertex 6.769144e+00 -3.667797e+01 7.500000e+00
      vertex 1.326914e+01 -3.667797e+01 7.500000e+00
    endloop
  endfacet
  facet normal 0.000000e+00 1.000000e+00 0.000000e+00
    outer loop
      vertex -2.823086e+01 -3.667797e+01 7.500000e+00
      vertex -2.573086e+01 -3.667797e+01 0.000000e+00
      vertex -2.823086e+01 -3.667797e+01 0.000000e+00
    endloop
  endfacet
  facet normal 0.000000e+00 1.000000e+00 0.000000e+00
    outer loop
      vertex -2.573086e+01 -3.667797e+01 0.000000e+00
      vertex -2.823086e+01 -3.667797e+01 7.500000e+00
      vertex -2.573086e+01 -3.667797e+01 7.500000e+00
    endloop
  endfacet
  facet normal 1.000000e+00 0.000000e+00 0.000000e+00
    outer loop
      vertex -1.326914e+01 3.667798e+01 0.000000e+00
      vertex -1.326914e+01 -5.532203e+01 7.500000e+00
      vertex -1.326914e+01 -5.532203e+01 0.000000e+00
    endloop
  endfacet
  facet normal 1.000000e+00 0.000000e+00 0.000000e+00
    outer loop
      vertex -1.326914e+01 -5.532203e+01 7.500000e+00
      vertex -1.326914e+01 3.667798e+01 0.000000e+00
      vertex -1.326914e+01 3.667798e+01 7.500000e+00
    endloop
  endfacet
  facet normal 0.000000e+00 -1.000000e+00 0.000000e+00
    outer loop
      vertex -1.076914e+01 3.667798e+01 7.500000e+00
      vertex -1.326914e+01 3.667798e+01 0.000000e+00
      vertex -1.076914e+01 3.667798e+01 0.000000e+00
    endloop
  endfacet
  facet normal 0.000000e+00 -1.000000e+00 0.000000e+00
    outer loop
      vertex -1.326914e+01 3.667798e+01 0.000000e+00
      vertex -1.076914e+01 3.667798e+01 7.500000e+00
      vertex -1.326914e+01 3.667798e+01 7.500000e+00
    endloop
  endfacet
  facet normal 0.000000e+00 0.000000e+00 -1.000000e+00
    outer loop
      vertex 2.172376e+01 2.924035e+01 3.750000e+00
      vertex 1.973086e+01 -4.782202e+01 3.750000e+00
      vertex 1.973086e+01 2.897798e+01 3.750000e+00
    endloop
  endfacet
  facet normal 0.000000e+00 0.000000e+00 -1.000000e+00
    outer loop
      vertex 1.973086e+01 -4.782202e+01 3.750000e+00
      vertex 2.172376e+01 2.924035e+01 3.750000e+00
      vertex 2.173086e+01 -4.782202e+01 3.750000e+00
    endloop
  endfacet
  facet normal 9.999999e-01 2.648584e-05 -3.368194e-04
    outer loop
      vertex 2.173086e+01 3.667798e+01 0.000000e+00
      vertex 2.172376e+01 2.924035e+01 3.750000e+00
      vertex 2.172376e+01 2.924035e+01 0.000000e+00
    endloop
  endfacet
  facet normal 9.999999e-01 2.648584e-05 -3.368194e-04
    outer loop
      vertex 2.172376e+01 2.924035e+01 3.750000e+00
      vertex 2.173086e+01 -4.782202e+01 7.500000e+00
      vertex 2.173086e+01 -4.782202e+01 3.750000e+00
    endloop
  endfacet
  facet normal 9.999999e-01 2.648584e-05 -3.368194e-04
    outer loop
      vertex 2.173086e+01 -4.782202e+01 7.500000e+00
      vertex 2.172376e+01 2.924035e+01 3.750000e+00
      vertex 2.173086e+01 3.667798e+01 7.500000e+00
    endloop
  endfacet
  facet normal 9.999999e-01 2.648584e-05 -3.368194e-04
    outer loop
      vertex 2.173086e+01 3.667798e+01 7.500000e+00
      vertex 2.172376e+01 2.924035e+01 3.750000e+00
      vertex 2.173086e+01 3.667798e+01 0.000000e+00
    endloop
  endfacet
  facet normal -1.000000e+00 0.000000e+00 0.000000e+00
    outer loop
      vertex 2.823086e+01 3.667798e+01 7.500000e+00
      vertex 2.823086e+01 -5.532203e+01 0.000000e+00
      vertex 2.823086e+01 -5.532203e+01 7.500000e+00
    endloop
  endfacet
  facet normal -1.000000e+00 0.000000e+00 0.000000e+00
    outer loop
      vertex 2.823086e+01 -5.532203e+01 0.000000e+00
      vertex 2.823086e+01 3.667798e+01 7.500000e+00
      vertex 2.823086e+01 3.667798e+01 0.000000e+00
    endloop
  endfacet
  facet normal 0.000000e+00 -1.000000e+00 0.000000e+00
    outer loop
      vertex 2.173086e+01 -4.782202e+01 7.500000e+00
      vertex 1.973086e+01 -4.782202e+01 3.750000e+00
      vertex 2.173086e+01 -4.782202e+01 3.750000e+00
    endloop
  endfacet
  facet normal 0.000000e+00 -1.000000e+00 0.000000e+00
    outer loop
      vertex 1.973086e+01 -4.782202e+01 3.750000e+00
      vertex -1.076914e+01 -4.782202e+01 0.000000e+00
      vertex 1.973086e+01 -4.782202e+01 0.000000e+00
    endloop
  endfacet
  facet normal 0.000000e+00 -1.000000e+00 0.000000e+00
    outer loop
      vertex -1.076914e+01 -4.782202e+01 0.000000e+00
      vertex 1.973086e+01 -4.782202e+01 3.750000e+00
      vertex -1.076914e+01 -4.782202e+01 7.500000e+00
    endloop
  endfacet
  facet normal 0.000000e+00 -1.000000e+00 0.000000e+00
    outer loop
      vertex -1.076914e+01 -4.782202e+01 7.500000e+00
      vertex 1.973086e+01 -4.782202e+01 3.750000e+00
      vertex 2.173086e+01 -4.782202e+01 7.500000e+00
    endloop
  endfacet
  facet normal 0.000000e+00 0.000000e+00 1.000000e+00
    outer loop
      vertex -1.326914e+01 -5.532203e+01 0.000000e+00
      vertex -1.076914e+01 -4.782202e+01 0.000000e+00
      vertex -1.326914e+01 3.667798e+01 0.000000e+00
    endloop
  endfacet
  facet normal 0.000000e+00 0.000000e+00 1.000000e+00
    outer loop
      vertex -1.076914e+01 -4.782202e+01 0.000000e+00
      vertex -1.326914e+01 -5.532203e+01 0.000000e+00
      vertex 2.823086e+01 -5.532203e+01 0.000000e+00
    endloop
  endfacet
  facet normal 0.000000e+00 0.000000e+00 1.000000e+00
    outer loop
      vertex -1.076914e+01 -4.782202e+01 0.000000e+00
      vertex 2.823086e+01 -5.532203e+01 0.000000e+00
      vertex 1.973086e+01 -4.782202e+01 0.000000e+00
    endloop
  endfacet
  facet normal 0.000000e+00 0.000000e+00 1.000000e+00
    outer loop
      vertex 1.973086e+01 -4.782202e+01 0.000000e+00
      vertex 2.823086e+01 -5.532203e+01 0.000000e+00
      vertex 1.973086e+01 2.897798e+01 0.000000e+00
    endloop
  endfacet
  facet normal 0.000000e+00 0.000000e+00 1.000000e+00
    outer loop
      vertex 1.973086e+01 2.897798e+01 0.000000e+00
      vertex 2.823086e+01 -5.532203e+01 0.000000e+00
      vertex 2.172376e+01 2.924035e+01 0.000000e+00
    endloop
  endfacet
  facet normal 0.000000e+00 0.000000e+00 1.000000e+00
    outer loop
      vertex 2.172376e+01 2.924035e+01 0.000000e+00
      vertex 2.823086e+01 -5.532203e+01 0.000000e+00
      vertex 2.173086e+01 3.667798e+01 0.000000e+00
    endloop
  endfacet
  facet normal 0.000000e+00 0.000000e+00 1.000000e+00
    outer loop
      vertex 2.173086e+01 3.667798e+01 0.000000e+00
      vertex 2.823086e+01 -5.532203e+01 0.000000e+00
      vertex 2.823086e+01 3.667798e+01 0.000000e+00
    endloop
  endfacet
  facet normal 0.000000e+00 0.000000e+00 1.000000e+00
    outer loop
      vertex -1.076914e+01 3.667798e+01 0.000000e+00
      vertex -1.326914e+01 3.667798e+01 0.000000e+00
      vertex -1.076914e+01 -4.782202e+01 0.000000e+00
    endloop
  endfacet
  facet normal 0.000000e+00 1.000000e+00 0.000000e+00
    outer loop
      vertex -1.326914e+01 -5.532203e+01 7.500000e+00
      vertex 2.823086e+01 -5.532203e+01 0.000000e+00
      vertex -1.326914e+01 -5.532203e+01 0.000000e+00
    endloop
  endfacet
  facet normal 0.000000e+00 1.000000e+00 0.000000e+00
    outer loop
      vertex 2.823086e+01 -5.532203e+01 0.000000e+00
      vertex -1.326914e+01 -5.532203e+01 7.500000e+00
      vertex 2.823086e+01 -5.532203e+01 7.500000e+00
    endloop
  endfacet
  facet normal 0.000000e+00 0.000000e+00 -1.000000e+00
    outer loop
      vertex 2.823086e+01 3.667798e+01 7.500000e+00
      vertex 2.173086e+01 -4.782202e+01 7.500000e+00
      vertex 2.173086e+01 3.667798e+01 7.500000e+00
    endloop
  endfacet
  facet normal 0.000000e+00 0.000000e+00 -1.000000e+00
    outer loop
      vertex -1.076914e+01 3.667798e+01 7.500000e+00
      vertex -1.326914e+01 -5.532203e+01 7.500000e+00
      vertex -1.326914e+01 3.667798e+01 7.500000e+00
    endloop
  endfacet
  facet normal 0.000000e+00 0.000000e+00 -1.000000e+00
    outer loop
      vertex -1.326914e+01 -5.532203e+01 7.500000e+00
      vertex -1.076914e+01 3.667798e+01 7.500000e+00
      vertex -1.076914e+01 -4.782202e+01 7.500000e+00
    endloop
  endfacet
  facet normal 0.000000e+00 0.000000e+00 -1.000000e+00
    outer loop
      vertex -1.326914e+01 -5.532203e+01 7.500000e+00
      vertex -1.076914e+01 -4.782202e+01 7.500000e+00
      vertex 2.823086e+01 -5.532203e+01 7.500000e+00
    endloop
  endfacet
  facet normal 0.000000e+00 0.000000e+00 -1.000000e+00
    outer loop
      vertex 2.823086e+01 -5.532203e+01 7.500000e+00
      vertex -1.076914e+01 -4.782202e+01 7.500000e+00
      vertex 2.173086e+01 -4.782202e+01 7.500000e+00
    endloop
  endfacet
  facet normal 0.000000e+00 0.000000e+00 -1.000000e+00
    outer loop
      vertex 2.823086e+01 -5.532203e+01 7.500000e+00
      vertex 2.173086e+01 -4.782202e+01 7.500000e+00
      vertex 2.823086e+01 3.667798e+01 7.500000e+00
    endloop
  endfacet
  facet normal -1.000000e+00 0.000000e+00 0.000000e+00
    outer loop
      vertex -1.076914e+01 3.667798e+01 7.500000e+00
      vertex -1.076914e+01 -4.782202e+01 0.000000e+00
      vertex -1.076914e+01 -4.782202e+01 7.500000e+00
    endloop
  endfacet
  facet normal -1.000000e+00 0.000000e+00 0.000000e+00
    outer loop
      vertex -1.076914e+01 -4.782202e+01 0.000000e+00
      vertex -1.076914e+01 3.667798e+01 7.500000e+00
      vertex -1.076914e+01 3.667798e+01 0.000000e+00
    endloop
  endfacet
  facet normal 1.000000e+00 0.000000e+00 0.000000e+00
    outer loop
      vertex 1.973086e+01 2.897798e+01 0.000000e+00
      vertex 1.973086e+01 -4.782202e+01 3.750000e+00
      vertex 1.973086e+01 -4.782202e+01 0.000000e+00
    endloop
  endfacet
  facet normal 1.000000e+00 0.000000e+00 0.000000e+00
    outer loop
      vertex 1.973086e+01 -4.782202e+01 3.750000e+00
      vertex 1.973086e+01 2.897798e+01 0.000000e+00
      vertex 1.973086e+01 2.897798e+01 3.750000e+00
    endloop
  endfacet
  facet normal 0.000000e+00 -1.000000e+00 0.000000e+00
    outer loop
      vertex 2.823086e+01 3.667798e+01 7.500000e+00
      vertex 2.173086e+01 3.667798e+01 0.000000e+00
      vertex 2.823086e+01 3.667798e+01 0.000000e+00
    endloop
  endfacet
  facet normal 0.000000e+00 -1.000000e+00 0.000000e+00
    outer loop
      vertex 2.173086e+01 3.667798e+01 0.000000e+00
      vertex 2.823086e+01 3.667798e+01 7.500000e+00
      vertex 2.173086e+01 3.667798e+01 7.500000e+00
    endloop
  endfacet
  facet normal 1.305262e-01 -9.914449e-01 0.000000e+00
    outer loop
      vertex 2.172376e+01 2.924035e+01 3.750000e+00
      vertex 1.973086e+01 2.897798e+01 0.000000e+00
      vertex 2.172376e+01 2.924035e+01 0.000000e+00
    endloop
  endfacet
  facet normal 1.305262e-01 -9.914449e-01 0.000000e+00
    outer loop
      vertex 1.973086e+01 2.897798e+01 0.000000e+00
      vertex 2.172376e+01 2.924035e+01 3.750000e+00
      vertex 1.973086e+01 2.897798e+01 3.750000e+00
    endloop
  endfacet
  facet normal 1.305262e-01 9.914449e-01 0.000000e+00
    outer loop
      vertex 4.769144e+00 -2.917797e+01 3.750000e+00
      vertex 6.710287e+00 -2.943353e+01 0.000000e+00
      vertex 4.769144e+00 -2.917797e+01 0.000000e+00
    endloop
  endfacet
  facet normal 1.305262e-01 9.914449e-01 0.000000e+00
    outer loop
      vertex 6.710287e+00 -2.943353e+01 0.000000e+00
      vertex 4.769144e+00 -2.917797e+01 3.750000e+00
      vertex 6.710287e+00 -2.943353e+01 3.750000e+00
    endloop
  endfacet
  facet normal 3.826834e-01 9.238795e-01 0.000000e+00
    outer loop
      vertex 6.710287e+00 -2.943353e+01 3.750000e+00
      vertex 6.769144e+00 -2.945791e+01 0.000000e+00
      vertex 6.710287e+00 -2.943353e+01 0.000000e+00
    endloop
  endfacet
  facet normal 3.826834e-01 9.238795e-01 0.000000e+00
    outer loop
      vertex 6.769144e+00 -2.945791e+01 0.000000e+00
      vertex 6.710287e+00 -2.943353e+01 3.750000e+00
      vertex 6.769144e+00 -2.945791e+01 3.750000e+00
    endloop
  endfacet
endsolid Default
