solid OpenSCAD_Model
  facet normal -1 -0 -0
    outer loop
      vertex 0 13 3.06152e-16
      vertex 0 13 0.180149
      vertex 0 18 0
    endloop
  endfacet
  facet normal -1 0 0
    outer loop
      vertex 0 18 0
      vertex 0 13 0.180149
      vertex 0 18 0.180149
    endloop
  endfacet
  facet normal 0 -1 0
    outer loop
      vertex 0 13 0.180149
      vertex 0 13 3.06152e-16
      vertex 0.494955 13 3.06152e-16
    endloop
  endfacet
  facet normal -0 -6.12303e-17 -1
    outer loop
      vertex 0 13 3.06152e-16
      vertex 0 18 0
      vertex 0.494955 13 3.06152e-16
    endloop
  endfacet
  facet normal 0 -6.12303e-17 -1
    outer loop
      vertex 0.494955 13 3.06152e-16
      vertex 0 18 0
      vertex 0.494955 18 0
    endloop
  endfacet
  facet normal -0 1 0
    outer loop
      vertex 0.494955 18 0
      vertex 0 18 0
      vertex 0 18 0.180149
    endloop
  endfacet
  facet normal 0.34202 -3.2173e-18 0.939693
    outer loop
      vertex 0.494955 13 3.06152e-16
      vertex 0.494955 18 0
      vertex 0 18 0.180149
    endloop
  endfacet
  facet normal 0.34202 0 0.939693
    outer loop
      vertex 0 13 0.180149
      vertex 0.494955 13 3.06152e-16
      vertex 0 18 0.180149
    endloop
  endfacet
  facet normal -0.939693 0 0.34202
    outer loop
      vertex 0 -4 50
      vertex 1.7101 -4 54.6985
      vertex 0 13 50
    endloop
  endfacet
  facet normal -0.939693 0 0.34202
    outer loop
      vertex 1.1143e-16 13 50
      vertex 1.7101 -4 54.6985
      vertex 1.7101 56 54.6985
    endloop
  endfacet
  facet normal -0.939693 0 0.34202
    outer loop
      vertex 0 38 50
      vertex 1.7101 56 54.6985
      vertex 0 56 50
    endloop
  endfacet
  facet normal -0.939693 -2.0942e-17 0.34202
    outer loop
      vertex 1.1143e-16 33 50
      vertex 1.7101 56 54.6985
      vertex 0 38 50
    endloop
  endfacet
  facet normal 0 0 1.67145e-15
    outer loop
      vertex 0 18 50
      vertex 1.1143e-16 33 50
      vertex 0 33 50
    endloop
  endfacet
  facet normal 0 5.2355e-16 1.89431e-15
    outer loop
      vertex 0 13 50
      vertex 1.7101 -4 54.6985
      vertex 1.1143e-16 13 50
    endloop
  endfacet
  facet normal -0.939693 0 0.34202
    outer loop
      vertex 1.1143e-16 13 50
      vertex 1.7101 56 54.6985
      vertex 1.1143e-16 33 50
    endloop
  endfacet
  facet normal 0 0 2.2286e-15
    outer loop
      vertex 1.1143e-16 13 50
      vertex 1.1143e-16 33 50
      vertex 0 18 50
    endloop
  endfacet
  facet normal 0 -1 0
    outer loop
      vertex 1.7101 -4 54.6985
      vertex 0 -4 50
      vertex 18.7939 -4 43.1596
    endloop
  endfacet
  facet normal 0 -1 0
    outer loop
      vertex 20.504 -4 47.8581
      vertex 1.7101 -4 54.6985
      vertex 18.7939 -4 43.1596
    endloop
  endfacet
  facet normal -0.34202 -0 -0.939693
    outer loop
      vertex 0 -4 50
      vertex 0 13 50
      vertex 18.7939 -4 43.1596
    endloop
  endfacet
  facet normal -0.34202 -0 -0.939693
    outer loop
      vertex 18.7939 -4 43.1596
      vertex 0 13 50
      vertex 18.7939 13 43.1596
    endloop
  endfacet
  facet normal 1.45294e-17 -1 3.99191e-17
    outer loop
      vertex 0 13 50
      vertex 0 13 5.50104
      vertex 15.114 13 3.06152e-16
    endloop
  endfacet
  facet normal 1.51342e-17 -1 4.15808e-17
    outer loop
      vertex 18.7939 13 43.1596
      vertex 0 13 50
      vertex 20 13 3.06152e-16
    endloop
  endfacet
  facet normal 0 -1 3.55271e-17
    outer loop
      vertex 20 13 3.06152e-16
      vertex 0 13 50
      vertex 15.114 13 3.06152e-16
    endloop
  endfacet
  facet normal -1.05017e-16 -1 3.8223e-17
    outer loop
      vertex 20 13 46.4735
      vertex 18.7939 13 43.1596
      vertex 20 13 3.06152e-16
    endloop
  endfacet
  facet normal -1 -0 0
    outer loop
      vertex 0 13 5.50104
      vertex 0 13 50
      vertex 0 18 5.50104
    endloop
  endfacet
  facet normal -1 0 0
    outer loop
      vertex 0 18 5.50104
      vertex 0 13 50
      vertex 0 18 50
    endloop
  endfacet
  facet normal 0 -0 5.5715e-16
    outer loop
      vertex 0 18 50
      vertex 0 13 50
      vertex 1.1143e-16 13 50
    endloop
  endfacet
  facet normal 0 1 0
    outer loop
      vertex 0 18 5.50104
      vertex 0 18 50
      vertex 15.114 18 0
    endloop
  endfacet
  facet normal 0 1 0
    outer loop
      vertex 15.114 18 0
      vertex 0 18 50
      vertex 18.7939 18 43.1596
    endloop
  endfacet
  facet normal 0 1 0
    outer loop
      vertex 15.114 18 0
      vertex 18.7939 18 43.1596
      vertex 20 18 46.4735
    endloop
  endfacet
  facet normal 0 1 0
    outer loop
      vertex 15.114 18 0
      vertex 20 18 46.4735
      vertex 20 18 0
    endloop
  endfacet
  facet normal -0.34202 -0 -0.939693
    outer loop
      vertex 0 18 50
      vertex 0 33 50
      vertex 18.7939 18 43.1596
    endloop
  endfacet
  facet normal -0.34202 -0 -0.939693
    outer loop
      vertex 18.7939 18 43.1596
      vertex 0 33 50
      vertex 18.7939 33 43.1596
    endloop
  endfacet
  facet normal 0 -1 0
    outer loop
      vertex 0 33 50
      vertex 0 33 5.50104
      vertex 15.114 33 3.06152e-16
    endloop
  endfacet
  facet normal 0 -1 0
    outer loop
      vertex 18.7939 33 43.1596
      vertex 0 33 50
      vertex 20 33 3.06152e-16
    endloop
  endfacet
  facet normal 0 -1 0
    outer loop
      vertex 20 33 3.06152e-16
      vertex 0 33 50
      vertex 15.114 33 3.06152e-16
    endloop
  endfacet
  facet normal 0 -1 0
    outer loop
      vertex 20 33 46.4735
      vertex 18.7939 33 43.1596
      vertex 20 33 3.06152e-16
    endloop
  endfacet
  facet normal -1 -0 -0
    outer loop
      vertex 0 33 5.50104
      vertex 0 33 50
      vertex 0 38 5.50104
    endloop
  endfacet
  facet normal -1 0 0
    outer loop
      vertex 0 38 5.50104
      vertex 0 33 50
      vertex 0 38 50
    endloop
  endfacet
  facet normal 0 -0 5.5715e-16
    outer loop
      vertex 0 38 50
      vertex 0 33 50
      vertex 1.1143e-16 33 50
    endloop
  endfacet
  facet normal 0 1 0
    outer loop
      vertex 0 38 5.50104
      vertex 0 38 50
      vertex 15.114 38 0
    endloop
  endfacet
  facet normal 0 1 0
    outer loop
      vertex 15.114 38 0
      vertex 0 38 50
      vertex 18.7939 38 43.1596
    endloop
  endfacet
  facet normal 0 1 0
    outer loop
      vertex 15.114 38 0
      vertex 18.7939 38 43.1596
      vertex 20 38 46.4735
    endloop
  endfacet
  facet normal 0 1 0
    outer loop
      vertex 15.114 38 0
      vertex 20 38 46.4735
      vertex 20 38 0
    endloop
  endfacet
  facet normal -0.34202 -0 -0.939693
    outer loop
      vertex 0 38 50
      vertex 0 56 50
      vertex 18.7939 38 43.1596
    endloop
  endfacet
  facet normal -0.34202 -0 -0.939693
    outer loop
      vertex 18.7939 38 43.1596
      vertex 0 56 50
      vertex 18.7939 56 43.1596
    endloop
  endfacet
  facet normal 0 1 0
    outer loop
      vertex 0 56 50
      vertex 1.7101 56 54.6985
      vertex 18.7939 56 43.1596
    endloop
  endfacet
  facet normal 0 1 0
    outer loop
      vertex 18.7939 56 43.1596
      vertex 1.7101 56 54.6985
      vertex 20.504 56 47.8581
    endloop
  endfacet
  facet normal 0.34202 -0 0.939693
    outer loop
      vertex 1.7101 56 54.6985
      vertex 1.7101 -4 54.6985
      vertex 20.504 -4 47.8581
    endloop
  endfacet
  facet normal 0.34202 -0 0.939693
    outer loop
      vertex 20.504 56 47.8581
      vertex 1.7101 56 54.6985
      vertex 20.504 -4 47.8581
    endloop
  endfacet
  facet normal 0.939693 0 -0.34202
    outer loop
      vertex 20.504 -4 47.8581
      vertex 18.7939 -4 43.1596
      vertex 18.7939 13 43.1596
    endloop
  endfacet
  facet normal 0.939693 0 -0.34202
    outer loop
      vertex 20 18 46.4735
      vertex 20.504 -4 47.8581
      vertex 20 13 46.4735
    endloop
  endfacet
  facet normal 0.939693 -1.152e-17 -0.34202
    outer loop
      vertex 20 13 46.4735
      vertex 20.504 -4 47.8581
      vertex 18.7939 13 43.1596
    endloop
  endfacet
  facet normal 0.939693 0 -0.34202
    outer loop
      vertex 20 33 46.4735
      vertex 20.504 -4 47.8581
      vertex 20 18 46.4735
    endloop
  endfacet
  facet normal 0.939693 0 -0.34202
    outer loop
      vertex 18.7939 33 43.1596
      vertex 20 18 46.4735
      vertex 18.7939 18 43.1596
    endloop
  endfacet
  facet normal 0.939693 0 -0.34202
    outer loop
      vertex 20 33 46.4735
      vertex 20 18 46.4735
      vertex 18.7939 33 43.1596
    endloop
  endfacet
  facet normal 0.939693 0 -0.34202
    outer loop
      vertex 20 38 46.4735
      vertex 20.504 -4 47.8581
      vertex 20 33 46.4735
    endloop
  endfacet
  facet normal 0.939693 0 -0.34202
    outer loop
      vertex 20.504 56 47.8581
      vertex 20.504 -4 47.8581
      vertex 20 38 46.4735
    endloop
  endfacet
  facet normal 0.939693 0 -0.34202
    outer loop
      vertex 18.7939 56 43.1596
      vertex 20 38 46.4735
      vertex 18.7939 38 43.1596
    endloop
  endfacet
  facet normal 0.939693 7.67374e-18 -0.34202
    outer loop
      vertex 20.504 56 47.8581
      vertex 20 38 46.4735
      vertex 18.7939 56 43.1596
    endloop
  endfacet
  facet normal 1 0 -0
    outer loop
      vertex 20 13 46.4735
      vertex 20 13 3.06152e-16
      vertex 20 18 0
    endloop
  endfacet
  facet normal 1 0 0
    outer loop
      vertex 20 18 46.4735
      vertex 20 13 46.4735
      vertex 20 18 0
    endloop
  endfacet
  facet normal -0 -6.12303e-17 -1
    outer loop
      vertex 15.114 13 3.06152e-16
      vertex 15.114 18 0
      vertex 20 13 3.06152e-16
    endloop
  endfacet
  facet normal 0 -6.12303e-17 -1
    outer loop
      vertex 20 13 3.06152e-16
      vertex 15.114 18 0
      vertex 20 18 0
    endloop
  endfacet
  facet normal -0.34202 -5.75377e-17 -0.939693
    outer loop
      vertex 15.114 18 0
      vertex 15.114 13 3.06152e-16
      vertex 0 18 5.50104
    endloop
  endfacet
  facet normal -0.34202 0 -0.939693
    outer loop
      vertex 0 18 5.50104
      vertex 15.114 13 3.06152e-16
      vertex 0 13 5.50104
    endloop
  endfacet
  facet normal 1 0 -0
    outer loop
      vertex 20 33 46.4735
      vertex 20 33 3.06152e-16
      vertex 20 38 0
    endloop
  endfacet
  facet normal 1 0 0
    outer loop
      vertex 20 38 46.4735
      vertex 20 33 46.4735
      vertex 20 38 0
    endloop
  endfacet
  facet normal -0 -6.12303e-17 -1
    outer loop
      vertex 15.114 33 3.06152e-16
      vertex 15.114 38 0
      vertex 20 33 3.06152e-16
    endloop
  endfacet
  facet normal 0 -6.12303e-17 -1
    outer loop
      vertex 20 33 3.06152e-16
      vertex 15.114 38 0
      vertex 20 38 0
    endloop
  endfacet
  facet normal -0.34202 -5.75377e-17 -0.939693
    outer loop
      vertex 15.114 38 0
      vertex 15.114 33 3.06152e-16
      vertex 0 38 5.50104
    endloop
  endfacet
  facet normal -0.34202 0 -0.939693
    outer loop
      vertex 0 38 5.50104
      vertex 15.114 33 3.06152e-16
      vertex 0 33 5.50104
    endloop
  endfacet
  facet normal -1 -0 -0
    outer loop
      vertex 0 33 3.06152e-16
      vertex 0 33 0.180149
      vertex 0 38 0
    endloop
  endfacet
  facet normal -1 0 0
    outer loop
      vertex 0 38 0
      vertex 0 33 0.180149
      vertex 0 38 0.180149
    endloop
  endfacet
  facet normal 0 -1 0
    outer loop
      vertex 0 33 0.180149
      vertex 0 33 3.06152e-16
      vertex 0.494955 33 3.06152e-16
    endloop
  endfacet
  facet normal -0 -6.12303e-17 -1
    outer loop
      vertex 0 33 3.06152e-16
      vertex 0 38 0
      vertex 0.494955 33 3.06152e-16
    endloop
  endfacet
  facet normal 0 -6.12303e-17 -1
    outer loop
      vertex 0.494955 33 3.06152e-16
      vertex 0 38 0
      vertex 0.494955 38 0
    endloop
  endfacet
  facet normal -0 1 0
    outer loop
      vertex 0.494955 38 0
      vertex 0 38 0
      vertex 0 38 0.180149
    endloop
  endfacet
  facet normal 0.34202 -3.2173e-18 0.939693
    outer loop
      vertex 0.494955 33 3.06152e-16
      vertex 0.494955 38 0
      vertex 0 38 0.180149
    endloop
  endfacet
  facet normal 0.34202 0 0.939693
    outer loop
      vertex 0 33 0.180149
      vertex 0.494955 33 3.06152e-16
      vertex 0 38 0.180149
    endloop
  endfacet
endsolid OpenSCAD_Model
