solid OpenSCAD_Model
  facet normal -1.000000 -0.000000 -0.000000
    outer loop
      vertex 0.000000 0.000000 0.000000
      vertex 0.000000 0.000000 24.000000
      vertex 0.000000 24.000000 0.000000
    endloop
  endfacet
  facet normal -1.000000 0.000000 0.000000
    outer loop
      vertex 0.000000 24.000000 0.000000
      vertex 0.000000 0.000000 24.000000
      vertex 0.000000 24.000000 24.000000
    endloop
  endfacet
  facet normal 0.000000 -1.000000 0.000000
    outer loop
      vertex 0.000000 0.000000 24.000000
      vertex 0.000000 0.000000 0.000000
      vertex 116.000000 0.000000 0.000000
    endloop
  endfacet
  facet normal 0.000000 -1.000000 0.000000
    outer loop
      vertex 116.000000 0.000000 24.000000
      vertex 0.000000 0.000000 24.000000
      vertex 116.000000 0.000000 0.000000
    endloop
  endfacet
  facet normal -0.000000 -0.000000 -1.000000
    outer loop
      vertex 0.000000 0.000000 0.000000
      vertex 0.000000 24.000000 0.000000
      vertex 116.000000 0.000000 0.000000
    endloop
  endfacet
  facet normal 0.000000 0.000000 -1.000000
    outer loop
      vertex 116.000000 0.000000 0.000000
      vertex 0.000000 24.000000 0.000000
      vertex 92.000000 24.000000 0.000000
    endloop
  endfacet
  facet normal 0.000000 0.000000 -1.000000
    outer loop
      vertex 116.000000 0.000000 0.000000
      vertex 92.000000 24.000000 0.000000
      vertex 92.000000 74.000000 0.000000
    endloop
  endfacet
  facet normal 0.000000 0.000000 -1.000000
    outer loop
      vertex 116.000000 0.000000 0.000000
      vertex 92.000000 74.000000 0.000000
      vertex 116.000000 74.000000 0.000000
    endloop
  endfacet
  facet normal 0.000000 1.000000 0.000000
    outer loop
      vertex 0.000000 24.000000 0.000000
      vertex 0.000000 24.000000 24.000000
      vertex 92.000000 24.000000 0.000000
    endloop
  endfacet
  facet normal 0.000000 1.000000 0.000000
    outer loop
      vertex 92.000000 24.000000 0.000000
      vertex 0.000000 24.000000 24.000000
      vertex 92.000000 24.000000 24.000000
    endloop
  endfacet
  facet normal 0.000000 -0.000000 1.000000
    outer loop
      vertex 0.000000 24.000000 24.000000
      vertex 0.000000 0.000000 24.000000
      vertex 116.000000 0.000000 24.000000
    endloop
  endfacet
  facet normal 0.000000 -0.000000 1.000000
    outer loop
      vertex 92.000000 24.000000 24.000000
      vertex 0.000000 24.000000 24.000000
      vertex 116.000000 0.000000 24.000000
    endloop
  endfacet
  facet normal 0.000000 0.000000 1.000000
    outer loop
      vertex 116.000000 74.000000 24.000000
      vertex 92.000000 24.000000 24.000000
      vertex 116.000000 0.000000 24.000000
    endloop
  endfacet
  facet normal 0.000000 -0.000000 1.000000
    outer loop
      vertex 92.000000 74.000000 24.000000
      vertex 92.000000 24.000000 24.000000
      vertex 116.000000 74.000000 24.000000
    endloop
  endfacet
  facet normal 1.000000 0.000000 -0.000000
    outer loop
      vertex 116.000000 0.000000 24.000000
      vertex 116.000000 0.000000 0.000000
      vertex 116.000000 74.000000 0.000000
    endloop
  endfacet
  facet normal 1.000000 0.000000 0.000000
    outer loop
      vertex 116.000000 74.000000 24.000000
      vertex 116.000000 0.000000 24.000000
      vertex 116.000000 74.000000 0.000000
    endloop
  endfacet
  facet normal 0.000000 1.000000 0.000000
    outer loop
      vertex 92.000000 74.000000 0.000000
      vertex 92.000000 74.000000 24.000000
      vertex 116.000000 74.000000 0.000000
    endloop
  endfacet
  facet normal 0.000000 1.000000 0.000000
    outer loop
      vertex 116.000000 74.000000 0.000000
      vertex 92.000000 74.000000 24.000000
      vertex 116.000000 74.000000 24.000000
    endloop
  endfacet
  facet normal -1.000000 -0.000000 -0.000000
    outer loop
      vertex 92.000000 24.000000 0.000000
      vertex 92.000000 24.000000 24.000000
      vertex 92.000000 74.000000 0.000000
    endloop
  endfacet
  facet normal -1.000000 0.000000 0.000000
    outer loop
      vertex 92.000000 74.000000 0.000000
      vertex 92.000000 24.000000 24.000000
      vertex 92.000000 74.000000 24.000000
    endloop
  endfacet
  facet normal -1.000000 -0.000000 0.000000
    outer loop
      vertex 0.000000 30.000000 20.000000
      vertex 0.000000 104.000000 20.000000
      vertex 0.000000 30.000000 0.000000
    endloop
  endfacet
  facet normal -1.000000 0.000000 0.000000
    outer loop
      vertex 0.000000 30.000000 0.000000
      vertex 0.000000 104.000000 20.000000
      vertex 0.000000 104.000000 2.000000
    endloop
  endfacet
  facet normal -1.000000 0.000000 0.000000
    outer loop
      vertex 0.000000 30.000000 0.000000
      vertex 0.000000 104.000000 2.000000
      vertex 0.000000 126.000000 2.000000
    endloop
  endfacet
  facet normal -1.000000 0.000000 0.000000
    outer loop
      vertex 0.000000 30.000000 0.000000
      vertex 0.000000 126.000000 2.000000
      vertex 0.000000 126.000000 0.000000
    endloop
  endfacet
  facet normal 0.000000 -0.000000 1.000000
    outer loop
      vertex 0.000000 104.000000 20.000000
      vertex 0.000000 30.000000 20.000000
      vertex 24.000000 30.000000 20.000000
    endloop
  endfacet
  facet normal 0.000000 -0.000000 1.000000
    outer loop
      vertex 24.000000 104.000000 20.000000
      vertex 0.000000 104.000000 20.000000
      vertex 24.000000 30.000000 20.000000
    endloop
  endfacet
  facet normal 0.000000 -1.000000 0.000000
    outer loop
      vertex 24.000000 30.000000 20.000000
      vertex 0.000000 30.000000 20.000000
      vertex 0.000000 30.000000 0.000000
    endloop
  endfacet
  facet normal 0.000000 -1.000000 0.000000
    outer loop
      vertex 24.000000 30.000000 0.000000
      vertex 24.000000 30.000000 20.000000
      vertex 0.000000 30.000000 0.000000
    endloop
  endfacet
  facet normal 0.000000 0.000000 -1.000000
    outer loop
      vertex 0.000000 30.000000 0.000000
      vertex 0.000000 126.000000 0.000000
      vertex 24.000000 30.000000 0.000000
    endloop
  endfacet
  facet normal 0.000000 0.000000 -1.000000
    outer loop
      vertex 56.000000 104.000000 0.000000
      vertex 0.000000 126.000000 0.000000
      vertex 79.592112 126.000000 0.000000
    endloop
  endfacet
  facet normal 0.000000 0.000000 -1.000000
    outer loop
      vertex 24.000000 104.000000 0.000000
      vertex 0.000000 126.000000 0.000000
      vertex 56.000000 104.000000 0.000000
    endloop
  endfacet
  facet normal 0.000000 0.000000 -1.000000
    outer loop
      vertex 24.000000 30.000000 0.000000
      vertex 0.000000 126.000000 0.000000
      vertex 24.000000 104.000000 0.000000
    endloop
  endfacet
  facet normal 0.000000 1.000000 -0.000000
    outer loop
      vertex 0.000000 126.000000 2.000000
      vertex 79.592112 126.000000 2.000000
      vertex 0.000000 126.000000 0.000000
    endloop
  endfacet
  facet normal 0.000000 1.000000 0.000000
    outer loop
      vertex 0.000000 126.000000 0.000000
      vertex 79.592112 126.000000 2.000000
      vertex 79.592112 126.000000 0.000000
    endloop
  endfacet
  facet normal 0.000000 -0.000000 1.000000
    outer loop
      vertex 0.000000 126.000000 2.000000
      vertex 0.000000 104.000000 2.000000
      vertex 24.000000 104.000000 2.000000
    endloop
  endfacet
  facet normal 0.000000 -0.000000 1.000000
    outer loop
      vertex 79.592112 126.000000 2.000000
      vertex 0.000000 126.000000 2.000000
      vertex 56.000000 104.000000 2.000000
    endloop
  endfacet
  facet normal 0.000000 -0.000000 1.000000
    outer loop
      vertex 56.000000 104.000000 2.000000
      vertex 0.000000 126.000000 2.000000
      vertex 24.000000 104.000000 2.000000
    endloop
  endfacet
  facet normal -0.000000 1.000000 0.000000
    outer loop
      vertex 24.000000 104.000000 2.000000
      vertex 0.000000 104.000000 2.000000
      vertex 24.000000 104.000000 20.000000
    endloop
  endfacet
  facet normal 0.000000 1.000000 0.000000
    outer loop
      vertex 24.000000 104.000000 20.000000
      vertex 0.000000 104.000000 2.000000
      vertex 0.000000 104.000000 20.000000
    endloop
  endfacet
  facet normal 1.000000 0.000000 0.000000
    outer loop
      vertex 24.000000 104.000000 20.000000
      vertex 24.000000 30.000000 20.000000
      vertex 24.000000 30.000000 0.000000
    endloop
  endfacet
  facet normal 1.000000 -0.000000 0.000000
    outer loop
      vertex 24.000000 104.000000 2.000000
      vertex 24.000000 104.000000 20.000000
      vertex 24.000000 30.000000 0.000000
    endloop
  endfacet
  facet normal 1.000000 -0.000000 0.000000
    outer loop
      vertex 24.000000 104.000000 0.000000
      vertex 24.000000 104.000000 2.000000
      vertex 24.000000 30.000000 0.000000
    endloop
  endfacet
  facet normal 0.000000 -1.000000 0.000000
    outer loop
      vertex 56.000000 104.000000 2.000000
      vertex 24.000000 104.000000 2.000000
      vertex 24.000000 104.000000 0.000000
    endloop
  endfacet
  facet normal 0.000000 -1.000000 0.000000
    outer loop
      vertex 56.000000 104.000000 0.000000
      vertex 56.000000 104.000000 2.000000
      vertex 24.000000 104.000000 0.000000
    endloop
  endfacet
  facet normal 0.681998 -0.731354 0.000000
    outer loop
      vertex 56.000000 104.000000 0.000000
      vertex 79.592112 126.000000 0.000000
      vertex 79.592112 126.000000 2.000000
    endloop
  endfacet
  facet normal 0.681998 -0.731354 0.000000
    outer loop
      vertex 56.000000 104.000000 2.000000
      vertex 56.000000 104.000000 0.000000
      vertex 79.592112 126.000000 2.000000
    endloop
  endfacet
endsolid OpenSCAD_Model
