solid OpenSCAD_Model
  facet normal -0.970143 -0.242536 -0.000000
    outer loop
      vertex 0.000000 10.000000 0.000000
      vertex 10.000000 -30.000000 0.000000
      vertex 0.000000 10.000000 20.000000
    endloop
  endfacet
  facet normal -0.970143 -0.242536 0.000000
    outer loop
      vertex 0.000000 10.000000 20.000000
      vertex 10.000000 -30.000000 0.000000
      vertex 10.000000 -30.000000 20.000000
    endloop
  endfacet
  facet normal -0.000000 0.000000 -1.000000
    outer loop
      vertex 0.000000 10.000000 0.000000
      vertex 10.000000 30.000000 0.000000
      vertex 10.000000 -30.000000 0.000000
    endloop
  endfacet
  facet normal 0.000000 -0.000000 -1.000000
    outer loop
      vertex 10.000000 -30.000000 0.000000
      vertex 10.000000 30.000000 0.000000
      vertex 30.000000 30.000000 0.000000
    endloop
  endfacet
  facet normal 0.000000 0.000000 -1.000000
    outer loop
      vertex 10.000000 -30.000000 0.000000
      vertex 30.000000 30.000000 0.000000
      vertex 40.000000 10.000000 0.000000
    endloop
  endfacet
  facet normal -0.000000 0.000000 -1.000000
    outer loop
      vertex 10.000000 -30.000000 0.000000
      vertex 40.000000 10.000000 0.000000
      vertex 30.000000 -30.000000 0.000000
    endloop
  endfacet
  facet normal -0.894427 0.447214 0.000000
    outer loop
      vertex 0.000000 10.000000 0.000000
      vertex 0.000000 10.000000 20.000000
      vertex 10.000000 30.000000 0.000000
    endloop
  endfacet
  facet normal -0.894427 0.447214 0.000000
    outer loop
      vertex 10.000000 30.000000 0.000000
      vertex 0.000000 10.000000 20.000000
      vertex 10.000000 30.000000 20.000000
    endloop
  endfacet
  facet normal -0.000000 -0.000000 1.000000
    outer loop
      vertex 2.667000 8.667000 20.000000
      vertex 0.000000 10.000000 20.000000
      vertex 10.000000 -30.000000 20.000000
    endloop
  endfacet
  facet normal 0.000000 0.000000 1.000000
    outer loop
      vertex 2.667000 8.667000 20.000000
      vertex 11.333000 26.000000 20.000000
      vertex 10.000000 30.000000 20.000000
    endloop
  endfacet
  facet normal -0.000000 0.000000 1.000000
    outer loop
      vertex 30.000000 -30.000000 20.000000
      vertex 11.333000 -26.000000 20.000000
      vertex 10.000000 -30.000000 20.000000
    endloop
  endfacet
  facet normal 0.000000 0.000000 1.000000
    outer loop
      vertex 28.667000 26.000000 20.000000
      vertex 37.333000 8.667000 20.000000
      vertex 40.000000 10.000000 20.000000
    endloop
  endfacet
  facet normal 0.000000 0.000000 1.000000
    outer loop
      vertex 10.000000 30.000000 20.000000
      vertex 0.000000 10.000000 20.000000
      vertex 2.667000 8.667000 20.000000
    endloop
  endfacet
  facet normal -0.000000 0.000000 1.000000
    outer loop
      vertex 11.333000 -26.000000 20.000000
      vertex 2.667000 8.667000 20.000000
      vertex 10.000000 -30.000000 20.000000
    endloop
  endfacet
  facet normal 0.000000 -0.000000 1.000000
    outer loop
      vertex 30.000000 30.000000 20.000000
      vertex 28.667000 26.000000 20.000000
      vertex 40.000000 10.000000 20.000000
    endloop
  endfacet
  facet normal 0.000000 0.000000 1.000000
    outer loop
      vertex 30.000000 30.000000 20.000000
      vertex 10.000000 30.000000 20.000000
      vertex 28.667000 26.000000 20.000000
    endloop
  endfacet
  facet normal 0.000000 0.000000 1.000000
    outer loop
      vertex 40.000000 10.000000 20.000000
      vertex 37.333000 8.667000 20.000000
      vertex 30.000000 -30.000000 20.000000
    endloop
  endfacet
  facet normal 0.000000 0.000000 1.000000
    outer loop
      vertex 37.333000 8.667000 20.000000
      vertex 28.667000 -26.000000 20.000000
      vertex 30.000000 -30.000000 20.000000
    endloop
  endfacet
  facet normal 0.000000 -0.000000 1.000000
    outer loop
      vertex 28.667000 -26.000000 20.000000
      vertex 11.333000 -26.000000 20.000000
      vertex 30.000000 -30.000000 20.000000
    endloop
  endfacet
  facet normal 0.000000 0.000000 1.000000
    outer loop
      vertex 11.333000 26.000000 20.000000
      vertex 28.667000 26.000000 20.000000
      vertex 10.000000 30.000000 20.000000
    endloop
  endfacet
  facet normal 0.000000 -1.000000 0.000000
    outer loop
      vertex 10.000000 -30.000000 20.000000
      vertex 10.000000 -30.000000 0.000000
      vertex 30.000000 -30.000000 0.000000
    endloop
  endfacet
  facet normal 0.000000 -1.000000 0.000000
    outer loop
      vertex 30.000000 -30.000000 20.000000
      vertex 10.000000 -30.000000 20.000000
      vertex 30.000000 -30.000000 0.000000
    endloop
  endfacet
  facet normal 0.970143 -0.242536 0.000000
    outer loop
      vertex 30.000000 -30.000000 20.000000
      vertex 30.000000 -30.000000 0.000000
      vertex 40.000000 10.000000 0.000000
    endloop
  endfacet
  facet normal 0.970143 -0.242536 0.000000
    outer loop
      vertex 40.000000 10.000000 20.000000
      vertex 30.000000 -30.000000 20.000000
      vertex 40.000000 10.000000 0.000000
    endloop
  endfacet
  facet normal 0.894427 0.447214 0.000000
    outer loop
      vertex 40.000000 10.000000 0.000000
      vertex 30.000000 30.000000 0.000000
      vertex 30.000000 30.000000 20.000000
    endloop
  endfacet
  facet normal 0.894427 0.447214 -0.000000
    outer loop
      vertex 40.000000 10.000000 20.000000
      vertex 40.000000 10.000000 0.000000
      vertex 30.000000 30.000000 20.000000
    endloop
  endfacet
  facet normal 0.000000 1.000000 0.000000
    outer loop
      vertex 10.000000 30.000000 0.000000
      vertex 10.000000 30.000000 20.000000
      vertex 30.000000 30.000000 0.000000
    endloop
  endfacet
  facet normal 0.000000 1.000000 0.000000
    outer loop
      vertex 30.000000 30.000000 0.000000
      vertex 10.000000 30.000000 20.000000
      vertex 30.000000 30.000000 20.000000
    endloop
  endfacet
  facet normal 0.000000 1.000000 0.000000
    outer loop
      vertex 28.667000 -26.000000 20.000000
      vertex 28.667000 -26.000000 2.000000
      vertex 11.333000 -26.000000 20.000000
    endloop
  endfacet
  facet normal 0.000000 1.000000 -0.000000
    outer loop
      vertex 11.333000 -26.000000 20.000000
      vertex 28.667000 -26.000000 2.000000
      vertex 11.333000 -26.000000 2.000000
    endloop
  endfacet
  facet normal 0.970147 0.242516 0.000000
    outer loop
      vertex 2.667000 8.667000 20.000000
      vertex 11.333000 -26.000000 20.000000
      vertex 11.333000 -26.000000 2.000000
    endloop
  endfacet
  facet normal 0.970147 0.242516 0.000000
    outer loop
      vertex 2.667000 8.667000 2.000000
      vertex 2.667000 8.667000 20.000000
      vertex 11.333000 -26.000000 2.000000
    endloop
  endfacet
  facet normal -0.970147 0.242516 0.000000
    outer loop
      vertex 37.333000 8.667000 20.000000
      vertex 37.333000 8.667000 2.000000
      vertex 28.667000 -26.000000 20.000000
    endloop
  endfacet
  facet normal -0.970147 0.242516 0.000000
    outer loop
      vertex 28.667000 -26.000000 20.000000
      vertex 37.333000 8.667000 2.000000
      vertex 28.667000 -26.000000 2.000000
    endloop
  endfacet
  facet normal -0.894438 -0.447193 0.000000
    outer loop
      vertex 37.333000 8.667000 20.000000
      vertex 28.667000 26.000000 20.000000
      vertex 37.333000 8.667000 2.000000
    endloop
  endfacet
  facet normal -0.894438 -0.447193 0.000000
    outer loop
      vertex 37.333000 8.667000 2.000000
      vertex 28.667000 26.000000 20.000000
      vertex 28.667000 26.000000 2.000000
    endloop
  endfacet
  facet normal 0.000000 -1.000000 0.000000
    outer loop
      vertex 28.667000 26.000000 2.000000
      vertex 28.667000 26.000000 20.000000
      vertex 11.333000 26.000000 20.000000
    endloop
  endfacet
  facet normal -0.000000 -1.000000 -0.000000
    outer loop
      vertex 11.333000 26.000000 2.000000
      vertex 28.667000 26.000000 2.000000
      vertex 11.333000 26.000000 20.000000
    endloop
  endfacet
  facet normal 0.894438 -0.447193 0.000000
    outer loop
      vertex 11.333000 26.000000 2.000000
      vertex 11.333000 26.000000 20.000000
      vertex 2.667000 8.667000 20.000000
    endloop
  endfacet
  facet normal 0.894438 -0.447193 0.000000
    outer loop
      vertex 2.667000 8.667000 2.000000
      vertex 11.333000 26.000000 2.000000
      vertex 2.667000 8.667000 20.000000
    endloop
  endfacet
  facet normal 0.000000 0.000000 1.000000
    outer loop
      vertex 11.333000 -26.000000 2.000000
      vertex 28.667000 -26.000000 2.000000
      vertex 37.333000 8.667000 2.000000
    endloop
  endfacet
  facet normal 0.000000 -0.000000 1.000000
    outer loop
      vertex 11.333000 26.000000 2.000000
      vertex 11.333000 -26.000000 2.000000
      vertex 28.667000 26.000000 2.000000
    endloop
  endfacet
  facet normal 0.000000 -0.000000 1.000000
    outer loop
      vertex 28.667000 26.000000 2.000000
      vertex 11.333000 -26.000000 2.000000
      vertex 37.333000 8.667000 2.000000
    endloop
  endfacet
  facet normal 0.000000 0.000000 1.000000
    outer loop
      vertex 2.667000 8.667000 2.000000
      vertex 11.333000 -26.000000 2.000000
      vertex 11.333000 26.000000 2.000000
    endloop
  endfacet
  facet normal -0.970143 0.242536 0.000000
    outer loop
      vertex -40.000000 -10.000000 0.000000
      vertex -40.000000 -10.000000 2.000000
      vertex -30.000000 30.000000 0.000000
    endloop
  endfacet
  facet normal -0.970143 0.242536 0.000000
    outer loop
      vertex -30.000000 30.000000 0.000000
      vertex -40.000000 -10.000000 2.000000
      vertex -30.000000 30.000000 2.000000
    endloop
  endfacet
  facet normal -0.894427 -0.447214 -0.000000
    outer loop
      vertex -40.000000 -10.000000 0.000000
      vertex -30.000000 -30.000000 0.000000
      vertex -40.000000 -10.000000 2.000000
    endloop
  endfacet
  facet normal -0.894427 -0.447214 0.000000
    outer loop
      vertex -40.000000 -10.000000 2.000000
      vertex -30.000000 -30.000000 0.000000
      vertex -30.000000 -30.000000 2.000000
    endloop
  endfacet
  facet normal -0.000000 0.000000 -1.000000
    outer loop
      vertex -40.000000 -10.000000 0.000000
      vertex -30.000000 30.000000 0.000000
      vertex -30.000000 -30.000000 0.000000
    endloop
  endfacet
  facet normal 0.000000 0.000000 -1.000000
    outer loop
      vertex -30.000000 -30.000000 0.000000
      vertex -30.000000 30.000000 0.000000
      vertex -10.000000 30.000000 0.000000
    endloop
  endfacet
  facet normal 0.000000 0.000000 -1.000000
    outer loop
      vertex -30.000000 -30.000000 0.000000
      vertex -10.000000 30.000000 0.000000
      vertex -0.000000 -10.000000 0.000000
    endloop
  endfacet
  facet normal -0.000000 0.000000 -1.000000
    outer loop
      vertex -30.000000 -30.000000 0.000000
      vertex -0.000000 -10.000000 0.000000
      vertex -10.000000 -30.000000 0.000000
    endloop
  endfacet
  facet normal 0.000000 1.000000 0.000000
    outer loop
      vertex -30.000000 30.000000 0.000000
      vertex -30.000000 30.000000 2.000000
      vertex -10.000000 30.000000 0.000000
    endloop
  endfacet
  facet normal 0.000000 1.000000 0.000000
    outer loop
      vertex -10.000000 30.000000 0.000000
      vertex -30.000000 30.000000 2.000000
      vertex -10.000000 30.000000 2.000000
    endloop
  endfacet
  facet normal 0.000000 -0.000000 1.000000
    outer loop
      vertex -37.300000 -8.650000 2.000000
      vertex -40.000000 -10.000000 2.000000
      vertex -30.000000 -30.000000 2.000000
    endloop
  endfacet
  facet normal 0.000000 0.000000 1.000000
    outer loop
      vertex -37.300000 -8.650000 2.000000
      vertex -28.650000 25.950000 2.000000
      vertex -30.000000 30.000000 2.000000
    endloop
  endfacet
  facet normal 0.000000 0.000000 1.000000
    outer loop
      vertex -10.000000 -30.000000 2.000000
      vertex -28.650000 -25.950000 2.000000
      vertex -30.000000 -30.000000 2.000000
    endloop
  endfacet
  facet normal 0.000000 0.000000 1.000000
    outer loop
      vertex -11.350000 25.950000 2.000000
      vertex -2.700000 -8.650000 2.000000
      vertex -0.000000 -10.000000 2.000000
    endloop
  endfacet
  facet normal 0.000000 0.000000 1.000000
    outer loop
      vertex -30.000000 30.000000 2.000000
      vertex -40.000000 -10.000000 2.000000
      vertex -37.300000 -8.650000 2.000000
    endloop
  endfacet
  facet normal -0.000000 0.000000 1.000000
    outer loop
      vertex -28.650000 -25.950000 2.000000
      vertex -37.300000 -8.650000 2.000000
      vertex -30.000000 -30.000000 2.000000
    endloop
  endfacet
  facet normal 0.000000 -0.000000 1.000000
    outer loop
      vertex -10.000000 30.000000 2.000000
      vertex -11.350000 25.950000 2.000000
      vertex -0.000000 -10.000000 2.000000
    endloop
  endfacet
  facet normal -0.000000 0.000000 1.000000
    outer loop
      vertex -10.000000 30.000000 2.000000
      vertex -30.000000 30.000000 2.000000
      vertex -11.350000 25.950000 2.000000
    endloop
  endfacet
  facet normal -0.000000 0.000000 1.000000
    outer loop
      vertex -0.000000 -10.000000 2.000000
      vertex -2.700000 -8.650000 2.000000
      vertex -10.000000 -30.000000 2.000000
    endloop
  endfacet
  facet normal 0.000000 0.000000 1.000000
    outer loop
      vertex -2.700000 -8.650000 2.000000
      vertex -11.350000 -25.950000 2.000000
      vertex -10.000000 -30.000000 2.000000
    endloop
  endfacet
  facet normal -0.000000 -0.000000 1.000000
    outer loop
      vertex -11.350000 -25.950000 2.000000
      vertex -28.650000 -25.950000 2.000000
      vertex -10.000000 -30.000000 2.000000
    endloop
  endfacet
  facet normal 0.000000 0.000000 1.000000
    outer loop
      vertex -28.650000 25.950000 2.000000
      vertex -11.350000 25.950000 2.000000
      vertex -30.000000 30.000000 2.000000
    endloop
  endfacet
  facet normal -0.000000 -1.000000 0.000000
    outer loop
      vertex -30.000000 -30.000000 2.000000
      vertex -30.000000 -30.000000 0.000000
      vertex -10.000000 -30.000000 0.000000
    endloop
  endfacet
  facet normal -0.000000 -1.000000 0.000000
    outer loop
      vertex -10.000000 -30.000000 2.000000
      vertex -30.000000 -30.000000 2.000000
      vertex -10.000000 -30.000000 0.000000
    endloop
  endfacet
  facet normal 0.894427 -0.447214 0.000000
    outer loop
      vertex -10.000000 -30.000000 2.000000
      vertex -10.000000 -30.000000 0.000000
      vertex -0.000000 -10.000000 0.000000
    endloop
  endfacet
  facet normal 0.894427 -0.447214 0.000000
    outer loop
      vertex -0.000000 -10.000000 2.000000
      vertex -10.000000 -30.000000 2.000000
      vertex -0.000000 -10.000000 0.000000
    endloop
  endfacet
  facet normal 0.970143 0.242536 0.000000
    outer loop
      vertex -0.000000 -10.000000 0.000000
      vertex -10.000000 30.000000 0.000000
      vertex -10.000000 30.000000 2.000000
    endloop
  endfacet
  facet normal 0.970143 0.242536 -0.000000
    outer loop
      vertex -0.000000 -10.000000 2.000000
      vertex -0.000000 -10.000000 0.000000
      vertex -10.000000 30.000000 2.000000
    endloop
  endfacet
  facet normal -0.000000 -1.000000 0.000000
    outer loop
      vertex -28.650000 -25.950000 4.000000
      vertex -28.650000 -25.950000 2.000000
      vertex -11.350000 -25.950000 2.000000
    endloop
  endfacet
  facet normal -0.000000 -1.000000 0.000000
    outer loop
      vertex -11.350000 -25.950000 4.000000
      vertex -28.650000 -25.950000 4.000000
      vertex -11.350000 -25.950000 2.000000
    endloop
  endfacet
  facet normal -0.894427 -0.447214 -0.000000
    outer loop
      vertex -37.300000 -8.650000 2.000000
      vertex -28.650000 -25.950000 2.000000
      vertex -37.300000 -8.650000 4.000000
    endloop
  endfacet
  facet normal -0.894427 -0.447214 0.000000
    outer loop
      vertex -37.300000 -8.650000 4.000000
      vertex -28.650000 -25.950000 2.000000
      vertex -28.650000 -25.950000 4.000000
    endloop
  endfacet
  facet normal 0.894427 -0.447214 0.000000
    outer loop
      vertex -11.350000 -25.950000 4.000000
      vertex -11.350000 -25.950000 2.000000
      vertex -2.700000 -8.650000 2.000000
    endloop
  endfacet
  facet normal 0.894427 -0.447214 0.000000
    outer loop
      vertex -2.700000 -8.650000 4.000000
      vertex -11.350000 -25.950000 4.000000
      vertex -2.700000 -8.650000 2.000000
    endloop
  endfacet
  facet normal 0.970143 0.242536 0.000000
    outer loop
      vertex -2.700000 -8.650000 2.000000
      vertex -11.350000 25.950000 2.000000
      vertex -11.350000 25.950000 4.000000
    endloop
  endfacet
  facet normal 0.970143 0.242536 -0.000000
    outer loop
      vertex -2.700000 -8.650000 4.000000
      vertex -2.700000 -8.650000 2.000000
      vertex -11.350000 25.950000 4.000000
    endloop
  endfacet
  facet normal 0.000000 1.000000 0.000000
    outer loop
      vertex -28.650000 25.950000 2.000000
      vertex -28.650000 25.950000 4.000000
      vertex -11.350000 25.950000 2.000000
    endloop
  endfacet
  facet normal 0.000000 1.000000 0.000000
    outer loop
      vertex -11.350000 25.950000 2.000000
      vertex -28.650000 25.950000 4.000000
      vertex -11.350000 25.950000 4.000000
    endloop
  endfacet
  facet normal -0.970143 0.242536 0.000000
    outer loop
      vertex -37.300000 -8.650000 2.000000
      vertex -37.300000 -8.650000 4.000000
      vertex -28.650000 25.950000 2.000000
    endloop
  endfacet
  facet normal -0.970143 0.242536 0.000000
    outer loop
      vertex -28.650000 25.950000 2.000000
      vertex -37.300000 -8.650000 4.000000
      vertex -28.650000 25.950000 4.000000
    endloop
  endfacet
  facet normal 0.000000 0.000000 1.000000
    outer loop
      vertex -28.650000 25.950000 4.000000
      vertex -37.300000 -8.650000 4.000000
      vertex -28.650000 -25.950000 4.000000
    endloop
  endfacet
  facet normal -0.000000 0.000000 1.000000
    outer loop
      vertex -2.700000 -8.650000 4.000000
      vertex -28.650000 25.950000 4.000000
      vertex -11.350000 -25.950000 4.000000
    endloop
  endfacet
  facet normal 0.000000 0.000000 1.000000
    outer loop
      vertex -11.350000 -25.950000 4.000000
      vertex -28.650000 25.950000 4.000000
      vertex -28.650000 -25.950000 4.000000
    endloop
  endfacet
  facet normal -0.000000 -0.000000 1.000000
    outer loop
      vertex -11.350000 25.950000 4.000000
      vertex -28.650000 25.950000 4.000000
      vertex -2.700000 -8.650000 4.000000
    endloop
  endfacet
endsolid OpenSCAD_Model
