solid Default
  facet normal -6.080487e-01 6.570671e-01 -4.455778e-01
    outer loop
      vertex -3.587059e+01 2.747918e+00 7.930407e-02
      vertex -4.614017e+01 4.799158e+00 1.711831e+01
      vertex -2.117999e+01 1.631940e+01 4.530209e-02
    endloop
  endfacet
  facet normal -6.080486e-01 6.570674e-01 -4.455775e-01
    outer loop
      vertex -2.117999e+01 1.631940e+01 4.530209e-02
      vertex -4.614017e+01 4.799158e+00 1.711831e+01
      vertex -3.779649e+01 1.963833e+01 2.761500e+01
    endloop
  endfacet
  facet normal -8.760716e-01 1.746767e-01 4.494291e-01
    outer loop
      vertex -3.779649e+01 1.963833e+01 2.761500e+01
      vertex -4.614017e+01 4.799158e+00 1.711831e+01
      vertex -4.411940e+01 -1.209855e+01 2.762477e+01
    endloop
  endfacet
  facet normal -8.134932e-01 -3.741283e-01 -4.452604e-01
    outer loop
      vertex -4.411940e+01 -1.209855e+01 2.762477e+01
      vertex -4.614017e+01 4.799158e+00 1.711831e+01
      vertex -3.587059e+01 2.747918e+00 7.930407e-02
    endloop
  endfacet
  facet normal -2.490071e-03 1.880113e-04 -9.999969e-01
    outer loop
      vertex -2.750293e+01 -1.541753e+01 5.509163e-02
      vertex -3.587059e+01 2.747918e+00 7.930407e-02
      vertex -7.640931e+00 -1.307284e+01 6.066261e-03
    endloop
  endfacet
  facet normal -2.490071e-03 1.880113e-04 -9.999969e-01
    outer loop
      vertex -7.640931e+00 -1.307284e+01 6.066261e-03
      vertex -3.587059e+01 2.747918e+00 7.930407e-02
      vertex -2.117999e+01 1.631940e+01 4.530209e-02
    endloop
  endfacet
  facet normal -8.134932e-01 -3.741283e-01 -4.452604e-01
    outer loop
      vertex -3.260102e+01 -2.459315e+01 1.707914e+01
      vertex -4.411940e+01 -1.209855e+01 2.762477e+01
      vertex -3.587059e+01 2.747918e+00 7.930407e-02
    endloop
  endfacet
  facet normal -8.134932e-01 -3.741283e-01 -4.452604e-01
    outer loop
      vertex -3.260102e+01 -2.459315e+01 1.707914e+01
      vertex -3.587059e+01 2.747918e+00 7.930407e-02
      vertex -2.750293e+01 -1.541753e+01 5.509163e-02
    endloop
  endfacet
  facet normal 4.361601e-01 7.803352e-01 -4.481530e-01
    outer loop
      vertex -2.117999e+01 1.631940e+01 4.530209e-02
      vertex -2.237029e+01 2.675830e+01 1.706335e+01
      vertex -3.733094e+00 6.541656e+00 0.000000e+00
    endloop
  endfacet
  facet normal -6.080472e-01 6.570688e-01 -4.455773e-01
    outer loop
      vertex -2.117999e+01 1.631940e+01 4.530209e-02
      vertex -3.779649e+01 1.963833e+01 2.761500e+01
      vertex -2.237029e+01 2.675830e+01 1.706335e+01
    endloop
  endfacet
  facet normal -2.489105e-03 1.878976e-04 -9.999969e-01
    outer loop
      vertex -7.640931e+00 -1.307284e+01 6.066261e-03
      vertex -2.117999e+01 1.631940e+01 4.530209e-02
      vertex -3.733094e+00 6.541656e+00 0.000000e+00
    endloop
  endfacet
  facet normal -4.636422e-01 8.821663e-01 -8.257463e-02
    outer loop
      vertex -2.237029e+01 2.675830e+01 1.706335e+01
      vertex -3.779649e+01 1.963833e+01 2.761500e+01
      vertex -2.253128e+01 2.853833e+01 3.698328e+01
    endloop
  endfacet
  facet normal -6.455542e-01 5.547612e-01 5.248808e-01
    outer loop
      vertex -2.253128e+01 2.853833e+01 3.698328e+01
      vertex -3.779649e+01 1.963833e+01 2.761500e+01
      vertex -3.061919e+01 1.191190e+01 4.460878e+01
    endloop
  endfacet
  facet normal -8.760723e-01 1.746767e-01 4.494277e-01
    outer loop
      vertex -3.061919e+01 1.191190e+01 4.460878e+01
      vertex -3.779649e+01 1.963833e+01 2.761500e+01
      vertex -3.452704e+01 -7.702636e+00 4.461480e+01
    endloop
  endfacet
  facet normal -8.760718e-01 1.746774e-01 4.494285e-01
    outer loop
      vertex -3.779649e+01 1.963833e+01 2.761500e+01
      vertex -4.411940e+01 -1.209855e+01 2.762477e+01
      vertex -3.452704e+01 -7.702636e+00 4.461480e+01
    endloop
  endfacet
  facet normal -8.088125e-01 -2.646838e-01 5.251331e-01
    outer loop
      vertex -3.452704e+01 -7.702636e+00 4.461480e+01
      vertex -4.411940e+01 -1.209855e+01 2.762477e+01
      vertex -3.342959e+01 -2.616374e+01 3.700009e+01
    endloop
  endfacet
  facet normal -7.663392e-01 -6.371678e-01 -8.210676e-02
    outer loop
      vertex -3.342959e+01 -2.616374e+01 3.700009e+01
      vertex -4.411940e+01 -1.209855e+01 2.762477e+01
      vertex -3.260102e+01 -2.459315e+01 1.707914e+01
    endloop
  endfacet
  facet normal 1.037436e-01 -8.881754e-01 -4.476402e-01
    outer loop
      vertex -1.588982e+01 -2.791932e+01 2.755156e+01
      vertex -3.260102e+01 -2.459315e+01 1.707914e+01
      vertex -2.750293e+01 -1.541753e+01 5.509163e-02
    endloop
  endfacet
  facet normal 1.037436e-01 -8.881754e-01 -4.476402e-01
    outer loop
      vertex -1.588982e+01 -2.791932e+01 2.755156e+01
      vertex -2.750293e+01 -1.541753e+01 5.509163e-02
      vertex -7.640931e+00 -1.307284e+01 6.066261e-03
    endloop
  endfacet
  facet normal 8.760715e-01 -1.746781e-01 -4.494291e-01
    outer loop
      vertex -4.636423e-01 -2.079941e+01 1.699985e+01
      vertex -7.640931e+00 -1.307284e+01 6.066261e-03
      vertex -3.733094e+00 6.541656e+00 0.000000e+00
    endloop
  endfacet
  facet normal 1.037423e-01 -8.881750e-01 -4.476412e-01
    outer loop
      vertex -4.636423e-01 -2.079941e+01 1.699985e+01
      vertex -1.588982e+01 -2.791932e+01 2.755156e+01
      vertex -7.640931e+00 -1.307284e+01 6.066261e-03
    endloop
  endfacet
  facet normal -1.437964e-01 -9.860594e-01 -8.372196e-02
    outer loop
      vertex -1.588982e+01 -2.791932e+01 2.755156e+01
      vertex -3.342959e+01 -2.616374e+01 3.700009e+01
      vertex -3.260102e+01 -2.459315e+01 1.707914e+01
    endloop
  endfacet
  facet normal 8.760718e-01 -1.746774e-01 -4.494285e-01
    outer loop
      vertex 7.880033e+00 -5.960109e+00 2.749646e+01
      vertex -3.733094e+00 6.541656e+00 0.000000e+00
      vertex 5.859371e+00 1.093758e+01 1.699001e+01
    endloop
  endfacet
  facet normal 4.361601e-01 7.803348e-01 -4.481539e-01
    outer loop
      vertex -3.733094e+00 6.541656e+00 0.000000e+00
      vertex -2.237029e+01 2.675830e+01 1.706335e+01
      vertex 5.859371e+00 1.093758e+01 1.699001e+01
    endloop
  endfacet
  facet normal 8.760718e-01 -1.746774e-01 -4.494285e-01
    outer loop
      vertex -4.636423e-01 -2.079941e+01 1.699985e+01
      vertex -3.733094e+00 6.541656e+00 0.000000e+00
      vertex 7.880033e+00 -5.960109e+00 2.749646e+01
    endloop
  endfacet
  facet normal 4.361601e-01 7.803348e-01 -4.481539e-01
    outer loop
      vertex 5.859371e+00 1.093758e+01 1.699001e+01
      vertex -2.237029e+01 2.675830e+01 1.706335e+01
      vertex -5.659084e+00 2.343221e+01 2.753570e+01
    endloop
  endfacet
  facet normal 2.450774e-01 9.658296e-01 -8.432280e-02
    outer loop
      vertex -2.237029e+01 2.675830e+01 1.706335e+01
      vertex -2.253128e+01 2.853833e+01 3.698328e+01
      vertex -5.659084e+00 2.343221e+01 2.753570e+01
    endloop
  endfacet
  facet normal 5.011803e-01 6.901304e-01 5.220521e-01
    outer loop
      vertex -5.659084e+00 2.343221e+01 2.753570e+01
      vertex -2.253128e+01 2.853833e+01 3.698328e+01
      vertex -1.075719e+01 1.425657e+01 4.455976e+01
    endloop
  endfacet
  facet normal -4.926090e-02 4.360762e-01 8.985604e-01
    outer loop
      vertex -2.253128e+01 2.853833e+01 3.698328e+01
      vertex -3.061919e+01 1.191190e+01 4.460878e+01
      vertex -1.075719e+01 1.425657e+01 4.455976e+01
    endloop
  endfacet
  facet normal 2.490071e-03 -1.880113e-04 9.999969e-01
    outer loop
      vertex -1.075719e+01 1.425657e+01 4.455976e+01
      vertex -3.061919e+01 1.191190e+01 4.460878e+01
      vertex -1.708014e+01 -1.748037e+01 4.456950e+01
    endloop
  endfacet
  facet normal 2.488938e-03 -1.893208e-04 9.999969e-01
    outer loop
      vertex -3.061919e+01 1.191190e+01 4.460878e+01
      vertex -3.452704e+01 -7.702636e+00 4.461480e+01
      vertex -1.708014e+01 -1.748037e+01 4.456950e+01
    endloop
  endfacet
  facet normal -2.125195e-01 -3.833685e-01 8.988127e-01
    outer loop
      vertex -1.708014e+01 -1.748037e+01 4.456950e+01
      vertex -3.452704e+01 -7.702636e+00 4.461480e+01
      vertex -3.342959e+01 -2.616374e+01 3.700009e+01
    endloop
  endfacet
  facet normal 1.984830e-01 -8.292033e-01 5.225193e-01
    outer loop
      vertex -1.708014e+01 -1.748037e+01 4.456950e+01
      vertex -3.342959e+01 -2.616374e+01 3.700009e+01
      vertex -1.588982e+01 -2.791932e+01 2.755156e+01
    endloop
  endfacet
  facet normal 6.080474e-01 -6.570682e-01 4.455779e-01
    outer loop
      vertex -4.636423e-01 -2.079941e+01 1.699985e+01
      vertex -1.708014e+01 -1.748037e+01 4.456950e+01
      vertex -1.588982e+01 -2.791932e+01 2.755156e+01
    endloop
  endfacet
  facet normal 6.080475e-01 -6.570679e-01 4.455782e-01
    outer loop
      vertex -2.389530e+00 -3.908858e+00 4.453554e+01
      vertex -1.708014e+01 -1.748037e+01 4.456950e+01
      vertex -4.636423e-01 -2.079941e+01 1.699985e+01
    endloop
  endfacet
  facet normal 6.080494e-01 -6.570667e-01 4.455774e-01
    outer loop
      vertex 7.880033e+00 -5.960109e+00 2.749646e+01
      vertex -2.389530e+00 -3.908858e+00 4.453554e+01
      vertex -4.636423e-01 -2.079941e+01 1.699985e+01
    endloop
  endfacet
  facet normal 8.134932e-01 3.741283e-01 4.452604e-01
    outer loop
      vertex 5.859371e+00 1.093758e+01 1.699001e+01
      vertex -2.389530e+00 -3.908858e+00 4.453554e+01
      vertex 7.880033e+00 -5.960109e+00 2.749646e+01
    endloop
  endfacet
  facet normal 8.134932e-01 3.741283e-01 4.452604e-01
    outer loop
      vertex -5.659084e+00 2.343221e+01 2.753570e+01
      vertex -1.075719e+01 1.425657e+01 4.455976e+01
      vertex 5.859371e+00 1.093758e+01 1.699001e+01
    endloop
  endfacet
  facet normal 8.134932e-01 3.741283e-01 4.452604e-01
    outer loop
      vertex 5.859371e+00 1.093758e+01 1.699001e+01
      vertex -1.075719e+01 1.425657e+01 4.455976e+01
      vertex -2.389530e+00 -3.908858e+00 4.453554e+01
    endloop
  endfacet
  facet normal 2.489105e-03 -1.878976e-04 9.999969e-01
    outer loop
      vertex -1.075719e+01 1.425657e+01 4.455976e+01
      vertex -1.708014e+01 -1.748037e+01 4.456950e+01
      vertex -2.389530e+00 -3.908858e+00 4.453554e+01
    endloop
  endfacet
  facet normal -6.080487e-01 6.570671e-01 -4.455778e-01
    outer loop
      vertex -3.427697e+01 2.431109e+00 2.435552e+00
      vertex -4.351958e+01 4.277229e+00 1.777073e+01
      vertex -2.105547e+01 1.464551e+01 2.404975e+00
    endloop
  endfacet
  facet normal -6.080486e-01 6.570674e-01 -4.455775e-01
    outer loop
      vertex -2.105547e+01 1.464551e+01 2.404975e+00
      vertex -4.351958e+01 4.277229e+00 1.777073e+01
      vertex -3.601033e+01 1.763254e+01 2.721777e+01
    endloop
  endfacet
  facet normal -8.760716e-01 1.746767e-01 4.494291e-01
    outer loop
      vertex -3.601033e+01 1.763254e+01 2.721777e+01
      vertex -4.351958e+01 4.277229e+00 1.777073e+01
      vertex -4.170093e+01 -1.093068e+01 2.722652e+01
    endloop
  endfacet
  facet normal -8.134932e-01 -3.741283e-01 -4.452604e-01
    outer loop
      vertex -4.170093e+01 -1.093068e+01 2.722652e+01
      vertex -4.351958e+01 4.277229e+00 1.777073e+01
      vertex -3.427697e+01 2.431109e+00 2.435552e+00
    endloop
  endfacet
  facet normal -2.490071e-03 1.880113e-04 -9.999969e-01
    outer loop
      vertex -2.674610e+01 -1.391776e+01 2.413812e+00
      vertex -3.427697e+01 2.431109e+00 2.435552e+00
      vertex -8.870312e+00 -1.180757e+01 2.369667e+00
    endloop
  endfacet
  facet normal -2.490071e-03 1.880113e-04 -9.999969e-01
    outer loop
      vertex -8.870312e+00 -1.180757e+01 2.369667e+00
      vertex -3.427697e+01 2.431109e+00 2.435552e+00
      vertex -2.105547e+01 1.464551e+01 2.404975e+00
    endloop
  endfacet
  facet normal -8.134932e-01 -3.741283e-01 -4.452604e-01
    outer loop
      vertex -3.133439e+01 -2.217585e+01 1.773542e+01
      vertex -4.170093e+01 -1.093068e+01 2.722652e+01
      vertex -3.427697e+01 2.431109e+00 2.435552e+00
    endloop
  endfacet
  facet normal -8.134932e-01 -3.741283e-01 -4.452604e-01
    outer loop
      vertex -3.133439e+01 -2.217585e+01 1.773542e+01
      vertex -3.427697e+01 2.431109e+00 2.435552e+00
      vertex -2.674610e+01 -1.391776e+01 2.413812e+00
    endloop
  endfacet
  facet normal 4.361601e-01 7.803352e-01 -4.481530e-01
    outer loop
      vertex -2.105547e+01 1.464551e+01 2.404975e+00
      vertex -2.212675e+01 2.404044e+01 1.772119e+01
      vertex -5.353225e+00 5.845466e+00 2.364273e+00
    endloop
  endfacet
  facet normal -6.080472e-01 6.570688e-01 -4.455773e-01
    outer loop
      vertex -2.105547e+01 1.464551e+01 2.404975e+00
      vertex -3.601033e+01 1.763254e+01 2.721777e+01
      vertex -2.212675e+01 2.404044e+01 1.772119e+01
    endloop
  endfacet
  facet normal -2.489105e-03 1.878976e-04 -9.999969e-01
    outer loop
      vertex -8.870312e+00 -1.180757e+01 2.369667e+00
      vertex -2.105547e+01 1.464551e+01 2.404975e+00
      vertex -5.353225e+00 5.845466e+00 2.364273e+00
    endloop
  endfacet
  facet normal -4.636422e-01 8.821663e-01 -8.257463e-02
    outer loop
      vertex -2.212675e+01 2.404044e+01 1.772119e+01
      vertex -3.601033e+01 1.763254e+01 2.721777e+01
      vertex -2.227161e+01 2.564249e+01 3.564918e+01
    endloop
  endfacet
  facet normal -6.455542e-01 5.547612e-01 5.248808e-01
    outer loop
      vertex -2.227161e+01 2.564249e+01 3.564918e+01
      vertex -3.601033e+01 1.763254e+01 2.721777e+01
      vertex -2.955080e+01 1.067872e+01 4.251213e+01
    endloop
  endfacet
  facet normal -8.760723e-01 1.746767e-01 4.494277e-01
    outer loop
      vertex -2.955080e+01 1.067872e+01 4.251213e+01
      vertex -3.601033e+01 1.763254e+01 2.721777e+01
      vertex -3.306778e+01 -6.974360e+00 4.251756e+01
    endloop
  endfacet
  facet normal -8.760718e-01 1.746774e-01 4.494285e-01
    outer loop
      vertex -3.601033e+01 1.763254e+01 2.721777e+01
      vertex -4.170093e+01 -1.093068e+01 2.722652e+01
      vertex -3.306778e+01 -6.974360e+00 4.251756e+01
    endloop
  endfacet
  facet normal -8.088125e-01 -2.646838e-01 5.251331e-01
    outer loop
      vertex -3.306778e+01 -6.974360e+00 4.251756e+01
      vertex -4.170093e+01 -1.093068e+01 2.722652e+01
      vertex -3.208010e+01 -2.358939e+01 3.566433e+01
    endloop
  endfacet
  facet normal -7.663392e-01 -6.371678e-01 -8.210676e-02
    outer loop
      vertex -3.208010e+01 -2.358939e+01 3.566433e+01
      vertex -4.170093e+01 -1.093068e+01 2.722652e+01
      vertex -3.133439e+01 -2.217585e+01 1.773542e+01
    endloop
  endfacet
  facet normal 1.037436e-01 -8.881754e-01 -4.476402e-01
    outer loop
      vertex -1.629430e+01 -2.516934e+01 2.716063e+01
      vertex -3.133439e+01 -2.217585e+01 1.773542e+01
      vertex -2.674610e+01 -1.391776e+01 2.413812e+00
    endloop
  endfacet
  facet normal 1.037436e-01 -8.881754e-01 -4.476402e-01
    outer loop
      vertex -1.629430e+01 -2.516934e+01 2.716063e+01
      vertex -2.674610e+01 -1.391776e+01 2.413812e+00
      vertex -8.870312e+00 -1.180757e+01 2.369667e+00
    endloop
  endfacet
  facet normal 8.760715e-01 -1.746781e-01 -4.494291e-01
    outer loop
      vertex -2.410682e+00 -1.876145e+01 1.766405e+01
      vertex -8.870312e+00 -1.180757e+01 2.369667e+00
      vertex -5.353225e+00 5.845466e+00 2.364273e+00
    endloop
  endfacet
  facet normal 1.037423e-01 -8.881750e-01 -4.476412e-01
    outer loop
      vertex -2.410682e+00 -1.876145e+01 1.766405e+01
      vertex -1.629430e+01 -2.516934e+01 2.716063e+01
      vertex -8.870312e+00 -1.180757e+01 2.369667e+00
    endloop
  endfacet
  facet normal -1.437964e-01 -9.860594e-01 -8.372196e-02
    outer loop
      vertex -1.629430e+01 -2.516934e+01 2.716063e+01
      vertex -3.208010e+01 -2.358939e+01 3.566433e+01
      vertex -3.133439e+01 -2.217585e+01 1.773542e+01
    endloop
  endfacet
  facet normal 8.760718e-01 -1.746774e-01 -4.494285e-01
    outer loop
      vertex 5.098566e+00 -5.406072e+00 2.711105e+01
      vertex -5.353225e+00 5.845466e+00 2.364273e+00
      vertex 3.279921e+00 9.801836e+00 1.765527e+01
    endloop
  endfacet
  facet normal 4.361601e-01 7.803348e-01 -4.481539e-01
    outer loop
      vertex -5.353225e+00 5.845466e+00 2.364273e+00
      vertex -2.212675e+01 2.404044e+01 1.772119e+01
      vertex 3.279921e+00 9.801836e+00 1.765527e+01
    endloop
  endfacet
  facet normal 8.760718e-01 -1.746774e-01 -4.494285e-01
    outer loop
      vertex -2.410682e+00 -1.876145e+01 1.766405e+01
      vertex -5.353225e+00 5.845466e+00 2.364273e+00
      vertex 5.098566e+00 -5.406072e+00 2.711105e+01
    endloop
  endfacet
  facet normal 4.361601e-01 7.803348e-01 -4.481539e-01
    outer loop
      vertex 3.279921e+00 9.801836e+00 1.765527e+01
      vertex -2.212675e+01 2.404044e+01 1.772119e+01
      vertex -7.086637e+00 2.104695e+01 2.714641e+01
    endloop
  endfacet
  facet normal 2.450774e-01 9.658296e-01 -8.432280e-02
    outer loop
      vertex -2.212675e+01 2.404044e+01 1.772119e+01
      vertex -2.227161e+01 2.564249e+01 3.564918e+01
      vertex -7.086637e+00 2.104695e+01 2.714641e+01
    endloop
  endfacet
  facet normal 5.011803e-01 6.901304e-01 5.220521e-01
    outer loop
      vertex -7.086637e+00 2.104695e+01 2.714641e+01
      vertex -2.227161e+01 2.564249e+01 3.564918e+01
      vertex -1.167496e+01 1.278889e+01 4.246798e+01
    endloop
  endfacet
  facet normal -4.926090e-02 4.360762e-01 8.985604e-01
    outer loop
      vertex -2.227161e+01 2.564249e+01 3.564918e+01
      vertex -2.955080e+01 1.067872e+01 4.251213e+01
      vertex -1.167496e+01 1.278889e+01 4.246798e+01
    endloop
  endfacet
  facet normal 2.490071e-03 -1.880113e-04 9.999969e-01
    outer loop
      vertex -1.167496e+01 1.278889e+01 4.246798e+01
      vertex -2.955080e+01 1.067872e+01 4.251213e+01
      vertex -1.736559e+01 -1.577433e+01 4.247680e+01
    endloop
  endfacet
  facet normal 2.488938e-03 -1.893208e-04 9.999969e-01
    outer loop
      vertex -2.955080e+01 1.067872e+01 4.251213e+01
      vertex -3.306778e+01 -6.974360e+00 4.251756e+01
      vertex -1.736559e+01 -1.577433e+01 4.247680e+01
    endloop
  endfacet
  facet normal -2.125195e-01 -3.833685e-01 8.988127e-01
    outer loop
      vertex -1.736559e+01 -1.577433e+01 4.247680e+01
      vertex -3.306778e+01 -6.974360e+00 4.251756e+01
      vertex -3.208010e+01 -2.358939e+01 3.566433e+01
    endloop
  endfacet
  facet normal 1.984830e-01 -8.292033e-01 5.225193e-01
    outer loop
      vertex -1.736559e+01 -1.577433e+01 4.247680e+01
      vertex -3.208010e+01 -2.358939e+01 3.566433e+01
      vertex -1.629430e+01 -2.516934e+01 2.716063e+01
    endloop
  endfacet
  facet normal 6.080474e-01 -6.570682e-01 4.455779e-01
    outer loop
      vertex -2.410682e+00 -1.876145e+01 1.766405e+01
      vertex -1.736559e+01 -1.577433e+01 4.247680e+01
      vertex -1.629430e+01 -2.516934e+01 2.716063e+01
    endloop
  endfacet
  facet normal 6.080475e-01 -6.570679e-01 4.455782e-01
    outer loop
      vertex -4.144046e+00 -3.559943e+00 4.244620e+01
      vertex -1.736559e+01 -1.577433e+01 4.247680e+01
      vertex -2.410682e+00 -1.876145e+01 1.766405e+01
    endloop
  endfacet
  facet normal 6.080494e-01 -6.570667e-01 4.455774e-01
    outer loop
      vertex 5.098566e+00 -5.406072e+00 2.711105e+01
      vertex -4.144046e+00 -3.559943e+00 4.244620e+01
      vertex -2.410682e+00 -1.876145e+01 1.766405e+01
    endloop
  endfacet
  facet normal 8.134932e-01 3.741283e-01 4.452604e-01
    outer loop
      vertex 3.279921e+00 9.801836e+00 1.765527e+01
      vertex -4.144046e+00 -3.559943e+00 4.244620e+01
      vertex 5.098566e+00 -5.406072e+00 2.711105e+01
    endloop
  endfacet
  facet normal 8.134932e-01 3.741283e-01 4.452604e-01
    outer loop
      vertex -7.086637e+00 2.104695e+01 2.714641e+01
      vertex -1.167496e+01 1.278889e+01 4.246798e+01
      vertex 3.279921e+00 9.801836e+00 1.765527e+01
    endloop
  endfacet
  facet normal 8.134932e-01 3.741283e-01 4.452604e-01
    outer loop
      vertex 3.279921e+00 9.801836e+00 1.765527e+01
      vertex -1.167496e+01 1.278889e+01 4.246798e+01
      vertex -4.144046e+00 -3.559943e+00 4.244620e+01
    endloop
  endfacet
  facet normal 2.489105e-03 -1.878976e-04 9.999969e-01
    outer loop
      vertex -1.167496e+01 1.278889e+01 4.246798e+01
      vertex -1.736559e+01 -1.577433e+01 4.247680e+01
      vertex -4.144046e+00 -3.559943e+00 4.244620e+01
    endloop
  endfacet
endsolid Default
