solid Default
  facet normal -4.296120e-01 5.616372e-01 7.071048e-01
    outer loop
      vertex -1.813296e+01 1.401838e+01 4.828433e+01
      vertex -4.261056e+01 1.309990e+01 3.414209e+01
      vertex -3.401843e+01 1.867197e+00 4.828424e+01
    endloop
  endfacet
  facet normal -8.093513e-01 1.077995e-01 5.773472e-01
    outer loop
      vertex -3.401843e+01 1.867197e+00 4.828424e+01
      vertex -4.261056e+01 1.309990e+01 3.414209e+01
      vertex -4.525107e+01 -6.725046e+00 3.414206e+01
    endloop
  endfacet
  facet normal -9.912462e-01 1.320269e-01 -3.345936e-06
    outer loop
      vertex -4.525107e+01 -6.725046e+00 3.414206e+01
      vertex -4.261056e+01 1.309990e+01 3.414209e+01
      vertex -4.261045e+01 1.309986e+01 1.414207e+01
    endloop
  endfacet
  facet normal -6.075597e-01 7.942740e-01 -3.022225e-06
    outer loop
      vertex -4.261045e+01 1.309986e+01 1.414207e+01
      vertex -4.261056e+01 1.309990e+01 3.414209e+01
      vertex -2.672511e+01 2.525110e+01 3.414216e+01
    endloop
  endfacet
  facet normal -4.296120e-01 5.616372e-01 7.071048e-01
    outer loop
      vertex -2.672511e+01 2.525110e+01 3.414216e+01
      vertex -4.261056e+01 1.309990e+01 3.414209e+01
      vertex -1.813296e+01 1.401838e+01 4.828433e+01
    endloop
  endfacet
  facet normal -3.324790e-06 1.347377e-06 1.000000e+00
    outer loop
      vertex -1.813296e+01 1.401838e+01 4.828433e+01
      vertex -3.401843e+01 1.867197e+00 4.828424e+01
      vertex -5.981754e+00 -1.867107e+00 4.828434e+01
    endloop
  endfacet
  facet normal 1.077971e-01 8.093495e-01 5.773502e-01
    outer loop
      vertex -6.900172e+00 2.261051e+01 3.414220e+01
      vertex -2.672511e+01 2.525110e+01 3.414216e+01
      vertex -1.813296e+01 1.401838e+01 4.828433e+01
    endloop
  endfacet
  facet normal 5.616338e-01 4.296105e-01 7.071084e-01
    outer loop
      vertex -6.900172e+00 2.261051e+01 3.414220e+01
      vertex -1.813296e+01 1.401838e+01 4.828433e+01
      vertex -5.981754e+00 -1.867107e+00 4.828434e+01
    endloop
  endfacet
  facet normal -3.698667e-06 4.332262e-07 1.000000e+00
    outer loop
      vertex -5.981754e+00 -1.867107e+00 4.828434e+01
      vertex -3.401843e+01 1.867197e+00 4.828424e+01
      vertex -2.186720e+01 -1.401829e+01 4.828435e+01
    endloop
  endfacet
  facet normal -5.616400e-01 -4.296088e-01 7.071044e-01
    outer loop
      vertex -2.186720e+01 -1.401829e+01 4.828435e+01
      vertex -3.401843e+01 1.867197e+00 4.828424e+01
      vertex -3.309989e+01 -2.261052e+01 3.414211e+01
    endloop
  endfacet
  facet normal -5.616386e-01 -4.296090e-01 7.071055e-01
    outer loop
      vertex -3.309989e+01 -2.261052e+01 3.414211e+01
      vertex -3.401843e+01 1.867197e+00 4.828424e+01
      vertex -4.525107e+01 -6.725046e+00 3.414206e+01
    endloop
  endfacet
  facet normal -7.942740e-01 -6.075597e-01 -2.352471e-06
    outer loop
      vertex -3.309989e+01 -2.261052e+01 3.414211e+01
      vertex -4.525107e+01 -6.725046e+00 3.414206e+01
      vertex -3.309983e+01 -2.261051e+01 1.414214e+01
    endloop
  endfacet
  facet normal -7.942733e-01 -6.075607e-01 -2.067166e-06
    outer loop
      vertex -3.309983e+01 -2.261051e+01 1.414214e+01
      vertex -4.525107e+01 -6.725046e+00 3.414206e+01
      vertex -4.525104e+01 -6.725022e+00 1.414209e+01
    endloop
  endfacet
  facet normal -9.912462e-01 1.320269e-01 -3.345936e-06
    outer loop
      vertex -4.525104e+01 -6.725022e+00 1.414209e+01
      vertex -4.525107e+01 -6.725046e+00 3.414206e+01
      vertex -4.261045e+01 1.309986e+01 1.414207e+01
    endloop
  endfacet
  facet normal -8.093469e-01 1.077997e-01 -5.773533e-01
    outer loop
      vertex -4.525104e+01 -6.725022e+00 1.414209e+01
      vertex -4.261045e+01 1.309986e+01 1.414207e+01
      vertex -3.401823e+01 1.867143e+00 0.000000e+00
    endloop
  endfacet
  facet normal -4.296071e-01 5.616359e-01 -7.071088e-01
    outer loop
      vertex -3.401823e+01 1.867143e+00 0.000000e+00
      vertex -4.261045e+01 1.309986e+01 1.414207e+01
      vertex -2.672501e+01 2.525111e+01 1.414210e+01
    endloop
  endfacet
  facet normal -6.075599e-01 7.942739e-01 -1.685756e-06
    outer loop
      vertex -4.261045e+01 1.309986e+01 1.414207e+01
      vertex -2.672511e+01 2.525110e+01 3.414216e+01
      vertex -2.672501e+01 2.525111e+01 1.414210e+01
    endloop
  endfacet
  facet normal 1.320276e-01 9.912461e-01 9.904790e-07
    outer loop
      vertex -2.672501e+01 2.525111e+01 1.414210e+01
      vertex -2.672511e+01 2.525110e+01 3.414216e+01
      vertex -6.900114e+00 2.261052e+01 1.414223e+01
    endloop
  endfacet
  facet normal 1.320271e-01 9.912462e-01 1.486409e-07
    outer loop
      vertex -6.900114e+00 2.261052e+01 1.414223e+01
      vertex -2.672511e+01 2.525110e+01 3.414216e+01
      vertex -6.900172e+00 2.261051e+01 3.414220e+01
    endloop
  endfacet
  facet normal 4.296071e-01 -5.616359e-01 7.071088e-01
    outer loop
      vertex -5.981754e+00 -1.867107e+00 4.828434e+01
      vertex -2.186720e+01 -1.401829e+01 4.828435e+01
      vertex 2.610456e+00 -1.309984e+01 3.414226e+01
    endloop
  endfacet
  facet normal 5.616338e-01 4.296105e-01 7.071084e-01
    outer loop
      vertex -6.900172e+00 2.261051e+01 3.414220e+01
      vertex -5.981754e+00 -1.867107e+00 4.828434e+01
      vertex 5.251041e+00 6.725022e+00 3.414225e+01
    endloop
  endfacet
  facet normal 8.093469e-01 -1.077997e-01 5.773533e-01
    outer loop
      vertex 5.251041e+00 6.725022e+00 3.414225e+01
      vertex -5.981754e+00 -1.867107e+00 4.828434e+01
      vertex 2.610456e+00 -1.309984e+01 3.414226e+01
    endloop
  endfacet
  facet normal 7.942740e-01 6.075597e-01 2.352471e-06
    outer loop
      vertex -6.900114e+00 2.261052e+01 1.414223e+01
      vertex -6.900172e+00 2.261051e+01 3.414220e+01
      vertex 5.251041e+00 6.725022e+00 3.414225e+01
    endloop
  endfacet
  facet normal 4.296071e-01 -5.616359e-01 7.071088e-01
    outer loop
      vertex 2.610456e+00 -1.309984e+01 3.414226e+01
      vertex -2.186720e+01 -1.401829e+01 4.828435e+01
      vertex -1.327499e+01 -2.525111e+01 3.414224e+01
    endloop
  endfacet
  facet normal -1.078035e-01 -8.093488e-01 5.773499e-01
    outer loop
      vertex -1.327499e+01 -2.525111e+01 3.414224e+01
      vertex -2.186720e+01 -1.401829e+01 4.828435e+01
      vertex -3.309989e+01 -2.261052e+01 3.414211e+01
    endloop
  endfacet
  facet normal -1.320279e-01 -9.912460e-01 3.875078e-07
    outer loop
      vertex -1.327499e+01 -2.525111e+01 3.414224e+01
      vertex -3.309989e+01 -2.261052e+01 3.414211e+01
      vertex -3.309983e+01 -2.261051e+01 1.414214e+01
    endloop
  endfacet
  facet normal -1.320268e-01 -9.912461e-01 -1.526627e-06
    outer loop
      vertex -1.327499e+01 -2.525111e+01 3.414224e+01
      vertex -3.309983e+01 -2.261051e+01 1.414214e+01
      vertex -1.327489e+01 -2.525110e+01 1.414218e+01
    endloop
  endfacet
  facet normal -1.077971e-01 -8.093495e-01 -5.773502e-01
    outer loop
      vertex -1.327489e+01 -2.525110e+01 1.414218e+01
      vertex -3.309983e+01 -2.261051e+01 1.414214e+01
      vertex -2.186704e+01 -1.401838e+01 3.552714e-15
    endloop
  endfacet
  facet normal -5.616334e-01 -4.296106e-01 -7.071087e-01
    outer loop
      vertex -3.309983e+01 -2.261051e+01 1.414214e+01
      vertex -4.525104e+01 -6.725022e+00 1.414209e+01
      vertex -2.186704e+01 -1.401838e+01 3.552714e-15
    endloop
  endfacet
  facet normal -5.616335e-01 -4.296094e-01 -7.071093e-01
    outer loop
      vertex -2.186704e+01 -1.401838e+01 3.552714e-15
      vertex -4.525104e+01 -6.725022e+00 1.414209e+01
      vertex -3.401823e+01 1.867143e+00 0.000000e+00
    endloop
  endfacet
  facet normal 3.324790e-06 -1.347377e-06 -1.000000e+00
    outer loop
      vertex -2.186704e+01 -1.401838e+01 3.552714e-15
      vertex -3.401823e+01 1.867143e+00 0.000000e+00
      vertex -1.813276e+01 1.401838e+01 0.000000e+00
    endloop
  endfacet
  facet normal -4.296071e-01 5.616359e-01 -7.071088e-01
    outer loop
      vertex -3.401823e+01 1.867143e+00 0.000000e+00
      vertex -2.672501e+01 2.525111e+01 1.414210e+01
      vertex -1.813276e+01 1.401838e+01 0.000000e+00
    endloop
  endfacet
  facet normal 1.078026e-01 8.093482e-01 -5.773509e-01
    outer loop
      vertex -1.813276e+01 1.401838e+01 0.000000e+00
      vertex -2.672501e+01 2.525111e+01 1.414210e+01
      vertex -6.900114e+00 2.261052e+01 1.414223e+01
    endloop
  endfacet
  facet normal 5.616394e-01 4.296089e-01 -7.071050e-01
    outer loop
      vertex -1.813276e+01 1.401838e+01 0.000000e+00
      vertex -6.900114e+00 2.261052e+01 1.414223e+01
      vertex 5.251074e+00 6.725046e+00 1.414227e+01
    endloop
  endfacet
  facet normal 7.942743e-01 6.075593e-01 2.204340e-06
    outer loop
      vertex 5.251074e+00 6.725046e+00 1.414227e+01
      vertex -6.900114e+00 2.261052e+01 1.414223e+01
      vertex 5.251041e+00 6.725022e+00 3.414225e+01
    endloop
  endfacet
  facet normal 6.075595e-01 -7.942742e-01 2.229908e-06
    outer loop
      vertex 2.610456e+00 -1.309984e+01 3.414226e+01
      vertex -1.327499e+01 -2.525111e+01 3.414224e+01
      vertex 2.610572e+00 -1.309987e+01 1.414225e+01
    endloop
  endfacet
  facet normal 9.912462e-01 -1.320269e-01 3.345936e-06
    outer loop
      vertex 2.610572e+00 -1.309987e+01 1.414225e+01
      vertex 5.251041e+00 6.725022e+00 3.414225e+01
      vertex 2.610456e+00 -1.309984e+01 3.414226e+01
    endloop
  endfacet
  facet normal 9.912462e-01 -1.320269e-01 3.345936e-06
    outer loop
      vertex 5.251074e+00 6.725046e+00 1.414227e+01
      vertex 5.251041e+00 6.725022e+00 3.414225e+01
      vertex 2.610572e+00 -1.309987e+01 1.414225e+01
    endloop
  endfacet
  facet normal 6.075595e-01 -7.942742e-01 2.229908e-06
    outer loop
      vertex 2.610572e+00 -1.309987e+01 1.414225e+01
      vertex -1.327499e+01 -2.525111e+01 3.414224e+01
      vertex -1.327489e+01 -2.525110e+01 1.414218e+01
    endloop
  endfacet
  facet normal 4.296120e-01 -5.616372e-01 -7.071048e-01
    outer loop
      vertex -1.327489e+01 -2.525110e+01 1.414218e+01
      vertex -2.186704e+01 -1.401838e+01 3.552714e-15
      vertex -5.981554e+00 -1.867160e+00 1.049457e-04
    endloop
  endfacet
  facet normal 4.296120e-01 -5.616372e-01 -7.071048e-01
    outer loop
      vertex 2.610572e+00 -1.309987e+01 1.414225e+01
      vertex -1.327489e+01 -2.525110e+01 1.414218e+01
      vertex -5.981554e+00 -1.867160e+00 1.049457e-04
    endloop
  endfacet
  facet normal 2.506700e-06 -1.099668e-06 -1.000000e+00
    outer loop
      vertex -2.186704e+01 -1.401838e+01 3.552714e-15
      vertex -1.813276e+01 1.401838e+01 0.000000e+00
      vertex -5.981554e+00 -1.867160e+00 1.049457e-04
    endloop
  endfacet
  facet normal 5.616394e-01 4.296089e-01 -7.071050e-01
    outer loop
      vertex -5.981554e+00 -1.867160e+00 1.049457e-04
      vertex -1.813276e+01 1.401838e+01 0.000000e+00
      vertex 5.251074e+00 6.725046e+00 1.414227e+01
    endloop
  endfacet
  facet normal 8.093514e-01 -1.077995e-01 -5.773471e-01
    outer loop
      vertex -5.981554e+00 -1.867160e+00 1.049457e-04
      vertex 5.251074e+00 6.725046e+00 1.414227e+01
      vertex 2.610572e+00 -1.309987e+01 1.414225e+01
    endloop
  endfacet
  facet normal -4.296120e-01 5.616372e-01 7.071048e-01
    outer loop
      vertex -1.831961e+01 1.261655e+01 4.587009e+01
      vertex -4.034948e+01 1.178990e+01 3.314208e+01
      vertex -3.261659e+01 1.680472e+00 4.587008e+01
    endloop
  endfacet
  facet normal -8.093513e-01 1.077995e-01 5.773472e-01
    outer loop
      vertex -3.261659e+01 1.680472e+00 4.587008e+01
      vertex -4.034948e+01 1.178990e+01 3.314208e+01
      vertex -4.272597e+01 -6.052530e+00 3.314208e+01
    endloop
  endfacet
  facet normal -9.912462e-01 1.320269e-01 -3.345936e-06
    outer loop
      vertex -4.272597e+01 -6.052530e+00 3.314208e+01
      vertex -4.034948e+01 1.178990e+01 3.314208e+01
      vertex -4.034945e+01 1.178990e+01 1.514204e+01
    endloop
  endfacet
  facet normal -6.075597e-01 7.942740e-01 -3.022225e-06
    outer loop
      vertex -4.034945e+01 1.178990e+01 1.514204e+01
      vertex -4.034948e+01 1.178990e+01 3.314208e+01
      vertex -2.605257e+01 2.272601e+01 3.314215e+01
    endloop
  endfacet
  facet normal -4.296120e-01 5.616372e-01 7.071048e-01
    outer loop
      vertex -2.605257e+01 2.272601e+01 3.314215e+01
      vertex -4.034948e+01 1.178990e+01 3.314208e+01
      vertex -1.831961e+01 1.261655e+01 4.587009e+01
    endloop
  endfacet
  facet normal -3.324790e-06 1.347377e-06 1.000000e+00
    outer loop
      vertex -1.831961e+01 1.261655e+01 4.587009e+01
      vertex -3.261659e+01 1.680472e+00 4.587008e+01
      vertex -7.383561e+00 -1.680406e+00 4.587015e+01
    endloop
  endfacet
  facet normal 1.077971e-01 8.093495e-01 5.773502e-01
    outer loop
      vertex -8.210134e+00 2.034952e+01 3.314220e+01
      vertex -2.605257e+01 2.272601e+01 3.314215e+01
      vertex -1.831961e+01 1.261655e+01 4.587009e+01
    endloop
  endfacet
  facet normal 5.616338e-01 4.296105e-01 7.071084e-01
    outer loop
      vertex -8.210134e+00 2.034952e+01 3.314220e+01
      vertex -1.831961e+01 1.261655e+01 4.587009e+01
      vertex -7.383561e+00 -1.680406e+00 4.587015e+01
    endloop
  endfacet
  facet normal -3.698667e-06 4.332262e-07 1.000000e+00
    outer loop
      vertex -7.383561e+00 -1.680406e+00 4.587015e+01
      vertex -3.261659e+01 1.680472e+00 4.587008e+01
      vertex -2.168050e+01 -1.261649e+01 4.587011e+01
    endloop
  endfacet
  facet normal -5.616400e-01 -4.296088e-01 7.071044e-01
    outer loop
      vertex -2.168050e+01 -1.261649e+01 4.587011e+01
      vertex -3.261659e+01 1.680472e+00 4.587008e+01
      vertex -3.178992e+01 -2.034944e+01 3.314214e+01
    endloop
  endfacet
  facet normal -5.616386e-01 -4.296090e-01 7.071055e-01
    outer loop
      vertex -3.178992e+01 -2.034944e+01 3.314214e+01
      vertex -3.261659e+01 1.680472e+00 4.587008e+01
      vertex -4.272597e+01 -6.052530e+00 3.314208e+01
    endloop
  endfacet
  facet normal -7.942740e-01 -6.075597e-01 -2.352471e-06
    outer loop
      vertex -3.178992e+01 -2.034944e+01 3.314214e+01
      vertex -4.272597e+01 -6.052530e+00 3.314208e+01
      vertex -3.178983e+01 -2.034943e+01 1.514215e+01
    endloop
  endfacet
  facet normal -7.942733e-01 -6.075607e-01 -2.067166e-06
    outer loop
      vertex -3.178983e+01 -2.034943e+01 1.514215e+01
      vertex -4.272597e+01 -6.052530e+00 3.314208e+01
      vertex -4.272589e+01 -6.052505e+00 1.514210e+01
    endloop
  endfacet
  facet normal -9.912462e-01 1.320269e-01 -3.345936e-06
    outer loop
      vertex -4.272589e+01 -6.052505e+00 1.514210e+01
      vertex -4.272597e+01 -6.052530e+00 3.314208e+01
      vertex -4.034945e+01 1.178990e+01 1.514204e+01
    endloop
  endfacet
  facet normal -8.093469e-01 1.077997e-01 -5.773533e-01
    outer loop
      vertex -4.272589e+01 -6.052505e+00 1.514210e+01
      vertex -4.034945e+01 1.178990e+01 1.514204e+01
      vertex -3.261642e+01 1.680443e+00 2.414195e+00
    endloop
  endfacet
  facet normal -4.296071e-01 5.616359e-01 -7.071088e-01
    outer loop
      vertex -3.261642e+01 1.680443e+00 2.414195e+00
      vertex -4.034945e+01 1.178990e+01 1.514204e+01
      vertex -2.605253e+01 2.272595e+01 1.514209e+01
    endloop
  endfacet
  facet normal -6.075599e-01 7.942739e-01 -1.685756e-06
    outer loop
      vertex -4.034945e+01 1.178990e+01 1.514204e+01
      vertex -2.605257e+01 2.272601e+01 3.314215e+01
      vertex -2.605253e+01 2.272595e+01 1.514209e+01
    endloop
  endfacet
  facet normal 1.320276e-01 9.912461e-01 9.904790e-07
    outer loop
      vertex -2.605253e+01 2.272595e+01 1.514209e+01
      vertex -2.605257e+01 2.272601e+01 3.314215e+01
      vertex -8.210078e+00 2.034944e+01 1.514220e+01
    endloop
  endfacet
  facet normal 1.320271e-01 9.912462e-01 1.486409e-07
    outer loop
      vertex -8.210078e+00 2.034944e+01 1.514220e+01
      vertex -2.605257e+01 2.272601e+01 3.314215e+01
      vertex -8.210134e+00 2.034952e+01 3.314220e+01
    endloop
  endfacet
  facet normal 4.296071e-01 -5.616359e-01 7.071088e-01
    outer loop
      vertex -7.383561e+00 -1.680406e+00 4.587015e+01
      vertex -2.168050e+01 -1.261649e+01 4.587011e+01
      vertex 3.494544e-01 -1.178988e+01 3.314229e+01
    endloop
  endfacet
  facet normal 5.616338e-01 4.296105e-01 7.071084e-01
    outer loop
      vertex -8.210134e+00 2.034952e+01 3.314220e+01
      vertex -7.383561e+00 -1.680406e+00 4.587015e+01
      vertex 2.725930e+00 6.052597e+00 3.314225e+01
    endloop
  endfacet
  facet normal 8.093469e-01 -1.077997e-01 5.773533e-01
    outer loop
      vertex 2.725930e+00 6.052597e+00 3.314225e+01
      vertex -7.383561e+00 -1.680406e+00 4.587015e+01
      vertex 3.494544e-01 -1.178988e+01 3.314229e+01
    endloop
  endfacet
  facet normal 7.942740e-01 6.075597e-01 2.352471e-06
    outer loop
      vertex -8.210078e+00 2.034944e+01 1.514220e+01
      vertex -8.210134e+00 2.034952e+01 3.314220e+01
      vertex 2.725930e+00 6.052597e+00 3.314225e+01
    endloop
  endfacet
  facet normal 4.296071e-01 -5.616359e-01 7.071088e-01
    outer loop
      vertex 3.494544e-01 -1.178988e+01 3.314229e+01
      vertex -2.168050e+01 -1.261649e+01 4.587011e+01
      vertex -1.394747e+01 -2.272595e+01 3.314225e+01
    endloop
  endfacet
  facet normal -1.078035e-01 -8.093488e-01 5.773499e-01
    outer loop
      vertex -1.394747e+01 -2.272595e+01 3.314225e+01
      vertex -2.168050e+01 -1.261649e+01 4.587011e+01
      vertex -3.178992e+01 -2.034944e+01 3.314214e+01
    endloop
  endfacet
  facet normal -1.320279e-01 -9.912460e-01 3.875078e-07
    outer loop
      vertex -1.394747e+01 -2.272595e+01 3.314225e+01
      vertex -3.178992e+01 -2.034944e+01 3.314214e+01
      vertex -3.178983e+01 -2.034943e+01 1.514215e+01
    endloop
  endfacet
  facet normal -1.320268e-01 -9.912461e-01 -1.526627e-06
    outer loop
      vertex -1.394747e+01 -2.272595e+01 3.314225e+01
      vertex -3.178983e+01 -2.034943e+01 1.514215e+01
      vertex -1.394739e+01 -2.272592e+01 1.514220e+01
    endloop
  endfacet
  facet normal -1.077971e-01 -8.093495e-01 -5.773502e-01
    outer loop
      vertex -1.394739e+01 -2.272592e+01 1.514220e+01
      vertex -3.178983e+01 -2.034943e+01 1.514215e+01
      vertex -2.168035e+01 -1.261646e+01 2.414259e+00
    endloop
  endfacet
  facet normal -5.616334e-01 -4.296106e-01 -7.071087e-01
    outer loop
      vertex -3.178983e+01 -2.034943e+01 1.514215e+01
      vertex -4.272589e+01 -6.052505e+00 1.514210e+01
      vertex -2.168035e+01 -1.261646e+01 2.414259e+00
    endloop
  endfacet
  facet normal -5.616335e-01 -4.296094e-01 -7.071093e-01
    outer loop
      vertex -2.168035e+01 -1.261646e+01 2.414259e+00
      vertex -4.272589e+01 -6.052505e+00 1.514210e+01
      vertex -3.261642e+01 1.680443e+00 2.414195e+00
    endloop
  endfacet
  facet normal 3.324790e-06 -1.347377e-06 -1.000000e+00
    outer loop
      vertex -2.168035e+01 -1.261646e+01 2.414259e+00
      vertex -3.261642e+01 1.680443e+00 2.414195e+00
      vertex -1.831949e+01 1.261650e+01 2.414227e+00
    endloop
  endfacet
  facet normal -4.296071e-01 5.616359e-01 -7.071088e-01
    outer loop
      vertex -3.261642e+01 1.680443e+00 2.414195e+00
      vertex -2.605253e+01 2.272595e+01 1.514209e+01
      vertex -1.831949e+01 1.261650e+01 2.414227e+00
    endloop
  endfacet
  facet normal 1.078026e-01 8.093482e-01 -5.773509e-01
    outer loop
      vertex -1.831949e+01 1.261650e+01 2.414227e+00
      vertex -2.605253e+01 2.272595e+01 1.514209e+01
      vertex -8.210078e+00 2.034944e+01 1.514220e+01
    endloop
  endfacet
  facet normal 5.616394e-01 4.296089e-01 -7.071050e-01
    outer loop
      vertex -1.831949e+01 1.261650e+01 2.414227e+00
      vertex -8.210078e+00 2.034944e+01 1.514220e+01
      vertex 2.725970e+00 6.052530e+00 1.514226e+01
    endloop
  endfacet
  facet normal 7.942743e-01 6.075593e-01 2.204340e-06
    outer loop
      vertex 2.725970e+00 6.052530e+00 1.514226e+01
      vertex -8.210078e+00 2.034944e+01 1.514220e+01
      vertex 2.725930e+00 6.052597e+00 3.314225e+01
    endloop
  endfacet
  facet normal 6.075595e-01 -7.942742e-01 2.229908e-06
    outer loop
      vertex 3.494544e-01 -1.178988e+01 3.314229e+01
      vertex -1.394747e+01 -2.272595e+01 3.314225e+01
      vertex 3.494904e-01 -1.178988e+01 1.514226e+01
    endloop
  endfacet
  facet normal 9.912462e-01 -1.320269e-01 3.345936e-06
    outer loop
      vertex 3.494904e-01 -1.178988e+01 1.514226e+01
      vertex 2.725930e+00 6.052597e+00 3.314225e+01
      vertex 3.494544e-01 -1.178988e+01 3.314229e+01
    endloop
  endfacet
  facet normal 9.912462e-01 -1.320269e-01 3.345936e-06
    outer loop
      vertex 2.725970e+00 6.052530e+00 1.514226e+01
      vertex 2.725930e+00 6.052597e+00 3.314225e+01
      vertex 3.494904e-01 -1.178988e+01 1.514226e+01
    endloop
  endfacet
  facet normal 6.075595e-01 -7.942742e-01 2.229908e-06
    outer loop
      vertex 3.494904e-01 -1.178988e+01 1.514226e+01
      vertex -1.394747e+01 -2.272595e+01 3.314225e+01
      vertex -1.394739e+01 -2.272592e+01 1.514220e+01
    endloop
  endfacet
  facet normal 4.296120e-01 -5.616372e-01 -7.071048e-01
    outer loop
      vertex -1.394739e+01 -2.272592e+01 1.514220e+01
      vertex -2.168035e+01 -1.261646e+01 2.414259e+00
      vertex -7.383392e+00 -1.680439e+00 2.414262e+00
    endloop
  endfacet
  facet normal 4.296120e-01 -5.616372e-01 -7.071048e-01
    outer loop
      vertex 3.494904e-01 -1.178988e+01 1.514226e+01
      vertex -1.394739e+01 -2.272592e+01 1.514220e+01
      vertex -7.383392e+00 -1.680439e+00 2.414262e+00
    endloop
  endfacet
  facet normal 2.506700e-06 -1.099668e-06 -1.000000e+00
    outer loop
      vertex -2.168035e+01 -1.261646e+01 2.414259e+00
      vertex -1.831949e+01 1.261650e+01 2.414227e+00
      vertex -7.383392e+00 -1.680439e+00 2.414262e+00
    endloop
  endfacet
  facet normal 5.616394e-01 4.296089e-01 -7.071050e-01
    outer loop
      vertex -7.383392e+00 -1.680439e+00 2.414262e+00
      vertex -1.831949e+01 1.261650e+01 2.414227e+00
      vertex 2.725970e+00 6.052530e+00 1.514226e+01
    endloop
  endfacet
  facet normal 8.093514e-01 -1.077995e-01 -5.773471e-01
    outer loop
      vertex -7.383392e+00 -1.680439e+00 2.414262e+00
      vertex 2.725970e+00 6.052530e+00 1.514226e+01
      vertex 3.494904e-01 -1.178988e+01 1.514226e+01
    endloop
  endfacet
endsolid Default
