solid Default
  facet normal 2.287667e-03 8.167164e-01 5.770348e-01
    outer loop
      vertex -1.998832e+01 3.652790e+01 1.033105e-01
      vertex -2.004628e+01 1.454862e+01 3.121231e+01
      vertex -9.383507e-01 3.647454e+01 1.033105e-01
    endloop
  endfacet
  facet normal 2.287667e-03 8.167164e-01 5.770348e-01
    outer loop
      vertex -9.383507e-01 3.647454e+01 1.033105e-01
      vertex -2.004628e+01 1.454862e+01 3.121231e+01
      vertex -9.383507e-01 2.550152e+01 1.563418e+01
    endloop
  endfacet
  facet normal 2.287801e-03 8.167163e-01 5.770350e-01
    outer loop
      vertex -9.383507e-01 2.550152e+01 1.563418e+01
      vertex -2.004628e+01 1.454862e+01 3.121231e+01
      vertex -9.383507e-01 1.447877e+01 3.123542e+01
    endloop
  endfacet
  facet normal 2.287969e-03 8.167475e-01 5.769907e-01
    outer loop
      vertex -2.004628e+01 1.454862e+01 3.121231e+01
      vertex -2.004637e+01 1.451606e+01 3.125840e+01
      vertex -9.383507e-01 1.447877e+01 3.123542e+01
    endloop
  endfacet
  facet normal 2.287969e-03 8.167475e-01 5.769907e-01
    outer loop
      vertex -9.383507e-01 1.447877e+01 3.123542e+01
      vertex -2.004637e+01 1.451606e+01 3.125840e+01
      vertex -9.383507e-01 1.446254e+01 3.125840e+01
    endloop
  endfacet
  facet normal 5.700599e-16 4.386450e-16 -1.000000e+00
    outer loop
      vertex -3.913066e+01 3.585892e+00 1.033105e-01
      vertex -1.998832e+01 3.652790e+01 1.033105e-01
      vertex -9.588890e-01 2.548198e+01 1.033105e-01
    endloop
  endfacet
  facet normal 5.700599e-16 4.386450e-16 -1.000000e+00
    outer loop
      vertex -9.588890e-01 2.548198e+01 1.033105e-01
      vertex -1.998832e+01 3.652790e+01 1.033105e-01
      vertex -9.383507e-01 3.647454e+01 1.033105e-01
    endloop
  endfacet
  facet normal -2.641933e-03 -9.431037e-01 3.324883e-01
    outer loop
      vertex -2.004637e+01 1.451606e+01 3.125840e+01
      vertex -3.913066e+01 3.585892e+00 1.033105e-01
      vertex -9.383507e-01 1.446254e+01 3.125840e+01
    endloop
  endfacet
  facet normal -2.641933e-03 -9.431037e-01 3.324883e-01
    outer loop
      vertex -9.383507e-01 1.446254e+01 3.125840e+01
      vertex -3.913066e+01 3.585892e+00 1.033105e-01
      vertex -9.588470e-01 1.081079e+01 2.090006e+01
    endloop
  endfacet
  facet normal 4.183004e-16 7.032097e-16 -1.000000e+00
    outer loop
      vertex -1.000000e+00 3.479042e+00 1.033105e-01
      vertex -3.913066e+01 3.585892e+00 1.033105e-01
      vertex -9.588890e-01 2.548198e+01 1.033105e-01
    endloop
  endfacet
  facet normal -2.642802e-03 -9.431032e-01 3.324898e-01
    outer loop
      vertex -1.000000e+00 3.479042e+00 1.033105e-01
      vertex -9.588470e-01 1.081079e+01 2.090006e+01
      vertex -3.913066e+01 3.585892e+00 1.033105e-01
    endloop
  endfacet
  facet normal -8.155499e-01 4.733403e-01 3.329073e-01
    outer loop
      vertex -1.998832e+01 3.652790e+01 1.033105e-01
      vertex -2.006344e+01 1.453881e+01 3.118422e+01
      vertex -2.004628e+01 1.454862e+01 3.121231e+01
    endloop
  endfacet
  facet normal -8.155192e-01 4.734281e-01 3.328579e-01
    outer loop
      vertex -2.006344e+01 1.453881e+01 3.118422e+01
      vertex -2.004637e+01 1.451606e+01 3.125840e+01
      vertex -2.004628e+01 1.454862e+01 3.121231e+01
    endloop
  endfacet
  facet normal -8.152207e-01 4.737184e-01 3.331756e-01
    outer loop
      vertex -2.006344e+01 1.453881e+01 3.118422e+01
      vertex -1.998832e+01 3.652790e+01 1.033105e-01
      vertex -3.913066e+01 3.585892e+00 1.033105e-01
    endloop
  endfacet
  facet normal -8.150896e-01 4.740933e-01 3.329631e-01
    outer loop
      vertex -2.004637e+01 1.451606e+01 3.125840e+01
      vertex -2.006344e+01 1.453881e+01 3.118422e+01
      vertex -3.913066e+01 3.585892e+00 1.033105e-01
    endloop
  endfacet
  facet normal 9.999974e-01 -1.868380e-03 -1.320067e-03
    outer loop
      vertex -9.383507e-01 1.447877e+01 3.123542e+01
      vertex -9.383507e-01 1.446254e+01 3.125840e+01
      vertex -9.588470e-01 1.081079e+01 2.090006e+01
    endloop
  endfacet
  facet normal 9.999974e-01 -1.868380e-03 -1.320067e-03
    outer loop
      vertex -9.588470e-01 1.081079e+01 2.090006e+01
      vertex -1.000000e+00 3.479042e+00 1.033105e-01
      vertex -9.588890e-01 2.548198e+01 1.033105e-01
    endloop
  endfacet
  facet normal 9.999974e-01 -1.868380e-03 -1.320067e-03
    outer loop
      vertex -9.383507e-01 1.447877e+01 3.123542e+01
      vertex -9.588470e-01 1.081079e+01 2.090006e+01
      vertex -9.383507e-01 2.550152e+01 1.563418e+01
    endloop
  endfacet
  facet normal 9.999974e-01 -1.868380e-03 -1.320067e-03
    outer loop
      vertex -9.383507e-01 2.550152e+01 1.563418e+01
      vertex -9.588470e-01 1.081079e+01 2.090006e+01
      vertex -9.588890e-01 2.548198e+01 1.033105e-01
    endloop
  endfacet
  facet normal 9.999974e-01 -1.868380e-03 -1.320067e-03
    outer loop
      vertex -9.383507e-01 2.550152e+01 1.563418e+01
      vertex -9.588890e-01 2.548198e+01 1.033105e-01
      vertex -9.383507e-01 3.647454e+01 1.033105e-01
    endloop
  endfacet
  facet normal 2.287667e-03 8.167164e-01 5.770348e-01
    outer loop
      vertex -1.932809e+01 -3.442410e+00 1.033105e-01
      vertex -1.938607e+01 -2.542170e+01 3.121231e+01
      vertex -1.013027e+00 -3.493710e+00 1.033105e-01
    endloop
  endfacet
  facet normal 2.287667e-03 8.167164e-01 5.770348e-01
    outer loop
      vertex -1.013027e+00 -3.493710e+00 1.033105e-01
      vertex -1.938607e+01 -2.542170e+01 3.121231e+01
      vertex -1.013027e+00 -1.489005e+01 1.623332e+01
    endloop
  endfacet
  facet normal 2.288078e-03 8.167161e-01 5.770352e-01
    outer loop
      vertex -1.013027e+00 -1.489005e+01 1.623332e+01
      vertex -1.938607e+01 -2.542170e+01 3.121231e+01
      vertex -1.013027e+00 -2.548887e+01 3.123454e+01
    endloop
  endfacet
  facet normal 2.287530e-03 8.166141e-01 5.771795e-01
    outer loop
      vertex -1.938607e+01 -2.542170e+01 3.121231e+01
      vertex -1.938615e+01 -2.545427e+01 3.125840e+01
      vertex -1.013027e+00 -2.548887e+01 3.123454e+01
    endloop
  endfacet
  facet normal 2.287530e-03 8.166141e-01 5.771795e-01
    outer loop
      vertex -1.013027e+00 -2.548887e+01 3.123454e+01
      vertex -1.938615e+01 -2.545427e+01 3.125840e+01
      vertex -1.013027e+00 -2.550574e+01 3.125840e+01
    endloop
  endfacet
  facet normal 5.700629e-16 4.386395e-16 -1.000000e+00
    outer loop
      vertex -3.847044e+01 -3.638443e+01 1.033105e-01
      vertex -1.932809e+01 -3.442410e+00 1.033105e-01
      vertex -1.034359e+00 -1.491036e+01 1.033105e-01
    endloop
  endfacet
  facet normal 5.700629e-16 4.386395e-16 -1.000000e+00
    outer loop
      vertex -1.034359e+00 -1.491036e+01 1.033105e-01
      vertex -1.932809e+01 -3.442410e+00 1.033105e-01
      vertex -1.013027e+00 -3.493710e+00 1.033105e-01
    endloop
  endfacet
  facet normal -2.641858e-03 -9.431038e-01 3.324879e-01
    outer loop
      vertex -1.938615e+01 -2.545427e+01 3.125840e+01
      vertex -3.847044e+01 -3.638443e+01 1.033105e-01
      vertex -1.013027e+00 -2.550574e+01 3.125840e+01
    endloop
  endfacet
  facet normal -2.641858e-03 -9.431038e-01 3.324879e-01
    outer loop
      vertex -1.013027e+00 -2.550574e+01 3.125840e+01
      vertex -3.847044e+01 -3.638443e+01 1.033105e-01
      vertex -1.034317e+00 -2.929878e+01 2.049924e+01
    endloop
  endfacet
  facet normal 4.183004e-16 7.032093e-16 -1.000000e+00
    outer loop
      vertex -1.074677e+00 -3.648922e+01 1.033105e-01
      vertex -3.847044e+01 -3.638443e+01 1.033105e-01
      vertex -1.034359e+00 -1.491036e+01 1.033105e-01
    endloop
  endfacet
  facet normal -2.642716e-03 -9.431033e-01 3.324893e-01
    outer loop
      vertex -1.074677e+00 -3.648922e+01 1.033105e-01
      vertex -1.034317e+00 -2.929878e+01 2.049924e+01
      vertex -3.847044e+01 -3.638443e+01 1.033105e-01
    endloop
  endfacet
  facet normal -8.155314e-01 4.733617e-01 3.329222e-01
    outer loop
      vertex -1.932809e+01 -3.442410e+00 1.033105e-01
      vertex -1.940323e+01 -2.543151e+01 3.118422e+01
      vertex -1.938607e+01 -2.542170e+01 3.121231e+01
    endloop
  endfacet
  facet normal -8.155948e-01 4.731807e-01 3.330242e-01
    outer loop
      vertex -1.940323e+01 -2.543151e+01 3.118422e+01
      vertex -1.938615e+01 -2.545427e+01 3.125840e+01
      vertex -1.938607e+01 -2.542170e+01 3.121231e+01
    endloop
  endfacet
  facet normal -8.152210e-01 4.737183e-01 3.331752e-01
    outer loop
      vertex -1.940323e+01 -2.543151e+01 3.118422e+01
      vertex -1.932809e+01 -3.442410e+00 1.033105e-01
      vertex -3.847044e+01 -3.638443e+01 1.033105e-01
    endloop
  endfacet
  facet normal -8.151892e-01 4.738092e-01 3.331237e-01
    outer loop
      vertex -1.938615e+01 -2.545427e+01 3.125840e+01
      vertex -1.940323e+01 -2.543151e+01 3.118422e+01
      vertex -3.847044e+01 -3.638443e+01 1.033105e-01
    endloop
  endfacet
  facet normal 9.999974e-01 -1.868380e-03 -1.320067e-03
    outer loop
      vertex -1.013027e+00 -2.548887e+01 3.123454e+01
      vertex -1.013027e+00 -2.550574e+01 3.125840e+01
      vertex -1.034317e+00 -2.929878e+01 2.049924e+01
    endloop
  endfacet
  facet normal 9.999974e-01 -1.868380e-03 -1.320067e-03
    outer loop
      vertex -1.034317e+00 -2.929878e+01 2.049924e+01
      vertex -1.074677e+00 -3.648922e+01 1.033105e-01
      vertex -1.034359e+00 -1.491036e+01 1.033105e-01
    endloop
  endfacet
  facet normal 9.999974e-01 -1.868380e-03 -1.320067e-03
    outer loop
      vertex -1.013027e+00 -2.548887e+01 3.123454e+01
      vertex -1.034317e+00 -2.929878e+01 2.049924e+01
      vertex -1.013027e+00 -1.489005e+01 1.623332e+01
    endloop
  endfacet
  facet normal 9.999974e-01 -1.868380e-03 -1.320067e-03
    outer loop
      vertex -1.013027e+00 -1.489005e+01 1.623332e+01
      vertex -1.034317e+00 -2.929878e+01 2.049924e+01
      vertex -1.034359e+00 -1.491036e+01 1.033105e-01
    endloop
  endfacet
  facet normal 9.999974e-01 -1.868380e-03 -1.320067e-03
    outer loop
      vertex -1.013027e+00 -1.489005e+01 1.623332e+01
      vertex -1.034359e+00 -1.491036e+01 1.033105e-01
      vertex -1.013027e+00 -3.493710e+00 1.033105e-01
    endloop
  endfacet
  facet normal 2.287667e-03 8.167164e-01 5.770348e-01
    outer loop
      vertex 2.016957e+01 1.447348e+01 3.115922e+01
      vertex 2.011161e+01 3.645298e+01 5.037575e-02
      vertex 1.061642e+00 2.549778e+01 1.563154e+01
    endloop
  endfacet
  facet normal 2.287667e-03 8.167164e-01 5.770348e-01
    outer loop
      vertex 1.061642e+00 2.549778e+01 1.563154e+01
      vertex 2.011161e+01 3.645298e+01 5.037575e-02
      vertex 1.061642e+00 3.647081e+01 1.006704e-01
    endloop
  endfacet
  facet normal 2.287533e-03 8.167163e-01 5.770350e-01
    outer loop
      vertex 1.061642e+00 1.447503e+01 3.123279e+01
      vertex 2.016957e+01 1.447348e+01 3.115922e+01
      vertex 1.061642e+00 2.549778e+01 1.563154e+01
    endloop
  endfacet
  facet normal 2.287366e-03 8.167475e-01 5.769907e-01
    outer loop
      vertex 2.016966e+01 1.444092e+01 3.120531e+01
      vertex 2.016957e+01 1.447348e+01 3.115922e+01
      vertex 1.061642e+00 1.445880e+01 3.125576e+01
    endloop
  endfacet
  facet normal 2.287366e-03 8.167475e-01 5.769907e-01
    outer loop
      vertex 1.061642e+00 1.445880e+01 3.125576e+01
      vertex 2.016957e+01 1.447348e+01 3.115922e+01
      vertex 1.061642e+00 1.447503e+01 3.123279e+01
    endloop
  endfacet
  facet normal -2.640128e-03 4.932775e-06 -9.999965e-01
    outer loop
      vertex 2.011161e+01 3.645298e+01 5.037575e-02
      vertex 3.913066e+01 3.439671e+00 0.000000e+00
      vertex 1.061642e+00 3.647081e+01 1.006704e-01
    endloop
  endfacet
  facet normal -2.640128e-03 4.932775e-06 -9.999965e-01
    outer loop
      vertex 1.061642e+00 3.647081e+01 1.006704e-01
      vertex 3.913066e+01 3.439671e+00 0.000000e+00
      vertex 1.041103e+00 2.547824e+01 1.006704e-01
    endloop
  endfacet
  facet normal -4.426410e-06 -9.431086e-01 3.324848e-01
    outer loop
      vertex 3.913066e+01 3.439671e+00 0.000000e+00
      vertex 2.016966e+01 1.444092e+01 3.120531e+01
      vertex 1.041145e+00 1.080706e+01 2.089743e+01
    endloop
  endfacet
  facet normal -4.426410e-06 -9.431086e-01 3.324848e-01
    outer loop
      vertex 1.041145e+00 1.080706e+01 2.089743e+01
      vertex 2.016966e+01 1.444092e+01 3.120531e+01
      vertex 1.061642e+00 1.445880e+01 3.125576e+01
    endloop
  endfacet
  facet normal -2.640128e-03 4.932775e-06 -9.999965e-01
    outer loop
      vertex 1.041103e+00 2.547824e+01 1.006704e-01
      vertex 3.913066e+01 3.439671e+00 0.000000e+00
      vertex 9.999962e-01 3.475307e+00 1.006704e-01
    endloop
  endfacet
  facet normal -3.552016e-06 -9.431081e-01 3.324862e-01
    outer loop
      vertex 3.913066e+01 3.439671e+00 0.000000e+00
      vertex 1.041145e+00 1.080706e+01 2.089743e+01
      vertex 9.999962e-01 3.475307e+00 1.006704e-01
    endloop
  endfacet
  facet normal 8.181890e-01 4.702879e-01 3.307507e-01
    outer loop
      vertex 2.016957e+01 1.447348e+01 3.115922e+01
      vertex 2.018662e+01 1.446361e+01 3.113109e+01
      vertex 2.011161e+01 3.645298e+01 5.037575e-02
    endloop
  endfacet
  facet normal 8.181584e-01 4.703757e-01 3.307014e-01
    outer loop
      vertex 2.016957e+01 1.447348e+01 3.115922e+01
      vertex 2.016966e+01 1.444092e+01 3.120531e+01
      vertex 2.018662e+01 1.446361e+01 3.113109e+01
    endloop
  endfacet
  facet normal 8.178620e-01 4.706672e-01 3.310198e-01
    outer loop
      vertex 3.913066e+01 3.439671e+00 0.000000e+00
      vertex 2.011161e+01 3.645298e+01 5.037575e-02
      vertex 2.018662e+01 1.446361e+01 3.113109e+01
    endloop
  endfacet
  facet normal 8.177317e-01 4.710426e-01 3.308077e-01
    outer loop
      vertex 3.913066e+01 3.439671e+00 0.000000e+00
      vertex 2.018662e+01 1.446361e+01 3.113109e+01
      vertex 2.016966e+01 1.444092e+01 3.120531e+01
    endloop
  endfacet
  facet normal -9.999974e-01 1.868380e-03 1.320067e-03
    outer loop
      vertex 1.061642e+00 2.549778e+01 1.563154e+01
      vertex 1.061642e+00 3.647081e+01 1.006704e-01
      vertex 1.041103e+00 2.547824e+01 1.006704e-01
    endloop
  endfacet
  facet normal -9.999974e-01 1.868380e-03 1.320067e-03
    outer loop
      vertex 1.041103e+00 2.547824e+01 1.006704e-01
      vertex 9.999962e-01 3.475307e+00 1.006704e-01
      vertex 1.041145e+00 1.080706e+01 2.089743e+01
    endloop
  endfacet
  facet normal -9.999974e-01 1.868380e-03 1.320067e-03
    outer loop
      vertex 1.061642e+00 2.549778e+01 1.563154e+01
      vertex 1.041103e+00 2.547824e+01 1.006704e-01
      vertex 1.061642e+00 1.447503e+01 3.123279e+01
    endloop
  endfacet
  facet normal -9.999974e-01 1.868380e-03 1.320067e-03
    outer loop
      vertex 1.061642e+00 1.447503e+01 3.123279e+01
      vertex 1.041103e+00 2.547824e+01 1.006704e-01
      vertex 1.041145e+00 1.080706e+01 2.089743e+01
    endloop
  endfacet
  facet normal -9.999974e-01 1.868380e-03 1.320067e-03
    outer loop
      vertex 1.061642e+00 1.447503e+01 3.123279e+01
      vertex 1.041145e+00 1.080706e+01 2.089743e+01
      vertex 1.061642e+00 1.445880e+01 3.125576e+01
    endloop
  endfacet
  facet normal 2.287668e-03 8.167164e-01 5.770348e-01
    outer loop
      vertex 1.936001e+01 -2.549409e+01 3.116116e+01
      vertex 1.930204e+01 -3.514584e+00 5.231598e-02
      vertex 9.869690e-01 -1.489379e+01 1.623068e+01
    endloop
  endfacet
  facet normal 2.287668e-03 8.167164e-01 5.770348e-01
    outer loop
      vertex 9.869690e-01 -1.489379e+01 1.623068e+01
      vertex 1.930204e+01 -3.514584e+00 5.231598e-02
      vertex 9.869690e-01 -3.497448e+00 1.006704e-01
    endloop
  endfacet
  facet normal 2.287257e-03 8.167161e-01 5.770352e-01
    outer loop
      vertex 9.869690e-01 -2.549261e+01 3.123190e+01
      vertex 1.936001e+01 -2.549409e+01 3.116116e+01
      vertex 9.869690e-01 -1.489379e+01 1.623068e+01
    endloop
  endfacet
  facet normal 2.287804e-03 8.166141e-01 5.771795e-01
    outer loop
      vertex 1.936008e+01 -2.552667e+01 3.120725e+01
      vertex 1.936001e+01 -2.549409e+01 3.116116e+01
      vertex 9.869690e-01 -2.550948e+01 3.125576e+01
    endloop
  endfacet
  facet normal 2.287804e-03 8.166141e-01 5.771795e-01
    outer loop
      vertex 9.869690e-01 -2.550948e+01 3.125576e+01
      vertex 1.936001e+01 -2.549409e+01 3.116116e+01
      vertex 9.869690e-01 -2.549261e+01 3.123190e+01
    endloop
  endfacet
  facet normal -2.640128e-03 4.932775e-06 -9.999965e-01
    outer loop
      vertex 1.930204e+01 -3.514584e+00 5.231598e-02
      vertex 3.832108e+01 -3.652790e+01 1.940258e-03
      vertex 9.869690e-01 -3.497448e+00 1.006704e-01
    endloop
  endfacet
  facet normal -2.640128e-03 4.932775e-06 -9.999965e-01
    outer loop
      vertex 9.869690e-01 -3.497448e+00 1.006704e-01
      vertex 3.832108e+01 -3.652790e+01 1.940258e-03
      vertex 9.656372e-01 -1.491409e+01 1.006704e-01
    endloop
  endfacet
  facet normal -4.502686e-06 -9.431088e-01 3.324844e-01
    outer loop
      vertex 3.832108e+01 -3.652790e+01 1.940258e-03
      vertex 1.936008e+01 -2.552667e+01 3.120725e+01
      vertex 9.656792e-01 -2.930252e+01 2.049660e+01
    endloop
  endfacet
  facet normal -4.502686e-06 -9.431088e-01 3.324844e-01
    outer loop
      vertex 9.656792e-01 -2.930252e+01 2.049660e+01
      vertex 1.936008e+01 -2.552667e+01 3.120725e+01
      vertex 9.869690e-01 -2.550948e+01 3.125576e+01
    endloop
  endfacet
  facet normal -2.640128e-03 4.932775e-06 -9.999965e-01
    outer loop
      vertex 9.656372e-01 -1.491409e+01 1.006704e-01
      vertex 3.832108e+01 -3.652790e+01 1.940258e-03
      vertex 9.253197e-01 -3.649295e+01 1.006704e-01
    endloop
  endfacet
  facet normal -3.639334e-06 -9.431083e-01 3.324858e-01
    outer loop
      vertex 3.832108e+01 -3.652790e+01 1.940258e-03
      vertex 9.656792e-01 -2.930252e+01 2.049660e+01
      vertex 9.253197e-01 -3.649295e+01 1.006704e-01
    endloop
  endfacet
  facet normal 8.181706e-01 4.703094e-01 3.307657e-01
    outer loop
      vertex 1.936001e+01 -2.549409e+01 3.116116e+01
      vertex 1.937705e+01 -2.550396e+01 3.113303e+01
      vertex 1.930204e+01 -3.514584e+00 5.231598e-02
    endloop
  endfacet
  facet normal 8.182337e-01 4.701281e-01 3.308675e-01
    outer loop
      vertex 1.936001e+01 -2.549409e+01 3.116116e+01
      vertex 1.936008e+01 -2.552667e+01 3.120725e+01
      vertex 1.937705e+01 -2.550396e+01 3.113303e+01
    endloop
  endfacet
  facet normal 8.178623e-01 4.706671e-01 3.310195e-01
    outer loop
      vertex 3.832108e+01 -3.652790e+01 1.940258e-03
      vertex 1.930204e+01 -3.514584e+00 5.231598e-02
      vertex 1.937705e+01 -2.550396e+01 3.113303e+01
    endloop
  endfacet
  facet normal 8.178307e-01 4.707580e-01 3.309680e-01
    outer loop
      vertex 3.832108e+01 -3.652790e+01 1.940258e-03
      vertex 1.937705e+01 -2.550396e+01 3.113303e+01
      vertex 1.936008e+01 -2.552667e+01 3.120725e+01
    endloop
  endfacet
  facet normal -9.999974e-01 1.868380e-03 1.320067e-03
    outer loop
      vertex 9.656372e-01 -1.491409e+01 1.006704e-01
      vertex 9.253197e-01 -3.649295e+01 1.006704e-01
      vertex 9.656792e-01 -2.930252e+01 2.049660e+01
    endloop
  endfacet
  facet normal -9.999974e-01 1.868380e-03 1.320067e-03
    outer loop
      vertex 9.869690e-01 -3.497448e+00 1.006704e-01
      vertex 9.656372e-01 -1.491409e+01 1.006704e-01
      vertex 9.869690e-01 -1.489379e+01 1.623068e+01
    endloop
  endfacet
  facet normal -9.999974e-01 1.868380e-03 1.320067e-03
    outer loop
      vertex 9.869690e-01 -1.489379e+01 1.623068e+01
      vertex 9.656372e-01 -1.491409e+01 1.006704e-01
      vertex 9.656792e-01 -2.930252e+01 2.049660e+01
    endloop
  endfacet
  facet normal -9.999974e-01 1.868380e-03 1.320067e-03
    outer loop
      vertex 9.869690e-01 -1.489379e+01 1.623068e+01
      vertex 9.656792e-01 -2.930252e+01 2.049660e+01
      vertex 9.869690e-01 -2.549261e+01 3.123190e+01
    endloop
  endfacet
  facet normal -9.999974e-01 1.868380e-03 1.320067e-03
    outer loop
      vertex 9.869690e-01 -2.549261e+01 3.123190e+01
      vertex 9.656792e-01 -2.930252e+01 2.049660e+01
      vertex 9.869690e-01 -2.550948e+01 3.125576e+01
    endloop
  endfacet
endsolid Default
